<?xml version="1.0" encoding="UTF-8" standalone="no"?>
<!-- Created with Inkscape (http://www.inkscape.org/) -->

<svg
   xmlns:dc="http://purl.org/dc/elements/1.1/"
   xmlns:cc="http://creativecommons.org/ns#"
   xmlns:rdf="http://www.w3.org/1999/02/22-rdf-syntax-ns#"
   xmlns:svg="http://www.w3.org/2000/svg"
   xmlns="http://www.w3.org/2000/svg"
   xmlns:sodipodi="http://sodipodi.sourceforge.net/DTD/sodipodi-0.dtd"
   xmlns:inkscape="http://www.inkscape.org/namespaces/inkscape"
   width="744.09448819"
   height="1052.3622047"
   id="svg3274"
   version="1.1"
   inkscape:version="0.92.2 (5c3e80d, 2017-08-06)"
   sodipodi:docname="oshwi.svg"
   inkscape:export-filename="/home/salvari/work/graphicsResources/BL/oshwi.png"
   inkscape:export-xdpi="90"
   inkscape:export-ydpi="90">
  <defs
     id="defs3276" />
  <sodipodi:namedview
     id="base"
     pagecolor="#ffffff"
     bordercolor="#666666"
     borderopacity="1.0"
     inkscape:pageopacity="0.0"
     inkscape:pageshadow="2"
     inkscape:zoom="1.4"
     inkscape:cx="339.00185"
     inkscape:cy="485.67148"
     inkscape:document-units="px"
     inkscape:current-layer="layer1"
     showgrid="false"
     inkscape:window-width="1920"
     inkscape:window-height="1016"
     inkscape:window-x="0"
     inkscape:window-y="27"
     inkscape:window-maximized="1" />
  <metadata
     id="metadata3279">
    <rdf:RDF>
      <cc:Work
         rdf:about="">
        <dc:format>image/svg+xml</dc:format>
        <dc:type
           rdf:resource="http://purl.org/dc/dcmitype/StillImage" />
        <dc:title />
      </cc:Work>
    </rdf:RDF>
  </metadata>
  <g
     inkscape:label="Layer 1"
     inkscape:groupmode="layer"
     id="layer1">
    <g
       id="g911">
      <path
         stroke-miterlimit="10"
         d="m 377.44885,910.82953 c -8.58848,-1.25564 -17.75678,-4.33451 -26.44833,-8.87904 -6.72016,-3.51179 -8.59235,-4.13478 -10.38336,-3.4493 -3.73277,1.42701 -12.31481,0.17781 -16.1294,-2.34764 -9.36222,-6.19639 -10.44842,-17.53323 -2.44364,-25.51547 7.15181,-7.12925 18.80884,-7.14342 26.6313,-0.0264 3.23155,2.93906 4.65534,6.35744 4.65534,11.18673 v 4.38411 l 6.21893,1.49401 c 27.32709,6.55717 45.51358,4.90982 55.44661,-5.02449 4.00787,-4.00723 6.90828,-9.76101 6.93533,-13.76372 0.0651,-8.92349 -5.46258,-21.12105 -24.23598,-53.47714 -25.34345,-43.68198 -35.09157,-66.01292 -40.88917,-93.66407 -1.52751,-7.28645 -1.5114,-32.18859 0.0367,-53.02165 1.51591,-20.41753 0.91934,-58.88432 -1.21441,-78.35608 -1.6248,-14.84156 -3.96277,-29.64896 -4.9678,-31.47605 -1.40124,-2.54801 -11.54236,25.36342 -15.83885,43.59758 -5.66939,24.06011 -6.94822,51.39299 -3.40228,72.75692 2.90492,17.49972 3.12912,20.82727 2.07448,30.84146 -1.88378,17.88305 -6.6422,33.63751 -22.54676,74.6523 -14.13288,36.44063 -14.44341,48.67748 -1.40897,55.48204 5.49415,2.86626 18.70382,3.31337 23.63683,0.79564 2.25809,-1.15256 4.07874,-2.90878 4.78805,-4.62119 1.48435,-3.58395 0.79565,-11.23118 -1.41863,-15.7551 -1.51914,-3.10399 -2.31092,-3.67028 -6.63963,-4.7655 -6.20347,-1.57068 -10.60819,-4.90338 -12.77029,-9.66438 -3.46928,-7.63949 -0.95542,-15.9503 6.19509,-20.48645 7.04357,-4.46787 15.02323,-4.3519 21.95019,0.31568 6.26661,4.22305 8.97116,13.46737 5.7583,19.67986 -1.30138,2.51836 -1.23632,3.09561 1.03981,9.21146 2.00104,5.37303 2.44428,8.1156 2.51773,15.55474 0.0812,8.19613 -0.14818,9.51039 -2.48551,14.27075 -3.3662,6.85673 -9.41312,11.67958 -18.04605,14.3938 -5.33953,1.67762 -8.43579,2.02358 -17.7542,1.96946 -21.81425,-0.12884 -34.97883,-6.22279 -40.81185,-18.8958 -1.80905,-3.9325 -2.07384,-5.91421 -2.04807,-15.3518 0.0367,-13.59558 2.25874,-22.16344 14.40926,-55.55613 13.12141,-36.05794 16.48954,-48.7651 17.34124,-65.43503 0.43358,-8.47896 0.15591,-11.70922 -1.90118,-22.0784 -4.6766,-23.58014 -4.81704,-45.85567 -0.44839,-71.32153 1.48885,-8.68318 6.26209,-28.73541 8.5015,-35.71842 1.50045,-4.67854 -1.56746,1.84834 -6.15386,13.09241 -12.68848,31.10239 -23.31793,64.20774 -28.79791,89.68584 -2.73226,12.69814 -2.75867,13.08984 -3.46863,51.17201 -0.39493,21.10494 -1.17383,41.6249 -1.73174,45.59669 -5.70418,40.55287 -17.33802,67.83679 -36.775,86.23331 -8.92606,8.45125 -20.18366,14.56002 -30.88205,16.76012 -5.03931,1.03467 -7.10413,1.91987 -8.43772,3.61553 -6.34263,8.0647 -22.0114,7.7851 -28.9957,-0.51669 -9.05684,-10.76282 -1.72465,-25.84983 13.08211,-26.91992 4.70946,-0.3421 6.10039,-0.0238 11.13004,2.52803 l 5.74863,2.9178 4.53229,-1.50497 c 22.42887,-7.44944 36.61973,-34.14968 40.81314,-76.79249 0.53666,-5.46258 1.31491,-28.41973 1.72917,-51.01481 0.81819,-44.75852 1.23566,-49.23025 6.84642,-73.58929 4.69013,-20.36083 13.52342,-48.68135 20.81696,-66.74479 1.18671,-2.93906 2.01714,-5.48384 1.84449,-5.6565 -0.5051,-0.50574 -21.43415,41.19132 -29.4209,58.61373 -15.95417,34.80746 -19.5742,46.62491 -30.35635,99.11377 -10.70483,52.10424 -16.10492,67.12103 -27.81156,77.32335 -10.02386,8.73729 -26.83231,11.25051 -44.11298,6.5971 -16.9373,-4.55999 -29.60644,-19.99103 -29.60644,-36.06117 0,-4.73909 -0.27123,-5.41555 -3.57043,-8.88161 -9.830588,-10.33567 -3.02281,-26.31884 11.86448,-27.85344 4.18246,-0.43293 5.88328,-0.13207 10.04383,1.77169 6.88767,3.15359 10.11535,8.00414 10.07476,15.14048 -0.0399,6.86705 -3.08144,11.58488 -9.36673,14.5336 -5.46902,2.56733 -5.66552,3.76628 -1.86381,11.37486 5.90196,11.81165 19.13869,16.81037 33.3856,12.60858 10.78408,-3.18001 18.69288,-16.30399 24.32812,-40.36925 0.98699,-4.22176 3.62003,-18.46739 5.84913,-31.65644 9.09357,-53.81343 19.41829,-93.66085 33.38367,-128.86259 3.60199,-9.07424 6.26789,-16.18481 5.9258,-15.79955 -0.3421,0.38397 -2.78509,3.94989 -5.42973,7.92361 -16.43285,24.68632 -27.43919,34.64704 -52.322,47.35356 -11.80585,6.02823 -22.51906,10.41878 -41.98632,17.20723 -15.6372,5.45485 -24.08072,9.60575 -31.28664,15.38659 -6.566824,5.26802 -10.842701,10.42136 -14.025933,16.90572 -2.218792,4.51747 -3.192896,6.32201 -3.187742,13.41261 0.0052,6.67055 1.019846,8.69478 2.675565,11.8007 5.675829,10.65523 17.1106,12.05196 25.80022,3.14909 l 3.35267,-3.43062 -1.59645,-3.10593 c -0.9348,-1.81871 -1.57712,-4.99485 -1.55199,-7.67171 0.14109,-14.42859 19.4286,-21.87288 30.80152,-11.88703 7.45846,6.54815 7.74644,17.63695 0.62943,24.31974 -2.45459,2.30448 -9.00015,5.22679 -11.70793,5.22679 -0.67195,0 -3.80622,2.58279 -6.96497,5.7409 -3.70314,3.70249 -7.95132,6.82839 -11.96756,8.8043 -5.69129,2.79926 -7.12088,3.58911 -14.563238,3.57751 -7.171775,-0.0122 -8.560774,-0.85492 -13.147824,-3.16713 -14.384781,-7.24586 -23.235467,-25.54767 -20.534133,-42.45533 1.180264,-7.39211 5.194576,-18.12915 9.364797,-25.05482 4.581895,-7.61115 9.370594,-12.96486 16.375508,-18.3089 10.38078,-7.92039 14.25335,-9.78678 46.95219,-22.62536 30.8711,-12.11768 45.9027,-23.40877 64.68384,-48.58858 4.76035,-6.38193 13.07953,-18.96281 18.48735,-27.95781 9.37704,-15.59983 29.52076,-54.51373 36.86455,-71.21652 l 3.4493,-7.84373 -6.01406,-5.92579 c -3.30693,-3.25861 -6.21893,-5.92516 -6.47147,-5.92516 -0.25126,0 -3.35589,2.03454 -6.89797,4.52327 l -6.44056,4.52198 -7.29547,-6.96497 c -4.01366,-3.82941 -11.85803,-11.40255 -17.43336,-16.82777 l -10.13725,-9.86344 1.63832,-2.36826 c 0.9026,-1.30074 6.56747,-9.33516 12.58991,-17.85342 l 10.95029,-15.48773 -6.89732,-17.01783 c -3.79463,-9.36028 -7.03584,-17.19241 -7.2027,-17.40308 -0.16686,-0.21325 -9.66244,-2.09188 -21.09914,-4.17666 -11.43799,-2.08415 -20.92713,-3.94345 -21.08561,-4.12964 -0.15913,-0.18554 -0.55921,-10.97413 -0.88713,-23.97313 -0.55856,-22.14089 -0.49607,-23.6626 1.00438,-24.11164 0.88069,-0.26414 10.94643,-2.16081 22.36831,-4.21854 11.42188,-2.05644 21.07079,-4.02398 21.44124,-4.37058 0.36915,-0.3479 3.45574,-7.77157 6.85673,-16.49663 l 6.18479,-15.86526 -13.06858,-18.28571 -13.0673,-18.28635 17.14475,-17.14539 17.14603,-17.14474 18.55693,12.7368 c 10.20683,7.00555 19.05365,12.73937 19.65795,12.73937 0.60495,0 7.8579,-2.86176 16.11717,-6.35874 l 15.01614,-6.35873 4.53616,-22.7613 4.53551,-22.76001 h 23.39717 23.39717 l 4.43759,22.73939 4.43951,22.7394 15.80857,6.34585 15.80857,6.34649 19.20634,-13.0441 19.20569,-13.04474 16.7801,17.1486 16.7801,17.14797 -10.19266,15.56762 c -5.60625,8.5627 -11.2911,17.22334 -12.63307,19.24628 l -2.44235,3.67866 6.67184,15.73448 6.6712,15.73448 21.89349,3.79527 c 12.04036,2.08672 22.0275,3.92991 22.19308,4.09613 0.20938,0.20938 0.83816,36.61973 0.83816,48.55572 0,0.006 -9.50911,1.6132 -21.13393,3.57171 -11.62353,1.95723 -21.41288,3.8816 -21.75627,4.27653 -0.34274,0.39428 -3.78947,8.08338 -7.65947,17.08611 l -7.04035,16.371 12.32577,18.23417 12.3264,18.23352 -16.42254,17.07967 -16.42189,17.07967 -4.08003,-2.38758 -4.07744,-2.39145 -2.3077,3.0692 c -1.26917,1.68793 -4.06972,4.98068 -6.22473,7.31801 l -3.91832,4.24947 14.20954,20.13598 c 53.18787,75.37257 85.35262,111.38928 114.61954,128.3459 9.15606,5.30475 20.3647,10.03868 29.7179,12.55254 10.50963,2.82374 29.6161,2.80506 39.61677,-0.0393 8.69736,-2.4752 17.05133,-6.20089 26.0605,-11.62417 6.8052,-4.09485 6.89281,-4.19728 5.98442,-6.80456 -3.55689,-10.20038 5.91549,-21.48182 18.03445,-21.48182 14.21857,0 23.03897,14.65343 15.46777,25.70294 -3.55948,5.19522 -7.52032,7.19239 -15.00842,7.57121 l -6.69825,0.33759 -6.02308,6.02114 c -14.95043,14.9485 -43.57504,22.54483 -75.36806,20.00714 -21.48826,-1.71563 -44.67605,-6.67055 -54.55303,-11.65639 -17.99837,-9.08584 -42.29684,-34.83838 -66.99347,-71.00778 -4.01689,-5.87877 -7.30255,-10.41041 -7.30255,-10.06961 0,1.05013 8.7373,18.10017 16.8909,32.96298 19.35838,35.28742 34.52077,54.66449 48.16531,61.55086 6.69825,3.38037 18.97956,6.39288 38.56021,9.45306 46.31824,7.24199 63.43399,12.67172 75.49046,23.95122 4.03235,3.77143 6.5024,7.03777 8.33142,11.02374 2.33025,5.06895 2.5989,6.60999 2.56669,14.69402 -0.0303,7.65045 -0.41232,9.99165 -2.51257,15.34922 -9.39443,23.97313 -29.56907,36.53082 -51.32986,31.947 -14.92144,-3.14072 -27.10804,-14.87506 -30.46909,-29.34037 -0.99407,-4.28039 -1.32908,-4.69206 -4.63987,-5.6842 -4.42663,-1.32716 -9.73009,-5.88328 -11.34586,-9.74684 -2.73742,-6.5533 -0.9754,-13.19228 4.90917,-18.50217 4.14316,-3.73729 7.83149,-4.75391 15.07413,-4.15347 13.8726,1.14998 20.5715,16.35424 11.74851,26.6648 l -3.13878,3.66448 3.56012,5.28349 c 5.28348,7.84114 8.70315,9.79837 17.12606,9.79837 8.19742,0 13.18326,-2.16274 19.46661,-8.44739 5.66746,-5.66681 8.10143,-11.0044 8.12204,-17.8038 0.018,-6.49016 -2.67105,-11.36519 -8.67351,-15.71258 -8.1549,-5.9084 -15.71,-7.57379 -51.3305,-11.32202 -31.76081,-3.34236 -41.18681,-5.62172 -57.79167,-13.97182 -12.8373,-6.45537 -23.26575,-17.80832 -40.35122,-43.921 -4.91562,-7.51645 -12.77094,-20.39691 -17.45398,-28.62654 -4.68433,-8.22963 -8.63551,-14.84155 -8.78304,-14.69595 -0.14882,0.14882 0.36464,2.05773 1.13839,4.24689 2.51192,7.11186 6.58808,24.5143 8.12397,34.67925 2.01457,13.34561 2.00555,31.42709 -0.0258,46.95025 -2.38436,18.21742 -2.2291,41.2216 0.35885,53.56669 3.37071,16.07207 9.00917,26.74598 17.56865,33.24773 12.85405,9.76552 32.00305,6.2563 39.12973,-7.17177 2.46038,-4.63215 2.05386,-11.94566 -0.96831,-17.45914 -2.41013,-4.3957 -2.75545,-4.65534 -6.74399,-5.03995 -12.29677,-1.18671 -20.00972,-11.95017 -15.90779,-22.20145 5.08828,-12.71747 23.34499,-15.37435 32.32324,-4.70623 3.69348,4.3899 4.29842,11.8838 1.49659,18.56273 -1.0366,2.47456 -0.92836,3.1085 1.09007,6.32201 7.06483,11.24729 9.77711,26.03279 6.55394,35.73517 -4.28168,12.89142 -24.61674,24.2682 -43.38048,24.2682 -27.53969,0 -50.91689,-25.19656 -58.64272,-63.20464 -2.48293,-12.21882 -2.69875,-31.1404 -0.52699,-46.31245 4.39571,-30.71068 0.65069,-59.71024 -12.19176,-94.42751 -3.55625,-9.61412 -15.51673,-34.75269 -17.88305,-37.58803 -1.46438,-1.75815 -1.49273,-1.73174 -1.01405,0.90195 1.25886,6.92502 4.08389,32.03139 4.9794,44.24312 0.55534,7.57765 0.88069,29.25726 0.73766,49.21092 l -0.25512,35.66496 2.45394,12.22912 c 6.95982,34.68505 18.83912,73.26974 36.40713,118.24408 16.67508,42.68984 17.0713,43.97319 17.09771,55.54518 0.0213,9.44404 -0.1282,10.2545 -2.9455,15.97994 -1.86059,3.78431 -4.54195,7.41787 -7.19239,9.75134 -11.91924,10.49095 -36.56239,16.36069 -56.46388,13.44998 h -0.005 z"
         id="path10"
         inkscape:connector-curvature="0"
         style="stroke:#010202;stroke-width:0.13155554;stroke-miterlimit:10" />
      <path
         style="fill:#13738d;stroke:#010202;stroke-width:0.13168439;stroke-miterlimit:10"
         inkscape:connector-curvature="0"
         d="m 427.93925,533.57628 c 0.25899,-0.27767 1.00567,0.20359 2.17112,1.72981 0.94253,1.23438 5.01612,7.65625 9.05298,14.26817 32.14284,52.65701 64.00029,89.85334 86.86274,101.40858 10.84656,5.48191 35.87884,10.57728 55.80802,11.3581 34.41254,1.34648 57.35294,-5.67196 74.11306,-22.67883 2.48423,-2.5203 4.44274,-3.86871 4.7945,-3.29984 0.93416,1.51076 7.79799,1.08813 11.79233,-0.72865 11.0044,-4.99937 14.31971,-16.17708 7.09382,-23.92159 -7.41981,-7.95389 -19.85317,-7.71037 -27.09065,0.53344 -3.79269,4.31969 -4.51812,8.63551 -2.29482,13.65936 l 1.73819,3.92862 -7.79219,4.56193 c -15.18751,8.8932 -26.48184,13.16457 -39.06659,14.77906 -24.58581,3.15231 -54.30886,-7.94165 -80.75977,-30.13988 -24.23276,-20.33828 -63.16212,-68.23107 -103.75944,-127.65462 l -4.40022,-6.43991 -5.02643,3.39906 c -5.86072,3.96341 -11.05852,6.67441 -16.65124,8.47508"
         stroke-miterlimit="10"
         id="Ultima_pata" />
      <path
         style="fill:#34aacd;stroke:#010202;stroke-width:0.13168439;stroke-miterlimit:10"
         inkscape:connector-curvature="0"
         id="path14"
         d="m 394.60454,496.78969 c -5.6056,1.8039 -11.61,2.69296 -19.07491,3.00864 -9.01368,0.37753 -12.17694,0.13401 -18.82687,-1.45857 -11.7833,-2.81666 -22.5706,-8.72893 -31.70476,-17.37539 l -7.48294,-7.08287 -2.31157,1.82065 c -4.21725,3.31595 -13.62199,7.10993 -20.35181,8.2103 -8.49957,1.38836 -18.15234,0.0142 -26.14296,-3.72311 l -5.69258,-2.66397 -4.19921,9.23209 c -24.00277,52.76717 -50.0478,96.01944 -70.38866,116.89438 -13.23351,13.58076 -27.21757,21.82971 -56.34726,33.23291 -9.62314,3.76757 -21.1539,8.6484 -25.62305,10.84657 -19.139983,9.41569 -30.493575,22.03201 -37.131911,41.26347 -5.640396,16.33621 -2.889455,31.28471 7.848235,42.63701 9.815126,10.37949 23.182636,12.70523 35.402746,6.16031 2.59439,-1.389 7.43978,-5.26995 10.76732,-8.62069 4.23272,-4.26557 6.72531,-6.09652 8.29406,-6.09652 3.47508,0 7.05001,-1.65057 10.24226,-4.73137 5.68936,-5.48513 6.03146,-12.59054 0.88971,-18.44741 -3.50214,-3.98918 -7.38051,-5.71513 -12.84245,-5.71513 -11.56619,0 -19.12259,11.12295 -14.10131,20.75383 1.05463,2.02422 1.91857,3.87193 1.91857,4.10257 0,0.23064 -1.49659,2.07577 -3.32561,4.1 -9.40603,10.41105 -22.37604,10.07089 -29.250816,-0.77052 -11.30334,-17.82443 0.443887,-42.23629 26.707326,-55.49815 2.48229,-1.25306 11.48759,-4.73844 20.01035,-7.7458 38.60273,-13.61619 57.58165,-23.89646 73.51585,-39.81906 7.0223,-7.0178 11.2009,-12.4791 22.21111,-29.03242 7.45717,-11.21379 15.92518,-24.62124 18.81785,-29.79585 4.46529,-7.98868 14.45565,-24.78939 15.49096,-26.05148 0.17588,-0.21582 0.70867,-0.006 1.18284,0.47031 0.5489,0.54825 -2.44879,6.44828 -8.2277,16.19189 -15.9284,26.86259 -25.01746,46.81368 -35.17017,77.21319 -10.25193,30.69071 -18.14268,64.22127 -26.13136,111.0285 -6.42703,37.65117 -11.06755,51.83881 -20.32669,62.13712 -3.47057,3.86034 -5.18104,4.95878 -10.07347,6.47148 -11.9624,3.69476 -22.52679,1.75751 -30.58763,-5.61012 -5.00839,-4.57738 -8.00865,-9.76809 -8.79657,-15.22101 -0.58884,-4.06908 -0.2461,-4.55033 5.04576,-7.07901 11.31751,-5.40911 11.89476,-18.96281 1.0688,-25.09541 -3.93313,-2.22717 -10.32086,-2.70906 -14.58707,-1.10102 -3.87773,1.46116 -8.3398,6.26016 -9.36544,10.07089 -1.38642,5.14819 0.22935,9.87955 4.67402,13.68449 3.19419,2.73354 3.60135,3.49118 3.09819,5.78213 -0.91096,4.15025 1.84127,15.29961 5.1308,20.77701 7.47393,12.44495 20.58245,18.62458 39.51949,18.62974 8.6761,0.006 11.23054,-0.33179 15.5309,-2.04034 10.41106,-4.13479 18.60396,-14.40217 24.1226,-30.22685 3.90414,-11.19833 5.70031,-18.61621 12.79091,-52.84577 11.24535,-54.27536 14.27268,-64.00352 31.45285,-101.04587 10.75895,-23.19617 44.62903,-89.22069 47.09715,-91.80799 0.44195,-0.46386 1.06687,-0.57854 1.38835,-0.25899 0.32213,0.32212 -1.65958,5.57661 -4.40408,11.67958 -17.4746,38.86172 -31.17776,80.98526 -37.35611,114.83923 -2.16145,11.83549 -2.37727,15.53799 -3.08337,52.6583 -0.80402,42.29878 -1.65314,55.97939 -4.47302,72.06628 -6.2505,35.64369 -19.38093,55.31775 -41.56369,62.26662 l -4.99872,1.56745 -3.47766,-2.36181 c -9.06264,-6.14935 -18.86875,-4.57803 -24.67278,3.94924 -4.79192,7.03777 -1.02114,16.46893 8.10915,20.28352 6.74593,2.8173 14.67727,0.63974 19.1825,-5.26866 1.36323,-1.78844 2.84629,-3.02282 3.29404,-2.74579 1.51012,0.93481 11.12296,-1.59129 17.8895,-4.70044 23.16073,-10.63654 40.29065,-35.56573 48.80118,-71.01486 5.45356,-22.71878 7.43527,-45.72232 7.05452,-81.91491 -0.22613,-21.65706 -0.0586,-24.92727 1.76846,-34.47696 6.62416,-34.60774 23.87456,-85.16579 42.68855,-125.11435 2.97772,-6.32652 4.83702,-9.25656 5.87168,-9.25656 1.06688,0 1.33617,0.46257 0.91161,1.57003 -6.51721,16.98239 -14.51556,45.41759 -17.19499,61.13016 -4.40022,25.8086 -3.80944,54.85325 1.48499,72.88641 1.90247,6.47792 1.40318,25.78992 -0.95284,36.87292 -1.90182,8.9396 -8.69349,29.86608 -20.3692,62.75367 -8.51826,23.99311 -11.34393,39.6084 -9.07167,50.11287 3.27407,15.12954 19.3848,23.36625 43.76702,22.37153 15.22166,-0.61976 23.63877,-4.57674 29.3816,-13.8114 2.56927,-4.13156 2.70778,-4.84539 2.68523,-13.9061 -0.0168,-7.87787 -0.39557,-10.50254 -2.15501,-14.96911 -2.50162,-6.34843 -2.57571,-7.77093 -0.67968,-12.75677 4.56579,-12.00364 -10.38851,-22.68528 -22.90239,-16.36327 -5.21971,2.63756 -8.09885,6.95402 -8.09885,12.14151 0,7.56799 5.36015,13.45255 13.26443,14.56259 4.19148,0.58949 4.4305,0.78792 6.90119,5.72544 8.33851,16.67508 0.4935,27.46109 -18.6787,25.67781 -16.86835,-1.56745 -24.03369,-10.80404 -21.3665,-27.53969 1.46116,-9.15799 4.98133,-19.95688 14.45243,-44.33718 13.74569,-35.38342 17.79994,-50.10256 18.64906,-67.71825 0.40588,-8.43321 0.12498,-12.41982 -1.50368,-21.21961 -4.22884,-22.85407 -3.33591,-51.52893 2.40241,-77.19966 4.34416,-19.4344 16.01924,-50.56577 18.9641,-50.56577 0.67388,0 1.226,0.19134 1.226,0.42713 0,0.23515 0.98441,6.04241 2.18787,12.90688 4.11868,23.47834 5.41362,40.70362 5.41233,71.99348 0,20.18366 -0.46772,33.92935 -1.54813,45.59798 -1.73109,18.68385 -1.27561,28.12144 2.11185,43.75929 4.70559,21.7189 17.6421,50.36606 39.7701,88.06877 14.68436,25.02003 21.20802,38.3315 23.00225,46.9393 1.21828,5.84269 1.21828,7.04679 -0.009,11.2576 -2.51643,8.65805 -9.63796,15.46776 -19.46403,18.60912 -10.90327,3.48538 -23.55373,2.63691 -51.30022,-3.44351 -1.87928,-0.41361 -2.03132,-0.80918 -1.50304,-3.93443 1.96496,-11.63255 -11.96047,-20.9065 -22.96359,-15.29188 -3.98597,2.03325 -7.95196,6.39288 -8.76629,9.63731 -1.46824,5.85687 2.26711,13.24124 8.09563,16.00894 3.51631,1.66924 11.5372,1.97011 14.21985,0.53343 1.37032,-0.73251 2.32509,-0.55469 4.22885,0.78792 3.61037,2.54607 11.63899,6.4689 17.33737,8.46993 12.35282,4.33966 25.57022,5.33052 39.40482,2.95066 h 0.003 c 19.15287,-3.29146 29.94338,-9.41827 36.07212,-20.48388 2.52223,-4.55097 2.644,-5.28026 2.60663,-15.6095 -0.0451,-12.45332 0.48319,-10.60819 -12.798,-44.69538 -18.77469,-48.18914 -27.03782,-72.90574 -34.56522,-103.38514 -8.44803,-34.20444 -8.39262,-33.66585 -8.50343,-83.97264 -0.0876,-40.29581 -0.27961,-45.71007 -2.1563,-60.67145 -1.13066,-9.0343 -2.5931,-19.50592 -3.24895,-23.27477 -2.19302,-12.61632 1.96754,-9.23981 11.51981,9.35191 14.09294,27.42695 23.28507,57.87413 25.92907,85.88026 1.14612,12.12862 0.70996,22.93718 -1.51334,37.47271 -7.40628,48.44556 12.58604,95.22573 44.72631,104.65238 6.23117,1.82966 17.9668,1.85028 24.92726,0.0444 12.63822,-3.27536 24.62898,-11.7221 27.95845,-19.69146 3.67673,-8.7985 2.09703,-19.47627 -4.82671,-32.63054 l -4.31131,-8.18711 1.62931,-2.68072 c 5.11469,-8.41775 0.89937,-18.27217 -9.09357,-21.26857 -10.54055,-3.15682 -21.76594,5.06637 -20.6327,15.11729 0.83237,7.38953 7.32832,12.932 15.34084,13.09371 3.39648,0.0676 4.17409,0.48834 6.20154,3.35266 3.12911,4.42148 4.4073,8.51053 4.38411,14.02014 -0.0657,14.99875 -16.85998,26.06565 -33.20328,21.87997 -14.07619,-3.60779 -23.31986,-15.01035 -28.84494,-35.58571 -2.21106,-8.23608 -2.36053,-10.08378 -2.42366,-29.99686 -0.0457,-14.56646 0.35691,-24.04722 1.28527,-30.24682 1.79875,-11.98173 1.62351,-35.13152 -0.35433,-46.95283 -3.95376,-23.63426 -11.74143,-46.47867 -24.53363,-71.96836 -4.66243,-9.29006 -8.12397,-17.10737 -7.69297,-17.37409 1.07074,-0.66036 2.54671,1.76073 9.359,15.3518 19.92274,39.74691 43.53509,79.546 58.94229,99.34698 9.46466,12.16406 15.83112,17.84826 25.55863,22.82444 15.60241,7.98095 26.25442,10.49996 57.90957,13.69157 33.72254,3.3997 41.07084,5.01225 50.08903,10.98701 8.27859,5.48191 12.03971,13.7663 10.34083,22.77225 -2.20784,11.70149 -14.78615,23.17684 -26.98757,24.62318 -9.31261,1.10295 -17.13057,-3.39068 -23.54213,-13.52728 l -3.34816,-5.29702 3.6355,-3.39325 c 3.24508,-3.02604 3.6793,-3.93958 4.06005,-8.51181 0.36336,-4.38927 0.0973,-5.61978 -1.86445,-8.58268 -6.21829,-9.39572 -21.81297,-9.25657 -27.68787,0.24674 -2.42689,3.92605 -2.46812,10.60176 -0.0902,14.44921 1.91407,3.09948 6.97142,6.29946 11.44701,7.24457 2.56347,0.54311 2.87721,0.99086 3.39455,4.83895 1.67182,12.41789 11.6712,23.69353 25.0065,28.20069 4.72879,1.59774 7.31093,1.89281 14.04398,1.60225 7.31028,-0.31375 9.01754,-0.73573 15.02709,-3.70443 10.90713,-5.39107 19.60448,-16.02632 24.14321,-29.53171 2.79475,-8.30951 2.27098,-20.13405 -1.17704,-26.63645 -8.89965,-16.78461 -25.67072,-23.77213 -76.9426,-32.06103 -42.24788,-6.82839 -49.58265,-10.04899 -64.41132,-28.28702 -13.63552,-16.76721 -26.161,-38.202 -48.9674,-83.79225 -6.98365,-13.95893 -13.71605,-26.99401 -14.96138,-28.96734 -1.42572,-2.25874 -1.8986,-3.87065 -1.56488,-4.22885"
         stroke-miterlimit="10" />
      <path
         d="m 315.41352,521.79813 c -5.61463,-1.32457 -9.58062,-7.13569 -8.54982,-12.52483 0.5038,-2.64207 2.00296,-1.72272 2.00296,1.22793 0,7.3992 7.69555,11.65961 14.60769,8.08403 2.66268,-1.37611 5.43811,-5.50123 5.43811,-8.08403 0,-1.4444 1.63188,-2.87141 2.40047,-2.10347 0.25319,0.25319 -0.0509,2.15888 -0.6726,4.23594 -1.14096,3.80622 -6.17254,8.43128 -8.40809,9.01561 -1.09006,0.28605 -1.3381,0.42714 -2.58601,0.50123 -0.69386,0.0406 -2.57184,0.0406 -4.234,-0.35305 h 10e-4 z"
         id="path16"
         inkscape:connector-curvature="0"
         style="fill:#010202;stroke-width:0.64424849" />
      <path
         stroke-miterlimit="10"
         d="m 368.67934,482.95768 v -14.41313 l -3.83714,-1.01276 c -14.75523,-3.88933 -24.71531,-19.12774 -22.30389,-34.1252 3.32432,-20.66298 25.28933,-31.85036 43.96159,-22.38828 5.37883,2.72582 11.51594,9.23595 13.99887,14.84671 2.23104,5.04253 3.06727,14.59287 1.71499,19.58644 -2.56862,9.48205 -11.05981,18.6278 -19.81837,21.3446 l -4.234,1.3162 -0.25061,14.75458 -0.0361,14.62895 4.77066,-0.45806 c 2.73999,-0.32148 8.14845,-1.74012 12.01846,-3.15166 20.86398,-7.61567 36.45609,-24.63993 42.29104,-46.17716 2.1621,-7.98482 2.16661,-24.50142 0.01,-32.50492 -5.15721,-19.11163 -18.55887,-35.32285 -36.2261,-43.82113 -9.06071,-4.3577 -17.24717,-6.11779 -28.44357,-6.11457 -11.72532,0.003 -18.45772,1.62995 -29.79649,7.19497 -7.25488,3.56269 -9.83703,5.47611 -16.73951,12.41531 -13.57496,13.64132 -19.39252,27.61443 -19.36353,46.49671 0.0322,19.61543 7.06934,35.59859 21.59456,49.04664 9.98843,9.24818 26.52758,16.7395 37.30715,16.8967 l 3.38617,0.0515 v -14.41248 z"
         id="path18"
         inkscape:connector-curvature="0"
         style="fill:#ffffff;stroke:#010202;stroke-width:0.13155554;stroke-miterlimit:10" />
      <path
         stroke-miterlimit="10"
         d="m 281.99764,467.58398 v -14.43375 l -3.37329,-1.41026 c -7.63563,-3.18903 -11.44958,-9.53939 -10.90262,-18.14526 0.29765,-4.67917 0.84912,-6.28786 3.11623,-9.10323 1.51463,-1.88056 4.34095,-4.34996 6.28014,-5.489 7.56025,-4.43307 20.00069,-0.8794 23.76504,6.78845 1.88893,3.8481 2.78186,3.71087 2.7999,-0.42971 0.0457,-9.67468 6.11392,-25.90524 13.06729,-34.94662 l 3.439,-4.47431 -3.89255,-3.3546 c -4.73587,-4.0768 -11.62095,-7.54093 -18.6162,-9.36222 -14.53167,-3.7856 -29.5053,0.77761 -41.45546,12.63307 -17.6537,17.51325 -21.73437,45.25331 -10.14112,68.93137 2.00039,4.08389 5.11856,8.19227 9.72236,12.81024 8.50086,8.52663 12.76771,10.88587 25.96643,14.3603 0.12434,0.0335 0.22485,-6.43476 0.22485,-14.37447 z"
         id="path20"
         inkscape:connector-curvature="0"
         style="fill:#ffffff;stroke:#010202;stroke-width:0.13155554;stroke-miterlimit:10" />
      <path
         stroke-miterlimit="10"
         d="m 302.90479,479.34087 c 2.43848,-0.92643 6.44893,-2.97901 8.91382,-4.56064 l 4.48333,-2.87721 -1.686,-2.3921 c -4.19986,-5.95543 -9.09937,-18.44032 -10.50383,-26.76595 l -0.60817,-3.6065 -1.71692,3.52855 c -2.33025,4.79192 -3.98983,6.4689 -8.62134,8.71024 l -3.94344,1.90826 v 14.484 14.48335 l 4.62506,-0.61397 c 2.54414,-0.33759 6.61965,-1.3716 9.05749,-2.29803 z"
         id="path22"
         inkscape:connector-curvature="0"
         style="fill:#ffffff;stroke:#010202;stroke-width:0.13155554;stroke-miterlimit:10" />
      <path
         stroke-miterlimit="10"
         d="m 249.97269,149.51527 c 0.34209,-1.61385 1.78585,-6.59131 3.209,-11.06111 7.97451,-25.04387 25.7461,-39.524644 51.4091,-41.892901 14.91628,-1.376759 25.25776,1.095867 42.86958,10.249991 13.57045,7.05324 19.15351,9.13931 27.62989,10.31829 17.55577,2.4417 31.39036,-3.87194 35.82215,-16.3491 l 1.53073,-4.310664 h 9.38348 9.38477 l -0.60753,3.798484 c -0.33436,2.09059 -1.62737,6.86512 -2.87399,10.60949 -8.91382,26.77819 -29.61031,41.57271 -58.1576,41.57271 -12.05647,0 -18.68192,-1.87605 -35.13732,-9.95299 -18.555,-9.10839 -24.29976,-10.90778 -34.82936,-10.90971 -15.76411,-0.003 -24.67278,5.22937 -29.76879,17.47653 l -1.40897,3.38617 h -9.53939 -9.54067 z"
         id="path24"
         inkscape:connector-curvature="0"
         style="stroke:#000000;stroke-width:0.52615774;stroke-miterlimit:10" />
      <path
         stroke-miterlimit="10"
         d="m 268.8453,145.72064 c 5.26416,-10.76024 16.03213,-16.74724 30.11991,-16.74724 10.19265,0 17.15505,2.08028 33.14594,9.90339 7.94552,3.88675 17.49392,8.02283 21.21833,9.19214 12.68138,3.97888 32.30906,2.27484 44.53496,-3.86421 10.20103,-5.12048 19.1271,-14.75135 24.58002,-26.51726 3.3314,-7.18917 6.3787,-17.35735 5.4716,-18.263805 -0.33437,-0.333721 -3.42418,-0.713183 -6.86705,-0.84461 l -6.2608,-0.237083 -2.75223,5.766028 c -4.1,8.59169 -10.0142,12.88625 -20.61789,14.97233 -12.76836,2.51193 -27.71944,-0.64747 -42.60093,-9.00079 -20.24036,-11.361971 -36.30341,-14.157366 -54.48217,-9.47948 -13.16457,3.38682 -25.4768,12.35025 -32.12609,23.38622 -3.1929,5.29895 -8.46672,18.58271 -9.41956,23.72252 l -0.5431,2.9352 h 7.09446 7.09511 z"
         id="path26"
         inkscape:connector-curvature="0"
         style="fill:#15738d;stroke:#000000;stroke-width:0.52615774;stroke-miterlimit:10" />
      <path
         stroke-miterlimit="10"
         d="m 384.90216,264.1071 10.99861,-4.12834 -0.018,-0.0367 c -1.12808,-2.30512 -1.74333,-4.85764 -1.74333,-7.59698 0,-1.87348 0.20229,-3.37909 0.75055,-5.07024 l 0.0941,-0.29957 -12.51002,-3.92992 -0.25512,-0.0805 c -1.50303,1.38964 -3.49827,2.25487 -5.69387,2.30512 l -0.018,0.15011 -1.07847,9.22177 h 6.4e-4 c 4.47753,1.45407 8.01767,4.98906 9.47303,9.4653"
         id="path28"
         inkscape:connector-curvature="0"
         style="fill:#15738d;stroke:#010202;stroke-width:0.13168439;stroke-miterlimit:10" />
      <path
         style="fill:#34aacd;stroke-width:0.64424849"
         inkscape:connector-curvature="0"
         id="path31"
         d="m 427.8613,389.63893 -5.78729,-5.91807 c -9.89115,-10.11599 -19.58644,-15.6649 -33.52862,-19.18894 -10.8092,-2.73548 -27.0462,-2.13375 -37.47272,1.38513 -8.85197,2.98674 -17.67238,8.09885 -24.07879,13.95314 l -4.82928,4.4131 -3.59749,-3.10915 c -12.18338,-10.53217 -29.08073,-14.16702 -44.24376,-9.51941 -23.35272,7.1576 -39.11104,32.51586 -37.16219,59.79721 0.65907,9.21082 2.35924,15.39432 6.6538,24.18445 1.76653,3.61552 3.05567,6.69696 2.86497,6.84514 -0.19198,0.14753 -2.75029,1.96496 -5.68678,4.03557 h -6.4e-4 c -2.93584,2.06997 -5.57726,3.75146 -5.86911,3.736 -0.99343,-0.0477 -31.68092,-29.55039 -31.68092,-30.45814 0,-0.22871 5.34662,-7.98868 11.88317,-17.2446 6.53461,-9.25656 11.88831,-17.2723 11.88831,-17.81283 0.008,-1.21956 -13.75663,-35.80153 -14.589,-36.65387 -0.33179,-0.34016 -9.13802,-2.12409 -19.56648,-3.96342 -10.42845,-1.83997 -19.81386,-3.66191 -20.85496,-4.04717 -1.83998,-0.68226 -1.89732,-1.28592 -2.08801,-22.37088 l -0.19779,-21.66995 4.79901,-0.96121 c 2.63949,-0.52893 12.72133,-2.42624 22.40503,-4.21468 9.68306,-1.78972 17.64983,-3.3211 17.70266,-3.40292 0.88778,-1.39866 12.99771,-33.62526 12.99771,-34.59099 0,-0.74539 -5.48642,-9.0169 -12.18982,-18.38105 -6.70405,-9.36416 -12.18983,-17.36443 -12.18983,-17.77804 0,-0.93223 30.01103,-30.97998 30.94261,-30.97998 0.37109,0 8.8436,5.58564 18.82623,12.41531 9.98392,6.82839 18.61556,12.28067 19.18057,12.11381 0.56629,-0.16429 8.19226,-3.35782 16.9476,-7.0964 l 15.91938,-6.79618 4.43372,-22.24783 4.43307,-22.24848 21.38648,-0.24159 21.38583,-0.24159 0.48769,2.04742 c 0.26866,1.12679 2.30641,11.15452 4.531,22.28391 2.22395,11.13004 4.17151,20.36276 4.32613,20.51931 0.15527,0.15462 7.76062,3.33077 16.90122,7.05839 l 16.61903,6.77749 18.8694,-12.73872 18.87004,-12.73808 15.24807,15.22939 c 8.38812,8.37716 15.24936,15.56826 15.24936,15.98187 0,0.41361 -5.2197,8.74825 -11.5984,18.52021 -6.38064,9.77261 -11.87866,18.26123 -12.22269,18.8636 -0.34274,0.60302 1.46889,5.68163 4.02462,11.28659 2.55574,5.60561 5.89166,13.10595 7.41273,16.668 l 2.76318,6.47598 7.29354,1.33166 c 4.01173,0.73187 13.64067,2.44557 21.4,3.80751 l 14.10646,2.47521 0.65907,22.05327 c 0.36271,12.13055 0.50123,22.2124 0.3086,22.40438 -0.19328,0.19457 -6.63512,1.40318 -14.31456,2.68845 -7.67944,1.28657 -17.17502,3.03248 -21.10236,3.88095 l -7.13892,1.54234 -2.4533,5.86974 c -1.35099,3.22769 -4.8106,11.2692 -7.6891,17.86888 l -5.23195,12.00106 11.8909,17.50939 c 6.54105,9.63022 11.87801,17.84053 11.86061,18.24769 -0.0187,0.40588 -6.66732,7.63692 -14.77519,16.07078 l -14.74298,15.33183 -3.28245,-1.76782 c -1.80712,-0.97153 -3.28438,-1.82258 -3.28438,-1.88765 0,-0.0657 1.42186,-3.19547 3.15875,-6.95466 4.39893,-9.52006 6.06947,-17.40824 6.06947,-28.63234 0,-11.90893 -1.78715,-19.6863 -6.98946,-30.40659 l -3.96019,-8.16199 -0.0567,-0.12305 c 14.76296,-25.06062 14.6747,-65.22501 5.14819,-99.96418 v 0 c 3.44673,-1.94176 5.77376,-5.63588 5.77376,-9.87375 0,-6.25501 -5.06959,-11.3246 -11.32525,-11.3246 -1.36838,0 -2.68007,0.24224 -3.89448,0.68613 l -0.1179,-0.17846 -3.96083,-5.45743 -0.1121,-0.15333 c 4.41181,-3.15295 7.28709,-8.31789 7.28709,-14.1535 0,-9.60123 -7.78188,-17.38182 -17.38247,-17.38182 -6.52366,0 -12.20722,3.59297 -15.18043,8.90738 l -0.15139,-0.0451 -11.6113,-3.4841 -0.36528,-0.10952 c 0.51346,-1.11004 0.80015,-2.347 0.80015,-3.65095 0,-4.79966 -3.8919,-8.69092 -8.69091,-8.69092 -4.79965,0 -8.69091,3.89191 -8.69091,8.69092 0,3.85582 2.35022,7.07062 5.82594,8.20772 l 0.15977,0.0535 -1.18091,9.16444 h 6.5e-4 c -0.51411,-0.0535 -1.03467,-0.0812 -1.56295,-0.0812 -8.14588,0 -14.74878,6.60291 -14.74878,14.74943 0,8.14588 6.60355,14.74878 14.74878,14.74878 8.14523,0 14.74943,-6.6029 14.74943,-14.74878 0,-0.40652 -0.0168,-0.80918 -0.0496,-1.20797 l 12.06098,-4.66371 6.4e-4,6.4e-4 c 3.17163,4.2063 8.21159,6.92439 13.88613,6.92439 2.33927,0 4.57094,-0.46193 6.60806,-1.3001 l 0.0876,0.12112 4.10901,5.63975 0.0644,0.0889 c -2.45394,2.07706 -4.01303,5.18105 -4.01303,8.64839 0,6.2563 5.07024,11.32525 11.32525,11.32525 0.6771,0 1.34068,-0.0593 1.98622,-0.17266 v -6.5e-4 c 10.10761,29.29076 9.93044,69.76181 -3.62583,95.76497 l -0.20165,-0.20487" />
      <path
         style="fill:none;stroke-width:0.64424849"
         inkscape:connector-curvature="0"
         id="path33"
         d="m 384.70244,273.81593 c 20.76027,27.56675 30.71326,63.13829 23.58916,98.70402" />
      <path
         style="fill:none;stroke-width:0.64424849"
         inkscape:connector-curvature="0"
         id="path35"
         d="m 290.42698,222.6903 c 29.102,1.52043 55.73136,13.47897 76.41174,31.79237" />
      <path
         style="fill:#15738d;stroke-width:0.64424849"
         inkscape:connector-curvature="0"
         id="path38"
         d="m 290.56936,222.85523 c -0.0857,-0.11146 -0.12949,-0.1688 -0.12949,-0.1688 29.10199,1.51979 55.73136,13.47897 76.41109,31.79238 v 6.4e-4 c 1.2827,-0.364 2.63562,-0.5592 4.03429,-0.5592 0.52893,0 1.04948,0.0277 1.56294,0.0818 l 1.18156,-9.16444 -0.16042,-0.0541 c -3.47508,-1.13774 -5.82659,-4.35254 -5.82659,-8.20772 0,-4.79965 3.89127,-8.69091 8.69156,-8.69091 4.79965,0 8.69091,3.8919 8.69091,8.69091 0,1.30331 -0.28669,2.54091 -0.80209,3.65095 l 0.36658,0.10888 11.61129,3.48345 0.15076,0.0445 c 2.97449,-5.31441 8.6587,-8.90674 15.18107,-8.90674 9.60059,0 17.38311,7.78123 17.38311,17.38118 0,5.83689 -2.87528,11.00054 -7.28709,14.1535 l 0.1121,0.15462 3.96148,5.45678 0.11725,0.17846 c 1.21506,-0.44453 2.52675,-0.68677 3.89513,-0.68677 6.25565,0 11.32524,5.06959 11.32524,11.32524 0,4.23852 -2.32831,7.93199 -5.7744,9.8744 9.52651,34.73917 9.61477,74.90355 -5.14754,99.96418 l 0.0567,0.12305 3.9602,8.16198 c 5.20166,10.72159 6.98945,18.49767 6.98945,30.40789 0,11.22345 -1.67182,19.11227 -6.07011,28.6304 -1.73625,3.76112 -3.1581,6.89024 -3.1581,6.95531 0,0.0657 1.47661,0.91548 3.28373,1.88829 l 3.28245,1.76782 14.74362,-15.33312 c 8.10851,-8.43128 14.75652,-15.66425 14.7752,-16.07013 0.0168,-0.40588 -5.31892,-8.61747 -11.85997,-18.24705 l -11.89154,-17.50939 5.23259,-12.00041 c 2.8785,-6.60097 6.33811,-14.6412 7.68781,-17.87017 l 2.45395,-5.86781 7.13956,-1.54362 c 3.92669,-0.84719 13.42227,-2.59439 21.10236,-3.88031 7.67944,-1.28592 14.11999,-2.49582 14.3152,-2.6891 0.19198,-0.19198 0.0535,-10.27447 -0.3086,-22.40438 l -0.65971,-22.05263 -14.10646,-2.47585 c -7.75869,-1.36194 -17.38763,-3.07435 -21.39936,-3.80686 l -7.29289,-1.33166 -2.76447,-6.47599 c -1.52043,-3.56269 -4.85571,-11.06239 -7.41144,-16.668 -2.55573,-5.6056 -4.368,-10.68421 -4.02526,-11.28723 0.34403,-0.60237 5.84269,-9.09099 12.22268,-18.8636 6.3787,-9.77196 11.59841,-18.10596 11.59841,-18.52021 0,-0.41361 -6.8619,-7.60471 -15.24937,-15.98123 l -15.24872,-15.22939 -18.87003,12.73809 -18.8694,12.73743 -16.61774,-6.77685 c -9.14125,-3.72826 -16.7466,-6.90441 -16.90186,-7.05967 -0.15527,-0.15591 -2.10219,-9.38928 -4.32613,-20.51867 -2.22524,-11.1294 -4.263,-21.15777 -4.53165,-22.28392 l -0.48769,-2.04742 -21.38648,0.2416 -21.38647,0.24159 -4.43307,22.24912 -4.43308,22.24719 -14.83124,6.33232" />
      <path
         style="fill:#15738d;stroke-width:0.64424849"
         inkscape:connector-curvature="0"
         id="path40"
         d="m 408.3032,372.51609 c 7.1241,-35.56638 -2.82954,-71.13857 -23.5898,-98.70403 0.59593,-1.6016 0.92192,-3.33398 0.92192,-5.14239 0,-0.40652 -0.0168,-0.80853 -0.0496,-1.20732 l 12.06098,-4.66436 v 6.4e-4 c 3.17356,4.2063 8.21223,6.92503 13.88677,6.92503 2.33927,0 4.57095,-0.46192 6.6087,-1.29945 l 0.0883,0.12048 4.10772,5.63975 0.0651,0.0889 c -2.45394,2.07771 -4.01302,5.18105 -4.01302,8.64904 0,6.25565 5.06959,11.32525 11.32524,11.32525 0.67775,0 1.34133,-0.0593 1.98622,-0.17331 v -6.4e-4 c 10.10697,29.29076 9.93109,69.76245 -3.62518,95.76496 l -0.20359,-0.20358 -5.78664,-5.91871 c -4.49621,-4.59736 -8.95119,-8.25154 -13.78305,-11.20026 z" />
    </g>
  </g>
</svg>
