<?xml version="1.0" encoding="UTF-8" standalone="no"?>
<!-- Created with Inkscape (http://www.inkscape.org/) -->

<svg
   xmlns:dc="http://purl.org/dc/elements/1.1/"
   xmlns:cc="http://creativecommons.org/ns#"
   xmlns:rdf="http://www.w3.org/1999/02/22-rdf-syntax-ns#"
   xmlns:svg="http://www.w3.org/2000/svg"
   xmlns="http://www.w3.org/2000/svg"
   xmlns:sodipodi="http://sodipodi.sourceforge.net/DTD/sodipodi-0.dtd"
   xmlns:inkscape="http://www.inkscape.org/namespaces/inkscape"
   width="291.32205mm"
   height="113.52946mm"
   viewBox="0 0 291.32205 113.52946"
   version="1.1"
   id="svg8"
   inkscape:version="0.92+devel unknown"
   sodipodi:docname="Oshwdem.svg"
   inkscape:export-filename="/home/oscar/proyectos/oshwdem/Oshwdem.png"
   inkscape:export-xdpi="159.03619"
   inkscape:export-ydpi="159.03619">
  <defs
     id="defs2" />
  <sodipodi:namedview
     id="base"
     pagecolor="#ffffff"
     bordercolor="#666666"
     borderopacity="1.0"
     inkscape:pageopacity="0.0"
     inkscape:pageshadow="2"
     inkscape:zoom="0.7"
     inkscape:cx="228.5638"
     inkscape:cy="357.0113"
     inkscape:document-units="mm"
     inkscape:current-layer="layer1"
     inkscape:document-rotation="0"
     showgrid="false"
     fit-margin-left="2"
     fit-margin-top="2"
     fit-margin-right="2"
     fit-margin-bottom="2"
     inkscape:window-width="2560"
     inkscape:window-height="1376"
     inkscape:window-x="1680"
     inkscape:window-y="27"
     inkscape:window-maximized="1" />
  <metadata
     id="metadata5">
    <rdf:RDF>
      <cc:Work
         rdf:about="">
        <dc:format>image/svg+xml</dc:format>
        <dc:type
           rdf:resource="http://purl.org/dc/dcmitype/StillImage" />
        <dc:title></dc:title>
      </cc:Work>
    </rdf:RDF>
  </metadata>
  <g
     inkscape:label="Capa 1"
     inkscape:groupmode="layer"
     id="layer1"
     transform="translate(-5.088532,-16.458685)">
    <g
       id="OSWHI"
       transform="matrix(0.08615477,0,0,0.08615477,-11.218971,-12.072178)">
      <path
         stroke-miterlimit="10"
         d="m 699.283,1619.233 c -13.331,-1.949 -27.562,-6.728 -41.053,-13.782 -10.431,-5.451 -13.337,-6.418 -16.117,-5.354 -5.794,2.215 -19.115,0.276 -25.036,-3.644 -14.532,-9.618 -16.218,-27.215 -3.793,-39.605 11.101,-11.066 29.195,-11.088 41.337,-0.041 5.016,4.562 7.226,9.868 7.226,17.364 v 6.805 l 9.653,2.319 c 42.417,10.178 70.646,7.621 86.064,-7.799 6.221,-6.22 10.723,-15.151 10.765,-21.364 0.101,-13.851 -8.479,-32.784 -37.619,-83.007 -39.338,-67.803 -54.469,-102.465 -63.468,-145.385 -2.371,-11.31 -2.346,-49.963 0.057,-82.3 2.353,-31.692 1.427,-91.4 -1.885,-121.624 -2.522,-23.037 -6.151,-46.021 -7.711,-48.857 -2.175,-3.955 -17.916,39.369 -24.585,67.672 -8.8,37.346 -10.785,79.772 -5.281,112.933 4.509,27.163 4.857,32.328 3.22,47.872 -2.924,27.758 -10.31,52.212 -34.997,115.875 -21.937,56.563 -22.419,75.557 -2.187,86.119 8.528,4.449 29.032,5.143 36.689,1.235 3.505,-1.789 6.331,-4.515 7.432,-7.173 2.304,-5.563 1.235,-17.433 -2.202,-24.455 -2.358,-4.818 -3.587,-5.697 -10.306,-7.397 -9.629,-2.438 -16.466,-7.611 -19.822,-15.001 -5.385,-11.858 -1.483,-24.758 9.616,-31.799 10.933,-6.935 23.319,-6.755 34.071,0.49 9.727,6.555 13.925,20.904 8.938,30.547 -2.02,3.909 -1.919,4.805 1.614,14.298 3.106,8.34 3.794,12.597 3.908,24.144 0.126,12.722 -0.23,14.762 -3.858,22.151 -5.225,10.643 -14.611,18.129 -28.011,22.342 -8.288,2.604 -13.094,3.141 -27.558,3.057 -33.86,-0.2 -54.294,-9.659 -63.348,-29.33 -2.808,-6.104 -3.219,-9.18 -3.179,-23.829 0.057,-21.103 3.506,-34.402 22.366,-86.234 20.367,-55.969 25.595,-75.693 26.917,-101.568 0.673,-13.161 0.242,-18.175 -2.951,-34.27 -7.259,-36.601 -7.477,-71.177 -0.696,-110.705 2.311,-13.478 9.72,-44.603 13.196,-55.442 2.329,-7.262 -2.433,2.869 -9.552,20.322 -19.695,48.277 -36.194,99.663 -44.7,139.21 -4.241,19.71 -4.282,20.318 -5.384,79.429 -0.613,32.759 -1.822,64.61 -2.688,70.775 -8.854,62.946 -26.912,105.296 -57.082,133.851 -13.855,13.118 -31.329,22.6 -47.935,26.015 -7.822,1.606 -11.027,2.98 -13.097,5.612 -9.845,12.518 -34.166,12.084 -45.007,-0.802 -14.058,-16.706 -2.677,-40.124 20.306,-41.785 7.31,-0.531 9.469,-0.037 17.276,3.924 l 8.923,4.529 7.035,-2.336 c 34.814,-11.563 56.841,-53.007 63.35,-119.197 0.833,-8.479 2.041,-44.113 2.684,-79.185 1.27,-69.474 1.918,-76.415 10.627,-114.225 7.28,-31.604 20.991,-75.563 32.312,-103.601 1.842,-4.562 3.131,-8.512 2.863,-8.78 -0.784,-0.785 -33.27,63.937 -45.667,90.98 -24.764,54.028 -30.383,72.371 -47.119,153.844 -16.616,80.876 -24.998,104.185 -43.169,120.021 -15.559,13.562 -41.649,17.463 -68.472,10.24 -26.29,-7.078 -45.955,-31.03 -45.955,-55.974 0,-7.356 -0.421,-8.406 -5.542,-13.786 -15.259,-16.043 -4.692,-40.852 18.416,-43.234 6.492,-0.672 9.132,-0.205 15.59,2.75 10.691,4.895 15.701,12.424 15.638,23.501 -0.062,10.659 -4.783,17.982 -14.539,22.559 -8.489,3.985 -8.794,5.846 -2.893,17.656 9.161,18.334 29.707,26.093 51.821,19.571 16.739,-4.936 29.015,-25.307 37.762,-62.661 1.532,-6.553 5.619,-28.665 9.079,-49.137 14.115,-83.529 30.141,-145.38 51.818,-200.02 5.591,-14.085 9.729,-25.122 9.198,-24.524 -0.531,0.596 -4.323,6.131 -8.428,12.299 -25.507,38.318 -42.591,53.779 -81.214,73.502 -18.325,9.357 -34.954,16.172 -65.171,26.709 -24.272,8.467 -37.378,14.91 -48.563,23.883 -10.193,8.177 -16.83,16.176 -21.771,26.241 -3.444,7.012 -4.956,9.813 -4.948,20.819 0.008,10.354 1.583,13.496 4.153,18.317 8.81,16.539 26.559,18.707 40.047,4.888 l 5.204,-5.325 -2.478,-4.821 c -1.451,-2.823 -2.448,-7.753 -2.409,-11.908 0.219,-22.396 30.157,-33.951 47.81,-18.451 11.577,10.164 12.024,27.376 0.977,37.749 -3.81,3.577 -13.97,8.113 -18.173,8.113 -1.043,0 -5.908,4.009 -10.811,8.911 -5.748,5.747 -12.342,10.599 -18.576,13.666 -8.834,4.345 -11.053,5.571 -22.605,5.553 -11.132,-0.019 -13.288,-1.327 -20.408,-4.916 -22.328,-11.247 -36.066,-39.655 -31.873,-65.899 1.832,-11.474 8.063,-28.14 14.536,-38.89 7.112,-11.814 14.545,-20.124 25.418,-28.419 16.113,-12.294 22.124,-15.191 72.879,-35.119 47.918,-18.809 71.25,-36.335 100.402,-75.419 7.389,-9.906 20.302,-29.434 28.696,-43.396 14.555,-24.214 45.822,-84.616 57.221,-110.542 l 5.354,-12.175 -9.335,-9.198 c -5.133,-5.058 -9.653,-9.197 -10.045,-9.197 -0.39,0 -5.209,3.158 -10.707,7.021 l -9.997,7.019 -11.324,-10.811 c -6.23,-5.944 -18.406,-17.699 -27.06,-26.12 l -15.735,-15.31 2.543,-3.676 c 1.401,-2.019 10.194,-14.49 19.542,-27.712 l 16.997,-24.04 -10.706,-26.415 c -5.89,-14.529 -10.921,-26.686 -11.18,-27.013 -0.259,-0.331 -14.998,-3.247 -32.75,-6.483 -17.754,-3.235 -32.483,-6.121 -32.729,-6.41 -0.247,-0.288 -0.868,-17.034 -1.377,-37.211 -0.867,-34.367 -0.77,-36.729 1.559,-37.426 1.367,-0.41 16.991,-3.354 34.72,-6.548 17.729,-3.192 32.706,-6.246 33.281,-6.784 0.573,-0.54 5.364,-12.063 10.643,-25.606 l 9.6,-24.626 -20.285,-28.383 -20.283,-28.384 26.612,-26.613 26.614,-26.612 28.804,19.77 c 15.843,10.874 29.575,19.774 30.513,19.774 0.939,0 12.197,-4.442 25.017,-9.87 l 23.308,-9.87 7.041,-35.33 7.04,-35.328 h 36.317 36.317 l 6.888,35.296 6.891,35.296 24.538,9.85 24.538,9.851 29.812,-20.247 29.811,-20.248 26.046,26.618 26.046,26.617 -15.821,24.164 c -8.702,13.291 -17.526,26.734 -19.609,29.874 l -3.791,5.71 10.356,24.423 10.355,24.423 33.983,5.891 c 18.689,3.239 34.191,6.1 34.448,6.358 0.325,0.325 1.301,56.841 1.301,75.368 0,0.009 -14.76,2.504 -32.804,5.544 -18.042,3.038 -33.237,6.025 -33.77,6.638 -0.532,0.612 -5.882,12.547 -11.889,26.521 l -10.928,25.411 19.132,28.303 19.133,28.302 -25.491,26.511 -25.49,26.511 -6.333,-3.706 -6.329,-3.712 -3.582,4.764 c -1.97,2.62 -6.317,7.731 -9.662,11.359 l -6.082,6.596 22.056,31.255 c 82.558,116.993 132.484,172.898 177.912,199.218 14.212,8.234 31.61,15.582 46.128,19.484 16.313,4.383 45.97,4.354 61.493,-0.061 13.5,-3.842 26.467,-9.625 40.451,-18.043 10.563,-6.356 10.699,-6.515 9.289,-10.562 -5.521,-15.833 9.182,-33.344 27.993,-33.344 22.07,0 35.761,22.745 24.009,39.896 -5.525,8.064 -11.673,11.164 -23.296,11.752 l -10.397,0.524 -9.349,9.346 c -23.206,23.203 -67.637,34.994 -116.986,31.055 -33.354,-2.663 -69.346,-10.354 -84.677,-18.093 -27.937,-14.103 -65.653,-54.076 -103.987,-110.218 -6.235,-9.125 -11.335,-16.159 -11.335,-15.63 0,1.63 13.562,28.095 26.218,51.165 30.048,54.773 53.583,84.85 74.762,95.539 10.397,5.247 29.46,9.923 59.853,14.673 71.895,11.241 98.462,19.669 117.176,37.177 6.259,5.854 10.093,10.924 12.932,17.111 3.617,7.868 4.034,10.26 3.984,22.808 -0.047,11.875 -0.64,15.509 -3.9,23.825 -14.582,37.211 -45.897,56.703 -79.674,49.588 -23.161,-4.875 -42.077,-23.089 -47.294,-45.542 -1.543,-6.644 -2.063,-7.283 -7.202,-8.823 -6.871,-2.06 -15.103,-9.132 -17.611,-15.129 -4.249,-10.172 -1.514,-20.477 7.62,-28.719 6.431,-5.801 12.156,-7.379 23.398,-6.447 21.533,1.785 31.931,25.385 18.236,41.389 l -4.872,5.688 5.526,8.201 c 8.201,12.171 13.509,15.209 26.583,15.209 12.724,0 20.463,-3.357 30.216,-13.112 8.797,-8.796 12.575,-17.081 12.607,-27.635 0.028,-10.074 -4.146,-17.641 -13.463,-24.389 -12.658,-9.171 -24.385,-11.756 -79.675,-17.574 -49.299,-5.188 -63.93,-8.726 -89.704,-21.687 -19.926,-10.02 -36.113,-27.642 -62.633,-68.174 -7.63,-11.667 -19.823,-31.66 -27.092,-44.434 -7.271,-12.774 -13.404,-23.037 -13.633,-22.811 -0.231,0.231 0.566,3.194 1.767,6.592 3.899,11.039 10.226,38.051 12.61,53.829 3.127,20.715 3.113,48.781 -0.04,72.876 -3.701,28.277 -3.46,63.984 0.557,83.146 5.232,24.947 13.984,41.515 27.27,51.607 19.952,15.158 49.675,9.711 60.737,-11.132 3.819,-7.19 3.188,-18.542 -1.503,-27.1 -3.741,-6.823 -4.277,-7.226 -10.468,-7.823 -19.087,-1.842 -31.059,-18.549 -24.692,-34.461 7.898,-19.74 36.236,-23.864 50.172,-7.305 5.733,6.814 6.672,18.446 2.323,28.813 -1.609,3.841 -1.441,4.825 1.692,9.813 10.966,17.458 15.176,40.408 10.173,55.468 -6.646,20.01 -38.21,37.669 -67.335,37.669 -42.747,0 -79.033,-39.11 -91.025,-98.106 -3.854,-18.966 -4.189,-48.336 -0.818,-71.886 6.823,-47.669 1.01,-92.682 -18.924,-146.57 -5.52,-14.923 -24.085,-53.943 -27.758,-58.344 -2.273,-2.729 -2.317,-2.688 -1.574,1.4 1.954,10.749 6.339,49.719 7.729,68.674 0.862,11.762 1.367,45.413 1.145,76.385 l -0.396,55.359 3.809,18.982 c 10.803,53.838 29.242,113.729 56.511,183.538 25.883,66.263 26.498,68.255 26.539,86.217 0.033,14.659 -0.199,15.917 -4.572,24.804 -2.888,5.874 -7.05,11.514 -11.164,15.136 -18.501,16.284 -56.752,25.395 -87.643,20.877 h -0.008 z"
         id="path10"
         inkscape:connector-curvature="0"
         style="stroke:#010202;stroke-width:0.2042;stroke-miterlimit:10" />
      <g
         id="Grupo_patas">
        <path
           id="Ultima_pata"
           stroke-miterlimit="10"
           d="m 777.654,1033.662 c 0.402,-0.431 1.561,0.316 3.37,2.685 1.463,1.916 7.786,11.884 14.052,22.147 49.892,81.734 99.341,139.47 134.828,157.406 16.836,8.509 55.691,16.418 86.625,17.63 53.415,2.09 89.023,-8.804 115.038,-35.202 3.856,-3.912 6.896,-6.005 7.442,-5.122 1.45,2.345 12.104,1.689 18.304,-1.131 17.081,-7.76 22.227,-25.11 11.011,-37.131 -11.517,-12.346 -30.816,-11.968 -42.05,0.828 -5.887,6.705 -7.013,13.404 -3.562,21.202 l 2.698,6.098 -12.095,7.081 c -23.574,13.804 -41.105,20.434 -60.639,22.94 -38.162,4.893 -84.298,-12.327 -125.355,-46.783 -37.614,-31.569 -98.04,-105.908 -161.055,-198.145 l -6.83,-9.996 -7.802,5.276 c -9.097,6.152 -17.165,10.36 -25.846,13.155"
           inkscape:connector-curvature="0"
           style="fill:#13738d;stroke:#010202;stroke-width:0.2044;stroke-miterlimit:10" />
        <path
           stroke-miterlimit="10"
           d="m 725.912,976.562 c -8.701,2.8 -18.021,4.18 -29.608,4.67 -13.991,0.586 -18.901,0.208 -29.223,-2.264 -18.29,-4.372 -35.034,-13.549 -49.212,-26.97 l -11.615,-10.994 -3.588,2.826 c -6.546,5.147 -21.144,11.036 -31.59,12.744 -13.193,2.155 -28.176,0.022 -40.579,-5.779 l -8.836,-4.135 -6.518,14.33 c -37.257,81.905 -77.684,149.041 -109.257,181.443 -20.541,21.08 -42.247,33.884 -87.462,51.584 -14.937,5.848 -32.835,13.424 -39.772,16.836 -29.709,14.615 -47.332,34.198 -57.636,64.049 -8.755,25.357 -4.485,48.56 12.182,66.181 15.235,16.111 35.984,19.721 54.952,9.562 4.027,-2.156 11.548,-8.18 16.713,-13.381 6.57,-6.621 10.439,-9.463 12.874,-9.463 5.394,0 10.943,-2.562 15.898,-7.344 8.831,-8.514 9.362,-19.543 1.381,-28.634 -5.436,-6.192 -11.456,-8.871 -19.934,-8.871 -17.953,0 -29.682,17.265 -21.888,32.214 1.637,3.142 2.978,6.01 2.978,6.368 0,0.358 -2.323,3.222 -5.162,6.364 -14.6,16.16 -34.732,15.632 -45.403,-1.196 -17.545,-27.667 0.689,-65.559 41.455,-86.144 3.853,-1.945 17.831,-7.355 31.06,-12.023 59.919,-21.135 89.378,-37.092 114.111,-61.807 10.9,-10.893 17.386,-19.37 34.476,-45.064 11.575,-17.406 24.719,-38.217 29.209,-46.249 6.931,-12.4 22.438,-38.478 24.045,-40.437 0.273,-0.335 1.1,-0.01 1.836,0.73 0.852,0.851 -3.801,10.009 -12.771,25.133 -24.724,41.696 -38.832,72.664 -54.591,119.85 -15.913,47.638 -28.161,99.684 -40.561,172.338 -9.976,58.442 -17.179,80.464 -31.551,96.449 -5.387,5.992 -8.042,7.697 -15.636,10.045 -18.568,5.735 -34.966,2.728 -47.478,-8.708 -7.774,-7.105 -12.431,-15.162 -13.654,-23.626 -0.914,-6.316 -0.382,-7.063 7.832,-10.988 17.567,-8.396 18.463,-29.434 1.659,-38.953 -6.105,-3.457 -16.02,-4.205 -22.642,-1.709 -6.019,2.268 -12.945,9.717 -14.537,15.632 -2.152,7.991 0.356,15.335 7.255,21.241 4.958,4.243 5.59,5.419 4.809,8.975 -1.414,6.442 2.858,23.748 7.964,32.25 11.601,19.317 31.948,28.909 61.342,28.917 13.467,0.01 17.432,-0.515 24.107,-3.167 16.16,-6.418 28.877,-22.355 37.443,-46.918 6.06,-17.382 8.848,-28.896 19.854,-82.027 17.455,-84.246 22.154,-99.346 48.821,-156.843 16.7,-36.005 69.273,-138.488 73.104,-142.504 0.686,-0.72 1.656,-0.898 2.155,-0.402 0.5,0.5 -2.576,8.656 -6.836,18.129 -27.124,60.321 -48.394,125.705 -57.984,178.253 -3.355,18.371 -3.69,24.118 -4.786,81.736 -1.248,65.656 -2.566,86.891 -6.943,111.861 -9.702,55.326 -30.083,85.864 -64.515,96.65 l -7.759,2.433 -5.398,-3.666 c -14.067,-9.545 -29.288,-7.106 -38.297,6.13 -7.438,10.924 -1.585,25.563 12.587,31.484 10.471,4.373 22.782,0.993 29.775,-8.178 2.116,-2.776 4.418,-4.692 5.113,-4.262 2.344,1.451 17.265,-2.47 27.768,-7.296 35.95,-16.51 62.539,-55.205 75.749,-110.229 8.465,-35.264 11.541,-70.97 10.95,-127.148 -0.351,-33.616 -0.091,-38.692 2.745,-53.515 10.282,-53.718 37.058,-132.194 66.261,-194.202 4.622,-9.82 7.508,-14.368 9.114,-14.368 1.656,0 2.074,0.718 1.415,2.437 -10.116,26.36 -22.531,70.497 -26.69,94.886 -6.83,40.06 -5.913,85.143 2.305,113.134 2.953,10.055 2.178,40.031 -1.479,57.234 -2.952,13.876 -13.494,46.358 -31.617,97.406 -13.222,37.242 -17.608,61.48 -14.081,77.785 5.082,23.484 30.089,36.269 67.935,34.725 23.627,-0.962 36.692,-7.104 45.606,-21.438 3.988,-6.413 4.203,-7.521 4.168,-21.585 -0.026,-12.228 -0.614,-16.302 -3.345,-23.235 -3.883,-9.854 -3.998,-12.062 -1.055,-19.801 7.087,-18.632 -16.125,-35.212 -35.549,-25.399 -8.102,4.094 -12.571,10.794 -12.571,18.846 0,11.747 8.32,20.881 20.589,22.604 6.506,0.915 6.877,1.223 10.712,8.887 12.943,25.883 0.766,42.625 -28.993,39.857 -26.183,-2.433 -37.305,-16.77 -33.165,-42.747 2.268,-14.215 7.732,-30.977 22.433,-68.82 21.336,-54.922 27.629,-77.769 28.947,-105.112 0.63,-13.09 0.194,-19.278 -2.334,-32.937 -6.564,-35.474 -5.178,-79.983 3.729,-119.829 6.743,-30.166 24.865,-78.488 29.436,-78.488 1.046,0 1.903,0.297 1.903,0.663 0,0.365 1.528,9.379 3.396,20.034 6.393,36.443 8.403,63.18 8.401,111.748 0,31.329 -0.726,52.665 -2.403,70.777 -2.687,29.001 -1.98,43.65 3.278,67.923 7.304,33.712 27.384,78.178 61.731,136.7 22.793,38.836 32.919,59.498 35.704,72.859 1.891,9.069 1.891,10.938 -0.014,17.474 -3.906,13.439 -14.96,24.009 -30.212,28.885 -16.924,5.41 -36.56,4.093 -79.628,-5.345 -2.917,-0.642 -3.153,-1.256 -2.333,-6.107 3.05,-18.056 -18.565,-32.451 -35.644,-23.736 -6.187,3.156 -12.343,9.923 -13.607,14.959 -2.279,9.091 3.519,20.553 12.566,24.849 5.458,2.591 17.908,3.058 22.072,0.828 2.127,-1.137 3.609,-0.861 6.564,1.223 5.604,3.952 18.066,10.041 26.911,13.147 19.174,6.736 39.69,8.274 61.164,4.58 h 0.004 c 29.729,-5.109 46.478,-14.619 55.991,-31.795 3.915,-7.064 4.104,-8.196 4.046,-24.229 -0.07,-19.33 0.75,-16.466 -19.865,-69.376 -29.142,-74.799 -41.968,-113.164 -53.652,-160.474 -13.113,-53.092 -13.027,-52.256 -13.199,-130.342 -0.136,-62.547 -0.434,-70.951 -3.347,-94.174 -1.755,-14.023 -4.025,-30.277 -5.043,-36.127 -3.404,-19.583 3.054,-14.342 17.881,14.516 21.875,42.572 36.143,89.832 40.247,133.303 1.779,18.826 1.102,35.603 -2.349,58.165 -11.496,75.197 19.536,147.809 69.424,162.441 9.672,2.84 27.888,2.872 38.692,0.069 19.617,-5.084 38.229,-18.195 43.397,-30.565 5.707,-13.657 3.255,-30.231 -7.492,-50.649 l -6.692,-12.708 2.529,-4.161 c 7.939,-13.066 1.396,-28.362 -14.115,-33.013 -16.361,-4.9 -33.785,7.864 -32.026,23.465 1.292,11.47 11.375,20.073 23.812,20.324 5.272,0.105 6.479,0.758 9.626,5.204 4.857,6.863 6.841,13.21 6.805,21.762 -0.102,23.281 -26.17,40.459 -51.538,33.962 -21.849,-5.6 -36.197,-23.299 -44.773,-55.236 -3.432,-12.784 -3.664,-15.652 -3.762,-46.561 -0.071,-22.61 0.554,-37.326 1.995,-46.949 2.792,-18.598 2.52,-54.531 -0.55,-72.88 -6.137,-36.685 -18.225,-72.144 -38.081,-111.709 -7.237,-14.42 -12.61,-26.554 -11.941,-26.968 1.662,-1.025 3.953,2.733 14.527,23.829 30.924,61.695 67.575,123.471 91.49,154.206 14.691,18.881 24.573,27.704 39.672,35.428 24.218,12.388 40.752,16.298 89.887,21.252 52.344,5.277 63.75,7.78 77.748,17.054 12.85,8.509 18.688,21.368 16.051,35.347 -3.427,18.163 -22.951,35.975 -41.89,38.22 -14.455,1.712 -26.59,-5.263 -36.542,-20.997 l -5.197,-8.222 5.643,-5.267 c 5.037,-4.697 5.711,-6.115 6.302,-13.212 0.564,-6.813 0.151,-8.723 -2.894,-13.322 -9.652,-14.584 -33.858,-14.368 -42.977,0.383 -3.767,6.094 -3.831,16.456 -0.14,22.428 2.971,4.811 10.821,9.778 17.768,11.245 3.979,0.843 4.466,1.538 5.269,7.511 2.595,19.275 18.116,36.777 38.815,43.773 7.34,2.48 11.348,2.938 21.799,2.487 11.347,-0.487 13.997,-1.142 23.325,-5.75 16.93,-8.368 30.43,-24.876 37.475,-45.839 4.338,-12.898 3.525,-31.252 -1.827,-41.345 -13.814,-26.053 -39.846,-36.899 -119.43,-49.765 -65.577,-10.599 -76.962,-15.598 -99.979,-43.907 -21.165,-26.026 -40.607,-59.297 -76.007,-130.062 -10.84,-21.667 -21.29,-41.9 -23.223,-44.963 -2.213,-3.506 -2.947,-6.008 -2.429,-6.564"
           id="path14"
           inkscape:connector-curvature="0"
           style="fill:#34aacd;stroke:#010202;stroke-width:0.2044;stroke-miterlimit:10" />
      </g>
      <path
         d="m 602.992,1015.38 c -8.715,-2.056 -14.871,-11.076 -13.271,-19.441 0.782,-4.101 3.109,-2.674 3.109,1.906 0,11.485 11.945,18.098 22.674,12.548 4.133,-2.136 8.441,-8.539 8.441,-12.548 0,-2.242 2.533,-4.457 3.726,-3.265 0.393,0.393 -0.079,3.351 -1.044,6.575 -1.771,5.908 -9.581,13.087 -13.051,13.994 -1.692,0.444 -2.077,0.663 -4.014,0.778 -1.077,0.063 -3.992,0.063 -6.572,-0.548 h 0.002 z"
         id="path16"
         inkscape:connector-curvature="0"
         style="fill:#010202" />
      <path
         stroke-miterlimit="10"
         d="M 685.671,955.092 V 932.72 l -5.956,-1.572 c -22.903,-6.037 -38.363,-29.69 -34.62,-52.969 5.16,-32.073 39.254,-49.438 68.237,-34.751 8.349,4.231 17.875,14.336 21.729,23.045 3.463,7.827 4.761,22.651 2.662,30.402 -3.987,14.718 -17.167,28.914 -30.762,33.131 l -6.572,2.043 -0.389,22.902 -0.056,22.707 7.405,-0.711 c 4.253,-0.499 12.648,-2.701 18.655,-4.892 32.385,-11.821 56.587,-38.246 65.644,-71.676 3.356,-12.394 3.363,-38.031 0.015,-50.454 -8.005,-29.665 -28.807,-54.828 -56.23,-68.019 -14.064,-6.764 -26.771,-9.496 -44.15,-9.491 -18.2,0.005 -28.65,2.53 -46.25,11.168 -11.261,5.53 -15.269,8.5 -25.983,19.271 -21.071,21.174 -30.101,42.863 -30.056,72.172 0.05,30.447 10.973,55.256 33.519,76.13 15.504,14.355 41.176,25.983 57.908,26.227 l 5.256,0.08 v -22.371 z"
         id="path18"
         inkscape:connector-curvature="0"
         style="fill:#ffffff;stroke:#010202;stroke-width:0.2042;stroke-miterlimit:10" />
      <path
         stroke-miterlimit="10"
         d="m 551.124,931.229 v -22.404 l -5.236,-2.189 c -11.852,-4.95 -17.772,-14.807 -16.923,-28.165 0.462,-7.263 1.318,-9.76 4.837,-14.13 2.351,-2.919 6.738,-6.752 9.748,-8.52 11.735,-6.881 31.045,-1.365 36.888,10.537 2.932,5.973 4.318,5.76 4.346,-0.667 0.071,-15.017 9.49,-40.21 20.283,-54.244 l 5.338,-6.945 -6.042,-5.207 c -7.351,-6.328 -18.038,-11.705 -28.896,-14.532 -22.556,-5.876 -45.798,1.207 -64.347,19.609 -27.402,27.184 -33.736,70.242 -15.741,106.995 3.105,6.339 7.945,12.716 15.091,19.884 13.195,13.235 19.818,16.897 40.305,22.29 0.193,0.052 0.349,-9.988 0.349,-22.312 z"
         id="path20"
         inkscape:connector-curvature="0"
         style="fill:#ffffff;stroke:#010202;stroke-width:0.2042;stroke-miterlimit:10" />
      <path
         stroke-miterlimit="10"
         d="m 583.576,949.478 c 3.785,-1.438 10.01,-4.624 13.836,-7.079 l 6.959,-4.466 -2.617,-3.713 c -6.519,-9.244 -14.124,-28.623 -16.304,-41.546 l -0.944,-5.598 -2.665,5.477 c -3.617,7.438 -6.193,10.041 -13.382,13.52 l -6.121,2.962 v 22.482 22.481 l 7.179,-0.953 c 3.949,-0.524 10.275,-2.129 14.059,-3.567 z"
         id="path22"
         inkscape:connector-curvature="0"
         style="fill:#ffffff;stroke:#010202;stroke-width:0.2042;stroke-miterlimit:10" />
      <path
         stroke-miterlimit="10"
         d="m 501.415,437.524 c 0.531,-2.505 2.772,-10.231 4.981,-17.169 12.378,-38.873 39.963,-61.35 79.797,-65.026 23.153,-2.137 39.205,1.701 66.542,15.91 21.064,10.948 29.73,14.186 42.887,16.016 27.25,3.79 48.724,-6.01 55.603,-25.377 l 2.376,-6.691 h 14.565 14.567 l -0.943,5.896 c -0.519,3.245 -2.526,10.656 -4.461,16.468 -13.836,41.565 -45.961,64.529 -90.272,64.529 -18.714,0 -28.998,-2.912 -54.54,-15.449 -28.801,-14.138 -37.718,-16.931 -54.062,-16.934 -24.469,-0.004 -38.297,8.117 -46.207,27.127 l -2.187,5.256 h -14.807 -14.809 z"
         id="path24"
         inkscape:connector-curvature="0"
         style="stroke:#000000;stroke-width:0.81669998;stroke-miterlimit:10" />
      <path
         stroke-miterlimit="10"
         d="m 530.709,431.634 c 8.171,-16.702 24.885,-25.995 46.752,-25.995 15.821,0 26.628,3.229 51.449,15.372 12.333,6.033 27.154,12.453 32.935,14.268 19.684,6.176 50.15,3.531 69.127,-5.998 15.834,-7.948 29.689,-22.897 38.153,-41.16 5.171,-11.159 9.901,-26.942 8.493,-28.349 -0.519,-0.518 -5.315,-1.107 -10.659,-1.311 l -9.718,-0.368 -4.272,8.95 c -6.364,13.336 -15.544,20.002 -32.003,23.24 -19.819,3.899 -43.026,-1.005 -66.125,-13.971 -31.417,-17.636 -56.35,-21.975 -84.567,-14.714 -20.434,5.257 -39.545,19.17 -49.866,36.3 -4.956,8.225 -13.142,28.844 -14.621,36.822 l -0.843,4.556 h 11.012 11.013 z"
         id="path26"
         inkscape:connector-curvature="0"
         style="fill:#15738d;stroke:#000000;stroke-width:0.81669998;stroke-miterlimit:10" />
      <path
         stroke-miterlimit="10"
         d="m 710.852,615.393 17.072,-6.408 -0.028,-0.057 c -1.751,-3.578 -2.706,-7.54 -2.706,-11.792 0,-2.908 0.314,-5.245 1.165,-7.87 l 0.146,-0.465 -19.418,-6.1 -0.396,-0.125 c -2.333,2.157 -5.43,3.5 -8.838,3.578 l -0.028,0.233 -1.674,14.314 h 10e-4 c 6.95,2.257 12.445,7.744 14.704,14.692"
         id="path28"
         inkscape:connector-curvature="0"
         style="fill:#15738d;stroke:#010202;stroke-width:0.2044;stroke-miterlimit:10" />
      <g
         id="Grupo_cabeza">
        <path
           d="m 777.533,810.243 -8.983,-9.186 c -15.353,-15.702 -30.402,-24.315 -52.043,-29.785 -16.778,-4.246 -41.981,-3.312 -58.165,2.15 -13.74,4.636 -27.431,12.571 -37.375,21.658 l -7.496,6.85 -5.584,-4.826 c -18.911,-16.348 -45.139,-21.99 -68.675,-14.776 -36.248,11.11 -60.708,50.471 -57.683,92.817 1.023,14.297 3.662,23.895 10.328,37.539 2.742,5.612 4.743,10.395 4.447,10.625 -0.298,0.229 -4.269,3.05 -8.827,6.264 h -10e-4 c -4.557,3.213 -8.657,5.823 -9.11,5.799 -1.542,-0.074 -49.175,-45.868 -49.175,-47.277 0,-0.355 8.299,-12.4 18.445,-26.767 10.143,-14.368 18.453,-26.81 18.453,-27.649 0.012,-1.893 -21.353,-55.571 -22.645,-56.894 -0.515,-0.528 -14.184,-3.297 -30.371,-6.152 -16.187,-2.856 -30.755,-5.684 -32.371,-6.282 -2.856,-1.059 -2.945,-1.996 -3.241,-34.724 l -0.307,-33.636 7.449,-1.492 c 4.097,-0.821 19.746,-3.766 34.777,-6.542 15.03,-2.778 27.396,-5.155 27.478,-5.282 1.378,-2.171 20.175,-52.193 20.175,-53.692 0,-1.157 -8.516,-13.996 -18.921,-28.531 -10.406,-14.535 -18.921,-26.953 -18.921,-27.595 0,-1.447 46.583,-48.087 48.029,-48.087 0.576,0 13.727,8.67 29.222,19.271 15.497,10.599 28.895,19.062 29.772,18.803 0.879,-0.255 12.716,-5.212 26.306,-11.015 l 24.71,-10.549 6.882,-34.533 6.881,-34.534 33.196,-0.375 33.195,-0.375 0.757,3.178 c 0.417,1.749 3.58,17.314 7.033,34.589 3.452,17.276 6.475,31.607 6.715,31.85 0.241,0.24 12.046,5.17 26.234,10.956 l 25.796,10.52 29.289,-19.773 29.29,-19.772 23.668,23.639 c 13.02,13.003 23.67,24.165 23.67,24.807 0,0.642 -8.102,13.579 -18.003,28.747 -9.904,15.169 -18.438,28.345 -18.972,29.28 -0.532,0.936 2.28,8.819 6.247,17.519 3.967,8.701 9.145,20.343 11.506,25.872 l 4.289,10.052 11.321,2.067 c 6.227,1.136 21.173,3.796 33.217,5.91 l 21.896,3.842 1.023,34.231 c 0.563,18.829 0.778,34.478 0.479,34.776 -0.3,0.302 -10.299,2.178 -22.219,4.173 -11.92,1.997 -26.659,4.707 -32.755,6.024 l -11.081,2.394 -3.808,9.111 c -2.097,5.01 -7.467,17.492 -11.935,27.736 l -8.121,18.628 18.457,27.178 c 10.153,14.948 18.437,27.692 18.41,28.324 -0.029,0.63 -10.349,11.854 -22.934,24.945 l -22.884,23.798 -5.095,-2.744 c -2.805,-1.508 -5.098,-2.829 -5.098,-2.93 0,-0.102 2.207,-4.96 4.903,-10.795 6.828,-14.777 9.421,-27.021 9.421,-44.443 0,-18.485 -2.774,-30.557 -10.849,-47.197 l -6.147,-12.669 -0.088,-0.191 c 22.915,-38.899 22.778,-101.242 7.991,-155.164 v 0 c 5.35,-3.014 8.962,-8.748 8.962,-15.326 0,-9.709 -7.869,-17.578 -17.579,-17.578 -2.124,0 -4.16,0.376 -6.045,1.065 l -0.183,-0.277 -6.148,-8.471 -0.174,-0.238 c 6.848,-4.894 11.311,-12.911 11.311,-21.969 0,-14.903 -12.079,-26.98 -26.981,-26.98 -10.126,0 -18.948,5.577 -23.563,13.826 l -0.235,-0.07 -18.023,-5.408 -0.567,-0.17 c 0.797,-1.723 1.242,-3.643 1.242,-5.667 0,-7.45 -6.041,-13.49 -13.49,-13.49 -7.45,0 -13.49,6.041 -13.49,13.49 0,5.985 3.648,10.975 9.043,12.74 l 0.248,0.083 -1.833,14.225 h 0.001 c -0.798,-0.083 -1.606,-0.126 -2.426,-0.126 -12.644,0 -22.893,10.249 -22.893,22.894 0,12.644 10.25,22.893 22.893,22.893 12.643,0 22.894,-10.249 22.894,-22.893 0,-0.631 -0.026,-1.256 -0.077,-1.875 l 18.721,-7.239 10e-4,10e-4 c 4.923,6.529 12.746,10.748 21.554,10.748 3.631,0 7.095,-0.717 10.257,-2.018 l 0.136,0.188 6.378,8.754 0.1,0.138 c -3.809,3.224 -6.229,8.042 -6.229,13.424 0,9.711 7.87,17.579 17.579,17.579 1.051,0 2.081,-0.092 3.083,-0.268 v -0.001 c 15.689,45.465 15.414,108.284 -5.628,148.646 l -0.313,-0.318"
           id="path31"
           inkscape:connector-curvature="0"
           style="fill:#34aacd" />
        <path
           d="m 710.542,630.463 c 32.224,42.789 47.673,98.003 36.615,153.208"
           id="path33"
           inkscape:connector-curvature="0"
           style="fill:none" />
        <path
           d="m 564.208,551.106 c 45.172,2.36 86.506,20.922 118.606,49.348"
           id="path35"
           inkscape:connector-curvature="0"
           style="fill:none" />
      </g>
      <g
         id="Cabeza_color">
        <path
           d="m 564.429,551.362 c -0.133,-0.173 -0.201,-0.262 -0.201,-0.262 45.172,2.359 86.506,20.922 118.605,49.348 v 10e-4 c 1.991,-0.565 4.091,-0.868 6.262,-0.868 0.821,0 1.629,0.043 2.426,0.127 l 1.834,-14.225 -0.249,-0.084 c -5.394,-1.766 -9.044,-6.756 -9.044,-12.74 0,-7.45 6.04,-13.49 13.491,-13.49 7.45,0 13.49,6.041 13.49,13.49 0,2.023 -0.445,3.944 -1.245,5.667 l 0.569,0.169 18.023,5.407 0.234,0.069 c 4.617,-8.249 13.44,-13.825 23.564,-13.825 14.902,0 26.982,12.078 26.982,26.979 0,9.06 -4.463,17.075 -11.311,21.969 l 0.174,0.24 6.149,8.47 0.182,0.277 c 1.886,-0.69 3.922,-1.066 6.046,-1.066 9.71,0 17.579,7.869 17.579,17.579 0,6.579 -3.614,12.312 -8.963,15.327 14.787,53.922 14.924,116.265 -7.99,155.164 l 0.088,0.191 6.147,12.669 c 8.074,16.642 10.849,28.712 10.849,47.199 0,17.421 -2.595,29.666 -9.422,44.44 -2.695,5.838 -4.902,10.695 -4.902,10.796 0,0.102 2.292,1.421 5.097,2.931 l 5.095,2.744 22.885,-23.8 c 12.586,-13.087 22.905,-24.314 22.934,-24.944 0.026,-0.63 -8.256,-13.376 -18.409,-28.323 l -18.458,-27.178 8.122,-18.627 c 4.468,-10.246 9.838,-22.726 11.933,-27.738 l 3.809,-9.108 11.082,-2.396 c 6.095,-1.315 20.834,-4.027 32.755,-6.023 11.92,-1.996 21.917,-3.874 22.22,-4.174 0.298,-0.298 0.083,-15.948 -0.479,-34.776 l -1.024,-34.23 -21.896,-3.843 c -12.043,-2.114 -26.989,-4.772 -33.216,-5.909 l -11.32,-2.067 -4.291,-10.052 c -2.36,-5.53 -7.537,-17.171 -11.504,-25.872 -3.967,-8.701 -6.78,-16.584 -6.248,-17.52 0.534,-0.935 9.069,-14.111 18.972,-29.28 9.901,-15.168 18.003,-28.104 18.003,-28.747 0,-0.642 -10.651,-11.804 -23.67,-24.806 l -23.669,-23.639 -29.29,19.772 -29.289,19.771 -25.794,-10.519 c -14.189,-5.787 -25.994,-10.717 -26.235,-10.958 -0.241,-0.242 -3.263,-14.574 -6.715,-31.849 -3.454,-17.275 -6.617,-32.841 -7.034,-34.589 l -0.757,-3.178 -33.196,0.375 -33.196,0.375 -6.881,34.535 -6.881,34.532 -23.021,9.829"
           id="path38"
           inkscape:connector-curvature="0"
           style="fill:#15738d" />
        <path
           d="m 747.175,783.665 c 11.058,-55.206 -4.392,-110.421 -36.616,-153.208 0.925,-2.486 1.431,-5.175 1.431,-7.982 0,-0.631 -0.026,-1.255 -0.077,-1.874 l 18.721,-7.24 v 10e-4 c 4.926,6.529 12.747,10.749 21.555,10.749 3.631,0 7.095,-0.717 10.258,-2.017 l 0.137,0.187 6.376,8.754 0.101,0.138 c -3.809,3.225 -6.229,8.042 -6.229,13.425 0,9.71 7.869,17.579 17.579,17.579 1.052,0 2.082,-0.092 3.083,-0.269 v -10e-4 c 15.688,45.465 15.415,108.285 -5.627,148.646 l -0.316,-0.316 -8.982,-9.187 c -6.979,-7.136 -13.894,-12.808 -21.394,-17.385 z"
           id="path40"
           inkscape:connector-curvature="0"
           style="fill:#15738d" />
      </g>
      <path
         stroke-miterlimit="10"
         d="M 588.483,993.546"
         id="path42"
         inkscape:connector-curvature="0"
         style="fill:none;stroke:#010202;stroke-width:0.123;stroke-miterlimit:10" />
      <path
         stroke-miterlimit="10"
         d="M 631.111,992.453"
         id="path44"
         inkscape:connector-curvature="0"
         style="fill:none;stroke:#010202;stroke-width:0.123;stroke-miterlimit:10" />
      <path
         stroke-miterlimit="10"
         d="M 588.483,992.359"
         id="path46"
         inkscape:connector-curvature="0"
         style="fill:none;stroke:#010202;stroke-width:0.123;stroke-miterlimit:10" />
      <path
         stroke-miterlimit="10"
         d="M 630.427,1009.158"
         id="path48"
         inkscape:connector-curvature="0"
         style="fill:none;stroke:#010202;stroke-width:0.123;stroke-miterlimit:10" />
      <path
         stroke-miterlimit="10"
         d="M 587.798,1009.064"
         id="path50"
         inkscape:connector-curvature="0"
         style="fill:none;stroke:#010202;stroke-width:0.123;stroke-miterlimit:10" />
    </g>
    <flowRoot
       xml:space="preserve"
       id="flowRoot87"
       style="font-style:normal;font-weight:normal;font-size:40px;font-family:sans-serif;fill:#15738d;fill-opacity:1;stroke:none"
       transform="matrix(1.0761836,0,0,1.0761836,-310.85205,-82.140112)"><flowRegion
         id="flowRegion89"
         style="fill:#15738d;fill-opacity:1"><rect
           id="rect91"
           width="787.9032"
           height="260.0769"
           x="358.51422"
           y="112.80777"
           style="fill:#15738d;fill-opacity:1;" /></flowRegion><flowPara
         id="flowPara93"
         style="font-style:normal;font-variant:normal;font-weight:normal;font-stretch:normal;font-size:40px;font-family:Geneva;-inkscape-font-specification:'Geneva, Normal';font-variant-ligatures:normal;font-variant-caps:normal;font-variant-numeric:normal;font-feature-settings:normal;text-align:start;writing-mode:lr-tb;text-anchor:start;fill:#15738d;fill-opacity:1">OSHWDem</flowPara></flowRoot>    <flowRoot
       xml:space="preserve"
       id="flowRoot95"
       style="font-style:normal;font-weight:normal;font-size:40px;font-family:sans-serif;fill:#34aacd;fill-opacity:1;stroke:none"
       transform="matrix(0.35158757,0,0,0.35158757,-49.863024,-8.8128614)"><flowRegion
         id="flowRegion97"
         style="fill:#34aacd;fill-opacity:1"><rect
           id="rect99"
           width="554.53046"
           height="247.75865"
           x="328.20529"
           y="343.95502"
           style="fill:#34aacd;fill-opacity:1;" /></flowRegion><flowPara
         id="flowPara101"
         style="font-style:normal;font-variant:normal;font-weight:normal;font-stretch:normal;font-size:40px;font-family:Geneva;-inkscape-font-specification:'Geneva, Normal';font-variant-ligatures:normal;font-variant-caps:normal;font-variant-numeric:normal;font-feature-settings:normal;text-align:start;writing-mode:lr-tb;text-anchor:start;fill:#34aacd;fill-opacity:1">Feria de tecnología abierta</flowPara></flowRoot>    <flowRoot
       xml:space="preserve"
       id="flowRoot103"
       style="font-style:normal;font-weight:normal;font-size:40px;font-family:sans-serif;fill:#15738d;fill-opacity:1;stroke:none"
       transform="matrix(0.43371765,0,0,0.43371765,-66.068592,-47.681508)"><flowRegion
         id="flowRegion105"
         style="fill:#15738d;fill-opacity:1"><rect
           id="rect107"
           width="525.35333"
           height="84.919281"
           x="364.67444"
           y="312.91388"
           style="fill:#15738d;fill-opacity:1;" /></flowRegion><flowPara
         id="flowPara109"
         style="font-style:normal;font-variant:normal;font-weight:normal;font-stretch:normal;font-size:40px;font-family:Geneva;-inkscape-font-specification:'Geneva, Normal';font-variant-ligatures:normal;font-variant-caps:normal;font-variant-numeric:normal;font-feature-settings:normal;text-align:start;writing-mode:lr-tb;text-anchor:start;fill:#15738d;fill-opacity:1">CORUÑA</flowPara></flowRoot>    <flowRoot
       xml:space="preserve"
       id="flowRoot111"
       style="font-style:normal;font-variant:normal;font-weight:bold;font-stretch:normal;font-size:39.99980164px;font-family:sans-serif;-inkscape-font-specification:'sans-serif, Bold';font-variant-ligatures:normal;font-variant-caps:normal;font-variant-numeric:normal;font-feature-settings:normal;text-align:start;writing-mode:lr-tb;text-anchor:start;fill:#15738d;fill-opacity:1;stroke:none"
       transform="matrix(0.21535234,0,0,0.25123784,10.92553,10.408298)"><flowRegion
         id="flowRegion113"
         style="font-style:normal;font-variant:normal;font-weight:bold;font-stretch:normal;font-size:39.99980164px;font-family:sans-serif;-inkscape-font-specification:'sans-serif, Bold';font-variant-ligatures:normal;font-variant-caps:normal;font-variant-numeric:normal;font-feature-settings:normal;text-align:start;writing-mode:lr-tb;text-anchor:start;fill:#15738d;fill-opacity:1"><rect
           id="rect115"
           width="1292.1075"
           height="95.254967"
           x="311.1091"
           y="82.801491"
           style="font-style:normal;font-variant:normal;font-weight:bold;font-stretch:normal;font-size:39.99980164px;font-family:sans-serif;-inkscape-font-specification:'sans-serif, Bold';font-variant-ligatures:normal;font-variant-caps:normal;font-variant-numeric:normal;font-feature-settings:normal;text-align:start;writing-mode:lr-tb;text-anchor:start;fill:#15738d;fill-opacity:1" /></flowRegion><flowPara
         id="flowPara117"
         style="font-style:normal;font-variant:normal;font-weight:bold;font-stretch:normal;font-size:39.99980164px;font-family:sans-serif;-inkscape-font-specification:'sans-serif, Bold';font-variant-ligatures:normal;font-variant-caps:normal;font-variant-numeric:normal;font-feature-settings:normal;text-align:start;writing-mode:lr-tb;text-anchor:start;fill:#15738d;fill-opacity:1">OPEN  SOURCE  HARDWARE  DEMOSTRATION</flowPara><flowPara
         style="font-style:normal;font-variant:normal;font-weight:bold;font-stretch:normal;font-size:39.99980164px;font-family:sans-serif;-inkscape-font-specification:'sans-serif, Bold';font-variant-ligatures:normal;font-variant-caps:normal;font-variant-numeric:normal;font-feature-settings:normal;text-align:start;writing-mode:lr-tb;text-anchor:start;fill:#15738d;fill-opacity:1"
         id="flowPara119" /></flowRoot>  </g>
</svg>
