<?xml version="1.0" encoding="UTF-8" standalone="no"?>
<!-- Created with Inkscape (http://www.inkscape.org/) -->

<svg
   xmlns:dc="http://purl.org/dc/elements/1.1/"
   xmlns:cc="http://creativecommons.org/ns#"
   xmlns:rdf="http://www.w3.org/1999/02/22-rdf-syntax-ns#"
   xmlns:svg="http://www.w3.org/2000/svg"
   xmlns="http://www.w3.org/2000/svg"
   xmlns:sodipodi="http://sodipodi.sourceforge.net/DTD/sodipodi-0.dtd"
   xmlns:inkscape="http://www.inkscape.org/namespaces/inkscape"
   width="291.32205mm"
   height="113.52946mm"
   viewBox="0 0 291.32205 113.52946"
   version="1.1"
   id="svg8"
   inkscape:version="0.92.3 (2405546, 2018-03-11)"
   sodipodi:docname="Oshwdem.svg"
   inkscape:export-filename="/home/oscar/proyectos/oshwdem/Oshwdem.png"
   inkscape:export-xdpi="159.03619"
   inkscape:export-ydpi="159.03619">
  <defs
     id="defs2" />
  <sodipodi:namedview
     id="base"
     pagecolor="#ffffff"
     bordercolor="#666666"
     borderopacity="1.0"
     inkscape:pageopacity="0.0"
     inkscape:pageshadow="2"
     inkscape:zoom="0.50321562"
     inkscape:cx="332.77773"
     inkscape:cy="239.22843"
     inkscape:document-units="mm"
     inkscape:current-layer="layer1"
     inkscape:document-rotation="0"
     showgrid="false"
     fit-margin-left="2"
     fit-margin-top="2"
     fit-margin-right="2"
     fit-margin-bottom="2"
     inkscape:window-width="1366"
     inkscape:window-height="741"
     inkscape:window-x="0"
     inkscape:window-y="27"
     inkscape:window-maximized="1" />
  <metadata
     id="metadata5">
    <rdf:RDF>
      <cc:Work
         rdf:about="">
        <dc:format>image/svg+xml</dc:format>
        <dc:type
           rdf:resource="http://purl.org/dc/dcmitype/StillImage" />
        <dc:title />
      </cc:Work>
    </rdf:RDF>
  </metadata>
  <g
     inkscape:label="Capa 1"
     inkscape:groupmode="layer"
     id="layer1"
     transform="translate(-5.088532,-16.458685)">
    <path
       style="stroke:#010202;stroke-width:0.0175928;stroke-miterlimit:10"
       inkscape:connector-curvature="0"
       id="path10"
       d="m 49.027595,127.43247 c -1.148529,-0.16792 -2.374598,-0.57965 -3.536912,-1.18739 -0.89868,-0.46963 -1.149046,-0.55294 -1.388556,-0.46127 -0.499181,0.19083 -1.646849,0.0238 -2.156971,-0.31395 -1.252001,-0.82863 -1.397258,-2.3447 -0.326785,-3.41216 0.956404,-0.95339 2.515288,-0.95528 3.56138,-0.004 0.432152,0.39304 0.622554,0.85018 0.622554,1.49599 v 0.58629 l 0.831652,0.19979 c 3.654427,0.87688 6.08649,0.65658 7.414824,-0.67192 0.535969,-0.53589 0.923838,-1.30533 0.927456,-1.84061 0.0087,-1.19333 -0.730506,-2.8245 -3.241056,-7.15145 -3.389156,-5.84155 -4.692764,-8.82785 -5.468071,-12.52561 -0.204273,-0.97441 -0.202119,-4.304554 0.0049,-7.090541 0.202722,-2.730417 0.122943,-7.874546 -0.162402,-10.478488 -0.217282,-1.984747 -0.529938,-3.964928 -0.664339,-4.209263 -0.187387,-0.340742 -1.543549,3.391827 -2.118115,5.830265 -0.758162,3.217537 -0.92918,6.872739 -0.454984,9.729717 0.388472,2.340222 0.418454,2.785212 0.277419,4.1244 -0.251917,2.39149 -0.888256,4.49831 -3.015159,9.98319 -1.889977,4.87317 -1.931504,6.50959 -0.18842,7.41956 0.734728,0.3833 2.501245,0.44309 3.160932,0.1064 0.301973,-0.15413 0.545446,-0.38899 0.640302,-0.61799 0.198501,-0.47928 0.106401,-1.50194 -0.189712,-2.10691 -0.203153,-0.4151 -0.309038,-0.49083 -0.887912,-0.63729 -0.829584,-0.21005 -1.418624,-0.65572 -1.707759,-1.29241 -0.463944,-1.02162 -0.127768,-2.13302 0.828464,-2.73963 0.94193,-0.59749 2.009043,-0.58198 2.935379,0.0422 0.838028,0.56475 1.199705,1.80098 0.770051,2.63177 -0.174032,0.33678 -0.165331,0.41398 0.139054,1.23184 0.267597,0.71853 0.326871,1.08529 0.336693,2.08012 0.01086,1.09606 -0.01982,1.27182 -0.332385,1.90842 -0.450159,0.91694 -1.258807,1.5619 -2.413281,1.92487 -0.714051,0.22434 -1.128111,0.27061 -2.374253,0.26337 -2.917201,-0.0172 -4.677688,-0.83217 -5.457733,-2.52692 -0.241922,-0.52589 -0.277332,-0.7909 -0.273886,-2.05298 0.0049,-1.81812 0.302059,-2.9639 1.926938,-7.42947 1.754714,-4.822 2.205131,-6.52131 2.319028,-8.750567 0.05798,-1.133883 0.02085,-1.565863 -0.254243,-2.952524 -0.625398,-3.153351 -0.644179,-6.132238 -0.05996,-9.537764 0.199104,-1.161194 0.837425,-3.842761 1.136899,-4.776593 0.200654,-0.625656 -0.209615,0.247178 -0.822951,1.750838 -1.696818,4.159293 -3.118286,8.586442 -3.851118,11.993605 -0.365382,1.698111 -0.368915,1.750493 -0.463857,6.843185 -0.05281,2.82235 -0.156974,5.56646 -0.231584,6.09761 -0.762815,5.42309 -2.318597,9.07175 -4.917887,11.5319 -1.193674,1.13018 -2.699143,1.9471 -4.129829,2.24131 -0.673902,0.13837 -0.950028,0.25675 -1.128369,0.48351 -0.848194,1.07848 -2.943564,1.04109 -3.877568,-0.0691 -1.211163,-1.4393 -0.230636,-3.45687 1.749459,-3.59998 0.629792,-0.0457 0.8158,-0.003 1.48841,0.33807 l 0.768759,0.3902 0.606099,-0.20126 c 2.999392,-0.99621 4.897123,-4.56681 5.457904,-10.26939 0.07177,-0.73051 0.175842,-3.80054 0.23124,-6.82216 0.109416,-5.985521 0.165245,-6.583522 0.915567,-9.841033 0.627206,-2.722836 1.808474,-6.510113 2.783833,-8.925721 0.158697,-0.393038 0.26975,-0.733349 0.246661,-0.756439 -0.06755,-0.06763 -2.86637,5.508478 -3.93443,7.838361 -2.133537,4.65477 -2.617641,6.235107 -4.059527,13.254392 -1.431547,6.96786 -2.153697,8.97604 -3.719215,10.34038 -1.340482,1.16844 -3.58826,1.50453 -5.899189,0.88223 -2.265009,-0.6098 -3.959243,-2.67338 -3.959243,-4.82243 0,-0.63375 -0.03627,-0.72421 -0.47747,-1.18773 -1.314635,-1.38218 -0.404238,-3.51959 1.586627,-3.72481 0.559316,-0.0579 0.786765,-0.0177 1.343152,0.23692 0.921081,0.42173 1.352716,1.07039 1.347289,2.02473 -0.0053,0.91832 -0.412079,1.54923 -1.252604,1.94356 -0.731368,0.34333 -0.757646,0.50366 -0.249246,1.52115 0.789264,1.57956 2.5594,2.24804 4.464626,1.68614 1.442145,-0.42526 2.499781,-2.18032 3.253377,-5.39855 0.131989,-0.56457 0.484103,-2.46963 0.782199,-4.23339 1.216074,-7.196418 2.596791,-12.525176 4.464368,-17.232673 0.481691,-1.21349 0.838199,-2.16438 0.792451,-2.112859 -0.04575,0.05135 -0.372447,0.528214 -0.726112,1.059617 -2.19755,3.301279 -3.669418,4.633317 -6.996974,6.332548 -1.578786,0.80615 -3.011454,1.393295 -5.614792,2.301108 -2.091149,0.729472 -3.220293,1.284567 -4.183934,2.057634 -0.878176,0.704488 -1.449985,1.39364 -1.875676,2.260787 -0.2967169,0.604118 -0.4269829,0.845437 -0.4262937,1.793658 6.893e-4,0.89205 0.136383,1.16274 0.3578007,1.5781 0.759024,1.42491 2.288185,1.61169 3.45024,0.42112 l 0.44835,-0.45877 -0.213492,-0.41536 c -0.125011,-0.24321 -0.210907,-0.66795 -0.207547,-1.02593 0.01887,-1.92952 2.59817,-2.925038 4.11906,-1.589639 0.997414,0.875677 1.035925,2.358569 0.08417,3.252259 -0.32825,0.30817 -1.203582,0.69897 -1.565691,0.69897 -0.08986,0 -0.509002,0.3454 -0.931419,0.76773 -0.495217,0.49513 -1.063322,0.91315 -1.600411,1.17739 -0.761091,0.37434 -0.952269,0.47997 -1.947528,0.47841 -0.959075,-0.002 -1.144825,-0.11432 -1.758247,-0.42353 -1.9236637,-0.96898 -3.1072579,-3.41647 -2.746011,-5.677515 0.1578356,-0.98854 0.6946659,-2.424396 1.2523458,-3.350559 0.6127327,-1.017833 1.2531211,-1.733779 2.1898822,-2.448433 1.388212,-1.059186 1.906088,-1.308777 6.278873,-3.025669 4.128364,-1.620485 6.138528,-3.130434 8.650111,-6.497707 0.636598,-0.853449 1.749115,-2.535879 2.472298,-3.738772 1.253982,-2.086152 3.947784,-7.290072 4.929862,-9.523721 L 33.396707,69.3788 32.592453,68.586348 c -0.442233,-0.43577 -0.831652,-0.792365 -0.865425,-0.792365 -0.0336,0 -0.44878,0.272077 -0.922459,0.604893 l -0.861289,0.60472 -0.975617,-0.931419 C 28.430919,67.560073 27.381898,66.547324 26.636315,65.821814 L 25.28067,64.502785 25.499761,64.18608 c 0.120703,-0.173947 0.878262,-1.248383 1.683637,-2.387521 L 28.64777,59.727398 27.725397,57.45162 c -0.507451,-1.251743 -0.940896,-2.299126 -0.96321,-2.327299 -0.02231,-0.02852 -1.292149,-0.279745 -2.821569,-0.558541 -1.529591,-0.278711 -2.798565,-0.527354 -2.819759,-0.552252 -0.02128,-0.02481 -0.07478,-1.467561 -0.118635,-3.205906 -0.0747,-2.960881 -0.06634,-3.164378 0.134315,-3.224428 0.117774,-0.03532 1.463856,-0.288963 2.991294,-0.564141 1.527438,-0.275006 2.817778,-0.538123 2.867317,-0.584474 0.04937,-0.04652 0.462134,-1.039285 0.916945,-2.206079 l 0.827086,-2.121648 -1.74765,-2.445331 -1.747477,-2.445417 2.292751,-2.292837 2.292923,-2.29275 2.481602,1.70328 c 1.36495,0.936847 2.548027,1.703624 2.62884,1.703624 0.0809,0 1.05083,-0.3827 2.155334,-0.850348 l 2.008095,-0.850347 0.606616,-3.043848 0.60653,-3.043676 h 3.128882 3.128883 l 0.593434,3.040919 0.593693,3.040919 2.114066,0.848624 2.114065,0.848711 2.568446,-1.744376 2.56836,-1.744462 2.243987,2.293268 2.243987,2.293181 -1.363054,2.081844 c -0.749719,1.145083 -1.509949,2.303262 -1.689409,2.573788 l -0.326613,0.491944 0.892219,2.104158 0.892133,2.104158 2.927797,0.507537 c 1.610147,0.279056 2.945718,0.525544 2.96786,0.547772 0.028,0.028 0.112087,4.897124 0.112087,6.493313 0,7.75e-4 -1.271644,0.215732 -2.826221,0.477642 -1.554404,0.261738 -2.863526,0.519083 -2.909447,0.571895 -0.04583,0.05273 -0.506762,1.080984 -1.024294,2.284911 l -0.941499,2.189279 1.648313,2.438438 1.648399,2.438353 -2.196171,2.284049 -2.196085,2.284049 -0.545618,-0.31929 -0.545274,-0.319806 -0.308606,0.410441 c -0.169725,0.225726 -0.54424,0.666063 -0.832427,0.978632 l -0.523994,0.568277 1.90023,2.692767 c 7.112765,10.079505 11.414128,14.895988 15.327967,17.163581 1.224432,0.709399 2.723353,1.342464 3.974147,1.67864 1.405443,0.377616 3.960535,0.375118 5.297916,-0.0053 1.163089,-0.331006 2.280258,-0.829239 3.485046,-1.55449 0.910053,-0.5476 0.92177,-0.561298 0.800292,-0.909967 -0.47566,-1.364088 0.791073,-2.872744 2.41173,-2.872744 1.901436,0 3.080981,1.95959 2.06849,3.43723 -0.476005,0.694752 -1.005684,0.961832 -2.007061,1.012491 l -0.895751,0.04515 -0.805461,0.805203 c -1.999308,1.999049 -5.82725,3.0149 -10.078902,2.675536 -2.873606,-0.22943 -5.974489,-0.892046 -7.295328,-1.558798 -2.406905,-1.215041 -5.656319,-4.658905 -8.958976,-9.495807 -0.537175,-0.786162 -0.976564,-1.392174 -0.976564,-1.346599 0,0.140433 1.168431,2.420519 2.258806,4.408109 2.588778,4.718955 4.616431,7.310232 6.441103,8.231141 0.895751,0.452054 2.538119,0.854914 5.156621,1.264149 6.194097,0.968466 8.482971,1.694578 10.095271,3.202976 0.539243,0.50435 0.869561,0.941152 1.114154,1.474192 0.311622,0.67787 0.347548,0.88395 0.343241,1.96502 -0.004,1.02309 -0.05514,1.33617 -0.336004,2.05264 -1.256309,3.2059 -3.954246,4.88523 -6.864295,4.27224 -1.995431,-0.42001 -3.625134,-1.98923 -4.074604,-3.92366 -0.132937,-0.57241 -0.177737,-0.62747 -0.620487,-0.76015 -0.591969,-0.17747 -1.301195,-0.78676 -1.517271,-1.30343 -0.366072,-0.87637 -0.130439,-1.76419 0.656499,-2.47428 0.554061,-0.499782 1.047298,-0.635734 2.015849,-0.555438 1.855171,0.153788 2.751008,2.187038 1.571119,3.565858 l -0.419746,0.49005 0.476091,0.70655 c 0.706555,1.04859 1.163865,1.31033 2.290252,1.31033 1.096234,0 1.762985,-0.28922 2.603253,-1.12966 0.757903,-0.75782 1.083396,-1.47161 1.086153,-2.38089 0.0024,-0.86792 -0.357198,-1.51985 -1.159902,-2.10123 -1.090547,-0.790119 -2.100884,-1.01283 -6.864381,-1.514078 -4.247344,-0.446971 -5.507874,-0.751786 -7.728427,-1.868438 -1.71672,-0.863271 -3.111308,-2.381491 -5.396132,-5.873516 -0.657361,-1.005167 -1.707846,-2.72766 -2.334105,-3.828201 -0.626432,-1.100541 -1.154819,-1.984747 -1.174548,-1.965276 -0.0199,0.0199 0.04876,0.275178 0.152235,0.567932 0.335918,0.951062 0.881019,3.278275 1.086412,4.637625 0.269406,1.784696 0.2682,4.202716 -0.0034,6.278615 -0.318859,2.436199 -0.298096,5.512527 0.04799,7.163427 0.450762,2.1493 1.204788,3.57671 2.349441,4.44619 1.71896,1.30593 4.279738,0.83664 5.232782,-0.95908 0.329025,-0.61945 0.274661,-1.59748 -0.129491,-2.33479 -0.322305,-0.58784 -0.368484,-0.62256 -0.901868,-0.67399 -1.644436,-0.1587 -2.675881,-1.59809 -2.127334,-2.96898 0.680451,-1.700696 3.121905,-2.055998 4.322558,-0.62936 0.493925,0.58706 0.574824,1.58921 0.200137,2.48238 -0.138623,0.33092 -0.124149,0.41569 0.145774,0.84543 0.944773,1.50409 1.307485,3.48134 0.876452,4.77883 -0.572584,1.72396 -3.291973,3.24537 -5.801231,3.24537 -3.682858,0 -6.80907,-3.36951 -7.842238,-8.4523 -0.33204,-1.63401 -0.360902,-4.164377 -0.07047,-6.193322 0.587834,-4.106912 0.08702,-7.984996 -1.630393,-12.627705 -0.475575,-1.285687 -2.075038,-4.647446 -2.391484,-5.026613 -0.19583,-0.235117 -0.199621,-0.231584 -0.135608,0.120616 0.168346,0.926078 0.546135,4.283529 0.66589,5.916593 0.07427,1.013352 0.117774,3.912546 0.09865,6.580932 l -0.03412,4.769442 0.328164,1.63539 c 0.93073,4.638397 2.519337,9.798297 4.868692,15.812677 2.229944,5.70887 2.282929,5.88049 2.286461,7.428 0.0028,1.26294 -0.01714,1.37133 -0.393899,2.13698 -0.248815,0.50608 -0.607392,0.99199 -0.961832,1.30404 -1.59395,1.40295 -4.889456,2.1879 -7.550863,1.79866 h -6.89e-4 z"
       stroke-miterlimit="10" />
    <path
       id="Ultima_pata"
       stroke-miterlimit="10"
       d="m 55.779631,76.982734 c 0.03463,-0.03713 0.134487,0.02723 0.290341,0.231325 0.126045,0.165073 0.670801,1.023864 1.210647,1.90807 4.298434,7.041774 8.558701,12.016006 11.616075,13.561278 1.450502,0.733091 4.798046,1.414489 7.463157,1.518908 4.601957,0.180064 7.669756,-0.758506 9.911073,-3.03282 0.332212,-0.337037 0.594123,-0.517359 0.641163,-0.441285 0.124925,0.202033 1.042818,0.145516 1.576977,-0.09744 1.47161,-0.668561 1.914962,-2.163346 0.948651,-3.199012 -0.992245,-1.063667 -2.654946,-1.031101 -3.622809,0.07134 -0.507193,0.577668 -0.604203,1.154818 -0.306883,1.826653 l 0.232446,0.525372 -1.042042,0.610062 c -2.031013,1.18928 -3.541392,1.760487 -5.224339,1.97639 C 76.186249,92.863131 72.211413,91.379546 68.674156,88.410997 65.433531,85.691177 60.227543,79.286517 54.7985,71.33986 l -0.588437,-0.861203 -0.67218,0.454552 c -0.78375,0.530025 -1.478846,0.892564 -2.226756,1.133366"
       inkscape:connector-curvature="0"
       style="fill:#13738d;stroke:#010202;stroke-width:0.01761004;stroke-miterlimit:10" />
    <path
       stroke-miterlimit="10"
       d="m 51.32181,72.063297 c -0.749632,0.241233 -1.552595,0.360126 -2.55087,0.402342 -1.205391,0.05049 -1.628411,0.01792 -2.517701,-0.195054 -1.575771,-0.376669 -3.018346,-1.167311 -4.239848,-2.323594 l -1.000688,-0.947186 -0.309123,0.243474 c -0.56397,0.443438 -1.821657,0.950804 -2.72163,1.097956 -1.136639,0.185663 -2.427496,0.0019 -3.496074,-0.497888 l -0.761264,-0.35625 -0.561556,1.234597 c -3.209869,7.056507 -6.692847,12.840593 -9.413012,15.63218 -1.769705,1.816143 -3.639781,2.919269 -7.535269,4.444208 -1.286893,0.503833 -2.828891,1.156542 -3.426547,1.450502 -2.559572,1.259152 -4.0778776,2.946321 -4.9656164,5.518127 -0.754285,2.184626 -0.3864041,4.183679 1.0495375,5.701809 1.3125679,1.38804 3.1001929,1.69906 4.7343769,0.82381 0.346945,-0.18575 0.994915,-0.70474 1.439905,-1.15284 0.566036,-0.57043 0.899369,-0.81528 1.109156,-0.81528 0.464719,0 0.942792,-0.22073 1.369689,-0.63272 0.760832,-0.73352 0.806581,-1.68372 0.118979,-2.466955 -0.468337,-0.53347 -0.986989,-0.764279 -1.717409,-0.764279 -1.546736,0 -2.557246,1.487463 -1.885755,2.775394 0.141035,0.27069 0.256569,0.51779 0.256569,0.54863 0,0.0308 -0.200138,0.27759 -0.444731,0.54829 -1.25786,1.39226 -2.992328,1.34677 -3.9116854,-0.10304 -1.5115854,-2.383646 0.05936,-5.648223 3.5715464,-7.421719 0.331954,-0.167571 1.536225,-0.633668 2.675967,-1.035839 5.162307,-1.820881 7.700341,-3.195652 9.831207,-5.324968 0.939087,-0.938483 1.497887,-1.668817 2.970272,-3.882478 0.997241,-1.49961 2.129659,-3.292577 2.516494,-3.984572 0.597139,-1.068319 1.933141,-3.315063 2.071592,-3.48384 0.02352,-0.02886 0.09477,-8.62e-4 0.15818,0.06289 0.0734,0.07332 -0.327474,0.862323 -1.100283,2.165327 -2.13009,3.59231 -3.345562,6.260351 -4.703275,10.32565 -1.370981,4.10424 -2.426204,8.588252 -3.494523,14.847739 -0.85948,5.03506 -1.480053,6.93236 -2.71827,8.30955 -0.464115,0.51624 -0.692856,0.66313 -1.347116,0.86542 -1.599721,0.4941 -3.012487,0.23503 -4.090456,-0.75024 -0.669767,-0.61213 -1.07099,-1.30627 -1.176357,-2.03549 -0.07875,-0.54415 -0.03291,-0.60851 0.674764,-0.94667 1.513481,-0.72335 1.590676,-2.53588 0.142931,-3.35598 -0.525975,-0.29784 -1.380199,-0.36228 -1.950716,-0.14724 -0.518566,0.1954 -1.115274,0.83716 -1.252432,1.34677 -0.185405,0.68846 0.03067,1.32118 0.625053,1.83001 0.427155,0.36556 0.481605,0.46688 0.414318,0.77324 -0.121823,0.55501 0.24623,2.04601 0.686137,2.77849 0.999481,1.66426 2.752472,2.49065 5.284905,2.49134 1.160247,8.6e-4 1.50185,-0.0444 2.076933,-0.27285 1.392262,-0.55294 2.487892,-1.92599 3.225894,-4.04221 0.522097,-1.49754 0.762297,-2.48953 1.710516,-7.06702 1.503832,-7.258196 1.908673,-8.559133 4.206162,-13.512774 1.438785,-3.102002 5.9682,-11.931401 6.298259,-12.277399 0.0591,-0.06203 0.142672,-0.07737 0.185663,-0.03463 0.04308,0.04308 -0.221935,0.745755 -0.588954,1.5619 -2.336862,5.196941 -4.169374,10.830085 -4.995598,15.357346 -0.289049,1.582749 -0.317911,2.077881 -0.412337,7.041947 -0.107521,5.65658 -0.221073,7.48607 -0.598172,9.63736 -0.835874,4.7666 -2.591794,7.39759 -5.558275,8.32686 l -0.668475,0.20961 -0.465064,-0.31584 c -1.211939,-0.82235 -2.523301,-0.61222 -3.299469,0.52813 -0.640819,0.94115 -0.136555,2.20237 1.08443,2.71249 0.902127,0.37676 1.962778,0.0855 2.565259,-0.70457 0.182303,-0.23917 0.380631,-0.40424 0.440509,-0.36719 0.201947,0.12501 1.487462,-0.21281 2.392346,-0.62859 3.097264,-1.42241 5.388033,-4.75617 6.526137,-9.49675 0.7293,-3.03816 0.994312,-6.11441 0.943395,-10.95441 -0.03024,-2.896177 -0.0078,-3.333499 0.236495,-4.610571 0.885843,-4.628062 3.192723,-11.389144 5.708701,-16.731429 0.398207,-0.846039 0.64685,-1.237871 0.785215,-1.237871 0.142672,0 0.178685,0.06186 0.121909,0.209959 -0.871542,2.27104 -1.941154,6.073653 -2.299471,8.174881 -0.588437,3.451361 -0.509433,7.335476 0.198586,9.747034 0.254416,0.866286 0.187646,3.448857 -0.127422,4.930977 -0.254329,1.19549 -1.162573,3.99397 -2.723956,8.392 -1.139138,3.20857 -1.517013,5.29679 -1.213145,6.70154 0.437838,2.02326 2.592311,3.12475 5.852924,2.99173 2.035579,-0.0829 3.161191,-0.61204 3.929175,-1.84699 0.343585,-0.55251 0.362108,-0.64797 0.359093,-1.85965 -0.0022,-1.0535 -0.0529,-1.40449 -0.288188,-2.0018 -0.334539,-0.84897 -0.344447,-1.0392 -0.09089,-1.70595 0.610579,-1.60524 -1.389246,-3.03369 -3.062716,-2.18825 -0.698026,0.35272 -1.083052,0.92996 -1.083052,1.62367 0,1.01206 0.716808,1.799 1.773841,1.94745 0.560523,0.0788 0.592486,0.10536 0.92289,0.76565 1.115101,2.22995 0.06599,3.67235 -2.497886,3.43387 -2.25579,-0.20961 -3.214003,-1.44481 -2.857323,-3.68285 0.195399,-1.22469 0.666149,-2.66882 1.93271,-5.92918 1.838199,-4.73179 2.380371,-6.70017 2.493923,-9.055894 0.05428,-1.127766 0.01671,-1.660892 -0.201086,-2.83768 -0.56552,-3.056254 -0.446109,-6.890917 0.321271,-10.32384 0.580942,-2.598945 2.142239,-6.762116 2.536052,-6.762116 0.09012,0 0.163953,0.02559 0.163953,0.05712 0,0.03145 0.131644,0.808046 0.292581,1.726025 0.550788,3.139738 0.723959,5.443258 0.723787,9.627623 0,2.699143 -0.06255,4.537341 -0.20703,6.097776 -0.231498,2.498575 -0.170587,3.760656 0.282415,5.851886 0.629274,2.90445 2.359262,6.73541 5.31842,11.77736 1.963726,3.34591 2.836129,5.12604 3.07607,6.27715 0.162919,0.78134 0.162919,0.94236 -0.0012,1.50547 -0.336521,1.15783 -1.288875,2.06849 -2.602908,2.48858 -1.458083,0.4661 -3.149818,0.35263 -6.860332,-0.4605 -0.251314,-0.0553 -0.271646,-0.10821 -0.200999,-0.52614 0.262772,-1.55561 -1.599463,-2.79581 -3.070901,-2.04497 -0.533039,0.2719 -1.063408,0.85491 -1.172308,1.28879 -0.196346,0.78323 0.303179,1.77074 1.082621,2.14086 0.470233,0.22322 1.54286,0.26346 1.901608,0.0713 0.183251,-0.098 0.310933,-0.0742 0.56552,0.10537 0.482811,0.34048 1.556472,0.86508 2.318511,1.13268 1.651932,0.58033 3.419483,0.71284 5.269571,0.39458 h 3.44e-4 c 2.561295,-0.44016 4.004302,-1.25949 4.823892,-2.73929 0.337296,-0.60859 0.353579,-0.70612 0.348582,-2.08744 -0.006,-1.66537 0.06462,-1.41862 -1.711464,-5.97707 -2.510723,-6.44429 -3.615744,-9.74962 -4.622376,-13.8256 -1.129748,-4.574133 -1.122338,-4.502107 -1.137157,-11.229589 -0.01172,-5.388722 -0.03739,-6.112767 -0.28836,-8.113539 -0.151202,-1.208148 -0.346773,-2.608508 -0.434479,-3.112513 -0.29327,-1.687169 0.263117,-1.235632 1.540534,1.250622 1.884636,3.667781 3.113892,7.739455 3.467471,11.484689 0.153269,1.62195 0.09494,3.067369 -0.202378,5.011193 -0.990435,6.478577 1.68312,12.734447 5.981209,13.995067 0.833289,0.24468 2.402684,0.24744 3.333501,0.006 1.690098,-0.43801 3.29361,-1.56758 3.738858,-2.63332 0.491685,-1.17661 0.280434,-2.60454 -0.645471,-4.36365 l -0.576548,-1.09485 0.217885,-0.35849 c 0.683983,-1.1257 0.120272,-2.44353 -1.216074,-2.84423 -1.409579,-0.42216 -2.910739,0.67752 -2.759193,2.02162 0.111312,0.9882 0.98001,1.72939 2.051517,1.75101 0.454208,0.009 0.558197,0.0653 0.829326,0.44835 0.418454,0.59128 0.589385,1.1381 0.586283,1.8749 -0.0088,2.00577 -2.25467,3.48574 -4.440244,2.92599 -1.882396,-0.48247 -3.118544,-2.00732 -3.857408,-4.75885 -0.295683,-1.1014 -0.315671,-1.34849 -0.324114,-4.01145 -0.0061,-1.947959 0.04773,-3.215812 0.171879,-4.04488 0.240544,-1.602306 0.21711,-4.698106 -0.04738,-6.278959 -0.528732,-3.160588 -1.570171,-6.21555 -3.28086,-9.624264 -0.623502,-1.242351 -1.086412,-2.287753 -1.028774,-2.323421 0.143189,-0.08831 0.34057,0.235461 1.25157,2.052982 2.66425,5.315318 5.821909,10.637615 7.8823,13.285582 1.2657,1.626688 2.117081,2.386832 3.417932,3.052291 2.086496,1.067286 3.510979,1.404151 7.744194,1.830961 4.509685,0.454639 5.492367,0.670285 6.698361,1.469288 1.107089,0.73309 1.61006,1.84095 1.38287,3.04531 -0.295252,1.56483 -1.977338,3.09942 -3.609023,3.29283 -1.245367,0.1475 -2.290855,-0.45343 -3.148268,-1.80899 l -0.447746,-0.70836 0.486171,-0.45378 c 0.433962,-0.40467 0.49203,-0.52684 0.542948,-1.13828 0.04859,-0.58697 0.01301,-0.75152 -0.249332,-1.14775 -0.831566,-1.256481 -2.917028,-1.237872 -3.702674,0.033 -0.324545,0.52502 -0.330059,1.41776 -0.01206,1.93228 0.255965,0.41449 0.93228,0.84242 1.530798,0.96881 0.342809,0.0726 0.384767,0.1325 0.453949,0.64711 0.223572,1.66063 1.56078,3.16851 3.344097,3.77125 0.632376,0.21366 0.977685,0.25312 1.878088,0.21426 0.977598,-0.0419 1.205909,-0.0984 2.00956,-0.49539 1.4586,-0.72094 2.62169,-2.14318 3.22865,-3.94924 0.37374,-1.11123 0.303696,-2.69251 -0.157405,-3.56207 -1.190142,-2.244593 -3.432922,-3.179028 -10.289464,-4.287495 -5.649771,-0.913154 -6.630643,-1.343842 -8.613667,-3.782797 -1.823466,-2.242264 -3.498487,-5.10872 -6.548366,-11.205462 -0.933918,-1.866715 -1.834235,-3.609885 -2.000772,-3.873777 -0.190661,-0.302059 -0.253898,-0.517618 -0.20927,-0.56552"
       id="path14"
       inkscape:connector-curvature="0"
       style="fill:#34aacd;stroke:#010202;stroke-width:0.01761004;stroke-miterlimit:10" />
    <path
       style="fill:#010202;stroke-width:0.08615477"
       inkscape:connector-curvature="0"
       id="path16"
       d="m 40.731666,75.407652 c -0.750839,-0.177134 -1.281208,-0.95425 -1.14336,-1.674935 0.06737,-0.35332 0.267855,-0.230377 0.267855,0.164211 0,0.989488 1.029119,1.559229 1.953474,1.081071 0.356077,-0.184027 0.727232,-0.735676 0.727232,-1.081071 0,-0.193159 0.21823,-0.383991 0.321013,-0.281295 0.03386,0.03386 -0.0068,0.288705 -0.08995,0.566468 -0.15258,0.509002 -0.825449,1.127507 -1.124406,1.20565 -0.145774,0.03825 -0.178943,0.05712 -0.345825,0.06703 -0.09279,0.0054 -0.34393,0.0054 -0.566209,-0.04721 h 1.72e-4 z" />
    <path
       style="fill:#ffffff;stroke:#010202;stroke-width:0.0175928;stroke-miterlimit:10"
       inkscape:connector-curvature="0"
       id="path18"
       d="m 47.854856,70.213554 v -1.927455 l -0.513138,-0.135435 c -1.973202,-0.520117 -3.305155,-2.557935 -2.982678,-4.563532 0.444559,-2.763242 3.38192,-4.25932 5.878943,-2.993965 0.719307,0.364521 1.540017,1.235115 1.872057,1.985437 0.298354,0.674333 0.410183,1.951492 0.229344,2.619277 -0.343499,1.268026 -1.479019,2.491079 -2.650293,2.854394 l -0.566209,0.176014 -0.03351,1.973117 -0.0048,1.956316 0.637976,-0.06126 c 0.366417,-0.04299 1.089686,-0.232704 1.607218,-0.421469 2.790122,-1.018436 4.87524,-3.295075 5.655543,-6.175229 0.289136,-1.067803 0.289739,-3.276552 0.0013,-4.346853 -0.689669,-2.555781 -2.481861,-4.723694 -4.844483,-5.860161 -1.211681,-0.582751 -2.306449,-0.818126 -3.803733,-0.817695 -1.568017,4.3e-4 -2.468334,0.217971 -3.984658,0.962176 -0.970189,0.476436 -1.315497,0.732316 -2.23856,1.660289 -1.815367,1.824241 -2.593344,3.692852 -2.589467,6.217962 0.0043,2.623154 0.945376,4.760568 2.887821,6.558962 1.335744,1.236752 3.547509,2.23856 4.989051,2.259582 l 0.452829,0.0069 v -1.927368 z"
       stroke-miterlimit="10" />
    <path
       style="fill:#ffffff;stroke:#010202;stroke-width:0.0175928;stroke-miterlimit:10"
       inkscape:connector-curvature="0"
       id="path20"
       d="m 36.26299,68.157642 v -1.930211 l -0.451106,-0.188593 c -1.021106,-0.426466 -1.531142,-1.275694 -1.457997,-2.426549 0.0398,-0.625742 0.113552,-0.840871 0.416731,-1.217367 0.202549,-0.251486 0.58051,-0.581717 0.839836,-0.734039 1.011026,-0.592831 2.674675,-0.117601 3.178077,0.907813 0.252606,0.514603 0.372017,0.496252 0.374429,-0.05747 0.0061,-1.293786 0.817609,-3.464283 1.747477,-4.673379 l 0.459894,-0.598345 -0.520547,-0.448608 c -0.633323,-0.545187 -1.554059,-1.008442 -2.489528,-1.252001 -1.943307,-0.506246 -3.945716,0.103989 -5.543801,1.689409 -2.360813,2.342031 -2.906517,6.051683 -1.356162,9.218129 0.26751,0.546135 0.684499,1.095544 1.300161,1.713102 1.136813,1.140258 1.707416,1.455757 3.472468,1.92039 0.01663,0.0045 0.03007,-0.860514 0.03007,-1.922286 z"
       stroke-miterlimit="10" />
    <path
       style="fill:#ffffff;stroke:#010202;stroke-width:0.0175928;stroke-miterlimit:10"
       inkscape:connector-curvature="0"
       id="path22"
       d="m 39.058885,69.729881 c 0.326096,-0.123891 0.862409,-0.39838 1.192037,-0.60989 l 0.599551,-0.384767 -0.225467,-0.319893 c -0.561642,-0.796414 -1.21685,-2.466008 -1.404667,-3.579386 l -0.08133,-0.482294 -0.229602,0.471869 c -0.311622,0.64082 -0.533557,0.86508 -1.152924,1.164813 l -0.527353,0.25519 v 1.936932 1.936845 l 0.618505,-0.0821 c 0.340225,-0.04514 0.88524,-0.183424 1.21125,-0.307314 z"
       stroke-miterlimit="10" />
    <path
       style="stroke:#000000;stroke-width:0.0703626;stroke-miterlimit:10"
       inkscape:connector-curvature="0"
       id="path24"
       d="m 31.980323,25.622602 c 0.04575,-0.215818 0.238821,-0.88145 0.429137,-1.479192 1.066424,-3.349094 3.443003,-5.285595 6.874892,-5.6023 1.994741,-0.184112 3.377698,0.14655 5.732911,1.370723 1.814764,0.943222 2.561381,1.222191 3.694919,1.379854 2.347718,0.326527 4.197805,-0.51779 4.790464,-2.186349 l 0.204704,-0.576462 h 1.254844 1.255017 l -0.08124,0.507969 c -0.04472,0.279572 -0.217627,0.918065 -0.384337,1.418797 -1.192037,3.581023 -3.959759,5.559481 -7.777363,5.559481 -1.612301,0 -2.498316,-0.250883 -4.698881,-1.331005 -2.481344,-1.218056 -3.249586,-1.458687 -4.6577,-1.458945 -2.108121,-3.45e-4 -3.299469,0.699318 -3.980953,2.33712 l -0.18842,0.45283 h -1.275694 -1.275866 z"
       stroke-miterlimit="10" />
    <path
       style="fill:#15738d;stroke:#000000;stroke-width:0.0703626;stroke-miterlimit:10"
       inkscape:connector-curvature="0"
       id="path26"
       d="m 34.504141,25.11515 c 0.70397,-1.438957 2.143961,-2.239593 4.027908,-2.239593 1.363054,0 2.294129,0.278194 4.432576,1.324371 1.062547,0.519772 2.339447,1.072885 2.837508,1.229256 1.69587,0.532092 4.320661,0.304213 5.955621,-0.516756 1.364174,-0.684758 2.557849,-1.972686 3.287062,-3.546131 0.445507,-0.961401 0.853019,-2.321181 0.731713,-2.442401 -0.04471,-0.04463 -0.457913,-0.09537 -0.918324,-0.112949 l -0.837252,-0.0317 -0.368053,0.771085 c -0.548289,1.14896 -1.33919,1.723268 -2.757211,2.002237 -1.707501,0.335918 -3.706895,-0.08658 -5.696984,-1.203668 -2.706725,-1.519426 -4.854822,-1.893251 -7.285851,-1.267681 -1.760486,0.452915 -3.40699,1.651586 -4.296193,3.127418 -0.426983,0.708623 -1.132246,2.485048 -1.259669,3.172391 l -0.07263,0.392521 h 0.948737 0.948822 z"
       stroke-miterlimit="10" />
    <path
       style="fill:#15738d;stroke:#010202;stroke-width:0.01761004;stroke-miterlimit:10"
       inkscape:connector-curvature="0"
       id="path28"
       d="m 50.02432,40.946864 1.470834,-0.552079 -0.0024,-0.0049 c -0.150857,-0.308262 -0.233134,-0.649607 -0.233134,-1.015937 0,-0.250538 0.02705,-0.451882 0.10037,-0.678038 l 0.01258,-0.04006 -1.672954,-0.525544 -0.03412,-0.01077 c -0.200999,0.185836 -0.46782,0.301542 -0.761436,0.308262 l -0.0024,0.02007 -0.144223,1.233219 h 8.6e-5 c 0.598775,0.194452 1.072196,0.667183 1.26682,1.265786"
       stroke-miterlimit="10" />
    <path
       d="M 55.769206,57.734121 54.995277,56.942704 C 53.672543,55.589901 52.376,54.84785 50.511525,54.376584 c -1.445505,-0.365813 -3.616864,-0.285345 -5.011192,0.185233 -1.183767,0.399413 -2.363312,1.083051 -3.220035,1.86594 l -0.645816,0.59016 -0.481088,-0.415783 c -1.629273,-1.408458 -3.88894,-1.894544 -5.916679,-1.273023 -3.122938,0.957179 -5.230284,4.348317 -4.969666,7.996627 0.08814,1.231755 0.315499,2.058668 0.889807,3.234164 0.236236,0.483501 0.408632,0.895579 0.38313,0.915395 -0.02567,0.01973 -0.367795,0.262772 -0.760488,0.539673 h -8.6e-5 c -0.392608,0.276815 -0.745842,0.501679 -0.78487,0.499612 -0.132851,-0.0064 -4.236661,-3.951747 -4.236661,-4.07314 0,-0.03058 0.714998,-1.068319 1.589125,-2.306104 0.873867,-1.237872 1.589814,-2.30981 1.589814,-2.382094 10e-4,-0.16309 -1.839663,-4.787706 -1.950975,-4.901689 -0.04437,-0.04549 -1.222019,-0.284052 -2.616607,-0.530024 -1.394587,-0.246058 -2.64969,-0.489704 -2.788916,-0.541224 -0.246058,-0.09124 -0.253726,-0.171965 -0.279227,-2.991639 l -0.02645,-2.897901 0.641767,-0.128543 c 0.352976,-0.07073 1.701212,-0.324459 2.996204,-0.563625 1.294907,-0.239338 2.360297,-0.444128 2.367361,-0.455069 0.118721,-0.187042 1.738173,-4.496676 1.738173,-4.625822 0,-0.09968 -0.733694,-1.205822 -1.630135,-2.458082 -0.896526,-1.25226 -1.630134,-2.32213 -1.630134,-2.377441 0,-0.124666 4.013348,-4.142924 4.137927,-4.142924 0.04963,0 1.182647,0.746962 2.517615,1.660288 1.33514,0.913155 2.489442,1.642282 2.565,1.619968 0.07573,-0.02197 1.095544,-0.449038 2.266387,-0.948994 l 2.128885,-0.908847 0.592917,-2.975183 0.592831,-2.975269 2.859993,-0.03231 2.859908,-0.03231 0.06522,0.2738 c 0.03593,0.150685 0.308434,1.491684 0.605927,2.980008 0.297406,1.488409 0.557852,2.723093 0.578529,2.744029 0.02076,0.02068 1.03782,0.44542 2.260184,0.943912 l 2.222449,0.906348 2.523387,-1.703538 2.523473,-1.703453 2.039111,2.036613 c 1.121735,1.12027 2.039283,2.08193 2.039283,2.137241 0,0.05531 -0.698026,1.169896 -1.551044,2.476692 -0.853277,1.306881 -1.588522,2.442057 -1.634528,2.522611 -0.04584,0.08064 0.196433,0.759799 0.538209,1.509346 0.341776,0.749632 0.787885,1.752646 0.991296,2.228996 l 0.369518,0.866028 0.975358,0.178082 c 0.536486,0.09787 1.824155,0.327043 2.861803,0.509174 l 1.886445,0.331007 0.08814,2.949164 c 0.04851,1.622208 0.06703,2.970444 0.04127,2.996118 -0.02585,0.02602 -0.887308,0.187645 -1.914273,0.359524 -1.026965,0.172051 -2.2968,0.40553 -2.822,0.518996 l -0.954681,0.206255 -0.328077,0.784956 c -0.180667,0.431635 -0.643318,1.507019 -1.028257,2.389589 l -0.699663,1.604891 1.590159,2.341514 c 0.874729,1.287841 1.588435,2.385798 1.586109,2.440248 -0.0025,0.05428 -0.891616,1.021278 -1.975874,2.14913 l -1.971565,2.050312 -0.438959,-0.236409 c -0.24167,-0.129917 -0.439223,-0.243728 -0.439223,-0.25243 0,-0.0088 0.190144,-0.427327 0.422417,-0.93004 0.588265,-1.273109 0.811664,-2.327988 0.811664,-3.828977 0,-1.592571 -0.238993,-2.632631 -0.934693,-4.066246 l -0.529594,-1.091495 -0.0076,-0.01646 c 1.974236,-3.351334 1.962433,-8.722481 0.688463,-13.368118 v 0 c 0.460928,-0.259671 0.772119,-0.753682 0.772119,-1.320408 0,-0.836477 -0.677952,-1.514429 -1.514515,-1.514429 -0.182993,0 -0.358404,0.03239 -0.520806,0.09176 l -0.01577,-0.02387 -0.529679,-0.729817 -0.01499,-0.0205 c 0.589987,-0.421641 0.974496,-1.112344 0.974496,-1.892734 0,-1.283965 -1.040663,-2.324456 -2.324542,-2.324456 -0.872403,0 -1.63246,0.480485 -2.030064,1.191176 l -0.02025,-0.006 -1.552767,-0.465925 -0.04885,-0.01465 c 0.06867,-0.148445 0.107004,-0.313862 0.107004,-0.488239 0,-0.641853 -0.520461,-1.162228 -1.162228,-1.162228 -0.641853,0 -1.162228,0.520461 -1.162228,1.162228 0,0.515636 0.314293,0.945548 0.779098,1.097612 l 0.02137,0.0071 -0.157921,1.225552 h 8.6e-5 c -0.06875,-0.0072 -0.138365,-0.01085 -0.209012,-0.01085 -1.08934,0 -1.972341,0.883 -1.972341,1.972427 0,1.089341 0.883087,1.972341 1.972341,1.972341 1.089255,0 1.972428,-0.883 1.972428,-1.972341 0,-0.05436 -0.0022,-0.108211 -0.0066,-0.16154 l 1.612903,-0.623675 8.6e-5,8.6e-5 c 0.42414,0.562505 1.098129,0.925992 1.85698,0.925992 0.312828,0 0.611268,-0.06177 0.88369,-0.17386 l 0.01172,0.0162 0.549495,0.754199 0.0086,0.01189 c -0.328163,0.277763 -0.536658,0.692857 -0.536658,1.156542 0,0.836648 0.678038,1.514514 1.514515,1.514514 0.09055,0 0.179288,-0.0079 0.265615,-0.02309 v -8.6e-5 c 1.351682,3.917026 1.32799,9.329183 -0.484879,12.806562 l -0.02697,-0.0274"
       id="path31"
       inkscape:connector-curvature="0"
       style="fill:#34aacd;stroke-width:0.08615477" />
    <path
       d="m 49.997612,42.245217 c 2.776251,3.686476 4.107256,8.443426 3.154556,13.1996"
       id="path33"
       inkscape:connector-curvature="0"
       style="fill:none;stroke-width:0.08615477" />
    <path
       d="m 37.390239,35.408233 c 3.891784,0.203325 7.452905,1.80253 10.218473,4.251565"
       id="path35"
       inkscape:connector-curvature="0"
       style="fill:none;stroke-width:0.08615477" />
    <path
       d="m 37.40928,35.430288 c -0.01146,-0.0149 -0.01732,-0.02257 -0.01732,-0.02257 3.891783,0.203239 7.452904,1.80253 10.218386,4.251565 v 8.6e-5 c 0.171534,-0.04868 0.352459,-0.07478 0.539501,-0.07478 0.07073,0 0.140346,0.0037 0.209012,0.01094 l 0.158008,-1.225552 -0.02145,-0.0072 c -0.464719,-0.152149 -0.779184,-0.582061 -0.779184,-1.097612 0,-0.641853 0.520375,-1.162227 1.162314,-1.162227 0.641853,0 1.162228,0.520461 1.162228,1.162227 0,0.174292 -0.03834,0.339795 -0.107263,0.48824 l 0.04902,0.01456 1.552767,0.465839 0.02016,0.0059 c 0.397777,-0.710691 1.15792,-1.19109 2.030151,-1.19109 1.283879,0 2.324628,1.040578 2.324628,2.32437 0,0.780562 -0.384509,1.471093 -0.974496,1.892734 l 0.01499,0.02068 0.529766,0.729731 0.01568,0.02387 c 0.162488,-0.05945 0.337899,-0.09184 0.520892,-0.09184 0.836563,0 1.514515,0.677952 1.514515,1.514515 0,0.566812 -0.311364,1.060737 -0.772205,1.320494 1.27397,4.645637 1.285773,10.016784 -0.688377,13.368119 l 0.0076,0.01646 0.529593,1.091495 c 0.695614,1.433788 0.934693,2.473676 0.934693,4.066419 0,1.500902 -0.223572,2.555867 -0.81175,3.828718 -0.232187,0.502972 -0.422331,0.921425 -0.422331,0.930127 0,0.0088 0.197467,0.122426 0.439131,0.25252 l 0.438959,0.236408 1.971651,-2.050483 c 1.084344,-1.127508 1.973375,-2.094767 1.975874,-2.149045 0.0022,-0.05428 -0.711294,-1.152406 -1.586023,-2.440161 l -1.590245,-2.341515 0.699749,-1.604805 c 0.38494,-0.882741 0.847591,-1.957953 1.028085,-2.389761 l 0.328163,-0.784697 0.954768,-0.206427 c 0.525113,-0.113294 1.794948,-0.346945 2.821999,-0.51891 1.026965,-0.171965 1.888254,-0.333764 1.914359,-0.35961 0.02567,-0.02567 0.0072,-1.373997 -0.04127,-2.996119 l -0.08822,-2.949077 -1.886444,-0.331093 C 62.651782,47.2696 61.364113,47.0406 60.827627,46.942642 L 59.852355,46.76456 59.482665,45.898533 C 59.279323,45.422088 58.8333,44.41916 58.491524,43.669527 c -0.341776,-0.749632 -0.584129,-1.42879 -0.538295,-1.509431 0.04601,-0.08056 0.781338,-1.21573 1.634528,-2.522612 0.853019,-1.306795 1.551045,-2.421293 1.551045,-2.476691 0,-0.05531 -0.917635,-1.016971 -2.039284,-2.137155 l -2.039197,-2.036613 -2.523473,1.703452 -2.523387,1.703366 -2.222276,-0.906262 c -1.22245,-0.498577 -2.239507,-0.92332 -2.260271,-0.944084 -0.02076,-0.02085 -0.281123,-1.255619 -0.578529,-2.743943 -0.297578,-1.488324 -0.570086,-2.829409 -0.606013,-2.980007 l -0.06522,-0.2738 -2.859993,0.03231 -2.859994,0.03231 -0.592831,2.975355 -0.592831,2.975096 -1.983369,0.846816"
       id="path38"
       inkscape:connector-curvature="0"
       style="fill:#15738d;stroke-width:0.08615477" />
    <path
       d="m 53.153719,55.4443 c 0.9527,-4.75626 -0.378391,-9.513296 -3.154643,-13.1996 0.07969,-0.214181 0.123288,-0.445851 0.123288,-0.687688 0,-0.05436 -0.0022,-0.108124 -0.0066,-0.161454 l 1.612903,-0.62376 v 8.6e-5 c 0.424399,0.562505 1.098215,0.926078 1.857066,0.926078 0.312828,0 0.611268,-0.06177 0.883776,-0.173775 l 0.0118,0.01611 0.549323,0.754199 0.0087,0.01189 c -0.328164,0.277849 -0.536658,0.692856 -0.536658,1.156627 0,0.836563 0.677951,1.514515 1.514514,1.514515 0.09063,0 0.179374,-0.0079 0.265615,-0.02317 v -8.7e-5 c 1.351596,3.917027 1.328076,9.32927 -0.484793,12.806562 L 55.77079,57.733603 54.996947,56.9421 C 54.39564,56.3273 53.79988,55.83863 53.153719,55.4443 Z"
       id="path40"
       inkscape:connector-curvature="0"
       style="fill:#15738d;stroke-width:0.08615477" />
    <path
       style="fill:none;stroke:#010202;stroke-width:0.01059704;stroke-miterlimit:10"
       inkscape:connector-curvature="0"
       id="path42"
       d="M 39.481647,73.526549"
       stroke-miterlimit="10" />
    <path
       style="fill:none;stroke:#010202;stroke-width:0.01059704;stroke-miterlimit:10"
       inkscape:connector-curvature="0"
       id="path44"
       d="M 43.154252,73.432382"
       stroke-miterlimit="10" />
    <path
       style="fill:none;stroke:#010202;stroke-width:0.01059704;stroke-miterlimit:10"
       inkscape:connector-curvature="0"
       id="path46"
       d="M 39.481647,73.424283"
       stroke-miterlimit="10" />
    <path
       style="fill:none;stroke:#010202;stroke-width:0.01059704;stroke-miterlimit:10"
       inkscape:connector-curvature="0"
       id="path48"
       d="M 43.095322,74.871597"
       stroke-miterlimit="10" />
    <path
       style="fill:none;stroke:#010202;stroke-width:0.01059704;stroke-miterlimit:10"
       inkscape:connector-curvature="0"
       id="path50"
       d="M 39.42263,74.863499"
       stroke-miterlimit="10" />
    <flowRoot
       xml:space="preserve"
       id="flowRoot87"
       style="font-style:normal;font-weight:normal;font-size:40px;font-family:sans-serif;fill:#15738d;fill-opacity:1;stroke:none"
       transform="matrix(1.0761836,0,0,1.0761836,-310.85205,-82.140112)"><flowRegion
         id="flowRegion89"
         style="fill:#15738d;fill-opacity:1"><rect
           id="rect91"
           width="787.9032"
           height="260.0769"
           x="358.51422"
           y="112.80777"
           style="fill:#15738d;fill-opacity:1;" /></flowRegion><flowPara
         id="flowPara93"
         style="font-style:normal;font-variant:normal;font-weight:normal;font-stretch:normal;font-size:40px;font-family:Geneva;-inkscape-font-specification:'Geneva, Normal';font-variant-ligatures:normal;font-variant-caps:normal;font-variant-numeric:normal;font-feature-settings:normal;text-align:start;writing-mode:lr-tb;text-anchor:start;fill:#15738d;fill-opacity:1">OSHWDem</flowPara></flowRoot>    <flowRoot
       xml:space="preserve"
       id="flowRoot95"
       style="font-style:normal;font-weight:normal;font-size:40px;font-family:sans-serif;fill:#34aacd;fill-opacity:1;stroke:none"
       transform="matrix(0.35158757,0,0,0.35158757,-49.863024,-8.8128614)"><flowRegion
         id="flowRegion97"
         style="fill:#34aacd;fill-opacity:1"><rect
           id="rect99"
           width="554.53046"
           height="247.75865"
           x="328.20529"
           y="343.95502"
           style="fill:#34aacd;fill-opacity:1;" /></flowRegion><flowPara
         id="flowPara101"
         style="font-style:normal;font-variant:normal;font-weight:normal;font-stretch:normal;font-size:40px;font-family:Geneva;-inkscape-font-specification:'Geneva, Normal';font-variant-ligatures:normal;font-variant-caps:normal;font-variant-numeric:normal;font-feature-settings:normal;text-align:start;writing-mode:lr-tb;text-anchor:start;fill:#34aacd;fill-opacity:1">Feria de tecnología abierta</flowPara></flowRoot>    <flowRoot
       xml:space="preserve"
       id="flowRoot103"
       style="font-style:normal;font-weight:normal;font-size:40px;font-family:sans-serif;fill:#15738d;fill-opacity:1;stroke:none"
       transform="matrix(0.43371765,0,0,0.43371765,-66.068592,-47.681508)"><flowRegion
         id="flowRegion105"
         style="fill:#15738d;fill-opacity:1"><rect
           id="rect107"
           width="525.35333"
           height="84.919281"
           x="364.67444"
           y="312.91388"
           style="fill:#15738d;fill-opacity:1;" /></flowRegion><flowPara
         id="flowPara109"
         style="font-style:normal;font-variant:normal;font-weight:normal;font-stretch:normal;font-size:40px;font-family:Geneva;-inkscape-font-specification:'Geneva, Normal';font-variant-ligatures:normal;font-variant-caps:normal;font-variant-numeric:normal;font-feature-settings:normal;text-align:start;writing-mode:lr-tb;text-anchor:start;fill:#15738d;fill-opacity:1">CORUÑA</flowPara></flowRoot>    <flowRoot
       xml:space="preserve"
       id="flowRoot111"
       style="font-style:normal;font-variant:normal;font-weight:bold;font-stretch:normal;font-size:39.99980164px;font-family:sans-serif;-inkscape-font-specification:'sans-serif, Bold';font-variant-ligatures:normal;font-variant-caps:normal;font-variant-numeric:normal;font-feature-settings:normal;text-align:start;writing-mode:lr-tb;text-anchor:start;fill:#15738d;fill-opacity:1;stroke:none"
       transform="matrix(0.20653025,0,0,0.24094567,13.158573,11.258785)"><flowRegion
         id="flowRegion113"
         style="font-style:normal;font-variant:normal;font-weight:bold;font-stretch:normal;font-size:39.99980164px;font-family:sans-serif;-inkscape-font-specification:'sans-serif, Bold';font-variant-ligatures:normal;font-variant-caps:normal;font-variant-numeric:normal;font-feature-settings:normal;text-align:start;writing-mode:lr-tb;text-anchor:start;fill:#15738d;fill-opacity:1"><rect
           id="rect115"
           width="1292.1075"
           height="95.254967"
           x="311.1091"
           y="82.801491"
           style="font-style:normal;font-variant:normal;font-weight:bold;font-stretch:normal;font-size:39.99980164px;font-family:sans-serif;-inkscape-font-specification:'sans-serif, Bold';font-variant-ligatures:normal;font-variant-caps:normal;font-variant-numeric:normal;font-feature-settings:normal;text-align:start;writing-mode:lr-tb;text-anchor:start;fill:#15738d;fill-opacity:1" /></flowRegion><flowPara
         id="flowPara117"
         style="font-style:normal;font-variant:normal;font-weight:bold;font-stretch:normal;font-size:39.99980164px;font-family:sans-serif;-inkscape-font-specification:'sans-serif, Bold';font-variant-ligatures:normal;font-variant-caps:normal;font-variant-numeric:normal;font-feature-settings:normal;text-align:start;writing-mode:lr-tb;text-anchor:start;fill:#15738d;fill-opacity:1">OPEN  SOURCE  HARDWARE  DEMONSTRATION</flowPara><flowPara
         style="font-style:normal;font-variant:normal;font-weight:bold;font-stretch:normal;font-size:39.99980164px;font-family:sans-serif;-inkscape-font-specification:'sans-serif, Bold';font-variant-ligatures:normal;font-variant-caps:normal;font-variant-numeric:normal;font-feature-settings:normal;text-align:start;writing-mode:lr-tb;text-anchor:start;fill:#15738d;fill-opacity:1"
         id="flowPara119" /></flowRoot>    <flowRoot
       xml:space="preserve"
       id="flowRoot853"
       style="font-style:normal;font-variant:normal;font-weight:normal;font-stretch:normal;font-size:12px;line-height:25px;font-family:'DejaVu Sans';-inkscape-font-specification:'DejaVu Sans, Normal';font-variant-ligatures:normal;font-variant-caps:normal;font-variant-numeric:normal;font-feature-settings:normal;text-align:center;letter-spacing:0px;word-spacing:0px;writing-mode:lr-tb;text-anchor:middle;fill:#34aacd;fill-opacity:1;stroke:none;stroke-width:1px;stroke-linecap:butt;stroke-linejoin:miter;stroke-opacity:1"
       transform="matrix(0.84775747,0,0,0.84775747,-539.57663,-169.40388)"><flowRegion
         id="flowRegion855"
         style="fill:#34aacd;fill-opacity:1"><rect
           id="rect857"
           width="345.67343"
           height="70.258827"
           x="772.84711"
           y="245.00958"
           style="fill:#34aacd;fill-opacity:1" /></flowRegion><flowPara
         id="flowPara859"
         style="font-style:normal;font-variant:normal;font-weight:normal;font-stretch:normal;font-size:12px;font-family:'Averia Serif';-inkscape-font-specification:'Averia Serif, Normal';font-variant-ligatures:normal;font-variant-caps:normal;font-variant-numeric:normal;font-feature-settings:normal;text-align:center;writing-mode:lr-tb;text-anchor:middle;fill:#34aacd;fill-opacity:1">By BricoLabs</flowPara></flowRoot>  </g>
</svg>
