<?xml version="1.0" encoding="UTF-8" standalone="no"?>
<!-- Created with Inkscape (http://www.inkscape.org/) -->

<svg
   xmlns:dc="http://purl.org/dc/elements/1.1/"
   xmlns:cc="http://creativecommons.org/ns#"
   xmlns:rdf="http://www.w3.org/1999/02/22-rdf-syntax-ns#"
   xmlns:svg="http://www.w3.org/2000/svg"
   xmlns="http://www.w3.org/2000/svg"
   xmlns:sodipodi="http://sodipodi.sourceforge.net/DTD/sodipodi-0.dtd"
   xmlns:inkscape="http://www.inkscape.org/namespaces/inkscape"
   version="1.1"
   id="svg2"
   xml:space="preserve"
   width="85.681747mm"
   height="38.277874mm"
   viewBox="0 0 323.83652 144.67228"
   sodipodi:docname="Pegatina OSHWDem 2017.svg"
   inkscape:version="0.92+devel unknown"><metadata
     id="metadata8"><rdf:RDF><cc:Work
         rdf:about=""><dc:format>image/svg+xml</dc:format><dc:type
           rdf:resource="http://purl.org/dc/dcmitype/StillImage" /><dc:title></dc:title></cc:Work></rdf:RDF></metadata><defs
     id="defs6"><clipPath
       clipPathUnits="userSpaceOnUse"
       id="clipPath20"><path
         d="M 0,283.464 H 283.464 V 0 H 0 Z"
         id="path18"
         inkscape:connector-curvature="0" /></clipPath><clipPath
       clipPathUnits="userSpaceOnUse"
       id="clipPath176"><path
         d="M 0,283.464 H 283.464 V 0 H 0 Z"
         id="path174"
         inkscape:connector-curvature="0" /></clipPath></defs><sodipodi:namedview
     pagecolor="#ffffff"
     bordercolor="#666666"
     inkscape:document-rotation="0"
     borderopacity="1"
     objecttolerance="10"
     gridtolerance="10"
     guidetolerance="10"
     inkscape:pageopacity="0"
     inkscape:pageshadow="2"
     inkscape:window-width="2560"
     inkscape:window-height="1376"
     id="namedview4"
     showgrid="false"
     fit-margin-top="2"
     fit-margin-left="2"
     fit-margin-right="2"
     fit-margin-bottom="2"
     units="mm"
     inkscape:zoom="2.8284271"
     inkscape:cx="212.31731"
     inkscape:cy="64.182395"
     inkscape:window-x="1680"
     inkscape:window-y="27"
     inkscape:window-maximized="1"
     inkscape:current-layer="g10" /><g
     id="g10"
     inkscape:groupmode="layer"
     inkscape:label="Pegatina OSHWDem 2017"
     transform="matrix(1.3333333,0,0,-1.3333333,-27.924569,262.56265)"><path
       inkscape:connector-curvature="0"
       id="path24"
       style="fill:#1d1d1b;fill-opacity:1;fill-rule:nonzero;stroke:none"
       d="m 65.3047,97.7593 c -0.935,0.137 -1.932,0.472 -2.877,0.966 -0.733,0.383 -0.936,0.451 -1.131,0.376 -0.406,-0.155 -1.339,-0.02 -1.755,0.256 -1.019,0.674 -1.137,1.908 -0.266,2.777 0.778,0.775 2.047,0.778 2.899,0.003 0.352,-0.32 0.506,-0.693 0.506,-1.218 v -0.477 l 0.676,-0.163 c 2.975,-0.713 4.953,-0.534 6.036,0.547 0.435,0.436 0.751,1.063 0.754,1.498 0.007,0.971 -0.595,2.299 -2.637,5.821 -2.758,4.755 -3.818,7.185 -4.45,10.195 -0.167,0.792 -0.164,3.503 0.003,5.771 0.165,2.221 0.1,6.408 -0.132,8.528 -0.176,1.615 -0.431,3.226 -0.542,3.425 -0.15,0.278 -1.254,-2.76 -1.723,-4.745 -0.618,-2.62 -0.757,-5.594 -0.371,-7.919 0.318,-1.904 0.341,-2.266 0.225,-3.356 -0.203,-1.947 -0.721,-3.661 -2.452,-8.127 -1.537,-3.965 -1.572,-5.298 -0.154,-6.037 0.6,-0.313 2.036,-0.362 2.574,-0.087 0.246,0.126 0.443,0.316 0.521,0.502 0.16,0.391 0.086,1.222 -0.155,1.715 -0.166,0.339 -0.251,0.4 -0.722,0.519 -0.676,0.171 -1.156,0.534 -1.39,1.052 -0.378,0.831 -0.104,1.736 0.673,2.23 0.767,0.486 1.635,0.474 2.388,-0.034 0.684,-0.46 0.978,-1.466 0.628,-2.142 -0.141,-0.275 -0.134,-0.337 0.114,-1.003 0.218,-0.585 0.267,-0.884 0.274,-1.693 0.007,-0.892 -0.018,-1.035 -0.271,-1.554 -0.365,-0.745 -1.025,-1.271 -1.964,-1.566 -0.582,-0.183 -0.919,-0.221 -1.932,-0.214 -2.375,0.014 -3.807,0.677 -4.443,2.056 -0.196,0.428 -0.224,0.644 -0.22,1.672 0.004,1.478 0.246,2.411 1.567,6.046 1.427,3.925 1.794,5.308 1.887,7.122 0.047,0.924 0.017,1.275 -0.207,2.403 -0.51,2.567 -0.525,4.991 -0.049,7.763 0.162,0.945 0.681,3.128 0.925,3.888 0.164,0.508 -0.17,-0.201 -0.669,-1.425 -1.381,-3.386 -2.539,-6.989 -3.135,-9.762 -0.296,-1.382 -0.299,-1.425 -0.376,-5.569 -0.044,-2.297 -0.129,-4.531 -0.19,-4.964 -0.62,-4.414 -1.886,-7.383 -4.002,-9.385 -0.972,-0.92 -2.197,-1.585 -3.361,-1.824 -0.549,-0.113 -0.773,-0.209 -0.919,-0.394 -0.691,-0.877 -2.395,-0.847 -3.156,0.057 -0.986,1.171 -0.187,2.813 1.422,2.929 0.514,0.038 0.665,0.003 1.213,-0.275 l 0.627,-0.317 0.492,0.164 c 2.442,0.811 3.987,3.717 4.444,8.357 0.057,0.595 0.142,3.094 0.188,5.554 0.088,4.871 0.134,5.357 0.745,8.009 0.51,2.216 1.472,5.298 2.266,7.264 0.128,0.32 0.218,0.597 0.201,0.615 -0.056,0.056 -2.333,-4.482 -3.203,-6.379 -1.737,-3.788 -2.131,-5.074 -3.305,-10.787 -1.166,-5.672 -1.752,-7.306 -3.028,-8.416 -1.09,-0.952 -2.92,-1.225 -4.8,-0.719 -1.844,0.497 -3.222,2.177 -3.222,3.926 0,0.516 -0.031,0.588 -0.389,0.966 -1.071,1.125 -0.33,2.865 1.29,3.032 0.456,0.047 0.641,0.015 1.094,-0.192 0.75,-0.344 1.103,-0.871 1.097,-1.649 -0.004,-0.747 -0.335,-1.261 -1.02,-1.582 -0.595,-0.279 -0.616,-0.409 -0.203,-1.238 0.644,-1.285 2.083,-1.83 3.634,-1.373 1.174,0.347 2.036,1.775 2.649,4.394 0.106,0.46 0.393,2.011 0.636,3.446 0.99,5.857 2.114,10.194 3.633,14.026 0.394,0.988 0.684,1.761 0.646,1.719 -0.038,-0.041 -0.302,-0.429 -0.592,-0.862 -1.788,-2.687 -2.986,-3.771 -5.695,-5.154 -1.285,-0.656 -2.45,-1.133 -4.57,-1.872 -1.701,-0.593 -2.621,-1.046 -3.405,-1.675 -0.714,-0.573 -1.178,-1.134 -1.526,-1.84 -0.241,-0.492 -0.347,-0.688 -0.347,-1.46 10e-4,-0.726 0.112,-0.947 0.291,-1.285 0.618,-1.16 1.863,-1.312 2.808,-0.343 l 0.365,0.374 -0.173,0.339 c -0.102,0.197 -0.173,0.542 -0.171,0.834 0.018,1.57 2.117,2.381 3.353,1.294 0.813,-0.713 0.845,-1.919 0.07,-2.647 -0.267,-0.25 -0.982,-0.569 -1.276,-0.569 -0.073,0 -0.414,-0.281 -0.757,-0.625 -0.404,-0.403 -0.867,-0.743 -1.303,-0.958 -0.619,-0.305 -0.774,-0.39 -1.585,-0.389 -0.78,0.001 -0.932,0.093 -1.431,0.344 -1.565,0.79 -2.528,2.781 -2.233,4.621 0.128,0.805 0.564,1.973 1.018,2.727 0.499,0.829 1.02,1.411 1.783,1.993 1.127,0.862 1.549,1.065 5.11,2.462 3.358,1.319 4.994,2.548 7.041,5.288 0.516,0.695 1.423,2.065 2.011,3.044 1.022,1.697 3.214,5.933 4.012,7.75 l 0.375,0.855 -0.653,0.645 c -0.36,0.354 -0.678,0.644 -0.704,0.644 -0.028,0 -0.366,-0.222 -0.752,-0.492 l -0.701,-0.492 -0.793,0.758 c -0.438,0.416 -1.292,1.241 -1.899,1.832 l -1.103,1.073 0.179,0.258 c 0.099,0.142 0.713,1.016 1.371,1.942 l 1.19,1.686 -0.749,1.853 c -0.414,1.019 -0.767,1.87 -0.785,1.894 -0.018,0.023 -1.051,0.227 -2.299,0.455 -1.243,0.226 -2.276,0.427 -2.293,0.447 -0.017,0.021 -0.06,1.196 -0.097,2.611 -0.062,2.409 -0.053,2.575 0.11,2.625 0.096,0.028 1.193,0.234 2.435,0.459 1.243,0.222 2.293,0.438 2.334,0.475 0.041,0.037 0.375,0.846 0.745,1.796 l 0.673,1.727 -1.421,1.989 -1.423,1.991 1.868,1.866 1.865,1.867 2.02,-1.387 c 1.111,-0.762 2.074,-1.386 2.139,-1.386 0.065,0 0.856,0.311 1.754,0.691 l 1.634,0.693 0.493,2.477 0.495,2.477 h 2.545 2.547 l 0.482,-2.474 0.485,-2.475 1.72,-0.692 1.721,-0.69 2.091,1.42 2.09,1.419 1.825,-1.866 1.828,-1.866 -1.111,-1.695 c -0.61,-0.932 -1.229,-1.875 -1.374,-2.095 l -0.267,-0.4 0.727,-1.714 0.726,-1.711 2.383,-0.413 c 1.31,-0.228 2.398,-0.428 2.414,-0.446 0.025,-0.024 0.093,-3.987 0.093,-5.286 0,0 -1.035,-0.174 -2.301,-0.388 -1.265,-0.213 -2.331,-0.422 -2.368,-0.465 -0.037,-0.043 -0.412,-0.88 -0.834,-1.86 l -0.765,-1.781 1.34,-1.985 1.341,-1.985 -1.786,-1.859 -1.788,-1.858 -0.444,0.259 -0.443,0.261 -0.251,-0.334 c -0.138,-0.184 -0.442,-0.543 -0.677,-0.797 l -0.427,-0.463 1.547,-2.191 c 5.788,-8.204 9.29,-12.124 12.474,-13.969 0.997,-0.578 2.217,-1.093 3.236,-1.367 1.142,-0.306 3.222,-0.305 4.311,0.005 0.946,0.269 1.857,0.675 2.836,1.266 0.742,0.445 0.75,0.457 0.652,0.739 -0.387,1.112 0.644,2.339 1.962,2.339 1.547,0 2.509,-1.596 1.683,-2.798 -0.386,-0.565 -0.819,-0.782 -1.633,-0.824 l -0.729,-0.037 -0.654,-0.654 c -1.627,-1.627 -4.743,-2.454 -8.204,-2.178 -2.339,0.187 -4.863,0.726 -5.937,1.268 -1.96,0.989 -4.605,3.792 -7.291,7.729 -0.438,0.64 -0.796,1.134 -0.796,1.095 0,-0.114 0.95,-1.969 1.837,-3.587 2.108,-3.841 3.759,-5.949 5.243,-6.699 0.73,-0.368 2.068,-0.696 4.197,-1.028 5.042,-0.789 6.904,-1.381 8.217,-2.608 0.439,-0.411 0.708,-0.766 0.906,-1.199 0.255,-0.552 0.283,-0.721 0.28,-1.6 -0.003,-0.833 -0.045,-1.087 -0.275,-1.67 -1.021,-2.609 -3.217,-3.977 -5.586,-3.477 -1.624,0.341 -2.948,1.618 -3.315,3.192 -0.107,0.467 -0.145,0.511 -0.504,0.619 -0.483,0.145 -1.06,0.64 -1.235,1.061 -0.3,0.713 -0.107,1.436 0.533,2.014 0.45,0.407 0.852,0.518 1.642,0.452 1.509,-0.125 2.237,-1.78 1.278,-2.902 l -0.342,-0.399 0.388,-0.575 c 0.574,-0.854 0.947,-1.066 1.864,-1.066 0.892,0 1.433,0.235 2.119,0.919 0.616,0.616 0.881,1.197 0.882,1.937 0.003,0.708 -0.29,1.237 -0.944,1.71 -0.887,0.644 -1.708,0.826 -5.586,1.233 -3.456,0.364 -4.483,0.612 -6.29,1.521 -1.396,0.702 -2.532,1.939 -4.391,4.78 -0.536,0.818 -1.39,2.22 -1.901,3.115 -0.509,0.896 -0.939,1.617 -0.954,1.6 -0.019,-0.016 0.038,-0.224 0.123,-0.462 0.272,-0.774 0.717,-2.668 0.884,-3.775 0.22,-1.452 0.219,-3.419 -0.003,-5.11 -0.26,-1.982 -0.242,-4.486 0.038,-5.83 0.368,-1.749 0.981,-2.911 1.913,-3.618 1.399,-1.063 3.484,-0.681 4.259,0.78 0.268,0.505 0.224,1.3 -0.105,1.901 -0.262,0.478 -0.299,0.506 -0.735,0.549 -1.338,0.128 -2.177,1.3 -1.731,2.415 0.554,1.384 2.542,1.674 3.518,0.513 0.403,-0.478 0.468,-1.294 0.163,-2.021 -0.113,-0.269 -0.101,-0.338 0.12,-0.688 0.767,-1.223 1.062,-2.833 0.712,-3.888 -0.465,-1.406 -2.679,-2.643 -4.72,-2.643 -2.998,0 -5.542,2.743 -6.385,6.88 -0.27,1.33 -0.293,3.389 -0.058,5.04 0.48,3.343 0.072,6.498 -1.326,10.278 -0.385,1.047 -1.688,3.782 -1.946,4.091 -0.158,0.191 -0.162,0.188 -0.111,-0.099 0.137,-0.753 0.446,-3.486 0.543,-4.814 0.06,-0.825 0.096,-3.185 0.08,-5.357 l -0.027,-3.882 0.266,-1.331 c 0.759,-3.775 2.05,-7.975 3.963,-12.87 1.815,-4.646 1.858,-4.786 1.861,-6.046 0.003,-1.027 -0.014,-1.116 -0.321,-1.739 -0.203,-0.412 -0.494,-0.807 -0.783,-1.062 -1.297,-1.14 -3.979,-1.779 -6.146,-1.463" /><path
       inkscape:connector-curvature="0"
       id="path28"
       style="fill:none;stroke:#000000;stroke-width:0.014;stroke-linecap:butt;stroke-linejoin:miter;stroke-miterlimit:10;stroke-dasharray:none;stroke-opacity:1"
       d="m 65.3047,97.7593 c -0.935,0.137 -1.932,0.472 -2.877,0.966 -0.733,0.383 -0.936,0.451 -1.131,0.376 -0.406,-0.155 -1.339,-0.02 -1.755,0.256 -1.019,0.674 -1.137,1.908 -0.266,2.777 0.778,0.775 2.047,0.778 2.899,0.003 0.352,-0.32 0.506,-0.693 0.506,-1.218 v -0.477 l 0.676,-0.163 c 2.975,-0.713 4.953,-0.534 6.036,0.547 0.435,0.436 0.751,1.063 0.754,1.498 0.007,0.971 -0.595,2.299 -2.637,5.821 -2.758,4.755 -3.818,7.185 -4.45,10.195 -0.167,0.792 -0.164,3.503 0.003,5.771 0.165,2.221 0.1,6.408 -0.132,8.528 -0.176,1.615 -0.431,3.226 -0.542,3.425 -0.15,0.278 -1.254,-2.76 -1.723,-4.745 -0.618,-2.62 -0.757,-5.594 -0.371,-7.919 0.318,-1.904 0.341,-2.266 0.225,-3.356 -0.203,-1.947 -0.721,-3.661 -2.452,-8.127 -1.537,-3.965 -1.572,-5.298 -0.154,-6.037 0.6,-0.313 2.036,-0.362 2.574,-0.087 0.246,0.126 0.443,0.316 0.521,0.502 0.16,0.391 0.086,1.222 -0.155,1.715 -0.166,0.339 -0.251,0.4 -0.722,0.519 -0.676,0.171 -1.156,0.534 -1.39,1.052 -0.378,0.831 -0.104,1.736 0.673,2.23 0.767,0.486 1.635,0.474 2.388,-0.034 0.684,-0.46 0.978,-1.466 0.628,-2.142 -0.141,-0.275 -0.134,-0.337 0.114,-1.003 0.218,-0.585 0.267,-0.884 0.274,-1.693 0.007,-0.892 -0.018,-1.035 -0.271,-1.554 -0.365,-0.745 -1.025,-1.271 -1.964,-1.566 -0.582,-0.183 -0.919,-0.221 -1.932,-0.214 -2.375,0.014 -3.807,0.677 -4.443,2.056 -0.196,0.428 -0.224,0.644 -0.22,1.672 0.004,1.478 0.246,2.411 1.567,6.046 1.427,3.925 1.794,5.308 1.887,7.122 0.047,0.924 0.017,1.275 -0.207,2.403 -0.51,2.567 -0.525,4.991 -0.049,7.763 0.162,0.945 0.681,3.128 0.925,3.888 0.164,0.508 -0.17,-0.201 -0.669,-1.425 -1.381,-3.386 -2.539,-6.989 -3.135,-9.762 -0.296,-1.382 -0.299,-1.425 -0.376,-5.569 -0.044,-2.297 -0.129,-4.531 -0.19,-4.964 -0.62,-4.414 -1.886,-7.383 -4.002,-9.385 -0.972,-0.92 -2.197,-1.585 -3.361,-1.824 -0.549,-0.113 -0.773,-0.209 -0.919,-0.394 -0.691,-0.877 -2.395,-0.847 -3.156,0.057 -0.986,1.171 -0.187,2.813 1.422,2.929 0.514,0.038 0.665,0.003 1.213,-0.275 l 0.627,-0.317 0.492,0.164 c 2.442,0.811 3.987,3.717 4.444,8.357 0.057,0.595 0.142,3.094 0.188,5.554 0.088,4.871 0.134,5.357 0.745,8.009 0.51,2.216 1.472,5.298 2.266,7.264 0.128,0.32 0.218,0.597 0.201,0.615 -0.056,0.056 -2.333,-4.482 -3.203,-6.379 -1.737,-3.788 -2.131,-5.074 -3.305,-10.787 -1.166,-5.672 -1.752,-7.306 -3.028,-8.416 -1.09,-0.952 -2.92,-1.225 -4.8,-0.719 -1.844,0.497 -3.222,2.177 -3.222,3.926 0,0.516 -0.031,0.588 -0.389,0.966 -1.071,1.125 -0.33,2.865 1.29,3.032 0.456,0.047 0.641,0.015 1.094,-0.192 0.75,-0.344 1.103,-0.871 1.097,-1.649 -0.004,-0.747 -0.335,-1.261 -1.02,-1.582 -0.595,-0.279 -0.616,-0.409 -0.203,-1.238 0.644,-1.285 2.083,-1.83 3.634,-1.373 1.174,0.347 2.036,1.775 2.649,4.394 0.106,0.46 0.393,2.011 0.636,3.446 0.99,5.857 2.114,10.194 3.633,14.026 0.394,0.988 0.684,1.761 0.646,1.719 -0.038,-0.041 -0.302,-0.429 -0.592,-0.862 -1.788,-2.687 -2.986,-3.771 -5.695,-5.154 -1.285,-0.656 -2.45,-1.133 -4.57,-1.872 -1.701,-0.593 -2.621,-1.046 -3.405,-1.675 -0.714,-0.573 -1.178,-1.134 -1.526,-1.84 -0.241,-0.492 -0.347,-0.688 -0.347,-1.46 10e-4,-0.726 0.112,-0.947 0.291,-1.285 0.618,-1.16 1.863,-1.312 2.808,-0.343 l 0.365,0.374 -0.173,0.339 c -0.102,0.197 -0.173,0.542 -0.171,0.834 0.018,1.57 2.117,2.381 3.353,1.294 0.813,-0.713 0.845,-1.919 0.07,-2.647 -0.267,-0.25 -0.982,-0.569 -1.276,-0.569 -0.073,0 -0.414,-0.281 -0.757,-0.625 -0.404,-0.403 -0.867,-0.743 -1.303,-0.958 -0.619,-0.305 -0.774,-0.39 -1.585,-0.389 -0.78,0.001 -0.932,0.093 -1.431,0.344 -1.565,0.79 -2.528,2.781 -2.233,4.621 0.128,0.805 0.564,1.973 1.018,2.727 0.499,0.829 1.02,1.411 1.783,1.993 1.127,0.862 1.549,1.065 5.11,2.462 3.358,1.319 4.994,2.548 7.041,5.288 0.516,0.695 1.423,2.065 2.011,3.044 1.022,1.697 3.214,5.933 4.012,7.75 l 0.375,0.855 -0.653,0.645 c -0.36,0.354 -0.678,0.644 -0.704,0.644 -0.028,0 -0.366,-0.222 -0.752,-0.492 l -0.701,-0.492 -0.793,0.758 c -0.438,0.416 -1.292,1.241 -1.899,1.832 l -1.103,1.073 0.179,0.258 c 0.099,0.142 0.713,1.016 1.371,1.942 l 1.19,1.686 -0.749,1.853 c -0.414,1.019 -0.767,1.87 -0.785,1.894 -0.018,0.023 -1.051,0.227 -2.299,0.455 -1.243,0.226 -2.276,0.427 -2.293,0.447 -0.017,0.021 -0.06,1.196 -0.097,2.611 -0.062,2.409 -0.053,2.575 0.11,2.625 0.096,0.028 1.193,0.234 2.435,0.459 1.243,0.222 2.293,0.438 2.334,0.475 0.041,0.037 0.375,0.846 0.745,1.796 l 0.673,1.727 -1.421,1.989 -1.423,1.991 1.868,1.866 1.865,1.867 2.02,-1.387 c 1.111,-0.762 2.074,-1.386 2.139,-1.386 0.065,0 0.856,0.311 1.754,0.691 l 1.634,0.693 0.493,2.477 0.495,2.477 h 2.545 2.547 l 0.482,-2.474 0.485,-2.475 1.72,-0.692 1.721,-0.69 2.091,1.42 2.09,1.419 1.825,-1.866 1.828,-1.866 -1.111,-1.695 c -0.61,-0.932 -1.229,-1.875 -1.374,-2.095 l -0.267,-0.4 0.727,-1.714 0.726,-1.711 2.383,-0.413 c 1.31,-0.228 2.398,-0.428 2.414,-0.446 0.025,-0.024 0.093,-3.987 0.093,-5.286 0,0 -1.035,-0.174 -2.301,-0.388 -1.265,-0.213 -2.331,-0.422 -2.368,-0.465 -0.037,-0.043 -0.412,-0.88 -0.834,-1.86 l -0.765,-1.781 1.34,-1.985 1.341,-1.985 -1.786,-1.859 -1.788,-1.858 -0.444,0.259 -0.443,0.261 -0.251,-0.334 c -0.138,-0.184 -0.442,-0.543 -0.677,-0.797 l -0.427,-0.463 1.547,-2.191 c 5.788,-8.204 9.29,-12.124 12.474,-13.969 0.997,-0.578 2.217,-1.093 3.236,-1.367 1.142,-0.306 3.222,-0.305 4.311,0.005 0.946,0.269 1.857,0.675 2.836,1.266 0.742,0.445 0.75,0.457 0.652,0.739 -0.387,1.112 0.644,2.339 1.962,2.339 1.547,0 2.509,-1.596 1.683,-2.798 -0.386,-0.565 -0.819,-0.782 -1.633,-0.824 l -0.729,-0.037 -0.654,-0.654 c -1.627,-1.627 -4.743,-2.454 -8.204,-2.178 -2.339,0.187 -4.863,0.726 -5.937,1.268 -1.96,0.989 -4.605,3.792 -7.291,7.729 -0.438,0.64 -0.796,1.134 -0.796,1.095 0,-0.114 0.95,-1.969 1.837,-3.587 2.108,-3.841 3.759,-5.949 5.243,-6.699 0.73,-0.368 2.068,-0.696 4.197,-1.028 5.042,-0.789 6.904,-1.381 8.217,-2.608 0.439,-0.411 0.708,-0.766 0.906,-1.199 0.255,-0.552 0.283,-0.721 0.28,-1.6 -0.003,-0.833 -0.045,-1.087 -0.275,-1.67 -1.021,-2.609 -3.217,-3.977 -5.586,-3.477 -1.624,0.341 -2.948,1.618 -3.315,3.192 -0.107,0.467 -0.145,0.511 -0.504,0.619 -0.483,0.145 -1.06,0.64 -1.235,1.061 -0.3,0.713 -0.107,1.436 0.533,2.014 0.45,0.407 0.852,0.518 1.642,0.452 1.509,-0.125 2.237,-1.78 1.278,-2.902 l -0.342,-0.399 0.388,-0.575 c 0.574,-0.854 0.947,-1.066 1.864,-1.066 0.892,0 1.433,0.235 2.119,0.919 0.616,0.616 0.881,1.197 0.882,1.937 0.003,0.708 -0.29,1.237 -0.944,1.71 -0.887,0.644 -1.708,0.826 -5.586,1.233 -3.456,0.364 -4.483,0.612 -6.29,1.521 -1.396,0.702 -2.532,1.939 -4.391,4.78 -0.536,0.818 -1.39,2.22 -1.901,3.115 -0.509,0.896 -0.939,1.617 -0.954,1.6 -0.019,-0.016 0.038,-0.224 0.123,-0.462 0.272,-0.774 0.717,-2.668 0.884,-3.775 0.22,-1.452 0.219,-3.419 -0.003,-5.11 -0.26,-1.982 -0.242,-4.486 0.038,-5.83 0.368,-1.749 0.981,-2.911 1.913,-3.618 1.399,-1.063 3.484,-0.681 4.259,0.78 0.268,0.505 0.224,1.3 -0.105,1.901 -0.262,0.478 -0.299,0.506 -0.735,0.549 -1.338,0.128 -2.177,1.3 -1.731,2.415 0.554,1.384 2.542,1.674 3.518,0.513 0.403,-0.478 0.468,-1.294 0.163,-2.021 -0.113,-0.269 -0.101,-0.338 0.12,-0.688 0.767,-1.223 1.062,-2.833 0.712,-3.888 -0.465,-1.406 -2.679,-2.643 -4.72,-2.643 -2.998,0 -5.542,2.743 -6.385,6.88 -0.27,1.33 -0.293,3.389 -0.058,5.04 0.48,3.343 0.072,6.498 -1.326,10.278 -0.385,1.047 -1.688,3.782 -1.946,4.091 -0.158,0.191 -0.162,0.188 -0.111,-0.099 0.137,-0.753 0.446,-3.486 0.543,-4.814 0.06,-0.825 0.096,-3.185 0.08,-5.357 l -0.027,-3.882 0.266,-1.331 c 0.759,-3.775 2.05,-7.975 3.963,-12.87 1.815,-4.646 1.858,-4.786 1.861,-6.046 0.003,-1.027 -0.014,-1.116 -0.321,-1.739 -0.203,-0.412 -0.494,-0.807 -0.783,-1.062 -1.297,-1.14 -3.979,-1.779 -6.146,-1.463 z" /><path
       inkscape:connector-curvature="0"
       id="path32"
       style="fill:#12738e;fill-opacity:1;fill-rule:nonzero;stroke:#000000;stroke-width:0.014;stroke-linecap:butt;stroke-linejoin:miter;stroke-miterlimit:10;stroke-dasharray:none;stroke-opacity:1"
       d="m 70.8008,138.8198 c 0.027,0.03 0.109,-0.022 0.236,-0.187 0.102,-0.136 0.546,-0.834 0.985,-1.554 3.499,-5.732 6.966,-9.78 9.456,-11.037 1.18,-0.597 3.904,-1.151 6.072,-1.237 3.747,-0.145 6.244,0.618 8.067,2.469 0.27,0.274 0.483,0.421 0.523,0.359 0.101,-0.165 0.848,-0.119 1.283,0.079 1.197,0.545 1.558,1.761 0.771,2.604 -0.808,0.866 -2.159,0.839 -2.948,-0.058 -0.413,-0.47 -0.491,-0.94 -0.25,-1.486 l 0.188,-0.429 -0.847,-0.496 c -1.654,-0.967 -2.883,-1.433 -4.251,-1.608 -2.676,-0.343 -5.911,0.864 -8.789,3.28 -2.638,2.214 -6.876,7.426 -11.294,13.894 l -0.478,0.7 -0.549,-0.37 c -0.639,-0.431 -1.202,-0.726 -1.812,-0.923" /><path
       inkscape:connector-curvature="0"
       id="path36"
       style="fill:#34aacd;fill-opacity:1;fill-rule:nonzero;stroke:#000000;stroke-width:0.014;stroke-linecap:butt;stroke-linejoin:miter;stroke-miterlimit:10;stroke-dasharray:none;stroke-opacity:1"
       d="m 67.1724,142.8232 c -0.61,-0.195 -1.263,-0.293 -2.076,-0.328 -0.981,-0.04 -1.324,-0.014 -2.049,0.16 -1.281,0.306 -2.457,0.95 -3.451,1.891 l -0.814,0.771 -0.252,-0.199 c -0.46,-0.36 -1.482,-0.774 -2.214,-0.893 -0.924,-0.152 -1.975,-0.001 -2.844,0.406 l -0.62,0.288 -0.457,-1.004 c -2.614,-5.742 -5.447,-10.45 -7.663,-12.722 -1.44,-1.478 -2.961,-2.376 -6.132,-3.618 -1.049,-0.409 -2.303,-0.94 -2.789,-1.18 -2.083,-1.024 -3.319,-2.398 -4.042,-4.491 -0.614,-1.779 -0.313,-3.405 0.855,-4.64 1.069,-1.13 2.522,-1.383 3.853,-0.671 0.282,0.152 0.81,0.574 1.173,0.938 0.46,0.465 0.731,0.664 0.901,0.664 0.378,0 0.768,0.179 1.116,0.515 0.617,0.596 0.655,1.37 0.096,2.008 -0.38,0.434 -0.804,0.622 -1.399,0.622 -1.256,0 -2.08,-1.211 -1.533,-2.26 0.114,-0.219 0.208,-0.421 0.208,-0.445 0,-0.026 -0.163,-0.227 -0.362,-0.447 -1.023,-1.134 -2.435,-1.096 -3.182,0.083 -1.233,1.941 0.047,4.598 2.906,6.042 0.271,0.136 1.25,0.516 2.178,0.843 4.201,1.481 6.266,2.601 8.001,4.334 0.764,0.763 1.219,1.357 2.418,3.159 0.812,1.22 1.736,2.679 2.049,3.243 0.485,0.869 1.573,2.698 1.686,2.836 0.019,0.023 0.076,0 0.128,-0.051 0.061,-0.061 -0.265,-0.703 -0.895,-1.763 -1.734,-2.924 -2.724,-5.095 -3.829,-8.404 -1.116,-3.34 -1.974,-6.99 -2.844,-12.083 -0.701,-4.1 -1.205,-5.644 -2.213,-6.764 -0.377,-0.421 -0.563,-0.541 -1.096,-0.705 -1.302,-0.402 -2.453,-0.191 -3.33,0.61 -0.544,0.499 -0.871,1.064 -0.956,1.657 -0.064,0.444 -0.028,0.495 0.548,0.77 1.232,0.59 1.294,2.065 0.117,2.733 -0.428,0.242 -1.124,0.295 -1.588,0.119 -0.421,-0.159 -0.908,-0.681 -1.02,-1.096 -0.151,-0.559 0.026,-1.075 0.509,-1.49 0.348,-0.297 0.392,-0.379 0.338,-0.629 -0.099,-0.451 0.2,-1.665 0.559,-2.261 0.813,-1.354 2.239,-2.027 4.3,-2.028 0.945,0 1.223,0.036 1.69,0.222 1.135,0.45 2.026,1.567 2.627,3.29 0.426,1.218 0.621,2.027 1.392,5.752 1.224,5.907 1.554,6.967 3.423,10.998 1.172,2.525 4.858,9.711 5.126,9.992 0.048,0.051 0.117,0.063 0.153,0.029 0.033,-0.035 -0.182,-0.608 -0.48,-1.272 -1.903,-4.229 -3.394,-8.813 -4.066,-12.498 -0.236,-1.289 -0.259,-1.692 -0.335,-5.732 -0.088,-4.604 -0.18,-6.093 -0.486,-7.844 -0.682,-3.879 -2.113,-6.021 -4.527,-6.777 l -0.542,-0.171 -0.379,0.258 c -0.988,0.668 -2.055,0.498 -2.687,-0.431 -0.521,-0.765 -0.111,-1.792 0.884,-2.207 0.733,-0.307 1.597,-0.069 2.088,0.573 0.148,0.195 0.309,0.328 0.358,0.298 0.164,-0.101 1.211,0.174 1.948,0.513 2.52,1.158 4.384,3.871 5.313,7.728 0.592,2.474 0.807,4.977 0.764,8.917 -0.022,2.357 -0.004,2.713 0.194,3.753 0.721,3.766 2.597,9.268 4.647,13.616 0.322,0.689 0.525,1.009 0.639,1.009 0.115,0 0.144,-0.051 0.097,-0.172 -0.709,-1.848 -1.579,-4.943 -1.871,-6.654 -0.478,-2.807 -0.414,-5.968 0.162,-7.932 0.207,-0.704 0.154,-2.807 -0.104,-4.013 -0.207,-0.973 -0.946,-3.25 -2.216,-6.83 -0.927,-2.613 -1.235,-4.311 -0.987,-5.456 0.357,-1.646 2.108,-2.542 4.763,-2.434 1.656,0.068 2.572,0.498 3.199,1.503 0.278,0.451 0.293,0.528 0.29,1.514 0,0.857 -0.043,1.143 -0.235,1.629 -0.271,0.691 -0.28,0.846 -0.073,1.389 0.498,1.307 -1.131,2.469 -2.493,1.78 -0.566,-0.287 -0.881,-0.756 -0.881,-1.321 0,-0.825 0.584,-1.464 1.443,-1.584 0.456,-0.065 0.483,-0.087 0.752,-0.624 0.907,-1.814 0.054,-2.989 -2.034,-2.795 -1.835,0.172 -2.616,1.176 -2.325,2.998 0.159,0.997 0.543,2.172 1.573,4.827 1.496,3.85 1.938,5.452 2.03,7.37 0.044,0.917 0.015,1.351 -0.163,2.309 -0.46,2.488 -0.364,5.608 0.262,8.402 0.472,2.115 1.743,5.504 2.063,5.504 0.074,0 0.133,-0.021 0.133,-0.047 0,-0.025 0.108,-0.657 0.239,-1.404 0.449,-2.556 0.59,-4.431 0.59,-7.836 0,-2.197 -0.052,-3.693 -0.171,-4.963 -0.186,-2.034 -0.137,-3.061 0.23,-4.763 0.514,-2.364 1.922,-5.482 4.328,-9.586 1.6,-2.723 2.31,-4.172 2.504,-5.109 0.134,-0.635 0.134,-0.766 0,-1.225 -0.273,-0.942 -1.049,-1.684 -2.118,-2.025 -1.187,-0.379 -2.564,-0.288 -5.583,0.374 -0.205,0.046 -0.222,0.089 -0.165,0.429 0.214,1.266 -1.301,2.275 -2.499,1.664 -0.434,-0.221 -0.866,-0.696 -0.953,-1.049 -0.161,-0.636 0.245,-1.441 0.88,-1.742 0.383,-0.181 1.257,-0.214 1.549,-0.058 0.148,0.08 0.252,0.061 0.459,-0.086 0.393,-0.277 1.266,-0.705 1.888,-0.921 1.344,-0.474 2.783,-0.581 4.289,-0.322 v 0 c 2.084,0.358 3.259,1.025 3.925,2.229 0.274,0.495 0.288,0.575 0.283,1.7 -0.002,1.355 0.053,1.153 -1.393,4.864 -2.042,5.245 -2.942,7.935 -3.761,11.253 -0.918,3.723 -0.914,3.664 -0.926,9.139 -0.009,4.386 -0.029,4.975 -0.234,6.604 -0.124,0.982 -0.283,2.122 -0.354,2.533 -0.238,1.373 0.213,1.005 1.255,-1.018 1.533,-2.986 2.532,-6.299 2.82,-9.347 0.126,-1.32 0.079,-2.496 -0.163,-4.078 -0.807,-5.274 1.369,-10.365 4.868,-11.392 0.678,-0.199 1.955,-0.201 2.712,-0.004 1.375,0.356 2.681,1.275 3.043,2.144 0.401,0.957 0.228,2.119 -0.526,3.551 l -0.468,0.891 0.178,0.291 c 0.557,0.917 0.097,1.989 -0.99,2.316 -1.148,0.343 -2.37,-0.552 -2.247,-1.646 0.091,-0.804 0.799,-1.407 1.67,-1.425 0.37,-0.007 0.455,-0.053 0.676,-0.365 0.34,-0.481 0.48,-0.926 0.477,-1.526 -0.008,-1.632 -1.836,-2.837 -3.614,-2.382 -1.533,0.393 -2.538,1.635 -3.139,3.874 -0.242,0.897 -0.259,1.098 -0.265,3.265 -0.004,1.585 0.038,2.617 0.14,3.292 0.195,1.304 0.177,3.823 -0.038,5.109 -0.431,2.574 -1.278,5.06 -2.67,7.834 -0.506,1.011 -0.884,1.862 -0.838,1.891 0.116,0.072 0.278,-0.191 1.018,-1.671 2.17,-4.327 4.739,-8.657 6.417,-10.813 1.029,-1.323 1.722,-1.942 2.78,-2.484 1.699,-0.868 2.858,-1.143 6.303,-1.49 3.672,-0.37 4.47,-0.546 5.453,-1.196 0.901,-0.596 1.31,-1.498 1.125,-2.478 -0.24,-1.274 -1.61,-2.523 -2.937,-2.68 -1.012,-0.12 -1.865,0.369 -2.562,1.473 l -0.365,0.575 0.398,0.37 c 0.352,0.329 0.397,0.429 0.439,0.927 0.04,0.477 0.01,0.612 -0.202,0.933 -0.677,1.023 -2.374,1.009 -3.013,-0.027 -0.265,-0.427 -0.27,-1.153 -0.01,-1.572 0.208,-0.338 0.759,-0.686 1.246,-0.788 0.278,-0.06 0.314,-0.108 0.368,-0.527 0.183,-1.352 1.271,-2.579 2.721,-3.071 0.515,-0.173 0.798,-0.205 1.529,-0.174 0.797,0.034 0.982,0.081 1.638,0.404 1.186,0.585 2.132,1.745 2.627,3.214 0.304,0.905 0.246,2.192 -0.13,2.9 -0.967,1.826 -2.794,2.587 -8.372,3.489 -4.6,0.744 -5.398,1.094 -7.013,3.079 -1.482,1.825 -2.847,4.158 -5.327,9.119 -0.761,1.52 -1.496,2.938 -1.63,3.153 -0.155,0.247 -0.207,0.422 -0.169,0.46" /><path
       inkscape:connector-curvature="0"
       id="path40"
       style="fill:#000000;fill-opacity:1;fill-rule:nonzero;stroke:none"
       d="m 58.5527,140.1016 c -0.609,0.144 -1.041,0.777 -0.93,1.364 0.055,0.287 0.219,0.187 0.219,-0.135 0,-0.805 0.837,-1.268 1.589,-0.879 0.289,0.15 0.593,0.599 0.593,0.879 0,0.158 0.177,0.313 0.26,0.23 0.027,-0.028 -0.005,-0.235 -0.072,-0.462 -0.125,-0.414 -0.673,-0.917 -0.917,-0.979 -0.118,-0.033 -0.143,-0.048 -0.281,-0.056 -0.075,-0.004 -0.279,-0.004 -0.461,0.038" /><path
       inkscape:connector-curvature="0"
       id="path44"
       style="fill:#ffffff;fill-opacity:1;fill-rule:nonzero;stroke:none"
       d="m 64.3511,144.3291 v 1.568 l -0.417,0.111 c -1.608,0.423 -2.69,2.082 -2.428,3.713 0.361,2.25 2.751,3.467 4.785,2.437 0.584,-0.296 1.253,-1.004 1.522,-1.615 0.244,-0.549 0.333,-1.589 0.188,-2.132 -0.28,-1.032 -1.205,-2.027 -2.157,-2.323 l -0.461,-0.143 -0.027,-1.606 -0.005,-1.593 0.521,0.051 c 0.297,0.035 0.886,0.189 1.308,0.343 2.27,0.829 3.968,2.681 4.602,5.025 0.236,0.87 0.236,2.668 0.001,3.538 -0.56,2.08 -2.019,3.845 -3.942,4.77 -0.987,0.475 -1.877,0.665 -3.096,0.665 -1.276,0 -2.01,-0.177 -3.243,-0.783 -0.791,-0.388 -1.071,-0.596 -1.822,-1.352 -1.478,-1.484 -2.113,-3.005 -2.107,-5.06 0.003,-2.135 0.769,-3.874 2.349,-5.338 1.088,-1.006 2.887,-1.822 4.062,-1.838 l 0.368,-0.007 v 1.569 z" /><path
       inkscape:connector-curvature="0"
       id="path48"
       style="fill:none;stroke:#000000;stroke-width:0.014;stroke-linecap:butt;stroke-linejoin:miter;stroke-miterlimit:10;stroke-dasharray:none;stroke-opacity:1"
       d="m 64.3511,144.3291 v 1.568 l -0.417,0.111 c -1.608,0.423 -2.69,2.082 -2.428,3.713 0.361,2.25 2.751,3.467 4.785,2.437 0.584,-0.296 1.253,-1.004 1.522,-1.615 0.244,-0.549 0.333,-1.589 0.188,-2.132 -0.28,-1.032 -1.205,-2.027 -2.157,-2.323 l -0.461,-0.143 -0.027,-1.606 -0.005,-1.593 0.521,0.051 c 0.297,0.035 0.886,0.189 1.308,0.343 2.27,0.829 3.968,2.681 4.602,5.025 0.236,0.87 0.236,2.668 0.001,3.538 -0.56,2.08 -2.019,3.845 -3.942,4.77 -0.987,0.475 -1.877,0.665 -3.096,0.665 -1.276,0 -2.01,-0.177 -3.243,-0.783 -0.791,-0.388 -1.071,-0.596 -1.822,-1.352 -1.478,-1.484 -2.113,-3.005 -2.107,-5.06 0.003,-2.135 0.769,-3.874 2.349,-5.338 1.088,-1.006 2.887,-1.822 4.062,-1.838 l 0.368,-0.007 v 1.569 z" /><path
       inkscape:connector-curvature="0"
       id="path52"
       style="fill:#ffffff;fill-opacity:1;fill-rule:nonzero;stroke:none"
       d="m 54.917,146.0029 v 1.571 l -0.366,0.153 c -0.831,0.347 -1.247,1.038 -1.186,1.975 0.031,0.509 0.091,0.684 0.338,0.99 0.165,0.205 0.473,0.474 0.683,0.598 0.822,0.483 2.177,0.096 2.585,-0.739 0.206,-0.418 0.304,-0.403 0.305,0.046 0.007,1.054 0.667,2.821 1.423,3.803 l 0.373,0.488 -0.422,0.365 c -0.516,0.444 -1.266,0.821 -2.027,1.02 -1.58,0.411 -3.209,-0.085 -4.51,-1.376 -1.922,-1.906 -2.365,-4.925 -1.104,-7.502 0.219,-0.445 0.557,-0.892 1.059,-1.394 0.924,-0.928 1.388,-1.185 2.826,-1.563 0.012,-0.003 0.023,0.7 0.023,1.565" /><path
       inkscape:connector-curvature="0"
       id="path56"
       style="fill:none;stroke:#000000;stroke-width:0.014;stroke-linecap:butt;stroke-linejoin:miter;stroke-miterlimit:10;stroke-dasharray:none;stroke-opacity:1"
       d="m 54.917,146.0029 v 1.571 l -0.366,0.153 c -0.831,0.347 -1.247,1.038 -1.186,1.975 0.031,0.509 0.091,0.684 0.338,0.99 0.165,0.205 0.473,0.474 0.683,0.598 0.822,0.483 2.177,0.096 2.585,-0.739 0.206,-0.418 0.304,-0.403 0.305,0.046 0.007,1.054 0.667,2.821 1.423,3.803 l 0.373,0.488 -0.422,0.365 c -0.516,0.444 -1.266,0.821 -2.027,1.02 -1.58,0.411 -3.209,-0.085 -4.51,-1.376 -1.922,-1.906 -2.365,-4.925 -1.104,-7.502 0.219,-0.445 0.557,-0.892 1.059,-1.394 0.924,-0.928 1.388,-1.185 2.826,-1.563 0.012,-0.003 0.023,0.7 0.023,1.565 z" /><path
       inkscape:connector-curvature="0"
       id="path60"
       style="fill:#ffffff;fill-opacity:1;fill-rule:nonzero;stroke:none"
       d="m 57.1924,144.7231 c 0.267,0.101 0.701,0.324 0.97,0.496 l 0.488,0.314 -0.184,0.259 c -0.457,0.649 -0.99,2.008 -1.143,2.914 l -0.067,0.392 -0.186,-0.384 c -0.253,-0.521 -0.435,-0.704 -0.938,-0.948 l -0.429,-0.208 v -1.576 -1.576 l 0.505,0.066 c 0.277,0.037 0.717,0.149 0.984,0.251" /><path
       inkscape:connector-curvature="0"
       id="path64"
       style="fill:none;stroke:#000000;stroke-width:0.014;stroke-linecap:butt;stroke-linejoin:miter;stroke-miterlimit:10;stroke-dasharray:none;stroke-opacity:1"
       d="m 57.1924,144.7231 c 0.267,0.101 0.701,0.324 0.97,0.496 l 0.488,0.314 -0.184,0.259 c -0.457,0.649 -0.99,2.008 -1.143,2.914 l -0.067,0.392 -0.186,-0.384 c -0.253,-0.521 -0.435,-0.704 -0.938,-0.948 l -0.429,-0.208 v -1.576 -1.576 l 0.505,0.066 c 0.277,0.037 0.717,0.149 0.984,0.251 z" /><path
       inkscape:connector-curvature="0"
       id="path68"
       style="fill:#1d1d1b;fill-opacity:1;fill-rule:nonzero;stroke:none"
       d="m 51.4326,180.6211 c 0.037,0.176 0.193,0.717 0.35,1.204 0.868,2.726 2.801,4.302 5.593,4.56 1.624,0.15 2.749,-0.119 4.665,-1.116 1.478,-0.767 2.085,-0.995 3.009,-1.123 1.91,-0.266 3.416,0.421 3.897,1.78 l 0.168,0.469 h 1.021 1.022 l -0.067,-0.414 c -0.037,-0.228 -0.177,-0.747 -0.313,-1.154 -0.969,-2.914 -3.222,-4.524 -6.329,-4.524 -1.313,0 -2.033,0.203 -3.825,1.082 -2.02,0.991 -2.643,1.188 -3.791,1.188 -1.714,0 -2.684,-0.57 -3.238,-1.903 l -0.154,-0.367 h -1.038 -1.039 z" /><path
       inkscape:connector-curvature="0"
       id="path72"
       style="fill:none;stroke:#1d1d1b;stroke-width:0.057;stroke-linecap:butt;stroke-linejoin:miter;stroke-miterlimit:10;stroke-dasharray:none;stroke-opacity:1"
       d="m 51.4326,180.6211 c 0.037,0.176 0.193,0.717 0.35,1.204 0.868,2.726 2.801,4.302 5.593,4.56 1.624,0.15 2.749,-0.119 4.665,-1.116 1.478,-0.767 2.085,-0.995 3.009,-1.123 1.91,-0.266 3.416,0.421 3.897,1.78 l 0.168,0.469 h 1.021 1.022 l -0.067,-0.414 c -0.037,-0.228 -0.177,-0.747 -0.313,-1.154 -0.969,-2.914 -3.222,-4.524 -6.329,-4.524 -1.313,0 -2.033,0.203 -3.825,1.082 -2.02,0.991 -2.643,1.188 -3.791,1.188 -1.714,0 -2.684,-0.57 -3.238,-1.903 l -0.154,-0.367 h -1.038 -1.039 z" /><path
       inkscape:connector-curvature="0"
       id="path76"
       style="fill:#14738e;fill-opacity:1;fill-rule:nonzero;stroke:none"
       d="m 53.4868,181.0347 c 0.572,1.171 1.744,1.822 3.277,1.822 1.11,0 1.867,-0.226 3.608,-1.078 0.863,-0.423 1.902,-0.873 2.309,-1 1.379,-0.434 3.516,-0.248 4.848,0.42 1.109,0.558 2.08,1.607 2.674,2.887 0.364,0.782 0.693,1.889 0.596,1.988 -0.037,0.036 -0.374,0.077 -0.747,0.091 l -0.682,0.026 -0.299,-0.628 c -0.447,-0.935 -1.091,-1.403 -2.246,-1.63 -1.388,-0.273 -3.015,0.072 -4.635,0.98 -2.203,1.237 -3.951,1.541 -5.931,1.032 -1.431,-0.368 -2.772,-1.345 -3.496,-2.545 -0.346,-0.577 -0.92,-2.022 -1.023,-2.582 l -0.06,-0.32 h 0.772 0.771 z" /><path
       inkscape:connector-curvature="0"
       id="path80"
       style="fill:none;stroke:#1d1d1b;stroke-width:0.057;stroke-linecap:butt;stroke-linejoin:miter;stroke-miterlimit:10;stroke-dasharray:none;stroke-opacity:1"
       d="m 53.4868,181.0347 c 0.572,1.171 1.744,1.822 3.277,1.822 1.11,0 1.867,-0.226 3.608,-1.078 0.863,-0.423 1.902,-0.873 2.309,-1 1.379,-0.434 3.516,-0.248 4.848,0.42 1.109,0.558 2.08,1.607 2.674,2.887 0.364,0.782 0.693,1.889 0.596,1.988 -0.037,0.036 -0.374,0.077 -0.747,0.091 l -0.682,0.026 -0.299,-0.628 c -0.447,-0.935 -1.091,-1.403 -2.246,-1.63 -1.388,-0.273 -3.015,0.072 -4.635,0.98 -2.203,1.237 -3.951,1.541 -5.931,1.032 -1.431,-0.368 -2.772,-1.345 -3.496,-2.545 -0.346,-0.577 -0.92,-2.022 -1.023,-2.582 l -0.06,-0.32 h 0.772 0.771 z" /><path
       inkscape:connector-curvature="0"
       id="path84"
       style="fill:#14738e;fill-opacity:1;fill-rule:nonzero;stroke:#000000;stroke-width:0.014;stroke-linecap:butt;stroke-linejoin:miter;stroke-miterlimit:10;stroke-dasharray:none;stroke-opacity:1"
       d="m 66.1162,168.1489 1.198,0.449 -0.002,0.005 c -0.123,0.25 -0.189,0.527 -0.189,0.826 0,0.204 0.021,0.368 0.081,0.552 l 0.009,0.032 -1.36,0.429 -0.028,0.008 c -0.166,-0.151 -0.38,-0.246 -0.619,-0.251 l -0.003,-0.016 -0.116,-1.004 c 0.485,-0.159 0.871,-0.543 1.029,-1.03" /><path
       inkscape:connector-curvature="0"
       id="path88"
       style="fill:#34aacd;fill-opacity:1;fill-rule:nonzero;stroke:none"
       d="m 70.793,154.4854 -0.63,0.645 c -1.076,1.101 -2.132,1.705 -3.651,2.088 -1.175,0.298 -2.942,0.232 -4.076,-0.151 -0.965,-0.325 -1.924,-0.881 -2.622,-1.518 l -0.526,-0.481 -0.391,0.338 c -1.326,1.147 -3.165,1.543 -4.814,1.036 -2.542,-0.779 -4.257,-3.538 -4.045,-6.508 0.072,-1.002 0.258,-1.675 0.724,-2.632 0.192,-0.393 0.333,-0.729 0.311,-0.745 -0.02,-0.016 -0.299,-0.213 -0.617,-0.439 -0.322,-0.225 -0.608,-0.408 -0.641,-0.406 -0.107,0.005 -3.447,3.216 -3.447,3.315 0,0.024 0.582,0.869 1.292,1.876 0.712,1.008 1.295,1.88 1.295,1.94 0,0.132 -1.498,3.896 -1.588,3.989 -0.036,0.037 -0.993,0.231 -2.13,0.431 -1.134,0.2 -2.157,0.399 -2.271,0.44 -0.198,0.074 -0.205,0.139 -0.226,2.435 l -0.021,2.359 0.522,0.105 c 0.286,0.057 1.384,0.264 2.439,0.458 1.054,0.195 1.921,0.361 1.927,0.371 0.097,0.152 1.414,3.659 1.414,3.764 0,0.082 -0.598,0.981 -1.328,2.001 -0.728,1.019 -1.325,1.891 -1.325,1.935 0,0.102 3.267,3.372 3.367,3.372 0.04,0 0.963,-0.607 2.051,-1.351 1.085,-0.743 2.024,-1.337 2.087,-1.318 0.061,0.017 0.891,0.365 1.843,0.772 l 1.733,0.74 0.482,2.421 0.483,2.422 2.327,0.026 2.328,0.026 0.053,-0.223 c 0.028,-0.122 0.251,-1.215 0.493,-2.425 0.241,-1.212 0.454,-2.216 0.47,-2.233 0.018,-0.017 0.847,-0.363 1.839,-0.768 l 1.81,-0.738 2.054,1.386 2.054,1.387 1.659,-1.658 c 0.913,-0.912 1.66,-1.693 1.66,-1.739 0,-0.045 -0.568,-0.953 -1.262,-2.016 -0.695,-1.064 -1.294,-1.987 -1.331,-2.054 -0.038,-0.065 0.16,-0.618 0.439,-1.229 0.277,-0.609 0.64,-1.425 0.806,-1.813 l 0.302,-0.705 0.791,-0.145 c 0.439,-0.08 1.487,-0.266 2.33,-0.415 l 1.536,-0.269 0.072,-2.4 c 0.041,-1.321 0.055,-2.417 0.033,-2.438 -0.021,-0.023 -0.722,-0.154 -1.558,-0.293 -0.836,-0.141 -1.869,-0.33 -2.296,-0.423 l -0.777,-0.168 -0.267,-0.638 c -0.146,-0.352 -0.523,-1.226 -0.837,-1.946 l -0.569,-1.306 1.293,-1.904 c 0.714,-1.049 1.294,-1.942 1.293,-1.987 -0.003,-0.044 -0.727,-0.831 -1.609,-1.749 l -1.607,-1.668 -0.356,0.192 c -0.195,0.105 -0.357,0.198 -0.357,0.205 0,0.007 0.156,0.348 0.344,0.757 0.479,1.036 0.659,1.895 0.659,3.116 0,1.296 -0.192,2.142 -0.759,3.31 l -0.431,0.888 -0.006,0.013 c 1.607,2.728 1.596,7.1 0.559,10.881 0.375,0.211 0.629,0.613 0.629,1.074 0,0.681 -0.551,1.232 -1.232,1.232 -0.15,0 -0.293,-0.026 -0.424,-0.074 l -0.012,0.019 -0.432,0.594 -0.012,0.017 c 0.48,0.343 0.793,0.906 0.793,1.54 0,1.045 -0.846,1.892 -1.892,1.892 -0.71,0 -1.329,-0.391 -1.653,-0.969 l -0.017,0.006 -1.262,0.378 -0.041,0.012 c 0.057,0.121 0.087,0.255 0.087,0.398 0,0.522 -0.423,0.946 -0.945,0.946 -0.523,0 -0.947,-0.424 -0.947,-0.946 0,-0.42 0.256,-0.77 0.634,-0.894 l 0.019,-0.007 -0.129,-0.996 c -0.057,0.005 -0.113,0.008 -0.17,0.008 -0.886,0 -1.605,-0.718 -1.605,-1.604 0,-0.888 0.719,-1.606 1.605,-1.606 0.886,0 1.605,0.718 1.605,1.606 0,0.044 0,0.087 -0.004,0.131 l 1.312,0.507 c 0.346,-0.457 0.894,-0.753 1.511,-0.753 0.255,0 0.498,0.05 0.718,0.141 l 0.012,-0.013 0.446,-0.614 0.006,-0.01 c -0.266,-0.226 -0.436,-0.564 -0.436,-0.941 0,-0.681 0.552,-1.233 1.233,-1.233 0.072,0 0.146,0.007 0.217,0.019 1.099,-3.188 1.078,-7.592 -0.396,-10.422 l -0.021,0.021" /><path
       inkscape:connector-curvature="0"
       id="path92"
       style="fill:#14738e;fill-opacity:1;fill-rule:nonzero;stroke:none"
       d="m 55.8496,172.6382 c -0.009,0.013 -0.013,0.019 -0.013,0.019 3.166,-0.166 6.065,-1.466 8.317,-3.461 0.138,0.041 0.285,0.061 0.437,0.061 0.059,0 0.114,-0.003 0.17,-0.009 l 0.13,0.998 -0.02,0.005 c -0.377,0.125 -0.634,0.474 -0.634,0.895 0,0.521 0.425,0.945 0.947,0.945 0.523,0 0.947,-0.424 0.947,-0.945 0,-0.142 -0.032,-0.278 -0.088,-0.399 l 0.04,-0.011 1.263,-0.379 0.018,-0.006 c 0.323,0.579 0.942,0.971 1.652,0.971 1.045,0 1.892,-0.847 1.892,-1.892 0,-0.636 -0.313,-1.199 -0.793,-1.542 l 0.012,-0.016 0.431,-0.594 0.012,-0.019 c 0.133,0.048 0.275,0.074 0.424,0.074 0.682,0 1.233,-0.552 1.233,-1.232 0,-0.461 -0.253,-0.864 -0.63,-1.075 1.038,-3.781 1.047,-8.153 -0.559,-10.88 l 0.006,-0.013 0.431,-0.889 c 0.568,-1.167 0.761,-2.013 0.761,-3.31 0,-1.22 -0.182,-2.079 -0.66,-3.115 -0.188,-0.41 -0.344,-0.75 -0.344,-0.758 0,-0.006 0.16,-0.1 0.356,-0.205 l 0.358,-0.192 1.606,1.668 c 0.881,0.918 1.606,1.706 1.608,1.749 0.002,0.045 -0.579,0.939 -1.292,1.987 l -1.295,1.906 0.57,1.305 c 0.314,0.72 0.69,1.594 0.838,1.945 l 0.265,0.639 0.779,0.168 c 0.427,0.093 1.461,0.282 2.296,0.422 0.837,0.141 1.538,0.271 1.558,0.293 0.022,0.021 0.006,1.118 -0.034,2.439 l -0.07,2.4 -1.537,0.269 c -0.844,0.149 -1.892,0.335 -2.329,0.415 l -0.793,0.145 -0.303,0.705 c -0.164,0.387 -0.527,1.204 -0.804,1.813 -0.279,0.611 -0.477,1.164 -0.439,1.228 0.039,0.067 0.636,0.99 1.331,2.054 0.693,1.063 1.261,1.971 1.261,2.017 0,0.045 -0.747,0.828 -1.66,1.739 l -1.658,1.658 -2.056,-1.387 -2.052,-1.386 -1.808,0.738 c -0.995,0.406 -1.824,0.751 -1.841,0.767 -0.017,0.018 -0.227,1.022 -0.47,2.234 -0.243,1.211 -0.465,2.303 -0.493,2.425 l -0.053,0.223 -2.327,-0.027 -2.329,-0.026 -0.482,-2.421 -0.483,-2.422 -1.613,-0.689" /><path
       inkscape:connector-curvature="0"
       id="path96"
       style="fill:#14738e;fill-opacity:1;fill-rule:nonzero;stroke:none"
       d="m 68.6636,156.3491 c 0.775,3.872 -0.308,7.743 -2.568,10.744 0.065,0.173 0.102,0.361 0.102,0.559 0,0.045 -0.002,0.088 -0.005,0.132 l 1.312,0.507 c 0.345,-0.458 0.892,-0.754 1.511,-0.754 0.254,0 0.498,0.05 0.719,0.142 l 0.01,-0.013 0.447,-0.614 0.005,-0.01 c -0.265,-0.226 -0.435,-0.565 -0.435,-0.941 0,-0.681 0.551,-1.232 1.232,-1.232 0.073,0 0.146,0.006 0.217,0.018 1.1,-3.187 1.08,-7.593 -0.395,-10.423 l -0.023,0.022 -0.628,0.644 c -0.49,0.5 -0.975,0.898 -1.501,1.219" /><path
       inkscape:connector-curvature="0"
       id="path100"
       style="fill:#17738e;fill-opacity:1;fill-rule:nonzero;stroke:none"
       d="m 110.3711,117.7563 h 1.586 v -0.085 c 0,-0.522 -0.18,-1.051 -0.541,-1.591 -0.362,-0.538 -0.853,-0.934 -1.473,-1.186 -0.618,-0.253 -1.346,-0.379 -2.183,-0.379 -1.683,0 -3.058,0.585 -4.126,1.756 -1.07,1.171 -1.604,2.924 -1.604,5.259 0,2.325 0.531,4.076 1.594,5.251 1.063,1.176 2.445,1.765 4.146,1.765 0.83,0 1.555,-0.127 2.173,-0.379 0.62,-0.252 1.111,-0.652 1.473,-1.2 0.361,-0.547 0.541,-1.072 0.541,-1.577 v -0.086 h -1.586 v 0.086 c 0,0.324 -0.102,0.636 -0.303,0.934 -0.203,0.298 -0.493,0.522 -0.871,0.673 -0.378,0.151 -0.833,0.227 -1.362,0.227 -1.356,0 -2.365,-0.536 -3.028,-1.603 -0.664,-1.07 -0.995,-2.431 -0.995,-4.087 0,-1.671 0.332,-3.039 0.998,-4.102 0.667,-1.064 1.672,-1.595 3.017,-1.595 0.921,0 1.576,0.19 1.963,0.569 0.387,0.379 0.581,0.801 0.581,1.265 z" /><path
       inkscape:connector-curvature="0"
       id="path104"
       style="fill:#17738e;fill-opacity:1;fill-rule:nonzero;stroke:none"
       d="m 119.0327,115.8374 c 1.207,0 2.148,0.52 2.826,1.558 0.677,1.038 1.015,2.417 1.015,4.135 0,1.713 -0.338,3.091 -1.015,4.132 -0.678,1.04 -1.619,1.562 -2.826,1.562 -1.2,0 -2.143,-0.522 -2.823,-1.562 -0.68,-1.041 -1.021,-2.419 -1.021,-4.132 0,-1.718 0.341,-3.097 1.021,-4.135 0.68,-1.038 1.623,-1.558 2.823,-1.558 m -0.005,-1.322 c -1.653,0 -3.005,0.608 -4.051,1.825 -1.048,1.217 -1.569,2.948 -1.569,5.194 0,2.248 0.521,3.977 1.569,5.19 1.046,1.215 2.398,1.821 4.051,1.821 1.656,0 3.006,-0.606 4.055,-1.821 1.051,-1.213 1.575,-2.942 1.575,-5.19 0,-2.246 -0.524,-3.977 -1.575,-5.194 -1.049,-1.217 -2.399,-1.825 -4.055,-1.825" /><path
       inkscape:connector-curvature="0"
       id="path108"
       style="fill:#17738e;fill-opacity:1;fill-rule:nonzero;stroke:none"
       d="m 128.4277,121.9277 h 1.684 c 0.711,0 1.251,0.109 1.618,0.329 0.368,0.219 0.659,0.538 0.876,0.956 0.216,0.419 0.325,0.868 0.325,1.346 0,0.415 -0.086,0.787 -0.256,1.116 -0.172,0.327 -0.423,0.601 -0.752,0.824 -0.331,0.221 -0.891,0.332 -1.684,0.332 h -1.811 z m 0,-7.011 h -1.724 v 13.237 h 4.096 c 1.005,0 1.762,-0.145 2.267,-0.435 0.507,-0.291 0.907,-0.709 1.203,-1.258 0.296,-0.549 0.443,-1.145 0.443,-1.786 0,-0.519 -0.098,-1.015 -0.296,-1.49 -0.199,-0.474 -0.478,-0.904 -0.837,-1.287 -0.358,-0.384 -0.92,-0.726 -1.68,-1.028 0.284,-0.159 0.498,-0.31 0.641,-0.452 0.144,-0.143 0.317,-0.372 0.523,-0.691 0.207,-0.32 0.385,-0.617 0.539,-0.896 l 2.104,-3.914 h -1.974 l -1.826,3.479 c -0.446,0.841 -1.025,1.578 -1.739,2.209 h -1.74 z" /><path
       inkscape:connector-curvature="0"
       id="path112"
       style="fill:#17738e;fill-opacity:1;fill-rule:nonzero;stroke:none"
       d="m 137.0937,128.1533 h 1.721 v -8.518 c 0,-1.24 0.121,-2.072 0.364,-2.496 0.242,-0.424 0.617,-0.747 1.129,-0.969 0.513,-0.223 1.083,-0.333 1.715,-0.333 0.61,0 1.147,0.11 1.617,0.333 0.469,0.222 0.818,0.573 1.048,1.054 0.231,0.481 0.345,1.486 0.345,3.017 v 7.912 h 1.587 v -8.35 c 0,-1.547 -0.178,-2.633 -0.533,-3.258 -0.355,-0.626 -0.869,-1.121 -1.539,-1.484 -0.672,-0.364 -1.515,-0.546 -2.533,-0.546 -0.943,0 -1.81,0.145 -2.592,0.435 -0.786,0.29 -1.371,0.741 -1.754,1.352 -0.385,0.611 -0.575,1.646 -0.575,3.109 z" /><path
       inkscape:connector-curvature="0"
       id="path116"
       style="fill:#17738e;fill-opacity:1;fill-rule:nonzero;stroke:none"
       d="m 151.8232,129.603 h -1.049 c 0.05,0.388 0.179,0.714 0.38,0.981 0.2,0.267 0.412,0.458 0.636,0.572 0.22,0.114 0.475,0.17 0.765,0.17 0.354,0 0.716,-0.063 1.093,-0.188 l 0.844,-0.281 c 0.346,-0.119 0.601,-0.179 0.759,-0.179 0.171,0 0.311,0.039 0.426,0.114 0.115,0.078 0.216,0.256 0.307,0.534 h 1.05 c -0.114,-0.613 -0.353,-1.055 -0.712,-1.322 -0.361,-0.267 -0.741,-0.401 -1.14,-0.401 -0.244,0 -0.621,0.097 -1.133,0.291 l -0.573,0.213 -0.212,0.076 c -0.285,0.103 -0.512,0.154 -0.682,0.154 -0.107,0 -0.25,-0.042 -0.422,-0.124 -0.174,-0.082 -0.286,-0.285 -0.337,-0.61 m -1.306,-14.686 h -1.587 v 13.236 h 1.707 l 6.048,-9.405 0.554,-1.051 -0.034,1.04 v 9.416 h 1.586 v -13.236 h -1.69 l -6.067,9.448 -0.549,1.068 0.032,-1.066 z" /><path
       inkscape:connector-curvature="0"
       id="path120"
       style="fill:#17738e;fill-opacity:1;fill-rule:nonzero;stroke:none"
       d="m 163.9307,119.8809 h 4.823 l -2.325,6.149 z m -2.015,-4.964 h -1.595 l 5.421,13.236 h 1.742 l 5.01,-13.236 h -1.861 l -1.374,3.641 h -5.849 z" /><path
       inkscape:connector-curvature="0"
       id="path124"
       style="fill:#17738e;fill-opacity:1;fill-rule:nonzero;stroke:none"
       d="m 94.8745,141.4189 c 2.125,0 3.783,0.915 4.977,2.743 1.191,1.827 1.787,4.255 1.787,7.28 0,3.015 -0.596,5.439 -1.787,7.271 -1.194,1.834 -2.852,2.751 -4.977,2.751 -2.113,0 -3.77,-0.917 -4.967,-2.751 -1.198,-1.832 -1.797,-4.256 -1.797,-7.271 0,-3.025 0.599,-5.453 1.797,-7.28 1.197,-1.828 2.854,-2.743 4.967,-2.743 m -0.007,-2.327 c -2.912,0 -5.29,1.071 -7.132,3.214 -1.841,2.141 -2.762,5.19 -2.762,9.143 0,3.954 0.921,6.999 2.762,9.137 1.842,2.137 4.22,3.206 7.132,3.206 2.913,0 5.293,-1.069 7.141,-3.206 1.844,-2.138 2.769,-5.183 2.769,-9.137 0,-3.953 -0.925,-7.002 -2.769,-9.143 -1.848,-2.143 -4.228,-3.214 -7.141,-3.214" /><path
       inkscape:connector-curvature="0"
       id="path128"
       style="fill:#17738e;fill-opacity:1;fill-rule:nonzero;stroke:none"
       d="m 107.8105,145.0229 h 3.033 v -0.15 c 0,-1.291 0.456,-2.19 1.366,-2.696 0.911,-0.505 2.123,-0.758 3.633,-0.758 1.322,0 2.43,0.386 3.328,1.157 0.894,0.771 1.343,1.788 1.343,3.051 0,1.021 -0.387,1.858 -1.155,2.509 -0.77,0.641 -1.94,1.282 -3.509,1.923 l -1.215,0.496 c -1.649,0.681 -2.884,1.355 -3.697,2.021 -0.816,0.666 -1.421,1.405 -1.82,2.216 -0.401,0.811 -0.601,1.718 -0.601,2.719 0,1.762 0.621,3.25 1.867,4.463 1.244,1.211 3.192,1.818 5.842,1.818 2.43,0 4.139,-0.451 5.129,-1.352 0.991,-0.901 1.486,-1.952 1.486,-3.153 v -0.151 h -3.032 v 0.151 c 0,0.38 -0.153,0.756 -0.459,1.126 -0.305,0.37 -0.761,0.638 -1.371,0.803 -0.608,0.165 -1.279,0.248 -2.009,0.248 -1.489,0 -2.591,-0.373 -3.304,-1.12 -0.714,-0.746 -1.07,-1.596 -1.07,-2.547 0,-0.64 0.169,-1.244 0.507,-1.81 0.34,-0.567 0.808,-1.035 1.404,-1.404 0.595,-0.371 1.597,-0.867 3.007,-1.488 l 1.426,-0.616 c 2.278,-0.991 3.802,-2.032 4.571,-3.122 0.76,-1.091 1.141,-2.266 1.141,-3.527 0,-1.17 -0.312,-2.303 -0.932,-3.399 -0.619,-1.096 -1.481,-1.926 -2.584,-2.491 -1.098,-0.565 -2.565,-0.848 -4.398,-0.848 -1.741,0 -3.196,0.206 -4.362,0.621 -1.165,0.414 -2.051,1.096 -2.656,2.045 -0.607,0.948 -0.909,1.987 -0.909,3.116 z" /><path
       inkscape:connector-curvature="0"
       id="path132"
       style="fill:#17738e;fill-opacity:1;fill-rule:nonzero;stroke:none"
       d="m 130.0483,139.7983 h -3.034 v 23.303 h 3.034 v -10.375 h 10.705 v 10.375 h 3.033 v -23.303 h -3.033 v 10.601 h -10.705 z" /><path
       inkscape:connector-curvature="0"
       id="path136"
       style="fill:#17738e;fill-opacity:1;fill-rule:nonzero;stroke:none"
       d="m 155.542,139.7983 h -3.077 l -5.285,23.303 h 2.897 l 3.707,-16.412 0.514,-2.808 h 0.135 l 0.507,2.808 4.265,16.412 h 3.004 l 4.144,-16.457 0.498,-2.763 h 0.139 l 0.49,2.763 3.826,16.457 h 2.659 l -5.422,-23.303 h -3.078 l -4.205,16.711 -0.621,2.852 h -0.167 l -0.587,-2.852 z" /><path
       inkscape:connector-curvature="0"
       id="path140"
       style="fill:#17738e;fill-opacity:1;fill-rule:nonzero;stroke:none"
       d="m 180.3613,142.3657 h 3.579 c 2.134,0 3.745,0.312 4.833,0.939 1.087,0.626 1.919,1.607 2.494,2.944 0.578,1.339 0.865,3.019 0.865,5.042 0,2.024 -0.261,3.764 -0.789,5.223 -0.525,1.456 -1.327,2.531 -2.405,3.222 -1.077,0.692 -2.768,1.038 -5.074,1.038 h -3.503 z m -3.033,-2.567 v 23.302 h 6.442 c 3.131,0 5.425,-0.426 6.877,-1.277 1.452,-0.85 2.584,-2.149 3.401,-3.895 0.817,-1.748 1.223,-3.877 1.223,-6.39 0,-2.352 -0.367,-4.391 -1.102,-6.118 -0.738,-1.727 -1.851,-3.096 -3.342,-4.106 -1.492,-1.012 -3.704,-1.516 -6.637,-1.516 z" /><path
       inkscape:connector-curvature="0"
       id="path144"
       style="fill:#17738e;fill-opacity:1;fill-rule:nonzero;stroke:none"
       d="m 201.0039,149.9326 h 8.817 v 0.331 c 0,0.78 -0.182,1.539 -0.547,2.274 -0.367,0.735 -0.87,1.281 -1.513,1.636 -0.645,0.356 -1.395,0.534 -2.254,0.534 -1.014,0 -1.949,-0.418 -2.807,-1.254 -0.859,-0.835 -1.425,-2.009 -1.696,-3.521 m 8.593,-5.826 h 2.793 v -0.15 c 0,-0.741 -0.291,-1.496 -0.873,-2.266 -0.58,-0.772 -1.347,-1.358 -2.302,-1.758 -0.955,-0.4 -2.054,-0.601 -3.295,-0.601 -2.51,0 -4.445,0.826 -5.811,2.478 -1.361,1.651 -2.043,3.739 -2.043,6.262 0,2.582 0.72,4.721 2.162,6.418 1.443,1.696 3.302,2.546 5.577,2.546 1.25,0 2.383,-0.277 3.396,-0.827 1.015,-0.551 1.817,-1.408 2.408,-2.575 0.59,-1.166 0.885,-2.79 0.885,-4.872 v -0.931 h -11.665 c 0,-1.792 0.47,-3.268 1.409,-4.43 0.94,-1.16 2.244,-1.74 3.911,-1.74 1.197,0 2.071,0.237 2.622,0.712 0.548,0.475 0.826,1.003 0.826,1.584 z" /><path
       inkscape:connector-curvature="0"
       id="path148"
       style="fill:#17738e;fill-opacity:1;fill-rule:nonzero;stroke:none"
       d="m 219.3701,139.7983 h -2.792 v 16.771 h 2.792 v -3.034 c 0.57,1.012 1.114,1.738 1.629,2.178 0.517,0.44 1.079,0.771 1.689,0.991 0.612,0.22 1.262,0.331 1.953,0.331 0.691,0 1.35,-0.108 1.981,-0.324 0.632,-0.215 1.177,-0.538 1.638,-0.968 0.459,-0.431 0.916,-1.166 1.367,-2.208 0.569,0.972 1.132,1.684 1.688,2.141 0.555,0.455 1.126,0.794 1.711,1.02 0.586,0.226 1.207,0.339 1.868,0.339 0.951,0 1.813,-0.224 2.583,-0.669 0.772,-0.445 1.365,-1.078 1.78,-1.899 0.415,-0.822 0.624,-2.217 0.624,-4.19 v -10.479 h -2.794 v 9.324 c 0,1.972 -0.116,3.218 -0.354,3.738 -0.235,0.52 -0.562,0.918 -0.978,1.194 -0.416,0.275 -0.921,0.413 -1.511,0.413 -0.833,0 -1.601,-0.257 -2.302,-0.773 -0.703,-0.517 -1.262,-1.209 -1.684,-2.08 -0.421,-0.871 -0.631,-2.091 -0.631,-3.663 v -8.153 h -2.794 v 9.314 c 0,1.97 -0.109,3.215 -0.323,3.735 -0.216,0.52 -0.56,0.919 -1.029,1.2 -0.471,0.279 -0.974,0.42 -1.516,0.42 -0.762,0 -1.51,-0.266 -2.244,-0.796 -0.737,-0.53 -1.313,-1.239 -1.728,-2.124 -0.416,-0.887 -0.623,-2.086 -0.623,-3.596 z" /><path
       inkscape:connector-curvature="0"
       id="path152"
       style="fill:#17738e;fill-opacity:1;fill-rule:nonzero;stroke:none"
       d="m 250.832,144.9736 1.33,-0.229 v -4.902 c -0.351,0.039 -0.662,0.116 -0.932,0.23 -0.269,0.116 -0.513,0.274 -0.737,0.473 -0.223,0.201 -0.433,0.434 -0.628,0.701 -0.196,0.267 -0.433,0.626 -0.713,1.077 -0.007,0.011 -0.057,0.093 -0.153,0.245 -0.095,0.151 -0.182,0.289 -0.262,0.412 -0.078,0.124 -0.147,0.225 -0.204,0.304 -0.328,0.385 -0.696,0.578 -1.101,0.578 h -0.168 c -0.13,-0.018 -0.255,-0.078 -0.373,-0.18 -0.12,-0.102 -0.179,-0.281 -0.179,-0.539 v -0.061 c 0,-0.254 0.093,-0.491 0.277,-0.711 0.184,-0.22 0.508,-0.346 0.973,-0.377 v -1.531 c -0.376,0.043 -0.743,0.152 -1.105,0.326 -0.362,0.175 -0.675,0.471 -0.939,0.889 -0.264,0.419 -0.396,0.978 -0.396,1.675 v 0.059 c 0,0.248 0.034,0.527 0.101,0.838 0.068,0.311 0.223,0.601 0.467,0.869 0.245,0.27 0.603,0.403 1.073,0.403 0.033,0 0.093,-0.003 0.179,-0.009 0.086,-0.006 0.148,-0.01 0.19,-0.01 0.301,-0.041 0.562,-0.116 0.782,-0.229 0.221,-0.111 0.413,-0.25 0.576,-0.418 0.16,-0.166 0.301,-0.347 0.422,-0.543 0.123,-0.196 0.265,-0.456 0.432,-0.78 0.062,-0.101 0.117,-0.198 0.167,-0.296 0.05,-0.098 0.11,-0.216 0.182,-0.354 0.153,-0.298 0.282,-0.508 0.39,-0.632 0.11,-0.124 0.227,-0.211 0.349,-0.257 z" /><path
       inkscape:connector-curvature="0"
       id="path156"
       style="fill:#17738e;fill-opacity:1;fill-rule:nonzero;stroke:none"
       d="m 248.9043,148.1455 c 0.295,-0.054 0.515,-0.088 0.659,-0.1 0.046,0 0.107,-0.004 0.178,-0.011 0.072,-0.008 0.123,-0.013 0.152,-0.013 0.357,0 0.646,0.07 0.867,0.204 0.222,0.134 0.334,0.356 0.334,0.659 0,0.643 -0.51,1.079 -1.531,1.309 -0.104,0.021 -0.218,0.045 -0.342,0.07 -0.123,0.025 -0.229,0.045 -0.317,0.06 -0.168,0.03 -0.379,0.056 -0.633,0.08 h -0.369 c -0.343,0 -0.62,-0.065 -0.832,-0.195 -0.211,-0.131 -0.318,-0.338 -0.318,-0.625 v -0.02 c 0,-0.651 0.507,-1.087 1.519,-1.308 0.166,-0.051 0.378,-0.088 0.633,-0.11 m 3.379,0.539 c 0,-0.203 -0.021,-0.415 -0.063,-0.637 -0.039,-0.221 -0.135,-0.456 -0.289,-0.704 -0.154,-0.248 -0.391,-0.458 -0.718,-0.628 -0.326,-0.17 -0.752,-0.261 -1.281,-0.272 -0.013,0 -0.031,-0.003 -0.053,-0.009 -0.024,-0.008 -0.042,-0.01 -0.057,-0.01 -0.447,0 -0.915,0.058 -1.407,0.176 -0.493,0.116 -0.959,0.305 -1.4,0.566 -0.44,0.26 -0.799,0.607 -1.075,1.04 -0.278,0.433 -0.418,0.952 -0.418,1.558 0,0.524 0.15,1.025 0.443,1.505 0.293,0.479 0.935,0.73 1.918,0.755 h 0.139 c 0.451,0 0.921,-0.058 1.406,-0.173 0.487,-0.114 0.947,-0.301 1.384,-0.56 0.434,-0.258 0.788,-0.605 1.061,-1.041 0.273,-0.435 0.41,-0.957 0.41,-1.566" /><path
       inkscape:connector-curvature="0"
       id="path160"
       style="fill:#17738e;fill-opacity:1;fill-rule:nonzero;stroke:none"
       d="m 247.6934,153.4844 -0.882,0.14 c 0,0.007 0.004,0.018 0.011,0.032 0.008,0.014 0.012,0.023 0.012,0.028 0,0.408 -0.101,0.797 -0.301,1.166 -0.202,0.369 -0.498,0.629 -0.891,0.782 v 1.211 l 1.42,-0.229 5.1,-0.792 v -1.638 l -4.469,0.709 z" /><path
       inkscape:connector-curvature="0"
       id="path164"
       style="fill:#17738e;fill-opacity:1;fill-rule:nonzero;stroke:none"
       d="m 247.0029,158.2251 -1.36,0.22 v 4.66 l 1.23,-0.171 c 0.349,-0.375 0.727,-0.72 1.137,-1.032 0.411,-0.313 0.845,-0.592 1.305,-0.837 0.459,-0.244 0.93,-0.449 1.411,-0.615 0.483,-0.167 0.962,-0.288 1.436,-0.365 v -1.702 c -0.71,0.147 -1.389,0.381 -2.041,0.697 -0.647,0.319 -1.23,0.673 -1.747,1.062 -0.517,0.389 -0.973,0.786 -1.371,1.193 z" /><g
       aria-label="by BricoLabs"
       transform="matrix(1,0,0,-1,197.9619,130.5215)"
       style="font-style:italic;font-variant:normal;font-weight:bold;font-stretch:normal;font-size:9.39999962px;font-family:'Averia Serif';-inkscape-font-specification:AveriaSerif-BoldItalic;writing-mode:lr-tb;fill:#34aace;fill-opacity:1;fill-rule:nonzero;stroke:none"
       id="text168"><path
         d="m 3.81416,-4.0711912 q -0.6333984,0 -1.0373046,0.5874999 -0.3993164,0.5829102 -0.3993164,1.5192383 0,0.4222656 0.2249023,0.6655273 0.2294922,0.2386718 0.6333984,0.2386718 0.6196289,0 1.0235351,-0.5737304 0.4039063,-0.5783203 0.4039063,-1.4779296 0,-0.4681641 -0.2203125,-0.7114258 Q 4.2272459,-4.0711912 3.81416,-4.0711912 Z M 2.0883788,-0.74355466 1.936914,0 H 0.28916014 L 1.6752929,-7.1417966 h 1.6523437 l -0.5370117,2.7539062 q 0.3763672,-0.4498047 0.7894531,-0.6609375 0.4130859,-0.2157227 0.9041992,-0.2157227 0.8674804,0 1.3723632,0.5507813 0.5048828,0.5507812 0.5048828,1.5008788 0,0.5920898 -0.1790039,1.1520507 -0.1744141,0.559961 -0.5048828,1.0189453 -0.4176758,0.5783203 -0.9455078,0.87666013 -0.5232422,0.29833983 -1.1245117,0.29833983 -0.527832,0 -0.8996093,-0.2111328 -0.3671875,-0.21572265 -0.6196289,-0.66552732 z"
         id="path4389"
         inkscape:connector-curvature="0" /><path
         d="M 5.6035089,-5.1406248 H 7.154876 l 0.706836,3.5617186 1.8221679,-3.5617186 H 11.44179 L 8.1875909,0.48652342 Q 7.6413995,1.436621 7.1778253,1.730371 6.7142511,2.0287109 5.9798761,2.0287109 H 4.98388 L 5.1537043,0.95009762 h 0.5186523 q 0.4039062,0 0.6242187,-0.13769531 Q 6.5214776,0.67929685 6.6958917,0.33964842 L 6.8473565,0.06425781 Z"
         id="path4391"
         inkscape:connector-curvature="0" /><path
         d="m 15.971561,-4.1997069 q 0.472754,0 0.738965,-0.2386718 0.266211,-0.2386719 0.266211,-0.6563477 0,-0.2708007 -0.188183,-0.4130859 -0.183594,-0.1422851 -0.532422,-0.1422851 h -0.986817 l -0.28457,1.4503905 z m -0.523242,2.9971679 q 0.60586,0 0.931739,-0.2891602 0.325878,-0.2891601 0.325878,-0.8307616 0,-0.3442383 -0.224902,-0.5094727 -0.224902,-0.1652343 -0.688476,-0.1652343 h -1.041895 l -0.348828,1.7946288 z m 2.092969,-2.464746 q 0.449805,0.1285156 0.693066,0.4727539 0.247852,0.3396484 0.247852,0.8445312 0,1.1061523 -0.826172,1.73037102 Q 16.834452,0 15.342753,0 h -2.93291 l 1.335644,-6.8526364 h 2.64834 q 1.220898,0 1.803809,0.3580078 0.5875,0.3580078 0.5875,1.1061523 0,0.6288085 -0.344239,1.1061523 -0.344238,0.4727538 -0.899609,0.615039 z"
         id="path4393"
         inkscape:connector-curvature="0" /><path
         d="m 22.986386,-3.7407225 q -0.169825,-0.096387 -0.376368,-0.146875 -0.206543,-0.050488 -0.445214,-0.050488 -0.628809,0 -1.046485,0.4039063 -0.413086,0.4039062 -0.559961,1.1658202 L 20.090194,0 H 18.44244 l 1.000586,-5.1406248 h 1.652344 l -0.179004,0.88125 q 0.325879,-0.4865234 0.812402,-0.7435547 0.491114,-0.2616211 1.087793,-0.2616211 0.08721,0 0.197364,0.00918 0.110156,0.00918 0.261621,0.027539 z"
         id="path4395"
         inkscape:connector-curvature="0" /><path
         d="m 23.399485,-5.1406248 h 1.652344 L 24.046653,0 h -1.647754 z m 0.385547,-2.0011718 h 1.652344 l -0.261621,1.3402343 h -1.656934 z"
         id="path4397"
         inkscape:connector-curvature="0" /><path
         d="m 30.532654,-4.9799803 -0.261621,1.3402344 q -0.330469,-0.2203125 -0.651758,-0.3350586 -0.321289,-0.1147461 -0.628809,-0.1147461 -0.803222,0 -1.312695,0.5416015 -0.509473,0.5370117 -0.509473,1.3769531 0,0.5370117 0.316699,0.8353515 0.3167,0.29375 0.89502,0.29375 0.385547,0 0.757324,-0.1147461 0.371777,-0.1147461 0.706836,-0.3396484 l -0.252441,1.34482416 q -0.408496,0.14228515 -0.821582,0.21113281 -0.413086,0.07343749 -0.830762,0.07343749 -1.211719,0 -1.868066,-0.54160154 -0.651758,-0.54619138 -0.651758,-1.54677732 0,-0.6288085 0.238672,-1.2208983 0.243261,-0.5920899 0.693066,-1.0648438 0.500293,-0.5186523 1.147461,-0.7710937 0.647168,-0.2524414 1.491699,-0.2524414 0.390137,0 0.775684,0.073437 0.385547,0.068848 0.766504,0.2111333 z"
         id="path4399"
         inkscape:connector-curvature="0" /><path
         d="m 32.72704,-4.0895506 q -0.637989,0 -1.051075,0.5783203 -0.413086,0.5783203 -0.413086,1.4733398 0,0.4865234 0.220313,0.7435546 0.224902,0.2524414 0.651758,0.2524414 0.637988,0 1.051074,-0.5783203 0.413086,-0.5829101 0.413086,-1.4825194 0,-0.4819336 -0.224902,-0.734375 -0.220313,-0.2524414 -0.647168,-0.2524414 z m 0.133105,-1.175 q 1.147461,0 1.803809,0.5829102 0.656347,0.5829101 0.656347,1.5880858 0,0.5829102 -0.206543,1.1336914 -0.206543,0.5461914 -0.601269,1.0005859 -0.468164,0.54160154 -1.106153,0.81699215 -0.637988,0.27539061 -1.422851,0.27539061 -1.133691,0 -1.790039,-0.58291013 -0.651758,-0.58291013 -0.651758,-1.58808583 0,-0.5783203 0.211133,-1.1291016 0.211133,-0.555371 0.605859,-1.0143554 0.458985,-0.5324218 1.092383,-0.8078125 0.637988,-0.2753906 1.409082,-0.2753906 z"
         id="path4401"
         inkscape:connector-curvature="0" /><path
         d="m 35.510249,-6.8526364 h 1.76709 l -1.074023,5.5169919 H 39.29687 L 39.044429,0 h -4.869824 z"
         id="path4403"
         inkscape:connector-curvature="0" /><path
         d="m 42.528434,-2.3132812 q -0.615039,0 -0.931738,0.1927735 -0.31211,0.1881836 -0.31211,0.5599609 0,0.2799804 0.183594,0.440625 0.188184,0.1606445 0.514062,0.1606445 0.504883,0 0.844532,-0.3029297 0.339648,-0.3075195 0.454394,-0.8628906 l 0.03672,-0.1881836 z M 45.094156,-2.93291 44.520426,0 h -1.643164 l 0.137695,-0.76191403 q -0.403906,0.45898435 -0.853711,0.67929685 -0.449804,0.21572264 -0.977636,0.21572264 -0.729785,0 -1.161231,-0.37636717 -0.426855,-0.38095701 -0.426855,-1.02353509 0,-0.9822265 0.757324,-1.5008789 0.761914,-0.5232421 2.193945,-0.5232421 h 0.968457 l 0.01836,-0.1285157 q 0.01377,-0.064258 0.01377,-0.091797 0.0046,-0.027539 0.0046,-0.050488 0,-0.3029297 -0.28916,-0.4543945 -0.28457,-0.1560547 -0.849121,-0.1560547 -0.509473,0 -0.986817,0.1055664 -0.477343,0.1055664 -0.922558,0.3166992 l 0.247851,-1.2530273 q 0.514063,-0.1285156 1.051075,-0.1927734 0.541601,-0.068848 1.119921,-0.068848 1.142871,0 1.698243,0.3947266 0.555371,0.3901367 0.555371,1.1933593 0,0.1560547 -0.02295,0.3442383 -0.01836,0.1835937 -0.05967,0.3993164 z"
         id="path4405"
         inkscape:connector-curvature="0" /><path
         d="m 48.353242,-4.0711912 q -0.633399,0 -1.037305,0.5874999 -0.399316,0.5829102 -0.399316,1.5192383 0,0.4222656 0.224902,0.6655273 0.229492,0.2386718 0.633398,0.2386718 0.619629,0 1.023535,-0.5737304 0.403907,-0.5783203 0.403907,-1.4779296 0,-0.4681641 -0.220313,-0.7114258 -0.215723,-0.2478515 -0.628808,-0.2478515 z M 46.62746,-0.74355466 46.475996,0 h -1.647754 l 1.386132,-7.1417966 h 1.652344 l -0.537012,2.7539062 q 0.376368,-0.4498047 0.789454,-0.6609375 0.413085,-0.2157227 0.904199,-0.2157227 0.86748,0 1.372363,0.5507813 0.504883,0.5507812 0.504883,1.5008788 0,0.5920898 -0.179004,1.1520507 -0.174414,0.559961 -0.504883,1.0189453 -0.417676,0.5783203 -0.945508,0.87666013 -0.523242,0.29833983 -1.124511,0.29833983 -0.527832,0 -0.89961,-0.2111328 -0.367187,-0.21572265 -0.619629,-0.66552732 z"
         id="path4407"
         inkscape:connector-curvature="0" /><path
         d="m 54.804429,-4.9799803 -0.243261,1.2759765 q -0.481934,-0.2294921 -0.959278,-0.3488281 -0.477343,-0.1193359 -0.904199,-0.1193359 -0.486523,0 -0.752734,0.1285156 -0.261621,0.1239258 -0.261621,0.3580078 0,0.1376953 0.146875,0.2203125 0.146875,0.082617 0.57832,0.1744141 l 0.29834,0.055078 q 0.995996,0.2111328 1.395312,0.5461914 0.399317,0.3304687 0.399317,0.9225585 0,0.89501952 -0.702246,1.39990231 -0.702246,0.50029295 -1.964453,0.50029295 -0.527832,0 -1.078614,-0.08261718 -0.550781,-0.08261718 -1.124511,-0.24785155 l 0.247851,-1.28974603 q 0.445215,0.2616211 0.950098,0.3947265 0.509473,0.1331055 1.041894,0.1331055 0.518653,0 0.780274,-0.1239258 0.261621,-0.1239258 0.261621,-0.3625976 0,-0.1652344 -0.146875,-0.2570313 -0.146875,-0.091797 -0.605859,-0.1881835 l -0.29834,-0.055078 q -0.88125,-0.1835937 -1.257617,-0.5416015 -0.376368,-0.3580078 -0.376368,-0.9914062 0,-0.8583008 0.647168,-1.321875 0.651758,-0.4635742 1.858887,-0.4635742 0.527832,0 1.037305,0.073437 0.514062,0.068848 1.032714,0.2111332 z"
         id="path4409"
         inkscape:connector-curvature="0" /></g><g
       id="g170"><g
         id="g172"
         clip-path="url(#clipPath176)"><g
           id="g178"
           transform="translate(78.8213,99.3755)"><path
             d="M 0,0 V 7.052 H 3.985 V 6.275 H 0.918 V 3.844 H 3.6 V 3.139 H 0.918 V 0 Z"
             style="fill:#34aace;fill-opacity:1;fill-rule:nonzero;stroke:none"
             id="path180"
             inkscape:connector-curvature="0" /></g><g
           id="g182"
           transform="translate(84.6143,102.4429)"><path
             d="m 0,0 h 2.668 v 0.099 c 0,0.237 -0.056,0.466 -0.166,0.69 C 2.392,1.01 2.239,1.176 2.045,1.284 1.85,1.391 1.623,1.445 1.364,1.445 1.057,1.445 0.772,1.317 0.513,1.065 0.254,0.812 0.082,0.458 0,0 M 2.601,-1.764 H 3.446 V -1.809 C 3.446,-2.034 3.357,-2.261 3.182,-2.495 3.006,-2.729 2.774,-2.907 2.485,-3.026 2.196,-3.147 1.864,-3.208 1.488,-3.208 c -0.759,0 -1.345,0.25 -1.759,0.749 -0.412,0.5 -0.619,1.132 -0.619,1.895 0,0.783 0.219,1.43 0.656,1.942 0.436,0.515 0.999,0.771 1.687,0.771 0.378,0 0.72,-0.083 1.028,-0.25 C 2.788,1.733 3.03,1.474 3.209,1.119 3.388,0.768 3.478,0.276 3.478,-0.355 v -0.282 h -3.531 c 0,-0.542 0.141,-0.988 0.427,-1.341 0.285,-0.351 0.679,-0.526 1.182,-0.526 0.363,0 0.628,0.071 0.795,0.215 0.165,0.143 0.25,0.304 0.25,0.48 z"
             style="fill:#34aace;fill-opacity:1;fill-rule:nonzero;stroke:none"
             id="path184"
             inkscape:connector-curvature="0" /></g><g
           id="g186"
           transform="translate(92.4575,99.3755)"><path
             d="M 0,0 H -0.847 V 5.076 H 0 V 4.18 c 0.142,0.258 0.297,0.459 0.467,0.6 0.169,0.144 0.351,0.252 0.54,0.325 0.192,0.075 0.386,0.111 0.585,0.111 0.179,0 0.335,-0.025 0.466,-0.077 V 4.263 C 1.853,4.359 1.636,4.408 1.406,4.408 1.079,4.408 0.764,4.269 0.458,3.99 0.152,3.711 0,3.218 0,2.507 Z"
             style="fill:#34aace;fill-opacity:1;fill-rule:nonzero;stroke:none"
             id="path188"
             inkscape:connector-curvature="0" /></g><path
           d="m 89.325,104.451 h 0.845 v -5.076 h -0.845 z m 0,1.976 h 0.845 v -0.849 h -0.845 z"
           style="fill:#34aace;fill-opacity:1;fill-rule:nonzero;stroke:none"
           id="path190"
           inkscape:connector-curvature="0" /><g
           id="g192"
           transform="translate(98.0264,101.9336)"><path
             d="m 0,0 -0.247,-0.064 c -0.826,-0.208 -1.354,-0.407 -1.585,-0.594 -0.231,-0.187 -0.346,-0.41 -0.346,-0.67 0,-0.134 0.035,-0.258 0.102,-0.372 0.07,-0.115 0.172,-0.205 0.305,-0.268 0.134,-0.063 0.268,-0.096 0.399,-0.096 0.227,0 0.452,0.07 0.672,0.208 0.221,0.137 0.393,0.32 0.516,0.55 C -0.062,-1.076 0,-0.809 0,-0.502 Z M 0.13,-2.558 C 0.042,-2.285 0,-2.051 0,-1.854 c -0.361,-0.366 -0.668,-0.6 -0.925,-0.698 -0.254,-0.097 -0.499,-0.147 -0.732,-0.147 -0.393,0 -0.73,0.122 -1.012,0.369 -0.281,0.247 -0.422,0.586 -0.422,1.019 0,0.49 0.198,0.869 0.594,1.135 0.398,0.265 1.081,0.495 2.053,0.69 L 0,0.6 V 1.173 C 0,1.485 -0.102,1.703 -0.302,1.829 -0.504,1.955 -0.747,2.018 -1.03,2.018 -1.368,2.018 -1.632,1.941 -1.822,1.787 -2.01,1.631 -2.105,1.451 -2.105,1.246 V 1.173 h -0.918 v 0.068 c 0,0.223 0.092,0.456 0.279,0.695 0.184,0.239 0.431,0.419 0.738,0.542 0.307,0.119 0.643,0.18 1.008,0.18 0.362,0 0.691,-0.057 0.987,-0.172 C 0.285,2.371 0.503,2.216 0.639,2.021 0.776,1.826 0.844,1.457 0.844,0.919 v -1.97 c 0,-0.215 0.005,-0.441 0.015,-0.678 0.011,-0.239 0.065,-0.516 0.161,-0.829 z"
             style="fill:#34aace;fill-opacity:1;fill-rule:nonzero;stroke:none"
             id="path194"
             inkscape:connector-curvature="0" /></g><g
           id="g196"
           transform="translate(106.8872,101.915)"><path
             d="m 0,0 c 0,0.576 -0.127,1.049 -0.377,1.418 -0.252,0.371 -0.607,0.555 -1.059,0.555 -0.418,0 -0.765,-0.162 -1.041,-0.491 -0.276,-0.326 -0.415,-0.815 -0.415,-1.468 0,-0.761 0.135,-1.287 0.401,-1.585 0.267,-0.295 0.612,-0.442 1.031,-0.442 0.273,0 0.528,0.082 0.762,0.245 0.235,0.164 0.409,0.405 0.524,0.724 C -0.059,-0.727 0,-0.379 0,0 M 0,4.794 H 0.845 V -2.54 H 0 v 0.881 c -0.176,-0.327 -0.346,-0.553 -0.511,-0.68 -0.164,-0.128 -0.351,-0.216 -0.557,-0.267 -0.206,-0.05 -0.411,-0.074 -0.611,-0.074 -0.387,0 -0.742,0.105 -1.065,0.315 -0.325,0.211 -0.578,0.525 -0.758,0.942 -0.18,0.419 -0.27,0.889 -0.27,1.409 0,0.773 0.188,1.415 0.564,1.926 0.375,0.51 0.9,0.765 1.573,0.765 0.221,0 0.427,-0.031 0.619,-0.092 C -0.822,2.522 -0.65,2.43 -0.5,2.307 -0.348,2.184 -0.182,1.964 0,1.649 Z"
             style="fill:#34aace;fill-opacity:1;fill-rule:nonzero;stroke:none"
             id="path198"
             inkscape:connector-curvature="0" /></g><g
           id="g200"
           transform="translate(109.6084,102.4429)"><path
             d="m 0,0 h 2.668 v 0.099 c 0,0.237 -0.056,0.466 -0.166,0.69 C 2.39,1.01 2.237,1.176 2.043,1.284 1.848,1.391 1.621,1.445 1.361,1.445 1.055,1.445 0.772,1.317 0.512,1.065 0.251,0.812 0.081,0.458 0,0 M 2.598,-1.764 H 3.444 V -1.809 C 3.444,-2.034 3.355,-2.261 3.181,-2.495 3.005,-2.729 2.773,-2.907 2.484,-3.026 2.195,-3.147 1.862,-3.208 1.486,-3.208 c -0.758,0 -1.346,0.25 -1.757,0.749 -0.413,0.5 -0.62,1.132 -0.62,1.895 0,0.783 0.217,1.43 0.654,1.942 0.438,0.515 1.001,0.771 1.688,0.771 0.38,0 0.721,-0.083 1.028,-0.25 C 2.786,1.733 3.029,1.474 3.208,1.119 3.386,0.768 3.476,0.276 3.476,-0.355 v -0.282 h -3.531 c 0,-0.542 0.142,-0.988 0.427,-1.341 0.285,-0.351 0.68,-0.526 1.183,-0.526 0.363,0 0.627,0.071 0.794,0.215 0.167,0.143 0.249,0.304 0.249,0.48 z"
             style="fill:#34aace;fill-opacity:1;fill-rule:nonzero;stroke:none"
             id="path202"
             inkscape:connector-curvature="0" /></g><g
           id="g204"
           transform="translate(119.2959,99.3755)"><path
             d="M 0,0 V 6.348 H -2.398 V 7.052 H 3.28 V 6.348 H 0.918 V 0 Z"
             style="fill:#34aace;fill-opacity:1;fill-rule:nonzero;stroke:none"
             id="path206"
             inkscape:connector-curvature="0" /></g><g
           id="g208"
           transform="translate(124.0254,102.4429)"><path
             d="m 0,0 h 2.668 v 0.099 c 0,0.237 -0.056,0.466 -0.165,0.69 C 2.392,1.01 2.238,1.176 2.044,1.284 1.851,1.391 1.621,1.445 1.362,1.445 1.056,1.445 0.772,1.317 0.513,1.065 0.253,0.812 0.081,0.458 0,0 M 2.6,-1.764 H 3.445 V -1.809 C 3.445,-2.034 3.356,-2.261 3.182,-2.495 3.006,-2.729 2.773,-2.907 2.484,-3.026 2.194,-3.147 1.863,-3.208 1.488,-3.208 c -0.76,0 -1.346,0.25 -1.759,0.749 -0.414,0.5 -0.619,1.132 -0.619,1.895 0,0.783 0.219,1.43 0.654,1.942 0.438,0.515 1,0.771 1.688,0.771 0.379,0 0.722,-0.083 1.027,-0.25 C 2.787,1.733 3.031,1.474 3.21,1.119 3.388,0.768 3.476,0.276 3.476,-0.355 v -0.282 h -3.53 c 0,-0.542 0.142,-0.988 0.427,-1.341 0.285,-0.351 0.679,-0.526 1.184,-0.526 0.362,0 0.625,0.071 0.793,0.215 0.166,0.143 0.25,0.304 0.25,0.48 z"
             style="fill:#34aace;fill-opacity:1;fill-rule:nonzero;stroke:none"
             id="path210"
             inkscape:connector-curvature="0" /></g><g
           id="g212"
           transform="translate(131.9453,100.6787)"><path
             d="m 0,0 h 0.85 v -0.045 c 0,-0.227 -0.084,-0.456 -0.257,-0.685 -0.174,-0.231 -0.399,-0.408 -0.679,-0.531 -0.279,-0.122 -0.617,-0.183 -1.011,-0.183 -0.755,0 -1.335,0.236 -1.744,0.711 -0.407,0.474 -0.612,1.13 -0.612,1.969 0,0.837 0.205,1.491 0.612,1.966 0.409,0.476 0.989,0.711 1.744,0.711 0.394,0 0.732,-0.061 1.011,-0.183 C 0.194,3.606 0.419,3.438 0.593,3.225 0.766,3.012 0.85,2.774 0.85,2.514 V 2.469 H 0 V 2.514 C 0.011,2.699 -0.072,2.861 -0.245,3 -0.419,3.139 -0.686,3.209 -1.05,3.209 -1.479,3.209 -1.841,3.054 -2.133,2.741 -2.425,2.429 -2.57,1.928 -2.57,1.236 c 0,-0.693 0.145,-1.195 0.437,-1.508 0.292,-0.311 0.654,-0.468 1.083,-0.468 0.364,0 0.63,0.07 0.797,0.209 C -0.084,-0.393 0,-0.229 0,-0.045 Z"
             style="fill:#34aace;fill-opacity:1;fill-rule:nonzero;stroke:none"
             id="path214"
             inkscape:connector-curvature="0" /></g><g
           id="g216"
           transform="translate(134.6592,99.3755)"><path
             d="M 0,0 H -0.845 V 5.076 H 0 V 4.199 c 0.18,0.276 0.353,0.48 0.522,0.612 0.167,0.135 0.342,0.235 0.526,0.303 0.183,0.068 0.387,0.102 0.61,0.102 0.318,0 0.605,-0.065 0.857,-0.195 C 2.768,4.891 2.967,4.699 3.103,4.445 3.243,4.192 3.313,3.788 3.313,3.231 V 0 H 2.468 v 2.867 c 0,0.455 -0.03,0.777 -0.09,0.966 C 2.315,4.021 2.197,4.171 2.023,4.279 1.847,4.385 1.656,4.439 1.45,4.439 1.202,4.439 0.966,4.366 0.741,4.222 0.517,4.077 0.339,3.873 0.202,3.613 0.067,3.352 0,2.979 0,2.494 Z"
             style="fill:#34aace;fill-opacity:1;fill-rule:nonzero;stroke:none"
             id="path218"
             inkscape:connector-curvature="0" /></g><g
           id="g220"
           transform="translate(141.3994,99.9385)"><path
             d="m 0,0 c 0.453,0 0.819,0.18 1.095,0.542 0.278,0.362 0.416,0.84 0.416,1.435 0,0.591 -0.138,1.066 -0.416,1.429 C 0.819,3.768 0.453,3.95 0,3.95 -0.459,3.95 -0.824,3.768 -1.102,3.406 -1.381,3.043 -1.52,2.568 -1.52,1.977 -1.52,1.382 -1.381,0.904 -1.102,0.542 -0.824,0.18 -0.459,0 0,0 m 0,-0.704 c -0.662,0 -1.229,0.225 -1.697,0.674 -0.47,0.449 -0.704,1.12 -0.704,2.007 0,0.884 0.234,1.552 0.704,2.001 0.468,0.45 1.035,0.675 1.697,0.675 0.66,0 1.225,-0.225 1.69,-0.675 C 2.159,3.529 2.396,2.861 2.396,1.977 2.396,1.09 2.159,0.419 1.69,-0.03 1.225,-0.479 0.66,-0.704 0,-0.704"
             style="fill:#34aace;fill-opacity:1;fill-rule:nonzero;stroke:none"
             id="path222"
             inkscape:connector-curvature="0" /></g><path
           d="m 145.731,99.375 h -0.846 v 7.333 h 0.846 z"
           style="fill:#34aace;fill-opacity:1;fill-rule:nonzero;stroke:none"
           id="path224"
           inkscape:connector-curvature="0" /><g
           id="g226"
           transform="translate(149.2227,99.9385)"><path
             d="m 0,0 c 0.456,0 0.82,0.18 1.099,0.542 0.277,0.362 0.416,0.84 0.416,1.435 0,0.591 -0.139,1.066 -0.416,1.429 C 0.82,3.768 0.456,3.95 0,3.95 -0.456,3.95 -0.823,3.768 -1.1,3.406 -1.377,3.043 -1.518,2.568 -1.518,1.977 -1.518,1.382 -1.377,0.904 -1.1,0.542 -0.823,0.18 -0.456,0 0,0 m 0,-0.704 c -0.663,0 -1.229,0.225 -1.696,0.674 -0.467,0.449 -0.703,1.12 -0.703,2.007 0,0.884 0.236,1.552 0.703,2.001 0.467,0.45 1.033,0.675 1.696,0.675 0.661,0 1.225,-0.225 1.693,-0.675 C 2.161,3.529 2.395,2.861 2.395,1.977 2.395,1.09 2.161,0.419 1.693,-0.03 1.225,-0.479 0.661,-0.704 0,-0.704"
             style="fill:#34aace;fill-opacity:1;fill-rule:nonzero;stroke:none"
             id="path228"
             inkscape:connector-curvature="0" /></g><g
           id="g230"
           transform="translate(153.1689,99.3755)"><path
             d="M 0,0 H -0.884 L 0.88,2.571 -0.778,5.076 h 0.97 L 1.373,3.295 2.595,5.076 H 3.471 L 1.808,2.641 3.557,0 H 2.579 L 1.312,1.917 Z"
             style="fill:#34aace;fill-opacity:1;fill-rule:nonzero;stroke:none"
             id="path232"
             inkscape:connector-curvature="0" /></g><path
           d="m 157.643,104.451 h 0.846 v -5.076 h -0.846 z m -0.717,0.777 1.341,1.481 h 0.984 l -1.554,-1.481 z"
           style="fill:#34aace;fill-opacity:1;fill-rule:nonzero;stroke:none"
           id="path234"
           inkscape:connector-curvature="0" /><g
           id="g236"
           transform="translate(162.7471,101.9336)"><path
             d="m 0,0 -0.245,-0.064 c -0.824,-0.208 -1.356,-0.407 -1.585,-0.594 -0.233,-0.187 -0.346,-0.41 -0.346,-0.67 0,-0.134 0.035,-0.258 0.101,-0.372 0.067,-0.115 0.171,-0.205 0.304,-0.268 0.133,-0.063 0.271,-0.096 0.401,-0.096 0.225,0 0.45,0.07 0.67,0.208 0.221,0.137 0.393,0.32 0.516,0.55 C -0.062,-1.076 0,-0.809 0,-0.502 Z M 0.132,-2.558 C 0.045,-2.285 0,-2.051 0,-1.854 c -0.359,-0.366 -0.667,-0.6 -0.923,-0.698 -0.254,-0.097 -0.5,-0.147 -0.734,-0.147 -0.391,0 -0.728,0.122 -1.01,0.369 -0.283,0.247 -0.425,0.586 -0.425,1.019 0,0.49 0.199,0.869 0.598,1.135 0.397,0.265 1.082,0.495 2.051,0.69 L 0,0.6 v 0.573 c 0,0.312 -0.102,0.53 -0.302,0.656 -0.201,0.126 -0.444,0.189 -0.727,0.189 -0.338,0 -0.603,-0.077 -0.788,-0.231 C -2.012,1.631 -2.104,1.451 -2.104,1.246 V 1.173 h -0.917 v 0.068 c 0,0.223 0.091,0.456 0.278,0.695 0.184,0.239 0.43,0.419 0.735,0.542 0.31,0.119 0.643,0.18 1.012,0.18 0.362,0 0.692,-0.057 0.985,-0.172 C 0.287,2.371 0.503,2.216 0.638,2.021 0.775,1.826 0.846,1.457 0.846,0.919 v -1.97 c 0,-0.215 0.006,-0.441 0.015,-0.678 0.011,-0.239 0.063,-0.516 0.161,-0.829 z"
             style="fill:#34aace;fill-opacity:1;fill-rule:nonzero;stroke:none"
             id="path238"
             inkscape:connector-curvature="0" /></g><g
           id="g240"
           transform="translate(169.4775,102.0186)"><path
             d="M 0,0 H 2.57 L 1.333,3.277 Z m -1.072,-2.643 h -0.852 l 2.89,7.052 h 0.93 L 4.561,-2.643 H 3.572 l -0.73,1.939 h -3.118 z"
             style="fill:#34aace;fill-opacity:1;fill-rule:nonzero;stroke:none"
             id="path242"
             inkscape:connector-curvature="0" /></g><g
           id="g244"
           transform="translate(175.6934,101.9102)"><path
             d="m 0,0 c 0,-0.575 0.122,-1.047 0.365,-1.418 0.247,-0.369 0.591,-0.554 1.036,-0.554 0.408,0 0.745,0.163 1.014,0.491 0.271,0.328 0.405,0.816 0.405,1.468 0,0.761 -0.137,1.288 -0.413,1.584 C 2.132,1.867 1.804,2.014 1.424,2.014 1.156,2.014 0.909,1.932 0.678,1.771 0.451,1.61 0.278,1.369 0.168,1.048 0.053,0.729 0,0.38 0,0 m -0.076,-2.535 h -0.839 c 0.016,0.166 0.027,0.369 0.038,0.609 0.01,0.24 0.016,0.435 0.021,0.586 0.008,0.152 0.013,0.254 0.013,0.304 V 4.799 H 0 V 1.66 c 0.184,0.287 0.354,0.497 0.515,0.627 0.163,0.13 0.338,0.228 0.524,0.295 0.192,0.067 0.393,0.1 0.605,0.1 0.38,0 0.731,-0.105 1.049,-0.316 C 3.011,2.156 3.26,1.841 3.438,1.423 3.612,1.005 3.704,0.536 3.704,0.014 3.704,-0.759 3.517,-1.399 3.148,-1.91 2.777,-2.42 2.262,-2.675 1.604,-2.675 c -0.216,0 -0.42,0.03 -0.609,0.092 C 0.803,-2.521 0.638,-2.428 0.487,-2.305 0.34,-2.182 0.176,-1.964 0,-1.649 L -0.028,-2.016 C -0.041,-2.22 -0.055,-2.393 -0.076,-2.535"
             style="fill:#34aace;fill-opacity:1;fill-rule:nonzero;stroke:none"
             id="path246"
             inkscape:connector-curvature="0" /></g><g
           id="g248"
           transform="translate(181.167,102.4429)"><path
             d="m 0,0 h 2.669 v 0.099 c 0,0.237 -0.058,0.466 -0.166,0.69 C 2.391,1.01 2.24,1.176 2.046,1.284 1.847,1.391 1.623,1.445 1.363,1.445 1.056,1.445 0.772,1.317 0.514,1.065 0.252,0.812 0.082,0.458 0,0 m 2.6,-1.764 h 0.846 v -0.045 c 0,-0.225 -0.09,-0.452 -0.263,-0.686 C 3.006,-2.729 2.773,-2.907 2.485,-3.026 2.195,-3.147 1.864,-3.208 1.49,-3.208 c -0.761,0 -1.346,0.25 -1.76,0.749 -0.412,0.5 -0.621,1.132 -0.621,1.895 0,0.783 0.22,1.43 0.657,1.942 0.436,0.515 0.997,0.771 1.685,0.771 0.381,0 0.721,-0.083 1.029,-0.25 C 2.788,1.733 3.03,1.474 3.21,1.119 3.387,0.768 3.477,0.276 3.477,-0.355 v -0.282 h -3.53 c 0,-0.542 0.142,-0.988 0.428,-1.341 0.283,-0.351 0.679,-0.526 1.182,-0.526 0.364,0 0.626,0.071 0.793,0.215 0.167,0.143 0.25,0.304 0.25,0.48 z"
             style="fill:#34aace;fill-opacity:1;fill-rule:nonzero;stroke:none"
             id="path250"
             inkscape:connector-curvature="0" /></g><g
           id="g252"
           transform="translate(186.7256,99.3755)"><path
             d="M 0,0 H -0.844 V 5.076 H 0 V 4.18 c 0.143,0.258 0.299,0.459 0.469,0.6 0.168,0.144 0.347,0.252 0.538,0.325 0.19,0.075 0.386,0.111 0.586,0.111 0.179,0 0.337,-0.025 0.465,-0.077 V 4.263 C 1.854,4.359 1.637,4.408 1.406,4.408 1.082,4.408 0.764,4.269 0.459,3.99 0.153,3.711 0,3.218 0,2.507 Z"
             style="fill:#34aace;fill-opacity:1;fill-rule:nonzero;stroke:none"
             id="path254"
             inkscape:connector-curvature="0" /></g><g
           id="g256"
           transform="translate(192.5791,100.0938)"><path
             d="m 0,0 v -0.709 c -0.414,-0.101 -0.729,-0.15 -0.944,-0.15 -0.318,0 -0.6,0.064 -0.853,0.191 -0.252,0.126 -0.447,0.312 -0.579,0.554 -0.13,0.242 -0.197,0.628 -0.197,1.158 v 2.609 h -0.881 v 0.704 h 0.881 v 1.2 h 0.844 v -1.2 h 1.483 V 3.653 H -1.729 V 1.285 c 0,-0.447 0.036,-0.759 0.106,-0.934 0.071,-0.173 0.181,-0.303 0.328,-0.383 0.152,-0.082 0.33,-0.123 0.541,-0.123 0.166,0 0.416,0.051 0.754,0.155"
             style="fill:#34aace;fill-opacity:1;fill-rule:nonzero;stroke:none"
             id="path258"
             inkscape:connector-curvature="0" /></g><g
           id="g260"
           transform="translate(196.5166,101.9336)"><path
             d="m 0,0 -0.246,-0.064 c -0.824,-0.208 -1.352,-0.407 -1.582,-0.594 -0.232,-0.187 -0.35,-0.41 -0.35,-0.67 0,-0.134 0.036,-0.258 0.106,-0.372 0.069,-0.115 0.171,-0.205 0.303,-0.268 0.135,-0.063 0.267,-0.096 0.398,-0.096 0.23,0 0.452,0.07 0.673,0.208 0.219,0.137 0.394,0.32 0.516,0.55 C -0.062,-1.076 0,-0.809 0,-0.502 Z M 0.132,-2.558 C 0.045,-2.285 0,-2.051 0,-1.854 c -0.359,-0.366 -0.665,-0.6 -0.921,-0.698 -0.256,-0.097 -0.502,-0.147 -0.734,-0.147 -0.392,0 -0.729,0.122 -1.012,0.369 -0.281,0.247 -0.422,0.586 -0.422,1.019 0,0.49 0.2,0.869 0.597,1.135 0.396,0.265 1.08,0.495 2.051,0.69 L 0,0.6 v 0.573 c 0,0.312 -0.099,0.53 -0.301,0.656 -0.202,0.126 -0.442,0.189 -0.722,0.189 -0.343,0 -0.606,-0.077 -0.796,-0.231 C -2.006,1.631 -2.106,1.451 -2.106,1.246 V 1.173 h -0.915 v 0.068 c 0,0.223 0.093,0.456 0.278,0.695 0.185,0.239 0.43,0.419 0.74,0.542 0.307,0.119 0.642,0.18 1.007,0.18 0.362,0 0.692,-0.057 0.988,-0.172 C 0.288,2.371 0.507,2.216 0.643,2.021 0.778,1.826 0.847,1.457 0.847,0.919 v -1.97 c 0,-0.215 0.005,-0.441 0.018,-0.678 0.009,-0.239 0.062,-0.516 0.16,-0.829 z"
             style="fill:#34aace;fill-opacity:1;fill-rule:nonzero;stroke:none"
             id="path262"
             inkscape:connector-curvature="0" /></g></g></g><rect
       style="fill:none;stroke:#ff0000;stroke-width:0.22500001;stroke-miterlimit:4;stroke-dasharray:none"
       id="rect4593"
       width="231.237"
       height="96.863808"
       x="26.76363"
       y="-191.10179"
       transform="scale(1,-1)" /></g></svg>