<?xml version="1.0" encoding="UTF-8" standalone="no"?>
<!-- Created with Inkscape (http://www.inkscape.org/) -->

<svg
   xmlns:dc="http://purl.org/dc/elements/1.1/"
   xmlns:cc="http://creativecommons.org/ns#"
   xmlns:rdf="http://www.w3.org/1999/02/22-rdf-syntax-ns#"
   xmlns:svg="http://www.w3.org/2000/svg"
   xmlns="http://www.w3.org/2000/svg"
   xmlns:sodipodi="http://sodipodi.sourceforge.net/DTD/sodipodi-0.dtd"
   xmlns:inkscape="http://www.inkscape.org/namespaces/inkscape"
   version="1.1"
   id="svg2"
   xml:space="preserve"
   width="85.681747mm"
   height="38.277874mm"
   viewBox="0 0 323.83652 144.67228"
   sodipodi:docname="Pegatina OSHWDem 2017.svg"
   inkscape:version="0.92.3 (2405546, 2018-03-11)"
   inkscape:export-filename="/home/oscar/proyectos/oshwdem/pegatinas/fuentes/Pegatina OSHWDem 2017.svg.png"
   inkscape:export-xdpi="252"
   inkscape:export-ydpi="252"><metadata
     id="metadata8"><rdf:RDF><cc:Work
         rdf:about=""><dc:format>image/svg+xml</dc:format><dc:type
           rdf:resource="http://purl.org/dc/dcmitype/StillImage" /><dc:title /></cc:Work></rdf:RDF></metadata><defs
     id="defs6"><clipPath
       clipPathUnits="userSpaceOnUse"
       id="clipPath20"><path
         d="M 0,283.464 H 283.464 V 0 H 0 Z"
         id="path18"
         inkscape:connector-curvature="0" /></clipPath><clipPath
       clipPathUnits="userSpaceOnUse"
       id="clipPath176"><path
         d="M 0,283.464 H 283.464 V 0 H 0 Z"
         id="path174"
         inkscape:connector-curvature="0" /></clipPath></defs><sodipodi:namedview
     pagecolor="#ffffff"
     bordercolor="#666666"
     inkscape:document-rotation="0"
     borderopacity="1"
     objecttolerance="10"
     gridtolerance="10"
     guidetolerance="10"
     inkscape:pageopacity="0"
     inkscape:pageshadow="2"
     inkscape:window-width="1680"
     inkscape:window-height="1050"
     id="namedview4"
     showgrid="false"
     fit-margin-top="2"
     fit-margin-left="2"
     fit-margin-right="2"
     fit-margin-bottom="2"
     units="mm"
     inkscape:zoom="1.8605062"
     inkscape:cx="49.027433"
     inkscape:cy="78.54917"
     inkscape:window-x="2560"
     inkscape:window-y="390"
     inkscape:window-maximized="1"
     inkscape:current-layer="g10"
     showguides="true"
     inkscape:guide-bbox="true" /><g
     id="g10"
     inkscape:groupmode="layer"
     inkscape:label="Pegatina OSHWDem 2017"
     transform="matrix(1.3333333,0,0,-1.3333333,-27.924569,262.56265)"><path
   inkscape:connector-curvature="0"
   id="path24"
   style="fill:#1d1d1b;fill-opacity:1;fill-rule:nonzero;stroke:none"
   d="m 65.3047,97.7593 c -0.935,0.137 -1.932,0.472 -2.877,0.966 -0.733,0.383 -0.936,0.451 -1.131,0.376 -0.406,-0.155 -1.339,-0.02 -1.755,0.256 -1.019,0.674 -1.137,1.908 -0.266,2.777 0.778,0.775 2.047,0.778 2.899,0.003 0.352,-0.32 0.506,-0.693 0.506,-1.218 v -0.477 l 0.676,-0.163 c 2.975,-0.713 4.953,-0.534 6.036,0.547 0.435,0.436 0.751,1.063 0.754,1.498 0.007,0.971 -0.595,2.299 -2.637,5.821 -2.758,4.755 -3.818,7.185 -4.45,10.195 -0.167,0.792 -0.164,3.503 0.003,5.771 0.165,2.221 0.1,6.408 -0.132,8.528 -0.176,1.615 -0.431,3.226 -0.542,3.425 -0.15,0.278 -1.254,-2.76 -1.723,-4.745 -0.618,-2.62 -0.757,-5.594 -0.371,-7.919 0.318,-1.904 0.341,-2.266 0.225,-3.356 -0.203,-1.947 -0.721,-3.661 -2.452,-8.127 -1.537,-3.965 -1.572,-5.298 -0.154,-6.037 0.6,-0.313 2.036,-0.362 2.574,-0.087 0.246,0.126 0.443,0.316 0.521,0.502 0.16,0.391 0.086,1.222 -0.155,1.715 -0.166,0.339 -0.251,0.4 -0.722,0.519 -0.676,0.171 -1.156,0.534 -1.39,1.052 -0.378,0.831 -0.104,1.736 0.673,2.23 0.767,0.486 1.635,0.474 2.388,-0.034 0.684,-0.46 0.978,-1.466 0.628,-2.142 -0.141,-0.275 -0.134,-0.337 0.114,-1.003 0.218,-0.585 0.267,-0.884 0.274,-1.693 0.007,-0.892 -0.018,-1.035 -0.271,-1.554 -0.365,-0.745 -1.025,-1.271 -1.964,-1.566 -0.582,-0.183 -0.919,-0.221 -1.932,-0.214 -2.375,0.014 -3.807,0.677 -4.443,2.056 -0.196,0.428 -0.224,0.644 -0.22,1.672 0.004,1.478 0.246,2.411 1.567,6.046 1.427,3.925 1.794,5.308 1.887,7.122 0.047,0.924 0.017,1.275 -0.207,2.403 -0.51,2.567 -0.525,4.991 -0.049,7.763 0.162,0.945 0.681,3.128 0.925,3.888 0.164,0.508 -0.17,-0.201 -0.669,-1.425 -1.381,-3.386 -2.539,-6.989 -3.135,-9.762 -0.296,-1.382 -0.299,-1.425 -0.376,-5.569 -0.044,-2.297 -0.129,-4.531 -0.19,-4.964 -0.62,-4.414 -1.886,-7.383 -4.002,-9.385 -0.972,-0.92 -2.197,-1.585 -3.361,-1.824 -0.549,-0.113 -0.773,-0.209 -0.919,-0.394 -0.691,-0.877 -2.395,-0.847 -3.156,0.057 -0.986,1.171 -0.187,2.813 1.422,2.929 0.514,0.038 0.665,0.003 1.213,-0.275 l 0.627,-0.317 0.492,0.164 c 2.442,0.811 3.987,3.717 4.444,8.357 0.057,0.595 0.142,3.094 0.188,5.554 0.088,4.871 0.134,5.357 0.745,8.009 0.51,2.216 1.472,5.298 2.266,7.264 0.128,0.32 0.218,0.597 0.201,0.615 -0.056,0.056 -2.333,-4.482 -3.203,-6.379 -1.737,-3.788 -2.131,-5.074 -3.305,-10.787 -1.166,-5.672 -1.752,-7.306 -3.028,-8.416 -1.09,-0.952 -2.92,-1.225 -4.8,-0.719 -1.844,0.497 -3.222,2.177 -3.222,3.926 0,0.516 -0.031,0.588 -0.389,0.966 -1.071,1.125 -0.33,2.865 1.29,3.032 0.456,0.047 0.641,0.015 1.094,-0.192 0.75,-0.344 1.103,-0.871 1.097,-1.649 -0.004,-0.747 -0.335,-1.261 -1.02,-1.582 -0.595,-0.279 -0.616,-0.409 -0.203,-1.238 0.644,-1.285 2.083,-1.83 3.634,-1.373 1.174,0.347 2.036,1.775 2.649,4.394 0.106,0.46 0.393,2.011 0.636,3.446 0.99,5.857 2.114,10.194 3.633,14.026 0.394,0.988 0.684,1.761 0.646,1.719 -0.038,-0.041 -0.302,-0.429 -0.592,-0.862 -1.788,-2.687 -2.986,-3.771 -5.695,-5.154 -1.285,-0.656 -2.45,-1.133 -4.57,-1.872 -1.701,-0.593 -2.621,-1.046 -3.405,-1.675 -0.714,-0.573 -1.178,-1.134 -1.526,-1.84 -0.241,-0.492 -0.347,-0.688 -0.347,-1.46 10e-4,-0.726 0.112,-0.947 0.291,-1.285 0.618,-1.16 1.863,-1.312 2.808,-0.343 l 0.365,0.374 -0.173,0.339 c -0.102,0.197 -0.173,0.542 -0.171,0.834 0.018,1.57 2.117,2.381 3.353,1.294 0.813,-0.713 0.845,-1.919 0.07,-2.647 -0.267,-0.25 -0.982,-0.569 -1.276,-0.569 -0.073,0 -0.414,-0.281 -0.757,-0.625 -0.404,-0.403 -0.867,-0.743 -1.303,-0.958 -0.619,-0.305 -0.774,-0.39 -1.585,-0.389 -0.78,0.001 -0.932,0.093 -1.431,0.344 -1.565,0.79 -2.528,2.781 -2.233,4.621 0.128,0.805 0.564,1.973 1.018,2.727 0.499,0.829 1.02,1.411 1.783,1.993 1.127,0.862 1.549,1.065 5.11,2.462 3.358,1.319 4.994,2.548 7.041,5.288 0.516,0.695 1.423,2.065 2.011,3.044 1.022,1.697 3.214,5.933 4.012,7.75 l 0.375,0.855 -0.653,0.645 c -0.36,0.354 -0.678,0.644 -0.704,0.644 -0.028,0 -0.366,-0.222 -0.752,-0.492 l -0.701,-0.492 -0.793,0.758 c -0.438,0.416 -1.292,1.241 -1.899,1.832 l -1.103,1.073 0.179,0.258 c 0.099,0.142 0.713,1.016 1.371,1.942 l 1.19,1.686 -0.749,1.853 c -0.414,1.019 -0.767,1.87 -0.785,1.894 -0.018,0.023 -1.051,0.227 -2.299,0.455 -1.243,0.226 -2.276,0.427 -2.293,0.447 -0.017,0.021 -0.06,1.196 -0.097,2.611 -0.062,2.409 -0.053,2.575 0.11,2.625 0.096,0.028 1.193,0.234 2.435,0.459 1.243,0.222 2.293,0.438 2.334,0.475 0.041,0.037 0.375,0.846 0.745,1.796 l 0.673,1.727 -1.421,1.989 -1.423,1.991 1.868,1.866 1.865,1.867 2.02,-1.387 c 1.111,-0.762 2.074,-1.386 2.139,-1.386 0.065,0 0.856,0.311 1.754,0.691 l 1.634,0.693 0.493,2.477 0.495,2.477 h 2.545 2.547 l 0.482,-2.474 0.485,-2.475 1.72,-0.692 1.721,-0.69 2.091,1.42 2.09,1.419 1.825,-1.866 1.828,-1.866 -1.111,-1.695 c -0.61,-0.932 -1.229,-1.875 -1.374,-2.095 l -0.267,-0.4 0.727,-1.714 0.726,-1.711 2.383,-0.413 c 1.31,-0.228 2.398,-0.428 2.414,-0.446 0.025,-0.024 0.093,-3.987 0.093,-5.286 0,0 -1.035,-0.174 -2.301,-0.388 -1.265,-0.213 -2.331,-0.422 -2.368,-0.465 -0.037,-0.043 -0.412,-0.88 -0.834,-1.86 l -0.765,-1.781 1.34,-1.985 1.341,-1.985 -1.786,-1.859 -1.788,-1.858 -0.444,0.259 -0.443,0.261 -0.251,-0.334 c -0.138,-0.184 -0.442,-0.543 -0.677,-0.797 l -0.427,-0.463 1.547,-2.191 c 5.788,-8.204 9.29,-12.124 12.474,-13.969 0.997,-0.578 2.217,-1.093 3.236,-1.367 1.142,-0.306 3.222,-0.305 4.311,0.005 0.946,0.269 1.857,0.675 2.836,1.266 0.742,0.445 0.75,0.457 0.652,0.739 -0.387,1.112 0.644,2.339 1.962,2.339 1.547,0 2.509,-1.596 1.683,-2.798 -0.386,-0.565 -0.819,-0.782 -1.633,-0.824 l -0.729,-0.037 -0.654,-0.654 c -1.627,-1.627 -4.743,-2.454 -8.204,-2.178 -2.339,0.187 -4.863,0.726 -5.937,1.268 -1.96,0.989 -4.605,3.792 -7.291,7.729 -0.438,0.64 -0.796,1.134 -0.796,1.095 0,-0.114 0.95,-1.969 1.837,-3.587 2.108,-3.841 3.759,-5.949 5.243,-6.699 0.73,-0.368 2.068,-0.696 4.197,-1.028 5.042,-0.789 6.904,-1.381 8.217,-2.608 0.439,-0.411 0.708,-0.766 0.906,-1.199 0.255,-0.552 0.283,-0.721 0.28,-1.6 -0.003,-0.833 -0.045,-1.087 -0.275,-1.67 -1.021,-2.609 -3.217,-3.977 -5.586,-3.477 -1.624,0.341 -2.948,1.618 -3.315,3.192 -0.107,0.467 -0.145,0.511 -0.504,0.619 -0.483,0.145 -1.06,0.64 -1.235,1.061 -0.3,0.713 -0.107,1.436 0.533,2.014 0.45,0.407 0.852,0.518 1.642,0.452 1.509,-0.125 2.237,-1.78 1.278,-2.902 l -0.342,-0.399 0.388,-0.575 c 0.574,-0.854 0.947,-1.066 1.864,-1.066 0.892,0 1.433,0.235 2.119,0.919 0.616,0.616 0.881,1.197 0.882,1.937 0.003,0.708 -0.29,1.237 -0.944,1.71 -0.887,0.644 -1.708,0.826 -5.586,1.233 -3.456,0.364 -4.483,0.612 -6.29,1.521 -1.396,0.702 -2.532,1.939 -4.391,4.78 -0.536,0.818 -1.39,2.22 -1.901,3.115 -0.509,0.896 -0.939,1.617 -0.954,1.6 -0.019,-0.016 0.038,-0.224 0.123,-0.462 0.272,-0.774 0.717,-2.668 0.884,-3.775 0.22,-1.452 0.219,-3.419 -0.003,-5.11 -0.26,-1.982 -0.242,-4.486 0.038,-5.83 0.368,-1.749 0.981,-2.911 1.913,-3.618 1.399,-1.063 3.484,-0.681 4.259,0.78 0.268,0.505 0.224,1.3 -0.105,1.901 -0.262,0.478 -0.299,0.506 -0.735,0.549 -1.338,0.128 -2.177,1.3 -1.731,2.415 0.554,1.384 2.542,1.674 3.518,0.513 0.403,-0.478 0.468,-1.294 0.163,-2.021 -0.113,-0.269 -0.101,-0.338 0.12,-0.688 0.767,-1.223 1.062,-2.833 0.712,-3.888 -0.465,-1.406 -2.679,-2.643 -4.72,-2.643 -2.998,0 -5.542,2.743 -6.385,6.88 -0.27,1.33 -0.293,3.389 -0.058,5.04 0.48,3.343 0.072,6.498 -1.326,10.278 -0.385,1.047 -1.688,3.782 -1.946,4.091 -0.158,0.191 -0.162,0.188 -0.111,-0.099 0.137,-0.753 0.446,-3.486 0.543,-4.814 0.06,-0.825 0.096,-3.185 0.08,-5.357 l -0.027,-3.882 0.266,-1.331 c 0.759,-3.775 2.05,-7.975 3.963,-12.87 1.815,-4.646 1.858,-4.786 1.861,-6.046 0.003,-1.027 -0.014,-1.116 -0.321,-1.739 -0.203,-0.412 -0.494,-0.807 -0.783,-1.062 -1.297,-1.14 -3.979,-1.779 -6.146,-1.463" /><path
   inkscape:connector-curvature="0"
   id="path28"
   style="fill:none;stroke:#000000;stroke-width:0.014;stroke-linecap:butt;stroke-linejoin:miter;stroke-miterlimit:10;stroke-dasharray:none;stroke-opacity:1"
   d="m 65.3047,97.7593 c -0.935,0.137 -1.932,0.472 -2.877,0.966 -0.733,0.383 -0.936,0.451 -1.131,0.376 -0.406,-0.155 -1.339,-0.02 -1.755,0.256 -1.019,0.674 -1.137,1.908 -0.266,2.777 0.778,0.775 2.047,0.778 2.899,0.003 0.352,-0.32 0.506,-0.693 0.506,-1.218 v -0.477 l 0.676,-0.163 c 2.975,-0.713 4.953,-0.534 6.036,0.547 0.435,0.436 0.751,1.063 0.754,1.498 0.007,0.971 -0.595,2.299 -2.637,5.821 -2.758,4.755 -3.818,7.185 -4.45,10.195 -0.167,0.792 -0.164,3.503 0.003,5.771 0.165,2.221 0.1,6.408 -0.132,8.528 -0.176,1.615 -0.431,3.226 -0.542,3.425 -0.15,0.278 -1.254,-2.76 -1.723,-4.745 -0.618,-2.62 -0.757,-5.594 -0.371,-7.919 0.318,-1.904 0.341,-2.266 0.225,-3.356 -0.203,-1.947 -0.721,-3.661 -2.452,-8.127 -1.537,-3.965 -1.572,-5.298 -0.154,-6.037 0.6,-0.313 2.036,-0.362 2.574,-0.087 0.246,0.126 0.443,0.316 0.521,0.502 0.16,0.391 0.086,1.222 -0.155,1.715 -0.166,0.339 -0.251,0.4 -0.722,0.519 -0.676,0.171 -1.156,0.534 -1.39,1.052 -0.378,0.831 -0.104,1.736 0.673,2.23 0.767,0.486 1.635,0.474 2.388,-0.034 0.684,-0.46 0.978,-1.466 0.628,-2.142 -0.141,-0.275 -0.134,-0.337 0.114,-1.003 0.218,-0.585 0.267,-0.884 0.274,-1.693 0.007,-0.892 -0.018,-1.035 -0.271,-1.554 -0.365,-0.745 -1.025,-1.271 -1.964,-1.566 -0.582,-0.183 -0.919,-0.221 -1.932,-0.214 -2.375,0.014 -3.807,0.677 -4.443,2.056 -0.196,0.428 -0.224,0.644 -0.22,1.672 0.004,1.478 0.246,2.411 1.567,6.046 1.427,3.925 1.794,5.308 1.887,7.122 0.047,0.924 0.017,1.275 -0.207,2.403 -0.51,2.567 -0.525,4.991 -0.049,7.763 0.162,0.945 0.681,3.128 0.925,3.888 0.164,0.508 -0.17,-0.201 -0.669,-1.425 -1.381,-3.386 -2.539,-6.989 -3.135,-9.762 -0.296,-1.382 -0.299,-1.425 -0.376,-5.569 -0.044,-2.297 -0.129,-4.531 -0.19,-4.964 -0.62,-4.414 -1.886,-7.383 -4.002,-9.385 -0.972,-0.92 -2.197,-1.585 -3.361,-1.824 -0.549,-0.113 -0.773,-0.209 -0.919,-0.394 -0.691,-0.877 -2.395,-0.847 -3.156,0.057 -0.986,1.171 -0.187,2.813 1.422,2.929 0.514,0.038 0.665,0.003 1.213,-0.275 l 0.627,-0.317 0.492,0.164 c 2.442,0.811 3.987,3.717 4.444,8.357 0.057,0.595 0.142,3.094 0.188,5.554 0.088,4.871 0.134,5.357 0.745,8.009 0.51,2.216 1.472,5.298 2.266,7.264 0.128,0.32 0.218,0.597 0.201,0.615 -0.056,0.056 -2.333,-4.482 -3.203,-6.379 -1.737,-3.788 -2.131,-5.074 -3.305,-10.787 -1.166,-5.672 -1.752,-7.306 -3.028,-8.416 -1.09,-0.952 -2.92,-1.225 -4.8,-0.719 -1.844,0.497 -3.222,2.177 -3.222,3.926 0,0.516 -0.031,0.588 -0.389,0.966 -1.071,1.125 -0.33,2.865 1.29,3.032 0.456,0.047 0.641,0.015 1.094,-0.192 0.75,-0.344 1.103,-0.871 1.097,-1.649 -0.004,-0.747 -0.335,-1.261 -1.02,-1.582 -0.595,-0.279 -0.616,-0.409 -0.203,-1.238 0.644,-1.285 2.083,-1.83 3.634,-1.373 1.174,0.347 2.036,1.775 2.649,4.394 0.106,0.46 0.393,2.011 0.636,3.446 0.99,5.857 2.114,10.194 3.633,14.026 0.394,0.988 0.684,1.761 0.646,1.719 -0.038,-0.041 -0.302,-0.429 -0.592,-0.862 -1.788,-2.687 -2.986,-3.771 -5.695,-5.154 -1.285,-0.656 -2.45,-1.133 -4.57,-1.872 -1.701,-0.593 -2.621,-1.046 -3.405,-1.675 -0.714,-0.573 -1.178,-1.134 -1.526,-1.84 -0.241,-0.492 -0.347,-0.688 -0.347,-1.46 10e-4,-0.726 0.112,-0.947 0.291,-1.285 0.618,-1.16 1.863,-1.312 2.808,-0.343 l 0.365,0.374 -0.173,0.339 c -0.102,0.197 -0.173,0.542 -0.171,0.834 0.018,1.57 2.117,2.381 3.353,1.294 0.813,-0.713 0.845,-1.919 0.07,-2.647 -0.267,-0.25 -0.982,-0.569 -1.276,-0.569 -0.073,0 -0.414,-0.281 -0.757,-0.625 -0.404,-0.403 -0.867,-0.743 -1.303,-0.958 -0.619,-0.305 -0.774,-0.39 -1.585,-0.389 -0.78,0.001 -0.932,0.093 -1.431,0.344 -1.565,0.79 -2.528,2.781 -2.233,4.621 0.128,0.805 0.564,1.973 1.018,2.727 0.499,0.829 1.02,1.411 1.783,1.993 1.127,0.862 1.549,1.065 5.11,2.462 3.358,1.319 4.994,2.548 7.041,5.288 0.516,0.695 1.423,2.065 2.011,3.044 1.022,1.697 3.214,5.933 4.012,7.75 l 0.375,0.855 -0.653,0.645 c -0.36,0.354 -0.678,0.644 -0.704,0.644 -0.028,0 -0.366,-0.222 -0.752,-0.492 l -0.701,-0.492 -0.793,0.758 c -0.438,0.416 -1.292,1.241 -1.899,1.832 l -1.103,1.073 0.179,0.258 c 0.099,0.142 0.713,1.016 1.371,1.942 l 1.19,1.686 -0.749,1.853 c -0.414,1.019 -0.767,1.87 -0.785,1.894 -0.018,0.023 -1.051,0.227 -2.299,0.455 -1.243,0.226 -2.276,0.427 -2.293,0.447 -0.017,0.021 -0.06,1.196 -0.097,2.611 -0.062,2.409 -0.053,2.575 0.11,2.625 0.096,0.028 1.193,0.234 2.435,0.459 1.243,0.222 2.293,0.438 2.334,0.475 0.041,0.037 0.375,0.846 0.745,1.796 l 0.673,1.727 -1.421,1.989 -1.423,1.991 1.868,1.866 1.865,1.867 2.02,-1.387 c 1.111,-0.762 2.074,-1.386 2.139,-1.386 0.065,0 0.856,0.311 1.754,0.691 l 1.634,0.693 0.493,2.477 0.495,2.477 h 2.545 2.547 l 0.482,-2.474 0.485,-2.475 1.72,-0.692 1.721,-0.69 2.091,1.42 2.09,1.419 1.825,-1.866 1.828,-1.866 -1.111,-1.695 c -0.61,-0.932 -1.229,-1.875 -1.374,-2.095 l -0.267,-0.4 0.727,-1.714 0.726,-1.711 2.383,-0.413 c 1.31,-0.228 2.398,-0.428 2.414,-0.446 0.025,-0.024 0.093,-3.987 0.093,-5.286 0,0 -1.035,-0.174 -2.301,-0.388 -1.265,-0.213 -2.331,-0.422 -2.368,-0.465 -0.037,-0.043 -0.412,-0.88 -0.834,-1.86 l -0.765,-1.781 1.34,-1.985 1.341,-1.985 -1.786,-1.859 -1.788,-1.858 -0.444,0.259 -0.443,0.261 -0.251,-0.334 c -0.138,-0.184 -0.442,-0.543 -0.677,-0.797 l -0.427,-0.463 1.547,-2.191 c 5.788,-8.204 9.29,-12.124 12.474,-13.969 0.997,-0.578 2.217,-1.093 3.236,-1.367 1.142,-0.306 3.222,-0.305 4.311,0.005 0.946,0.269 1.857,0.675 2.836,1.266 0.742,0.445 0.75,0.457 0.652,0.739 -0.387,1.112 0.644,2.339 1.962,2.339 1.547,0 2.509,-1.596 1.683,-2.798 -0.386,-0.565 -0.819,-0.782 -1.633,-0.824 l -0.729,-0.037 -0.654,-0.654 c -1.627,-1.627 -4.743,-2.454 -8.204,-2.178 -2.339,0.187 -4.863,0.726 -5.937,1.268 -1.96,0.989 -4.605,3.792 -7.291,7.729 -0.438,0.64 -0.796,1.134 -0.796,1.095 0,-0.114 0.95,-1.969 1.837,-3.587 2.108,-3.841 3.759,-5.949 5.243,-6.699 0.73,-0.368 2.068,-0.696 4.197,-1.028 5.042,-0.789 6.904,-1.381 8.217,-2.608 0.439,-0.411 0.708,-0.766 0.906,-1.199 0.255,-0.552 0.283,-0.721 0.28,-1.6 -0.003,-0.833 -0.045,-1.087 -0.275,-1.67 -1.021,-2.609 -3.217,-3.977 -5.586,-3.477 -1.624,0.341 -2.948,1.618 -3.315,3.192 -0.107,0.467 -0.145,0.511 -0.504,0.619 -0.483,0.145 -1.06,0.64 -1.235,1.061 -0.3,0.713 -0.107,1.436 0.533,2.014 0.45,0.407 0.852,0.518 1.642,0.452 1.509,-0.125 2.237,-1.78 1.278,-2.902 l -0.342,-0.399 0.388,-0.575 c 0.574,-0.854 0.947,-1.066 1.864,-1.066 0.892,0 1.433,0.235 2.119,0.919 0.616,0.616 0.881,1.197 0.882,1.937 0.003,0.708 -0.29,1.237 -0.944,1.71 -0.887,0.644 -1.708,0.826 -5.586,1.233 -3.456,0.364 -4.483,0.612 -6.29,1.521 -1.396,0.702 -2.532,1.939 -4.391,4.78 -0.536,0.818 -1.39,2.22 -1.901,3.115 -0.509,0.896 -0.939,1.617 -0.954,1.6 -0.019,-0.016 0.038,-0.224 0.123,-0.462 0.272,-0.774 0.717,-2.668 0.884,-3.775 0.22,-1.452 0.219,-3.419 -0.003,-5.11 -0.26,-1.982 -0.242,-4.486 0.038,-5.83 0.368,-1.749 0.981,-2.911 1.913,-3.618 1.399,-1.063 3.484,-0.681 4.259,0.78 0.268,0.505 0.224,1.3 -0.105,1.901 -0.262,0.478 -0.299,0.506 -0.735,0.549 -1.338,0.128 -2.177,1.3 -1.731,2.415 0.554,1.384 2.542,1.674 3.518,0.513 0.403,-0.478 0.468,-1.294 0.163,-2.021 -0.113,-0.269 -0.101,-0.338 0.12,-0.688 0.767,-1.223 1.062,-2.833 0.712,-3.888 -0.465,-1.406 -2.679,-2.643 -4.72,-2.643 -2.998,0 -5.542,2.743 -6.385,6.88 -0.27,1.33 -0.293,3.389 -0.058,5.04 0.48,3.343 0.072,6.498 -1.326,10.278 -0.385,1.047 -1.688,3.782 -1.946,4.091 -0.158,0.191 -0.162,0.188 -0.111,-0.099 0.137,-0.753 0.446,-3.486 0.543,-4.814 0.06,-0.825 0.096,-3.185 0.08,-5.357 l -0.027,-3.882 0.266,-1.331 c 0.759,-3.775 2.05,-7.975 3.963,-12.87 1.815,-4.646 1.858,-4.786 1.861,-6.046 0.003,-1.027 -0.014,-1.116 -0.321,-1.739 -0.203,-0.412 -0.494,-0.807 -0.783,-1.062 -1.297,-1.14 -3.979,-1.779 -6.146,-1.463 z" /><path
   inkscape:connector-curvature="0"
   id="path32"
   style="fill:#12738e;fill-opacity:1;fill-rule:nonzero;stroke:#000000;stroke-width:0.014;stroke-linecap:butt;stroke-linejoin:miter;stroke-miterlimit:10;stroke-dasharray:none;stroke-opacity:1"
   d="m 70.8008,138.8198 c 0.027,0.03 0.109,-0.022 0.236,-0.187 0.102,-0.136 0.546,-0.834 0.985,-1.554 3.499,-5.732 6.966,-9.78 9.456,-11.037 1.18,-0.597 3.904,-1.151 6.072,-1.237 3.747,-0.145 6.244,0.618 8.067,2.469 0.27,0.274 0.483,0.421 0.523,0.359 0.101,-0.165 0.848,-0.119 1.283,0.079 1.197,0.545 1.558,1.761 0.771,2.604 -0.808,0.866 -2.159,0.839 -2.948,-0.058 -0.413,-0.47 -0.491,-0.94 -0.25,-1.486 l 0.188,-0.429 -0.847,-0.496 c -1.654,-0.967 -2.883,-1.433 -4.251,-1.608 -2.676,-0.343 -5.911,0.864 -8.789,3.28 -2.638,2.214 -6.876,7.426 -11.294,13.894 l -0.478,0.7 -0.549,-0.37 c -0.639,-0.431 -1.202,-0.726 -1.812,-0.923" /><path
   inkscape:connector-curvature="0"
   id="path36"
   style="fill:#34aacd;fill-opacity:1;fill-rule:nonzero;stroke:#000000;stroke-width:0.014;stroke-linecap:butt;stroke-linejoin:miter;stroke-miterlimit:10;stroke-dasharray:none;stroke-opacity:1"
   d="m 67.1724,142.8232 c -0.61,-0.195 -1.263,-0.293 -2.076,-0.328 -0.981,-0.04 -1.324,-0.014 -2.049,0.16 -1.281,0.306 -2.457,0.95 -3.451,1.891 l -0.814,0.771 -0.252,-0.199 c -0.46,-0.36 -1.482,-0.774 -2.214,-0.893 -0.924,-0.152 -1.975,-0.001 -2.844,0.406 l -0.62,0.288 -0.457,-1.004 c -2.614,-5.742 -5.447,-10.45 -7.663,-12.722 -1.44,-1.478 -2.961,-2.376 -6.132,-3.618 -1.049,-0.409 -2.303,-0.94 -2.789,-1.18 -2.083,-1.024 -3.319,-2.398 -4.042,-4.491 -0.614,-1.779 -0.313,-3.405 0.855,-4.64 1.069,-1.13 2.522,-1.383 3.853,-0.671 0.282,0.152 0.81,0.574 1.173,0.938 0.46,0.465 0.731,0.664 0.901,0.664 0.378,0 0.768,0.179 1.116,0.515 0.617,0.596 0.655,1.37 0.096,2.008 -0.38,0.434 -0.804,0.622 -1.399,0.622 -1.256,0 -2.08,-1.211 -1.533,-2.26 0.114,-0.219 0.208,-0.421 0.208,-0.445 0,-0.026 -0.163,-0.227 -0.362,-0.447 -1.023,-1.134 -2.435,-1.096 -3.182,0.083 -1.233,1.941 0.047,4.598 2.906,6.042 0.271,0.136 1.25,0.516 2.178,0.843 4.201,1.481 6.266,2.601 8.001,4.334 0.764,0.763 1.219,1.357 2.418,3.159 0.812,1.22 1.736,2.679 2.049,3.243 0.485,0.869 1.573,2.698 1.686,2.836 0.019,0.023 0.076,0 0.128,-0.051 0.061,-0.061 -0.265,-0.703 -0.895,-1.763 -1.734,-2.924 -2.724,-5.095 -3.829,-8.404 -1.116,-3.34 -1.974,-6.99 -2.844,-12.083 -0.701,-4.1 -1.205,-5.644 -2.213,-6.764 -0.377,-0.421 -0.563,-0.541 -1.096,-0.705 -1.302,-0.402 -2.453,-0.191 -3.33,0.61 -0.544,0.499 -0.871,1.064 -0.956,1.657 -0.064,0.444 -0.028,0.495 0.548,0.77 1.232,0.59 1.294,2.065 0.117,2.733 -0.428,0.242 -1.124,0.295 -1.588,0.119 -0.421,-0.159 -0.908,-0.681 -1.02,-1.096 -0.151,-0.559 0.026,-1.075 0.509,-1.49 0.348,-0.297 0.392,-0.379 0.338,-0.629 -0.099,-0.451 0.2,-1.665 0.559,-2.261 0.813,-1.354 2.239,-2.027 4.3,-2.028 0.945,0 1.223,0.036 1.69,0.222 1.135,0.45 2.026,1.567 2.627,3.29 0.426,1.218 0.621,2.027 1.392,5.752 1.224,5.907 1.554,6.967 3.423,10.998 1.172,2.525 4.858,9.711 5.126,9.992 0.048,0.051 0.117,0.063 0.153,0.029 0.033,-0.035 -0.182,-0.608 -0.48,-1.272 -1.903,-4.229 -3.394,-8.813 -4.066,-12.498 -0.236,-1.289 -0.259,-1.692 -0.335,-5.732 -0.088,-4.604 -0.18,-6.093 -0.486,-7.844 -0.682,-3.879 -2.113,-6.021 -4.527,-6.777 l -0.542,-0.171 -0.379,0.258 c -0.988,0.668 -2.055,0.498 -2.687,-0.431 -0.521,-0.765 -0.111,-1.792 0.884,-2.207 0.733,-0.307 1.597,-0.069 2.088,0.573 0.148,0.195 0.309,0.328 0.358,0.298 0.164,-0.101 1.211,0.174 1.948,0.513 2.52,1.158 4.384,3.871 5.313,7.728 0.592,2.474 0.807,4.977 0.764,8.917 -0.022,2.357 -0.004,2.713 0.194,3.753 0.721,3.766 2.597,9.268 4.647,13.616 0.322,0.689 0.525,1.009 0.639,1.009 0.115,0 0.144,-0.051 0.097,-0.172 -0.709,-1.848 -1.579,-4.943 -1.871,-6.654 -0.478,-2.807 -0.414,-5.968 0.162,-7.932 0.207,-0.704 0.154,-2.807 -0.104,-4.013 -0.207,-0.973 -0.946,-3.25 -2.216,-6.83 -0.927,-2.613 -1.235,-4.311 -0.987,-5.456 0.357,-1.646 2.108,-2.542 4.763,-2.434 1.656,0.068 2.572,0.498 3.199,1.503 0.278,0.451 0.293,0.528 0.29,1.514 0,0.857 -0.043,1.143 -0.235,1.629 -0.271,0.691 -0.28,0.846 -0.073,1.389 0.498,1.307 -1.131,2.469 -2.493,1.78 -0.566,-0.287 -0.881,-0.756 -0.881,-1.321 0,-0.825 0.584,-1.464 1.443,-1.584 0.456,-0.065 0.483,-0.087 0.752,-0.624 0.907,-1.814 0.054,-2.989 -2.034,-2.795 -1.835,0.172 -2.616,1.176 -2.325,2.998 0.159,0.997 0.543,2.172 1.573,4.827 1.496,3.85 1.938,5.452 2.03,7.37 0.044,0.917 0.015,1.351 -0.163,2.309 -0.46,2.488 -0.364,5.608 0.262,8.402 0.472,2.115 1.743,5.504 2.063,5.504 0.074,0 0.133,-0.021 0.133,-0.047 0,-0.025 0.108,-0.657 0.239,-1.404 0.449,-2.556 0.59,-4.431 0.59,-7.836 0,-2.197 -0.052,-3.693 -0.171,-4.963 -0.186,-2.034 -0.137,-3.061 0.23,-4.763 0.514,-2.364 1.922,-5.482 4.328,-9.586 1.6,-2.723 2.31,-4.172 2.504,-5.109 0.134,-0.635 0.134,-0.766 0,-1.225 -0.273,-0.942 -1.049,-1.684 -2.118,-2.025 -1.187,-0.379 -2.564,-0.288 -5.583,0.374 -0.205,0.046 -0.222,0.089 -0.165,0.429 0.214,1.266 -1.301,2.275 -2.499,1.664 -0.434,-0.221 -0.866,-0.696 -0.953,-1.049 -0.161,-0.636 0.245,-1.441 0.88,-1.742 0.383,-0.181 1.257,-0.214 1.549,-0.058 0.148,0.08 0.252,0.061 0.459,-0.086 0.393,-0.277 1.266,-0.705 1.888,-0.921 1.344,-0.474 2.783,-0.581 4.289,-0.322 v 0 c 2.084,0.358 3.259,1.025 3.925,2.229 0.274,0.495 0.288,0.575 0.283,1.7 -0.002,1.355 0.053,1.153 -1.393,4.864 -2.042,5.245 -2.942,7.935 -3.761,11.253 -0.918,3.723 -0.914,3.664 -0.926,9.139 -0.009,4.386 -0.029,4.975 -0.234,6.604 -0.124,0.982 -0.283,2.122 -0.354,2.533 -0.238,1.373 0.213,1.005 1.255,-1.018 1.533,-2.986 2.532,-6.299 2.82,-9.347 0.126,-1.32 0.079,-2.496 -0.163,-4.078 -0.807,-5.274 1.369,-10.365 4.868,-11.392 0.678,-0.199 1.955,-0.201 2.712,-0.004 1.375,0.356 2.681,1.275 3.043,2.144 0.401,0.957 0.228,2.119 -0.526,3.551 l -0.468,0.891 0.178,0.291 c 0.557,0.917 0.097,1.989 -0.99,2.316 -1.148,0.343 -2.37,-0.552 -2.247,-1.646 0.091,-0.804 0.799,-1.407 1.67,-1.425 0.37,-0.007 0.455,-0.053 0.676,-0.365 0.34,-0.481 0.48,-0.926 0.477,-1.526 -0.008,-1.632 -1.836,-2.837 -3.614,-2.382 -1.533,0.393 -2.538,1.635 -3.139,3.874 -0.242,0.897 -0.259,1.098 -0.265,3.265 -0.004,1.585 0.038,2.617 0.14,3.292 0.195,1.304 0.177,3.823 -0.038,5.109 -0.431,2.574 -1.278,5.06 -2.67,7.834 -0.506,1.011 -0.884,1.862 -0.838,1.891 0.116,0.072 0.278,-0.191 1.018,-1.671 2.17,-4.327 4.739,-8.657 6.417,-10.813 1.029,-1.323 1.722,-1.942 2.78,-2.484 1.699,-0.868 2.858,-1.143 6.303,-1.49 3.672,-0.37 4.47,-0.546 5.453,-1.196 0.901,-0.596 1.31,-1.498 1.125,-2.478 -0.24,-1.274 -1.61,-2.523 -2.937,-2.68 -1.012,-0.12 -1.865,0.369 -2.562,1.473 l -0.365,0.575 0.398,0.37 c 0.352,0.329 0.397,0.429 0.439,0.927 0.04,0.477 0.01,0.612 -0.202,0.933 -0.677,1.023 -2.374,1.009 -3.013,-0.027 -0.265,-0.427 -0.27,-1.153 -0.01,-1.572 0.208,-0.338 0.759,-0.686 1.246,-0.788 0.278,-0.06 0.314,-0.108 0.368,-0.527 0.183,-1.352 1.271,-2.579 2.721,-3.071 0.515,-0.173 0.798,-0.205 1.529,-0.174 0.797,0.034 0.982,0.081 1.638,0.404 1.186,0.585 2.132,1.745 2.627,3.214 0.304,0.905 0.246,2.192 -0.13,2.9 -0.967,1.826 -2.794,2.587 -8.372,3.489 -4.6,0.744 -5.398,1.094 -7.013,3.079 -1.482,1.825 -2.847,4.158 -5.327,9.119 -0.761,1.52 -1.496,2.938 -1.63,3.153 -0.155,0.247 -0.207,0.422 -0.169,0.46" /><path
   inkscape:connector-curvature="0"
   id="path40"
   style="fill:#000000;fill-opacity:1;fill-rule:nonzero;stroke:none"
   d="m 58.5527,140.1016 c -0.609,0.144 -1.041,0.777 -0.93,1.364 0.055,0.287 0.219,0.187 0.219,-0.135 0,-0.805 0.837,-1.268 1.589,-0.879 0.289,0.15 0.593,0.599 0.593,0.879 0,0.158 0.177,0.313 0.26,0.23 0.027,-0.028 -0.005,-0.235 -0.072,-0.462 -0.125,-0.414 -0.673,-0.917 -0.917,-0.979 -0.118,-0.033 -0.143,-0.048 -0.281,-0.056 -0.075,-0.004 -0.279,-0.004 -0.461,0.038" /><path
   inkscape:connector-curvature="0"
   id="path44"
   style="fill:#ffffff;fill-opacity:1;fill-rule:nonzero;stroke:none"
   d="m 64.3511,144.3291 v 1.568 l -0.417,0.111 c -1.608,0.423 -2.69,2.082 -2.428,3.713 0.361,2.25 2.751,3.467 4.785,2.437 0.584,-0.296 1.253,-1.004 1.522,-1.615 0.244,-0.549 0.333,-1.589 0.188,-2.132 -0.28,-1.032 -1.205,-2.027 -2.157,-2.323 l -0.461,-0.143 -0.027,-1.606 -0.005,-1.593 0.521,0.051 c 0.297,0.035 0.886,0.189 1.308,0.343 2.27,0.829 3.968,2.681 4.602,5.025 0.236,0.87 0.236,2.668 0.001,3.538 -0.56,2.08 -2.019,3.845 -3.942,4.77 -0.987,0.475 -1.877,0.665 -3.096,0.665 -1.276,0 -2.01,-0.177 -3.243,-0.783 -0.791,-0.388 -1.071,-0.596 -1.822,-1.352 -1.478,-1.484 -2.113,-3.005 -2.107,-5.06 0.003,-2.135 0.769,-3.874 2.349,-5.338 1.088,-1.006 2.887,-1.822 4.062,-1.838 l 0.368,-0.007 v 1.569 z" /><path
   inkscape:connector-curvature="0"
   id="path48"
   style="fill:none;stroke:#000000;stroke-width:0.014;stroke-linecap:butt;stroke-linejoin:miter;stroke-miterlimit:10;stroke-dasharray:none;stroke-opacity:1"
   d="m 64.3511,144.3291 v 1.568 l -0.417,0.111 c -1.608,0.423 -2.69,2.082 -2.428,3.713 0.361,2.25 2.751,3.467 4.785,2.437 0.584,-0.296 1.253,-1.004 1.522,-1.615 0.244,-0.549 0.333,-1.589 0.188,-2.132 -0.28,-1.032 -1.205,-2.027 -2.157,-2.323 l -0.461,-0.143 -0.027,-1.606 -0.005,-1.593 0.521,0.051 c 0.297,0.035 0.886,0.189 1.308,0.343 2.27,0.829 3.968,2.681 4.602,5.025 0.236,0.87 0.236,2.668 0.001,3.538 -0.56,2.08 -2.019,3.845 -3.942,4.77 -0.987,0.475 -1.877,0.665 -3.096,0.665 -1.276,0 -2.01,-0.177 -3.243,-0.783 -0.791,-0.388 -1.071,-0.596 -1.822,-1.352 -1.478,-1.484 -2.113,-3.005 -2.107,-5.06 0.003,-2.135 0.769,-3.874 2.349,-5.338 1.088,-1.006 2.887,-1.822 4.062,-1.838 l 0.368,-0.007 v 1.569 z" /><path
   inkscape:connector-curvature="0"
   id="path52"
   style="fill:#ffffff;fill-opacity:1;fill-rule:nonzero;stroke:none"
   d="m 54.917,146.0029 v 1.571 l -0.366,0.153 c -0.831,0.347 -1.247,1.038 -1.186,1.975 0.031,0.509 0.091,0.684 0.338,0.99 0.165,0.205 0.473,0.474 0.683,0.598 0.822,0.483 2.177,0.096 2.585,-0.739 0.206,-0.418 0.304,-0.403 0.305,0.046 0.007,1.054 0.667,2.821 1.423,3.803 l 0.373,0.488 -0.422,0.365 c -0.516,0.444 -1.266,0.821 -2.027,1.02 -1.58,0.411 -3.209,-0.085 -4.51,-1.376 -1.922,-1.906 -2.365,-4.925 -1.104,-7.502 0.219,-0.445 0.557,-0.892 1.059,-1.394 0.924,-0.928 1.388,-1.185 2.826,-1.563 0.012,-0.003 0.023,0.7 0.023,1.565" /><path
   inkscape:connector-curvature="0"
   id="path56"
   style="fill:none;stroke:#000000;stroke-width:0.014;stroke-linecap:butt;stroke-linejoin:miter;stroke-miterlimit:10;stroke-dasharray:none;stroke-opacity:1"
   d="m 54.917,146.0029 v 1.571 l -0.366,0.153 c -0.831,0.347 -1.247,1.038 -1.186,1.975 0.031,0.509 0.091,0.684 0.338,0.99 0.165,0.205 0.473,0.474 0.683,0.598 0.822,0.483 2.177,0.096 2.585,-0.739 0.206,-0.418 0.304,-0.403 0.305,0.046 0.007,1.054 0.667,2.821 1.423,3.803 l 0.373,0.488 -0.422,0.365 c -0.516,0.444 -1.266,0.821 -2.027,1.02 -1.58,0.411 -3.209,-0.085 -4.51,-1.376 -1.922,-1.906 -2.365,-4.925 -1.104,-7.502 0.219,-0.445 0.557,-0.892 1.059,-1.394 0.924,-0.928 1.388,-1.185 2.826,-1.563 0.012,-0.003 0.023,0.7 0.023,1.565 z" /><path
   inkscape:connector-curvature="0"
   id="path60"
   style="fill:#ffffff;fill-opacity:1;fill-rule:nonzero;stroke:none"
   d="m 57.1924,144.7231 c 0.267,0.101 0.701,0.324 0.97,0.496 l 0.488,0.314 -0.184,0.259 c -0.457,0.649 -0.99,2.008 -1.143,2.914 l -0.067,0.392 -0.186,-0.384 c -0.253,-0.521 -0.435,-0.704 -0.938,-0.948 l -0.429,-0.208 v -1.576 -1.576 l 0.505,0.066 c 0.277,0.037 0.717,0.149 0.984,0.251" /><path
   inkscape:connector-curvature="0"
   id="path64"
   style="fill:none;stroke:#000000;stroke-width:0.014;stroke-linecap:butt;stroke-linejoin:miter;stroke-miterlimit:10;stroke-dasharray:none;stroke-opacity:1"
   d="m 57.1924,144.7231 c 0.267,0.101 0.701,0.324 0.97,0.496 l 0.488,0.314 -0.184,0.259 c -0.457,0.649 -0.99,2.008 -1.143,2.914 l -0.067,0.392 -0.186,-0.384 c -0.253,-0.521 -0.435,-0.704 -0.938,-0.948 l -0.429,-0.208 v -1.576 -1.576 l 0.505,0.066 c 0.277,0.037 0.717,0.149 0.984,0.251 z" /><path
   inkscape:connector-curvature="0"
   id="path68"
   style="fill:#1d1d1b;fill-opacity:1;fill-rule:nonzero;stroke:none"
   d="m 51.4326,180.6211 c 0.037,0.176 0.193,0.717 0.35,1.204 0.868,2.726 2.801,4.302 5.593,4.56 1.624,0.15 2.749,-0.119 4.665,-1.116 1.478,-0.767 2.085,-0.995 3.009,-1.123 1.91,-0.266 3.416,0.421 3.897,1.78 l 0.168,0.469 h 1.021 1.022 l -0.067,-0.414 c -0.037,-0.228 -0.177,-0.747 -0.313,-1.154 -0.969,-2.914 -3.222,-4.524 -6.329,-4.524 -1.313,0 -2.033,0.203 -3.825,1.082 -2.02,0.991 -2.643,1.188 -3.791,1.188 -1.714,0 -2.684,-0.57 -3.238,-1.903 l -0.154,-0.367 h -1.038 -1.039 z" /><path
   inkscape:connector-curvature="0"
   id="path72"
   style="fill:none;stroke:#1d1d1b;stroke-width:0.057;stroke-linecap:butt;stroke-linejoin:miter;stroke-miterlimit:10;stroke-dasharray:none;stroke-opacity:1"
   d="m 51.4326,180.6211 c 0.037,0.176 0.193,0.717 0.35,1.204 0.868,2.726 2.801,4.302 5.593,4.56 1.624,0.15 2.749,-0.119 4.665,-1.116 1.478,-0.767 2.085,-0.995 3.009,-1.123 1.91,-0.266 3.416,0.421 3.897,1.78 l 0.168,0.469 h 1.021 1.022 l -0.067,-0.414 c -0.037,-0.228 -0.177,-0.747 -0.313,-1.154 -0.969,-2.914 -3.222,-4.524 -6.329,-4.524 -1.313,0 -2.033,0.203 -3.825,1.082 -2.02,0.991 -2.643,1.188 -3.791,1.188 -1.714,0 -2.684,-0.57 -3.238,-1.903 l -0.154,-0.367 h -1.038 -1.039 z" /><path
   inkscape:connector-curvature="0"
   id="path76"
   style="fill:#14738e;fill-opacity:1;fill-rule:nonzero;stroke:none"
   d="m 53.4868,181.0347 c 0.572,1.171 1.744,1.822 3.277,1.822 1.11,0 1.867,-0.226 3.608,-1.078 0.863,-0.423 1.902,-0.873 2.309,-1 1.379,-0.434 3.516,-0.248 4.848,0.42 1.109,0.558 2.08,1.607 2.674,2.887 0.364,0.782 0.693,1.889 0.596,1.988 -0.037,0.036 -0.374,0.077 -0.747,0.091 l -0.682,0.026 -0.299,-0.628 c -0.447,-0.935 -1.091,-1.403 -2.246,-1.63 -1.388,-0.273 -3.015,0.072 -4.635,0.98 -2.203,1.237 -3.951,1.541 -5.931,1.032 -1.431,-0.368 -2.772,-1.345 -3.496,-2.545 -0.346,-0.577 -0.92,-2.022 -1.023,-2.582 l -0.06,-0.32 h 0.772 0.771 z" /><path
   inkscape:connector-curvature="0"
   id="path80"
   style="fill:none;stroke:#1d1d1b;stroke-width:0.057;stroke-linecap:butt;stroke-linejoin:miter;stroke-miterlimit:10;stroke-dasharray:none;stroke-opacity:1"
   d="m 53.4868,181.0347 c 0.572,1.171 1.744,1.822 3.277,1.822 1.11,0 1.867,-0.226 3.608,-1.078 0.863,-0.423 1.902,-0.873 2.309,-1 1.379,-0.434 3.516,-0.248 4.848,0.42 1.109,0.558 2.08,1.607 2.674,2.887 0.364,0.782 0.693,1.889 0.596,1.988 -0.037,0.036 -0.374,0.077 -0.747,0.091 l -0.682,0.026 -0.299,-0.628 c -0.447,-0.935 -1.091,-1.403 -2.246,-1.63 -1.388,-0.273 -3.015,0.072 -4.635,0.98 -2.203,1.237 -3.951,1.541 -5.931,1.032 -1.431,-0.368 -2.772,-1.345 -3.496,-2.545 -0.346,-0.577 -0.92,-2.022 -1.023,-2.582 l -0.06,-0.32 h 0.772 0.771 z" /><path
   inkscape:connector-curvature="0"
   id="path84"
   style="fill:#14738e;fill-opacity:1;fill-rule:nonzero;stroke:#000000;stroke-width:0.014;stroke-linecap:butt;stroke-linejoin:miter;stroke-miterlimit:10;stroke-dasharray:none;stroke-opacity:1"
   d="m 66.1162,168.1489 1.198,0.449 -0.002,0.005 c -0.123,0.25 -0.189,0.527 -0.189,0.826 0,0.204 0.021,0.368 0.081,0.552 l 0.009,0.032 -1.36,0.429 -0.028,0.008 c -0.166,-0.151 -0.38,-0.246 -0.619,-0.251 l -0.003,-0.016 -0.116,-1.004 c 0.485,-0.159 0.871,-0.543 1.029,-1.03" /><path
   inkscape:connector-curvature="0"
   id="path88"
   style="fill:#34aacd;fill-opacity:1;fill-rule:nonzero;stroke:none"
   d="m 70.793,154.4854 -0.63,0.645 c -1.076,1.101 -2.132,1.705 -3.651,2.088 -1.175,0.298 -2.942,0.232 -4.076,-0.151 -0.965,-0.325 -1.924,-0.881 -2.622,-1.518 l -0.526,-0.481 -0.391,0.338 c -1.326,1.147 -3.165,1.543 -4.814,1.036 -2.542,-0.779 -4.257,-3.538 -4.045,-6.508 0.072,-1.002 0.258,-1.675 0.724,-2.632 0.192,-0.393 0.333,-0.729 0.311,-0.745 -0.02,-0.016 -0.299,-0.213 -0.617,-0.439 -0.322,-0.225 -0.608,-0.408 -0.641,-0.406 -0.107,0.005 -3.447,3.216 -3.447,3.315 0,0.024 0.582,0.869 1.292,1.876 0.712,1.008 1.295,1.88 1.295,1.94 0,0.132 -1.498,3.896 -1.588,3.989 -0.036,0.037 -0.993,0.231 -2.13,0.431 -1.134,0.2 -2.157,0.399 -2.271,0.44 -0.198,0.074 -0.205,0.139 -0.226,2.435 l -0.021,2.359 0.522,0.105 c 0.286,0.057 1.384,0.264 2.439,0.458 1.054,0.195 1.921,0.361 1.927,0.371 0.097,0.152 1.414,3.659 1.414,3.764 0,0.082 -0.598,0.981 -1.328,2.001 -0.728,1.019 -1.325,1.891 -1.325,1.935 0,0.102 3.267,3.372 3.367,3.372 0.04,0 0.963,-0.607 2.051,-1.351 1.085,-0.743 2.024,-1.337 2.087,-1.318 0.061,0.017 0.891,0.365 1.843,0.772 l 1.733,0.74 0.482,2.421 0.483,2.422 2.327,0.026 2.328,0.026 0.053,-0.223 c 0.028,-0.122 0.251,-1.215 0.493,-2.425 0.241,-1.212 0.454,-2.216 0.47,-2.233 0.018,-0.017 0.847,-0.363 1.839,-0.768 l 1.81,-0.738 2.054,1.386 2.054,1.387 1.659,-1.658 c 0.913,-0.912 1.66,-1.693 1.66,-1.739 0,-0.045 -0.568,-0.953 -1.262,-2.016 -0.695,-1.064 -1.294,-1.987 -1.331,-2.054 -0.038,-0.065 0.16,-0.618 0.439,-1.229 0.277,-0.609 0.64,-1.425 0.806,-1.813 l 0.302,-0.705 0.791,-0.145 c 0.439,-0.08 1.487,-0.266 2.33,-0.415 l 1.536,-0.269 0.072,-2.4 c 0.041,-1.321 0.055,-2.417 0.033,-2.438 -0.021,-0.023 -0.722,-0.154 -1.558,-0.293 -0.836,-0.141 -1.869,-0.33 -2.296,-0.423 l -0.777,-0.168 -0.267,-0.638 c -0.146,-0.352 -0.523,-1.226 -0.837,-1.946 l -0.569,-1.306 1.293,-1.904 c 0.714,-1.049 1.294,-1.942 1.293,-1.987 -0.003,-0.044 -0.727,-0.831 -1.609,-1.749 l -1.607,-1.668 -0.356,0.192 c -0.195,0.105 -0.357,0.198 -0.357,0.205 0,0.007 0.156,0.348 0.344,0.757 0.479,1.036 0.659,1.895 0.659,3.116 0,1.296 -0.192,2.142 -0.759,3.31 l -0.431,0.888 -0.006,0.013 c 1.607,2.728 1.596,7.1 0.559,10.881 0.375,0.211 0.629,0.613 0.629,1.074 0,0.681 -0.551,1.232 -1.232,1.232 -0.15,0 -0.293,-0.026 -0.424,-0.074 l -0.012,0.019 -0.432,0.594 -0.012,0.017 c 0.48,0.343 0.793,0.906 0.793,1.54 0,1.045 -0.846,1.892 -1.892,1.892 -0.71,0 -1.329,-0.391 -1.653,-0.969 l -0.017,0.006 -1.262,0.378 -0.041,0.012 c 0.057,0.121 0.087,0.255 0.087,0.398 0,0.522 -0.423,0.946 -0.945,0.946 -0.523,0 -0.947,-0.424 -0.947,-0.946 0,-0.42 0.256,-0.77 0.634,-0.894 l 0.019,-0.007 -0.129,-0.996 c -0.057,0.005 -0.113,0.008 -0.17,0.008 -0.886,0 -1.605,-0.718 -1.605,-1.604 0,-0.888 0.719,-1.606 1.605,-1.606 0.886,0 1.605,0.718 1.605,1.606 0,0.044 0,0.087 -0.004,0.131 l 1.312,0.507 c 0.346,-0.457 0.894,-0.753 1.511,-0.753 0.255,0 0.498,0.05 0.718,0.141 l 0.012,-0.013 0.446,-0.614 0.006,-0.01 c -0.266,-0.226 -0.436,-0.564 -0.436,-0.941 0,-0.681 0.552,-1.233 1.233,-1.233 0.072,0 0.146,0.007 0.217,0.019 1.099,-3.188 1.078,-7.592 -0.396,-10.422 l -0.021,0.021" /><path
   inkscape:connector-curvature="0"
   id="path92"
   style="fill:#14738e;fill-opacity:1;fill-rule:nonzero;stroke:none"
   d="m 55.8496,172.6382 c -0.009,0.013 -0.013,0.019 -0.013,0.019 3.166,-0.166 6.065,-1.466 8.317,-3.461 0.138,0.041 0.285,0.061 0.437,0.061 0.059,0 0.114,-0.003 0.17,-0.009 l 0.13,0.998 -0.02,0.005 c -0.377,0.125 -0.634,0.474 -0.634,0.895 0,0.521 0.425,0.945 0.947,0.945 0.523,0 0.947,-0.424 0.947,-0.945 0,-0.142 -0.032,-0.278 -0.088,-0.399 l 0.04,-0.011 1.263,-0.379 0.018,-0.006 c 0.323,0.579 0.942,0.971 1.652,0.971 1.045,0 1.892,-0.847 1.892,-1.892 0,-0.636 -0.313,-1.199 -0.793,-1.542 l 0.012,-0.016 0.431,-0.594 0.012,-0.019 c 0.133,0.048 0.275,0.074 0.424,0.074 0.682,0 1.233,-0.552 1.233,-1.232 0,-0.461 -0.253,-0.864 -0.63,-1.075 1.038,-3.781 1.047,-8.153 -0.559,-10.88 l 0.006,-0.013 0.431,-0.889 c 0.568,-1.167 0.761,-2.013 0.761,-3.31 0,-1.22 -0.182,-2.079 -0.66,-3.115 -0.188,-0.41 -0.344,-0.75 -0.344,-0.758 0,-0.006 0.16,-0.1 0.356,-0.205 l 0.358,-0.192 1.606,1.668 c 0.881,0.918 1.606,1.706 1.608,1.749 0.002,0.045 -0.579,0.939 -1.292,1.987 l -1.295,1.906 0.57,1.305 c 0.314,0.72 0.69,1.594 0.838,1.945 l 0.265,0.639 0.779,0.168 c 0.427,0.093 1.461,0.282 2.296,0.422 0.837,0.141 1.538,0.271 1.558,0.293 0.022,0.021 0.006,1.118 -0.034,2.439 l -0.07,2.4 -1.537,0.269 c -0.844,0.149 -1.892,0.335 -2.329,0.415 l -0.793,0.145 -0.303,0.705 c -0.164,0.387 -0.527,1.204 -0.804,1.813 -0.279,0.611 -0.477,1.164 -0.439,1.228 0.039,0.067 0.636,0.99 1.331,2.054 0.693,1.063 1.261,1.971 1.261,2.017 0,0.045 -0.747,0.828 -1.66,1.739 l -1.658,1.658 -2.056,-1.387 -2.052,-1.386 -1.808,0.738 c -0.995,0.406 -1.824,0.751 -1.841,0.767 -0.017,0.018 -0.227,1.022 -0.47,2.234 -0.243,1.211 -0.465,2.303 -0.493,2.425 l -0.053,0.223 -2.327,-0.027 -2.329,-0.026 -0.482,-2.421 -0.483,-2.422 -1.613,-0.689" /><path
   inkscape:connector-curvature="0"
   id="path96"
   style="fill:#14738e;fill-opacity:1;fill-rule:nonzero;stroke:none"
   d="m 68.6636,156.3491 c 0.775,3.872 -0.308,7.743 -2.568,10.744 0.065,0.173 0.102,0.361 0.102,0.559 0,0.045 -0.002,0.088 -0.005,0.132 l 1.312,0.507 c 0.345,-0.458 0.892,-0.754 1.511,-0.754 0.254,0 0.498,0.05 0.719,0.142 l 0.01,-0.013 0.447,-0.614 0.005,-0.01 c -0.265,-0.226 -0.435,-0.565 -0.435,-0.941 0,-0.681 0.551,-1.232 1.232,-1.232 0.073,0 0.146,0.006 0.217,0.018 1.1,-3.187 1.08,-7.593 -0.395,-10.423 l -0.023,0.022 -0.628,0.644 c -0.49,0.5 -0.975,0.898 -1.501,1.219" /><path
   inkscape:connector-curvature="0"
   id="path100"
   style="fill:#17738e;fill-opacity:1;fill-rule:nonzero;stroke:none"
   d="m 110.3711,117.7563 h 1.586 v -0.085 c 0,-0.522 -0.18,-1.051 -0.541,-1.591 -0.362,-0.538 -0.853,-0.934 -1.473,-1.186 -0.618,-0.253 -1.346,-0.379 -2.183,-0.379 -1.683,0 -3.058,0.585 -4.126,1.756 -1.07,1.171 -1.604,2.924 -1.604,5.259 0,2.325 0.531,4.076 1.594,5.251 1.063,1.176 2.445,1.765 4.146,1.765 0.83,0 1.555,-0.127 2.173,-0.379 0.62,-0.252 1.111,-0.652 1.473,-1.2 0.361,-0.547 0.541,-1.072 0.541,-1.577 v -0.086 h -1.586 v 0.086 c 0,0.324 -0.102,0.636 -0.303,0.934 -0.203,0.298 -0.493,0.522 -0.871,0.673 -0.378,0.151 -0.833,0.227 -1.362,0.227 -1.356,0 -2.365,-0.536 -3.028,-1.603 -0.664,-1.07 -0.995,-2.431 -0.995,-4.087 0,-1.671 0.332,-3.039 0.998,-4.102 0.667,-1.064 1.672,-1.595 3.017,-1.595 0.921,0 1.576,0.19 1.963,0.569 0.387,0.379 0.581,0.801 0.581,1.265 z" /><path
   inkscape:connector-curvature="0"
   id="path104"
   style="fill:#17738e;fill-opacity:1;fill-rule:nonzero;stroke:none"
   d="m 119.0327,115.8374 c 1.207,0 2.148,0.52 2.826,1.558 0.677,1.038 1.015,2.417 1.015,4.135 0,1.713 -0.338,3.091 -1.015,4.132 -0.678,1.04 -1.619,1.562 -2.826,1.562 -1.2,0 -2.143,-0.522 -2.823,-1.562 -0.68,-1.041 -1.021,-2.419 -1.021,-4.132 0,-1.718 0.341,-3.097 1.021,-4.135 0.68,-1.038 1.623,-1.558 2.823,-1.558 m -0.005,-1.322 c -1.653,0 -3.005,0.608 -4.051,1.825 -1.048,1.217 -1.569,2.948 -1.569,5.194 0,2.248 0.521,3.977 1.569,5.19 1.046,1.215 2.398,1.821 4.051,1.821 1.656,0 3.006,-0.606 4.055,-1.821 1.051,-1.213 1.575,-2.942 1.575,-5.19 0,-2.246 -0.524,-3.977 -1.575,-5.194 -1.049,-1.217 -2.399,-1.825 -4.055,-1.825" /><path
   inkscape:connector-curvature="0"
   id="path108"
   style="fill:#17738e;fill-opacity:1;fill-rule:nonzero;stroke:none"
   d="m 128.4277,121.9277 h 1.684 c 0.711,0 1.251,0.109 1.618,0.329 0.368,0.219 0.659,0.538 0.876,0.956 0.216,0.419 0.325,0.868 0.325,1.346 0,0.415 -0.086,0.787 -0.256,1.116 -0.172,0.327 -0.423,0.601 -0.752,0.824 -0.331,0.221 -0.891,0.332 -1.684,0.332 h -1.811 z m 0,-7.011 h -1.724 v 13.237 h 4.096 c 1.005,0 1.762,-0.145 2.267,-0.435 0.507,-0.291 0.907,-0.709 1.203,-1.258 0.296,-0.549 0.443,-1.145 0.443,-1.786 0,-0.519 -0.098,-1.015 -0.296,-1.49 -0.199,-0.474 -0.478,-0.904 -0.837,-1.287 -0.358,-0.384 -0.92,-0.726 -1.68,-1.028 0.284,-0.159 0.498,-0.31 0.641,-0.452 0.144,-0.143 0.317,-0.372 0.523,-0.691 0.207,-0.32 0.385,-0.617 0.539,-0.896 l 2.104,-3.914 h -1.974 l -1.826,3.479 c -0.446,0.841 -1.025,1.578 -1.739,2.209 h -1.74 z" /><path
   inkscape:connector-curvature="0"
   id="path112"
   style="fill:#17738e;fill-opacity:1;fill-rule:nonzero;stroke:none"
   d="m 137.0937,128.1533 h 1.721 v -8.518 c 0,-1.24 0.121,-2.072 0.364,-2.496 0.242,-0.424 0.617,-0.747 1.129,-0.969 0.513,-0.223 1.083,-0.333 1.715,-0.333 0.61,0 1.147,0.11 1.617,0.333 0.469,0.222 0.818,0.573 1.048,1.054 0.231,0.481 0.345,1.486 0.345,3.017 v 7.912 h 1.587 v -8.35 c 0,-1.547 -0.178,-2.633 -0.533,-3.258 -0.355,-0.626 -0.869,-1.121 -1.539,-1.484 -0.672,-0.364 -1.515,-0.546 -2.533,-0.546 -0.943,0 -1.81,0.145 -2.592,0.435 -0.786,0.29 -1.371,0.741 -1.754,1.352 -0.385,0.611 -0.575,1.646 -0.575,3.109 z" /><path
   inkscape:connector-curvature="0"
   id="path116"
   style="fill:#17738e;fill-opacity:1;fill-rule:nonzero;stroke:none"
   d="m 151.8232,129.603 h -1.049 c 0.05,0.388 0.179,0.714 0.38,0.981 0.2,0.267 0.412,0.458 0.636,0.572 0.22,0.114 0.475,0.17 0.765,0.17 0.354,0 0.716,-0.063 1.093,-0.188 l 0.844,-0.281 c 0.346,-0.119 0.601,-0.179 0.759,-0.179 0.171,0 0.311,0.039 0.426,0.114 0.115,0.078 0.216,0.256 0.307,0.534 h 1.05 c -0.114,-0.613 -0.353,-1.055 -0.712,-1.322 -0.361,-0.267 -0.741,-0.401 -1.14,-0.401 -0.244,0 -0.621,0.097 -1.133,0.291 l -0.573,0.213 -0.212,0.076 c -0.285,0.103 -0.512,0.154 -0.682,0.154 -0.107,0 -0.25,-0.042 -0.422,-0.124 -0.174,-0.082 -0.286,-0.285 -0.337,-0.61 m -1.306,-14.686 h -1.587 v 13.236 h 1.707 l 6.048,-9.405 0.554,-1.051 -0.034,1.04 v 9.416 h 1.586 v -13.236 h -1.69 l -6.067,9.448 -0.549,1.068 0.032,-1.066 z" /><path
   inkscape:connector-curvature="0"
   id="path120"
   style="fill:#17738e;fill-opacity:1;fill-rule:nonzero;stroke:none"
   d="m 163.9307,119.8809 h 4.823 l -2.325,6.149 z m -2.015,-4.964 h -1.595 l 5.421,13.236 h 1.742 l 5.01,-13.236 h -1.861 l -1.374,3.641 h -5.849 z" /><path
   inkscape:connector-curvature="0"
   id="path124"
   style="fill:#17738e;fill-opacity:1;fill-rule:nonzero;stroke:none"
   d="m 94.8745,141.4189 c 2.125,0 3.783,0.915 4.977,2.743 1.191,1.827 1.787,4.255 1.787,7.28 0,3.015 -0.596,5.439 -1.787,7.271 -1.194,1.834 -2.852,2.751 -4.977,2.751 -2.113,0 -3.77,-0.917 -4.967,-2.751 -1.198,-1.832 -1.797,-4.256 -1.797,-7.271 0,-3.025 0.599,-5.453 1.797,-7.28 1.197,-1.828 2.854,-2.743 4.967,-2.743 m -0.007,-2.327 c -2.912,0 -5.29,1.071 -7.132,3.214 -1.841,2.141 -2.762,5.19 -2.762,9.143 0,3.954 0.921,6.999 2.762,9.137 1.842,2.137 4.22,3.206 7.132,3.206 2.913,0 5.293,-1.069 7.141,-3.206 1.844,-2.138 2.769,-5.183 2.769,-9.137 0,-3.953 -0.925,-7.002 -2.769,-9.143 -1.848,-2.143 -4.228,-3.214 -7.141,-3.214" /><path
   inkscape:connector-curvature="0"
   id="path128"
   style="fill:#17738e;fill-opacity:1;fill-rule:nonzero;stroke:none"
   d="m 107.8105,145.0229 h 3.033 v -0.15 c 0,-1.291 0.456,-2.19 1.366,-2.696 0.911,-0.505 2.123,-0.758 3.633,-0.758 1.322,0 2.43,0.386 3.328,1.157 0.894,0.771 1.343,1.788 1.343,3.051 0,1.021 -0.387,1.858 -1.155,2.509 -0.77,0.641 -1.94,1.282 -3.509,1.923 l -1.215,0.496 c -1.649,0.681 -2.884,1.355 -3.697,2.021 -0.816,0.666 -1.421,1.405 -1.82,2.216 -0.401,0.811 -0.601,1.718 -0.601,2.719 0,1.762 0.621,3.25 1.867,4.463 1.244,1.211 3.192,1.818 5.842,1.818 2.43,0 4.139,-0.451 5.129,-1.352 0.991,-0.901 1.486,-1.952 1.486,-3.153 v -0.151 h -3.032 v 0.151 c 0,0.38 -0.153,0.756 -0.459,1.126 -0.305,0.37 -0.761,0.638 -1.371,0.803 -0.608,0.165 -1.279,0.248 -2.009,0.248 -1.489,0 -2.591,-0.373 -3.304,-1.12 -0.714,-0.746 -1.07,-1.596 -1.07,-2.547 0,-0.64 0.169,-1.244 0.507,-1.81 0.34,-0.567 0.808,-1.035 1.404,-1.404 0.595,-0.371 1.597,-0.867 3.007,-1.488 l 1.426,-0.616 c 2.278,-0.991 3.802,-2.032 4.571,-3.122 0.76,-1.091 1.141,-2.266 1.141,-3.527 0,-1.17 -0.312,-2.303 -0.932,-3.399 -0.619,-1.096 -1.481,-1.926 -2.584,-2.491 -1.098,-0.565 -2.565,-0.848 -4.398,-0.848 -1.741,0 -3.196,0.206 -4.362,0.621 -1.165,0.414 -2.051,1.096 -2.656,2.045 -0.607,0.948 -0.909,1.987 -0.909,3.116 z" /><path
   inkscape:connector-curvature="0"
   id="path132"
   style="fill:#17738e;fill-opacity:1;fill-rule:nonzero;stroke:none"
   d="m 130.0483,139.7983 h -3.034 v 23.303 h 3.034 v -10.375 h 10.705 v 10.375 h 3.033 v -23.303 h -3.033 v 10.601 h -10.705 z" /><path
   inkscape:connector-curvature="0"
   id="path136"
   style="fill:#17738e;fill-opacity:1;fill-rule:nonzero;stroke:none"
   d="m 155.542,139.7983 h -3.077 l -5.285,23.303 h 2.897 l 3.707,-16.412 0.514,-2.808 h 0.135 l 0.507,2.808 4.265,16.412 h 3.004 l 4.144,-16.457 0.498,-2.763 h 0.139 l 0.49,2.763 3.826,16.457 h 2.659 l -5.422,-23.303 h -3.078 l -4.205,16.711 -0.621,2.852 h -0.167 l -0.587,-2.852 z" /><path
   inkscape:connector-curvature="0"
   id="path140"
   style="fill:#17738e;fill-opacity:1;fill-rule:nonzero;stroke:none"
   d="m 180.3613,142.3657 h 3.579 c 2.134,0 3.745,0.312 4.833,0.939 1.087,0.626 1.919,1.607 2.494,2.944 0.578,1.339 0.865,3.019 0.865,5.042 0,2.024 -0.261,3.764 -0.789,5.223 -0.525,1.456 -1.327,2.531 -2.405,3.222 -1.077,0.692 -2.768,1.038 -5.074,1.038 h -3.503 z m -3.033,-2.567 v 23.302 h 6.442 c 3.131,0 5.425,-0.426 6.877,-1.277 1.452,-0.85 2.584,-2.149 3.401,-3.895 0.817,-1.748 1.223,-3.877 1.223,-6.39 0,-2.352 -0.367,-4.391 -1.102,-6.118 -0.738,-1.727 -1.851,-3.096 -3.342,-4.106 -1.492,-1.012 -3.704,-1.516 -6.637,-1.516 z" /><path
   inkscape:connector-curvature="0"
   id="path144"
   style="fill:#17738e;fill-opacity:1;fill-rule:nonzero;stroke:none"
   d="m 201.0039,149.9326 h 8.817 v 0.331 c 0,0.78 -0.182,1.539 -0.547,2.274 -0.367,0.735 -0.87,1.281 -1.513,1.636 -0.645,0.356 -1.395,0.534 -2.254,0.534 -1.014,0 -1.949,-0.418 -2.807,-1.254 -0.859,-0.835 -1.425,-2.009 -1.696,-3.521 m 8.593,-5.826 h 2.793 v -0.15 c 0,-0.741 -0.291,-1.496 -0.873,-2.266 -0.58,-0.772 -1.347,-1.358 -2.302,-1.758 -0.955,-0.4 -2.054,-0.601 -3.295,-0.601 -2.51,0 -4.445,0.826 -5.811,2.478 -1.361,1.651 -2.043,3.739 -2.043,6.262 0,2.582 0.72,4.721 2.162,6.418 1.443,1.696 3.302,2.546 5.577,2.546 1.25,0 2.383,-0.277 3.396,-0.827 1.015,-0.551 1.817,-1.408 2.408,-2.575 0.59,-1.166 0.885,-2.79 0.885,-4.872 v -0.931 h -11.665 c 0,-1.792 0.47,-3.268 1.409,-4.43 0.94,-1.16 2.244,-1.74 3.911,-1.74 1.197,0 2.071,0.237 2.622,0.712 0.548,0.475 0.826,1.003 0.826,1.584 z" /><path
   inkscape:connector-curvature="0"
   id="path148"
   style="fill:#17738e;fill-opacity:1;fill-rule:nonzero;stroke:none"
   d="m 219.3701,139.7983 h -2.792 v 16.771 h 2.792 v -3.034 c 0.57,1.012 1.114,1.738 1.629,2.178 0.517,0.44 1.079,0.771 1.689,0.991 0.612,0.22 1.262,0.331 1.953,0.331 0.691,0 1.35,-0.108 1.981,-0.324 0.632,-0.215 1.177,-0.538 1.638,-0.968 0.459,-0.431 0.916,-1.166 1.367,-2.208 0.569,0.972 1.132,1.684 1.688,2.141 0.555,0.455 1.126,0.794 1.711,1.02 0.586,0.226 1.207,0.339 1.868,0.339 0.951,0 1.813,-0.224 2.583,-0.669 0.772,-0.445 1.365,-1.078 1.78,-1.899 0.415,-0.822 0.624,-2.217 0.624,-4.19 v -10.479 h -2.794 v 9.324 c 0,1.972 -0.116,3.218 -0.354,3.738 -0.235,0.52 -0.562,0.918 -0.978,1.194 -0.416,0.275 -0.921,0.413 -1.511,0.413 -0.833,0 -1.601,-0.257 -2.302,-0.773 -0.703,-0.517 -1.262,-1.209 -1.684,-2.08 -0.421,-0.871 -0.631,-2.091 -0.631,-3.663 v -8.153 h -2.794 v 9.314 c 0,1.97 -0.109,3.215 -0.323,3.735 -0.216,0.52 -0.56,0.919 -1.029,1.2 -0.471,0.279 -0.974,0.42 -1.516,0.42 -0.762,0 -1.51,-0.266 -2.244,-0.796 -0.737,-0.53 -1.313,-1.239 -1.728,-2.124 -0.416,-0.887 -0.623,-2.086 -0.623,-3.596 z" /><rect
   style="fill:none;stroke:#ff00ff;stroke-width:0.22500001;stroke-miterlimit:4;stroke-dasharray:none;stroke-opacity:1"
   id="rect4593"
   width="231.237"
   height="96.863808"
   x="26.76363"
   y="-191.10179"
   transform="scale(1,-1)" /><flowRoot
   xml:space="preserve"
   id="flowRoot1042"
   style="font-style:normal;font-variant:normal;font-weight:normal;font-stretch:normal;font-size:12px;line-height:25px;font-family:'DejaVu Sans';-inkscape-font-specification:'DejaVu Sans, Normal';font-variant-ligatures:normal;font-variant-caps:normal;font-variant-numeric:normal;font-feature-settings:normal;text-align:center;letter-spacing:0px;word-spacing:0px;writing-mode:lr-tb;text-anchor:middle;fill:#000000;fill-opacity:1;stroke:none;stroke-width:1px;stroke-linecap:butt;stroke-linejoin:miter;stroke-opacity:1"
   transform="matrix(0.75000002,0,0,-0.75000002,20.943427,196.92199)"><flowRegion
     id="flowRegion1044"><rect
       id="rect1046"
       width="84.852814"
       height="14.142136"
       x="234.75946"
       y="100.83166" /></flowRegion><flowPara
     id="flowPara1048">Bby</flowPara></flowRoot><flowRoot
   xml:space="preserve"
   id="flowRoot1050"
   style="font-style:normal;font-variant:normal;font-weight:normal;font-stretch:normal;font-size:12px;line-height:25px;font-family:'DejaVu Sans';-inkscape-font-specification:'DejaVu Sans, Normal';font-variant-ligatures:normal;font-variant-caps:normal;font-variant-numeric:normal;font-feature-settings:normal;text-align:center;letter-spacing:0px;word-spacing:0px;writing-mode:lr-tb;text-anchor:middle;fill:#000000;fill-opacity:1;stroke:none;stroke-width:1px;stroke-linecap:butt;stroke-linejoin:miter;stroke-opacity:1"
   transform="matrix(0.75000002,0,0,-0.75000002,20.943427,196.92199)"><flowRegion
     id="flowRegion1052"><rect
       id="rect1054"
       width="70.003571"
       height="17.67767"
       x="241.12341"
       y="98.710335" /></flowRegion><flowPara
     id="flowPara1056">bbbbbbosdfsdfsdfsdfsdfssdf</flowPara></flowRoot><g
   aria-label="by BricoLabs"
   transform="matrix(0.78522998,0,0,-0.78522998,25.543582,160.53406)"
   style="font-style:italic;font-variant:normal;font-weight:bold;font-stretch:normal;font-size:12px;line-height:25px;font-family:'Averia Serif';-inkscape-font-specification:'Averia Serif, Bold Italic';font-variant-ligatures:normal;font-variant-caps:normal;font-variant-numeric:normal;font-feature-settings:normal;text-align:center;letter-spacing:0px;word-spacing:0px;writing-mode:lr-tb;text-anchor:middle;fill:#34aace;fill-opacity:1;stroke:none;stroke-width:1px;stroke-linecap:butt;stroke-linejoin:miter;stroke-opacity:1"
   id="flowRoot1058"><path
     d="m 224.79785,33.251953 v -0.140625 q 0,-0.38086 -0.15234,-0.591797 -0.14649,-0.216797 -0.38672,-0.216797 h -0.082 q -0.56836,0 -1.24805,0.990234 -0.32812,0.47461 -0.50391,1.072266 -0.16992,0.597656 -0.16992,1.007812 v 0.140625 q 0,0.269532 0.19336,0.462891 0.19336,0.193359 0.50391,0.193359 l 0.0527,-0.0059 q 0.27539,0 0.59766,-0.222656 0.32226,-0.222656 0.59766,-0.714844 0.59765,-1.060547 0.59765,-1.974609 z m -4.20117,2.742187 v -0.117187 q 0,-0.56836 0.36328,-1.488282 0.12305,-0.310546 0.63281,-2.449218 0.51563,-2.138672 0.51563,-2.25586 0,-0.28125 -0.29883,-0.427734 -0.29297,-0.146484 -0.29297,-0.333984 0,-0.19336 0.28125,-0.304688 0.55664,-0.222656 1.50586,-0.222656 0.49805,0 0.49805,0.498047 0,0.257812 -0.31641,1.359375 -0.31055,1.095703 -0.31055,1.505859 0,0.404297 0.0996,0.404297 0.0527,0 0.31055,-0.152344 0.25781,-0.158203 0.58594,-0.298828 0.33398,-0.146484 0.86133,-0.146484 0.52734,0 0.9082,0.421875 0.38672,0.421875 0.38672,1.001953 v 0.140625 q 0,0.580078 -0.27539,1.283203 -0.27539,0.703125 -0.76758,1.242187 -1.02539,1.113282 -2.30859,1.113282 -0.26954,0 -0.5625,-0.05273 -0.29297,-0.05859 -0.33399,-0.05859 -0.0352,0 -0.23437,0.05273 -0.19922,0.04687 -0.36914,0.04687 -0.375,0 -0.69727,-0.269531 -0.18164,-0.152344 -0.18164,-0.492188 z"
     style="font-style:italic;font-variant:normal;font-weight:bold;font-stretch:normal;font-size:12px;font-family:'Averia Serif';-inkscape-font-specification:'Averia Serif, Bold Italic';font-variant-ligatures:normal;font-variant-caps:normal;font-variant-numeric:normal;font-feature-settings:normal;text-align:center;writing-mode:lr-tb;text-anchor:middle;fill:#34aace;fill-opacity:1"
     id="path1066" /><path
     d="m 231.20215,31.576171 q 0.28125,-0.175781 0.64453,-0.175781 0.36328,0 0.50977,0.117188 0.15234,0.117187 0.15234,0.503906 v 0.146484 q 0,0.333985 -0.75586,1.986328 -0.75586,1.646485 -1.5,2.666016 -0.73828,1.025391 -1.74023,1.857422 -0.70899,0.585937 -1.27149,0.585937 -0.32226,0 -0.48633,-0.146484 -0.1582,-0.146484 -0.1582,-0.246094 0,-0.134765 0.63281,-0.36914 0.63867,-0.234375 1.02539,-0.580078 0.62696,-0.556641 0.62696,-1.119141 0,-0.75 -1.06641,-3.591797 -0.0762,-0.199219 -0.31641,-0.416016 -0.23437,-0.216796 -0.23437,-0.439453 0,-0.222656 0.3164,-0.439453 0.52735,-0.363281 0.86133,-0.363281 0.33985,0 0.50391,0.140625 0.46289,0.404297 0.63867,2.34375 0.11719,1.277344 0.28125,1.277344 0.25781,0 0.69727,-0.908203 0.43945,-0.908204 0.43945,-1.5 l -0.0762,-0.867188 q 0,-0.292969 0.27539,-0.462891 z"
     style="font-style:italic;font-variant:normal;font-weight:bold;font-stretch:normal;font-size:12px;font-family:'Averia Serif';-inkscape-font-specification:'Averia Serif, Bold Italic';font-variant-ligatures:normal;font-variant-caps:normal;font-variant-numeric:normal;font-feature-settings:normal;text-align:center;writing-mode:lr-tb;text-anchor:middle;fill:#34aace;fill-opacity:1"
     id="path1068" /><path
     d="m 238.44434,35.636718 v 0.128907 q 0,0.316406 0.59765,0.316406 h 0.25781 q 0.73243,0 1.23633,-0.503906 0.50977,-0.509766 0.50977,-1.207032 V 34.125 q 0,-0.574219 -0.41602,-0.884766 -0.41601,-0.310547 -1.07226,-0.310547 h -0.0527 q -0.43359,0 -0.54492,0.310547 -0.51562,1.441406 -0.51562,2.396484 z m 1.54687,-3.404297 q 0.61524,0 1.05469,-0.486328 0.43945,-0.492187 0.43945,-1.171875 v -0.04687 q 0,-0.480468 -0.29297,-0.773437 -0.29297,-0.292969 -0.79101,-0.292969 h -0.1875 q -0.35157,0 -0.48047,0.339844 -0.12891,0.333984 -0.35742,1.482422 l -0.0117,0.04101 -0.0176,0.08203 -0.0117,0.04102 -0.0352,0.169922 q -0.0879,0.304688 -0.0879,0.474609 v 0.07031 q 0,0.08789 0.19922,0.08789 h 0.35742 q 0.14063,-0.01758 0.22266,-0.01758 z m -2.2207,-1.171875 q 0.15234,-0.644531 0.15234,-0.996093 0,-0.357422 -0.2168,-0.533203 -0.40429,-0.333985 -0.40429,-0.427735 0,-0.210937 0.27539,-0.257812 0.27539,-0.05274 1.875,-0.05274 l 0.31055,-0.0059 h 0.97851 q 1.76367,0 2.24414,0.943359 0.17578,0.333985 0.17578,0.703125 0,1.142578 -1.14258,1.763672 -0.14648,0.08203 -0.41015,0.181641 -0.25781,0.09375 -0.25781,0.164062 l 0.46289,0.234375 q 0.97265,0.480469 0.97265,1.681641 0,0.480469 -0.26367,0.9375 -0.52148,0.919922 -1.77539,1.21875 -0.69727,0.164062 -1.62891,0.164062 h -0.62109 l -0.1582,-0.0059 h -0.31641 l -1.53516,0.0059 h -0.30468 q -0.41602,0 -0.41602,-0.298828 0,-0.152343 0.56836,-0.445312 0.32813,-0.169922 0.43359,-0.527344 0.11133,-0.357422 0.48047,-2.080078 0.375,-1.722656 0.52149,-2.367188 z"
     style="font-style:italic;font-variant:normal;font-weight:bold;font-stretch:normal;font-size:12px;font-family:'Averia Serif';-inkscape-font-specification:'Averia Serif, Bold Italic';font-variant-ligatures:normal;font-variant-caps:normal;font-variant-numeric:normal;font-feature-settings:normal;text-align:center;writing-mode:lr-tb;text-anchor:middle;fill:#34aace;fill-opacity:1"
     id="path1070" /><path
     d="m 244.59082,36.779296 h -0.11133 q -0.21094,0 -0.3457,-0.128906 -0.13477,-0.128906 -0.13477,-0.316406 v -0.09375 q 0,-0.421875 0.38086,-1.541016 0.38672,-1.125 0.38672,-1.68164 0,-0.275391 -0.26367,-0.363282 -0.25781,-0.09375 -0.25781,-0.509765 0,-0.123047 0.25781,-0.28711 0.65625,-0.421875 1.02539,-0.421875 h 0.17578 q 0.56836,0 0.56836,0.855469 0,0.498047 0.0937,0.498047 0.041,0 0.22852,-0.228516 0.19336,-0.234375 0.33398,-0.380859 0.14063,-0.152344 0.46875,-0.375 0.32813,-0.228516 0.56836,-0.228516 0.24609,0 0.41016,0.164063 0.16406,0.164062 0.16406,0.251953 v 0.07617 q 0,0.28125 -0.25195,0.568359 -0.2461,0.28125 -0.51563,0.28125 l -0.5625,-0.05859 q -0.1875,0 -0.43359,0.257812 -0.24024,0.251953 -0.42188,0.673828 -0.18164,0.416016 -0.40429,1.464844 -0.2168,1.048828 -0.36329,1.248047 -0.20507,0.27539 -0.99609,0.27539 z"
     style="font-style:italic;font-variant:normal;font-weight:bold;font-stretch:normal;font-size:12px;font-family:'Averia Serif';-inkscape-font-specification:'Averia Serif, Bold Italic';font-variant-ligatures:normal;font-variant-caps:normal;font-variant-numeric:normal;font-feature-settings:normal;text-align:center;writing-mode:lr-tb;text-anchor:middle;fill:#34aace;fill-opacity:1"
     id="path1072" /><path
     d="m 249.84668,36.832031 h -0.18164 q -0.28125,0 -0.46289,-0.169922 -0.17578,-0.169922 -0.17578,-0.46875 v -0.08203 q 0,-0.06445 0.42773,-1.488282 0.42774,-1.429687 0.42774,-1.863281 0,-0.222656 -0.36914,-0.257812 -0.36329,-0.04102 -0.36329,-0.298828 0,-0.292969 0.60938,-0.574219 0.60937,-0.28711 1.16601,-0.28711 h 0.15235 q 0.28711,0 0.39844,0.158204 0.11718,0.152343 0.11718,0.492187 0,0.09375 -0.38086,1.605469 -0.375,1.511719 -0.375,1.822265 0,0.304688 0.2461,0.304688 0,0 0.5332,-0.09961 0.16406,0 0.16406,0.18164 v 0.05859 q 0,0.263672 -0.70898,0.615234 -0.70313,0.351563 -1.22461,0.351563 z m 2.28516,-7.330078 q 0,0.351562 -0.23438,0.585937 -0.23437,0.234375 -0.47461,0.234375 l -0.13476,0.01758 h -0.14649 q -0.29297,0 -0.49219,-0.169922 Q 250.4502,30 250.4502,29.777343 l -0.0117,-0.05273 v -0.1875 q 0,-0.310547 0.22851,-0.574219 0.22852,-0.269531 0.65039,-0.269531 h 0.0586 q 0.30468,0 0.52148,0.158203 0.22266,0.152344 0.22266,0.410156 l 0.0117,0.05274 z"
     style="font-style:italic;font-variant:normal;font-weight:bold;font-stretch:normal;font-size:12px;font-family:'Averia Serif';-inkscape-font-specification:'Averia Serif, Bold Italic';font-variant-ligatures:normal;font-variant-caps:normal;font-variant-numeric:normal;font-feature-settings:normal;text-align:center;writing-mode:lr-tb;text-anchor:middle;fill:#34aace;fill-opacity:1"
     id="path1074" /><path
     d="m 256.08105,31.353515 q 1.44727,0 1.44727,0.761719 0,0.316406 -0.20508,0.574219 -0.20508,0.257812 -0.42187,0.257812 -0.2168,0 -0.52735,-0.380859 -0.31054,-0.386719 -0.66797,-0.386719 -0.48632,0 -0.9082,0.650391 -0.53906,0.832031 -0.53906,1.927734 0,0.550781 0.25195,0.861328 0.25196,0.304688 0.65039,0.304688 0.39844,0 0.96094,-0.251953 0.56836,-0.251954 0.65039,-0.251954 0.24609,0 0.24609,0.246094 0,0.28711 -0.84375,0.75586 -0.84375,0.46875 -1.54101,0.46875 h -0.12891 q -0.79687,0 -1.32422,-0.503907 -0.52148,-0.509765 -0.52148,-1.289062 v -0.240235 q 0,-0.615234 0.30469,-1.289062 0.60937,-1.359375 1.83984,-1.939453 0.58008,-0.275391 1.16016,-0.275391 z"
     style="font-style:italic;font-variant:normal;font-weight:bold;font-stretch:normal;font-size:12px;font-family:'Averia Serif';-inkscape-font-specification:'Averia Serif, Bold Italic';font-variant-ligatures:normal;font-variant-caps:normal;font-variant-numeric:normal;font-feature-settings:normal;text-align:center;writing-mode:lr-tb;text-anchor:middle;fill:#34aace;fill-opacity:1"
     id="path1076" /><path
     d="m 259.49121,34.904296 v 0.222657 q 0,0.46289 0.18164,0.761718 0.18164,0.292969 0.52149,0.292969 h 0.0996 q 0.21093,0 0.48632,-0.1875 0.27539,-0.193359 0.52149,-0.65625 0.56836,-1.072265 0.56836,-2.085937 v -0.275391 q 0,-0.421875 -0.16992,-0.708984 -0.16407,-0.292969 -0.52149,-0.292969 h -0.0527 q -0.58594,0 -1.11328,0.9375 -0.52149,0.931641 -0.52149,1.992187 z m 1.75195,-3.626953 h 0.28125 q 0.78516,0 1.32422,0.544922 0.54492,0.539063 0.54492,1.5 v 0.08789 q 0,0.585937 -0.26367,1.259765 -0.26367,0.667969 -0.75586,1.183594 -0.97265,1.025391 -2.23828,1.025391 -0.006,0 -0.0117,0 h -0.19336 q -0.84375,0 -1.40625,-0.533203 -0.5625,-0.533203 -0.5625,-1.435547 v -0.08789 l 0.006,-0.08789 q 0,-0.585938 0.25782,-1.230469 0.55078,-1.388672 1.82226,-1.957031 0.60938,-0.269532 1.19531,-0.269532 z"
     style="font-style:italic;font-variant:normal;font-weight:bold;font-stretch:normal;font-size:12px;font-family:'Averia Serif';-inkscape-font-specification:'Averia Serif, Bold Italic';font-variant-ligatures:normal;font-variant-caps:normal;font-variant-numeric:normal;font-feature-settings:normal;text-align:center;writing-mode:lr-tb;text-anchor:middle;fill:#34aace;fill-opacity:1"
     id="path1078" /><path
     d="m 265.9541,29.99414 q 0,-0.298828 -0.24023,-0.439453 -0.49219,-0.287109 -0.49219,-0.392578 0,-0.304688 0.32812,-0.357422 0.0762,-0.01172 1.78125,-0.01172 l 1.06641,-0.01172 q 0.44531,0 0.44531,0.1875 0,0.111328 -0.60937,0.509765 -0.3457,0.222656 -0.53906,0.732422 -0.1875,0.503906 -0.69141,2.789063 -0.50391,2.285156 -0.50391,2.548828 0,0.263672 0.18164,0.363281 0.18164,0.09961 0.86133,0.09961 0.68555,0 1.11914,-0.263672 0.0586,-0.03516 0.68555,-0.662109 0.63281,-0.632812 0.93164,-0.632812 0.14063,0 0.14063,0.269531 0,0.09961 -0.26954,0.966797 -0.26953,0.861328 -0.40429,0.978515 -0.12891,0.111328 -1.01953,0.111328 h -0.15821 l -0.16992,-0.0059 -0.69141,-0.0059 h -2.43164 q -1.17187,0 -1.20703,-0.0059 -0.26953,-0.04687 -0.26953,-0.287109 0,-0.128906 0.20508,-0.28125 l 0.11719,-0.07617 q 0.21093,-0.123047 0.24609,-0.158203 0.24609,-0.228516 0.41016,-0.720703 0.16992,-0.492188 0.67383,-2.8125 0.5039,-2.320313 0.5039,-2.431641 z"
     style="font-style:italic;font-variant:normal;font-weight:bold;font-stretch:normal;font-size:12px;font-family:'Averia Serif';-inkscape-font-specification:'Averia Serif, Bold Italic';font-variant-ligatures:normal;font-variant-caps:normal;font-variant-numeric:normal;font-feature-settings:normal;text-align:center;writing-mode:lr-tb;text-anchor:middle;fill:#34aace;fill-opacity:1"
     id="path1080" /><path
     d="m 274.90723,32.707031 v -0.134766 q 0,-0.210937 -0.15821,-0.36914 -0.1582,-0.158204 -0.43359,-0.158204 h -0.0937 l -0.0469,0.0059 q -0.22851,0 -0.49804,0.210937 -0.26953,0.205078 -0.63281,0.808594 -0.56836,0.949219 -0.56836,1.892578 v 0.216797 q 0,0.369141 0.13476,0.521484 0.14063,0.152344 0.29297,0.152344 h 0.041 l 0.0351,-0.0059 q 0.28711,0 0.67383,-0.357422 0.38672,-0.357422 0.65039,-0.826172 0.60352,-1.072266 0.60352,-1.957031 z m 1.71093,3.123047 q 0,0.357422 -0.61523,0.708984 -0.43945,0.251953 -0.95508,0.251953 h -0.10547 q -0.56836,0 -0.56836,-0.796875 0,-0.333984 -0.1582,-0.333984 -0.0352,0 -0.41602,0.345703 -0.375,0.339844 -0.77343,0.539062 -0.39844,0.199219 -0.90821,0.199219 -0.50976,0 -0.86718,-0.380859 -0.35157,-0.386719 -0.35157,-0.978516 v -0.123047 q 0.006,-0.65039 0.28711,-1.388672 0.28125,-0.726562 0.76172,-1.300781 1.02539,-1.207031 2.26758,-1.21289 0.22852,0 0.55664,0.140625 0.33399,0.140625 0.39258,0.140625 0.0586,0 0.1582,-0.07031 l 0.14649,-0.105469 q 0.22851,-0.117187 0.5332,-0.117187 h 0.22266 q 0.44531,0 0.44531,0.427734 0,0.421875 -0.41016,1.652344 -0.41015,1.230469 -0.41015,1.822266 0,0.304687 0.26367,0.304687 l 0.12304,-0.01758 q 0.38086,0 0.38086,0.292969 z"
     style="font-style:italic;font-variant:normal;font-weight:bold;font-stretch:normal;font-size:12px;font-family:'Averia Serif';-inkscape-font-specification:'Averia Serif, Bold Italic';font-variant-ligatures:normal;font-variant-caps:normal;font-variant-numeric:normal;font-feature-settings:normal;text-align:center;writing-mode:lr-tb;text-anchor:middle;fill:#34aace;fill-opacity:1"
     id="path1082" /><path
     d="m 281.77441,33.251953 v -0.140625 q 0,-0.38086 -0.15234,-0.591797 -0.14648,-0.216797 -0.38672,-0.216797 h -0.082 q -0.56836,0 -1.24805,0.990234 -0.32812,0.47461 -0.5039,1.072266 -0.16992,0.597656 -0.16992,1.007812 v 0.140625 q 0,0.269532 0.19335,0.462891 0.19336,0.193359 0.50391,0.193359 l 0.0527,-0.0059 q 0.27539,0 0.59765,-0.222656 0.32227,-0.222656 0.59766,-0.714844 0.59765,-1.060547 0.59765,-1.974609 z m -4.20117,2.742187 v -0.117187 q 0,-0.56836 0.36328,-1.488282 0.12305,-0.310546 0.63282,-2.449218 0.51562,-2.138672 0.51562,-2.25586 0,-0.28125 -0.29883,-0.427734 -0.29297,-0.146484 -0.29297,-0.333984 0,-0.19336 0.28125,-0.304688 0.55664,-0.222656 1.50586,-0.222656 0.49805,0 0.49805,0.498047 0,0.257812 -0.31641,1.359375 -0.31054,1.095703 -0.31054,1.505859 0,0.404297 0.0996,0.404297 0.0527,0 0.31054,-0.152344 0.25782,-0.158203 0.58594,-0.298828 0.33399,-0.146484 0.86133,-0.146484 0.52734,0 0.9082,0.421875 0.38672,0.421875 0.38672,1.001953 v 0.140625 q 0,0.580078 -0.27539,1.283203 -0.27539,0.703125 -0.76758,1.242187 -1.02539,1.113282 -2.30859,1.113282 -0.26953,0 -0.5625,-0.05273 -0.29297,-0.05859 -0.33399,-0.05859 -0.0351,0 -0.23437,0.05273 -0.19922,0.04687 -0.36914,0.04687 -0.375,0 -0.69727,-0.269531 -0.18164,-0.152344 -0.18164,-0.492188 z"
     style="font-style:italic;font-variant:normal;font-weight:bold;font-stretch:normal;font-size:12px;font-family:'Averia Serif';-inkscape-font-specification:'Averia Serif, Bold Italic';font-variant-ligatures:normal;font-variant-caps:normal;font-variant-numeric:normal;font-feature-settings:normal;text-align:center;writing-mode:lr-tb;text-anchor:middle;fill:#34aace;fill-opacity:1"
     id="path1084" /><path
     d="m 283.79004,35.976562 q 0,-0.339844 0.12891,-0.597656 0.1289,-0.257813 0.36914,-0.257813 0.24609,0 0.51562,0.410157 0.27539,0.410156 0.44531,0.515625 0.17578,0.09961 0.49219,0.09961 0.32227,0 0.50977,-0.111328 0.3164,-0.1875 0.3164,-0.492188 0,-0.310547 -0.22265,-0.515625 -0.0469,-0.04687 -0.69141,-0.457031 -0.63867,-0.416016 -0.90234,-0.732422 -0.26368,-0.322265 -0.26368,-0.802734 0,-0.720703 0.6504,-1.236328 0.65039,-0.521485 1.51171,-0.521485 h 0.14063 q 0.91992,0 1.29492,0.175782 0.25195,0.117187 0.25195,0.46875 v 0.134765 q 0,0.351563 -0.1289,0.591797 -0.12305,0.240234 -0.35742,0.240234 -0.22852,0 -0.55079,-0.439453 -0.32226,-0.445312 -0.76757,-0.445312 -0.28125,0 -0.48633,0.169922 -0.19922,0.164062 -0.19922,0.427734 0,0.263672 0.28711,0.492188 0.12305,0.09961 0.68555,0.427734 0.5625,0.322266 0.84375,0.644531 0.28125,0.322266 0.28125,0.978516 0,0.65625 -0.65625,1.195312 -0.65625,0.539063 -1.61719,0.539063 h -0.29297 q -0.86133,0 -1.2832,-0.199219 -0.30469,-0.146484 -0.30469,-0.568359 z"
     style="font-style:italic;font-variant:normal;font-weight:bold;font-stretch:normal;font-size:12px;font-family:'Averia Serif';-inkscape-font-specification:'Averia Serif, Bold Italic';font-variant-ligatures:normal;font-variant-caps:normal;font-variant-numeric:normal;font-feature-settings:normal;text-align:center;writing-mode:lr-tb;text-anchor:middle;fill:#34aace;fill-opacity:1"
     id="path1086" /></g><g
   aria-label="2018"
   transform="matrix(0,1,1,-0.14836895,0,0)"
   style="font-style:normal;font-variant:normal;font-weight:normal;font-stretch:normal;font-size:9.04669952px;line-height:1.25;font-family:Geneva;-inkscape-font-specification:'Geneva, Normal';font-variant-ligatures:normal;font-variant-caps:normal;font-variant-numeric:normal;font-feature-settings:normal;text-align:start;letter-spacing:0px;word-spacing:0px;writing-mode:lr-tb;text-anchor:start;fill:#17738e;fill-opacity:1;stroke:none;stroke-width:0.22617574"
   id="text918"><path
     d="m 181.21386,247.67039 q -0.0177,0.72444 -0.39756,1.20593 -0.37989,0.47707 -0.90555,0.81279 -0.52567,0.3313 -0.98949,0.62726 -0.4594,0.29596 -0.64051,0.64493 h 2.87569 v 1.03807 h -4.41292 q 0.0177,-1.05574 0.49032,-1.64324 0.47707,-0.58751 1.09992,-0.94973 0.62726,-0.36222 1.10433,-0.7377 0.48149,-0.37547 0.508,-0.99831 -0.004,-0.41523 -0.26063,-0.65819 -0.25178,-0.24295 -0.68027,-0.24737 -0.52566,0.004 -0.77303,0.3313 -0.24295,0.32247 -0.23854,0.88347 h -1.13967 q 0.0132,-1.15292 0.61843,-1.70067 0.60959,-0.54775 1.64325,-0.54333 0.99831,0.0177 1.54165,0.561 0.54775,0.53891 0.55658,1.37379 z"
     style="font-style:normal;font-variant:normal;font-weight:bold;font-stretch:normal;font-size:9.04669952px;font-family:Geneva;-inkscape-font-specification:'Geneva, Bold';font-variant-ligatures:normal;font-variant-caps:normal;font-variant-numeric:normal;font-feature-settings:normal;text-align:start;writing-mode:lr-tb;text-anchor:start;fill:#17738e;fill-opacity:1;stroke-width:0.22617574"
     id="path914" /><path
     d="m 184.2044,245.7356 q 1.3782,0.0574 1.83761,1.02482 0.4594,0.96739 0.42406,2.17774 0.0398,1.21035 -0.41965,2.18658 -0.45498,0.97623 -1.88178,1.03808 -1.41796,-0.0751 -1.84203,-1.10876 -0.42406,-1.03365 -0.37989,-2.19099 -0.0353,-1.14409 0.42406,-2.10265 0.45941,-0.96298 1.83762,-1.02482 z m 0,1.02923 q -0.63168,0.0309 -0.81721,0.67144 -0.18553,0.64051 -0.16344,1.50189 -0.0221,0.86138 0.16344,1.51515 0.18553,0.65376 0.81721,0.6891 0.62726,-0.0353 0.81278,-0.69352 0.18553,-0.6626 0.16345,-1.51073 0.0221,-0.84813 -0.16345,-1.49306 -0.18552,-0.64493 -0.81278,-0.68027 z"
     style="font-style:normal;font-variant:normal;font-weight:bold;font-stretch:normal;font-size:9.04669952px;font-family:Geneva;-inkscape-font-specification:'Geneva, Bold';font-variant-ligatures:normal;font-variant-caps:normal;font-variant-numeric:normal;font-feature-settings:normal;text-align:start;writing-mode:lr-tb;text-anchor:start;fill:#17738e;fill-opacity:1;stroke-width:0.22617574"
     id="path916" /><path
     d="m 190.21197,245.7356 v 6.26377 h -1.21035 v -4.29364 h -1.51956 v -0.84813 q 0.87905,0.009 1.27219,-0.23854 0.39756,-0.24737 0.48149,-0.88346 z"
     style="font-style:normal;font-variant:normal;font-weight:bold;font-stretch:normal;font-size:9.04669952px;font-family:Geneva;-inkscape-font-specification:'Geneva, Bold';font-variant-ligatures:normal;font-variant-caps:normal;font-variant-numeric:normal;font-feature-settings:normal;text-align:start;writing-mode:lr-tb;text-anchor:start;fill:#17738e;fill-opacity:1;stroke-width:0.22617574"
     id="path918" /><path
     d="m 194.43494,246.7295 q -0.45057,0.004 -0.6891,0.22086 -0.23412,0.21203 -0.23412,0.55659 0.004,0.34455 0.24295,0.54333 0.24295,0.19436 0.68027,0.19878 0.4329,-0.004 0.64935,-0.20762 0.21645,-0.20319 0.21645,-0.53449 0,-0.3313 -0.21203,-0.54775 -0.20762,-0.22087 -0.65377,-0.2297 z m 2.06289,0.72444 q -0.004,0.4594 -0.20761,0.76861 -0.19878,0.3048 -0.55217,0.47708 0.48149,0.23853 0.70236,0.60959 0.22087,0.36664 0.21645,0.96739 0.004,0.79512 -0.55659,1.32962 -0.561,0.53008 -1.74042,0.55659 -1.11317,-0.0265 -1.66092,-0.55659 -0.54333,-0.53008 -0.54333,-1.31195 -0.004,-0.62726 0.22528,-0.9939 0.2297,-0.36664 0.71561,-0.60075 -0.41523,-0.22971 -0.59192,-0.51241 -0.1767,-0.28271 -0.17228,-0.76862 -0.004,-0.67585 0.49474,-1.16618 0.50358,-0.49474 1.56815,-0.51682 1.069,0.0177 1.58583,0.50799 0.52124,0.48591 0.51682,1.21035 z m -1.08666,2.72991 q 0,-0.39314 -0.2562,-0.67585 -0.25621,-0.28713 -0.75979,-0.30038 -0.49915,0.0132 -0.73769,0.30038 -0.23854,0.28712 -0.23854,0.69352 -0.004,0.40198 0.23412,0.66702 0.23854,0.26504 0.7642,0.27387 0.52125,-0.0132 0.75978,-0.28713 0.23854,-0.27829 0.23412,-0.67143 z"
     style="font-style:normal;font-variant:normal;font-weight:bold;font-stretch:normal;font-size:9.04669952px;font-family:Geneva;-inkscape-font-specification:'Geneva, Bold';font-variant-ligatures:normal;font-variant-caps:normal;font-variant-numeric:normal;font-feature-settings:normal;text-align:start;writing-mode:lr-tb;text-anchor:start;fill:#17738e;fill-opacity:1;stroke-width:0.22617574"
     id="path920" /></g>
<g
   aria-label="Feira de tecnoloxas abertas"
   transform="matrix(0.74762308,0,0,-0.74762308,31.186565,623.43772)"
   style="font-style:normal;font-variant:normal;font-weight:normal;font-stretch:normal;font-size:11.99987507px;line-height:1.25;font-family:sans-serif;-inkscape-font-specification:'sans-serif, Normal';font-variant-ligatures:normal;font-variant-caps:normal;font-variant-numeric:normal;font-feature-settings:normal;text-align:start;letter-spacing:0px;word-spacing:0px;writing-mode:lr-tb;text-anchor:start;fill:#34aace;fill-opacity:1;stroke:none"
   id="flowRoot180"><path
     d="m 63.806628,690.02342 h 5.027292 v 0.99608 h -3.84371 v 2.5781 h 3.468714 v 0.99608 H 64.99021 v 4.17769 h -1.183582 z"
     style="font-style:normal;font-variant:normal;font-weight:normal;font-stretch:normal;font-size:11.99987507px;font-family:sans-serif;-inkscape-font-specification:'sans-serif, Normal';font-variant-ligatures:normal;font-variant-caps:normal;font-variant-numeric:normal;font-feature-settings:normal;text-align:start;writing-mode:lr-tb;text-anchor:start;fill:#34aace;fill-opacity:1"
     id="path929" /><path
     d="m 75.630724,695.22063 v 0.52734 h -4.95698 q 0.07031,1.11327 0.667962,1.6992 0.603509,0.58007 1.675764,0.58007 0.621087,0 1.201159,-0.15234 0.585932,-0.15234 1.160144,-0.45703 v 1.01952 q -0.580072,0.24609 -1.18944,0.375 -0.609369,0.1289 -1.236316,0.1289 -1.570296,0 -2.490208,-0.91405 -0.914053,-0.91405 -0.914053,-2.47263 0,-1.61131 0.867178,-2.55466 0.873038,-0.94921 2.349585,-0.94921 1.324205,0 2.091775,0.85546 0.77343,0.8496 0.77343,2.31443 z m -1.078114,-0.3164 q -0.01172,-0.88476 -0.498042,-1.4121 -0.480463,-0.52734 -1.27733,-0.52734 -0.902334,0 -1.447251,0.50976 -0.539057,0.50976 -0.621087,1.43554 z"
     style="font-style:normal;font-variant:normal;font-weight:normal;font-stretch:normal;font-size:11.99987507px;font-family:sans-serif;-inkscape-font-specification:'sans-serif, Normal';font-variant-ligatures:normal;font-variant-caps:normal;font-variant-numeric:normal;font-feature-settings:normal;text-align:start;writing-mode:lr-tb;text-anchor:start;fill:#34aace;fill-opacity:1"
     id="path931" /><path
     d="m 77.400237,692.20894 h 1.078114 v 6.56243 h -1.078114 z m 0,-2.55466 h 1.078114 v 1.36522 h -1.078114 z"
     style="font-style:normal;font-variant:normal;font-weight:normal;font-stretch:normal;font-size:11.99987507px;font-family:sans-serif;-inkscape-font-specification:'sans-serif, Normal';font-variant-ligatures:normal;font-variant-caps:normal;font-variant-numeric:normal;font-feature-settings:normal;text-align:start;writing-mode:lr-tb;text-anchor:start;fill:#34aace;fill-opacity:1"
     id="path933" /><path
     d="m 84.531021,693.21674 q -0.181638,-0.10546 -0.398433,-0.15234 -0.210935,-0.0527 -0.468745,-0.0527 -0.914053,0 -1.406236,0.59765 -0.486323,0.59179 -0.486323,1.70506 v 3.45699 h -1.083973 v -6.56243 h 1.083973 v 1.01952 q 0.339841,-0.59765 0.884757,-0.88475 0.544916,-0.29297 1.324205,-0.29297 0.111327,0 0.246091,0.0176 0.134764,0.0117 0.298825,0.041 z"
     style="font-style:normal;font-variant:normal;font-weight:normal;font-stretch:normal;font-size:11.99987507px;font-family:sans-serif;-inkscape-font-specification:'sans-serif, Normal';font-variant-ligatures:normal;font-variant-caps:normal;font-variant-numeric:normal;font-feature-settings:normal;text-align:start;writing-mode:lr-tb;text-anchor:start;fill:#34aace;fill-opacity:1"
     id="path935" /><path
     d="m 88.655978,695.47258 q -1.306627,0 -1.810528,0.29883 -0.503901,0.29882 -0.503901,1.01952 0,0.57421 0.374996,0.91405 0.380856,0.33398 1.03124,0.33398 0.896475,0 1.435532,-0.63281 0.544916,-0.63866 0.544916,-1.69334 v -0.24023 z m 2.150369,-0.44531 v 3.7441 h -1.078114 v -0.99608 q -0.369137,0.59765 -0.919913,0.88476 -0.550775,0.28124 -1.347642,0.28124 -1.007802,0 -1.605452,-0.56249 -0.591791,-0.56835 -0.591791,-1.51756 0,-1.10741 0.738274,-1.66991 0.744133,-0.56249 2.214821,-0.56249 h 1.511703 v -0.10547 q 0,-0.74413 -0.492183,-1.14842 -0.486323,-0.41016 -1.371079,-0.41016 -0.562494,0 -1.095692,0.13477 -0.533197,0.13476 -1.02538,0.40429 v -0.99608 q 0.591791,-0.22852 1.148426,-0.33984 0.556635,-0.11719 1.083973,-0.11719 1.423813,0 2.126931,0.73827 0.703118,0.73828 0.703118,2.23826 z"
     style="font-style:normal;font-variant:normal;font-weight:normal;font-stretch:normal;font-size:11.99987507px;font-family:sans-serif;-inkscape-font-specification:'sans-serif, Normal';font-variant-ligatures:normal;font-variant-caps:normal;font-variant-numeric:normal;font-feature-settings:normal;text-align:start;writing-mode:lr-tb;text-anchor:start;fill:#34aace;fill-opacity:1"
     id="path937" /><path
     d="m 101.17147,693.20503 v -3.55075 h 1.07812 v 9.11709 h -1.07812 v -0.98436 q -0.33984,0.58593 -0.86131,0.87304 -0.515624,0.28124 -1.242179,0.28124 -1.189441,0 -1.939433,-0.9492 -0.744133,-0.94921 -0.744133,-2.49607 0,-1.54686 0.744133,-2.49607 0.749992,-0.94921 1.939433,-0.94921 0.726555,0 1.242179,0.28711 0.52147,0.28124 0.86131,0.86718 z m -3.673785,2.29099 q 0,1.18944 0.486323,1.86912 0.492183,0.67382 1.347642,0.67382 0.85546,0 1.34764,-0.67382 0.49218,-0.67968 0.49218,-1.86912 0,-1.18944 -0.49218,-1.86326 -0.49218,-0.67968 -1.34764,-0.67968 -0.855459,0 -1.347642,0.67968 -0.486323,0.67382 -0.486323,1.86326 z"
     style="font-style:normal;font-variant:normal;font-weight:normal;font-stretch:normal;font-size:11.99987507px;font-family:sans-serif;-inkscape-font-specification:'sans-serif, Normal';font-variant-ligatures:normal;font-variant-caps:normal;font-variant-numeric:normal;font-feature-settings:normal;text-align:start;writing-mode:lr-tb;text-anchor:start;fill:#34aace;fill-opacity:1"
     id="path939" /><path
     d="m 110.08349,695.22063 v 0.52734 h -4.95698 q 0.0703,1.11327 0.66796,1.6992 0.60351,0.58007 1.67577,0.58007 0.62108,0 1.20116,-0.15234 0.58593,-0.15234 1.16014,-0.45703 v 1.01952 q -0.58007,0.24609 -1.18944,0.375 -0.60937,0.1289 -1.23632,0.1289 -1.57029,0 -2.4902,-0.91405 -0.91406,-0.91405 -0.91406,-2.47263 0,-1.61131 0.86718,-2.55466 0.87304,-0.94921 2.34959,-0.94921 1.3242,0 2.09177,0.85546 0.77343,0.8496 0.77343,2.31443 z m -1.07811,-0.3164 q -0.0117,-0.88476 -0.49804,-1.4121 -0.48047,-0.52734 -1.27734,-0.52734 -0.90233,0 -1.44725,0.50976 -0.53905,0.50976 -0.62108,1.43554 z"
     style="font-style:normal;font-variant:normal;font-weight:normal;font-stretch:normal;font-size:11.99987507px;font-family:sans-serif;-inkscape-font-specification:'sans-serif, Normal';font-variant-ligatures:normal;font-variant-caps:normal;font-variant-numeric:normal;font-feature-settings:normal;text-align:start;writing-mode:lr-tb;text-anchor:start;fill:#34aace;fill-opacity:1"
     id="path941" /><path
     d="m 116.73967,690.34568 v 1.86326 h 2.22068 v 0.83788 h -2.22068 v 3.56247 q 0,0.80272 0.21679,1.03124 0.22266,0.22851 0.89648,0.22851 h 1.10741 v 0.90233 h -1.10741 q -1.24803,0 -1.72264,-0.46288 -0.4746,-0.46875 -0.4746,-1.6992 v -3.56247 h -0.79101 v -0.83788 h 0.79101 v -1.86326 z"
     style="font-style:normal;font-variant:normal;font-weight:normal;font-stretch:normal;font-size:11.99987507px;font-family:sans-serif;-inkscape-font-specification:'sans-serif, Normal';font-variant-ligatures:normal;font-variant-caps:normal;font-variant-numeric:normal;font-feature-settings:normal;text-align:start;writing-mode:lr-tb;text-anchor:start;fill:#34aace;fill-opacity:1"
     id="path943" /><path
     d="m 125.99739,695.22063 v 0.52734 h -4.95698 q 0.0703,1.11327 0.66796,1.6992 0.60351,0.58007 1.67576,0.58007 0.62109,0 1.20116,-0.15234 0.58593,-0.15234 1.16014,-0.45703 v 1.01952 q -0.58007,0.24609 -1.18944,0.375 -0.60936,0.1289 -1.23631,0.1289 -1.5703,0 -2.49021,-0.91405 -0.91405,-0.91405 -0.91405,-2.47263 0,-1.61131 0.86718,-2.55466 0.87303,-0.94921 2.34958,-0.94921 1.32421,0 2.09178,0.85546 0.77343,0.8496 0.77343,2.31443 z m -1.07812,-0.3164 q -0.0117,-0.88476 -0.49804,-1.4121 -0.48046,-0.52734 -1.27733,-0.52734 -0.90233,0 -1.44725,0.50976 -0.53906,0.50976 -0.62109,1.43554 z"
     style="font-style:normal;font-variant:normal;font-weight:normal;font-stretch:normal;font-size:11.99987507px;font-family:sans-serif;-inkscape-font-specification:'sans-serif, Normal';font-variant-ligatures:normal;font-variant-caps:normal;font-variant-numeric:normal;font-feature-settings:normal;text-align:start;writing-mode:lr-tb;text-anchor:start;fill:#34aace;fill-opacity:1"
     id="path945" /><path
     d="m 132.48951,692.46089 v 1.0078 q -0.45703,-0.25195 -0.91991,-0.37499 -0.45703,-0.12891 -0.92577,-0.12891 -1.04882,0 -1.62889,0.66797 -0.58008,0.6621 -0.58008,1.86326 0,1.20116 0.58008,1.86912 0.58007,0.6621 1.62889,0.6621 0.46874,0 0.92577,-0.12304 0.46288,-0.12891 0.91991,-0.38086 v 0.99608 q -0.45117,0.21094 -0.93749,0.31641 -0.48046,0.10546 -1.02538,0.10546 -1.48241,0 -2.35544,-0.93163 -0.87304,-0.93163 -0.87304,-2.51364 0,-1.60545 0.87889,-2.52537 0.88476,-0.91991 2.4199,-0.91991 0.49804,0 0.97265,0.10547 0.4746,0.0996 0.91991,0.30468 z"
     style="font-style:normal;font-variant:normal;font-weight:normal;font-stretch:normal;font-size:11.99987507px;font-family:sans-serif;-inkscape-font-specification:'sans-serif, Normal';font-variant-ligatures:normal;font-variant-caps:normal;font-variant-numeric:normal;font-feature-settings:normal;text-align:start;writing-mode:lr-tb;text-anchor:start;fill:#34aace;fill-opacity:1"
     id="path947" /><path
     d="m 139.83123,694.81048 v 3.96089 h -1.07811 v -3.92574 q 0,-0.93163 -0.36328,-1.39451 -0.36328,-0.46289 -1.08983,-0.46289 -0.87304,0 -1.37694,0.55664 -0.5039,0.55663 -0.5039,1.51756 v 3.70894 h -1.08398 v -6.56243 h 1.08398 v 1.01952 q 0.38671,-0.59179 0.90819,-0.88475 0.52734,-0.29297 1.21288,-0.29297 1.13085,0 1.71092,0.70312 0.58007,0.69726 0.58007,2.05662 z"
     style="font-style:normal;font-variant:normal;font-weight:normal;font-stretch:normal;font-size:11.99987507px;font-family:sans-serif;-inkscape-font-specification:'sans-serif, Normal';font-variant-ligatures:normal;font-variant-caps:normal;font-variant-numeric:normal;font-feature-settings:normal;text-align:start;writing-mode:lr-tb;text-anchor:start;fill:#34aace;fill-opacity:1"
     id="path949" /><path
     d="m 144.53625,692.96479 q -0.86717,0 -1.37107,0.67968 -0.50391,0.67383 -0.50391,1.85155 0,1.17772 0.49805,1.8574 0.5039,0.67382 1.37693,0.67382 0.86132,0 1.36522,-0.67968 0.50391,-0.67968 0.50391,-1.85154 0,-1.16601 -0.50391,-1.84569 -0.5039,-0.68554 -1.36522,-0.68554 z m 0,-0.91405 q 1.40624,0 2.20897,0.91405 0.80272,0.91406 0.80272,2.53123 0,1.61131 -0.80272,2.53122 -0.80273,0.91405 -2.20897,0.91405 -1.41209,0 -2.21482,-0.91405 -0.79686,-0.91991 -0.79686,-2.53122 0,-1.61717 0.79686,-2.53123 0.80273,-0.91405 2.21482,-0.91405 z"
     style="font-style:normal;font-variant:normal;font-weight:normal;font-stretch:normal;font-size:11.99987507px;font-family:sans-serif;-inkscape-font-specification:'sans-serif, Normal';font-variant-ligatures:normal;font-variant-caps:normal;font-variant-numeric:normal;font-feature-settings:normal;text-align:start;writing-mode:lr-tb;text-anchor:start;fill:#34aace;fill-opacity:1"
     id="path951" /><path
     d="m 149.32917,689.65428 h 1.07812 v 9.11709 h -1.07812 z"
     style="font-style:normal;font-variant:normal;font-weight:normal;font-stretch:normal;font-size:11.99987507px;font-family:sans-serif;-inkscape-font-specification:'sans-serif, Normal';font-variant-ligatures:normal;font-variant-caps:normal;font-variant-numeric:normal;font-feature-settings:normal;text-align:start;writing-mode:lr-tb;text-anchor:start;fill:#34aace;fill-opacity:1"
     id="path953" /><path
     d="m 155.20021,692.96479 q -0.86718,0 -1.37108,0.67968 -0.5039,0.67383 -0.5039,1.85155 0,1.17772 0.49804,1.8574 0.5039,0.67382 1.37694,0.67382 0.86132,0 1.36522,-0.67968 0.5039,-0.67968 0.5039,-1.85154 0,-1.16601 -0.5039,-1.84569 -0.5039,-0.68554 -1.36522,-0.68554 z m 0,-0.91405 q 1.40624,0 2.20896,0.91405 0.80273,0.91406 0.80273,2.53123 0,1.61131 -0.80273,2.53122 -0.80272,0.91405 -2.20896,0.91405 -1.41209,0 -2.21482,-0.91405 -0.79687,-0.91991 -0.79687,-2.53122 0,-1.61717 0.79687,-2.53123 0.80273,-0.91405 2.21482,-0.91405 z"
     style="font-style:normal;font-variant:normal;font-weight:normal;font-stretch:normal;font-size:11.99987507px;font-family:sans-serif;-inkscape-font-specification:'sans-serif, Normal';font-variant-ligatures:normal;font-variant-caps:normal;font-variant-numeric:normal;font-feature-settings:normal;text-align:start;writing-mode:lr-tb;text-anchor:start;fill:#34aace;fill-opacity:1"
     id="path955" /><path
     d="m 165.07315,692.20894 -2.37302,3.19333 2.49607,3.3691 h -1.27147 l -1.91014,-2.57809 -1.91014,2.57809 h -1.27147 l 2.5488,-3.43355 -2.332,-3.12888 h 1.27147 l 1.74021,2.33787 1.74022,-2.33787 z"
     style="font-style:normal;font-variant:normal;font-weight:normal;font-stretch:normal;font-size:11.99987507px;font-family:sans-serif;-inkscape-font-specification:'sans-serif, Normal';font-variant-ligatures:normal;font-variant-caps:normal;font-variant-numeric:normal;font-feature-settings:normal;text-align:start;writing-mode:lr-tb;text-anchor:start;fill:#34aace;fill-opacity:1"
     id="path957" /><path
     d="m 168.07312,689.17382 h 1.16601 l -1.91014,2.2031 h -0.89647 z m -1.3535,3.03512 h 1.07812 v 6.56243 h -1.07812 z m 0.53906,-0.1582 z"
     style="font-style:normal;font-variant:normal;font-weight:normal;font-stretch:normal;font-size:11.99987507px;font-family:sans-serif;-inkscape-font-specification:'sans-serif, Normal';font-variant-ligatures:normal;font-variant-caps:normal;font-variant-numeric:normal;font-feature-settings:normal;text-align:start;writing-mode:lr-tb;text-anchor:start;fill:#34aace;fill-opacity:1"
     id="path959" /><path
     d="m 173.0301,695.47258 q -1.30663,0 -1.81053,0.29883 -0.5039,0.29882 -0.5039,1.01952 0,0.57421 0.375,0.91405 0.38085,0.33398 1.03124,0.33398 0.89647,0 1.43553,-0.63281 0.54492,-0.63866 0.54492,-1.69334 v -0.24023 z m 2.15037,-0.44531 v 3.7441 h -1.07811 v -0.99608 q -0.36914,0.59765 -0.91992,0.88476 -0.55077,0.28124 -1.34764,0.28124 -1.0078,0 -1.60545,-0.56249 -0.59179,-0.56835 -0.59179,-1.51756 0,-1.10741 0.73827,-1.66991 0.74413,-0.56249 2.21482,-0.56249 h 1.51171 v -0.10547 q 0,-0.74413 -0.49219,-1.14842 -0.48632,-0.41016 -1.37108,-0.41016 -0.56249,0 -1.09569,0.13477 -0.5332,0.13476 -1.02538,0.40429 v -0.99608 q 0.59179,-0.22852 1.14843,-0.33984 0.55663,-0.11719 1.08397,-0.11719 1.42381,0 2.12693,0.73827 0.70312,0.73828 0.70312,2.23826 z"
     style="font-style:normal;font-variant:normal;font-weight:normal;font-stretch:normal;font-size:11.99987507px;font-family:sans-serif;-inkscape-font-specification:'sans-serif, Normal';font-variant-ligatures:normal;font-variant-caps:normal;font-variant-numeric:normal;font-feature-settings:normal;text-align:start;writing-mode:lr-tb;text-anchor:start;fill:#34aace;fill-opacity:1"
     id="path961" /><path
     d="m 181.59056,692.4023 v 1.01952 q -0.45703,-0.23437 -0.94921,-0.35156 -0.49218,-0.11718 -1.01952,-0.11718 -0.80273,0 -1.20702,0.24609 -0.39843,0.24609 -0.39843,0.73827 0,0.375 0.2871,0.59179 0.28711,0.21094 1.15429,0.40429 l 0.36914,0.082 q 1.14842,0.24609 1.62888,0.69726 0.48633,0.44531 0.48633,1.24804 0,0.91405 -0.72656,1.44725 -0.72069,0.53319 -1.9863,0.53319 -0.52734,0 -1.10156,-0.10546 -0.56835,-0.0996 -1.20115,-0.30469 v -1.11327 q 0.59765,0.31055 1.17772,0.46875 0.58007,0.15234 1.14842,0.15234 0.76171,0 1.17187,-0.25781 0.41015,-0.26367 0.41015,-0.73827 0,-0.43945 -0.29883,-0.67382 -0.29296,-0.23438 -1.29491,-0.45117 l -0.37499,-0.0879 q -1.00194,-0.21094 -1.44725,-0.64453 -0.44531,-0.43944 -0.44531,-1.20116 0,-0.92577 0.65624,-1.42967 0.65625,-0.5039 1.86326,-0.5039 0.59765,0 1.12499,0.0879 0.52734,0.0879 0.97265,0.26367 z"
     style="font-style:normal;font-variant:normal;font-weight:normal;font-stretch:normal;font-size:11.99987507px;font-family:sans-serif;-inkscape-font-specification:'sans-serif, Normal';font-variant-ligatures:normal;font-variant-caps:normal;font-variant-numeric:normal;font-feature-settings:normal;text-align:start;writing-mode:lr-tb;text-anchor:start;fill:#34aace;fill-opacity:1"
     id="path963" /><path
     d="m 190.46742,695.47258 q -1.30663,0 -1.81053,0.29883 -0.5039,0.29882 -0.5039,1.01952 0,0.57421 0.37499,0.91405 0.38086,0.33398 1.03124,0.33398 0.89648,0 1.43554,-0.63281 0.54491,-0.63866 0.54491,-1.69334 v -0.24023 z m 2.15037,-0.44531 v 3.7441 h -1.07812 v -0.99608 q -0.36913,0.59765 -0.91991,0.88476 -0.55078,0.28124 -1.34764,0.28124 -1.0078,0 -1.60545,-0.56249 -0.59179,-0.56835 -0.59179,-1.51756 0,-1.10741 0.73827,-1.66991 0.74413,-0.56249 2.21482,-0.56249 h 1.5117 v -0.10547 q 0,-0.74413 -0.49218,-1.14842 -0.48632,-0.41016 -1.37108,-0.41016 -0.56249,0 -1.09569,0.13477 -0.5332,0.13476 -1.02538,0.40429 v -0.99608 q 0.59179,-0.22852 1.14842,-0.33984 0.55664,-0.11719 1.08398,-0.11719 1.42381,0 2.12693,0.73827 0.70312,0.73828 0.70312,2.23826 z"
     style="font-style:normal;font-variant:normal;font-weight:normal;font-stretch:normal;font-size:11.99987507px;font-family:sans-serif;-inkscape-font-specification:'sans-serif, Normal';font-variant-ligatures:normal;font-variant-caps:normal;font-variant-numeric:normal;font-feature-settings:normal;text-align:start;writing-mode:lr-tb;text-anchor:start;fill:#34aace;fill-opacity:1"
     id="path965" /><path
     d="m 199.55522,695.49602 q 0,-1.18944 -0.49218,-1.86326 -0.48632,-0.67968 -1.34178,-0.67968 -0.85546,0 -1.34765,0.67968 -0.48632,0.67382 -0.48632,1.86326 0,1.18944 0.48632,1.86912 0.49219,0.67382 1.34765,0.67382 0.85546,0 1.34178,-0.67382 0.49218,-0.67968 0.49218,-1.86912 z m -3.66793,-2.29099 q 0.33984,-0.58594 0.85546,-0.86718 0.52148,-0.28711 1.24218,-0.28711 1.1953,0 1.93943,0.94921 0.74999,0.94921 0.74999,2.49607 0,1.54686 -0.74999,2.49607 -0.74413,0.9492 -1.93943,0.9492 -0.7207,0 -1.24218,-0.28124 -0.51562,-0.28711 -0.85546,-0.87304 v 0.98436 h -1.08397 v -9.11709 h 1.08397 z"
     style="font-style:normal;font-variant:normal;font-weight:normal;font-stretch:normal;font-size:11.99987507px;font-family:sans-serif;-inkscape-font-specification:'sans-serif, Normal';font-variant-ligatures:normal;font-variant-caps:normal;font-variant-numeric:normal;font-feature-settings:normal;text-align:start;writing-mode:lr-tb;text-anchor:start;fill:#34aace;fill-opacity:1"
     id="path967" /><path
     d="m 208.07465,695.22063 v 0.52734 h -4.95698 q 0.0703,1.11327 0.66796,1.6992 0.60351,0.58007 1.67577,0.58007 0.62109,0 1.20116,-0.15234 0.58593,-0.15234 1.16014,-0.45703 v 1.01952 q -0.58007,0.24609 -1.18944,0.375 -0.60937,0.1289 -1.23631,0.1289 -1.5703,0 -2.49021,-0.91405 -0.91406,-0.91405 -0.91406,-2.47263 0,-1.61131 0.86718,-2.55466 0.87304,-0.94921 2.34959,-0.94921 1.3242,0 2.09177,0.85546 0.77343,0.8496 0.77343,2.31443 z m -1.07811,-0.3164 q -0.0117,-0.88476 -0.49804,-1.4121 -0.48047,-0.52734 -1.27733,-0.52734 -0.90234,0 -1.44725,0.50976 -0.53906,0.50976 -0.62109,1.43554 z"
     style="font-style:normal;font-variant:normal;font-weight:normal;font-stretch:normal;font-size:11.99987507px;font-family:sans-serif;-inkscape-font-specification:'sans-serif, Normal';font-variant-ligatures:normal;font-variant-caps:normal;font-variant-numeric:normal;font-feature-settings:normal;text-align:start;writing-mode:lr-tb;text-anchor:start;fill:#34aace;fill-opacity:1"
     id="path969" /><path
     d="m 213.64686,693.21674 q -0.18164,-0.10546 -0.39843,-0.15234 -0.21094,-0.0527 -0.46875,-0.0527 -0.91405,0 -1.40623,0.59765 -0.48633,0.59179 -0.48633,1.70506 v 3.45699 h -1.08397 v -6.56243 h 1.08397 v 1.01952 q 0.33984,-0.59765 0.88476,-0.88475 0.54492,-0.29297 1.3242,-0.29297 0.11133,0 0.2461,0.0176 0.13476,0.0117 0.29882,0.041 z"
     style="font-style:normal;font-variant:normal;font-weight:normal;font-stretch:normal;font-size:11.99987507px;font-family:sans-serif;-inkscape-font-specification:'sans-serif, Normal';font-variant-ligatures:normal;font-variant-caps:normal;font-variant-numeric:normal;font-feature-settings:normal;text-align:start;writing-mode:lr-tb;text-anchor:start;fill:#34aace;fill-opacity:1"
     id="path971" /><path
     d="m 215.85583,690.34568 v 1.86326 h 2.22068 v 0.83788 h -2.22068 v 3.56247 q 0,0.80272 0.21679,1.03124 0.22266,0.22851 0.89648,0.22851 h 1.10741 v 0.90233 h -1.10741 q -1.24804,0 -1.72264,-0.46288 -0.47461,-0.46875 -0.47461,-1.6992 v -3.56247 h -0.791 v -0.83788 h 0.791 v -1.86326 z"
     style="font-style:normal;font-variant:normal;font-weight:normal;font-stretch:normal;font-size:11.99987507px;font-family:sans-serif;-inkscape-font-specification:'sans-serif, Normal';font-variant-ligatures:normal;font-variant-caps:normal;font-variant-numeric:normal;font-feature-settings:normal;text-align:start;writing-mode:lr-tb;text-anchor:start;fill:#34aace;fill-opacity:1"
     id="path973" /><path
     d="m 222.48271,695.47258 q -1.30662,0 -1.81052,0.29883 -0.5039,0.29882 -0.5039,1.01952 0,0.57421 0.37499,0.91405 0.38086,0.33398 1.03124,0.33398 0.89648,0 1.43553,-0.63281 0.54492,-0.63866 0.54492,-1.69334 v -0.24023 z m 2.15037,-0.44531 v 3.7441 h -1.07811 v -0.99608 q -0.36914,0.59765 -0.91991,0.88476 -0.55078,0.28124 -1.34765,0.28124 -1.0078,0 -1.60545,-0.56249 -0.59179,-0.56835 -0.59179,-1.51756 0,-1.10741 0.73828,-1.66991 0.74413,-0.56249 2.21482,-0.56249 h 1.5117 v -0.10547 q 0,-0.74413 -0.49218,-1.14842 -0.48633,-0.41016 -1.37108,-0.41016 -0.5625,0 -1.09569,0.13477 -0.5332,0.13476 -1.02538,0.40429 v -0.99608 q 0.59179,-0.22852 1.14842,-0.33984 0.55664,-0.11719 1.08397,-0.11719 1.42382,0 2.12694,0.73827 0.70311,0.73828 0.70311,2.23826 z"
     style="font-style:normal;font-variant:normal;font-weight:normal;font-stretch:normal;font-size:11.99987507px;font-family:sans-serif;-inkscape-font-specification:'sans-serif, Normal';font-variant-ligatures:normal;font-variant-caps:normal;font-variant-numeric:normal;font-feature-settings:normal;text-align:start;writing-mode:lr-tb;text-anchor:start;fill:#34aace;fill-opacity:1"
     id="path975" /><path
     d="m 231.04317,692.4023 v 1.01952 q -0.45702,-0.23437 -0.94921,-0.35156 -0.49218,-0.11718 -1.01952,-0.11718 -0.80272,0 -1.20702,0.24609 -0.39843,0.24609 -0.39843,0.73827 0,0.375 0.28711,0.59179 0.2871,0.21094 1.15428,0.40429 l 0.36914,0.082 q 1.14842,0.24609 1.62889,0.69726 0.48632,0.44531 0.48632,1.24804 0,0.91405 -0.72655,1.44725 -0.7207,0.53319 -1.98631,0.53319 -0.52734,0 -1.10155,-0.10546 -0.56836,-0.0996 -1.20116,-0.30469 v -1.11327 q 0.59765,0.31055 1.17772,0.46875 0.58007,0.15234 1.14843,0.15234 0.76171,0 1.17186,-0.25781 0.41015,-0.26367 0.41015,-0.73827 0,-0.43945 -0.29882,-0.67382 -0.29297,-0.23438 -1.29491,-0.45117 l -0.375,-0.0879 q -1.00194,-0.21094 -1.44725,-0.64453 -0.44531,-0.43944 -0.44531,-1.20116 0,-0.92577 0.65625,-1.42967 0.65624,-0.5039 1.86326,-0.5039 0.59765,0 1.12499,0.0879 0.52733,0.0879 0.97264,0.26367 z"
     style="font-style:normal;font-variant:normal;font-weight:normal;font-stretch:normal;font-size:11.99987507px;font-family:sans-serif;-inkscape-font-specification:'sans-serif, Normal';font-variant-ligatures:normal;font-variant-caps:normal;font-variant-numeric:normal;font-feature-settings:normal;text-align:start;writing-mode:lr-tb;text-anchor:start;fill:#34aace;fill-opacity:1"
     id="path977" /></g></g></svg>