<?xml version="1.0" encoding="UTF-8" standalone="no"?>
<!-- Generator: Adobe Illustrator 16.0.0, SVG Export Plug-In . SVG Version: 6.00 Build 0)  -->

<svg
   xmlns:dc="http://purl.org/dc/elements/1.1/"
   xmlns:cc="http://creativecommons.org/ns#"
   xmlns:rdf="http://www.w3.org/1999/02/22-rdf-syntax-ns#"
   xmlns:svg="http://www.w3.org/2000/svg"
   xmlns="http://www.w3.org/2000/svg"
   xmlns:sodipodi="http://sodipodi.sourceforge.net/DTD/sodipodi-0.dtd"
   xmlns:inkscape="http://www.inkscape.org/namespaces/inkscape"
   version="1.1"
   x="0px"
   y="0px"
   width="113.38582"
   height="113.38583"
   viewBox="0 0 113.38582 113.38583"
   enable-background="new 0 0 323.04 316.08"
   xml:space="preserve"
   id="svg56"
   sodipodi:docname="Pegatina bricolabs.svg"
   inkscape:version="0.92.3 (2405546, 2018-03-11)"
   inkscape:export-filename="/home/4m1g0/proyectos/oshwdem/logos/bricolabs_pegatina.png"
   inkscape:export-xdpi="159"
   inkscape:export-ydpi="159"><metadata
   id="metadata62"><rdf:RDF><cc:Work
       rdf:about=""><dc:format>image/svg+xml</dc:format><dc:type
         rdf:resource="http://purl.org/dc/dcmitype/StillImage" /><dc:title /></cc:Work></rdf:RDF></metadata><defs
   id="defs60" /><sodipodi:namedview
   pagecolor="#ffffff"
   bordercolor="#666666"
   inkscape:document-rotation="0"
   borderopacity="1"
   objecttolerance="10"
   gridtolerance="10"
   guidetolerance="10"
   inkscape:pageopacity="0"
   inkscape:pageshadow="2"
   inkscape:window-width="1920"
   inkscape:window-height="1080"
   id="namedview58"
   showgrid="false"
   inkscape:zoom="10.351143"
   inkscape:cx="48.94282"
   inkscape:cy="48.989321"
   inkscape:window-x="1920"
   inkscape:window-y="0"
   inkscape:window-maximized="1"
   inkscape:current-layer="g4408"
   fit-margin-top="0"
   fit-margin-left="0"
   fit-margin-right="0"
   fit-margin-bottom="0" /><text
   font-size="48"
   display="none"
   id="Bricolabs_Averia_Serif_font"
   x="-55.783195"
   y="129.99762"
   style="font-size:48px;font-family:AveriaSerif-Bold;display:none">BricoLabs</text>


<text
   font-size="48"
   display="none"
   id="Bricolabs_Arial_Rounded_font"
   x="-58.517494"
   y="165.43323"
   style="font-size:48px;font-family:ArialRoundedMTBold;display:none">BricoLabs</text>


<g
   display="none"
   id="Group_Arial_Rounded"
   style="display:none"
   transform="translate(-104.82709,-101.34708)"><path
     inkscape:connector-curvature="0"
     id="path27"
     d="M 36.93,308.558 H 24.033 c -1.861,0 -3.19,-0.418 -3.987,-1.253 -0.796,-0.833 -1.194,-2.164 -1.194,-3.986 v -31.724 c 0,-1.86 0.407,-3.199 1.224,-4.016 0.815,-0.816 2.134,-1.225 3.958,-1.225 h 13.674 c 2.015,0 3.762,0.126 5.238,0.376 1.478,0.249 2.803,0.729 3.973,1.438 0.999,0.594 1.881,1.35 2.649,2.262 0.767,0.91 1.352,1.917 1.755,3.021 0.403,1.104 0.604,2.271 0.604,3.498 0,4.221 -2.111,7.312 -6.333,9.27 5.546,1.766 8.319,5.201 8.319,10.305 0,2.361 -0.604,4.486 -1.814,6.376 -1.208,1.893 -2.84,3.287 -4.893,4.189 -1.286,0.537 -2.765,0.916 -4.434,1.138 -1.668,0.218 -3.616,0.331 -5.842,0.331 z m -9.528,-35.783 v 10.909 h 7.829 c 2.131,0 3.777,-0.201 4.938,-0.604 1.161,-0.403 2.048,-1.171 2.662,-2.305 0.48,-0.805 0.72,-1.707 0.72,-2.705 0,-2.129 -0.758,-3.545 -2.274,-4.245 -1.517,-0.7 -3.829,-1.051 -6.938,-1.051 h -6.937 z m 8.895,17.041 h -8.895 v 12.321 h 9.183 c 5.777,0 8.665,-2.083 8.665,-6.246 0,-2.132 -0.749,-3.675 -2.245,-4.635 -1.498,-0.959 -3.734,-1.44 -6.708,-1.44 z"
     display="inline"
     style="display:inline" /><path
     inkscape:connector-curvature="0"
     id="path29"
     d="m 68.565,297.936 v 6.563 c 0,1.594 -0.373,2.787 -1.121,3.585 -0.75,0.796 -1.699,1.193 -2.851,1.193 -1.132,0 -2.063,-0.403 -2.792,-1.207 -0.729,-0.809 -1.095,-1.997 -1.095,-3.571 v -21.877 c 0,-3.532 1.277,-5.298 3.829,-5.298 1.305,0 2.246,0.413 2.821,1.237 0.575,0.826 0.892,2.046 0.95,3.657 0.94,-1.611 1.905,-2.831 2.893,-3.657 0.989,-0.824 2.308,-1.237 3.958,-1.237 1.65,0 3.252,0.413 4.807,1.237 1.554,0.826 2.331,1.919 2.331,3.282 0,0.961 -0.331,1.752 -0.993,2.375 -0.663,0.624 -1.376,0.936 -2.145,0.936 -0.288,0 -0.983,-0.178 -2.087,-0.533 -1.104,-0.354 -2.078,-0.533 -2.922,-0.533 -1.152,0 -2.091,0.304 -2.821,0.908 -0.729,0.604 -1.296,1.501 -1.698,2.691 -0.403,1.191 -0.682,2.604 -0.835,4.246 -0.151,1.64 -0.229,3.64 -0.229,6.003 z"
     display="inline"
     style="display:inline" /><path
     inkscape:connector-curvature="0"
     id="path31"
     d="m 90.559,273.667 c -1.094,0 -2.029,-0.336 -2.807,-1.007 -0.777,-0.672 -1.166,-1.621 -1.166,-2.851 0,-1.112 0.398,-2.029 1.195,-2.747 0.797,-0.721 1.723,-1.08 2.778,-1.08 1.018,0 1.919,0.324 2.707,0.978 0.787,0.652 1.18,1.603 1.18,2.85 0,1.21 -0.384,2.155 -1.151,2.836 -0.769,0.682 -1.68,1.021 -2.736,1.021 z m 3.886,8.119 v 22.712 c 0,1.574 -0.374,2.763 -1.123,3.571 -0.747,0.804 -1.699,1.207 -2.849,1.207 -1.152,0 -2.087,-0.412 -2.807,-1.238 -0.72,-0.824 -1.08,-2.006 -1.08,-3.54 v -22.482 c 0,-1.553 0.359,-2.725 1.08,-3.513 0.72,-0.785 1.655,-1.18 2.807,-1.18 1.15,0 2.102,0.395 2.849,1.18 0.749,0.788 1.123,1.882 1.123,3.283 z"
     display="inline"
     style="display:inline" /><path
     inkscape:connector-curvature="0"
     id="path33"
     d="m 130.746,299.547 c 0,0.979 -0.294,2.024 -0.879,3.139 -0.584,1.112 -1.477,2.173 -2.677,3.18 -1.199,1.008 -2.71,1.819 -4.534,2.434 -1.823,0.612 -3.876,0.92 -6.16,0.92 -4.855,0 -8.646,-1.415 -11.371,-4.246 -2.725,-2.831 -4.087,-6.625 -4.087,-11.386 0,-3.222 0.624,-6.073 1.871,-8.548 1.248,-2.477 3.051,-4.39 5.412,-5.744 2.36,-1.352 5.182,-2.027 8.463,-2.027 2.035,0 3.9,0.296 5.599,0.892 1.699,0.594 3.139,1.362 4.318,2.304 1.181,0.938 2.083,1.941 2.706,3.008 0.624,1.063 0.936,2.057 0.936,2.979 0,0.938 -0.35,1.736 -1.05,2.389 -0.701,0.653 -1.549,0.979 -2.547,0.979 -0.652,0 -1.196,-0.168 -1.626,-0.503 -0.432,-0.337 -0.917,-0.879 -1.454,-1.627 -0.959,-1.459 -1.962,-2.553 -3.008,-3.281 -1.045,-0.729 -2.375,-1.094 -3.987,-1.094 -2.322,0 -4.193,0.906 -5.614,2.721 -1.419,1.813 -2.13,4.293 -2.13,7.441 0,1.477 0.183,2.835 0.547,4.072 0.364,1.239 0.893,2.294 1.583,3.167 0.692,0.873 1.525,1.536 2.504,1.986 0.979,0.45 2.054,0.676 3.224,0.676 1.574,0 2.922,-0.364 4.044,-1.094 1.124,-0.729 2.116,-1.842 2.98,-3.34 0.479,-0.882 0.998,-1.573 1.554,-2.071 0.557,-0.499 1.238,-0.748 2.044,-0.748 0.959,0 1.757,0.363 2.389,1.093 0.633,0.726 0.95,1.504 0.95,2.329 z"
     display="inline"
     style="display:inline" /><path
     inkscape:connector-curvature="0"
     id="path35"
     d="m 167.017,293.301 c 0,2.341 -0.365,4.5 -1.095,6.477 -0.729,1.978 -1.784,3.676 -3.166,5.094 -1.382,1.422 -3.033,2.509 -4.951,3.269 -1.919,0.757 -4.079,1.137 -6.479,1.137 -2.378,0 -4.519,-0.384 -6.418,-1.151 -1.899,-0.769 -3.545,-1.867 -4.938,-3.296 -1.391,-1.43 -2.446,-3.118 -3.166,-5.067 -0.72,-1.948 -1.08,-4.1 -1.08,-6.461 0,-2.381 0.365,-4.56 1.095,-6.535 0.729,-1.976 1.775,-3.665 3.138,-5.066 1.362,-1.401 3.012,-2.48 4.951,-3.238 1.938,-0.758 4.079,-1.138 6.418,-1.138 2.381,0 4.541,0.384 6.479,1.151 1.938,0.769 3.598,1.862 4.98,3.281 1.382,1.421 2.432,3.109 3.151,5.068 0.72,1.956 1.081,4.114 1.081,6.475 z m -7.889,0 c 0,-3.207 -0.705,-5.7 -2.115,-7.485 -1.411,-1.784 -3.306,-2.677 -5.687,-2.677 -1.534,0 -2.886,0.398 -4.058,1.195 -1.171,0.796 -2.073,1.972 -2.706,3.525 -0.634,1.554 -0.95,3.368 -0.95,5.441 0,2.053 0.312,3.847 0.935,5.383 0.625,1.534 1.517,2.71 2.678,3.525 1.161,0.816 2.527,1.226 4.101,1.226 2.381,0 4.276,-0.899 5.687,-2.693 1.41,-1.795 2.115,-4.275 2.115,-7.44 z"
     display="inline"
     style="display:inline" /><path
     inkscape:connector-curvature="0"
     id="path37"
     d="m 182.13,270.818 v 30.715 h 17.329 c 1.382,0 2.441,0.336 3.182,1.007 0.737,0.672 1.108,1.516 1.108,2.534 0,1.037 -0.365,1.877 -1.094,2.519 -0.73,0.643 -1.794,0.965 -3.196,0.965 h -20.64 c -1.862,0 -3.2,-0.413 -4.017,-1.239 -0.815,-0.824 -1.223,-2.158 -1.223,-4 v -32.5 c 0,-1.728 0.389,-3.022 1.166,-3.886 0.777,-0.864 1.799,-1.296 3.065,-1.296 1.287,0 2.327,0.427 3.123,1.28 0.796,0.853 1.197,2.155 1.197,3.901 z"
     display="inline"
     style="display:inline" /><path
     inkscape:connector-curvature="0"
     id="path39"
     d="m 228.678,304.844 c -1.9,1.478 -3.738,2.587 -5.513,3.324 -1.775,0.738 -3.766,1.108 -5.973,1.108 -2.016,0 -3.786,-0.397 -5.312,-1.193 -1.524,-0.798 -2.702,-1.877 -3.528,-3.239 -0.823,-1.362 -1.235,-2.841 -1.235,-4.434 0,-2.149 0.681,-3.982 2.044,-5.498 1.361,-1.517 3.233,-2.533 5.612,-3.053 0.5,-0.114 1.735,-0.372 3.713,-0.776 1.978,-0.402 3.671,-0.772 5.082,-1.107 1.41,-0.337 2.94,-0.743 4.591,-1.224 -0.097,-2.073 -0.512,-3.595 -1.252,-4.563 -0.739,-0.97 -2.27,-1.454 -4.592,-1.454 -1.995,0 -3.497,0.279 -4.504,0.835 -1.008,0.558 -1.87,1.392 -2.592,2.504 -0.72,1.113 -1.228,1.849 -1.525,2.202 -0.299,0.355 -0.936,0.532 -1.915,0.532 -0.883,0 -1.646,-0.282 -2.287,-0.849 -0.644,-0.565 -0.966,-1.29 -0.966,-2.173 0,-1.382 0.488,-2.726 1.47,-4.031 0.979,-1.304 2.504,-2.379 4.577,-3.224 2.07,-0.844 4.652,-1.265 7.742,-1.265 3.455,0 6.171,0.406 8.146,1.223 1.978,0.815 3.372,2.106 4.189,3.871 0.815,1.767 1.224,4.107 1.224,7.023 0,1.843 -0.006,3.406 -0.016,4.692 -0.009,1.286 -0.024,2.716 -0.044,4.289 0,1.479 0.246,3.018 0.735,4.621 0.489,1.603 0.734,2.635 0.734,3.095 0,0.806 -0.38,1.539 -1.138,2.201 -0.758,0.661 -1.616,0.993 -2.576,0.993 -0.806,0 -1.603,-0.38 -2.39,-1.137 -0.783,-0.757 -1.618,-1.855 -2.501,-3.293 z m -0.519,-11.37 c -1.151,0.422 -2.825,0.867 -5.023,1.338 -2.198,0.471 -3.719,0.814 -4.563,1.037 -0.844,0.22 -1.651,0.649 -2.417,1.295 -0.77,0.642 -1.152,1.54 -1.152,2.69 0,1.192 0.45,2.202 1.354,3.037 0.901,0.836 2.08,1.252 3.54,1.252 1.555,0 2.987,-0.34 4.303,-1.021 1.315,-0.681 2.277,-1.559 2.895,-2.634 0.707,-1.189 1.063,-3.146 1.063,-5.871 z"
     display="inline"
     style="display:inline" /><path
     inkscape:connector-curvature="0"
     id="path41"
     d="m 250.326,270.126 v 12.006 c 1.476,-1.535 2.982,-2.712 4.519,-3.526 1.535,-0.816 3.438,-1.225 5.7,-1.225 2.609,0 4.899,0.619 6.865,1.857 1.968,1.237 3.493,3.031 4.577,5.382 1.084,2.352 1.626,5.14 1.626,8.364 0,2.379 -0.303,4.562 -0.907,6.548 -0.604,1.986 -1.481,3.709 -2.634,5.167 -1.15,1.459 -2.547,2.586 -4.188,3.384 -1.641,0.796 -3.45,1.193 -5.426,1.193 -1.209,0 -2.346,-0.144 -3.411,-0.433 -1.065,-0.286 -1.972,-0.666 -2.721,-1.136 -0.749,-0.471 -1.386,-0.954 -1.914,-1.454 -0.527,-0.498 -1.223,-1.247 -2.086,-2.246 v 0.777 c 0,1.478 -0.357,2.595 -1.066,3.354 -0.709,0.757 -1.612,1.137 -2.706,1.137 -1.112,0 -2,-0.38 -2.661,-1.137 -0.662,-0.76 -0.994,-1.877 -0.994,-3.354 v -34.313 c 0,-1.593 0.321,-2.799 0.964,-3.611 0.644,-0.817 1.54,-1.225 2.691,-1.225 1.209,0 2.14,0.388 2.792,1.165 0.653,0.779 0.98,1.888 0.98,3.326 z m 0.372,23.348 c 0,3.128 0.717,5.531 2.146,7.21 1.429,1.681 3.305,2.521 5.627,2.521 1.976,0 3.681,-0.859 5.109,-2.579 1.431,-1.716 2.145,-4.178 2.145,-7.382 0,-2.073 -0.297,-3.858 -0.893,-5.354 -0.594,-1.497 -1.439,-2.652 -2.533,-3.469 -1.093,-0.815 -2.37,-1.225 -3.828,-1.225 -1.496,0 -2.83,0.409 -4.002,1.225 -1.17,0.816 -2.091,1.996 -2.763,3.54 -0.672,1.545 -1.008,3.382 -1.008,5.513 z"
     display="inline"
     style="display:inline" /><path
     inkscape:connector-curvature="0"
     id="path43"
     d="m 305.222,299.001 c 0,2.167 -0.527,4.024 -1.585,5.569 -1.054,1.545 -2.614,2.715 -4.676,3.513 -2.063,0.796 -4.573,1.193 -7.528,1.193 -2.82,0 -5.24,-0.433 -7.254,-1.296 -2.015,-0.863 -3.503,-1.943 -4.462,-3.237 -0.96,-1.296 -1.439,-2.596 -1.439,-3.9 0,-0.863 0.307,-1.603 0.921,-2.218 0.614,-0.614 1.392,-0.921 2.332,-0.921 0.824,0 1.458,0.202 1.9,0.605 0.44,0.402 0.862,0.969 1.267,1.698 0.805,1.401 1.769,2.446 2.893,3.137 1.122,0.691 2.653,1.037 4.591,1.037 1.574,0 2.865,-0.351 3.872,-1.051 1.007,-0.701 1.512,-1.501 1.512,-2.403 0,-1.382 -0.522,-2.39 -1.568,-3.023 -1.047,-0.632 -2.77,-1.238 -5.169,-1.813 -2.706,-0.672 -4.907,-1.379 -6.606,-2.116 -1.697,-0.738 -3.056,-1.714 -4.073,-2.923 -1.017,-1.208 -1.525,-2.695 -1.525,-4.461 0,-1.574 0.471,-3.061 1.411,-4.462 0.941,-1.401 2.325,-2.52 4.159,-3.353 1.834,-0.836 4.045,-1.254 6.635,-1.254 2.036,0 3.863,0.211 5.485,0.634 1.622,0.423 2.975,0.988 4.058,1.698 1.084,0.71 1.909,1.497 2.477,2.36 0.566,0.864 0.85,1.708 0.85,2.532 0,0.904 -0.304,1.643 -0.907,2.218 -0.605,0.575 -1.464,0.863 -2.577,0.863 -0.807,0 -1.491,-0.23 -2.059,-0.69 -0.565,-0.462 -1.213,-1.151 -1.941,-2.073 -0.596,-0.767 -1.296,-1.382 -2.103,-1.842 -0.807,-0.461 -1.899,-0.691 -3.282,-0.691 -1.419,0 -2.599,0.302 -3.541,0.908 -0.939,0.604 -1.411,1.356 -1.411,2.259 0,0.824 0.349,1.502 1.038,2.029 0.69,0.528 1.621,0.965 2.791,1.31 1.173,0.346 2.784,0.768 4.838,1.268 2.438,0.594 4.427,1.304 5.973,2.129 1.544,0.826 2.715,1.8 3.512,2.922 0.792,1.123 1.191,2.405 1.191,3.845 z"
     display="inline"
     style="display:inline" /></g><circle
   r="81.119003"
   cy="48.52792"
   cx="60.857903"
   stroke-miterlimit="10"
   display="none"
   id="guide_circle"
   style="display:none;fill:#ffffff;stroke:#00ff0c;stroke-width:0.25;stroke-miterlimit:10" /><g
   id="g4408"
   transform="translate(-104.82709,-101.34708)"><g
     id="g869"
     transform="matrix(0.32322617,0,0,0.32322617,109.46237,103.16518)"><path
       id="path47"
       d="m 262.861,214.246 c -2.062,-1.821 -4.349,-3.394 -6.544,-5.066 -2.344,-1.786 -3.886,-3.921 -3.41,-7.096 0.62,-4.156 0.622,-8.349 -0.098,-12.47 -1.67,-9.571 -6.156,-17.616 -13.98,-23.48 -8.82,-6.607 -18.654,-8.847 -29.374,-5.567 -8.032,2.458 -13.998,7.508 -17.438,15.228 -3.611,8.101 -2.71,18.41 4.025,24.953 4.883,4.747 10.629,6.735 17.318,4.336 4.206,-1.509 6.894,-4.464 7.599,-9.011 0.398,-2.553 -1.1,-5.369 -3.405,-6.401 -1.273,-0.435 -2.011,-0.585 -3.127,-0.595 -1.665,-0.012 -4.06,0.908 -5.168,0.607 -1.672,-0.456 -2.39,-1.479 -2.674,-1.987 -0.657,-1.245 -0.585,-2.8 -0.416,-3.685 0.274,-1.443 0.645,-2.478 0.988,-2.996 0.99,-1.635 2.801,-2.913 4.248,-3.778 3.67,-2.194 7.686,-1.996 11.521,-1.077 5.437,1.302 9.04,5.131 11.648,9.944 0.273,0.355 0.299,0.841 0.607,1.18 3.166,9.281 1.742,17.799 -4.677,25.22 -5.695,6.59 -13.03,9.797 -21.822,9.964 -8.656,0.168 -16.035,-2.801 -22.589,-8.222 -1.368,-0.991 -2.51,-2.215 -3.585,-3.508 -4.3,-4.985 -7.162,-10.741 -8.434,-17.152 -1.129,-5.706 -1.07,-11.47 0.25,-17.222 2.114,-9.201 6.867,-16.77 13.923,-22.893 6.619,-5.743 11.844,-12.49 15.249,-20.554 4.163,-9.863 5.227,-20.089 3.093,-30.621 -1.971,-9.715 -6.471,-18.067 -13.553,-24.986 -5.069,-4.954 -10.94,-8.646 -17.773,-10.708 -2.132,-0.617 -2.909,-3.013 -3.165,-4.489 -0.423,-2.075 -0.658,-4.193 -0.91,-6.3 -0.368,-3.083 -0.239,-7.065 -4.413,-7.734 -3.341,0.012 -5.846,0.02 -9.187,0.033 -3.403,0.49 -3.862,3.676 -4.123,6.419 -0.232,2.42 -0.526,4.848 -1.027,7.223 -0.447,2.107 -1.473,3.997 -3.702,4.747 -8.88,2.98 -15.997,8.258 -20.979,16.224 -4.962,7.935 -6.924,16.494 -4.977,25.798 2.066,9.879 7.395,17.315 16.429,21.93 10.324,5.274 23.452,3.41 30.768,-5.836 4.522,-5.717 5.972,-12.1 3.058,-19.095 -0.295,-0.341 -0.297,-0.839 -0.622,-1.166 -0.903,-2 -2.333,-3.561 -4.077,-4.852 -3.707,-2.747 -8.292,-3.128 -11.875,-1 -0.966,0.59 -1.443,1.129 -2.089,2.068 -1.646,2.716 -1.334,4.116 1.002,6.722 0.742,1.166 1.077,1.642 1.063,3.043 -0.185,2.112 -0.261,2.524 -0.852,3.668 -0.476,0.922 -0.826,1.234 -1.748,1.735 -0.777,0.422 -1.398,0.797 -2.752,1.006 -1.784,0.275 -3.823,-0.275 -5.493,-1.225 -1.934,-1.203 -3.365,-2.53 -4.54,-4.458 -3.223,-5.287 -3.389,-10.973 -0.99,-16.467 4.401,-10.075 14.168,-14.559 24.905,-13.413 6.611,0.707 12.154,3.681 16.836,8.383 4.899,4.921 7.824,10.861 8.841,17.642 1.037,6.959 0.13,13.729 -2.92,20.171 -4.368,9.231 -11.344,15.745 -20.705,19.595 -8.886,3.651 -18.065,3.942 -27.336,1.505 -3.823,-1.004 -7.501,-2.523 -11.407,-3.235 -9.483,-1.727 -18.796,-1.233 -27.939,2.001 -6.109,2.16 -11.647,5.249 -16.499,9.551 -0.588,0.5 -1.083,1.104 -1.734,1.53 -0.686,0.691 -1.372,1.382 -2.058,2.073 -0.419,0.656 -1.027,1.148 -1.512,1.747 -5.81,6.577 -9.305,14.242 -10.906,22.847 -0.927,4.98 -0.994,9.958 -0.145,14.919 0.53,3.095 -0.302,5.594 -2.59,7.574 -2.344,2.03 -4.887,3.827 -7.24,5.844 -1.725,1.481 -2.506,3.818 -1.306,5.943 1.302,2.302 2.649,4.582 4.021,6.845 1.027,1.695 3.804,2.612 5.603,1.879 3.053,-1.241 6.071,-2.585 9.158,-3.741 2.015,-0.753 4.079,-0.634 5.773,0.856 6.352,5.58 13.651,9.111 22.066,10.062 8.882,1.005 17.122,-0.945 24.537,-6.018 4.345,-2.977 7.848,-6.731 10.225,-11.475 0.323,-0.328 0.326,-0.825 0.616,-1.167 2.501,-4.982 3.486,-10.251 2.885,-15.794 -1.028,-9.479 -5.571,-16.631 -14.151,-21.025 -7.338,-3.759 -16.581,-2.542 -22.384,2.893 -4.356,4.078 -5.889,9.84 -3.967,14.91 1.279,2.216 2.708,4.259 5.21,5.298 2.909,1.207 6.088,0.032 6.772,-2.575 0.313,-1.195 0.313,-2.643 1.135,-3.547 0.853,-0.94 1.622,-1.313 3.334,-1.625 0.862,-0.156 2.034,-0.18 3.07,0.066 0.874,0.208 1.826,0.647 2.437,1.155 0.537,0.45 1.063,0.866 1.666,2.394 1.001,2.61 0.788,5.333 0.36,7.958 -0.616,3.786 -3.211,6.416 -6.053,8.725 -4.546,3.693 -10.009,4.101 -15.374,3.195 -7.317,-1.238 -12.727,-5.672 -16.293,-12.112 -4.031,-7.28 -4.551,-15.042 -1.862,-22.854 4.25,-12.346 13.273,-19.447 25.825,-21.965 8.981,-1.802 17.636,-0.292 25.674,4.257 8.574,4.856 14.614,11.922 18.371,21.004 1.582,3.82 2.217,7.885 3.209,11.856 2.632,10.526 7.686,19.667 15.813,26.94 12.446,11.143 26.911,15.614 43.441,12.534 8.872,-1.653 16.575,-5.798 23.032,-12.104 1.504,-1.473 3.112,-1.493 4.726,-0.962 2.896,0.953 5.742,2.096 8.514,3.368 2.889,1.323 5.837,0 6.958,-2.371 0.923,-1.943 2.035,-3.804 3.177,-5.633 1.423,-2.277 0.637,-4.798 -1.01,-6.255 z M 164.458,60.194 h -4.712 l -2.357,-4.082 2.357,-4.082 h 4.712 l 2.356,4.082 z M 67.982,222.939 H 63.27 l -2.357,-4.083 2.357,-4.079 h 4.713 l 2.356,4.079 z m 93.266,-53.11 c -2.682,0.009 -4.863,-2.159 -4.873,-4.841 -0.008,-2.684 2.158,-4.865 4.84,-4.874 2.684,-0.009 4.866,2.157 4.876,4.84 0.009,2.683 -2.159,4.865 -4.843,4.875 z m 96.163,53.11 h -4.713 l -2.357,-4.08 2.357,-4.082 h 4.713 l 2.356,4.082 z"
       inkscape:connector-curvature="0"
       style="clip-rule:evenodd;fill-rule:evenodd" /><path
       id="path51"
       d="m 44.557,195.758 c 0.228,-3.584 -0.488,-10.223 -0.896,-12.674 -0.319,-2.838 -0.557,-3.873 -1.104,-5.407 -0.789,-2.213 -1.946,-4.285 -3.486,-6.163 -2.891,-3.522 -6.294,-6.143 -10.783,-7.24 -1.986,-0.485 -3.984,-1.04 -5.893,-1.695 -4.402,-1.512 -8.935,-2.642 -13.239,-4.419 -3.042,-1.257 -5.114,-3.355 -6.191,-6.668 -1.035,-3.183 -0.147,-6.111 0.304,-9.122 0.66,-4.415 1.408,-8.819 2.229,-13.208 0.468,-2.502 1.564,-4.662 3.463,-6.525 2.48,-2.433 5.427,-2.879 8.624,-2.8 3.306,0.083 6.609,0.218 9.915,0.281 3.706,0.07 7.414,0.206 11.121,0.129 3.455,-0.07 4.553,-0.524 6.674,-1.36 2.555,-1.006 4.257,-2.782 6.297,-5.01 2.724,-3.598 6.934,-9.544 9.408,-15.451 0.473,-2.146 1.017,-4.273 0.908,-6.424 C 61.726,88.401 61.217,84.898 59.063,81.716 57.417,79.283 55.909,76.713 54.293,74.255 52.825,72.02 51.43,69.718 49.916,67.505 48.425,65.327 46.8,63.06 46.398,60.33 c -0.426,-2.898 0.075,-5.585 1.958,-8.014 2.281,-2.94 5.395,-4.923 8.075,-7.401 2.228,-2.061 4.574,-4 6.918,-5.931 1.957,-1.613 4.187,-2.524 6.767,-2.79 3.564,-0.366 6.138,1.313 8.628,3.501 2.48,2.179 4.973,4.343 7.427,6.554 2.82,2.54 5.722,4.992 8.643,7.42 2.312,1.436 3.167,1.818 5.508,2.652 1.945,0.636 3.871,0.871 5.83,0.953 7.556,-0.064 19.034,-3.635 23.481,-7.67 2.411,-2.335 3.459,-3.183 4.839,-5.767 0.907,-1.799 1.432,-3.54 1.916,-5.446 0.508,-2.01 4.791,-22.661 5.395,-25.508 0.9,-4.238 4.835,-6.296 10.335,-6.315 7.089,-0.027 10.927,-0.05 17.99,-0.063 3.429,-0.006 8.132,2.724 8.96,6.068 0.691,2.784 4.604,25.406 4.837,26.803 0.605,2.796 1.867,4.247 2.324,5.029 2.216,3.419 4.527,5.688 8.366,7.458 3.555,1.556 12.967,4.431 13.994,4.715 3.345,0.924 6.742,0.94 10.023,0.247 3.52,-0.742 6.718,-2.368 9.402,-4.958 3.213,-2.961 5.497,-4.942 8.799,-7.874 1.849,-1.643 3.643,-3.345 5.488,-4.991 1.48,-1.322 3.139,-2.287 5.1,-2.825 4.051,-1.113 7.363,0.362 10.358,2.825 4.284,3.516 8.479,7.137 12.706,10.715 1.911,1.619 3.122,3.587 3.765,6.08 0.939,3.646 -0.521,6.552 -2.232,9.497 -1.292,2.225 -2.687,4.392 -4.019,6.592 -1.137,1.883 -2.436,3.708 -3.639,5.566 -1.546,2.386 -3.146,4.75 -4.238,7.414 -1.787,4.358 -1.575,6.66 -0.711,10.368 0.504,2.308 4.299,10.9 5.489,12.888 1.186,2.393 2.423,4.615 4.35,6.887 1.849,2.142 2.982,3.52 9.064,5.745 2.141,0.897 7.238,0.866 10.912,0.707 3.444,-0.149 6.89,-0.265 10.335,-0.301 2.568,-0.028 5.131,-0.413 7.71,-0.024 4.508,0.679 7.346,3.207 8.648,7.535 1.303,4.333 1.715,8.838 2.564,13.258 0.409,2.117 0.732,4.25 1.062,6.381 0.413,2.685 -0.44865,5.16392 -1.741,7.376 -0.90027,1.54097 -1.75381,2.12756 -3.284,2.959 -1.362,0.667 -2.76189,1.1803 -4.213,1.667 -2.44368,0.8196 -4.899,1.57 -7.322,2.447 -2.486,0.901 -5.101,1.518 -7.635,2.331 -2.158,0.69 -4.333,1.344 -6.391,2.345 -2.865,1.552 -6.665,5.813 -7.954,8.594 -0.861,1.865 -4.362,16.115 -4.388,18.206 -0.032,2.506 0.577,4.814 1.452,6.942 1.357,3.314 3.464,6.231 6.486,8.417 4.508,3.436 8.97,6.992 15.081,11.772 2.781,2.148 3.975,3.486 4.612,7.182 0.253,3.238 -0.62,5.978 -2.199,8.659 -2.831,4.817 -5.559,9.696 -8.464,14.47 -1.112,1.829 -2.777,3.121 -4.813,4.058 -3.54,1.627 -6.724,0.619 -10.043,-0.646 -2.366,-0.9 -44.412,-18.406 -45.643,-18.979 3.467,-2.064 6.408,-4.326 8.02,-5.866 1.262,-1.28 2.255,-1.34 3.827,-0.596 2.896,1.289 4.39,1.857 6.909,2.764 3.931,1.652 6.875,2.098 9.195,-0.841 0.431,-0.502 4.952,-7.588 5.284,-8.115 2.385,-3.795 3.556,-7.8 -0.699,-11.501 -2.52,-2.157 -4.024,-3.639 -7.332,-6.467 -1.714,-1.467 -1.763,-2.51 -1.305,-4.549 0.659,-2.929 0.72,-3.95 1.104,-9.764 -0.035,-1.82 -0.03,-4.438 0.097,-6.42 0.925,-5.322 1.253,-7.15 1.699,-12.027 0.347,-3.806 0.434,-7.12 0.12,-14.298 -0.748,-8.217 -1.189,-10.676 -2.742,-17.633 -1.95,-7.011 -3.187,-11.017 -5.571,-16.219 -2.203,-4.799 -4.595,-9.42 -7.521,-13.853 -3.307,-4.845 -3.907,-5.709 -6.753,-9.19 -1.856,-2.243 -2.162,-2.532 -4.371,-4.949 -1.585,-1.524 -2.586,-2.632 -3.099,-3.139 -3.427,-3.263 -6.486,-5.828 -9.972,-8.48 -2.715,-1.954 -3.328,-2.357 -7.445,-5.028 -3.514,-2.058 -4.619,-2.732 -9.392,-5.078 -4.868,-2.16 -5.747,-2.552 -12.242,-4.813 -2.014,-0.702 -2.114,-0.462 -3.975,-1.55 -4.542,-2.661 -7.079,-3.919 -10.288,-5.091 -0.892,-0.326 -1.295,-0.592 -1.44,-1.469 -0.182,-1.103 -0.182,-1.103 -1.996,-12.029 -0.504,-2.162 -3.633,-4.589 -5.862,-4.591 l -11.049,-0.006 c -2.201,-0.089 -4.941,1.978 -5.477,3.667 l -2.893,13.005 c -0.263,0.759 -0.63,1.167 -1.404,1.411 -3.216,1.012 -5.76,2.396 -8.643,4.116 -0.699,0.418 -1.872,0.864 -2.655,1.089 -5.417,1.55 -10.812,3.251 -15.913,5.6 -3.069,1.412 -6.681,3.291 -9.061,4.73 -2.605,1.547 -4.274,2.567 -7.005,4.49 -4.387,3.191 -5.399,4.07 -8.362,6.635 -2.387,2.063 -5.643,5.317 -6.763,6.523 -3.358,3.619 -5.227,6.224 -7.857,9.443 -3.615,4.939 -6.363,9.459 -8.938,14.649 -2.685,5.413 -4.758,10.975 -6.5,16.718 -1.491,5.852 -2.5,10.315 -3.108,15.212 -0.426,4.168 -0.711,7.698 -0.764,11.21 0.017,4.587 0.169,7.937 0.572,11.853 0.316,3.071 0.841,6.067 1.389,9.048 0.196,2.323 0.196,3.729 0.055,5.866 -0.27,3.02 -0.335,6.507 0.154,10.479 0.149,1.204 -0.017,2.579 -0.945,3.488 -2.047,2.003 -4.333,3.726 -6.689,5.351 -2.836,1.957 -4.466,4.079 -4.072,7.282 2.509,6.348 3.771,8.28 6.529,12.643 2.891,3.098 4.196,2.926 8.161,1.727 5.981,-2.019 6.223,-2.087 9.134,-3.033 1.624,-0.506 2.065,-0.527 3.176,0.261 3.621,2.632 4.89,3.435 9.467,5.912 -4.021,1.897 -39.498,17.847 -43.387,19.354 -1.699,0.66 -3.358,1.514 -5.167,1.864 -2.81,0.544 -5.437,0.327 -8.009,-1.281 -3.852,-2.406 -5.079,-6.621 -7.408,-10.065 -1.645,-2.434 -2.973,-5.077 -4.499,-7.591 -1.596,-2.626 -2.424,-5.323 -2.204,-8.513 0.225,-3.246 2.149,-5.254 4.228,-7.178 2.159,-1.999 4.589,-3.706 6.898,-5.544 3.05,-2.424 6.108,-4.837 9.142,-7.283 2.292,-2.261 3.01,-3.059 4.908,-6.303 1.645,-3.101 1.91,-4.1 2.2,-6.389 z"
       inkscape:connector-curvature="0"
       sodipodi:nodetypes="ccccccccccccccccccccccccccccccccccccccccccccccccccccccccccccccccscscccccccccccccccccccccccccccccccccccccccccccccccccccccccccccccccccccccccccccccccc"
       style="clip-rule:evenodd;fill-rule:evenodd" /></g><flowRoot
     xml:space="preserve"
     id="flowRoot857"
     style="font-style:normal;font-variant:normal;font-weight:normal;font-stretch:normal;font-size:12px;line-height:25px;font-family:'DejaVu Sans';-inkscape-font-specification:'DejaVu Sans, Normal';font-variant-ligatures:normal;font-variant-caps:normal;font-variant-numeric:normal;font-feature-settings:normal;text-align:center;letter-spacing:0px;word-spacing:0px;writing-mode:lr-tb;text-anchor:middle;fill:#000000;fill-opacity:1;stroke:none;stroke-width:1px;stroke-linecap:butt;stroke-linejoin:miter;stroke-opacity:1"
     transform="matrix(1.1083598,0,0,1.1083598,-49.087353,-193.52761)"><flowRegion
       id="flowRegion859"><rect
         id="rect861"
         width="356.83524"
         height="59.614479"
         x="11.922896"
         y="336.51923" /></flowRegion><flowPara
       id="flowPara863"
       style="font-style:normal;font-variant:normal;font-weight:bold;font-stretch:normal;font-size:12px;font-family:'Averia Serif';-inkscape-font-specification:'Averia Serif, Bold';font-variant-ligatures:normal;font-variant-caps:normal;font-variant-numeric:normal;font-feature-settings:normal;text-align:center;writing-mode:lr-tb;text-anchor:middle">BricoLabs.cc</flowPara></flowRoot><ellipse
     style="opacity:0.68199978;fill:none;fill-opacity:1;stroke:#ff00ff;stroke-width:0.530559;stroke-linecap:round;stroke-linejoin:round;stroke-miterlimit:4;stroke-dasharray:none;stroke-opacity:1"
     id="path865"
     cx="161.52"
     cy="158.03999"
     rx="56.427631"
     ry="56.427635" /></g><line
   y2="117.48993"
   x2="179.18991"
   y1="117.48993"
   x1="-61.918095"
   stroke-miterlimit="10"
   display="none"
   id="guide_line_1_"
   style="display:none;fill:none;stroke:#001fff;stroke-width:0.28330001;stroke-miterlimit:10" /><line
   y2="-90.358078"
   x2="56.692909"
   y1="150.74992"
   x1="56.692909"
   stroke-miterlimit="10"
   display="none"
   id="guide_line"
   style="display:none;fill:none;stroke:#001fff;stroke-width:0.28330001;stroke-miterlimit:10" /></svg>