<?xml version="1.0" encoding="UTF-8" standalone="no"?>
<!-- Created with Inkscape (http://www.inkscape.org/) -->

<svg
   xmlns:dc="http://purl.org/dc/elements/1.1/"
   xmlns:cc="http://creativecommons.org/ns#"
   xmlns:rdf="http://www.w3.org/1999/02/22-rdf-syntax-ns#"
   xmlns:svg="http://www.w3.org/2000/svg"
   xmlns="http://www.w3.org/2000/svg"
   xmlns:sodipodi="http://sodipodi.sourceforge.net/DTD/sodipodi-0.dtd"
   xmlns:inkscape="http://www.inkscape.org/namespaces/inkscape"
   version="1.1"
   id="svg2"
   xml:space="preserve"
   width="4.0001473cm"
   height="5.2500391cm"
   viewBox="0 0 151.18668 198.42667"
   sodipodi:docname="Pegatina pulpo y contorno.svg"
   inkscape:version="0.92.2 (5c3e80d, 2017-08-06)"><metadata
     id="metadata8"><rdf:RDF><cc:Work
         rdf:about=""><dc:format>image/svg+xml</dc:format><dc:type
           rdf:resource="http://purl.org/dc/dcmitype/StillImage" /><dc:title /></cc:Work></rdf:RDF></metadata><defs
     id="defs6"><clipPath
       clipPathUnits="userSpaceOnUse"
       id="clipPath20"><path
         d="M 0,148.82 H 113.39 V 0 H 0 Z"
         id="path18"
         inkscape:connector-curvature="0" /></clipPath></defs><sodipodi:namedview
     pagecolor="#ffffff"
     bordercolor="#666666"
     inkscape:document-rotation="0"
     borderopacity="1"
     objecttolerance="10"
     gridtolerance="10"
     guidetolerance="10"
     inkscape:pageopacity="0"
     inkscape:pageshadow="2"
     inkscape:window-width="1248"
     inkscape:window-height="1043"
     id="namedview4"
     showgrid="false"
     inkscape:zoom="3.5126327"
     inkscape:cx="12.677565"
     inkscape:cy="98.643959"
     inkscape:window-x="2310"
     inkscape:window-y="0"
     inkscape:window-maximized="0"
     inkscape:current-layer="g10"
     units="cm" /><g
     id="g10"
     inkscape:groupmode="layer"
     inkscape:label="Pegatina pulpo y contorno"
     transform="matrix(1.3333333,0,0,-1.3333333,0,198.42667)"><g
       id="g24"
       transform="translate(58.9658,5.2744)"
       style="stroke:#ff00ff;stroke-opacity:1"><path
         d="M 0,0 C -0.752,0 -1.483,0.051 -2.173,0.15 -3.776,0.385 -5.49,0.939 -7.126,1.754 -7.517,1.947 -7.954,2.05 -8.389,2.05 h -0.11 c -0.348,0 -2.153,0.046 -3.521,0.956 -1.45,0.96 -2.371,2.436 -2.527,4.053 -0.003,0.028 -0.006,0.056 -0.01,0.085 -0.047,1.145 -0.785,2.124 -1.907,2.51 -0.821,0.284 -1.574,0.665 -2.238,1.135 -0.482,0.34 -1.047,0.52 -1.636,0.52 -0.795,0 -1.557,-0.336 -2.092,-0.921 -0.273,-0.298 -0.564,-0.58 -0.855,-0.864 -1.754,-1.662 -3.868,-2.85 -6,-3.391 -0.392,-0.102 -0.746,-0.277 -1.059,-0.523 -0.989,-0.782 -2.289,-1.212 -3.663,-1.212 -1.854,0 -3.555,0.754 -4.666,2.067 -1.137,1.359 -1.567,3.178 -1.145,4.86 0.366,1.457 -0.471,2.949 -1.906,3.397 -3.483,1.084 -6.115,4.125 -6.55,7.567 -0.055,0.437 -0.215,0.861 -0.461,1.229 -0.527,0.78 -0.847,1.684 -0.927,2.618 -0.083,0.964 -0.643,1.811 -1.5,2.264 -3.443,1.817 -5.484,5.996 -4.855,9.936 0.249,1.545 1.053,3.706 1.912,5.137 0.942,1.559 1.991,2.732 3.4,3.799 2.12,1.615 3.278,2.095 8.401,4.099 4.593,1.805 6.612,3.318 9.397,7.042 0.716,0.963 2.061,3.004 2.881,4.371 0.783,1.301 2.132,3.794 3.521,6.505 0.559,1.088 0.357,2.407 -0.502,3.28 -0.032,0.032 -1.365,1.304 -1.365,1.304 -0.631,0.602 -1.831,1.764 -2.741,2.647 l -1.805,1.759 c -1.001,0.971 -1.151,2.504 -0.359,3.647 l 2.339,3.323 c 0.531,0.757 0.66,1.726 0.347,2.593 -0.314,0.869 -1.034,1.532 -1.925,1.773 -0.196,0.054 -0.411,0.094 -0.627,0.131 -4.359,0.792 -4.399,0.838 -5.065,1.612 -0.686,0.811 -0.712,0.843 -0.825,5.716 -0.14,5.143 0.187,6.151 2.187,6.749 0.154,0.049 0.391,0.124 3.977,0.765 0.015,0.003 0.031,0.006 0.047,0.009 0.123,0.025 0.246,0.057 0.365,0.097 0.703,0.223 1.292,0.722 1.64,1.397 0.488,0.951 0.405,2.08 -0.216,2.948 l -2.27,3.169 c -0.805,1.126 -0.676,2.66 0.31,3.645 l 5.64,5.641 c 0.239,0.243 0.525,0.438 0.837,0.574 0.755,0.329 1.328,0.968 1.574,1.753 0.245,0.783 0.138,1.635 -0.294,2.335 -0.38,0.615 -0.505,1.338 -0.352,2.036 l 0.105,0.505 c 0.069,0.335 0.257,0.993 0.559,1.96 l 0.044,0.139 c 1.631,5.124 5.603,8.348 10.893,8.838 0.545,0.044 1.01,0.067 1.438,0.067 2.799,0 5.104,-0.992 7.178,-2.063 2.02,-1.057 2.644,-1.27 3.608,-1.408 0.076,-0.011 0.157,-0.019 0.239,-0.024 0.066,-0.008 0.186,-0.015 0.295,-0.015 1.142,0 2.168,0.681 2.612,1.735 0.444,1.054 1.471,1.735 2.617,1.735 h 3.08 c 0.832,0 1.618,-0.365 2.159,-1.001 0.54,-0.631 0.773,-1.463 0.642,-2.287 L 9.78,135.744 c -0.09,-0.566 -0.361,-1.513 -0.59,-2.201 -0.86,-2.598 -2.36,-4.76 -4.338,-6.254 -1.094,-0.827 -1.44,-2.315 -0.823,-3.539 0.486,-0.961 1.455,-1.558 2.532,-1.558 0.272,0 0.543,0.039 0.804,0.117 0.278,0.082 0.558,0.123 0.835,0.123 0.768,0 1.488,-0.302 2.028,-0.851 l 5.516,-5.636 c 0.938,-0.958 1.078,-2.412 0.344,-3.534 -0.057,-0.087 -2.03,-3.11 -2.215,-3.382 -0.557,-0.823 -0.641,-1.891 -0.222,-2.789 0.42,-0.899 1.293,-1.52 2.279,-1.621 l 0.098,-0.01 c 4.246,-0.744 4.259,-0.756 4.932,-1.388 0.976,-0.967 1.015,-1.005 1.015,-10.042 0,-1.184 -0.402,-2.462 -3.377,-2.965 l 0.231,0.02 c -0.037,-0.004 -0.26,-0.025 -0.587,-0.08 -0.726,-0.123 -2.339,-0.396 -2.501,-0.421 -0.97,-0.148 -1.782,-0.77 -2.175,-1.665 -0.392,-0.899 -0.301,-1.917 0.244,-2.724 l 2.259,-3.349 c 0.747,-1.106 0.62,-2.601 -0.3,-3.558 L 11.004,73.473 C 10.06,72.49 9.95,70.971 10.742,69.862 18.468,59.047 23.334,53.643 27.538,51.209 c 1.303,-0.755 2.915,-1.436 4.206,-1.777 0.64,-0.161 1.577,-0.254 2.525,-0.254 1.237,0 2.058,0.152 2.281,0.199 0.072,0.015 0.156,0.035 0.239,0.061 0.542,0.162 1.074,0.354 1.617,0.585 0.8,0.338 1.394,1.016 1.625,1.857 0.168,0.612 0.436,1.175 0.795,1.673 1.131,1.597 2.968,2.545 4.921,2.545 2.204,0 4.192,-1.182 5.191,-3.082 0.946,-1.784 0.826,-3.921 -0.31,-5.584 -0.959,-1.403 -2.144,-2.142 -3.841,-2.397 -0.54,-0.079 -1.048,-0.315 -1.463,-0.683 -0.604,-0.539 -1.273,-1.018 -1.992,-1.428 -0.722,-0.41 -1.225,-1.115 -1.38,-1.933 -0.154,-0.818 0.056,-1.659 0.577,-2.305 0.414,-0.515 0.747,-1.055 1.019,-1.649 0.6,-1.298 0.683,-1.933 0.676,-3.6 0,-1.493 -0.091,-2.25 -0.603,-3.541 -1.746,-4.454 -5.436,-7.218 -9.633,-7.218 -0.652,0 -1.334,0.074 -2.027,0.219 -1.514,0.324 -2.948,1.023 -4.145,2.023 -0.51,0.425 -1.156,0.658 -1.818,0.658 -0.204,0 -0.406,-0.021 -0.601,-0.064 -0.848,-0.18 -1.561,-0.738 -1.947,-1.527 -1.639,-3.364 -6.129,-5.179 -9.52,-5.179 l -0.463,0.009 c -0.957,0 -1.828,-0.455 -2.357,-1.217 -0.528,-0.762 -0.651,-1.737 -0.327,-2.606 1.12,-3.011 1.242,-3.792 1.242,-5.579 C 12.033,7.552 11.963,6.971 11.254,5.521 10.781,4.562 10.122,3.678 9.397,3.035 6.862,0.798 2.881,0 0,0 Z"
         style="fill:none;stroke:#ff00ff;stroke-width:0.25;stroke-linecap:butt;stroke-linejoin:miter;stroke-miterlimit:10;stroke-dasharray:none;stroke-opacity:1"
         id="path26"
         inkscape:connector-curvature="0" /></g><g
       id="g28"
       transform="translate(57.2134,8.2227)"><path
         d="m 0,0 c -1.412,0.207 -2.919,0.713 -4.348,1.458 -1.104,0.579 -1.413,0.68 -1.707,0.567 -0.613,-0.234 -2.024,-0.028 -2.652,0.387 -1.538,1.02 -1.717,2.883 -0.401,4.195 1.175,1.172 3.092,1.174 4.378,0.002 0.531,-0.482 0.765,-1.045 0.765,-1.837 V 4.051 L -2.943,3.807 C 1.55,2.729 4.539,2.998 6.172,4.632 c 0.66,0.658 1.137,1.605 1.142,2.262 0.01,1.469 -0.9,3.473 -3.984,8.793 -4.168,7.179 -5.77,10.851 -6.724,15.396 -0.251,1.197 -0.248,5.292 0.006,8.717 0.249,3.355 0.152,9.679 -0.199,12.881 -0.267,2.439 -0.651,4.874 -0.816,5.174 -0.231,0.416 -1.898,-4.169 -2.604,-7.167 -0.932,-3.956 -1.143,-8.449 -0.56,-11.959 0.478,-2.878 0.514,-3.425 0.341,-5.073 -0.309,-2.938 -1.091,-5.528 -3.706,-12.271 -2.323,-5.991 -2.375,-8.002 -0.232,-9.12 0.904,-0.471 3.075,-0.543 3.886,-0.131 0.371,0.189 0.67,0.478 0.787,0.76 0.244,0.589 0.131,1.846 -0.234,2.589 -0.249,0.511 -0.379,0.605 -1.091,0.783 -1.019,0.26 -1.744,0.806 -2.099,1.588 -0.57,1.257 -0.157,2.624 1.019,3.369 1.157,0.736 2.469,0.717 3.608,-0.052 1.03,-0.693 1.475,-2.215 0.947,-3.234 -0.214,-0.415 -0.204,-0.508 0.17,-1.514 0.329,-0.884 0.402,-1.336 0.414,-2.557 C -3.744,12.519 -3.781,12.303 -4.166,11.52 -4.719,10.393 -5.713,9.601 -7.132,9.152 -8.01,8.876 -8.519,8.82 -10.051,8.829 c -3.586,0.022 -5.749,1.025 -6.709,3.106 -0.297,0.646 -0.34,0.972 -0.336,2.524 0.006,2.235 0.371,3.645 2.368,9.134 2.158,5.927 2.711,8.015 2.851,10.755 0.071,1.394 0.026,1.926 -0.312,3.631 -0.769,3.875 -0.792,7.537 -0.074,11.725 0.245,1.427 1.029,4.723 1.397,5.871 0.247,0.769 -0.257,-0.304 -1.011,-2.151 -2.086,-5.114 -3.833,-10.557 -4.734,-14.745 -0.449,-2.088 -0.454,-2.152 -0.571,-8.411 -0.065,-3.469 -0.193,-6.844 -0.284,-7.496 -0.938,-6.668 -2.85,-11.152 -6.045,-14.177 -1.468,-1.39 -3.319,-2.393 -5.077,-2.756 -0.829,-0.169 -1.168,-0.315 -1.387,-0.593 -1.044,-1.327 -3.619,-1.28 -4.768,0.084 -1.488,1.77 -0.282,4.249 2.151,4.428 0.775,0.055 1.003,0.002 1.83,-0.418 l 0.946,-0.478 0.745,0.246 c 3.687,1.226 6.02,5.614 6.709,12.623 0.088,0.898 0.216,4.674 0.284,8.386 0.135,7.36 0.203,8.096 1.125,12.099 0.771,3.347 2.224,8.004 3.422,10.971 0.196,0.483 0.332,0.902 0.304,0.93 -0.084,0.084 -3.523,-6.771 -4.836,-9.635 -2.624,-5.721 -3.218,-7.664 -4.991,-16.294 -1.759,-8.564 -2.647,-11.034 -4.572,-12.709 -1.648,-1.437 -4.412,-1.85 -7.252,-1.085 -2.785,0.75 -4.867,3.285 -4.867,5.926 0,0.781 -0.045,0.891 -0.587,1.46 -1.616,1.699 -0.497,4.327 1.951,4.58 0.687,0.071 0.966,0.022 1.65,-0.291 1.133,-0.519 1.664,-1.316 1.657,-2.488 -0.007,-1.13 -0.507,-1.906 -1.54,-2.391 -0.899,-0.421 -0.931,-0.619 -0.306,-1.868 0.97,-1.943 3.146,-2.765 5.488,-2.074 1.773,0.523 3.073,2.681 3.999,6.638 0.162,0.693 0.595,3.035 0.961,5.203 1.496,8.845 3.193,15.395 5.49,21.182 0.591,1.493 1.029,2.663 0.973,2.599 -0.056,-0.063 -0.457,-0.649 -0.892,-1.303 -2.702,-4.059 -4.511,-5.695 -8.602,-7.786 -1.941,-0.989 -3.702,-1.711 -6.902,-2.829 -2.571,-0.894 -3.959,-1.577 -5.143,-2.528 -1.08,-0.865 -1.783,-1.714 -2.306,-2.778 -0.365,-0.743 -0.525,-1.041 -0.524,-2.206 10e-4,-1.096 0.167,-1.429 0.44,-1.94 0.933,-1.751 2.812,-1.98 4.241,-0.518 l 0.551,0.565 -0.263,0.511 c -0.153,0.297 -0.258,0.82 -0.255,1.261 0.023,2.371 3.195,3.595 5.064,1.954 1.226,-1.078 1.273,-2.899 0.103,-3.998 -0.403,-0.379 -1.479,-0.86 -1.924,-0.86 -0.111,0 -0.626,-0.424 -1.145,-0.944 -0.609,-0.608 -1.308,-1.12 -1.967,-1.447 -0.936,-0.459 -1.171,-0.59 -2.394,-0.587 -1.179,10e-4 -1.408,0.14 -2.162,0.519 -2.365,1.191 -3.82,4.2 -3.375,6.981 0.193,1.215 0.853,2.98 1.539,4.117 0.753,1.252 1.54,2.133 2.692,3.009 1.706,1.303 2.343,1.611 7.719,3.72 5.075,1.992 7.545,3.848 10.633,7.988 0.783,1.049 2.151,3.116 3.039,4.595 1.542,2.567 4.853,8.964 6.061,11.71 l 0.566,1.289 -0.988,0.974 c -0.544,0.536 -1.023,0.974 -1.064,0.974 -0.041,0 -0.552,-0.334 -1.134,-0.743 l -1.059,-0.744 -1.199,1.145 c -0.66,0.63 -1.949,1.875 -2.866,2.766 l -1.666,1.622 0.269,0.39 c 0.149,0.213 1.08,1.534 2.069,2.935 l 1.801,2.545 -1.134,2.797 c -0.624,1.539 -1.157,2.827 -1.184,2.862 -0.027,0.034 -1.588,0.343 -3.469,0.686 -1.88,0.343 -3.44,0.648 -3.467,0.679 -0.025,0.03 -0.091,1.804 -0.145,3.941 -0.092,3.64 -0.082,3.89 0.165,3.964 0.144,0.044 1.799,0.355 3.677,0.694 1.878,0.337 3.464,0.661 3.525,0.718 0.061,0.057 0.568,1.278 1.127,2.712 l 1.017,2.608 -2.148,3.006 -2.148,3.006 2.819,2.819 2.818,2.818 3.051,-2.094 c 1.677,-1.152 3.131,-2.093 3.231,-2.093 0.099,0 1.292,0.47 2.649,1.044 l 2.469,1.046 0.745,3.741 0.746,3.742 h 3.846 3.846 l 0.73,-3.739 0.729,-3.738 2.599,-1.043 2.599,-1.043 3.157,2.144 3.158,2.145 2.758,-2.819 2.758,-2.819 -1.676,-2.559 c -0.921,-1.408 -1.855,-2.831 -2.076,-3.164 l -0.4,-0.605 1.097,-2.586 1.096,-2.587 3.598,-0.624 c 1.98,-0.343 3.621,-0.646 3.649,-0.673 0.035,-0.034 0.138,-6.021 0.138,-7.983 0,-0.001 -1.564,-0.265 -3.474,-0.587 -1.912,-0.322 -3.519,-0.638 -3.576,-0.703 -0.056,-0.065 -0.623,-1.329 -1.261,-2.809 l -1.155,-2.691 2.025,-2.997 2.027,-2.998 -2.699,-2.807 -2.701,-2.808 -0.67,0.392 -0.67,0.393 -0.38,-0.504 C 8.156,71.835 7.694,71.294 7.339,70.91 l -0.644,-0.699 2.337,-3.31 c 8.744,-12.392 14.032,-18.313 18.842,-21.099 1.506,-0.872 3.348,-1.651 4.886,-2.063 1.727,-0.467 4.867,-0.462 6.511,0.005 1.432,0.407 2.803,1.02 4.284,1.912 1.12,0.673 1.135,0.69 0.985,1.118 -0.584,1.676 0.972,3.53 2.964,3.53 2.337,0 3.788,-2.408 2.543,-4.224 -0.586,-0.855 -1.235,-1.184 -2.467,-1.244 L 46.478,44.779 45.489,43.791 C 43.03,41.332 38.327,40.083 33.1,40.5 c -3.535,0.284 -7.346,1.097 -8.97,1.917 -2.958,1.493 -6.952,5.729 -11.01,11.672 -0.662,0.968 -1.203,1.714 -1.203,1.657 0,-0.175 1.437,-2.976 2.778,-5.419 3.182,-5.801 5.674,-8.985 7.917,-10.12 1.101,-0.556 3.121,-1.05 6.34,-1.552 7.614,-1.19 10.426,-2.083 12.41,-3.937 0.663,-0.621 1.068,-1.157 1.368,-1.814 0.385,-0.832 0.427,-1.085 0.422,-2.414 -0.005,-1.259 -0.068,-1.643 -0.412,-2.524 -1.545,-3.94 -4.862,-6.005 -8.438,-5.252 -2.454,0.517 -4.458,2.446 -5.01,4.823 -0.163,0.705 -0.219,0.771 -0.762,0.935 -0.727,0.218 -1.599,0.968 -1.866,1.603 -0.451,1.076 -0.16,2.168 0.808,3.04 0.68,0.616 1.287,0.782 2.478,0.685 2.28,-0.191 3.382,-2.689 1.931,-4.383 l -0.515,-0.605 0.586,-0.868 c 0.867,-1.289 1.429,-1.609 2.814,-1.609 1.348,0 2.166,0.353 3.199,1.387 0.933,0.933 1.331,1.809 1.336,2.927 0.002,1.067 -0.44,1.869 -1.427,2.583 -1.34,0.97 -2.581,1.245 -8.438,1.861 -5.222,0.549 -6.77,0.924 -9.499,2.297 -2.111,1.062 -3.825,2.927 -6.635,7.221 -0.806,1.235 -2.097,3.352 -2.869,4.703 -0.768,1.356 -1.418,2.441 -1.443,2.417 -0.024,-0.023 0.06,-0.337 0.187,-0.698 0.412,-1.17 1.083,-4.029 1.336,-5.7 0.33,-2.193 0.328,-5.166 -0.005,-7.718 -0.391,-2.995 -0.365,-6.776 0.059,-8.805 0.556,-2.644 1.481,-4.397 2.888,-5.466 2.114,-1.606 5.261,-1.029 6.433,1.178 0.405,0.762 0.337,1.965 -0.159,2.87 -0.396,0.724 -0.453,0.766 -1.109,0.83 -2.02,0.194 -3.288,1.964 -2.616,3.648 0.837,2.091 3.839,2.527 5.314,0.774 0.606,-0.722 0.708,-1.953 0.246,-3.051 -0.169,-0.406 -0.152,-0.512 0.181,-1.039 1.16,-1.849 1.607,-4.28 1.078,-5.875 -0.706,-2.119 -4.048,-3.99 -7.133,-3.99 -4.527,0 -8.369,4.142 -9.64,10.39 -0.407,2.009 -0.445,5.119 -0.086,7.615 0.722,5.048 0.106,9.816 -2.006,15.523 -0.583,1.579 -2.55,5.71 -2.939,6.178 C 0.777,58.683 0.773,58.678 0.851,58.247 1.059,57.107 1.524,52.98 1.67,50.975 1.761,49.728 1.816,46.162 1.792,42.884 L 1.75,37.02 2.153,35.011 C 3.298,29.309 5.251,22.967 8.139,15.572 10.878,8.555 10.945,8.344 10.949,6.441 10.954,4.887 10.928,4.754 10.466,3.813 10.16,3.19 9.718,2.595 9.283,2.211 7.324,0.485 3.273,-0.48 0.001,0 Z"
         style="fill:#1d1d1b;fill-opacity:1;fill-rule:nonzero;stroke:none"
         id="path30"
         inkscape:connector-curvature="0" /></g><g
       id="g32"
       transform="translate(57.2134,8.2227)"><path
         d="m 0,0 c -1.412,0.207 -2.919,0.713 -4.348,1.458 -1.104,0.579 -1.413,0.68 -1.707,0.567 -0.613,-0.234 -2.024,-0.028 -2.652,0.387 -1.538,1.02 -1.717,2.883 -0.401,4.195 1.175,1.172 3.092,1.174 4.378,0.002 0.531,-0.482 0.765,-1.045 0.765,-1.837 V 4.051 L -2.943,3.807 C 1.55,2.729 4.539,2.998 6.172,4.632 c 0.66,0.658 1.137,1.605 1.142,2.262 0.01,1.469 -0.9,3.473 -3.984,8.793 -4.168,7.179 -5.77,10.851 -6.724,15.396 -0.251,1.197 -0.248,5.292 0.006,8.717 0.249,3.355 0.152,9.679 -0.199,12.881 -0.267,2.439 -0.651,4.874 -0.816,5.174 -0.231,0.416 -1.898,-4.169 -2.604,-7.167 -0.932,-3.956 -1.143,-8.449 -0.56,-11.959 0.478,-2.878 0.514,-3.425 0.341,-5.073 -0.309,-2.938 -1.091,-5.528 -3.706,-12.271 -2.323,-5.991 -2.375,-8.002 -0.232,-9.12 0.904,-0.471 3.075,-0.543 3.886,-0.131 0.371,0.189 0.67,0.478 0.787,0.76 0.244,0.589 0.131,1.846 -0.234,2.589 -0.249,0.511 -0.379,0.605 -1.091,0.783 -1.019,0.26 -1.744,0.806 -2.099,1.588 -0.57,1.257 -0.157,2.624 1.019,3.369 1.157,0.736 2.469,0.717 3.608,-0.052 1.03,-0.693 1.475,-2.215 0.947,-3.234 -0.214,-0.415 -0.204,-0.508 0.17,-1.514 0.329,-0.884 0.402,-1.336 0.414,-2.557 C -3.744,12.519 -3.781,12.303 -4.166,11.52 -4.719,10.393 -5.713,9.601 -7.132,9.152 -8.01,8.876 -8.519,8.82 -10.051,8.829 c -3.586,0.022 -5.749,1.025 -6.709,3.106 -0.297,0.646 -0.34,0.972 -0.336,2.524 0.006,2.235 0.371,3.645 2.368,9.134 2.158,5.927 2.711,8.015 2.851,10.755 0.071,1.394 0.026,1.926 -0.312,3.631 -0.769,3.875 -0.792,7.537 -0.074,11.725 0.245,1.427 1.029,4.723 1.397,5.871 0.247,0.769 -0.257,-0.304 -1.011,-2.151 -2.086,-5.114 -3.833,-10.557 -4.734,-14.745 -0.449,-2.088 -0.454,-2.152 -0.571,-8.411 -0.065,-3.469 -0.193,-6.844 -0.284,-7.496 -0.938,-6.668 -2.85,-11.152 -6.045,-14.177 -1.468,-1.39 -3.319,-2.393 -5.077,-2.756 -0.829,-0.169 -1.168,-0.315 -1.387,-0.593 -1.044,-1.327 -3.619,-1.28 -4.768,0.084 -1.488,1.77 -0.282,4.249 2.151,4.428 0.775,0.055 1.003,0.002 1.83,-0.418 l 0.946,-0.478 0.745,0.246 c 3.687,1.226 6.02,5.614 6.709,12.623 0.088,0.898 0.216,4.674 0.284,8.386 0.135,7.36 0.203,8.096 1.125,12.099 0.771,3.347 2.224,8.004 3.422,10.971 0.196,0.483 0.332,0.902 0.304,0.93 -0.084,0.084 -3.523,-6.771 -4.836,-9.635 -2.624,-5.721 -3.218,-7.664 -4.991,-16.294 -1.759,-8.564 -2.647,-11.034 -4.572,-12.709 -1.648,-1.437 -4.412,-1.85 -7.252,-1.085 -2.785,0.75 -4.867,3.285 -4.867,5.926 0,0.781 -0.045,0.891 -0.587,1.46 -1.616,1.699 -0.497,4.327 1.951,4.58 0.687,0.071 0.966,0.022 1.65,-0.291 1.133,-0.519 1.664,-1.316 1.657,-2.488 -0.007,-1.13 -0.507,-1.906 -1.54,-2.391 -0.899,-0.421 -0.931,-0.619 -0.306,-1.868 0.97,-1.943 3.146,-2.765 5.488,-2.074 1.773,0.523 3.073,2.681 3.999,6.638 0.162,0.693 0.595,3.035 0.961,5.203 1.496,8.845 3.193,15.395 5.49,21.182 0.591,1.493 1.029,2.663 0.973,2.599 -0.056,-0.063 -0.457,-0.649 -0.892,-1.303 -2.702,-4.059 -4.511,-5.695 -8.602,-7.786 -1.941,-0.989 -3.702,-1.711 -6.902,-2.829 -2.571,-0.894 -3.959,-1.577 -5.143,-2.528 -1.08,-0.865 -1.783,-1.714 -2.306,-2.778 -0.365,-0.743 -0.525,-1.041 -0.524,-2.206 10e-4,-1.096 0.167,-1.429 0.44,-1.94 0.933,-1.751 2.812,-1.98 4.241,-0.518 l 0.551,0.565 -0.263,0.511 c -0.153,0.297 -0.258,0.82 -0.255,1.261 0.023,2.371 3.195,3.595 5.064,1.954 1.226,-1.078 1.273,-2.899 0.103,-3.998 -0.403,-0.379 -1.479,-0.86 -1.924,-0.86 -0.111,0 -0.626,-0.424 -1.145,-0.944 -0.609,-0.608 -1.308,-1.12 -1.967,-1.447 -0.936,-0.459 -1.171,-0.59 -2.394,-0.587 -1.179,10e-4 -1.408,0.14 -2.162,0.519 -2.365,1.191 -3.82,4.2 -3.375,6.981 0.193,1.215 0.853,2.98 1.539,4.117 0.753,1.252 1.54,2.133 2.692,3.009 1.706,1.303 2.343,1.611 7.719,3.72 5.075,1.992 7.545,3.848 10.633,7.988 0.783,1.049 2.151,3.116 3.039,4.595 1.542,2.567 4.853,8.964 6.061,11.71 l 0.566,1.289 -0.988,0.974 c -0.544,0.536 -1.023,0.974 -1.064,0.974 -0.041,0 -0.552,-0.334 -1.134,-0.743 l -1.059,-0.744 -1.199,1.145 c -0.66,0.63 -1.949,1.875 -2.866,2.766 l -1.666,1.622 0.269,0.39 c 0.149,0.213 1.08,1.534 2.069,2.935 l 1.801,2.545 -1.134,2.797 c -0.624,1.539 -1.157,2.827 -1.184,2.862 -0.027,0.034 -1.588,0.343 -3.469,0.686 -1.88,0.343 -3.44,0.648 -3.467,0.679 -0.025,0.03 -0.091,1.804 -0.145,3.941 -0.092,3.64 -0.082,3.89 0.165,3.964 0.144,0.044 1.799,0.355 3.677,0.694 1.878,0.337 3.464,0.661 3.525,0.718 0.061,0.057 0.568,1.278 1.127,2.712 l 1.017,2.608 -2.148,3.006 -2.148,3.006 2.819,2.819 2.818,2.818 3.051,-2.094 c 1.677,-1.152 3.131,-2.093 3.231,-2.093 0.099,0 1.292,0.47 2.649,1.044 l 2.469,1.046 0.745,3.741 0.746,3.742 h 3.846 3.846 l 0.73,-3.739 0.729,-3.738 2.599,-1.043 2.599,-1.043 3.157,2.144 3.158,2.145 2.758,-2.819 2.758,-2.819 -1.676,-2.559 c -0.921,-1.408 -1.855,-2.831 -2.076,-3.164 l -0.4,-0.605 1.097,-2.586 1.096,-2.587 3.598,-0.624 c 1.98,-0.343 3.621,-0.646 3.649,-0.673 0.035,-0.034 0.138,-6.021 0.138,-7.983 0,-0.001 -1.564,-0.265 -3.474,-0.587 -1.912,-0.322 -3.519,-0.638 -3.576,-0.703 -0.056,-0.065 -0.623,-1.329 -1.261,-2.809 l -1.155,-2.691 2.025,-2.997 2.027,-2.998 -2.699,-2.807 -2.701,-2.808 -0.67,0.392 -0.67,0.393 -0.38,-0.504 C 8.156,71.835 7.694,71.294 7.339,70.91 l -0.644,-0.699 2.337,-3.31 c 8.744,-12.392 14.032,-18.313 18.842,-21.099 1.506,-0.872 3.348,-1.651 4.886,-2.063 1.727,-0.467 4.867,-0.462 6.511,0.005 1.432,0.407 2.803,1.02 4.284,1.912 1.12,0.673 1.135,0.69 0.985,1.118 -0.584,1.676 0.972,3.53 2.964,3.53 2.337,0 3.788,-2.408 2.543,-4.224 -0.586,-0.855 -1.235,-1.184 -2.467,-1.244 L 46.478,44.779 45.489,43.791 C 43.03,41.332 38.327,40.083 33.1,40.5 c -3.535,0.284 -7.346,1.097 -8.97,1.917 -2.958,1.493 -6.952,5.729 -11.01,11.672 -0.662,0.968 -1.203,1.714 -1.203,1.657 0,-0.175 1.437,-2.976 2.778,-5.419 3.182,-5.801 5.674,-8.985 7.917,-10.12 1.101,-0.556 3.121,-1.05 6.34,-1.552 7.614,-1.19 10.426,-2.083 12.41,-3.937 0.663,-0.621 1.068,-1.157 1.368,-1.814 0.385,-0.832 0.427,-1.085 0.422,-2.414 -0.005,-1.259 -0.068,-1.643 -0.412,-2.524 -1.545,-3.94 -4.862,-6.005 -8.438,-5.252 -2.454,0.517 -4.458,2.446 -5.01,4.823 -0.163,0.705 -0.219,0.771 -0.762,0.935 -0.727,0.218 -1.599,0.968 -1.866,1.603 -0.451,1.076 -0.16,2.168 0.808,3.04 0.68,0.616 1.287,0.782 2.478,0.685 2.28,-0.191 3.382,-2.689 1.931,-4.383 l -0.515,-0.605 0.586,-0.868 c 0.867,-1.289 1.429,-1.609 2.814,-1.609 1.348,0 2.166,0.353 3.199,1.387 0.933,0.933 1.331,1.809 1.336,2.927 0.002,1.067 -0.44,1.869 -1.427,2.583 -1.34,0.97 -2.581,1.245 -8.438,1.861 -5.222,0.549 -6.77,0.924 -9.499,2.297 -2.111,1.062 -3.825,2.927 -6.635,7.221 -0.806,1.235 -2.097,3.352 -2.869,4.703 -0.768,1.356 -1.418,2.441 -1.443,2.417 -0.024,-0.023 0.06,-0.337 0.187,-0.698 0.412,-1.17 1.083,-4.029 1.336,-5.7 0.33,-2.193 0.328,-5.166 -0.005,-7.718 -0.391,-2.995 -0.365,-6.776 0.059,-8.805 0.556,-2.644 1.481,-4.397 2.888,-5.466 2.114,-1.606 5.261,-1.029 6.433,1.178 0.405,0.762 0.337,1.965 -0.159,2.87 -0.396,0.724 -0.453,0.766 -1.109,0.83 -2.02,0.194 -3.288,1.964 -2.616,3.648 0.837,2.091 3.839,2.527 5.314,0.774 0.606,-0.722 0.708,-1.953 0.246,-3.051 -0.169,-0.406 -0.152,-0.512 0.181,-1.039 1.16,-1.849 1.607,-4.28 1.078,-5.875 -0.706,-2.119 -4.048,-3.99 -7.133,-3.99 -4.527,0 -8.369,4.142 -9.64,10.39 -0.407,2.009 -0.445,5.119 -0.086,7.615 0.722,5.048 0.106,9.816 -2.006,15.523 -0.583,1.579 -2.55,5.71 -2.939,6.178 C 0.777,58.683 0.773,58.678 0.851,58.247 1.059,57.107 1.524,52.98 1.67,50.975 1.761,49.728 1.816,46.162 1.792,42.884 L 1.75,37.02 2.153,35.011 C 3.298,29.309 5.251,22.967 8.139,15.572 10.878,8.555 10.945,8.344 10.949,6.441 10.954,4.887 10.928,4.754 10.466,3.813 10.16,3.19 9.718,2.595 9.283,2.211 7.324,0.485 3.273,-0.48 0.001,0 Z"
         style="fill:none;stroke:#1d1d1b;stroke-width:0.022;stroke-linecap:butt;stroke-linejoin:miter;stroke-miterlimit:10;stroke-dasharray:none;stroke-opacity:1"
         id="path34"
         inkscape:connector-curvature="0" /></g><g
       id="g36"
       transform="translate(65.5137,70.2383)"><path
         d="m 0,0 c 0.043,0.048 0.164,-0.031 0.356,-0.282 0.156,-0.203 0.826,-1.259 1.489,-2.348 5.285,-8.655 10.521,-14.77 14.28,-16.668 1.784,-0.902 5.897,-1.739 9.174,-1.868 5.657,-0.223 9.429,0.933 12.182,3.729 0.411,0.412 0.732,0.634 0.79,0.541 0.153,-0.249 1.282,-0.178 1.938,0.12 1.81,0.822 2.354,2.66 1.165,3.932 -1.219,1.308 -3.262,1.268 -4.453,-0.087 -0.623,-0.71 -0.742,-1.42 -0.377,-2.245 l 0.286,-0.646 -1.28,-0.75 c -2.498,-1.463 -4.355,-2.163 -6.424,-2.431 -4.041,-0.518 -8.928,1.306 -13.275,4.954 C 11.866,-10.704 5.469,-2.83 -1.207,6.938 L -1.929,7.997 -2.756,7.438 C -3.719,6.787 -4.572,6.341 -5.493,6.045"
         style="fill:#12738e;fill-opacity:1;fill-rule:nonzero;stroke:#000000;stroke-width:0.022;stroke-linecap:butt;stroke-linejoin:miter;stroke-miterlimit:10;stroke-dasharray:none;stroke-opacity:1"
         id="path38"
         inkscape:connector-curvature="0" /></g><g
       id="g40"
       transform="translate(60.0342,76.2881)"><path
         d="m 0,0 c -0.921,-0.297 -1.909,-0.443 -3.136,-0.495 -1.482,-0.062 -2.002,-0.022 -3.095,0.239 -1.937,0.464 -3.711,1.436 -5.212,2.857 l -1.23,1.164 -0.38,-0.299 c -0.693,-0.545 -2.239,-1.169 -3.346,-1.35 -1.397,-0.228 -2.984,-0.002 -4.297,0.613 l -0.936,0.437 -0.691,-1.518 c -3.945,-8.675 -8.227,-15.784 -11.571,-19.217 -2.176,-2.232 -4.475,-3.588 -9.263,-5.463 -1.582,-0.619 -3.478,-1.421 -4.212,-1.781 -3.147,-1.55 -5.013,-3.624 -6.104,-6.786 -0.928,-2.683 -0.475,-5.142 1.29,-7.007 1.614,-1.707 3.811,-2.089 5.82,-1.013 0.426,0.227 1.223,0.865 1.77,1.418 0.696,0.701 1.105,1.001 1.363,1.001 0.571,0 1.159,0.271 1.684,0.778 0.935,0.902 0.991,2.069 0.146,3.032 -0.576,0.657 -1.213,0.941 -2.111,0.941 -1.902,0 -3.144,-1.828 -2.318,-3.413 0.173,-0.333 0.315,-0.638 0.315,-0.675 0,-0.037 -0.246,-0.34 -0.547,-0.673 -1.546,-1.713 -3.678,-1.657 -4.808,0.127 -1.858,2.93 0.073,6.942 4.39,9.122 0.409,0.206 1.889,0.78 3.29,1.274 6.346,2.239 9.466,3.928 12.085,6.544 1.155,1.156 1.842,2.053 3.652,4.775 1.226,1.842 2.618,4.047 3.093,4.898 0.734,1.313 2.377,4.074 2.547,4.283 0.029,0.036 0.116,0 0.194,-0.078 0.091,-0.09 -0.403,-1.058 -1.352,-2.662 -2.618,-4.417 -4.113,-7.695 -5.781,-12.692 -1.686,-5.046 -2.983,-10.559 -4.296,-18.253 -1.057,-6.191 -1.821,-8.523 -3.342,-10.214 -0.571,-0.636 -0.852,-0.816 -1.656,-1.064 -1.967,-0.608 -3.704,-0.288 -5.028,0.921 -0.823,0.752 -1.317,1.608 -1.447,2.502 -0.096,0.668 -0.04,0.748 0.83,1.165 1.86,0.889 1.956,3.118 0.175,4.125 -0.646,0.367 -1.696,0.446 -2.397,0.181 -0.638,-0.241 -1.371,-1.029 -1.54,-1.654 -0.228,-0.849 0.038,-1.625 0.768,-2.25 0.526,-0.45 0.592,-0.574 0.51,-0.952 -0.15,-0.682 0.302,-2.515 0.843,-3.415 1.228,-2.046 3.384,-3.061 6.497,-3.063 1.426,0 1.846,0.054 2.553,0.335 1.711,0.68 3.058,2.367 3.966,4.969 0.642,1.842 0.937,3.06 2.103,8.688 1.848,8.922 2.346,10.521 5.17,16.61 1.769,3.813 7.336,14.667 7.742,15.094 0.072,0.076 0.175,0.093 0.229,0.043 0.052,-0.055 -0.274,-0.917 -0.725,-1.921 -2.872,-6.389 -5.125,-13.315 -6.141,-18.878 -0.355,-1.946 -0.39,-2.555 -0.507,-8.659 -0.132,-6.951 -0.271,-9.201 -0.735,-11.844 -1.027,-5.86 -3.186,-9.094 -6.832,-10.238 l -0.822,-0.257 -0.573,0.388 c -1.489,1.011 -3.101,0.753 -4.055,-0.649 -0.788,-1.157 -0.168,-2.707 1.333,-3.335 1.109,-0.464 2.413,-0.106 3.154,0.865 0.224,0.295 0.468,0.497 0.541,0.452 0.248,-0.152 1.829,0.263 2.941,0.774 3.807,1.748 6.623,5.847 8.022,11.674 0.897,3.736 1.223,7.516 1.16,13.467 -0.037,3.56 -0.009,4.097 0.29,5.667 1.09,5.689 3.925,13.999 7.019,20.565 0.489,1.043 0.794,1.526 0.964,1.526 0.176,0 0.22,-0.077 0.15,-0.261 -1.071,-2.792 -2.385,-7.465 -2.826,-10.048 -0.724,-4.243 -0.626,-9.016 0.244,-11.981 0.313,-1.066 0.231,-4.24 -0.157,-6.063 -0.312,-1.47 -1.429,-4.909 -3.349,-10.315 -1.399,-3.945 -1.864,-6.512 -1.491,-8.238 0.539,-2.487 3.187,-3.842 7.195,-3.678 2.502,0.101 3.887,0.753 4.831,2.272 0.422,0.676 0.444,0.794 0.44,2.285 -0.001,1.293 -0.064,1.726 -0.353,2.461 -0.412,1.043 -0.424,1.277 -0.112,2.097 0.751,1.971 -1.708,3.729 -3.764,2.688 -0.859,-0.434 -1.333,-1.141 -1.333,-1.994 0,-1.244 0.882,-2.213 2.181,-2.396 0.689,-0.096 0.729,-0.129 1.134,-0.939 1.371,-2.742 0.081,-4.515 -3.07,-4.222 -2.773,0.258 -3.951,1.777 -3.512,4.526 0.24,1.507 0.819,3.282 2.376,7.289 2.259,5.818 2.926,8.236 3.065,11.133 0.067,1.385 0.021,2.041 -0.247,3.488 -0.695,3.756 -0.549,8.469 0.395,12.691 0.714,3.194 2.634,8.314 3.117,8.314 0.111,0 0.202,-0.034 0.202,-0.07 0,-0.041 0.162,-0.995 0.36,-2.126 0.677,-3.856 0.89,-6.687 0.89,-11.832 0,-3.319 -0.078,-5.578 -0.255,-7.495 -0.284,-3.073 -0.21,-4.625 0.347,-7.195 0.774,-3.571 2.9,-8.279 6.538,-14.478 2.414,-4.113 3.487,-6.3 3.782,-7.716 0.199,-0.961 0.199,-1.16 -0.002,-1.851 -0.415,-1.423 -1.584,-2.543 -3.199,-3.059 -1.793,-0.574 -3.873,-0.433 -8.435,0.566 -0.308,0.067 -0.334,0.132 -0.247,0.646 0.324,1.912 -1.965,3.436 -3.774,2.515 -0.655,-0.335 -1.308,-1.052 -1.441,-1.584 -0.242,-0.964 0.372,-2.178 1.331,-2.632 0.577,-0.274 1.896,-0.324 2.337,-0.09 0.226,0.122 0.382,0.092 0.695,-0.129 0.594,-0.417 1.913,-1.063 2.85,-1.391 2.031,-0.713 4.205,-0.877 6.478,-0.486 h 0.002 c 3.147,0.541 4.922,1.549 5.93,3.368 0.415,0.747 0.433,0.868 0.426,2.567 -0.006,2.046 0.08,1.743 -2.102,7.347 -3.087,7.922 -4.444,11.986 -5.683,16.995 -1.388,5.623 -1.379,5.536 -1.397,13.804 -0.015,6.623 -0.046,7.514 -0.355,9.975 -0.186,1.483 -0.426,3.206 -0.534,3.825 -0.361,2.074 0.323,1.519 1.894,-1.537 2.316,-4.51 3.828,-9.514 4.263,-14.116 0.188,-1.995 0.116,-3.772 -0.251,-6.162 -1.215,-7.964 2.07,-15.655 7.353,-17.203 1.026,-0.3 2.955,-0.305 4.099,-0.007 2.077,0.539 4.047,1.926 4.596,3.236 0.605,1.446 0.345,3.202 -0.795,5.365 l -0.708,1.345 0.268,0.441 c 0.842,1.383 0.147,3.004 -1.495,3.496 -1.733,0.519 -3.577,-0.833 -3.392,-2.486 0.139,-1.214 1.205,-2.126 2.522,-2.151 0.558,-0.012 0.687,-0.08 1.019,-0.551 0.516,-0.727 0.725,-1.399 0.723,-2.307 -0.012,-2.465 -2.774,-4.284 -5.459,-3.594 -2.316,0.592 -3.834,2.467 -4.741,5.849 -0.364,1.355 -0.389,1.657 -0.399,4.932 -0.01,2.392 0.059,3.951 0.211,4.971 0.295,1.97 0.268,5.775 -0.058,7.717 -0.65,3.886 -1.932,7.641 -4.034,11.83 -0.766,1.53 -1.336,2.815 -1.263,2.859 0.175,0.108 0.417,-0.29 1.537,-2.525 3.274,-6.534 7.156,-13.076 9.689,-16.331 1.556,-1.999 2.602,-2.934 4.202,-3.752 2.565,-1.312 4.315,-1.725 9.521,-2.25 5.543,-0.56 6.75,-0.825 8.233,-1.807 1.36,-0.9 1.979,-2.262 1.699,-3.743 -0.363,-1.924 -2.43,-3.811 -4.436,-4.047 -1.53,-0.181 -2.815,0.557 -3.87,2.223 l -0.551,0.871 0.598,0.557 c 0.535,0.497 0.605,0.65 0.668,1.4 0.058,0.721 0.016,0.922 -0.307,1.41 -1.021,1.545 -3.586,1.523 -4.552,-0.039 -0.398,-0.645 -0.405,-1.744 -0.013,-2.375 0.313,-0.511 1.145,-1.036 1.881,-1.193 0.422,-0.089 0.474,-0.162 0.558,-0.795 0.274,-2.041 1.917,-3.895 4.111,-4.635 0.776,-0.263 1.201,-0.312 2.309,-0.263 1.2,0.052 1.481,0.12 2.47,0.607 1.793,0.888 3.222,2.634 3.968,4.857 0.459,1.366 0.373,3.308 -0.192,4.378 -1.465,2.758 -4.222,3.907 -12.649,5.27 -6.945,1.123 -8.152,1.653 -10.589,4.651 -2.241,2.755 -4.301,6.278 -8.049,13.772 -1.148,2.296 -2.254,4.44 -2.461,4.764 -0.234,0.372 -0.312,0.636 -0.255,0.695"
         style="fill:#34aacd;fill-opacity:1;fill-rule:nonzero;stroke:#000000;stroke-width:0.022;stroke-linecap:butt;stroke-linejoin:miter;stroke-miterlimit:10;stroke-dasharray:none;stroke-opacity:1"
         id="path42"
         inkscape:connector-curvature="0" /></g><g
       id="g44"
       transform="translate(47.0156,72.1768)"><path
         d="m 0,0 c -0.923,0.218 -1.575,1.173 -1.406,2.059 0.083,0.434 0.33,0.284 0.33,-0.201 0,-1.217 1.264,-1.918 2.401,-1.33 0.438,0.227 0.894,0.904 0.894,1.33 0,0.236 0.268,0.471 0.395,0.345 C 2.655,2.162 2.605,1.848 2.503,1.506 2.315,0.881 1.488,0.12 1.121,0.023 0.941,-0.023 0.901,-0.046 0.696,-0.059 0.582,-0.065 0.273,-0.065 0,0 Z"
         style="fill:#000000;fill-opacity:1;fill-rule:nonzero;stroke:none"
         id="path46"
         inkscape:connector-curvature="0" /></g><g
       id="g48"
       transform="translate(55.772,78.5615)"><path
         d="m 0,0 v 2.369 l -0.632,0.167 c -2.425,0.639 -4.062,3.144 -3.665,5.61 0.546,3.396 4.157,5.235 7.227,3.68 C 3.815,11.377 4.823,10.308 5.23,9.385 5.598,8.556 5.734,6.986 5.513,6.166 5.091,4.607 3.695,3.104 2.254,2.656 L 1.559,2.44 1.518,0.015 1.512,-2.39 2.295,-2.314 c 0.451,0.052 1.34,0.285 1.977,0.517 3.429,1.253 5.993,4.051 6.951,7.592 0.357,1.312 0.357,4.027 0.003,5.343 -0.849,3.142 -3.052,5.806 -5.956,7.203 -1.489,0.717 -2.836,1.006 -4.676,1.006 -1.927,-0.001 -3.034,-0.268 -4.899,-1.183 -1.192,-0.585 -1.616,-0.9 -2.751,-2.041 -2.231,-2.243 -3.188,-4.54 -3.183,-7.644 0.006,-3.224 1.162,-5.852 3.55,-8.062 1.642,-1.521 4.361,-2.752 6.132,-2.778 L 0.001,-2.369 V 0 Z"
         style="fill:#ffffff;fill-opacity:1;fill-rule:nonzero;stroke:none"
         id="path50"
         inkscape:connector-curvature="0" /></g><g
       id="g52"
       transform="translate(55.772,78.5615)"><path
         d="m 0,0 v 2.369 l -0.632,0.167 c -2.425,0.639 -4.062,3.144 -3.665,5.61 0.546,3.396 4.157,5.235 7.227,3.68 C 3.815,11.377 4.823,10.308 5.23,9.385 5.598,8.556 5.734,6.986 5.513,6.166 5.091,4.607 3.695,3.104 2.254,2.656 L 1.559,2.44 1.518,0.015 1.512,-2.39 2.295,-2.314 c 0.451,0.052 1.34,0.285 1.977,0.517 3.429,1.253 5.993,4.051 6.951,7.592 0.357,1.312 0.357,4.027 0.003,5.343 -0.849,3.142 -3.052,5.806 -5.956,7.203 -1.489,0.717 -2.836,1.006 -4.676,1.006 -1.927,-0.001 -3.034,-0.268 -4.899,-1.183 -1.192,-0.585 -1.616,-0.9 -2.751,-2.041 -2.231,-2.243 -3.188,-4.54 -3.183,-7.644 0.006,-3.224 1.162,-5.852 3.55,-8.062 1.642,-1.521 4.361,-2.752 6.132,-2.778 L 0.001,-2.369 V 0 Z"
         style="fill:none;stroke:#000000;stroke-width:0.022;stroke-linecap:butt;stroke-linejoin:miter;stroke-miterlimit:10;stroke-dasharray:none;stroke-opacity:1"
         id="path54"
         inkscape:connector-curvature="0" /></g><g
       id="g56"
       transform="translate(41.5225,81.0884)"><path
         d="m 0,0 v 2.373 l -0.555,0.232 c -1.255,0.524 -1.882,1.568 -1.792,2.982 0.049,0.77 0.14,1.034 0.513,1.497 0.249,0.31 0.713,0.715 1.032,0.902 C 0.44,8.715 2.485,8.131 3.104,6.871 3.415,6.238 3.562,6.261 3.565,6.941 3.572,8.532 4.57,11.2 5.713,12.686 l 0.565,0.735 -0.639,0.552 c -0.779,0.67 -1.91,1.24 -3.061,1.539 -2.389,0.622 -4.85,-0.128 -6.815,-2.077 -2.902,-2.879 -3.573,-7.439 -1.667,-11.331 0.329,-0.672 0.842,-1.347 1.598,-2.106 1.398,-1.402 2.099,-1.79 4.269,-2.361 C -0.017,-2.368 0,-1.305 0,0"
         style="fill:#ffffff;fill-opacity:1;fill-rule:nonzero;stroke:none"
         id="path58"
         inkscape:connector-curvature="0" /></g><g
       id="g60"
       transform="translate(41.5225,81.0884)"><path
         d="m 0,0 v 2.373 l -0.555,0.232 c -1.255,0.524 -1.882,1.568 -1.792,2.982 0.049,0.77 0.14,1.034 0.513,1.497 0.249,0.31 0.713,0.715 1.032,0.902 C 0.44,8.715 2.485,8.131 3.104,6.871 3.415,6.238 3.562,6.261 3.565,6.941 3.572,8.532 4.57,11.2 5.713,12.686 l 0.565,0.735 -0.639,0.552 c -0.779,0.67 -1.91,1.24 -3.061,1.539 -2.389,0.622 -4.85,-0.128 -6.815,-2.077 -2.902,-2.879 -3.573,-7.439 -1.667,-11.331 0.329,-0.672 0.842,-1.347 1.598,-2.106 1.398,-1.402 2.099,-1.79 4.269,-2.361 C -0.017,-2.368 0,-1.305 0,0 Z"
         style="fill:none;stroke:#000000;stroke-width:0.022;stroke-linecap:butt;stroke-linejoin:miter;stroke-miterlimit:10;stroke-dasharray:none;stroke-opacity:1"
         id="path62"
         inkscape:connector-curvature="0" /></g><g
       id="g64"
       transform="translate(44.959,79.1563)"><path
         d="M 0,0 C 0.401,0.152 1.061,0.49 1.465,0.749 L 2.203,1.223 1.925,1.615 C 1.235,2.594 0.43,4.647 0.199,6.016 l -0.1,0.592 -0.283,-0.58 C -0.566,5.241 -0.84,4.965 -1.601,4.597 L -2.249,4.283 V 1.902 -0.479 l 0.76,0.101 C -1.07,-0.322 -0.4,-0.152 0,0 Z"
         style="fill:#ffffff;fill-opacity:1;fill-rule:nonzero;stroke:none"
         id="path66"
         inkscape:connector-curvature="0" /></g><g
       id="g68"
       transform="translate(44.959,79.1563)"><path
         d="M 0,0 C 0.401,0.152 1.061,0.49 1.465,0.749 L 2.203,1.223 1.925,1.615 C 1.235,2.594 0.43,4.647 0.199,6.016 l -0.1,0.592 -0.283,-0.58 C -0.566,5.241 -0.84,4.965 -1.601,4.597 L -2.249,4.283 V 1.902 -0.479 l 0.76,0.101 C -1.07,-0.322 -0.4,-0.152 0,0 Z"
         style="fill:none;stroke:#000000;stroke-width:0.022;stroke-linecap:butt;stroke-linejoin:miter;stroke-miterlimit:10;stroke-dasharray:none;stroke-opacity:1"
         id="path70"
         inkscape:connector-curvature="0" /></g><g
       id="g72"
       transform="translate(36.2578,133.376)"><path
         d="m 0,0 c 0.056,0.266 0.293,1.083 0.527,1.818 1.312,4.117 4.233,6.497 8.452,6.887 2.452,0.227 4.152,-0.18 7.047,-1.685 2.23,-1.16 3.149,-1.502 4.541,-1.697 2.887,-0.401 5.162,0.638 5.891,2.689 l 0.251,0.709 h 1.542 1.544 L 29.694,8.096 C 29.639,7.752 29.428,6.967 29.221,6.352 27.756,1.95 24.354,-0.483 19.661,-0.483 c -1.982,0 -3.072,0.309 -5.776,1.637 C 10.834,2.651 9.89,2.947 8.159,2.947 5.567,2.948 4.104,2.087 3.266,0.075 L 3.034,-0.483 H 1.466 -0.103 Z"
         style="fill:#1d1d1b;fill-opacity:1;fill-rule:nonzero;stroke:none"
         id="path74"
         inkscape:connector-curvature="0" /></g><g
       id="g76"
       transform="translate(36.2578,133.376)"><path
         d="m 0,0 c 0.056,0.266 0.293,1.083 0.527,1.818 1.312,4.117 4.233,6.497 8.452,6.887 2.452,0.227 4.152,-0.18 7.047,-1.685 2.23,-1.16 3.149,-1.502 4.541,-1.697 2.887,-0.401 5.162,0.638 5.891,2.689 l 0.251,0.709 h 1.542 1.544 L 29.694,8.096 C 29.639,7.752 29.428,6.967 29.221,6.352 27.756,1.95 24.354,-0.483 19.661,-0.483 c -1.982,0 -3.072,0.309 -5.776,1.637 C 10.834,2.651 9.89,2.947 8.159,2.947 5.567,2.948 4.104,2.087 3.266,0.075 L 3.034,-0.483 H 1.466 -0.103 Z"
         style="fill:none;stroke:#1d1d1b;stroke-width:0.087;stroke-linecap:butt;stroke-linejoin:miter;stroke-miterlimit:10;stroke-dasharray:none;stroke-opacity:1"
         id="path78"
         inkscape:connector-curvature="0" /></g><g
       id="g80"
       transform="translate(39.3604,134)"><path
         d="m 0,0 c 0.865,1.769 2.636,2.753 4.951,2.753 1.676,0 2.82,-0.342 5.449,-1.628 1.307,-0.639 2.876,-1.319 3.488,-1.511 2.084,-0.654 5.312,-0.374 7.322,0.635 1.677,0.841 3.144,2.425 4.041,4.359 0.547,1.182 1.048,2.853 0.898,3.003 -0.054,0.054 -0.562,0.117 -1.128,0.139 L 23.993,7.788 23.54,6.84 C 22.865,5.428 21.893,4.722 20.15,4.379 18.051,3.966 15.593,4.485 13.146,5.859 9.819,7.727 7.178,8.186 4.19,7.417 2.026,6.86 0.002,5.387 -1.091,3.572 -1.616,2.702 -2.482,0.518 -2.64,-0.327 L -2.729,-0.81 h 1.167 1.166 z"
         style="fill:#14738e;fill-opacity:1;fill-rule:nonzero;stroke:none"
         id="path82"
         inkscape:connector-curvature="0" /></g><g
       id="g84"
       transform="translate(39.3604,134)"><path
         d="m 0,0 c 0.865,1.769 2.636,2.753 4.951,2.753 1.676,0 2.82,-0.342 5.449,-1.628 1.307,-0.639 2.876,-1.319 3.488,-1.511 2.084,-0.654 5.312,-0.374 7.322,0.635 1.677,0.841 3.144,2.425 4.041,4.359 0.547,1.182 1.048,2.853 0.898,3.003 -0.054,0.054 -0.562,0.117 -1.128,0.139 L 23.993,7.788 23.54,6.84 C 22.865,5.428 21.893,4.722 20.15,4.379 18.051,3.966 15.593,4.485 13.146,5.859 9.819,7.727 7.178,8.186 4.19,7.417 2.026,6.86 0.002,5.387 -1.091,3.572 -1.616,2.702 -2.482,0.518 -2.64,-0.327 L -2.729,-0.81 h 1.167 1.166 z"
         style="fill:none;stroke:#1d1d1b;stroke-width:0.087;stroke-linecap:butt;stroke-linejoin:miter;stroke-miterlimit:10;stroke-dasharray:none;stroke-opacity:1"
         id="path86"
         inkscape:connector-curvature="0" /></g><g
       id="g88"
       transform="translate(58.4385,114.5391)"><path
         d="M 0,0 1.81,0.678 1.806,0.684 c -0.187,0.379 -0.287,0.799 -0.287,1.25 0,0.307 0.034,0.555 0.124,0.833 L 1.658,2.816 -0.398,3.462 -0.441,3.475 C -0.687,3.247 -1.016,3.104 -1.376,3.096 L -1.38,3.071 -1.557,1.556 C -0.821,1.316 -0.24,0.735 0,0"
         style="fill:#14738e;fill-opacity:1;fill-rule:nonzero;stroke:#000000;stroke-width:0.022;stroke-linecap:butt;stroke-linejoin:miter;stroke-miterlimit:10;stroke-dasharray:none;stroke-opacity:1"
         id="path90"
         inkscape:connector-curvature="0" /></g><g
       id="g92"
       transform="translate(65.5,93.9023)"><path
         d="m 0,0 -0.949,0.973 c -1.627,1.662 -3.221,2.575 -5.513,3.154 -1.777,0.45 -4.447,0.351 -6.161,-0.228 -1.455,-0.491 -2.905,-1.331 -3.958,-2.294 l -0.794,-0.725 -0.591,0.511 c -2.003,1.732 -4.781,2.329 -7.273,1.565 -3.839,-1.177 -6.429,-5.346 -6.109,-9.83 0.108,-1.514 0.388,-2.531 1.093,-3.976 0.291,-0.594 0.503,-1.101 0.471,-1.125 -0.031,-0.025 -0.451,-0.323 -0.934,-0.663 h -0.001 c -0.482,-0.341 -0.916,-0.617 -0.964,-0.615 -0.164,0.008 -5.209,4.858 -5.209,5.008 0,0.037 0.88,1.313 1.954,2.834 1.075,1.522 1.955,2.84 1.955,2.928 10e-4,0.201 -2.262,5.886 -2.398,6.026 -0.055,0.056 -1.503,0.349 -3.218,0.652 -1.714,0.302 -3.257,0.601 -3.428,0.665 -0.303,0.112 -0.312,0.211 -0.343,3.678 l -0.033,3.562 0.789,0.158 c 0.434,0.087 2.092,0.399 3.684,0.693 1.592,0.295 2.901,0.546 2.91,0.559 0.146,0.231 2.136,5.528 2.136,5.687 0,0.122 -0.902,1.482 -2.004,3.022 -1.101,1.539 -2.004,2.854 -2.004,2.922 0,0.154 4.934,5.092 5.088,5.092 0.06,0 1.453,-0.918 3.094,-2.04 1.641,-1.122 3.06,-2.019 3.153,-1.991 0.094,0.027 1.347,0.552 2.786,1.166 l 2.617,1.118 0.729,3.657 0.729,3.657 3.516,0.039 3.515,0.04 0.081,-0.336 c 0.043,-0.186 0.378,-1.835 0.744,-3.663 0.365,-1.83 0.686,-3.348 0.712,-3.373 0.025,-0.026 1.275,-0.548 2.777,-1.161 l 2.734,-1.114 3.1,2.094 3.104,2.094 2.505,-2.503 C 5.473,26.54 6.6,25.357 6.6,25.29 6.6,25.222 5.742,23.852 4.692,22.245 3.645,20.638 2.74,19.243 2.684,19.144 2.627,19.045 2.925,18.21 3.345,17.289 3.767,16.367 4.314,15.134 4.563,14.549 l 0.455,-1.065 1.2,-0.219 c 0.659,-0.12 2.24,-0.402 3.517,-0.625 l 2.319,-0.408 0.107,-3.625 C 12.223,6.613 12.243,4.955 12.213,4.923 12.181,4.892 11.123,4.693 9.86,4.482 8.597,4.27 7.036,3.983 6.392,3.844 L 5.217,3.59 4.814,2.625 C 4.592,2.095 4.024,0.773 3.551,-0.312 L 2.69,-2.285 4.646,-5.164 C 5.721,-6.747 6.598,-8.097 6.596,-8.163 6.591,-8.23 5.498,-9.419 4.165,-10.805 l -2.424,-2.52 -0.539,0.29 c -0.298,0.16 -0.539,0.3 -0.539,0.31 0,0.011 0.233,0.526 0.519,1.143 0.723,1.565 0.998,2.862 0.998,4.707 0,1.958 -0.293,3.236 -1.149,4.999 L 0.38,-0.535 0.37,-0.514 c 2.426,4.12 2.412,10.722 0.847,16.434 0.566,0.318 0.949,0.926 0.949,1.623 0,1.028 -0.835,1.861 -1.861,1.861 -0.225,0 -0.441,-0.04 -0.64,-0.113 l -0.021,0.029 -0.652,0.898 -0.016,0.025 c 0.724,0.518 1.198,1.367 1.198,2.327 0,1.578 -1.28,2.857 -2.86,2.857 -1.071,0 -2.006,-0.591 -2.494,-1.464 l -0.025,0.008 -1.908,0.572 -0.062,0.018 c 0.085,0.182 0.132,0.386 0.132,0.6 0,0.789 -0.64,1.429 -1.429,1.429 -0.789,0 -1.428,-0.64 -1.428,-1.429 0,-0.633 0.386,-1.162 0.958,-1.349 l 0.026,-0.009 -0.195,-1.507 c -0.084,0.009 -0.17,0.014 -0.256,0.014 -1.34,0 -2.425,-1.086 -2.425,-2.425 0,-1.339 1.085,-2.424 2.425,-2.424 1.339,0 2.425,1.085 2.425,2.424 0,0.067 -0.002,0.134 -0.008,0.199 l 1.982,0.767 c 0.522,-0.692 1.349,-1.139 2.282,-1.139 0.387,0 0.752,0.076 1.087,0.214 l 0.015,-0.02 0.675,-0.927 0.012,-0.015 c -0.404,-0.341 -0.662,-0.851 -0.662,-1.421 0,-1.028 0.834,-1.862 1.864,-1.862 0.11,0 0.22,0.009 0.326,0.028 C 2.292,10.894 2.264,4.241 0.035,-0.034 L 0,0"
         style="fill:#34aacd;fill-opacity:1;fill-rule:nonzero;stroke:none"
         id="path94"
         inkscape:connector-curvature="0" /></g><g
       id="g96"
       transform="translate(42.9316,121.3198)"><path
         d="m 0,0 c -0.015,0.018 -0.021,0.027 -0.021,0.027 4.784,-0.249 9.161,-2.215 12.56,-5.225 0.211,0.059 0.434,0.091 0.663,0.091 0.087,0 0.173,-0.004 0.258,-0.013 l 0.195,1.507 -0.028,0.009 c -0.57,0.187 -0.957,0.715 -0.957,1.349 0,0.789 0.64,1.428 1.429,1.428 0.788,0 1.428,-0.639 1.428,-1.428 0,-0.215 -0.047,-0.418 -0.131,-0.601 l 0.06,-0.018 1.909,-0.572 0.025,-0.008 c 0.489,0.874 1.423,1.465 2.495,1.465 1.58,0 2.859,-1.279 2.859,-2.858 0,-0.959 -0.473,-1.808 -1.2,-2.326 l 0.018,-0.026 0.653,-0.897 0.018,-0.029 c 0.202,0.073 0.417,0.112 0.642,0.112 1.027,0 1.861,-0.833 1.861,-1.861 0,-0.697 -0.382,-1.304 -0.949,-1.623 1.566,-5.711 1.58,-12.314 -0.846,-16.434 l 0.009,-0.02 0.652,-1.341 c 0.853,-1.763 1.148,-3.041 1.148,-4.999 0,-1.845 -0.273,-3.142 -0.998,-4.707 -0.286,-0.618 -0.518,-1.132 -0.518,-1.143 0,-0.011 0.242,-0.151 0.539,-0.311 l 0.539,-0.29 2.423,2.52 c 1.334,1.387 2.426,2.576 2.429,2.642 0.004,0.067 -0.875,1.416 -1.948,3 l -1.954,2.878 0.859,1.973 c 0.472,1.085 1.041,2.407 1.264,2.937 l 0.403,0.965 1.174,0.254 c 0.644,0.139 2.205,0.427 3.469,0.638 1.26,0.211 2.32,0.41 2.353,0.442 0.03,0.031 0.009,1.689 -0.052,3.683 l -0.108,3.625 -2.32,0.408 c -1.275,0.224 -2.857,0.506 -3.518,0.626 l -1.197,0.218 -0.455,1.065 c -0.251,0.586 -0.799,1.819 -1.219,2.74 -0.419,0.921 -0.717,1.756 -0.661,1.855 0.057,0.099 0.961,1.495 2.009,3.102 1.049,1.606 1.908,2.976 1.908,3.044 0,0.068 -1.13,1.25 -2.508,2.626 L 24.157,3.003 21.055,0.909 17.952,-1.184 15.221,-0.07 C 13.718,0.542 12.466,1.064 12.442,1.09 12.416,1.116 12.096,2.633 11.73,4.463 11.365,6.292 11.03,7.941 10.986,8.126 L 10.905,8.462 7.39,8.423 3.874,8.383 3.146,4.726 2.417,1.069 -0.021,0.027"
         style="fill:#14738e;fill-opacity:1;fill-rule:nonzero;stroke:none"
         id="path98"
         inkscape:connector-curvature="0" /></g><g
       id="g100"
       transform="translate(62.2871,96.7173)"><path
         d="m 0,0 c 1.169,5.846 -0.467,11.694 -3.879,16.226 0.098,0.263 0.152,0.548 0.152,0.846 0,0.066 -0.003,0.132 -0.009,0.198 l 1.982,0.767 c 0.524,-0.692 1.351,-1.139 2.283,-1.139 0.385,0 0.752,0.076 1.088,0.214 L 1.631,17.092 2.306,16.165 2.317,16.15 C 1.914,15.809 1.656,15.298 1.656,14.729 c 0,-1.029 0.835,-1.862 1.864,-1.862 0.11,0 0.22,0.009 0.326,0.028 C 5.508,8.081 5.477,1.427 3.25,-2.848 L 3.215,-2.814 2.264,-1.842 C 1.525,-1.086 0.794,-0.485 0,0"
         style="fill:#14738e;fill-opacity:1;fill-rule:nonzero;stroke:none"
         id="path102"
         inkscape:connector-curvature="0" /></g></g></svg>