<?xml version="1.0" encoding="UTF-8" standalone="no"?>
<!-- Created with Inkscape (http://www.inkscape.org/) -->

<svg
   xmlns:dc="http://purl.org/dc/elements/1.1/"
   xmlns:cc="http://creativecommons.org/ns#"
   xmlns:rdf="http://www.w3.org/1999/02/22-rdf-syntax-ns#"
   xmlns:svg="http://www.w3.org/2000/svg"
   xmlns="http://www.w3.org/2000/svg"
   xmlns:sodipodi="http://sodipodi.sourceforge.net/DTD/sodipodi-0.dtd"
   xmlns:inkscape="http://www.inkscape.org/namespaces/inkscape"
   width="80.17498cm"
   height="104cm"
   viewBox="2 0 801.74981 1039.9999"
   version="1.1"
   id="svg8"
   sodipodi:docname="cartel_oshwi_recortado.svg"
   inkscape:version="0.92.2 (5c3e80d, 2017-08-06)"
   inkscape:export-filename="/home/oscar/proyectos/oshwdem/lonas y carteles/cartel_oshwi_recortado.png"
   inkscape:export-xdpi="159"
   inkscape:export-ydpi="159">
  <defs
     id="defs2" />
  <sodipodi:namedview
     id="base"
     pagecolor="#ffffff"
     bordercolor="#666666"
     borderopacity="1.0"
     inkscape:pageopacity="0.0"
     inkscape:pageshadow="2"
     inkscape:zoom="0.175"
     inkscape:cx="45.521499"
     inkscape:cy="1854.5587"
     inkscape:document-units="mm"
     inkscape:current-layer="layer1"
     inkscape:document-rotation="0"
     showgrid="false"
     units="cm"
     inkscape:measure-start="1302.24,2460.52"
     inkscape:measure-end="885.591,1329.77"
     inkscape:snap-bbox="true"
     inkscape:snap-nodes="true"
     inkscape:object-nodes="true"
     inkscape:snap-intersection-paths="false"
     inkscape:snap-smooth-nodes="true"
     inkscape:window-width="1920"
     inkscape:window-height="1043"
     inkscape:window-x="1920"
     inkscape:window-y="0"
     inkscape:window-maximized="1"
     inkscape:snap-global="false"
     fit-margin-left="2"
     fit-margin-top="2"
     fit-margin-right="2"
     fit-margin-bottom="2" />
  <metadata
     id="metadata5">
    <rdf:RDF>
      <cc:Work
         rdf:about="">
        <dc:format>image/svg+xml</dc:format>
        <dc:type
           rdf:resource="http://purl.org/dc/dcmitype/StillImage" />
        <dc:title></dc:title>
      </cc:Work>
    </rdf:RDF>
  </metadata>
  <g
     inkscape:label="Capa 1"
     inkscape:groupmode="layer"
     id="layer1"
     transform="translate(2.8168879,745.72933)">
    <g
       id="g79"
       transform="matrix(1.0330995,0,0,1.0330995,-0.63495107,-9.0782174)">
      <path
         stroke-miterlimit="10"
         d="m 391.48247,272.33683 c -10.17386,-1.48742 -21.03457,-5.13462 -31.33054,-10.51805 -7.96066,-4.16005 -10.17844,-4.89804 -12.30006,-4.08602 -4.42182,1.69042 -14.58805,0.21063 -19.1068,-2.78101 -11.09043,-7.34019 -12.37714,-20.76975 -2.89471,-30.22546 8.47198,-8.44527 22.28083,-8.46206 31.54728,-0.0313 3.82808,3.48159 5.51469,7.53099 5.51469,13.25173 v 5.1934 l 7.36691,1.76979 c 32.3715,7.76758 53.91511,5.81614 65.68172,-5.95198 4.74769,-4.74694 8.1835,-11.56284 8.21555,-16.30443 0.0771,-10.57071 -6.47094,-25.01986 -28.7098,-63.3487 -30.0217,-51.74542 -41.56927,-78.198524 -48.43706,-110.953908 -1.80949,-8.631487 -1.79041,-38.130412 0.0435,-62.809137 1.79574,-24.186478 1.08904,-69.75401 -1.43858,-92.820145 -1.92473,-17.58122 -4.69428,-35.12198 -5.88483,-37.28634 -1.6599,-3.01835 -13.67301,30.04535 -18.76261,51.645434 -6.71592,28.501458 -8.23082,60.879835 -4.03032,86.1874145 3.44115,20.7300675 3.70674,24.6718565 2.45742,36.5346165 -2.23152,21.184156 -7.86831,39.846788 -26.70876,88.432675 -16.74173,43.16735 -17.10958,57.66306 -1.66906,65.72369 6.50834,3.39536 22.15644,3.925 28.00005,0.94252 2.67492,-1.36531 4.83165,-3.44572 5.6719,-5.47424 1.75835,-4.24553 0.94252,-13.30439 -1.6805,-18.66339 -1.79957,-3.67697 -2.73751,-4.3478 -7.86527,-5.64519 -7.34859,-1.86062 -12.5664,-5.80851 -15.12761,-11.44836 -4.10969,-9.04971 -1.13179,-18.89464 7.33867,-24.26814 8.34377,-5.2926 17.79643,-5.15523 26.00207,0.37396 7.42338,5.00259 10.62718,15.95336 6.82124,23.31264 -1.54161,2.98324 -1.46453,3.66705 1.23176,10.91185 2.37041,6.36486 2.89548,9.61369 2.98248,18.42605 0.0962,9.70908 -0.17553,11.26596 -2.94432,16.90504 -3.98758,8.12245 -11.15072,13.83556 -21.37724,17.05081 -6.32518,1.9873 -9.99299,2.39713 -21.03152,2.33302 -25.84104,-0.15263 -41.43572,-7.37149 -48.34548,-22.38386 -2.14299,-4.65841 -2.45666,-7.00593 -2.42613,-18.18565 0.0435,-16.10524 2.67568,-26.25468 17.06913,-65.81146 15.54354,-42.714033 19.53341,-57.766857 20.54232,-77.513958 0.51362,-10.044119 0.18469,-13.870669 -2.25212,-26.1539378 -5.53987,-27.9328942 -5.70624,-54.3203632 -0.53117,-84.4870652 1.76369,-10.286045 7.41804,-34.039799 10.07083,-42.311829 1.77743,-5.54216 -1.8568,2.18954 -7.28983,15.5092 -15.03069,36.843696 -27.62228,76.060103 -34.11383,106.2413049 -3.23661,15.0421391 -3.2679,15.5061491 -4.10892,60.6180671 -0.46783,25.000783 -1.3905,49.308608 -2.05141,54.013568 -6.75713,48.03869 -20.53851,80.35907 -43.56344,102.15147 -10.57376,10.0113 -23.90945,17.24771 -36.5827,19.85395 -5.96954,1.22565 -8.41551,2.27425 -9.99527,4.28292 -7.51344,9.5534 -26.07457,9.22218 -34.34813,-0.61206 -10.72869,-12.74957 -2.04301,-30.62155 15.49699,-31.88919 5.57879,-0.40524 7.22649,-0.0282 13.18458,2.9947 l 6.80979,3.45641 5.36892,-1.78278 c 26.56911,-8.82457 43.37952,-40.45351 48.34701,-90.96793 0.63572,-6.47094 1.55764,-33.66585 2.04836,-60.431853 0.96923,-53.0206797 1.46376,-58.3178634 8.11023,-87.173434 5.5559,-24.119319 16.01977,-57.66764 24.65965,-79.065483 1.40576,-3.48159 2.38949,-6.49612 2.18496,-6.70065 -0.59832,-0.5991 -25.39076,48.794981 -34.85182,69.433468 -18.89921,41.23271 -23.18748,55.231592 -35.95994,117.409584 -12.68089,61.722388 -19.0778,79.511178 -32.94542,91.596788 -11.87421,10.35015 -31.78539,13.32729 -52.25598,7.81489 -20.063814,-5.40174 -35.071611,-23.68125 -35.071611,-42.71784 0,-5.6139 -0.321295,-6.41523 -4.229504,-10.5211 -11.645257,-12.24359 -3.580808,-31.177152 14.054593,-32.99503 4.954519,-0.512852 6.969296,-0.15645 11.897867,2.098726 8.159085,3.735731 11.982575,9.481661 11.934495,17.935334 -0.0473,8.13466 -3.65025,13.72338 -11.095768,17.21642 -6.478575,3.04124 -6.711343,4.46151 -2.207859,13.47458 6.991427,13.99201 22.671577,19.91347 39.548387,14.93606 12.77475,-3.76702 22.14346,-19.31362 28.81894,-47.82118 1.16918,-5.001081 4.28826,-21.876362 6.92884,-37.500039 10.77219,-63.7470759 23.0028,-110.950088 39.5461,-152.64986 4.2669,-10.749291 7.42491,-19.172431 7.01967,-18.716051 -0.40525,0.45485 -3.2992,4.67901 -6.43203,9.386262 -19.46625,29.243262 -32.5043,41.042679 -61.98033,56.09474 -13.98514,7.14101 -26.67594,12.342034 -49.73674,20.383587 C 81.800615,-16.312745 71.79847,-11.395622 63.26238,-4.5476704 55.483358,1.692795 50.418179,7.797416 46.647341,15.478752 c -2.628368,5.351369 -3.782285,7.489016 -3.77618,15.888498 0.0061,7.901893 1.208103,10.299783 3.169457,13.979039 6.723554,12.622118 20.269112,14.276677 30.562789,3.73039 l 3.971552,-4.063896 -1.891143,-3.679257 C 77.576452,39.179089 76.815569,35.416646 76.845333,32.245662 77.012468,15.15364 99.86034,6.335176 113.33263,18.164357 c 8.83525,7.756891 9.17639,20.892624 0.74562,28.809017 -2.90769,2.72987 -10.66152,6.191623 -13.86914,6.191623 -0.795989,0 -4.508826,3.05956 -8.250663,6.800634 -4.386718,4.385955 -9.419081,8.088871 -14.176701,10.429522 -6.74187,3.315987 -8.435351,4.251637 -17.251525,4.2379 C 52.034579,74.618552 50.389178,73.620322 44.955387,70.881294 27.91526,62.297888 17.430789,40.61767 20.630774,20.588958 c 1.398133,-8.756647 6.153464,-21.47568759 11.093483,-29.6797972 5.427686,-9.0161258 11.100351,-15.3580928 19.39833,-21.6886128 12.297007,-9.382449 16.884439,-11.593361 55.619283,-26.801872 36.56972,-14.354521 54.37607,-27.72989 76.62409,-57.557736 5.63909,-7.55999 15.49394,-22.46324 21.90001,-33.11866 11.10799,-18.47947 34.97012,-64.57664 43.66953,-84.36266 l 4.08602,-9.29164 -7.12422,-7.01966 c -3.91736,-3.86013 -7.3669,-7.0189 -7.66607,-7.0189 -0.29764,0 -3.97537,2.4101 -8.17129,5.35824 l -7.62944,5.35671 -8.64217,-8.25067 c -4.75457,-4.5363 -14.04696,-13.5074 -20.65146,-19.93407 l -12.00853,-11.68418 1.94075,-2.80543 c 1.0692,-1.54084 7.77978,-11.05837 14.91392,-21.14905 l 12.97166,-18.34668 -8.17053,-20.15921 c -4.49509,-11.08814 -8.33462,-20.36603 -8.53228,-20.61559 -0.19766,-0.25261 -11.44607,-2.47802 -24.99391,-4.94765 -13.54938,-2.46887 -24.79015,-4.67138 -24.97789,-4.89194 -0.18851,-0.21979 -0.66244,-12.99989 -1.05089,-28.39843 -0.66167,-26.22797 -0.58764,-28.03058 1.18979,-28.56251 1.04325,-0.3129 12.96707,-2.55968 26.49736,-4.99726 13.5303,-2.43605 24.96034,-4.76678 25.39916,-5.17736 0.4373,-0.41212 4.09366,-9.20616 8.12245,-19.54181 l 7.32646,-18.7939 -15.48096,-21.66114 -15.47944,-21.6619 20.30956,-20.31032 20.31109,-20.30956 21.98243,15.08793 c 12.09095,8.29874 22.57084,15.09098 23.2867,15.09098 0.71662,0 9.30842,-3.39001 19.0923,-7.53252 l 17.78803,-7.53251 5.3735,-26.96291 5.37274,-26.96137 h 27.71615 27.71616 l 5.25673,26.93695 5.25903,26.93696 18.72674,7.51725 18.72673,7.51802 22.75172,-15.45197 22.75095,-15.45272 19.8776,20.31414 19.8776,20.31337 -12.07416,18.44131 c -6.64113,10.14334 -13.37537,20.40267 -14.96505,22.79903 l -2.89319,4.35772 7.90342,18.63897 7.90265,18.63898 25.93491,4.49585 c 14.26294,2.47192 26.09365,4.65535 26.28978,4.85225 0.24803,0.24803 0.99289,43.37952 0.99289,57.51882 0,0.007 -11.26443,1.91099 -25.03513,4.23104 -13.76916,2.31852 -25.36558,4.59811 -25.77235,5.06594 -0.40601,0.46706 -4.48898,9.57553 -9.07336,20.24011 l -8.33996,19.39299 14.60103,21.60008 14.60179,21.59932 -19.45404,20.23248 -19.45328,20.23248 -4.83318,-2.82832 -4.83012,-2.8329 -2.73369,3.63576 c -1.50345,1.99951 -4.82096,5.90009 -7.37377,8.66888 l -4.64162,5.03389 16.83254,23.85297 c 63.00604,89.2859 101.10821,131.95108 135.77763,152.037792 10.84622,6.283967 24.1239,11.891762 35.20365,14.869663 12.44964,3.344987 35.08306,3.322855 46.92979,-0.04655 10.30284,-2.93211 20.1989,-7.34554 30.87111,-13.76993 8.0614,-4.850727 8.16519,-4.972072 7.08912,-8.060633 -4.21348,-12.083318 7.00745,-25.44724 21.3635,-25.44724 16.84323,0 27.29183,17.35837 18.32302,30.44755 -4.21653,6.154226 -8.90852,8.520063 -17.77888,8.968808 l -7.93471,0.399903 -7.1349,7.132615 c -17.7102,17.707902 -51.61873,26.706475 -89.28056,23.700337 -25.45487,-2.03233 -52.92299,-7.901893 -64.6232,-13.808089 -21.32076,-10.763029 -50.10459,-41.269342 -79.36006,-84.115396 -4.75839,-6.96396 -8.65057,-12.33211 -8.65057,-11.9284 0,1.24398 10.35015,21.44135 20.00887,39.047748 22.93182,41.801274 40.8931,64.755228 57.05634,72.912784 7.93471,4.004368 22.48307,7.572965 45.67819,11.1980367 54.86832,8.5788275 75.14354,15.0108493 89.42556,28.3724823 4.7767,4.467614 7.7027,8.336901 9.86935,13.058652 2.7604,6.004645 3.07864,7.830155 3.04048,17.40645 -0.0359,9.062679 -0.48843,11.836049 -2.97637,18.182596 -11.12859,28.398426 -35.02735,43.274201 -60.80505,37.844221 -17.67585,-3.72047 -32.11203,-17.6209 -36.0935,-34.756423 -1.17758,-5.070521 -1.57443,-5.558189 -5.49637,-6.733475 -5.24376,-1.572137 -11.5262,-6.969296 -13.44024,-11.546044 -3.24272,-7.762996 -1.15545,-15.627493 5.81538,-21.917565 4.90796,-4.427167 9.27713,-5.631454 17.85672,-4.920176 16.4334,1.362263 24.36887,19.373146 13.91722,31.586966 l -3.71818,4.340928 4.2173,6.258782 c 6.25878,9.288578 10.3097,11.607097 20.28742,11.607097 9.71062,0 15.61681,-2.561971 23.06004,-10.006724 6.71363,-6.712869 9.5969,-13.035757 9.62132,-21.090285 0.0214,-7.688205 -3.16412,-13.463134 -10.2746,-18.613026 C 654.75044,25.869352 645.80071,23.89655 603.60487,19.456409 565.98121,15.497068 554.81523,12.796962 535.14521,2.9054769 519.93822,-4.7415164 507.58474,-18.190151 487.34539,-49.123078 c -5.82301,-8.903939 -15.12838,-24.162056 -20.67588,-33.910828 -5.54903,-9.748772 -10.22957,-17.581214 -10.40434,-17.408734 -0.17629,0.17629 0.43196,2.43757 1.34853,5.030831 2.97561,8.424667 7.80421,29.039495 9.62361,41.080839 2.38644,15.809128 2.37576,37.228341 -0.0305,55.6169938 -2.8245,21.5802422 -2.64057,48.8308602 0.42509,63.4547802 3.99292,19.038877 10.67221,31.683131 20.81173,39.385076 15.22683,11.56817 37.91062,7.41117 46.35284,-8.495645 2.91455,-5.487218 2.43299,-14.150758 -1.14705,-20.681992 -2.85503,-5.207129 -3.26409,-5.514688 -7.9889,-5.970302 -14.56668,-1.405765 -23.70339,-14.156096 -18.84427,-26.299704 6.02754,-15.065035 27.65434,-18.21236 38.28992,-5.574979 4.37527,5.200261 5.09189,14.077489 1.77285,21.989303 -1.22795,2.931348 -1.09973,3.68231 1.29129,7.489017 8.36895,13.323474 11.58191,30.838297 7.76376,42.331682 -5.07205,15.27109 -29.16084,28.74796 -51.38826,28.74796 -32.62335,0 -60.31585,-29.84769 -69.46782,-74.871849 -2.94126,-14.474339 -3.19693,-36.888729 -0.62427,-54.861453 5.20713,-36.379693 0.7708,-70.732398 -14.44229,-111.858258 -4.21271,-11.38883 -18.38102,-41.16784 -21.18415,-44.52656 -1.73469,-2.0827 -1.76827,-2.05141 -1.20124,1.06844 1.49124,8.20334 4.83776,37.94419 5.89857,52.410134 0.65785,8.97644 1.04325,34.657974 0.87383,58.294968 l -0.30222,42.248493 2.90693,14.486549 c 8.24456,41.087707 22.3167,86.794906 43.12767,140.071246 19.7532,50.57013 20.22256,52.09037 20.25385,65.79849 0.0252,11.18735 -0.15188,12.14742 -3.48923,18.92974 -2.20404,4.48288 -5.38037,8.78717 -8.52006,11.55139 -14.11947,12.4275 -43.3116,19.38077 -66.88677,15.93276 h -0.006 z"
         id="path10"
         inkscape:connector-curvature="0"
         style="stroke:#010202;stroke-width:0.15583992;stroke-miterlimit:10" />
      <g
         transform="matrix(0.76317298,0,0,0.76317298,-142.19142,-963.41804)"
         id="Grupo_patas">
        <path
           id="Ultima_pata"
           stroke-miterlimit="10"
           d="m 777.654,1033.662 c 0.402,-0.431 1.561,0.316 3.37,2.685 1.463,1.916 7.786,11.884 14.052,22.147 49.892,81.734 99.341,139.47 134.828,157.406 16.836,8.509 55.691,16.418 86.625,17.63 53.415,2.09 89.023,-8.804 115.038,-35.202 3.856,-3.912 6.896,-6.005 7.442,-5.122 1.45,2.345 12.104,1.689 18.304,-1.131 17.081,-7.76 22.227,-25.11 11.011,-37.131 -11.517,-12.346 -30.816,-11.968 -42.05,0.828 -5.887,6.705 -7.013,13.404 -3.562,21.202 l 2.698,6.098 -12.095,7.081 c -23.574,13.804 -41.105,20.434 -60.639,22.94 -38.162,4.893 -84.298,-12.327 -125.355,-46.783 -37.614,-31.569 -98.04,-105.908 -161.055,-198.145 l -6.83,-9.996 -7.802,5.276 c -9.097,6.152 -17.165,10.36 -25.846,13.155"
           inkscape:connector-curvature="0"
           style="fill:#13738d;stroke:#010202;stroke-width:0.2044;stroke-miterlimit:10" />
        <path
           stroke-miterlimit="10"
           d="m 725.912,976.562 c -8.701,2.8 -18.021,4.18 -29.608,4.67 -13.991,0.586 -18.901,0.208 -29.223,-2.264 -18.29,-4.372 -35.034,-13.549 -49.212,-26.97 l -11.615,-10.994 -3.588,2.826 c -6.546,5.147 -21.144,11.036 -31.59,12.744 -13.193,2.155 -28.176,0.022 -40.579,-5.779 l -8.836,-4.135 -6.518,14.33 c -37.257,81.905 -77.684,149.041 -109.257,181.443 -20.541,21.08 -42.247,33.884 -87.462,51.584 -14.937,5.848 -32.835,13.424 -39.772,16.836 -29.709,14.615 -47.332,34.198 -57.636,64.049 -8.755,25.357 -4.485,48.56 12.182,66.181 15.235,16.111 35.984,19.721 54.952,9.562 4.027,-2.156 11.548,-8.18 16.713,-13.381 6.57,-6.621 10.439,-9.463 12.874,-9.463 5.394,0 10.943,-2.562 15.898,-7.344 8.831,-8.514 9.362,-19.543 1.381,-28.634 -5.436,-6.192 -11.456,-8.871 -19.934,-8.871 -17.953,0 -29.682,17.265 -21.888,32.214 1.637,3.142 2.978,6.01 2.978,6.368 0,0.358 -2.323,3.222 -5.162,6.364 -14.6,16.16 -34.732,15.632 -45.403,-1.196 -17.545,-27.667 0.689,-65.559 41.455,-86.144 3.853,-1.945 17.831,-7.355 31.06,-12.023 59.919,-21.135 89.378,-37.092 114.111,-61.807 10.9,-10.893 17.386,-19.37 34.476,-45.064 11.575,-17.406 24.719,-38.217 29.209,-46.249 6.931,-12.4 22.438,-38.478 24.045,-40.437 0.273,-0.335 1.1,-0.01 1.836,0.73 0.852,0.851 -3.801,10.009 -12.771,25.133 -24.724,41.696 -38.832,72.664 -54.591,119.85 -15.913,47.638 -28.161,99.684 -40.561,172.338 -9.976,58.442 -17.179,80.464 -31.551,96.449 -5.387,5.992 -8.042,7.697 -15.636,10.045 -18.568,5.735 -34.966,2.728 -47.478,-8.708 -7.774,-7.105 -12.431,-15.162 -13.654,-23.626 -0.914,-6.316 -0.382,-7.063 7.832,-10.988 17.567,-8.396 18.463,-29.434 1.659,-38.953 -6.105,-3.457 -16.02,-4.205 -22.642,-1.709 -6.019,2.268 -12.945,9.717 -14.537,15.632 -2.152,7.991 0.356,15.335 7.255,21.241 4.958,4.243 5.59,5.419 4.809,8.975 -1.414,6.442 2.858,23.748 7.964,32.25 11.601,19.317 31.948,28.909 61.342,28.917 13.467,0.01 17.432,-0.515 24.107,-3.167 16.16,-6.418 28.877,-22.355 37.443,-46.918 6.06,-17.382 8.848,-28.896 19.854,-82.027 17.455,-84.246 22.154,-99.346 48.821,-156.843 16.7,-36.005 69.273,-138.488 73.104,-142.504 0.686,-0.72 1.656,-0.898 2.155,-0.402 0.5,0.5 -2.576,8.656 -6.836,18.129 -27.124,60.321 -48.394,125.705 -57.984,178.253 -3.355,18.371 -3.69,24.118 -4.786,81.736 -1.248,65.656 -2.566,86.891 -6.943,111.861 -9.702,55.326 -30.083,85.864 -64.515,96.65 l -7.759,2.433 -5.398,-3.666 c -14.067,-9.545 -29.288,-7.106 -38.297,6.13 -7.438,10.924 -1.585,25.563 12.587,31.484 10.471,4.373 22.782,0.993 29.775,-8.178 2.116,-2.776 4.418,-4.692 5.113,-4.262 2.344,1.451 17.265,-2.47 27.768,-7.296 35.95,-16.51 62.539,-55.205 75.749,-110.229 8.465,-35.264 11.541,-70.97 10.95,-127.148 -0.351,-33.616 -0.091,-38.692 2.745,-53.515 10.282,-53.718 37.058,-132.194 66.261,-194.202 4.622,-9.82 7.508,-14.368 9.114,-14.368 1.656,0 2.074,0.718 1.415,2.437 -10.116,26.36 -22.531,70.497 -26.69,94.886 -6.83,40.06 -5.913,85.143 2.305,113.134 2.953,10.055 2.178,40.031 -1.479,57.234 -2.952,13.876 -13.494,46.358 -31.617,97.406 -13.222,37.242 -17.608,61.48 -14.081,77.785 5.082,23.484 30.089,36.269 67.935,34.725 23.627,-0.962 36.692,-7.104 45.606,-21.438 3.988,-6.413 4.203,-7.521 4.168,-21.585 -0.026,-12.228 -0.614,-16.302 -3.345,-23.235 -3.883,-9.854 -3.998,-12.062 -1.055,-19.801 7.087,-18.632 -16.125,-35.212 -35.549,-25.399 -8.102,4.094 -12.571,10.794 -12.571,18.846 0,11.747 8.32,20.881 20.589,22.604 6.506,0.915 6.877,1.223 10.712,8.887 12.943,25.883 0.766,42.625 -28.993,39.857 -26.183,-2.433 -37.305,-16.77 -33.165,-42.747 2.268,-14.215 7.732,-30.977 22.433,-68.82 21.336,-54.922 27.629,-77.769 28.947,-105.112 0.63,-13.09 0.194,-19.278 -2.334,-32.937 -6.564,-35.474 -5.178,-79.983 3.729,-119.829 6.743,-30.166 24.865,-78.488 29.436,-78.488 1.046,0 1.903,0.297 1.903,0.663 0,0.365 1.528,9.379 3.396,20.034 6.393,36.443 8.403,63.18 8.401,111.748 0,31.329 -0.726,52.665 -2.403,70.777 -2.687,29.001 -1.98,43.65 3.278,67.923 7.304,33.712 27.384,78.178 61.731,136.7 22.793,38.836 32.919,59.498 35.704,72.859 1.891,9.069 1.891,10.938 -0.014,17.474 -3.906,13.439 -14.96,24.009 -30.212,28.885 -16.924,5.41 -36.56,4.093 -79.628,-5.345 -2.917,-0.642 -3.153,-1.256 -2.333,-6.107 3.05,-18.056 -18.565,-32.451 -35.644,-23.736 -6.187,3.156 -12.343,9.923 -13.607,14.959 -2.279,9.091 3.519,20.553 12.566,24.849 5.458,2.591 17.908,3.058 22.072,0.828 2.127,-1.137 3.609,-0.861 6.564,1.223 5.604,3.952 18.066,10.041 26.911,13.147 19.174,6.736 39.69,8.274 61.164,4.58 h 0.004 c 29.729,-5.109 46.478,-14.619 55.991,-31.795 3.915,-7.064 4.104,-8.196 4.046,-24.229 -0.07,-19.33 0.75,-16.466 -19.865,-69.376 -29.142,-74.799 -41.968,-113.164 -53.652,-160.474 -13.113,-53.092 -13.027,-52.256 -13.199,-130.342 -0.136,-62.547 -0.434,-70.951 -3.347,-94.174 -1.755,-14.023 -4.025,-30.277 -5.043,-36.127 -3.404,-19.583 3.054,-14.342 17.881,14.516 21.875,42.572 36.143,89.832 40.247,133.303 1.779,18.826 1.102,35.603 -2.349,58.165 -11.496,75.197 19.536,147.809 69.424,162.441 9.672,2.84 27.888,2.872 38.692,0.069 19.617,-5.084 38.229,-18.195 43.397,-30.565 5.707,-13.657 3.255,-30.231 -7.492,-50.649 l -6.692,-12.708 2.529,-4.161 c 7.939,-13.066 1.396,-28.362 -14.115,-33.013 -16.361,-4.9 -33.785,7.864 -32.026,23.465 1.292,11.47 11.375,20.073 23.812,20.324 5.272,0.105 6.479,0.758 9.626,5.204 4.857,6.863 6.841,13.21 6.805,21.762 -0.102,23.281 -26.17,40.459 -51.538,33.962 -21.849,-5.6 -36.197,-23.299 -44.773,-55.236 -3.432,-12.784 -3.664,-15.652 -3.762,-46.561 -0.071,-22.61 0.554,-37.326 1.995,-46.949 2.792,-18.598 2.52,-54.531 -0.55,-72.88 -6.137,-36.685 -18.225,-72.144 -38.081,-111.709 -7.237,-14.42 -12.61,-26.554 -11.941,-26.968 1.662,-1.025 3.953,2.733 14.527,23.829 30.924,61.695 67.575,123.471 91.49,154.206 14.691,18.881 24.573,27.704 39.672,35.428 24.218,12.388 40.752,16.298 89.887,21.252 52.344,5.277 63.75,7.78 77.748,17.054 12.85,8.509 18.688,21.368 16.051,35.347 -3.427,18.163 -22.951,35.975 -41.89,38.22 -14.455,1.712 -26.59,-5.263 -36.542,-20.997 l -5.197,-8.222 5.643,-5.267 c 5.037,-4.697 5.711,-6.115 6.302,-13.212 0.564,-6.813 0.151,-8.723 -2.894,-13.322 -9.652,-14.584 -33.858,-14.368 -42.977,0.383 -3.767,6.094 -3.831,16.456 -0.14,22.428 2.971,4.811 10.821,9.778 17.768,11.245 3.979,0.843 4.466,1.538 5.269,7.511 2.595,19.275 18.116,36.777 38.815,43.773 7.34,2.48 11.348,2.938 21.799,2.487 11.347,-0.487 13.997,-1.142 23.325,-5.75 16.93,-8.368 30.43,-24.876 37.475,-45.839 4.338,-12.898 3.525,-31.252 -1.827,-41.345 -13.814,-26.053 -39.846,-36.899 -119.43,-49.765 -65.577,-10.599 -76.962,-15.598 -99.979,-43.907 -21.165,-26.026 -40.607,-59.297 -76.007,-130.062 -10.84,-21.667 -21.29,-41.9 -23.223,-44.963 -2.213,-3.506 -2.947,-6.008 -2.429,-6.564"
           id="path14"
           inkscape:connector-curvature="0"
           style="fill:#34aacd;stroke:#010202;stroke-width:0.2044;stroke-miterlimit:10" />
      </g>
      <path
         d="m 317.99578,-188.50746 c -6.65105,-1.56908 -11.34914,-8.4529 -10.12807,-14.83685 0.5968,-3.12977 2.37271,-2.04072 2.37271,1.45461 0,8.76504 9.1161,13.81191 17.30418,9.5763 3.1542,-1.63014 6.44195,-6.51674 6.44195,-9.5763 0,-1.71103 1.93311,-3.40146 2.84358,-2.49176 0.29992,0.29993 -0.0603,2.5574 -0.79676,5.01786 -1.35157,4.50883 -7.31196,9.98765 -9.96017,10.67985 -1.29128,0.33885 -1.58511,0.50598 -3.06337,0.59375 -0.82194,0.0481 -3.04659,0.0481 -5.01557,-0.41822 h 0.002 z"
         id="path16"
         inkscape:connector-curvature="0"
         style="fill:#010202;stroke-width:0.76317298" />
      <path
         stroke-miterlimit="10"
         d="m 381.09416,-234.51763 v -17.07371 l -4.54546,-1.19971 c -17.47895,-4.60727 -29.2776,-22.6586 -26.42105,-40.42451 3.93798,-24.47724 29.9576,-37.72974 52.07664,-26.52102 6.37173,3.22899 13.64172,10.94085 16.58298,17.58732 2.64287,5.97336 3.63347,17.28663 2.03157,23.20199 -3.04277,11.23238 -13.10139,22.06638 -23.47673,25.28468 l -5.01557,1.55916 -0.29687,17.47819 -0.0427,17.32937 5.65129,-0.54262 c 3.24578,-0.38082 9.65262,-2.06133 14.237,-3.73344 24.71535,-9.02147 43.18567,-29.18831 50.09772,-54.70119 2.56121,-9.45876 2.56655,-29.02423 0.0114,-38.50512 -6.1092,-22.63953 -21.98472,-41.84325 -42.91322,-51.91027 -10.73326,-5.1621 -20.4309,-7.24709 -33.69408,-7.24327 -13.88975,0.004 -21.86491,1.93082 -35.29675,8.52311 -8.59409,4.22035 -11.65289,6.48697 -19.82953,14.70711 -16.08081,16.15942 -22.97227,32.71188 -22.93792,55.07972 0.0381,23.23633 8.37429,42.16989 25.58079,58.10036 11.83224,10.95535 31.42441,19.82952 44.19382,20.01574 l 4.01124,0.061 v -17.07294 z"
         id="path18"
         inkscape:connector-curvature="0"
         style="fill:#ffffff;stroke:#010202;stroke-width:0.15583992;stroke-miterlimit:10" />
      <path
         stroke-miterlimit="10"
         d="m 278.41153,-252.72923 v -17.09813 l -3.99598,-1.67058 c -9.04512,-3.77771 -13.56311,-11.3003 -12.91517,-21.49477 0.35258,-5.54292 1.00586,-7.44857 3.69146,-10.78363 1.79422,-2.22771 5.14226,-5.15295 7.43941,-6.50224 8.95584,-5.25139 23.69271,-1.04173 28.15193,8.04156 2.23762,4.55843 3.29538,4.39587 3.31675,-0.50904 0.0542,-11.46057 7.24251,-30.68719 15.47944,-41.39755 l 4.07381,-5.30024 -4.61109,-3.97384 c -5.61008,-4.82936 -13.76611,-8.93294 -22.05264,-11.09043 -17.21413,-4.48441 -34.9518,0.92115 -49.1079,14.96506 -20.91246,20.74609 -25.7464,53.60679 -12.0131,81.65569 2.36965,4.83775 6.06341,9.70451 11.51704,15.17493 10.07007,10.1006 15.12456,12.89533 30.75969,17.01113 0.14729,0.0397 0.26635,-7.62258 0.26635,-17.02792 z"
         id="path20"
         inkscape:connector-curvature="0"
         style="fill:#ffffff;stroke:#010202;stroke-width:0.15583992;stroke-miterlimit:10" />
      <path
         stroke-miterlimit="10"
         d="m 303.17801,-238.80209 c 2.88861,-1.09744 7.63937,-3.52891 10.55927,-5.4025 l 5.31092,-3.40833 -1.99723,-2.83366 c -4.97512,-7.05477 -10.77905,-21.8443 -12.44277,-31.70678 l -0.72043,-4.27225 -2.03386,4.1799 c -2.7604,5.67648 -4.72633,7.66302 -10.21278,10.3181 l -4.67138,2.26052 v 17.15765 17.1569 l 5.47882,-0.72731 c 3.01377,-0.3999 7.8416,-1.62479 10.72944,-2.72224 z"
         id="path22"
         inkscape:connector-curvature="0"
         style="fill:#ffffff;stroke:#010202;stroke-width:0.15583992;stroke-miterlimit:10" />
      <path
         stroke-miterlimit="10"
         d="m 240.47496,-629.51155 c 0.40524,-1.91174 2.11552,-7.80802 3.80136,-13.10291 9.44656,-29.66683 30.49869,-46.82066 60.89892,-49.62609 17.66974,-1.6309 29.9202,1.29816 50.78306,12.14208 16.07547,8.35522 22.68913,10.82638 32.73019,12.22298 20.79647,2.89243 37.18484,-4.58667 42.43471,-19.36704 l 1.8133,-5.10639 h 11.11562 11.11714 l -0.71968,4.49967 c -0.39608,2.4765 -1.92777,8.13237 -3.40451,12.56793 -10.55926,31.72129 -35.07619,49.24679 -68.89315,49.24679 -14.28202,0 -22.13049,-2.22236 -41.62346,-11.79026 -21.98014,-10.78974 -28.78535,-12.92128 -41.25865,-12.92357 -18.67408,-0.003 -29.22724,6.19468 -35.26394,20.70259 l -1.66906,4.01124 h -11.3003 -11.30183 z"
         id="path24"
         inkscape:connector-curvature="0"
         style="stroke:#000000;stroke-width:0.62328339;stroke-miterlimit:10" />
      <path
         stroke-miterlimit="10"
         d="m 262.83135,-634.00663 c 6.23589,-12.74652 18.99156,-19.83869 35.67986,-19.83869 12.07416,0 20.32177,2.46429 39.26449,11.7315 9.41221,4.60422 20.7232,9.50379 25.1351,10.88895 15.0223,4.71336 38.27313,2.69477 52.75586,-4.57751 12.08408,-6.0657 22.65784,-17.47437 29.11734,-31.4122 3.94637,-8.51625 7.55617,-20.56141 6.48163,-21.63519 -0.39609,-0.39532 -4.05627,-0.84483 -8.13466,-1.00052 l -7.41652,-0.28085 -3.26027,6.8304 c -4.85684,10.17767 -11.86277,15.26499 -24.42383,17.73614 -15.12532,2.97561 -32.83628,-0.76699 -50.46481,-10.66229 -23.97661,-13.45932 -43.0048,-16.77073 -64.53925,-11.22933 -15.59468,4.012 -30.17968,14.63003 -38.05639,27.70318 -3.78228,6.2771 -10.02962,22.01296 -11.15835,28.10156 l -0.64335,3.47701 h 8.40406 8.40482 z"
         id="path26"
         inkscape:connector-curvature="0"
         style="fill:#15738d;stroke:#000000;stroke-width:0.62328339;stroke-miterlimit:10" />
      <path
         stroke-miterlimit="10"
         d="m 400.31162,-493.76673 13.02889,-4.89041 -0.0214,-0.0435 c -1.33632,-2.73064 -2.06515,-5.75433 -2.06515,-8.99934 0,-2.21931 0.23964,-4.00284 0.8891,-6.00617 l 0.11142,-0.35488 -14.81929,-4.65535 -0.30222,-0.0954 c -1.78048,1.64617 -4.14403,2.67111 -6.74492,2.73063 l -0.0214,0.17782 -1.27755,10.92406 h 7.6e-4 c 5.30406,1.72248 9.49769,5.91001 11.2217,11.21254"
         id="path28"
         inkscape:connector-curvature="0"
         style="fill:#15738d;stroke:#010202;stroke-width:0.15599255;stroke-miterlimit:10" />
      <g
         transform="matrix(0.76317298,0,0,0.76317298,-142.19142,-963.41804)"
         id="Grupo_cabeza">
        <path
           d="m 777.533,810.243 -8.983,-9.186 c -15.353,-15.702 -30.402,-24.315 -52.043,-29.785 -16.778,-4.246 -41.981,-3.312 -58.165,2.15 -13.74,4.636 -27.431,12.571 -37.375,21.658 l -7.496,6.85 -5.584,-4.826 c -18.911,-16.348 -45.139,-21.99 -68.675,-14.776 -36.248,11.11 -60.708,50.471 -57.683,92.817 1.023,14.297 3.662,23.895 10.328,37.539 2.742,5.612 4.743,10.395 4.447,10.625 -0.298,0.229 -4.269,3.05 -8.827,6.264 h -10e-4 c -4.557,3.213 -8.657,5.823 -9.11,5.799 -1.542,-0.074 -49.175,-45.868 -49.175,-47.277 0,-0.355 8.299,-12.4 18.445,-26.767 10.143,-14.368 18.453,-26.81 18.453,-27.649 0.012,-1.893 -21.353,-55.571 -22.645,-56.894 -0.515,-0.528 -14.184,-3.297 -30.371,-6.152 -16.187,-2.856 -30.755,-5.684 -32.371,-6.282 -2.856,-1.059 -2.945,-1.996 -3.241,-34.724 l -0.307,-33.636 7.449,-1.492 c 4.097,-0.821 19.746,-3.766 34.777,-6.542 15.03,-2.778 27.396,-5.155 27.478,-5.282 1.378,-2.171 20.175,-52.193 20.175,-53.692 0,-1.157 -8.516,-13.996 -18.921,-28.531 -10.406,-14.535 -18.921,-26.953 -18.921,-27.595 0,-1.447 46.583,-48.087 48.029,-48.087 0.576,0 13.727,8.67 29.222,19.271 15.497,10.599 28.895,19.062 29.772,18.803 0.879,-0.255 12.716,-5.212 26.306,-11.015 l 24.71,-10.549 6.882,-34.533 6.881,-34.534 33.196,-0.375 33.195,-0.375 0.757,3.178 c 0.417,1.749 3.58,17.314 7.033,34.589 3.452,17.276 6.475,31.607 6.715,31.85 0.241,0.24 12.046,5.17 26.234,10.956 l 25.796,10.52 29.289,-19.773 29.29,-19.772 23.668,23.639 c 13.02,13.003 23.67,24.165 23.67,24.807 0,0.642 -8.102,13.579 -18.003,28.747 -9.904,15.169 -18.438,28.345 -18.972,29.28 -0.532,0.936 2.28,8.819 6.247,17.519 3.967,8.701 9.145,20.343 11.506,25.872 l 4.289,10.052 11.321,2.067 c 6.227,1.136 21.173,3.796 33.217,5.91 l 21.896,3.842 1.023,34.231 c 0.563,18.829 0.778,34.478 0.479,34.776 -0.3,0.302 -10.299,2.178 -22.219,4.173 -11.92,1.997 -26.659,4.707 -32.755,6.024 l -11.081,2.394 -3.808,9.111 c -2.097,5.01 -7.467,17.492 -11.935,27.736 l -8.121,18.628 18.457,27.178 c 10.153,14.948 18.437,27.692 18.41,28.324 -0.029,0.63 -10.349,11.854 -22.934,24.945 l -22.884,23.798 -5.095,-2.744 c -2.805,-1.508 -5.098,-2.829 -5.098,-2.93 0,-0.102 2.207,-4.96 4.903,-10.795 6.828,-14.777 9.421,-27.021 9.421,-44.443 0,-18.485 -2.774,-30.557 -10.849,-47.197 l -6.147,-12.669 -0.088,-0.191 c 22.915,-38.899 22.778,-101.242 7.991,-155.164 v 0 c 5.35,-3.014 8.962,-8.748 8.962,-15.326 0,-9.709 -7.869,-17.578 -17.579,-17.578 -2.124,0 -4.16,0.376 -6.045,1.065 l -0.183,-0.277 -6.148,-8.471 -0.174,-0.238 c 6.848,-4.894 11.311,-12.911 11.311,-21.969 0,-14.903 -12.079,-26.98 -26.981,-26.98 -10.126,0 -18.948,5.577 -23.563,13.826 l -0.235,-0.07 -18.023,-5.408 -0.567,-0.17 c 0.797,-1.723 1.242,-3.643 1.242,-5.667 0,-7.45 -6.041,-13.49 -13.49,-13.49 -7.45,0 -13.49,6.041 -13.49,13.49 0,5.985 3.648,10.975 9.043,12.74 l 0.248,0.083 -1.833,14.225 h 0.001 c -0.798,-0.083 -1.606,-0.126 -2.426,-0.126 -12.644,0 -22.893,10.249 -22.893,22.894 0,12.644 10.25,22.893 22.893,22.893 12.643,0 22.894,-10.249 22.894,-22.893 0,-0.631 -0.026,-1.256 -0.077,-1.875 l 18.721,-7.239 10e-4,10e-4 c 4.923,6.529 12.746,10.748 21.554,10.748 3.631,0 7.095,-0.717 10.257,-2.018 l 0.136,0.188 6.378,8.754 0.1,0.138 c -3.809,3.224 -6.229,8.042 -6.229,13.424 0,9.711 7.87,17.579 17.579,17.579 1.051,0 2.081,-0.092 3.083,-0.268 v -0.001 c 15.689,45.465 15.414,108.284 -5.628,148.646 l -0.313,-0.318"
           id="path31"
           inkscape:connector-curvature="0"
           style="fill:#34aacd" />
        <path
           d="m 710.542,630.463 c 32.224,42.789 47.673,98.003 36.615,153.208"
           id="path33"
           inkscape:connector-curvature="0"
           style="fill:none" />
        <path
           d="m 564.208,551.106 c 45.172,2.36 86.506,20.922 118.606,49.348"
           id="path35"
           inkscape:connector-curvature="0"
           style="fill:none" />
      </g>
      <g
         transform="matrix(0.76317298,0,0,0.76317298,-142.19142,-963.41804)"
         id="Cabeza_color">
        <path
           d="m 564.429,551.362 c -0.133,-0.173 -0.201,-0.262 -0.201,-0.262 45.172,2.359 86.506,20.922 118.605,49.348 v 10e-4 c 1.991,-0.565 4.091,-0.868 6.262,-0.868 0.821,0 1.629,0.043 2.426,0.127 l 1.834,-14.225 -0.249,-0.084 c -5.394,-1.766 -9.044,-6.756 -9.044,-12.74 0,-7.45 6.04,-13.49 13.491,-13.49 7.45,0 13.49,6.041 13.49,13.49 0,2.023 -0.445,3.944 -1.245,5.667 l 0.569,0.169 18.023,5.407 0.234,0.069 c 4.617,-8.249 13.44,-13.825 23.564,-13.825 14.902,0 26.982,12.078 26.982,26.979 0,9.06 -4.463,17.075 -11.311,21.969 l 0.174,0.24 6.149,8.47 0.182,0.277 c 1.886,-0.69 3.922,-1.066 6.046,-1.066 9.71,0 17.579,7.869 17.579,17.579 0,6.579 -3.614,12.312 -8.963,15.327 14.787,53.922 14.924,116.265 -7.99,155.164 l 0.088,0.191 6.147,12.669 c 8.074,16.642 10.849,28.712 10.849,47.199 0,17.421 -2.595,29.666 -9.422,44.44 -2.695,5.838 -4.902,10.695 -4.902,10.796 0,0.102 2.292,1.421 5.097,2.931 l 5.095,2.744 22.885,-23.8 c 12.586,-13.087 22.905,-24.314 22.934,-24.944 0.026,-0.63 -8.256,-13.376 -18.409,-28.323 l -18.458,-27.178 8.122,-18.627 c 4.468,-10.246 9.838,-22.726 11.933,-27.738 l 3.809,-9.108 11.082,-2.396 c 6.095,-1.315 20.834,-4.027 32.755,-6.023 11.92,-1.996 21.917,-3.874 22.22,-4.174 0.298,-0.298 0.083,-15.948 -0.479,-34.776 l -1.024,-34.23 -21.896,-3.843 c -12.043,-2.114 -26.989,-4.772 -33.216,-5.909 l -11.32,-2.067 -4.291,-10.052 c -2.36,-5.53 -7.537,-17.171 -11.504,-25.872 -3.967,-8.701 -6.78,-16.584 -6.248,-17.52 0.534,-0.935 9.069,-14.111 18.972,-29.28 9.901,-15.168 18.003,-28.104 18.003,-28.747 0,-0.642 -10.651,-11.804 -23.67,-24.806 l -23.669,-23.639 -29.29,19.772 -29.289,19.771 -25.794,-10.519 c -14.189,-5.787 -25.994,-10.717 -26.235,-10.958 -0.241,-0.242 -3.263,-14.574 -6.715,-31.849 -3.454,-17.275 -6.617,-32.841 -7.034,-34.589 l -0.757,-3.178 -33.196,0.375 -33.196,0.375 -6.881,34.535 -6.881,34.532 -23.021,9.829"
           id="path38"
           inkscape:connector-curvature="0"
           style="fill:#15738d" />
        <path
           d="m 747.175,783.665 c 11.058,-55.206 -4.392,-110.421 -36.616,-153.208 0.925,-2.486 1.431,-5.175 1.431,-7.982 0,-0.631 -0.026,-1.255 -0.077,-1.874 l 18.721,-7.24 v 10e-4 c 4.926,6.529 12.747,10.749 21.555,10.749 3.631,0 7.095,-0.717 10.258,-2.017 l 0.137,0.187 6.376,8.754 0.101,0.138 c -3.809,3.225 -6.229,8.042 -6.229,13.425 0,9.71 7.869,17.579 17.579,17.579 1.052,0 2.082,-0.092 3.083,-0.269 v -10e-4 c 15.688,45.465 15.415,108.285 -5.627,148.646 l -0.316,-0.316 -8.982,-9.187 c -6.979,-7.136 -13.894,-12.808 -21.394,-17.385 z"
           id="path40"
           inkscape:connector-curvature="0"
           style="fill:#15738d" />
      </g>
      <path
         stroke-miterlimit="10"
         d="M 306.9229,-205.17058"
         id="path42"
         inkscape:connector-curvature="0"
         style="fill:none;stroke:#010202;stroke-width:0.09387028;stroke-miterlimit:10" />
      <path
         stroke-miterlimit="10"
         d="M 339.45544,-206.00473"
         id="path44"
         inkscape:connector-curvature="0"
         style="fill:none;stroke:#010202;stroke-width:0.09387028;stroke-miterlimit:10" />
      <path
         stroke-miterlimit="10"
         d="M 306.9229,-206.07646"
         id="path46"
         inkscape:connector-curvature="0"
         style="fill:none;stroke:#010202;stroke-width:0.09387028;stroke-miterlimit:10" />
      <path
         stroke-miterlimit="10"
         d="M 338.93343,-193.25592"
         id="path48"
         inkscape:connector-curvature="0"
         style="fill:none;stroke:#010202;stroke-width:0.09387028;stroke-miterlimit:10" />
      <path
         stroke-miterlimit="10"
         d="M 306.40013,-193.32766"
         id="path50"
         inkscape:connector-curvature="0"
         style="fill:none;stroke:#010202;stroke-width:0.09387028;stroke-miterlimit:10" />
    </g>
    <path
       style="fill:none;stroke:#ff00ff;stroke-width:1.03309953;stroke-linecap:butt;stroke-linejoin:miter;stroke-miterlimit:4;stroke-dasharray:none;stroke-opacity:1"
       d="m 322.83358,-725.21004 c -19.56487,0.0387 -39.86423,6.37605 -53.60792,20.81502 -11.33079,11.39506 -17.29609,26.77247 -21.25599,42.06032 -0.67529,2.31956 -1.10617,4.69943 -1.6235,7.05722 h 24.39034 c 3.17596,-8.98209 8.49879,-18.07503 17.66571,-21.93507 6.28655,-2.85477 13.30006,-3.57687 20.13435,-3.59881 5.16929,15.09709 15.50783,45.2913 15.50783,45.2913 0,0 -8.4731,40.07239 -11.53745,55.45083 -12.85738,4.09725 -37.62067,15.95255 -37.62067,15.95255 0,0 -31.94879,-22.52492 -47.15665,-31.56447 -13.77734,14.24137 -29.24691,28.34229 -42.02029,42.66948 10.60284,14.83956 21.20686,29.67831 31.81218,44.51612 -6.03889,12.644 -15.34286,39.52713 -15.34286,39.52713 l -54.94739,10.85034 c 0,0 0.27581,39.38851 0.70737,58.91084 17.06515,4.22725 35.10199,5.9601 51.85896,10.51937 5.79323,13.69804 11.26558,27.52916 16.88468,41.29956 -9.89013,14.69478 -21.79375,29.50423 -30.57521,44.16323 14.3996,13.62268 43.05065,40.794 43.05065,40.794 l 16.32412,-11.06976 15.27986,14.5036 c -32.03581,64.63056 -56.68555,120.64866 -99.67119,160.911853 C 126.87048,-66.531214 74.577488,-65.869701 41.86849,-32.414716 23.2139,-11.696268 11.07715,21.51457 27.231408,47.132817 37.032915,65.228476 61.443261,75.316068 79.967516,64.133882 91.59222,59.419654 97.575604,46.04902 110.40285,44.20241 126.97285,39.21752 128.5975,14.322614 113.28788,6.7307082 98.3983,-3.0585319 74.162865,10.203777 78.607216,28.795496 c 1.71297,5.870051 3.981029,10.602484 -2.4937,14.312485 C 51.301348,63.141682 32.610639,26.247631 52.680938,-0.37563656 76.534548,-29.329708 116.35382,-35.205554 137.33334,-45.094645 c 21.65592,-10.207916 61.05886,5.910778 50.40417,41.6481878 -7.98522,26.7836092 -10.91652,73.7489872 -21.00774,107.2542772 -9.43123,31.31392 -16.76816,37.80495 -36.35168,41.24511 -15.6589,1.84786 -32.807576,-10.61579 -33.506683,-26.65875 6.966013,-4.63067 16.505513,-9.34883 16.477873,-19.335667 3.10689,-18.619517 -21.505685,-30.261763 -35.788979,-19.983762 -12.423048,6.945483 -13.030254,25.606959 -1.83224,34.062979 3.454592,8.3486 1.09112,18.70887 6.569257,26.77245 15.098897,29.87743 58.955082,37.27097 85.243932,18.54979 22.50656,-19.5384 24.37254,-52.28123 31.87944,-79.154601 12.14332,-65.051964 24.82192,-108.854488 35.72812,-127.850396 0,0 17.23431,-16.663627 10.81831,12.135379 -5.50276,24.699849 -7.16244,52.024373 -6.80362,70.831593 -2.37513,50.069793 4.10238,106.094435 -25.70472,149.740075 -7.95936,10.48872 -20.53641,21.01692 -33.70101,20.49257 -12.80099,-10.8248 -36.6756,-5.58395 -39.7332,12.00672 -3.29075,18.34669 19.9546,30.15665 34.89954,21.84111 6.05051,-3.83205 10.43375,-10.1316 18.65446,-9.70842 41.25452,-11.03764 64.74076,-52.69531 74.10581,-91.62846 14.4588,-49.745719 3.67159,-102.382512 12.99276,-152.721218 3.56926,-16.291583 6.9234,-29.66126 10.66137,-40.772102 1.71325,-5.092478 16.04311,-14.374424 17.25464,3.705053 1.03156,15.393958 1.37362,33.033111 5.68997,52.04156544 C 319.69227,54.038583 284.72166,101.59657 276.4991,154.16716 c -2.09691,15.17968 -1.17865,33.46165 12.82832,42.8798 17.40198,11.58301 40.48004,11.95987 60.36297,7.99257 17.38407,-3.80946 30.11878,-21.31324 26.66195,-39.16089 1.82195,-10.53256 -9.04182,-20.18161 -3.17013,-30.0136 4.71861,-18.10731 -18.05493,-32.58983 -33.3999,-23.47154 -15.3795,5.90237 -16.11515,29.51481 -1.44038,36.53639 6.03786,3.27932 15.25385,2.99798 16.21787,11.70615 4.15382,9.29015 0.61862,22.39452 -11.12528,22.41877 -14.35885,2.85925 -35.19491,-3.68459 -33.8094,-21.47063 3.65331,-35.7028 23.31421,-67.593458 32.74165,-102.015938 8.84069,-25.916571 11.55756,-53.9020327 4.90466,-80.662271 -1.58791,-19.723951 -1.99397,-20.522927 -0.99192,-48.417639 4.55191,-39.455692 29.07377,-29.969097 32.4085,0.694558 2.34934,21.602788 -1.07945,52.341995 -2.07034,85.840797 -0.87226,46.902948 24.13483,89.197853 45.89832,129.024373 12.18847,24.1431 30.83689,46.7037 35.17073,73.89334 -1.3507,20.59481 -24.81935,29.92145 -42.82267,28.24541 -13.59158,-0.27496 -26.9085,-3.23207 -40.03165,-6.49773 4.18547,-18.30225 -18.39737,-31.83293 -33.64441,-23.07702 -13.26693,5.88661 -16.91784,25.91201 -4.57685,34.6609 7.4387,6.59663 18.03968,4.59752 26.76926,4.90361 25.60668,15.17583 57.13519,20.31978 85.65659,10.69178 19.47764,-4.70857 38.93755,-21.31286 36.84551,-43.03037 0.40637,-27.41885 -16.14275,-51.5148 -23.80631,-77.02875 -19.15818,-51.667112 -38.16508,-104.488189 -44.64211,-159.317176 -0.96074,-18.796971 0.37243,-44.202258 0.0369,-56.209987 -0.86282,-30.874292 22.35175,-33.948717 29.76213,5.905667 2.75678,14.826585 2.85073,45.9421 -0.61075,68.8690878 -4.30657,41.5256492 5.79242,89.4724002 41.31132,115.2286882 26.03875,18.83619 67.29596,10.8298 84.69884,-15.93761 8.16884,-17.434964 -0.12145,-37.104247 -8.50399,-52.617054 5.67247,-11.259649 3.32816,-27.712258 -9.9508,-32.261689 -15.58004,-7.69482 -37.79519,7.041837 -32.32575,24.819573 3.05212,11.078807 14.99242,15.247092 25.10038,16.568067 10.63861,10.979394 7.32884,30.910289 -7.14959,37.104953 -19.44616,10.96068 -43.47731,-2.759289 -50.37105,-22.586916 -18.99333,-49.608996 -1.20647,-85.1726693 -6.15126,-128.310592 5.70244,-21.486044 12.84194,-16.349722 25.34065,-0.153208 8.18461,10.606065 18.17363,28.240024 33.28189,38.284263 39.60684,28.550157 91.61511,18.4435956 135.75969,32.617798 13.96291,4.627989 22.96279,20.761799 15.84576,34.48846 -7.19739,16.403324 -29.67356,27.210294 -45.29291,16.064107 -4.6755,-5.526324 -14.26377,-13.17719 -5.6686,-18.955535 C 652.6983,40.152783 642.307,20.236536 626.7946,20.113725 609.82839,15.768314 592.55655,37.18657 603.74533,51.895481 c 3.57753,6.821523 12.54407,7.238587 16.77045,12.44021 4.78283,30.293166 40.65532,49.326369 68.51513,36.736059 26.62154,-11.583284 44.09709,-44.83567 33.89744,-72.868311 -13.41467,-28.01755056 -47.82616,-33.9073094 -75.1869,-39.416605 -27.64143,-6.754144 -59.0571,-4.900127 -83.251,-21.368643 -10.43642,-16.148297 -7.38365,-23.479984 18.71852,-10.425386 31.11019,12.079044 65.43292,16.488962 98.68727,14.069047 25.35499,-2.380717 51.46225,-11.437977 68.1724,-31.614663 12.10706,1.476205 27.08489,-3.279844 29.79842,-16.680738 4.33242,-17.747259 -17.8464,-31.652931 -32.96693,-23.129341 -10.42364,4.39431 -15.4655,16.886399 -11.79691,27.209173 -30.74819,24.468111 -75.23339,29.000321 -110.16332,10.863169 -51.38618,-24.621046 -85.10075,-73.327772 -119.4297,-116.834022 -17.54654,-23.39158 -51.17293,-71.23785 -51.17293,-71.23785 9.77562,-10.2823 14.55327,-17.95832 14.55327,-17.95832 l 9.98336,5.84854 c 0,0 28.51828,-29.24138 40.19497,-41.80407 -8.67065,-12.82633 -20.89426,-31.86343 -29.56513,-44.68962 6.85351,-12.95415 17.38544,-40.88475 17.38544,-40.88475 0,0 36.75503,-5.64402 53.02174,-9.60911 -0.715,-19.76533 -1.62028,-60.01596 -1.62028,-60.01596 l -53.52036,-9.55251 -16.7005,-38.01894 c 0,0 22.58634,-32.40526 31.30127,-47.49619 -13.94681,-13.7854 -27.72603,-29.22617 -41.76991,-42.04004 -15.58906,10.58828 -31.17844,21.17604 -46.768,31.7636 -12.23567,-6.40392 -38.61311,-14.91256 -38.61311,-14.91256 0,0 -6.40444,-38.65863 -10.77456,-55.79518 l 12.72263,-19.75049 c 19.99559,0.23597 40.65022,-6.6609 54.45517,-21.56616 12.31075,-13.03942 19.04139,-30.5092 21.63022,-48.0482 h -23.99738 c -2.12408,7.46393 -5.73182,14.84421 -12.39914,19.20966 -12.51384,8.48152 -28.77612,7.88638 -42.82322,3.99281 -18.25838,-5.72187 -33.86404,-18.13047 -52.81192,-21.98365 -5.04975,-1.10083 -10.2224,-1.58023 -15.38822,-1.53648 z"
       id="path917"
       inkscape:connector-curvature="0"
       sodipodi:nodetypes="cccccccccccccccccccccccccccccccssscccccccccscccccccccsccccccccccccccsccccccccccccscccccccccccsccccccccccccccccccccccccccccccccccccccccccc" />
  </g>
</svg>
