<?xml version="1.0" encoding="UTF-8" standalone="no"?>
<!-- Created with Inkscape (http://www.inkscape.org/) -->

<svg
   xmlns:dc="http://purl.org/dc/elements/1.1/"
   xmlns:cc="http://creativecommons.org/ns#"
   xmlns:rdf="http://www.w3.org/1999/02/22-rdf-syntax-ns#"
   xmlns:svg="http://www.w3.org/2000/svg"
   xmlns="http://www.w3.org/2000/svg"
   xmlns:xlink="http://www.w3.org/1999/xlink"
   xmlns:sodipodi="http://sodipodi.sourceforge.net/DTD/sodipodi-0.dtd"
   xmlns:inkscape="http://www.inkscape.org/namespaces/inkscape"
   width="65.815773mm"
   height="63.979286mm"
   viewBox="0 0 65.815773 63.979286"
   version="1.1"
   id="svg340"
   sodipodi:docname="calendario.svg"
   inkscape:version="0.92.3 (2405546, 2018-03-11)">
  <defs
     id="defs334">
    <filter
       id="B"
       color-interpolation-filters="sRGB">
      <feGaussianBlur
         id="w"
         stdDeviation="0.24411" />
    </filter>
    <linearGradient
       gradientUnits="userSpaceOnUse"
       xlink:href="#8"
       id="D"
       y2="8.0939999"
       x2="0"
       y1="9.1879997" />
    <linearGradient
       id="8">
      <stop
         id="r" />
      <stop
         stop-opacity="0"
         offset="1"
         id="s" />
    </linearGradient>
    <filter
       id="A"
       color-interpolation-filters="sRGB"
       height="2.7839999"
       width="1.041"
       y="-0.89200002"
       x="-0.021">
      <feGaussianBlur
         id="v"
         stdDeviation="0.40655" />
    </filter>
    <linearGradient
       gradientUnits="userSpaceOnUse"
       xlink:href="#9"
       id="L"
       y2="113.38"
       x2="113.56"
       y1="13.337"
       x1="113.49" />
    <linearGradient
       id="9">
      <stop
         stop-color="#b3925d"
         id="t" />
      <stop
         stop-color="#debc85"
         offset="1"
         id="u" />
    </linearGradient>
    <filter
       id="C"
       color-interpolation-filters="sRGB">
      <feGaussianBlur
         id="x"
         stdDeviation="0.21741" />
    </filter>
    <linearGradient
       gradientTransform="matrix(2.0933798,0,0,2.0962421,-5.7678984,-5.6082034)"
       gradientUnits="userSpaceOnUse"
       xlink:href="#7"
       id="I"
       y2="53.973999"
       x2="9.9680004"
       y1="49.200001"
       x1="9.9650002" />
    <linearGradient
       id="7">
      <stop
         stop-color="#eee"
         id="p" />
      <stop
         stop-color="#acacac"
         offset="1"
         id="q" />
    </linearGradient>
    <radialGradient
       gradientTransform="matrix(1.7591382,-5.4718982e-4,2.9733044e-4,0.9558755,-46.42668,2.8305453)"
       gradientUnits="userSpaceOnUse"
       xlink:href="#3"
       id="J"
       r="52.41"
       cy="-2.1730001"
       cx="61.16" />
    <linearGradient
       id="3">
      <stop
         stop-color="#eee"
         id="g" />
      <stop
         stop-opacity="0"
         stop-color="#eee"
         offset="1"
         id="h" />
    </linearGradient>
    <linearGradient
       gradientUnits="userSpaceOnUse"
       xlink:href="#2"
       id="M"
       y2="60.25"
       x2="107.06"
       y1="16.881001"
       x1="107.03" />
    <linearGradient
       id="2">
      <stop
         stop-color="#ae1010"
         id="e" />
      <stop
         stop-color="#e85752"
         offset="1"
         id="f" />
    </linearGradient>
    <radialGradient
       gradientTransform="matrix(1.1988598,1.9483695,-1.083409,0.6666372,17.239525,2.7461715)"
       gradientUnits="userSpaceOnUse"
       xlink:href="#6"
       id="H"
       r="21.931999"
       cy="9"
       cx="14.934" />
    <linearGradient
       id="6">
      <stop
         stop-color="#eee"
         id="n" />
      <stop
         stop-color="#e4e4e4"
         offset="1"
         id="o" />
    </linearGradient>
    <radialGradient
       inkscape:collect="always"
       xlink:href="#3"
       id="radialGradient565"
       gradientUnits="userSpaceOnUse"
       gradientTransform="matrix(1.3342148,0.0051496,-0.00364139,0.9434512,-20.389952,3.0941053)"
       cx="61.040001"
       cy="2.8"
       r="46.150002" />
    <linearGradient
       gradientTransform="matrix(2.0962418,0,0,2.0962418,-5.9180519,-5.6124707)"
       gradientUnits="userSpaceOnUse"
       xlink:href="#5"
       id="G"
       y2="15.196"
       x2="0"
       y1="5.5310001" />
    <linearGradient
       id="5">
      <stop
         stop-color="#a3a3a3"
         id="l" />
      <stop
         stop-color="#bbb"
         offset="1"
         id="m" />
    </linearGradient>
    <linearGradient
       gradientTransform="matrix(2.0962418,0,0,2.0962418,-5.9180519,-5.6124707)"
       gradientUnits="userSpaceOnUse"
       xlink:href="#4"
       id="F"
       x2="19.059999"
       x1="15.719" />
    <linearGradient
       id="4">
      <stop
         id="i" />
      <stop
         stop-color="#fff"
         offset="0.5"
         id="j" />
      <stop
         offset="1"
         id="k" />
    </linearGradient>
    <linearGradient
       gradientTransform="matrix(2.0962418,0,0,2.0962418,-5.9180519,-5.6124707)"
       gradientUnits="userSpaceOnUse"
       xlink:href="#4"
       id="E"
       x2="48.09"
       x1="44.75" />
  </defs>
  <sodipodi:namedview
     id="base"
     pagecolor="#ffffff"
     bordercolor="#666666"
     borderopacity="1.0"
     inkscape:pageopacity="0.0"
     inkscape:pageshadow="2"
     inkscape:zoom="2.1109523"
     inkscape:cx="79.005311"
     inkscape:cy="87.898721"
     inkscape:document-units="mm"
     inkscape:current-layer="g563"
     inkscape:document-rotation="0"
     showgrid="false"
     inkscape:window-width="1920"
     inkscape:window-height="1053"
     inkscape:window-x="0"
     inkscape:window-y="27"
     inkscape:window-maximized="1"
     fit-margin-top="0"
     fit-margin-left="0"
     fit-margin-right="0"
     fit-margin-bottom="0" />
  <metadata
     id="metadata337">
    <rdf:RDF>
      <cc:Work
         rdf:about="">
        <dc:format>image/svg+xml</dc:format>
        <dc:type
           rdf:resource="http://purl.org/dc/dcmitype/StillImage" />
        <dc:title />
      </cc:Work>
    </rdf:RDF>
  </metadata>
  <g
     inkscape:label="Capa 1"
     inkscape:groupmode="layer"
     id="layer1"
     transform="translate(-21.905259,-20.494068)">
    <g
       id="g563"
       transform="translate(-99.284559,17.598696)">
      <g
         transform="matrix(0.52406613,0,0,0.52406613,122.04387,0.95626927)"
         id="1">
        <rect
           width="49.890999"
           height="47.695999"
           rx="4.0650001"
           x="7.0799999"
           y="10.171"
           transform="matrix(2.0962412,0.00151098,-0.00151098,2.0962412,-5.9180519,-5.6124707)"
           id="N"
           filter="url(#B)" />
        <path
           style="fill:url(#D)"
           inkscape:connector-curvature="0"
           d="M 11.125,8.09375 C 10.040787,8.0929685 9.0716169,8.5008943 8.34375,9.1875 H 55.625 C 54.904285,8.5317698 53.961881,8.0945111 52.90625,8.09375 Z"
           transform="matrix(2.1786606,0,0,9.713347,-8.62135,-65.440687)"
           id="O"
           fill="url(#D)"
           filter="url(#A)" />
        <rect
           width="104.58"
           height="99.980003"
           rx="8.5209999"
           x="8.9110003"
           y="15.712"
           transform="rotate(0.04129904)"
           id="P"
           fill="#8f6b32" />
        <rect
           style="fill:url(#L)"
           width="104.58"
           height="99.980003"
           rx="8.5209999"
           x="8.9090004"
           y="13.407"
           transform="rotate(0.04129902)"
           id="Q"
           fill="url(#L)" />
        <rect
           width="43.888"
           height="43.02"
           rx="3.576"
           x="9.9650002"
           y="10.923"
           transform="matrix(2.0962412,0.00154927,-0.00147363,2.0962414,-5.9180519,-5.6124707)"
           id="R"
           filter="url(#C)" />
        <rect
           style="fill:url(#I)"
           width="91.879997"
           height="90.18"
           rx="7.4860001"
           x="15.09"
           y="17.288"
           transform="matrix(0.9999997,7.4008061e-4,-7.0202909e-4,0.9999998,0,0)"
           id="S"
           fill="url(#I)" />
        <path
           style="stroke:url(#J)"
           inkscape:connector-curvature="0"
           d="m 17.4375,15.65625 c -3.521337,0 -6.28125,2.759913 -6.28125,6.28125 v 82.9375 c 0,3.52187 2.749171,6.25 6.28125,6.25 h 87.53125 c 3.53207,0 6.28125,-2.72813 6.28125,-6.25 V 21.9375 c 0,-3.521335 -2.75992,-6.28125 -6.28125,-6.28125 z"
           transform="rotate(0.04129902)"
           id="T"
           fill="none"
           stroke="url(#J)"
           stroke-width="2.366" />
        <rect
           style="fill:url(#M)"
           width="91.910004"
           height="86.68"
           rx="7.4889998"
           x="15.12"
           y="16.941999"
           transform="rotate(0.04129902)"
           id="U"
           fill="url(#M)" />
        <path
           style="fill:url(#H)"
           inkscape:connector-curvature="0"
           d="m 15.087524,47.89181 -0.03478,48.250128 c -0.003,4.148692 3.332838,7.489342 7.481546,7.492332 l 76.931531,0.0554 c 4.148709,0.003 7.497909,-3.33283 7.500899,-7.481528 l 0.0348,-48.250128 -91.913979,-0.06625 z"
           id="V"
           fill="url(#H)" />
        <path
           inkscape:connector-curvature="0"
           d="m 35.687409,22.705704 c -4.13e-4,2.859481 -2.319691,5.176753 -5.179172,5.174692 -2.859479,-0.0021 -5.175416,-2.322673 -5.171705,-5.182155 4.13e-4,-2.859481 2.319691,-5.176755 5.179172,-5.174694 2.859479,0.0021 5.175415,2.322675 5.171705,5.182157 z"
           id="W"
           fill="#6a0a0a" />
        <path
           style="stroke:url(#radialGradient565)"
           inkscape:connector-curvature="0"
           d="m 22.625,18.34375 c -3.395337,0 -6.09375,2.698412 -6.09375,6.09375 V 96.125 c 0,3.395342 2.698411,6.09375 6.09375,6.09375 h 76.90625 c 3.39534,0 6.09375,-2.69842 6.09375,-6.09375 V 24.4375 c 0,-3.395336 -2.69842,-6.09375 -6.09375,-6.09375 z"
           transform="rotate(0.04129902)"
           id="X"
           fill="none"
           stroke="url(#K)"
           stroke-width="2.731" />
        <path
           inkscape:connector-curvature="0"
           d="m 96.664486,22.749656 c -4.13e-4,2.859483 -2.319691,5.176755 -5.179172,5.174694 -2.859482,-0.0021 -5.175416,-2.322676 -5.171705,-5.182155 4.13e-4,-2.859483 2.31969,-5.176755 5.179169,-5.174694 2.859482,0.0021 5.175416,2.322673 5.171708,5.182155 z"
           id="Y"
           fill="#6a0a0a" />
        <path
           style="fill:url(#G)"
           inkscape:connector-curvature="0"
           d="m 30.504149,5.9823668 c -1.93281,0.026944 -3.498877,1.6701066 -3.4719,3.6029155 V 22.686794 c -0.01869,1.262031 0.679067,2.376348 1.768704,3.013347 1.089635,0.636996 2.446855,0.700933 3.537408,0.06551 1.090553,-0.635426 1.720071,-1.8168 1.703196,-3.078855 V 9.5852843 C 34.056126,8.6393331 33.727427,7.6999359 33.058944,7.0304877 32.390461,6.3610396 31.450118,5.9691636 30.504149,5.9823668 Z m 60.85652,0.065507 c -1.93281,0.026945 -3.498877,1.6045989 -3.4719,3.537408 V 22.686793 c -0.01875,1.262065 0.613538,2.441824 1.703196,3.078855 1.089654,0.637033 2.446834,0.63546 3.537408,0 1.090572,-0.63546 1.785636,-1.816765 1.768704,-3.078855 V 9.5852818 C 94.912648,8.6393348 94.518439,7.7654437 93.849956,7.0959952 93.181471,6.426547 92.306636,6.0346728 91.360669,6.0478738 Z"
           id="Z"
           stroke-width="25.562"
           fill="url(#G)" />
        <path
           style="fill:url(#F)"
           inkscape:connector-curvature="0"
           d="m 30.504149,5.9823668 c -1.93281,0.026944 -3.498877,1.6701066 -3.4719,3.6029155 V 22.686794 c -0.01869,1.262031 0.679067,2.376348 1.768704,3.013347 1.089635,0.636996 2.446855,0.700933 3.537408,0.06551 1.090553,-0.635426 1.720071,-1.8168 1.703196,-3.078855 V 9.5852843 C 34.056126,8.6393331 33.727427,7.6999359 33.058944,7.0304877 32.390461,6.3610396 31.450118,5.9691636 30.504149,5.9823668 Z"
           id="c"
           opacity="0.145"
           stroke-width="25.562"
           fill="url(#F)" />
        <path
           style="fill:url(#E)"
           inkscape:connector-curvature="0"
           d="m 91.360669,6.0478743 c -1.93281,0.026945 -3.498877,1.6045989 -3.4719,3.537408 V 22.686794 c -0.01875,1.262065 0.613538,2.441824 1.703196,3.078855 1.089654,0.637033 2.446834,0.635459 3.537408,0 1.090572,-0.635461 1.785636,-1.816765 1.768704,-3.078855 V 9.5852823 C 94.912648,8.6393348 94.518439,7.7654437 93.849956,7.0959952 93.181471,6.426547 92.306636,6.0346728 91.360669,6.0478743 Z"
           id="d"
           opacity="0.145"
           stroke-width="25.562"
           fill="url(#E)" />
        <flowRoot
           transform="matrix(0.50486631,0,0,0.50486631,-196.79078,-90.517036)"
           style="font-style:normal;font-weight:normal;font-size:40px;font-family:sans-serif;fill:#000000;fill-opacity:1;stroke:none"
           id="flowRoot497"
           xml:space="preserve"><flowRegion
             id="flowRegion499"><rect
               y="606.19232"
               x="277.33652"
               height="98.77739"
               width="218.51358"
               id="rect501" /></flowRegion><flowPara
             id="flowPara503" /></flowRoot>        <text
           id="text507"
           y="42.368298"
           x="20.573179"
           style="font-style:normal;font-weight:normal;font-size:15.68371677px;font-family:sans-serif;fill:#f9f9f9;fill-opacity:1;stroke:#a02c2c;stroke-width:0.39209291;stroke-opacity:1"
           xml:space="preserve"><tspan
             style="font-style:normal;font-variant:normal;font-weight:bold;font-stretch:normal;font-size:15.68371677px;font-family:Geneva;-inkscape-font-specification:'Geneva, Bold';font-variant-ligatures:normal;font-variant-caps:normal;font-variant-numeric:normal;font-feature-settings:normal;text-align:start;writing-mode:lr-tb;text-anchor:start;fill:#f9f9f9;stroke:#a02c2c;stroke-width:0.39209291;stroke-opacity:1"
             y="42.368298"
             x="20.573179"
             id="tspan505"
             sodipodi:role="line">Noviembre</tspan></text>
      </g>
      <flowRoot
         xml:space="preserve"
         id="flowRoot3728"
         style="font-style:normal;font-variant:normal;font-weight:bold;font-stretch:normal;font-size:133.33332825px;font-family:Geneva;-inkscape-font-specification:'Geneva, Bold';font-variant-ligatures:normal;font-variant-caps:normal;font-variant-numeric:normal;font-feature-settings:normal;text-align:start;writing-mode:lr-tb;text-anchor:start;fill:#4d4d4d;fill-opacity:1;stroke:none"
         transform="matrix(0.22089523,0,0,0.22089523,36.103197,-17.705205)"><flowRegion
           id="flowRegion3730"
           style="font-style:normal;font-variant:normal;font-weight:bold;font-stretch:normal;font-size:133.33332825px;font-family:Geneva;-inkscape-font-specification:'Geneva, Bold';font-variant-ligatures:normal;font-variant-caps:normal;font-variant-numeric:normal;font-feature-settings:normal;text-align:start;writing-mode:lr-tb;text-anchor:start;fill:#4d4d4d"><rect
             id="rect3732"
             width="183.26433"
             height="184.40721"
             x="441.46136"
             y="191.01956"
             style="font-style:normal;font-variant:normal;font-weight:bold;font-stretch:normal;font-size:133.33332825px;font-family:Geneva;-inkscape-font-specification:'Geneva, Bold';font-variant-ligatures:normal;font-variant-caps:normal;font-variant-numeric:normal;font-feature-settings:normal;text-align:start;writing-mode:lr-tb;text-anchor:start;fill:#4d4d4d" /></flowRegion><flowPara
           id="flowPara3734"
           style="font-style:normal;font-variant:normal;font-weight:bold;font-stretch:normal;font-size:133.33332825px;font-family:Geneva;-inkscape-font-specification:'Geneva, Bold';font-variant-ligatures:normal;font-variant-caps:normal;font-variant-numeric:normal;font-feature-settings:normal;text-align:start;writing-mode:lr-tb;text-anchor:start;fill:#4d4d4d">10</flowPara></flowRoot>    </g>
  </g>
</svg>
