<?xml version="1.0" encoding="UTF-8" standalone="no"?>
<!-- Created with Inkscape (http://www.inkscape.org/) -->

<svg
   xmlns:dc="http://purl.org/dc/elements/1.1/"
   xmlns:cc="http://creativecommons.org/ns#"
   xmlns:rdf="http://www.w3.org/1999/02/22-rdf-syntax-ns#"
   xmlns:svg="http://www.w3.org/2000/svg"
   xmlns="http://www.w3.org/2000/svg"
   xmlns:xlink="http://www.w3.org/1999/xlink"
   xmlns:sodipodi="http://sodipodi.sourceforge.net/DTD/sodipodi-0.dtd"
   xmlns:inkscape="http://www.inkscape.org/namespaces/inkscape"
   width="660.89612"
   height="855.69531"
   id="svg3274"
   version="1.1"
   inkscape:version="0.92+devel unknown"
   sodipodi:docname="oshwi_estresado.svg"
   inkscape:export-filename="/home/oscar/proyectos/oshwdem/marketing/oshwi_estresado.png"
   inkscape:export-xdpi="94.953804"
   inkscape:export-ydpi="94.953804">
  <defs
     id="defs3276">
    <radialGradient
       r="81.978"
       gradientTransform="matrix(0.78424,-1.1941,0.9398,0.63959,-116.27,472.22)"
       cx="43.063"
       cy="257.51"
       gradientUnits="userSpaceOnUse"
       id="radialGradient3046-657">
      <stop
         offset="0"
         stop-color="#eefbff"
         id="stop3824" />
      <stop
         offset="1"
         stop-color="#99eaff"
         id="stop3826" />
    </radialGradient>
    <radialGradient
       r="81.978"
       gradientTransform="matrix(0.6274,-0.95526,0.75184,0.51168,-55.179,485.53)"
       cx="43.063"
       cy="257.51"
       gradientUnits="userSpaceOnUse"
       id="radialGradient3859">
      <stop
         offset="0"
         stop-color="#fff"
         id="stop3880" />
      <stop
         offset="1"
         stop-color="#dbdee3"
         id="stop3882" />
    </radialGradient>
    <filter
       color-interpolation-filters="sRGB"
       x="-.10367"
       y="-.042216"
       width="1.2073"
       height="1.0844"
       id="filter3892">
      <feGaussianBlur
         stdDeviation="5.4600002"
         id="feGaussianBlur3894" />
    </filter>
    <radialGradient
       inkscape:collect="always"
       xlink:href="#radialGradient3046-657"
       id="radialGradient4319"
       gradientUnits="userSpaceOnUse"
       gradientTransform="matrix(0.78424,-1.1941,0.9398,0.63959,-116.27,472.22)"
       cx="43.063"
       cy="257.51"
       r="81.978" />
    <radialGradient
       inkscape:collect="always"
       xlink:href="#radialGradient3859"
       id="radialGradient4321"
       gradientUnits="userSpaceOnUse"
       gradientTransform="matrix(0.6274,-0.95526,0.75184,0.51168,-55.179,485.53)"
       cx="43.063"
       cy="257.51"
       r="81.978" />
    <radialGradient
       inkscape:collect="always"
       xlink:href="#radialGradient3046-657"
       id="radialGradient4329"
       gradientUnits="userSpaceOnUse"
       gradientTransform="matrix(0.78424,-1.1941,0.9398,0.63959,-116.27,472.22)"
       cx="43.063"
       cy="257.51"
       r="81.978" />
    <radialGradient
       inkscape:collect="always"
       xlink:href="#radialGradient3859"
       id="radialGradient4331"
       gradientUnits="userSpaceOnUse"
       gradientTransform="matrix(0.6274,-0.95526,0.75184,0.51168,-55.179,485.53)"
       cx="43.063"
       cy="257.51"
       r="81.978" />
    <radialGradient
       inkscape:collect="always"
       xlink:href="#radialGradient3046-657"
       id="radialGradient4333"
       gradientUnits="userSpaceOnUse"
       gradientTransform="matrix(0.78424,-1.1941,0.9398,0.63959,-116.27,472.22)"
       cx="43.063"
       cy="257.51"
       r="81.978" />
    <radialGradient
       inkscape:collect="always"
       xlink:href="#radialGradient3859"
       id="radialGradient4335"
       gradientUnits="userSpaceOnUse"
       gradientTransform="matrix(0.6274,-0.95526,0.75184,0.51168,-55.179,485.53)"
       cx="43.063"
       cy="257.51"
       r="81.978" />
    <radialGradient
       inkscape:collect="always"
       xlink:href="#radialGradient3046-657"
       id="radialGradient4343"
       gradientUnits="userSpaceOnUse"
       gradientTransform="matrix(0.78424,-1.1941,0.9398,0.63959,-116.27,472.22)"
       cx="43.063"
       cy="257.51"
       r="81.978" />
    <radialGradient
       inkscape:collect="always"
       xlink:href="#radialGradient3859"
       id="radialGradient4345"
       gradientUnits="userSpaceOnUse"
       gradientTransform="matrix(0.6274,-0.95526,0.75184,0.51168,-55.179,485.53)"
       cx="43.063"
       cy="257.51"
       r="81.978" />
  </defs>
  <sodipodi:namedview
     id="base"
     pagecolor="#ffffff"
     bordercolor="#666666"
     borderopacity="1.0"
     inkscape:pageopacity="0.0"
     inkscape:pageshadow="2"
     inkscape:zoom="0.64"
     inkscape:cx="125.9985"
     inkscape:cy="358.29102"
     inkscape:document-units="px"
     inkscape:current-layer="layer1"
     showgrid="false"
     inkscape:window-width="1680"
     inkscape:window-height="1013"
     inkscape:window-x="0"
     inkscape:window-y="0"
     inkscape:window-maximized="1"
     inkscape:document-rotation="0"
     fit-margin-top="20"
     fit-margin-left="20"
     fit-margin-right="20"
     fit-margin-bottom="20"
     inkscape:snap-global="true"
     inkscape:snap-nodes="false"
     inkscape:snap-object-midpoints="true" />
  <metadata
     id="metadata3279">
    <rdf:RDF>
      <cc:Work
         rdf:about="">
        <dc:format>image/svg+xml</dc:format>
        <dc:type
           rdf:resource="http://purl.org/dc/dcmitype/StillImage" />
        <dc:title></dc:title>
      </cc:Work>
    </rdf:RDF>
  </metadata>
  <g
     inkscape:label="Layer 1"
     inkscape:groupmode="layer"
     id="layer1"
     transform="translate(777.09481,-75.943098)">
    <path
       id="Ultima_pata"
       stroke-miterlimit="10"
       d="m -392.99232,533.57725 c 0.25899,-0.27767 1.00567,0.20359 2.17112,1.72981 0.94253,1.23438 5.01612,7.65625 9.05298,14.26817 32.14284,52.65701 64.00029,89.85334 86.86274,101.40858 10.84656,5.48191 35.87884,10.57728 55.80802,11.3581 34.41254,1.34648 57.35294,-5.67196 74.11306,-22.67883 2.48423,-2.5203 4.44274,-3.86871 4.7945,-3.29984 0.93416,1.51076 7.79799,1.08813 11.79233,-0.72865 11.0044,-4.99937 14.31971,-16.17708 7.09382,-23.92159 -7.41981,-7.95389 -19.85317,-7.71037 -27.09065,0.53344 -3.79269,4.31969 -4.51812,8.63551 -2.29482,13.65936 l 1.73819,3.92862 -7.79219,4.56193 c -15.18751,8.8932 -26.48184,13.16457 -39.06659,14.77906 -24.58581,3.15231 -54.30886,-7.94165 -80.75977,-30.13988 -24.23276,-20.33828 -63.16212,-68.23107 -103.75944,-127.65462 l -4.40022,-6.43991 -5.02643,3.39906 c -5.86072,3.96341 -11.05852,6.67441 -16.65124,8.47508"
       inkscape:connector-curvature="0"
       style="fill:#13738d;stroke:#010202;stroke-width:0.13168439;stroke-miterlimit:10" />
    <path
       stroke-miterlimit="10"
       d="m -426.32703,496.79066 c -5.6056,1.8039 -11.61,2.69296 -19.07491,3.00864 -9.01368,0.37753 -12.17694,0.13401 -18.82687,-1.45857 -11.7833,-2.81666 -22.5706,-8.72893 -31.70476,-17.37539 l -7.48294,-7.08287 -2.31157,1.82065 c -4.21725,3.31595 -13.62199,7.10993 -20.35181,8.2103 -8.49957,1.38836 -18.15234,0.0142 -26.14296,-3.72311 l -5.69258,-2.66397 -4.19921,9.23209 c -24.00277,52.76717 -50.0478,96.01944 -70.38866,116.89438 -13.23351,13.58076 -27.21757,21.82971 -56.34726,33.23291 -9.62314,3.76757 -21.1539,8.6484 -25.62305,10.84657 -19.13998,9.41569 -30.49357,22.03201 -37.13191,41.26347 -5.64039,16.33621 -2.88945,31.28471 7.84824,42.63701 9.81512,10.37949 23.18263,12.70523 35.40274,6.16031 2.59439,-1.389 7.43978,-5.26995 10.76732,-8.62069 4.23272,-4.26557 6.72531,-6.09652 8.29406,-6.09652 3.47508,0 7.05001,-1.65057 10.24226,-4.73137 5.68936,-5.48513 6.03146,-12.59054 0.88971,-18.44741 -3.50214,-3.98918 -7.38051,-5.71513 -12.84245,-5.71513 -11.56619,0 -19.12259,11.12295 -14.10131,20.75383 1.05463,2.02422 1.91857,3.87193 1.91857,4.10257 0,0.23064 -1.49659,2.07577 -3.32561,4.1 -9.40603,10.41105 -22.37604,10.07089 -29.25081,-0.77052 -11.30334,-17.82443 0.44388,-42.23629 26.70732,-55.49815 2.48229,-1.25306 11.48759,-4.73844 20.01035,-7.7458 38.60273,-13.61619 57.58165,-23.89646 73.51585,-39.81906 7.0223,-7.0178 11.2009,-12.4791 22.21111,-29.03242 7.45717,-11.21379 15.92518,-24.62124 18.81785,-29.79585 4.46529,-7.98868 14.45565,-24.78939 15.49096,-26.05148 0.17588,-0.21582 0.70867,-0.006 1.18284,0.47031 0.5489,0.54825 -2.44879,6.44828 -8.2277,16.19189 -15.9284,26.86259 -25.01746,46.81368 -35.17017,77.21319 -10.25193,30.69071 -18.14268,64.22127 -26.13136,111.0285 -6.42703,37.65117 -11.06755,51.83881 -20.32669,62.13712 -3.47057,3.86034 -5.18104,4.95878 -10.07347,6.47148 -11.9624,3.69476 -22.52679,1.75751 -30.58763,-5.61012 -5.00839,-4.57738 -8.00865,-9.76809 -8.79657,-15.22101 -0.58884,-4.06908 -0.2461,-4.55033 5.04576,-7.07901 11.31751,-5.40911 11.89476,-18.96281 1.0688,-25.09541 -3.93313,-2.22717 -10.32086,-2.70906 -14.58707,-1.10102 -3.87773,1.46116 -8.3398,6.26016 -9.36544,10.07089 -1.38642,5.14819 0.22935,9.87955 4.67402,13.68449 3.19419,2.73354 3.60135,3.49118 3.09819,5.78213 -0.91096,4.15025 1.84127,15.29961 5.1308,20.77701 7.47393,12.44495 20.58245,18.62458 39.51949,18.62974 8.6761,0.006 11.23054,-0.33179 15.5309,-2.04034 10.41106,-4.13479 18.60396,-14.40217 24.1226,-30.22685 3.90414,-11.19833 5.70031,-18.61621 12.79091,-52.84577 11.24535,-54.27536 14.27268,-64.00352 31.45285,-101.04587 10.75895,-23.19617 44.62903,-89.22069 47.09715,-91.80799 0.44195,-0.46386 1.06687,-0.57854 1.38835,-0.25899 0.32213,0.32212 -1.65958,5.57661 -4.40408,11.67958 -17.4746,38.86172 -31.17776,80.98526 -37.35611,114.83923 -2.16145,11.83549 -2.37727,15.53799 -3.08337,52.6583 -0.80402,42.29878 -1.65314,55.97939 -4.47302,72.06628 -6.2505,35.64369 -19.38093,55.31775 -41.56369,62.26662 l -4.99872,1.56745 -3.47766,-2.36181 c -9.06264,-6.14935 -18.86875,-4.57803 -24.67278,3.94924 -4.79192,7.03777 -1.02114,16.46893 8.10915,20.28352 6.74593,2.8173 14.67727,0.63974 19.1825,-5.26866 1.36323,-1.78844 2.84629,-3.02282 3.29404,-2.74579 1.51012,0.93481 11.12296,-1.59129 17.8895,-4.70044 23.16073,-10.63654 40.29065,-35.56573 48.80118,-71.01486 5.45356,-22.71878 7.43527,-45.72232 7.05452,-81.91491 -0.22613,-21.65706 -0.0586,-24.92727 1.76846,-34.47696 6.62416,-34.60774 23.87456,-85.16579 42.68855,-125.11435 2.97772,-6.32652 4.83702,-9.25656 5.87168,-9.25656 1.06688,0 1.33617,0.46257 0.91161,1.57003 -6.51721,16.98239 -14.51556,45.41759 -17.19499,61.13016 -4.40022,25.8086 -3.80944,54.85325 1.48499,72.88641 1.90247,6.47792 1.40318,25.78992 -0.95284,36.87292 -1.90182,8.9396 -8.69349,29.86608 -20.3692,62.75367 -8.51826,23.99311 -11.34393,39.6084 -9.07167,50.11287 3.27407,15.12954 19.3848,23.36625 43.76702,22.37153 15.22166,-0.61976 23.63877,-4.57674 29.3816,-13.8114 2.56927,-4.13156 2.70778,-4.84539 2.68523,-13.9061 -0.0168,-7.87787 -0.39557,-10.50254 -2.15501,-14.96911 -2.50162,-6.34843 -2.57571,-7.77093 -0.67968,-12.75677 4.56579,-12.00364 -10.38851,-22.68528 -22.90239,-16.36327 -5.21971,2.63756 -8.09885,6.95402 -8.09885,12.14151 0,7.56799 5.36015,13.45255 13.26443,14.56259 4.19148,0.58949 4.4305,0.78792 6.90119,5.72544 8.33851,16.67508 0.4935,27.46109 -18.6787,25.67781 -16.86835,-1.56745 -24.03369,-10.80404 -21.3665,-27.53969 1.46116,-9.15799 4.98133,-19.95688 14.45243,-44.33718 13.74569,-35.38342 17.79994,-50.10256 18.64906,-67.71825 0.40588,-8.43321 0.12498,-12.41982 -1.50368,-21.21961 -4.22884,-22.85407 -3.33591,-51.52893 2.40241,-77.19966 4.34416,-19.4344 16.01924,-50.56577 18.9641,-50.56577 0.67388,0 1.226,0.19134 1.226,0.42713 0,0.23515 0.98441,6.04241 2.18787,12.90688 4.11868,23.47834 5.41362,40.70362 5.41233,71.99348 0,20.18366 -0.46772,33.92935 -1.54813,45.59798 -1.73109,18.68385 -1.27561,28.12144 2.11185,43.75929 4.70559,21.7189 17.6421,50.36606 39.7701,88.06877 14.68436,25.02003 21.20802,38.3315 23.00225,46.9393 1.21828,5.84269 1.21828,7.04679 -0.009,11.2576 -2.51643,8.65805 -9.63796,15.46776 -19.46403,18.60912 -10.90327,3.48538 -23.55373,2.63691 -51.30022,-3.44351 -1.87928,-0.41361 -2.03132,-0.80918 -1.50304,-3.93443 1.96496,-11.63255 -11.96047,-20.9065 -22.96359,-15.29188 -3.98597,2.03325 -7.95196,6.39288 -8.76629,9.63731 -1.46824,5.85687 2.26711,13.24124 8.09563,16.00894 3.51631,1.66924 11.5372,1.97011 14.21985,0.53343 1.37032,-0.73251 2.32509,-0.55469 4.22885,0.78792 3.61037,2.54607 11.63899,6.4689 17.33737,8.46993 12.35282,4.33966 25.57022,5.33052 39.40482,2.95066 h 0.003 c 19.15287,-3.29146 29.94338,-9.41827 36.07212,-20.48388 2.52223,-4.55097 2.644,-5.28026 2.60663,-15.6095 -0.0451,-12.45332 0.48319,-10.60819 -12.798,-44.69538 -18.77469,-48.18914 -27.03782,-72.90574 -34.56522,-103.38514 -8.44803,-34.20444 -8.39262,-33.66585 -8.50343,-83.97264 -0.0876,-40.29581 -0.27961,-45.71007 -2.1563,-60.67145 -1.13066,-9.0343 -2.5931,-19.50592 -3.24895,-23.27477 -2.19302,-12.61632 1.96754,-9.23981 11.51981,9.35191 14.09294,27.42695 23.28507,57.87413 25.92907,85.88026 1.14612,12.12862 0.70996,22.93718 -1.51334,37.47271 -7.40628,48.44556 12.58604,95.22573 44.72631,104.65238 6.23117,1.82966 17.9668,1.85028 24.92726,0.0444 12.63822,-3.27536 24.62898,-11.7221 27.95845,-19.69146 3.67673,-8.7985 2.09703,-19.47627 -4.82671,-32.63054 l -4.31131,-8.18711 1.62931,-2.68072 c 5.11469,-8.41775 0.89937,-18.27217 -9.09357,-21.26857 -10.54055,-3.15682 -21.76594,5.06637 -20.6327,15.11729 0.83237,7.38953 7.32832,12.932 15.34084,13.09371 3.39648,0.0676 4.17409,0.48834 6.20154,3.35266 3.12911,4.42148 4.4073,8.51053 4.38411,14.02014 -0.0657,14.99875 -16.85998,26.06565 -33.20328,21.87997 -14.07619,-3.60779 -23.31986,-15.01035 -28.84494,-35.58571 -2.21106,-8.23608 -2.36053,-10.08378 -2.42366,-29.99686 -0.0457,-14.56646 0.35691,-24.04722 1.28527,-30.24682 1.79875,-11.98173 1.62351,-35.13152 -0.35433,-46.95283 -3.95376,-23.63426 -11.74143,-46.47867 -24.53363,-71.96836 -4.66243,-9.29006 -8.12397,-17.10737 -7.69297,-17.37409 1.07074,-0.66036 2.54671,1.76073 9.359,15.3518 19.92274,39.74691 43.53509,79.546 58.94229,99.34698 9.46466,12.16406 15.83112,17.84826 25.55863,22.82444 15.60241,7.98095 26.25442,10.49996 57.90957,13.69157 33.72254,3.3997 41.07084,5.01225 50.08903,10.98701 8.27859,5.48191 12.03971,13.7663 10.34083,22.77225 -2.20784,11.70149 -14.78615,23.17684 -26.98757,24.62318 -9.31261,1.10295 -17.13057,-3.39068 -23.54213,-13.52728 l -3.34816,-5.29702 3.6355,-3.39325 c 3.24508,-3.02604 3.6793,-3.93958 4.06005,-8.51181 0.36336,-4.38927 0.0973,-5.61978 -1.86445,-8.58268 -6.21829,-9.39572 -21.81297,-9.25657 -27.68787,0.24674 -2.42689,3.92605 -2.46812,10.60176 -0.0902,14.44921 1.91407,3.09948 6.97142,6.29946 11.44701,7.24457 2.56347,0.54311 2.87721,0.99086 3.39455,4.83895 1.67182,12.41789 11.6712,23.69353 25.0065,28.20069 4.72879,1.59774 7.31093,1.89281 14.04398,1.60225 7.31028,-0.31375 9.01754,-0.73573 15.02709,-3.70443 10.90713,-5.39107 19.60448,-16.02632 24.14321,-29.53171 2.79475,-8.30951 2.27098,-20.13405 -1.17704,-26.63645 -8.89965,-16.78461 -25.67072,-23.77213 -76.9426,-32.06103 -42.24788,-6.82839 -49.58265,-10.04899 -64.41132,-28.28702 -13.63552,-16.76721 -26.161,-38.202 -48.9674,-83.79225 -6.98365,-13.95893 -13.71605,-26.99401 -14.96138,-28.96734 -1.42572,-2.25874 -1.8986,-3.87065 -1.56488,-4.22885"
       id="path14"
       inkscape:connector-curvature="0"
       style="fill:#34aacd;stroke:#010202;stroke-width:0.13168439;stroke-miterlimit:10" />
    <path
       style="fill:#ffffff;stroke:#010202;stroke-width:0.13155554;stroke-miterlimit:10"
       inkscape:connector-curvature="0"
       id="path18"
       d="m -452.25223,482.95865 v -14.41313 l -3.83714,-1.01276 c -14.75523,-3.88933 -24.71531,-19.12774 -22.30389,-34.1252 3.32432,-20.66298 25.28933,-31.85036 43.96159,-22.38828 5.37883,2.72582 11.51594,9.23595 13.99887,14.84671 2.23104,5.04253 3.06727,14.59287 1.71499,19.58644 -2.56862,9.48205 -11.05981,18.6278 -19.81837,21.3446 l -4.234,1.3162 -0.25061,14.75458 -0.0361,14.62895 4.77066,-0.45806 c 2.73999,-0.32148 8.14845,-1.74012 12.01846,-3.15166 20.86398,-7.61567 36.45609,-24.63993 42.29104,-46.17716 2.1621,-7.98482 2.16661,-24.50142 0.01,-32.50492 -5.15721,-19.11163 -18.55887,-35.32285 -36.2261,-43.82113 -9.06071,-4.3577 -17.24717,-6.11779 -28.44357,-6.11457 -11.72532,0.003 -18.45772,1.62995 -29.79649,7.19497 -7.25488,3.56269 -9.83703,5.47611 -16.73951,12.41531 -13.57496,13.64132 -19.39252,27.61443 -19.36353,46.49671 0.0322,19.61543 7.06934,35.59859 21.59456,49.04664 9.98843,9.24818 26.52758,16.7395 37.30715,16.8967 l 3.38617,0.0515 v -14.41248 z"
       stroke-miterlimit="10" />
    <path
       style="fill:#ffffff;stroke:#010202;stroke-width:0.13155554;stroke-miterlimit:10"
       inkscape:connector-curvature="0"
       id="path20"
       d="M -538.93393,467.58495 V 453.1512 l -3.37329,-1.41026 c -7.63563,-3.18903 -11.44958,-9.53939 -10.90262,-18.14526 0.29765,-4.67917 0.84912,-6.28786 3.11623,-9.10323 1.51463,-1.88056 4.34095,-4.34996 6.28014,-5.489 7.56025,-4.43307 20.00069,-0.8794 23.76504,6.78845 1.88893,3.8481 2.78186,3.71087 2.7999,-0.42971 0.0457,-9.67468 6.11392,-25.90524 13.06729,-34.94662 l 3.439,-4.47431 -3.89255,-3.3546 c -4.73587,-4.0768 -11.62095,-7.54093 -18.6162,-9.36222 -14.53167,-3.7856 -29.5053,0.77761 -41.45546,12.63307 -17.6537,17.51325 -21.73437,45.25331 -10.14112,68.93137 2.00039,4.08389 5.11856,8.19227 9.72236,12.81024 8.50086,8.52663 12.76771,10.88587 25.96643,14.3603 0.12434,0.0335 0.22485,-6.43476 0.22485,-14.37447 z"
       stroke-miterlimit="10" />
    <path
       style="fill:#ffffff;stroke:#010202;stroke-width:0.13155554;stroke-miterlimit:10"
       inkscape:connector-curvature="0"
       id="path22"
       d="m -518.02678,479.34184 c 2.43848,-0.92643 6.44893,-2.97901 8.91382,-4.56064 l 4.48333,-2.87721 -1.686,-2.3921 c -4.19986,-5.95543 -9.09937,-18.44032 -10.50383,-26.76595 l -0.60817,-3.6065 -1.71692,3.52855 c -2.33025,4.79192 -3.98983,6.4689 -8.62134,8.71024 l -3.94344,1.90826 v 14.484 14.48335 l 4.62506,-0.61397 c 2.54414,-0.33759 6.61965,-1.3716 9.05749,-2.29803 z"
       stroke-miterlimit="10" />
    <path
       style="fill:#15738d;stroke:#010202;stroke-width:0.13168439;stroke-miterlimit:10"
       inkscape:connector-curvature="0"
       id="path28"
       d="m -436.02941,264.10807 10.99861,-4.12834 -0.018,-0.0367 c -1.12808,-2.30512 -1.74333,-4.85764 -1.74333,-7.59698 0,-1.87348 0.20229,-3.37909 0.75055,-5.07024 l 0.0941,-0.29957 -12.51002,-3.92992 -0.25512,-0.0805 c -1.50303,1.38964 -3.49827,2.25487 -5.69387,2.30512 l -0.018,0.15011 -1.07847,9.22177 h 6.4e-4 c 4.47753,1.45407 8.01767,4.98906 9.47303,9.4653"
       stroke-miterlimit="10" />
    <path
       d="m -393.07027,389.6399 -5.78729,-5.91807 c -9.89115,-10.11599 -19.58644,-15.6649 -33.52862,-19.18894 -10.8092,-2.73548 -27.0462,-2.13375 -37.47272,1.38513 -8.85197,2.98674 -17.67238,8.09885 -24.07879,13.95314 l -4.82928,4.4131 -3.59749,-3.10915 c -12.18338,-10.53217 -29.08073,-14.16702 -44.24376,-9.51941 -23.35272,7.1576 -39.11104,32.51586 -37.16219,59.79721 0.65907,9.21082 2.35924,15.39432 6.6538,24.18445 1.76653,3.61552 3.05567,6.69696 2.86497,6.84514 -0.19198,0.14753 -2.75029,1.96496 -5.68678,4.03557 h -6.4e-4 c -2.93584,2.06997 -5.57726,3.75146 -5.86911,3.736 -0.99343,-0.0477 -31.68092,-29.55039 -31.68092,-30.45814 0,-0.22871 5.34662,-7.98868 11.88317,-17.2446 6.53461,-9.25656 11.88831,-17.2723 11.88831,-17.81283 0.008,-1.21956 -13.75663,-35.80153 -14.589,-36.65387 -0.33179,-0.34016 -9.13802,-2.12409 -19.56648,-3.96342 -10.42845,-1.83997 -19.81386,-3.66191 -20.85496,-4.04717 -1.83998,-0.68226 -1.89732,-1.28592 -2.08801,-22.37088 l -0.19779,-21.66995 4.79901,-0.96121 c 2.63949,-0.52893 12.72133,-2.42624 22.40503,-4.21468 9.68306,-1.78972 17.64983,-3.3211 17.70266,-3.40292 0.88778,-1.39866 12.99771,-33.62526 12.99771,-34.59099 0,-0.74539 -5.48642,-9.0169 -12.18982,-18.38105 -6.70405,-9.36416 -12.18983,-17.36443 -12.18983,-17.77804 0,-0.93223 30.01103,-30.97998 30.94261,-30.97998 0.37109,0 8.8436,5.58564 18.82623,12.41531 9.98392,6.82839 18.61556,12.28067 19.18057,12.11381 0.56629,-0.16429 8.19226,-3.35782 16.9476,-7.0964 l 15.91938,-6.79618 4.43372,-22.24783 4.43307,-22.24848 21.38648,-0.24159 21.38583,-0.24159 0.48769,2.04742 c 0.26866,1.12679 2.30641,11.15452 4.531,22.28391 2.22395,11.13004 4.17151,20.36276 4.32613,20.51931 0.15527,0.15462 7.76062,3.33077 16.90122,7.05839 l 16.61903,6.77749 18.8694,-12.73872 18.87004,-12.73808 15.24807,15.22939 c 8.38812,8.37716 15.24936,15.56826 15.24936,15.98187 0,0.41361 -5.2197,8.74825 -11.5984,18.52021 -6.38064,9.77261 -11.87866,18.26123 -12.22269,18.8636 -0.34274,0.60302 1.46889,5.68163 4.02462,11.28659 2.55574,5.60561 5.89166,13.10595 7.41273,16.668 l 2.76318,6.47598 7.29354,1.33166 c 4.01173,0.73187 13.64067,2.44557 21.4,3.80751 l 14.10646,2.47521 0.65907,22.05327 c 0.36271,12.13055 0.50123,22.2124 0.3086,22.40438 -0.19328,0.19457 -6.63512,1.40318 -14.31456,2.68845 -7.67944,1.28657 -17.17502,3.03248 -21.10236,3.88095 l -7.13892,1.54234 -2.4533,5.86974 c -1.35099,3.22769 -4.8106,11.2692 -7.6891,17.86888 l -5.23195,12.00106 11.8909,17.50939 c 6.54105,9.63022 11.87801,17.84053 11.86061,18.24769 -0.0187,0.40588 -6.66732,7.63692 -14.77519,16.07078 l -14.74298,15.33183 -3.28245,-1.76782 c -1.80712,-0.97153 -3.28438,-1.82258 -3.28438,-1.88765 0,-0.0657 1.42186,-3.19547 3.15875,-6.95466 4.39893,-9.52006 6.06947,-17.40824 6.06947,-28.63234 0,-11.90893 -1.78715,-19.6863 -6.98946,-30.40659 l -3.96019,-8.16199 -0.0567,-0.12305 c 14.76296,-25.06062 14.6747,-65.22501 5.14819,-99.96418 v 0 c 3.44673,-1.94176 5.77376,-5.63588 5.77376,-9.87375 0,-6.25501 -5.06959,-11.3246 -11.32525,-11.3246 -1.36838,0 -2.68007,0.24224 -3.89448,0.68613 l -0.1179,-0.17846 -3.96083,-5.45743 -0.1121,-0.15333 c 4.41181,-3.15295 7.28709,-8.31789 7.28709,-14.1535 0,-9.60123 -7.78188,-17.38182 -17.38247,-17.38182 -6.52366,0 -12.20722,3.59297 -15.18043,8.90738 l -0.15139,-0.0451 -11.6113,-3.4841 -0.36528,-0.10952 c 0.51346,-1.11004 0.80015,-2.347 0.80015,-3.65095 0,-4.79966 -3.8919,-8.69092 -8.69091,-8.69092 -4.79965,0 -8.69091,3.89191 -8.69091,8.69092 0,3.85582 2.35022,7.07062 5.82594,8.20772 l 0.15977,0.0535 -1.18091,9.16444 h 6.5e-4 c -0.51411,-0.0535 -1.03467,-0.0812 -1.56295,-0.0812 -8.14588,0 -14.74878,6.60291 -14.74878,14.74943 0,8.14588 6.60355,14.74878 14.74878,14.74878 8.14523,0 14.74943,-6.6029 14.74943,-14.74878 0,-0.40652 -0.0168,-0.80918 -0.0496,-1.20797 l 12.06098,-4.66371 6.4e-4,6.4e-4 c 3.17163,4.2063 8.21159,6.92439 13.88613,6.92439 2.33927,0 4.57094,-0.46193 6.60806,-1.3001 l 0.0876,0.12112 4.10901,5.63975 0.0644,0.0889 c -2.45394,2.07706 -4.01303,5.18105 -4.01303,8.64839 0,6.2563 5.07024,11.32525 11.32525,11.32525 0.6771,0 1.34068,-0.0593 1.98622,-0.17266 v -6.5e-4 c 10.10761,29.29076 9.93044,69.76181 -3.62583,95.76497 l -0.20165,-0.20487"
       id="path31"
       inkscape:connector-curvature="0"
       style="fill:#34aacd;stroke-width:0.64424849" />
    <path
       d="m -436.22913,273.8169 c 20.76027,27.56675 30.71326,63.13829 23.58916,98.70402"
       id="path33"
       inkscape:connector-curvature="0"
       style="fill:none;stroke-width:0.64424849" />
    <path
       d="m -530.50459,222.69127 c 29.102,1.52043 55.73136,13.47897 76.41174,31.79237"
       id="path35"
       inkscape:connector-curvature="0"
       style="fill:none;stroke-width:0.64424849" />
    <path
       d="m -530.36221,222.8562 c -0.0857,-0.11146 -0.12949,-0.1688 -0.12949,-0.1688 29.10199,1.51979 55.73136,13.47897 76.41109,31.79238 v 6.4e-4 c 1.2827,-0.364 2.63562,-0.5592 4.03429,-0.5592 0.52893,0 1.04948,0.0277 1.56294,0.0818 l 1.18156,-9.16444 -0.16042,-0.0541 c -3.47508,-1.13774 -5.82659,-4.35254 -5.82659,-8.20772 0,-4.79965 3.89127,-8.69091 8.69156,-8.69091 4.79965,0 8.69091,3.8919 8.69091,8.69091 0,1.30331 -0.28669,2.54091 -0.80209,3.65095 l 0.36658,0.10888 11.61129,3.48345 0.15076,0.0445 c 2.97449,-5.31441 8.6587,-8.90674 15.18107,-8.90674 9.60059,0 17.38311,7.78123 17.38311,17.38118 0,5.83689 -2.87528,11.00054 -7.28709,14.1535 l 0.1121,0.15462 3.96148,5.45678 0.11725,0.17846 c 1.21506,-0.44453 2.52675,-0.68677 3.89513,-0.68677 6.25565,0 11.32524,5.06959 11.32524,11.32524 0,4.23852 -2.32831,7.93199 -5.7744,9.8744 9.52651,34.73917 9.61477,74.90355 -5.14754,99.96418 l 0.0567,0.12305 3.9602,8.16198 c 5.20166,10.72159 6.98945,18.49767 6.98945,30.40789 0,11.22345 -1.67182,19.11227 -6.07011,28.6304 -1.73625,3.76112 -3.1581,6.89024 -3.1581,6.95531 0,0.0657 1.47661,0.91548 3.28373,1.88829 l 3.28245,1.76782 14.74362,-15.33312 c 8.10851,-8.43128 14.75652,-15.66425 14.7752,-16.07013 0.0168,-0.40588 -5.31892,-8.61747 -11.85997,-18.24705 l -11.89154,-17.50939 5.23259,-12.00041 c 2.8785,-6.60097 6.33811,-14.6412 7.68781,-17.87017 l 2.45395,-5.86781 7.13956,-1.54362 c 3.92669,-0.84719 13.42227,-2.59439 21.10236,-3.88031 7.67944,-1.28592 14.11999,-2.49582 14.3152,-2.6891 0.19198,-0.19198 0.0535,-10.27447 -0.3086,-22.40438 l -0.65971,-22.05263 -14.10646,-2.47585 c -7.75869,-1.36194 -17.38763,-3.07435 -21.39936,-3.80686 l -7.29289,-1.33166 -2.76447,-6.47599 c -1.52043,-3.56269 -4.85571,-11.06239 -7.41144,-16.668 -2.55573,-5.6056 -4.368,-10.68421 -4.02526,-11.28723 0.34403,-0.60237 5.84269,-9.09099 12.22268,-18.8636 6.3787,-9.77196 11.59841,-18.10596 11.59841,-18.52021 0,-0.41361 -6.8619,-7.60471 -15.24937,-15.98123 l -15.24872,-15.22939 -18.87003,12.73809 -18.8694,12.73743 -16.61774,-6.77685 c -9.14125,-3.72826 -16.7466,-6.90441 -16.90186,-7.05967 -0.15527,-0.15591 -2.10219,-9.38928 -4.32613,-20.51867 -2.22524,-11.1294 -4.263,-21.15777 -4.53165,-22.28392 l -0.48769,-2.04742 -21.38648,0.2416 -21.38647,0.24159 -4.43307,22.24912 -4.43308,22.24719 -14.83124,6.33232"
       id="path38"
       inkscape:connector-curvature="0"
       style="fill:#15738d;stroke-width:0.64424849" />
    <path
       d="m -412.62837,372.51706 c 7.1241,-35.56638 -2.82954,-71.13857 -23.5898,-98.70403 0.59593,-1.6016 0.92192,-3.33398 0.92192,-5.14239 0,-0.40652 -0.0168,-0.80853 -0.0496,-1.20732 l 12.06098,-4.66436 v 6.4e-4 c 3.17356,4.2063 8.21223,6.92503 13.88677,6.92503 2.33927,0 4.57095,-0.46192 6.6087,-1.29945 l 0.0883,0.12048 4.10772,5.63975 0.0651,0.0889 c -2.45394,2.07771 -4.01302,5.18105 -4.01302,8.64904 0,6.25565 5.06959,11.32525 11.32524,11.32525 0.67775,0 1.34133,-0.0593 1.98622,-0.17331 v -6.4e-4 c 10.10697,29.29076 9.93109,69.76245 -3.62518,95.76496 l -0.20359,-0.20358 -5.78664,-5.91871 c -4.49621,-4.59736 -8.95119,-8.25154 -13.78305,-11.20026 z"
       id="path40"
       inkscape:connector-curvature="0"
       style="fill:#15738d;stroke-width:0.64424849" />
    <path
       style="stroke:#000000;stroke-width:0.52615774;stroke-miterlimit:10"
       d="m -508.35547,96.210938 c -2.55322,-0.03119 -5.18952,0.09147 -7.98633,0.349609 -25.663,2.368257 -43.43369,16.850663 -51.4082,41.894533 -1.42315,4.4698 -2.86689,9.44669 -3.20898,11.06054 l -0.625,2.93555 h 9.54101 9.53906 l 1.40821,-3.38672 c 5.09601,-12.24716 14.00542,-17.47956 29.76953,-17.47656 10.5296,0.002 16.27508,1.80177 34.83008,10.91016 16.4554,8.07694 23.08025,9.95312 35.13671,9.95312 28.54729,0 49.24439,-14.79603 58.15821,-41.57422 1.24662,-3.74437 2.53868,-8.51878 2.87305,-10.60937 l 0.60742,-3.796877 h -9.38477 -9.38281 l -1.53125,4.310547 c -4.43179,12.47716 -18.2665,18.78936 -35.82227,16.34766 -8.47638,-1.17898 -14.05845,-3.26512 -27.6289,-10.31836 -14.30961,-7.437729 -23.82083,-10.464472 -34.88477,-10.599612 z m 102.21289,2.130859 6.25977,0.236328 c 3.44287,0.131427 6.53282,0.511982 6.86719,0.845703 0.90709,0.906452 -2.13931,11.074502 -5.47071,18.263672 -5.45292,11.76591 -14.37905,21.3971 -24.58008,26.51758 -12.2259,6.13905 -31.85377,7.84216 -44.53515,3.86328 -3.72441,-1.16931 -13.27323,-5.30466 -21.21875,-9.19141 -15.99089,-7.82311 -22.95384,-9.90429 -33.14649,-9.90429 -14.08778,0 -24.85498,5.9878 -30.11914,16.74804 l -2.41015,4.92383 h -7.09571 -7.09375 l 0.54297,-2.93555 c 0.95284,-5.13981 6.22702,-18.4237 9.41992,-23.72265 6.64929,-11.03597 18.96043,-19.9999 32.125,-23.38672 18.17876,-4.677887 34.24207,-1.881503 54.48243,9.48047 14.88149,8.35332 29.8332,11.51193 42.60156,9 10.60369,-2.08608 16.51719,-6.38097 20.61719,-14.97266 z"
       id="path4310"
       inkscape:connector-curvature="0" />
    <path
       style="fill:none;stroke-width:0.64424849"
       inkscape:connector-curvature="0"
       id="path4318"
       d="m -436.22929,273.81593 c 20.76027,27.56675 30.71326,63.13829 23.58916,98.70402" />
    <path
       style="fill:none;stroke-width:0.64424849"
       inkscape:connector-curvature="0"
       id="path4320"
       d="m -530.50475,222.6903 c 29.102,1.52043 55.73136,13.47897 76.41174,31.79237" />
    <path
       style="fill:#15738d;stroke:#000000;stroke-width:0.52615774;stroke-miterlimit:10"
       inkscape:connector-curvature="0"
       id="path4349"
       d="m -552.08549,145.72048 c 5.26416,-10.76024 16.03213,-16.74724 30.11991,-16.74724 10.19265,0 17.15505,2.08028 33.14594,9.90339 7.94552,3.88675 17.49392,8.02283 21.21833,9.19214 12.68138,3.97888 32.30906,2.27484 44.53496,-3.86421 10.20103,-5.12048 19.1271,-14.75135 24.58002,-26.51726 3.3314,-7.18917 6.3787,-17.35735 5.4716,-18.26381 -0.33437,-0.333721 -3.42418,-0.713183 -6.86705,-0.84461 l -6.2608,-0.237083 -2.75223,5.766033 c -4.1,8.59169 -10.0142,12.88625 -20.61789,14.97233 -12.76836,2.51193 -27.71944,-0.64747 -42.60093,-9.00079 -20.24036,-11.361976 -36.30341,-14.157371 -54.48217,-9.47948 -13.16457,3.38682 -25.4768,12.35025 -32.12609,23.38622 -3.1929,5.29895 -8.46672,18.58271 -9.41956,23.72252 l -0.5431,2.9352 h 7.09446 7.09511 z"
       stroke-miterlimit="10" />
    <g
       transform="matrix(0.14824852,0,0,0.14824852,-574.6445,218.67373)"
       id="g3896"
       fill-rule="evenodd">
      <path
         id="path3027"
         stroke-linejoin="round"
         d="m 176.54,671.67 c -19.896,-3.6748 -39.111,-15.058 -50.216,-29.749 -4.7245,-6.2501 -11.935,-21.535 -13.96,-29.595 -2.1534,-8.568 -2.7794,-23.079 -1.6287,-37.756 2.8576,-36.449 10.764,-66.406 58.779,-222.72 7.6203,-24.808 15.084,-49.963 16.587,-55.899 1.5023,-5.9359 2.9027,-10.967 3.112,-11.18 0.20929,-0.21305 0.83661,1.7178 1.394,4.2908 1.7663,8.1532 7.5557,28.02 18.415,63.194 33.568,108.73 48.216,159.9 53.967,188.55 4.8338,24.078 6.5722,53.432 3.9786,67.182 -2.6196,13.888 -10.015,28.826 -19.196,38.777 -17.905,19.405 -46.631,29.449 -71.231,24.906 v 0 z"
         stroke="#80e5ff"
         stroke-linecap="round"
         stroke-width="2"
         fill="url(#radialGradient3046-657)"
         style="fill:url(#radialGradient4333)"
         inkscape:connector-curvature="0" />
      <path
         id="path3027-6"
         opacity=".5"
         filter="url(#filter3892)"
         d="m 179.06,645.09 c -15.917,-2.9398 -31.289,-12.046 -40.173,-23.799 -3.7796,-5.0001 -9.5477,-17.228 -11.168,-23.676 -1.7227,-6.8544 -2.2235,-18.463 -1.303,-30.205 2.2861,-29.159 8.6109,-53.125 47.023,-178.18 6.0962,-19.847 12.067,-39.97 13.269,-44.719 1.2018,-4.7488 2.3221,-8.7736 2.4896,-8.944 0.16743,-0.17044 0.66928,1.3743 1.1152,3.4327 1.4131,6.5226 6.0446,22.416 14.732,50.556 26.855,86.982 38.572,127.92 43.174,150.84 3.8671,19.263 5.2578,42.745 3.1829,53.745 -2.0957,11.11 -8.0118,23.061 -15.357,31.021 -14.324,15.524 -37.305,23.559 -56.985,19.925 z"
         fill="url(#radialGradient3859)"
         style="fill:url(#radialGradient4335)"
         inkscape:connector-curvature="0" />
    </g>
    <g
       fill-rule="evenodd"
       id="g4317"
       transform="matrix(0.14824852,0,0,0.14824852,-518.12341,240.18376)">
      <path
         inkscape:connector-curvature="0"
         style="fill:url(#radialGradient4319)"
         fill="url(#radialGradient3046-657)"
         stroke-width="2"
         stroke-linecap="round"
         stroke="#80e5ff"
         d="m 176.54,671.67 c -19.896,-3.6748 -39.111,-15.058 -50.216,-29.749 -4.7245,-6.2501 -11.935,-21.535 -13.96,-29.595 -2.1534,-8.568 -2.7794,-23.079 -1.6287,-37.756 2.8576,-36.449 10.764,-66.406 58.779,-222.72 7.6203,-24.808 15.084,-49.963 16.587,-55.899 1.5023,-5.9359 2.9027,-10.967 3.112,-11.18 0.20929,-0.21305 0.83661,1.7178 1.394,4.2908 1.7663,8.1532 7.5557,28.02 18.415,63.194 33.568,108.73 48.216,159.9 53.967,188.55 4.8338,24.078 6.5722,53.432 3.9786,67.182 -2.6196,13.888 -10.015,28.826 -19.196,38.777 -17.905,19.405 -46.631,29.449 -71.231,24.906 v 0 z"
         stroke-linejoin="round"
         id="path4313" />
      <path
         inkscape:connector-curvature="0"
         style="fill:url(#radialGradient4321)"
         fill="url(#radialGradient3859)"
         d="m 179.06,645.09 c -15.917,-2.9398 -31.289,-12.046 -40.173,-23.799 -3.7796,-5.0001 -9.5477,-17.228 -11.168,-23.676 -1.7227,-6.8544 -2.2235,-18.463 -1.303,-30.205 2.2861,-29.159 8.6109,-53.125 47.023,-178.18 6.0962,-19.847 12.067,-39.97 13.269,-44.719 1.2018,-4.7488 2.3221,-8.7736 2.4896,-8.944 0.16743,-0.17044 0.66928,1.3743 1.1152,3.4327 1.4131,6.5226 6.0446,22.416 14.732,50.556 26.855,86.982 38.572,127.92 43.174,150.84 3.8671,19.263 5.2578,42.745 3.1829,53.745 -2.0957,11.11 -8.0118,23.061 -15.357,31.021 -14.324,15.524 -37.305,23.559 -56.985,19.925 z"
         filter="url(#filter3892)"
         opacity=".5"
         id="path4315" />
    </g>
    <g
       transform="matrix(0.14824852,0,0,0.14824852,-540.45055,187.62901)"
       id="g4327"
       fill-rule="evenodd">
      <path
         id="path4323"
         stroke-linejoin="round"
         d="m 176.54,671.67 c -19.896,-3.6748 -39.111,-15.058 -50.216,-29.749 -4.7245,-6.2501 -11.935,-21.535 -13.96,-29.595 -2.1534,-8.568 -2.7794,-23.079 -1.6287,-37.756 2.8576,-36.449 10.764,-66.406 58.779,-222.72 7.6203,-24.808 15.084,-49.963 16.587,-55.899 1.5023,-5.9359 2.9027,-10.967 3.112,-11.18 0.20929,-0.21305 0.83661,1.7178 1.394,4.2908 1.7663,8.1532 7.5557,28.02 18.415,63.194 33.568,108.73 48.216,159.9 53.967,188.55 4.8338,24.078 6.5722,53.432 3.9786,67.182 -2.6196,13.888 -10.015,28.826 -19.196,38.777 -17.905,19.405 -46.631,29.449 -71.231,24.906 v 0 z"
         stroke="#80e5ff"
         stroke-linecap="round"
         stroke-width="2"
         fill="url(#radialGradient3046-657)"
         style="fill:url(#radialGradient4329)"
         inkscape:connector-curvature="0" />
      <path
         id="path4325"
         opacity=".5"
         filter="url(#filter3892)"
         d="m 179.06,645.09 c -15.917,-2.9398 -31.289,-12.046 -40.173,-23.799 -3.7796,-5.0001 -9.5477,-17.228 -11.168,-23.676 -1.7227,-6.8544 -2.2235,-18.463 -1.303,-30.205 2.2861,-29.159 8.6109,-53.125 47.023,-178.18 6.0962,-19.847 12.067,-39.97 13.269,-44.719 1.2018,-4.7488 2.3221,-8.7736 2.4896,-8.944 0.16743,-0.17044 0.66928,1.3743 1.1152,3.4327 1.4131,6.5226 6.0446,22.416 14.732,50.556 26.855,86.982 38.572,127.92 43.174,150.84 3.8671,19.263 5.2578,42.745 3.1829,53.745 -2.0957,11.11 -8.0118,23.061 -15.357,31.021 -14.324,15.524 -37.305,23.559 -56.985,19.925 z"
         fill="url(#radialGradient3859)"
         style="fill:url(#radialGradient4331)"
         inkscape:connector-curvature="0" />
    </g>
    <g
       transform="matrix(0.14824852,0,0,0.14824852,-405.00166,257.37665)"
       id="g4341"
       fill-rule="evenodd">
      <path
         id="path4337"
         stroke-linejoin="round"
         d="m 176.54,671.67 c -19.896,-3.6748 -39.111,-15.058 -50.216,-29.749 -4.7245,-6.2501 -11.935,-21.535 -13.96,-29.595 -2.1534,-8.568 -2.7794,-23.079 -1.6287,-37.756 2.8576,-36.449 10.764,-66.406 58.779,-222.72 7.6203,-24.808 15.084,-49.963 16.587,-55.899 1.5023,-5.9359 2.9027,-10.967 3.112,-11.18 0.20929,-0.21305 0.83661,1.7178 1.394,4.2908 1.7663,8.1532 7.5557,28.02 18.415,63.194 33.568,108.73 48.216,159.9 53.967,188.55 4.8338,24.078 6.5722,53.432 3.9786,67.182 -2.6196,13.888 -10.015,28.826 -19.196,38.777 -17.905,19.405 -46.631,29.449 -71.231,24.906 v 0 z"
         stroke="#80e5ff"
         stroke-linecap="round"
         stroke-width="2"
         fill="url(#radialGradient3046-657)"
         style="fill:url(#radialGradient4343)"
         inkscape:connector-curvature="0" />
      <path
         id="path4339"
         opacity=".5"
         filter="url(#filter3892)"
         d="m 179.06,645.09 c -15.917,-2.9398 -31.289,-12.046 -40.173,-23.799 -3.7796,-5.0001 -9.5477,-17.228 -11.168,-23.676 -1.7227,-6.8544 -2.2235,-18.463 -1.303,-30.205 2.2861,-29.159 8.6109,-53.125 47.023,-178.18 6.0962,-19.847 12.067,-39.97 13.269,-44.719 1.2018,-4.7488 2.3221,-8.7736 2.4896,-8.944 0.16743,-0.17044 0.66928,1.3743 1.1152,3.4327 1.4131,6.5226 6.0446,22.416 14.732,50.556 26.855,86.982 38.572,127.92 43.174,150.84 3.8671,19.263 5.2578,42.745 3.1829,53.745 -2.0957,11.11 -8.0118,23.061 -15.357,31.021 -14.324,15.524 -37.305,23.559 -56.985,19.925 z"
         fill="url(#radialGradient3859)"
         style="fill:url(#radialGradient4345)"
         inkscape:connector-curvature="0" />
    </g>
    <path
       inkscape:connector-curvature="0"
       id="path4366"
       d="m -508.62144,169.15758 -4.53516,22.75977 -4.53711,22.76171 -15.01562,6.35938 c -8.25927,3.49698 -15.51224,6.35742 -16.11719,6.35742 -0.6043,0 -9.45138,-5.73273 -19.65821,-12.73828 l -18.55664,-12.73633 -17.14648,17.14453 -17.14453,17.14453 13.06836,18.28711 13.06836,18.28516 -6.18555,15.86523 c -3.40099,8.72506 -6.48632,16.1482 -6.85547,16.4961 -0.37045,0.3466 -10.01952,2.31465 -21.4414,4.37109 -11.42188,2.05773 -21.48846,3.95461 -22.36915,4.21875 -1.50045,0.44904 -1.56246,1.97044 -1.0039,24.11133 0.32792,12.999 0.72759,23.78712 0.88672,23.97266 0.15848,0.18619 9.64794,2.04671 21.08594,4.13086 11.4367,2.08478 20.93274,3.96253 21.0996,4.17578 0.16686,0.21067 3.40655,8.04401 7.20118,17.40429 l 6.89843,17.01758 -10.95117,15.48633 c -6.02244,8.51826 -11.68724,16.55278 -12.58984,17.85352 l -1.63867,2.36914 10.13867,9.86328 c 5.57533,5.42522 13.41993,12.99871 17.43359,16.82812 l 7.29492,6.96485 6.43946,-4.52149 c 3.54208,-2.48873 6.64717,-4.52344 6.89843,-4.52344 0.25254,0 3.16573,2.66522 6.47266,5.92383 l 6.01367,5.92578 -3.44922,7.84375 c -7.34379,16.70279 -27.48819,55.61697 -36.86523,71.2168 -5.40782,8.995 -13.72598,21.57705 -18.48633,27.95899 -18.78114,25.17981 -33.81445,36.47021 -64.68555,48.58789 -32.69884,12.83858 -36.57039,14.70461 -46.95117,22.625 -7.00491,5.34404 -11.7931,10.69744 -16.375,18.30859 -4.17022,6.92567 -8.18497,17.66258 -9.36523,25.05469 -2.70134,16.90766 6.14842,35.21117 20.5332,42.45703 4.58705,2.31221 5.97667,3.15381 13.14844,3.16601 7.44236,0.0116 8.87121,-0.77886 14.5625,-3.57812 4.01624,-1.97591 8.26561,-5.10025 11.96875,-8.80274 3.15875,-3.15811 6.29289,-5.74218 6.96484,-5.74218 2.70778,0 9.25244,-2.92209 11.70703,-5.22657 7.11701,-6.68279 6.82956,-17.77216 -0.6289,-24.32031 -11.37292,-9.98585 -30.65969,-2.53992 -30.80078,11.88867 -0.0251,2.67686 0.61598,5.85122 1.55078,7.66993 l 1.59765,3.10742 -3.35351,3.42969 c -8.68962,8.90286 -20.12495,7.50679 -25.80078,-3.14844 -1.65572,-3.10592 -2.66883,-5.13023 -2.67383,-11.80078 -0.005,-7.0906 0.96871,-8.89464 3.1875,-13.41211 3.18323,-6.48436 7.45857,-11.63823 14.02539,-16.90625 7.20592,-5.78084 15.64991,-9.93187 31.28711,-15.38672 19.46726,-6.78845 30.18048,-11.1788 41.98633,-17.20703 24.88281,-12.70652 35.88941,-22.6672 52.32226,-47.35352 2.64464,-3.97372 5.08759,-7.53986 5.42969,-7.92383 0.34209,-0.38526 -2.32379,6.72459 -5.92578,15.79883 -13.96538,35.20174 -24.2912,75.04985 -33.38477,128.86328 -2.2291,13.18905 -4.86262,27.43449 -5.84961,31.65625 -5.63524,24.06526 -13.54404,37.18913 -24.32812,40.36914 -14.24691,4.20179 -27.48281,-0.79577 -33.38477,-12.60742 -3.80171,-7.60858 -3.60574,-8.80767 1.86328,-11.375 6.28529,-2.94872 9.32729,-7.66811 9.36719,-14.53516 0.0406,-7.13633 -3.18655,-11.98508 -10.07422,-15.13867 -4.16055,-1.90376 -5.86246,-2.20636 -10.04492,-1.77343 -14.88729,1.5346 -21.69387,17.51784 -11.86328,27.85351 3.2992,3.46606 3.57031,4.14372 3.57031,8.88281 0,16.07014 12.66817,31.50056 29.60547,36.06055 17.28067,4.65341 34.08942,2.13963 44.11328,-6.59766 11.70664,-10.20232 17.10767,-25.21802 27.8125,-77.32226 10.78215,-52.48886 14.4013,-64.30582 30.35547,-99.11328 7.98675,-17.42241 28.91678,-59.12098 29.42188,-58.61524 0.17265,0.17266 -0.659,2.71719 -1.84571,5.65625 -7.29354,18.06344 -16.12627,46.38527 -20.8164,66.7461 -5.61076,24.35904 -6.02947,28.82937 -6.84766,73.58789 -0.41426,22.59508 -1.19186,45.55304 -1.72851,51.01562 -4.19341,42.64281 -18.38364,69.34353 -40.8125,76.79297 l -4.53321,1.50391 -5.74805,-2.91797 c -5.02965,-2.55183 -6.42139,-2.86944 -11.13085,-2.52734 -14.80676,1.07009 -22.13888,16.1571 -13.08204,26.91992 6.9843,8.30179 22.65347,8.58228 28.9961,0.51758 1.33359,-1.69566 3.39819,-2.58057 8.4375,-3.61524 10.69839,-2.2001 21.95675,-8.31047 30.88281,-16.76172 19.43698,-18.39652 31.07121,-45.67955 36.77539,-86.23242 0.55791,-3.97179 1.33554,-24.49272 1.73047,-45.59766 0.70996,-38.08217 0.73649,-38.47373 3.46875,-51.17187 5.47998,-25.4781 16.11035,-58.58316 28.79883,-89.68555 4.5864,-11.24407 7.65475,-17.77033 6.1543,-13.0918 -2.23942,6.98301 -7.01311,27.03558 -8.50196,35.71876 -4.36865,25.46585 -4.22933,47.74017 0.44727,71.32031 2.05709,10.36918 2.33592,13.59916 1.90234,22.07812 -0.8517,16.66993 -4.22039,29.37761 -17.3418,65.43555 -12.15052,33.39269 -14.3715,41.96106 -14.4082,55.55664 -0.0258,9.43759 0.23783,11.41906 2.04688,15.35156 5.83302,12.67301 18.99825,18.76765 40.8125,18.89649 9.31841,0.0541 12.41437,-0.29309 17.7539,-1.97071 8.63293,-2.71422 14.68068,-7.53584 18.04688,-14.39257 2.33733,-4.76036 2.56557,-6.07536 2.48437,-14.27149 -0.0734,-7.43914 -0.51654,-10.18166 -2.51758,-15.55469 -2.27613,-6.11585 -2.34044,-6.69257 -1.03906,-9.21093 3.21286,-6.21249 0.50685,-15.45664 -5.75976,-19.67969 -6.92696,-4.66758 -14.90565,-4.78428 -21.94922,-0.31641 -7.15051,4.53615 -9.6646,12.84684 -6.19532,20.48633 2.1621,4.761 6.56607,8.09338 12.76954,9.66406 4.32871,1.09522 5.12148,1.66164 6.64062,4.76563 2.21428,4.52392 2.90232,12.17191 1.41797,15.75586 -0.70931,1.71241 -2.52902,3.46853 -4.78711,4.62109 -4.93301,2.51773 -18.14257,2.06939 -23.63672,-0.79687 -13.03444,-6.80456 -12.72467,-19.03984 1.4082,-55.48047 15.90456,-41.01479 20.6631,-56.7693 22.54688,-74.65235 1.05464,-10.01419 0.8307,-13.34207 -2.07422,-30.84179 -3.54594,-21.36393 -2.26705,-48.69771 3.40234,-72.75782 4.2965,-18.23416 14.43666,-46.14566 15.8379,-43.59765 1.00503,1.82709 3.34395,16.635 4.96875,31.47656 2.13375,19.47176 2.73075,57.93794 1.21484,78.35547 -1.5481,20.83306 -1.56462,45.73699 -0.0371,53.02344 5.7976,27.65115 15.54522,49.98208 40.88867,93.66406 18.7734,32.35609 24.30143,44.55307 24.23633,53.47656 -0.027,4.00271 -2.92768,9.75644 -6.93555,13.76367 -9.93303,9.93431 -28.12017,11.58061 -55.44726,5.02344 l -6.21875,-1.49414 v -4.38281 c 0,-4.82929 -1.42275,-8.24844 -4.6543,-11.1875 -7.82246,-7.11702 -19.47905,-7.10191 -26.63086,0.0273 -8.00478,7.98224 -6.91886,19.31924 2.44336,25.51563 3.81459,2.52545 12.39614,3.77466 16.12891,2.34765 1.79101,-0.68548 3.66265,-0.0626 10.38281,3.44922 8.69155,4.54453 17.86074,7.62327 26.44922,8.87891 v -0.002 h 0.004 c 19.90149,2.91072 44.54561,-2.95826 56.46485,-13.44921 2.65044,-2.33347 5.33081,-5.96765 7.1914,-9.75196 2.8173,-5.72544 2.96662,-6.53643 2.94532,-15.98047 -0.0264,-11.57199 -0.42258,-12.85508 -17.09766,-55.54492 -17.56801,-44.97434 -29.44643,-83.55909 -36.40625,-118.24414 l -2.45312,-12.22851 0.2539,-35.66602 c 0.14303,-19.95366 -0.18099,-41.63329 -0.73633,-49.21094 -0.89551,-12.21173 -3.7216,-37.31716 -4.98047,-44.24218 -0.47867,-2.63369 -0.4507,-2.6605 1.01368,-0.90235 2.36632,2.83534 14.32656,27.97377 17.88281,37.58789 12.84245,34.71727 16.58907,63.71706 12.19336,94.42774 -2.17176,15.17205 -1.95754,34.09368 0.52539,46.3125 7.72583,38.00808 31.10289,63.20507 58.64258,63.20507 18.76374,10e-6 39.09918,-11.37615 43.38086,-24.26757 3.22317,-9.70238 0.51209,-24.48904 -6.55274,-35.73633 -2.01843,-3.21351 -2.12644,-3.84771 -1.08984,-6.32227 2.80183,-6.67893 2.19543,-14.1726 -1.49805,-18.5625 -8.97825,-10.66812 -27.23398,-8.01044 -32.32226,4.70703 -4.10193,10.25128 3.61143,21.01447 15.9082,22.20118 3.98854,0.38461 4.33206,0.64336 6.74219,5.03906 3.02217,5.51348 3.42913,12.82683 0.96875,17.45898 -7.12668,13.42807 -26.27486,16.9374 -39.12891,7.17188 -8.55948,-6.50175 -14.19765,-17.17598 -17.56836,-33.24805 -2.58795,-12.34509 -2.74373,-35.34899 -0.35937,-53.56641 2.03135,-15.52316 2.03996,-33.6036 0.0254,-46.94921 -1.53589,-10.16495 -5.61113,-27.56783 -8.12305,-34.67969 -0.77375,-2.18916 -1.28749,-4.09727 -1.13867,-4.2461 0.14753,-0.14559 4.09887,6.46569 8.7832,14.69532 4.68304,8.22963 12.53751,21.1105 17.45313,28.62695 17.08547,26.11268 27.51426,37.46455 40.35156,43.91992 16.60486,8.3501 26.0302,10.6303 57.79101,13.97266 35.6205,3.74823 43.17714,5.41386 51.33204,11.32226 6.00246,4.34739 8.68987,9.22274 8.67187,15.71289 -0.0206,6.7994 -2.45363,12.13593 -8.12109,17.80274 -6.28335,6.28465 -11.26938,8.44726 -19.4668,8.44726 -8.42291,0 -11.84347,-1.95768 -17.12695,-9.79882 l -3.5586,-5.28321 3.13867,-3.66406 c 8.823,-10.31056 2.12456,-25.51408 -11.74804,-26.66406 -7.24264,-0.60044 -10.93106,0.41505 -15.07422,4.15234 -5.88457,5.30989 -7.64758,11.94866 -4.91016,18.50196 1.61577,3.86356 6.91908,8.42088 11.34571,9.74804 3.31079,0.99214 3.64655,1.40321 4.64062,5.6836 3.36105,14.46531 15.54731,26.19912 30.46875,29.33984 21.76079,4.58382 41.93565,-7.97414 51.33008,-31.94727 2.10025,-5.35757 2.48142,-7.6972 2.51172,-15.34765 0.0322,-8.08403 -0.23616,-9.62636 -2.56641,-14.69531 -1.82902,-3.98597 -4.29968,-7.25201 -8.33203,-11.02344 -12.05647,-11.2795 -29.17199,-16.70918 -75.49023,-23.95117 -19.58065,-3.06018 -31.8623,-6.07276 -38.56055,-9.45313 -13.64454,-6.88637 -28.80568,-26.26336 -48.16406,-61.55078 -8.1536,-14.86281 -16.89063,-31.91276 -16.89063,-32.96289 0,-0.3408 3.28585,4.19154 7.30274,10.07031 24.69663,36.1694 48.99381,61.92197 66.99218,71.00781 9.87698,4.98584 33.06448,9.94062 54.55274,11.65625 31.79302,2.53769 60.41871,-5.05931 75.36914,-20.00781 l 6.02344,-6.02148 6.69726,-0.33789 c 7.4881,-0.37882 11.44833,-2.3751 15.00781,-7.57032 7.5712,-11.04951 -1.24822,-25.70312 -15.46679,-25.70312 -12.11896,0 -21.59205,11.28204 -18.03516,21.48242 0.90839,2.60728 0.82083,2.70984 -5.98437,6.80469 -9.00917,5.42328 -17.36319,9.14785 -26.06055,11.62305 -10.00067,2.84436 -29.10561,2.8628 -39.61523,0.0391 -9.3532,-2.51386 -20.56269,-7.24603 -29.71876,-12.55078 -29.26691,-16.95662 -61.43127,-52.97509 -114.61914,-128.34766 l -14.20898,-20.13476 3.91797,-4.25 c 2.15501,-2.33734 4.95544,-5.63043 6.22461,-7.31836 l 2.30664,-3.06836 4.07812,2.39062 4.08008,2.38867 16.42188,-17.08007 16.42187,-17.08008 -12.32617,-18.23242 -12.32617,-18.23438 7.04101,-16.37109 c 3.87,-9.00273 7.31742,-16.69166 7.66016,-17.08594 0.34339,-0.39493 10.13233,-2.32012 21.75586,-4.27735 11.62482,-1.95851 21.13281,-3.56626 21.13281,-3.57226 0,-11.93599 -0.62851,-48.34531 -0.83789,-48.55469 -0.16558,-0.16622 -10.153,-2.00898 -22.19336,-4.0957 l -21.89258,-3.79688 -6.67187,-15.73437 -6.67188,-15.73438 2.44336,-3.67773 c 1.34197,-2.02294 7.02657,-10.68339 12.63282,-19.24609 l 10.19335,-15.56836 -16.78124,-17.14844 -16.7793,-17.14844 -19.20703,13.04492 -19.20508,13.04492 -15.80859,-6.34765 -15.8086,-6.3457 -4.43945,-22.73829 -4.4375,-22.74023 h -23.39844 z m 44.60156,2.2168 0.48633,2.04883 c 0.26865,1.12615 2.30796,11.1538 4.5332,22.2832 2.22394,11.12939 4.1709,20.36362 4.32617,20.51953 0.15526,0.15526 7.75914,3.33033 16.90039,7.05859 l 16.61524,6.77539 18.85937,-12.73047 18.86914,-12.73828 0.004,0.004 0.01,-0.008 15.24805,15.22851 c 8.38747,8.37652 15.25,15.56686 15.25,15.98047 0,0.41425 -5.21896,8.74953 -11.59765,18.52149 -6.38001,9.77261 -11.87863,18.26091 -12.22266,18.86328 -0.34274,0.60302 1.46966,5.68151 4.02539,11.28711 2.55573,5.60561 5.88973,13.10528 7.41016,16.66797 l 2.76562,6.47656 7.29297,1.33008 c 4.01173,0.73251 13.63975,2.44665 21.39844,3.80859 l 14.10742,2.47461 0.6582,22.05273 c 0.3621,12.12991 0.50058,22.21232 0.3086,22.4043 -9.3e-4,9.2e-4 -0.0125,0.003 -0.0137,0.004 v 0.002 c -0.0308,0.0244 -0.1403,0.0613 -0.34179,0.11328 -1.42674,0.37376 -7.21519,1.44521 -13.97266,2.57617 -7.67944,1.28657 -17.17422,3.03239 -21.10156,3.88086 l -7.12695,1.53907 -2.45313,5.86523 c -1.3497,3.22897 -4.809,11.27012 -7.6875,17.87109 l -5.23242,12 11.89062,17.50977 c 6.54105,9.62958 11.87618,17.84021 11.85938,18.24609 -0.0187,0.40588 -6.66688,7.63903 -14.77539,16.07032 l -14.74219,15.33398 -0.006,-0.002 -0.008,0.008 -3.28125,-1.76758 c -1.80712,-0.97153 -3.28516,-1.8236 -3.28516,-1.88867 0,-0.0657 1.42327,-3.19589 3.16016,-6.95508 4.39893,-9.52006 6.06836,-17.40676 6.06836,-28.63086 0,-11.90893 -1.78793,-19.68596 -6.99024,-30.40625 l -3.95898,-8.16211 -0.0566,-0.12305 c 14.76296,-25.06062 14.67495,-65.22567 5.14844,-99.96484 3.44673,-1.94176 5.77343,-5.63518 5.77343,-9.87305 0,-6.25501 -5.07051,-11.32617 -11.32617,-11.32617 -1.36838,0 -2.68012,0.24361 -3.89453,0.6875 l -0.11719,-0.17968 -3.96093,-5.45704 -0.11133,-0.15234 c 0.004,-0.003 0.008,-0.005 0.0117,-0.008 0.27192,-0.19434 0.53694,-0.39813 0.79687,-0.60742 0.26341,-0.21246 0.52106,-0.43101 0.77148,-0.65821 0.004,-0.003 0.008,-0.006 0.0117,-0.01 3.49937,-3.18039 5.69532,-7.77041 5.69532,-12.8711 0,-9.60123 -7.78223,-17.38086 -17.38282,-17.38086 -2.8541,0 -5.54768,0.68779 -7.92382,1.90625 -0.3351,0.17221 -0.66432,0.35398 -0.98633,0.54688 -0.004,0.002 -0.008,0.005 -0.0117,0.008 -0.3226,0.19361 -0.63871,0.39588 -0.94727,0.60938 -0.003,0.002 -0.007,0.004 -0.01,0.006 -2.1768,1.50825 -3.99198,3.50132 -5.29102,5.82226 l -0.006,-0.002 c -0.002,0.003 -0.004,0.006 -0.006,0.01 l -0.15039,-0.0449 -11.61133,-3.48437 -0.36523,-0.10938 c 0.51346,-1.11004 0.80078,-2.34644 0.80078,-3.65039 0,-4.79966 -3.89239,-8.69141 -8.69141,-8.69141 -1.19988,2e-5 -2.34301,0.2437 -3.38281,0.6836 -0.25655,0.10897 -0.50678,0.22911 -0.75,0.36133 -0.003,0.002 -0.007,0.002 -0.01,0.004 -0.24226,0.13207 -0.47748,0.27594 -0.70508,0.42969 -2.31197,1.56186 -3.83203,4.20725 -3.83203,7.20703 0,3.85518 2.35109,7.06929 5.82617,8.20703 l 0.16016,0.0547 -1.18165,9.16406 c -0.004,-4e-4 -0.008,4e-4 -0.0117,0 v 0.006 c -0.51411,-0.0535 -1.03422,-0.082 -1.5625,-0.082 -0.4788,0 -0.95087,0.0277 -1.41797,0.0723 -0.0619,0.006 -0.12388,0.0108 -0.18555,0.0176 -0.454,0.0491 -0.90307,0.1157 -1.34375,0.20508 -0.011,0.002 -0.0222,0.004 -0.0332,0.006 -6.71684,1.37839 -11.76758,7.32382 -11.76758,14.44922 0,8.14588 6.60282,14.74805 14.74805,14.74805 6.58942,0 12.16687,-4.3216 14.05859,-10.28516 0.0135,-0.0424 0.0279,-0.0844 0.041,-0.12695 0.13383,-0.43567 0.25023,-0.8802 0.34375,-1.33203 0.003,-0.0144 0.007,-0.0285 0.01,-0.043 0.19498,-0.95654 0.29688,-1.94679 0.29688,-2.96094 0,-0.40652 -0.016,-0.81019 -0.0488,-1.20898 l 0.0117,-0.004 12.06054,-4.66406 c 3.17356,4.2063 8.21218,6.92578 13.88672,6.92578 2.33927,0 4.57163,-0.46325 6.60938,-1.30078 l 0.0879,0.12109 4.10742,5.63867 0.0645,0.0899 c -2.45394,2.07771 -4.01172,5.18045 -4.01172,8.64844 0,6.25563 5.06857,11.32617 11.32422,11.32617 0.67775,0 1.34144,-0.0598 1.98633,-0.17383 10.10697,29.29076 9.93127,69.76116 -3.625,95.76367 l -0.008,-0.008 c -0.002,0.004 -0.004,0.009 -0.006,0.0137 l -0.20117,-0.20508 -5.78711,-5.91797 c -3.70776,-3.79204 -7.38854,-6.94145 -11.27539,-9.58398 -0.002,-0.001 -0.002,-0.003 -0.004,-0.004 -6.48083,-4.40526 -13.53614,-7.39903 -22.25,-9.60156 -10.8092,-2.73548 -27.04614,-2.13216 -37.47266,1.38672 -8.85194,2.98674 -17.67171,8.09883 -24.07812,13.95312 l -4.83008,4.41211 -3.59765,-3.10937 c -12.18338,-10.53217 -29.07916,-14.16714 -44.24219,-9.51953 -23.35272,7.1576 -39.11291,32.51552 -37.16406,59.79687 0.65907,9.21082 2.35973,15.39542 6.65429,24.18555 1.76653,3.61552 3.05594,6.69752 2.86524,6.8457 -0.19198,0.14753 -2.75101,1.96455 -5.6875,4.03516 -2.93584,2.06997 -5.57729,3.75179 -5.86914,3.73633 -0.99343,-0.0477 -31.67969,-29.55124 -31.67969,-30.45899 0,-0.22871 5.34626,-7.98822 11.88281,-17.24414 6.53461,-9.25656 11.88867,-17.27197 11.88867,-17.8125 0.008,-1.21956 -13.75747,-35.80196 -14.58984,-36.6543 -0.33179,-0.34016 -9.13795,-2.12356 -19.56641,-3.96289 -10.42845,-1.83997 -19.81437,-3.66356 -20.85547,-4.04882 -1.83998,-0.68226 -1.8972,-1.28418 -2.08789,-22.36915 l -0.19726,-21.66992 4.79883,-0.96289 c 2.63949,-0.52893 12.72059,-2.4264 22.40429,-4.21484 9.68306,-1.78972 17.6503,-3.32053 17.70313,-3.40235 0.88778,-1.39864 12.99804,-33.62411 12.99804,-34.58984 4e-5,-0.74539 -5.48605,-9.01866 -12.18945,-18.38281 -6.70405,-9.36416 -12.18945,-17.36374 -12.18945,-17.77735 0,-0.93223 30.00985,-30.98046 30.9414,-30.98046 0.3711,0 8.84355,5.58634 18.82618,12.41601 9.98392,6.82839 18.61663,12.28014 19.18164,12.11328 0.56629,-0.16429 8.19192,-3.35712 16.94726,-7.0957 l 1.09961,-0.4707 h 0.002 l 14.8164,-6.32617 4.43555,-22.24805 4.43164,-22.24805 h 0.0117 l 0.002,-0.006 21.38672,-0.24219 z m 25.30664,71.59179 0.25586,0.0801 12.50976,3.92969 -0.0937,0.30078 c -0.54826,1.69115 -0.75195,3.19683 -0.75195,5.07031 0,2.73934 0.61606,5.29059 1.74414,7.59571 l 0.0176,0.0371 -10.99805,4.1289 c -1.45536,-4.47624 -4.99512,-8.01077 -9.47265,-9.46484 h -0.002 l 1.08008,-9.22266 0.0176,-0.15039 c 2.1956,-0.0503 4.19033,-0.91505 5.69336,-2.30469 z m -9.92383,122.30274 c 11.1964,-0.003 19.38265,1.75753 28.44336,6.11523 17.66723,8.49828 31.06935,24.70869 36.22656,43.82031 2.15661,8.00356 2.15234,24.52104 -0.01,32.50586 -5.83495,21.53723 -21.42704,38.56207 -42.29102,46.17774 -3.87001,1.41154 -9.27954,2.82891 -12.01953,3.15039 l -4.76953,0.45898 0.0352,-14.6289 0.25195,-14.75586 4.23242,-1.31445 c 8.75856,-2.71684 17.24974,-11.86366 19.81836,-21.34571 1.35228,-4.99357 0.5162,-14.54341 -1.71484,-19.58594 -2.48293,-5.61076 -8.61922,-12.12183 -13.99805,-14.84765 -18.67226,-9.46208 -40.63662,1.72569 -43.96094,22.38867 -2.41142,14.99746 7.54751,30.23567 22.30274,34.125 l 3.83789,1.01367 v 14.41211 h 0.004 v 14.41406 l -3.38672,-0.0527 c -10.77957,-0.1572 -27.31821,-7.64831 -37.30664,-16.89648 -14.52522,-13.44807 -21.56155,-29.43145 -21.59375,-49.04688 -0.029,-18.88228 5.78833,-32.85477 19.36328,-46.49609 6.90253,-6.9392 9.48341,-8.85333 16.73829,-12.41602 11.33877,-5.56502 18.07155,-7.19231 29.79687,-7.19531 z m -85.54101,6.66601 c 3.63401,-0.0807 7.29286,0.34267 10.92578,1.28907 6.99525,1.82129 13.88131,5.28648 18.61718,9.36328 l 3.89258,3.35351 -3.43945,4.47461 c -6.95337,9.04138 -13.02071,25.27259 -13.06641,34.94727 -0.018,4.14058 -0.91185,4.27779 -2.80078,0.42969 -3.76435,-7.66785 -16.20537,-11.22214 -23.76562,-6.78907 -1.93919,1.13904 -4.76467,3.60968 -6.2793,5.49024 -2.26711,2.81537 -2.81954,4.42239 -3.11719,9.10156 -0.54696,8.60587 3.26867,14.95745 10.9043,18.14648 l 3.37305,1.41016 v 14.43359 c 0,7.93971 -0.10027,14.4085 -0.22461,14.375 -13.19872,-3.47443 -17.46594,-5.83469 -25.9668,-14.36132 -4.6038,-4.61797 -7.72227,-8.72666 -9.72266,-12.81055 -11.59325,-23.67806 -7.51307,-51.41644 10.14063,-68.92969 8.96262,-8.89159 19.62725,-13.68175 30.5293,-13.92383 z m 16.75,67.20508 0.60742,3.60547 c 1.40446,8.32563 6.30404,20.81215 10.5039,26.76758 l 1.6875,2.39062 -4.48437,2.87696 c -2.46489,1.58163 -6.47558,3.63607 -8.91406,4.5625 -2.43784,0.92643 -6.5125,1.95928 -9.05664,2.29687 l -4.625,0.61328 v -14.48242 -14.48437 l 3.94336,-1.90821 c 4.63145,-2.24134 6.29084,-3.91706 8.62109,-8.70898 z m 14.01171,34.74219 7.48243,7.08398 c 9.13416,8.64646 19.92177,14.55834 31.70507,17.375 6.64993,1.59258 9.8125,1.83652 18.82618,1.45899 7.44953,-0.31503 13.44336,-1.20358 19.03906,-3 5.57616,-1.80071 10.76192,-4.50587 16.60742,-8.45899 l 5.02734,-3.40039 4.39844,6.44141 c 40.59732,59.42355 79.52701,107.31602 103.75977,127.6543 26.45091,22.19823 56.17395,33.29098 80.75976,30.13867 12.58475,-1.61449 23.8789,-5.8861 39.06641,-14.7793 l 7.79297,-4.56055 -1.73828,-3.92968 c -2.2233,-5.02385 -1.49777,-9.33852 2.29492,-13.65821 7.23748,-8.24381 19.67003,-8.48709 27.08984,-0.5332 7.22589,7.74451 3.91065,18.92055 -7.09375,23.91992 -3.99434,1.81678 -10.85685,2.23928 -11.79101,0.72852 -0.35176,-0.56887 -2.3107,0.78048 -4.79493,3.30078 -16.7601,17.00687 -39.70074,24.02617 -74.11328,22.67969 -19.92918,-0.78082 -44.96203,-5.87747 -55.80859,-11.35938 -22.86245,-11.55524 -54.71849,-48.75119 -86.86133,-101.4082 -4.03686,-6.61192 -8.11216,-13.0332 -9.05469,-14.26758 -1.08374,-1.41922 -1.79941,-1.92747 -2.10351,-1.76953 l 0.01,0.0117 c -0.33372,0.3582 0.13874,1.96977 1.56446,4.22851 1.24533,1.97333 7.97728,15.00787 14.96094,28.9668 22.80637,45.59025 35.33323,67.02576 48.96874,83.79297 14.82867,18.23803 22.16228,21.45872 64.41016,28.28711 51.27188,8.2889 68.04371,15.27594 76.94336,32.06055 3.44802,6.5024 3.97248,18.3272 1.17774,26.63671 -4.53874,13.50539 -13.23741,24.14018 -24.14454,29.53125 -6.00955,2.9687 -7.71706,3.39133 -15.02734,3.70508 -6.73305,0.29056 -9.31418,-0.004 -14.04297,-1.60156 -13.3353,-4.50716 -23.33404,-15.78328 -25.00586,-28.20117 -0.51734,-3.84809 -0.83106,-4.29674 -3.39453,-4.83985 -4.47559,-0.94511 -9.5332,-4.14466 -11.44726,-7.24414 -2.37793,-3.84745 -2.33705,-10.52316 0.0898,-14.44921 5.8749,-9.50334 21.46921,-9.64182 27.6875,-0.2461 1.96175,2.9629 2.22859,4.19276 1.86523,8.58203 -0.38075,4.57223 -0.81546,5.48568 -4.06054,8.51172 l -3.63477,3.39258 3.34766,5.29687 c 6.41156,10.1366 14.2284,14.6303 23.54101,13.52735 12.20142,-1.44634 24.78044,-12.92156 26.98828,-24.62305 1.69888,-9.00595 -2.0632,-17.28957 -10.34179,-22.77148 -9.01819,-5.97476 -16.36535,-7.58663 -50.08789,-10.98633 -31.65515,-3.19161 -42.30775,-5.71046 -57.91016,-13.69141 -9.72751,-4.97618 -16.09393,-10.66211 -25.55859,-22.82617 -15.4072,-19.80098 -39.01867,-59.59879 -58.94141,-99.3457 -6.81229,-13.59107 -8.28863,-16.01191 -9.35937,-15.35157 -0.431,0.26673 3.03092,8.08299 7.69335,17.37305 12.7922,25.48969 20.57945,48.33449 24.53321,71.96875 1.97784,11.82131 2.15226,34.9714 0.35351,46.95313 -0.92836,6.1996 -1.33085,15.67963 -1.28515,30.24609 0.0631,19.91308 0.21277,21.76197 2.42382,29.99805 5.52511,20.57536 14.76952,31.97814 28.84571,35.58593 16.3433,4.18569 33.13742,-6.8821 33.20312,-21.88085 0.0232,-5.50961 -1.25565,-9.59806 -4.38476,-14.01954 -2.02745,-2.86432 -2.80469,-3.28591 -6.20117,-3.35351 -8.01252,-0.16171 -14.50748,-5.70422 -15.33985,-13.09375 -1.13324,-10.05092 10.09031,-18.27401 20.63086,-15.11719 9.99294,2.9964 14.20844,12.85178 9.09375,21.26953 l -1.6289,2.67969 4.3125,8.1875 c 6.92373,13.15427 8.5029,23.83236 4.82617,32.63086 -3.32947,7.96936 -15.32077,16.41605 -27.95899,19.69141 -6.96046,1.80588 -18.69656,1.78473 -24.92773,-0.0449 -32.14027,-9.42665 -52.13089,-56.20678 -44.72461,-104.65234 2.2233,-14.53553 2.65784,-25.34404 1.51172,-37.47266 -2.644,-28.00613 -11.8348,-58.45391 -25.92774,-85.88086 -9.55227,-18.59172 -13.71255,-21.96788 -11.51953,-9.35156 0.65585,3.76885 2.11739,14.24109 3.24805,23.27539 1.87669,14.96138 2.06865,20.37607 2.15625,60.67188 0.11081,50.30679 0.0559,49.76821 8.50391,83.97265 7.52737,30.4794 15.78976,55.19563 34.56445,103.38477 13.28119,34.08719 12.75373,32.24199 12.79883,44.69531 0.0374,10.32924 -0.0852,11.05841 -2.60743,15.60938 -6.12874,11.06561 -16.91939,17.19291 -36.07226,20.48437 h -0.002 c -13.8346,2.37986 -27.05343,1.38849 -39.40625,-2.95117 -5.69838,-2.00103 -13.72557,-5.92463 -17.33594,-8.4707 -1.90376,-1.34261 -2.86015,-1.51962 -4.23047,-0.78711 -2.68265,1.43668 -10.70244,1.13603 -14.21875,-0.53321 -5.82852,-2.7677 -9.56394,-10.15289 -8.0957,-16.00976 0.81433,-3.24443 4.77965,-7.60347 8.76562,-9.63672 11.00312,-5.61462 24.92981,3.65847 22.96485,15.29102 -0.52831,3.12525 -0.37733,3.52193 1.50195,3.93554 27.74649,6.08042 40.39751,6.92874 51.30078,3.44336 9.82607,-3.14136 16.94841,-9.95132 19.46484,-18.60937 1.22728,-4.21081 1.2261,-5.41513 0.008,-11.25782 -1.79423,-8.6078 -8.3176,-21.91942 -23.00196,-46.93945 -22.128,-37.70271 -35.06394,-66.34946 -39.76953,-88.06836 -3.38746,-15.63785 -3.84437,-25.07591 -2.11328,-43.75976 1.08041,-11.66863 1.54883,-25.414 1.54883,-45.59766 10e-4,-31.28986 -1.29343,-48.5158 -5.41211,-71.99414 -1.20346,-6.86447 -2.1875,-12.6711 -2.1875,-12.90625 0,-0.23579 -0.55268,-0.42773 -1.22656,-0.42773 -2.94486,-3e-5 -14.62069,31.132 -18.96485,50.5664 -5.73832,25.67073 -6.63118,54.34515 -2.40234,77.19922 1.62866,8.79979 1.90979,12.78749 1.50391,21.2207 -0.84912,17.61569 -4.90275,32.33338 -18.64844,67.7168 -9.4711,24.3803 -12.99197,35.1799 -14.45313,44.33789 -2.66719,16.73565 4.49884,25.97161 21.36719,27.53906 19.1722,1.78328 27.01624,-9.00265 18.67773,-25.67773 -2.47069,-4.93752 -2.70891,-5.13512 -6.90039,-5.72461 -7.90428,-1.11004 -13.26367,-6.99451 -13.26367,-14.5625 0,-5.18749 2.87795,-9.50502 8.09766,-12.14258 12.51388,-6.32201 27.46813,4.35964 22.90234,16.36328 -1.89603,4.98584 -1.82193,6.40938 0.67969,12.75781 1.75944,4.4666 2.13945,7.09087 2.15625,14.96876 0.0226,9.06069 -0.11628,9.77468 -2.68555,13.90624 -5.74283,9.23467 -14.16115,13.19079 -29.38281,13.81055 -24.38222,0.99472 -40.49153,-7.24155 -43.76563,-22.37109 -2.27223,-10.50447 0.55206,-26.12017 9.07032,-50.11328 11.67571,-32.88759 18.46732,-53.81236 20.36914,-62.75196 2.35602,-11.083 2.85559,-30.39512 0.95312,-36.87304 -5.29443,-18.03316 -5.88459,-47.07812 -1.48437,-72.88672 2.67943,-15.71257 10.6781,-44.14847 17.19531,-61.13086 0.42456,-1.10746 0.15477,-1.57031 -0.91211,-1.57031 -1.03466,0 -2.89337,2.93129 -5.87109,9.25781 -18.81399,39.94856 -36.0653,90.50554 -42.68946,125.11328 -1.82706,9.54969 -1.9937,12.8195 -1.76757,34.47656 0.38075,36.19259 -1.60113,59.19724 -7.05469,81.91602 -8.51053,35.44913 -25.64005,60.37713 -48.80078,71.01367 -6.76654,3.10915 -16.38051,5.63598 -17.89063,4.70117 -0.44775,-0.27703 -1.92974,0.95766 -3.29297,2.7461 -4.50523,5.9084 -12.43766,8.08487 -19.18359,5.26757 -9.13029,-3.81459 -12.9013,-13.24543 -8.10937,-20.2832 5.80402,-8.52727 15.61118,-10.09857 24.67382,-3.94922 l 3.47657,2.36133 5,-1.56641 c 22.18276,-6.94887 35.312,-26.62388 41.5625,-62.26757 2.81988,-16.08689 3.67057,-29.76568 4.47461,-72.06446 0.70609,-37.12031 0.92058,-40.82466 3.08203,-52.66015 6.17835,-33.85397 19.88282,-75.97617 37.35742,-114.83789 2.7445,-6.10297 4.72447,-11.35757 4.40234,-11.67969 -0.32148,-0.31955 -0.94477,-0.20605 -1.38672,0.25781 -2.46812,2.5873 -36.3387,68.61242 -47.09765,91.80859 -17.18017,37.04235 -20.20778,46.77152 -31.45313,101.04688 -7.0906,34.22956 -8.88687,41.64737 -12.79101,52.8457 -5.51864,15.82468 -13.71199,26.09178 -24.12305,30.22657 -4.30036,1.70855 -6.85515,2.04506 -15.53125,2.03906 -18.93704,-0.005 -32.0456,-6.18396 -39.51953,-18.62891 -3.28953,-5.4774 -6.03987,-16.62709 -5.12891,-20.77734 0.50316,-2.29095 0.0946,-3.04771 -3.09961,-5.78125 -4.44467,-3.80494 -6.06025,-8.53736 -4.67383,-13.68555 1.02564,-3.81073 5.48751,-8.60915 9.36524,-10.07031 4.26621,-1.60804 10.65476,-1.12561 14.58789,1.10156 10.82596,6.1326 10.24915,19.68659 -1.06836,25.0957 -5.29186,2.52868 -5.63572,3.00905 -5.04687,7.07813 0.78792,5.45292 3.78848,10.64332 8.79687,15.2207 8.06084,7.36763 18.62549,9.30609 30.58789,5.61133 4.89243,-1.5127 6.60365,-2.61232 10.07422,-6.47266 9.25914,-10.29831 13.89914,-24.48555 20.32617,-62.13672 7.98868,-46.80722 15.87893,-80.33858 26.13086,-111.02929 10.15271,-30.39951 19.24152,-50.3503 35.16992,-77.21289 5.77891,-9.74361 8.77742,-15.64316 8.22852,-16.19141 -0.47417,-0.47631 -1.00772,-0.68652 -1.1836,-0.4707 -1.03531,1.26209 -11.02494,18.06405 -15.49023,26.05273 -2.89267,5.17461 -11.36119,18.58113 -18.81836,29.79492 -11.01021,16.55332 -15.18864,22.01541 -22.21094,29.03321 -15.9342,15.9226 -34.91289,26.20217 -73.51562,39.81836 -8.52276,3.00736 -17.52748,6.49303 -20.00977,7.74609 -26.26344,13.26186 -38.01232,37.67362 -26.70898,55.49805 6.87478,10.84141 19.84592,11.18058 29.25195,0.76953 1.82902,-2.02423 3.32422,-3.86897 3.32422,-4.09961 0,-0.23064 -0.86334,-2.07734 -1.91797,-4.10156 -5.02128,-9.63088 2.53537,-20.75391 14.10156,-20.75391 5.46194,0 9.33966,1.72566 12.8418,5.71484 5.14175,5.85687 4.80069,12.96214 -0.88867,18.44727 -3.19225,3.0808 -6.76711,4.73047 -10.24219,4.73047 -1.56875,0 -4.0622,1.83208 -8.29492,6.09766 -3.32754,3.35073 -8.17319,7.23209 -10.76758,8.62109 -12.22011,6.54492 -25.58721,4.21738 -35.40234,-6.16211 -10.73769,-11.3523 -13.48806,-26.30051 -7.84766,-42.63672 6.63833,-19.23146 17.99088,-31.84798 37.13086,-41.26367 4.46915,-2.19817 15.99991,-7.07813 25.62305,-10.8457 29.12969,-11.4032 43.11414,-19.65167 56.34765,-33.23243 20.34086,-20.87494 46.38591,-64.12736 70.38868,-116.89453 l 4.19921,-9.23242 5.69336,2.66406 c 7.99062,3.73731 17.64301,5.11102 26.14258,3.72266 6.72982,-1.10037 16.13431,-4.89304 20.35156,-8.20899 z m -9.79687,33.8418 c -0.33732,0.0698 -0.66654,0.56 -0.85547,1.55078 -1.0308,5.38914 2.93615,11.20082 8.55078,12.52539 v -0.002 c 1.6617,0.39319 3.53882,0.3941 4.23242,0.35351 1.24791,-0.0741 1.49588,-0.2159 2.58594,-0.50195 2.23555,-0.58433 7.26724,-5.20941 8.4082,-9.01563 0.6217,-2.07706 0.92507,-3.98118 0.67188,-4.23437 -0.76859,-0.76794 -2.40039,0.65911 -2.40039,2.10351 0,2.5828 -2.77482,6.70788 -5.4375,8.08399 -6.91214,3.57558 -14.60742,-0.68479 -14.60742,-8.08399 0,-1.84415 -0.58624,-2.89566 -1.14844,-2.77929 z"
       style="color:#000000;font-style:normal;font-variant:normal;font-weight:normal;font-stretch:normal;font-size:medium;line-height:normal;font-family:sans-serif;font-variant-ligatures:normal;font-variant-position:normal;font-variant-caps:normal;font-variant-numeric:normal;font-variant-alternates:normal;font-variant-east-asian:normal;font-feature-settings:normal;text-indent:0;text-align:start;text-decoration:none;text-decoration-line:none;text-decoration-style:solid;text-decoration-color:#000000;letter-spacing:normal;word-spacing:normal;text-transform:none;writing-mode:lr-tb;direction:ltr;text-orientation:mixed;dominant-baseline:auto;baseline-shift:baseline;text-anchor:start;white-space:normal;shape-padding:0;clip-rule:nonzero;display:inline;overflow:visible;visibility:visible;isolation:auto;mix-blend-mode:normal;color-interpolation:sRGB;color-interpolation-filters:linearRGB;solid-color:#000000;solid-opacity:1;vector-effect:none;fill:#000000;fill-opacity:1;fill-rule:nonzero;stroke:none;stroke-width:0.13155554;stroke-linecap:butt;stroke-linejoin:miter;stroke-miterlimit:10;stroke-dasharray:none;stroke-dashoffset:0;stroke-opacity:1;color-rendering:auto;image-rendering:auto;shape-rendering:auto;text-rendering:auto;enable-background:accumulate" />
    <ellipse
       style="fill:#13738d;fill-opacity:1;stroke:#000000;stroke-width:1.53294706;stroke-miterlimit:4;stroke-dasharray:none"
       id="path4406"
       cx="-502.65271"
       cy="513.35815"
       rx="17.100323"
       ry="8.7574539" />
    <path
       style="opacity:0.531;fill:#550000;fill-opacity:1;stroke:none;stroke-width:2.99172163;stroke-miterlimit:4;stroke-dasharray:none"
       d="m -500.56898,515.33977 a 14.103247,8.0971367 0 0 0 -12.53879,4.40861 19.224608,9.8453473 0 0 0 10.32866,1.55571 19.224608,9.8453473 0 0 0 13.40048,-2.78537 14.103247,8.0971367 0 0 0 -11.19035,-3.17895 z"
       id="path4408"
       inkscape:connector-curvature="0"
       inkscape:transform-center-x="-0.30939439"
       inkscape:transform-center-y="0.41371055" />
  </g>
</svg>
