<?xml version="1.0" encoding="UTF-8" standalone="no"?>
<!-- Created with Inkscape (http://www.inkscape.org/) -->

<svg
   xmlns:dc="http://purl.org/dc/elements/1.1/"
   xmlns:cc="http://creativecommons.org/ns#"
   xmlns:rdf="http://www.w3.org/1999/02/22-rdf-syntax-ns#"
   xmlns:svg="http://www.w3.org/2000/svg"
   xmlns="http://www.w3.org/2000/svg"
   xmlns:sodipodi="http://sodipodi.sourceforge.net/DTD/sodipodi-0.dtd"
   xmlns:inkscape="http://www.inkscape.org/namespaces/inkscape"
   width="210mm"
   height="297mm"
   viewBox="0 0 210 297"
   version="1.1"
   id="svg8"
   inkscape:export-filename="/home/oscar/sherlock_oshwi.png"
   inkscape:export-xdpi="209.60112"
   inkscape:export-ydpi="209.60112"
   inkscape:version="0.92+devel unknown"
   sodipodi:docname="oshwi-detective.svg">
  <defs
     id="defs2">
    <filter
       inkscape:collect="always"
       id="filter3881">
      <feGaussianBlur
         inkscape:collect="always"
         stdDeviation="0.77501872"
         id="feGaussianBlur3883" />
    </filter>
    <filter
       inkscape:collect="always"
       id="filter3971">
      <feGaussianBlur
         inkscape:collect="always"
         stdDeviation="1.4490246"
         id="feGaussianBlur3973" />
    </filter>
    <linearGradient
       inkscape:collect="always"
       x1="171.43"
       x2="199.41"
       gradientTransform="translate(2.1429,0.71429)"
       y1="203.86"
       gradientUnits="userSpaceOnUse"
       y2="177.52"
       id="linearGradient3983-997-724-991">
      <stop
         offset="0"
         style="stop-color:#1c3e47"
         id="stop4348" />
      <stop
         offset=".42765"
         style="stop-color:#88aeb9"
         id="stop4435" />
      <stop
         offset=".58450"
         style="stop-color:#b9d0d6"
         id="stop4437" />
      <stop
         offset=".74486"
         style="stop-color:#88aeb9"
         id="stop4350" />
      <stop
         offset="1"
         style="stop-color:#2d5059"
         id="stop4352" />
    </linearGradient>
    <linearGradient
       inkscape:collect="always"
       x1="132.33"
       y1="151.45"
       gradientTransform="translate(2.1429,0.71429)"
       x2="149.56"
       gradientUnits="userSpaceOnUse"
       y2="135.29"
       id="linearGradient4429">
      <stop
         offset="0"
         style="stop-color:#999999"
         id="stop4425" />
      <stop
         offset=".55469"
         style="stop-color:#f2f2f2"
         id="stop4431" />
      <stop
         offset="1"
         style="stop-color:#b3b3b3"
         id="stop4427" />
    </linearGradient>
    <linearGradient
       inkscape:collect="always"
       x1="38.214"
       y1="132.79"
       gradientTransform="translate(2.1429,0.71429)"
       x2="62.749"
       gradientUnits="userSpaceOnUse"
       y2="110.64"
       id="linearGradient4439">
      <stop
         offset="0"
         style="stop-color:#ffffff"
         id="stop3895" />
      <stop
         offset="1"
         style="stop-color:#ffffff;stop-opacity:0"
         id="stop3897" />
    </linearGradient>
    <linearGradient
       inkscape:collect="always"
       x1="217.86"
       y1="37.357"
       gradientTransform="rotate(-45,126.12606,192.03853)"
       x2="125.64"
       gradientUnits="userSpaceOnUse"
       y2="97.025"
       id="linearGradient4441">
      <stop
         offset="0"
         style="stop-color:#ffffff"
         id="stop3808" />
      <stop
         offset="1"
         style="stop-color:#ffffff;stop-opacity:0"
         id="stop3810" />
    </linearGradient>
    <radialGradient
       inkscape:collect="always"
       r="63.571"
       gradientTransform="matrix(3.5098,-0.30766,0.30795,3.5131,-437.61,-122.81)"
       cx="168.98"
       cy="84.004"
       gradientUnits="userSpaceOnUse"
       id="radialGradient4443">
      <stop
         offset="0"
         style="stop-color:#dcdcf7;stop-opacity:.4"
         id="stop4451" />
      <stop
         offset="1"
         style="stop-color:#dcdcf7"
         id="stop4453" />
    </radialGradient>
    <radialGradient
       inkscape:collect="always"
       r="77.5"
       gradientTransform="matrix(-1.5376,-2.6632,2.6658,-1.5391,315.77,494.99)"
       cx="123.17"
       cy="7.9658"
       gradientUnits="userSpaceOnUse"
       id="radialGradient4445">
      <stop
         offset="0"
         style="stop-color:#000000"
         id="stop3861" />
      <stop
         offset="1"
         style="stop-color:#ffffff"
         id="stop3863" />
    </radialGradient>
  </defs>
  <sodipodi:namedview
     id="base"
     pagecolor="#ffffff"
     bordercolor="#666666"
     borderopacity="1.0"
     inkscape:pageopacity="0.0"
     inkscape:pageshadow="2"
     inkscape:zoom="0.35"
     inkscape:cx="-500.8732"
     inkscape:cy="1191.1411"
     inkscape:document-units="mm"
     inkscape:current-layer="layer1"
     inkscape:document-rotation="0"
     showgrid="false"
     inkscape:snap-nodes="false"
     showguides="true"
     inkscape:guide-bbox="true"
     inkscape:window-width="1680"
     inkscape:window-height="986"
     inkscape:window-x="0"
     inkscape:window-y="27"
     inkscape:window-maximized="1" />
  <metadata
     id="metadata5">
    <rdf:RDF>
      <cc:Work
         rdf:about="">
        <dc:format>image/svg+xml</dc:format>
        <dc:type
           rdf:resource="http://purl.org/dc/dcmitype/StillImage" />
        <dc:title></dc:title>
      </cc:Work>
    </rdf:RDF>
  </metadata>
  <g
     inkscape:label="Capa 1"
     inkscape:groupmode="layer"
     id="layer1"
     transform="matrix(-1,0,0,1,200.63388,-4.7393402)">
    <path
       inkscape:connector-curvature="0"
       d="m 117.68158,-36.114098 c 4.4401,1.533277 9.33672,-2.172225 13.63483,1.328183 9.24897,6.14001 8.41873,19.079686 10.0299,28.8995626 3.23714,1.959242 0.78193,6.32735608 3.26574,8.9975263 -1.31044,5.0859444 4.16597,4.7654845 7.85767,5.5464206 6.71487,1.6101875 14.44633,0.2060803 20.24419,4.5298235 -0.95576,11.281173 -13.92669,15.232197 -23.12537,17.95364 C 124.1953,37.44475 97.18793,38.637847 71.44761,33.688961 63.52978,31.932841 51.88476,28.481735 52.25945,18.456764 54.08361,8.8153593 66.14276,6.4222637 74.38598,8.2572661 c 4.20739,-9.886926 2.76088,-21.0537191 6.3806,-31.1220751 6.5216,-13.887251 23.55133,-15.518145 36.915,-13.249289 z"
       style="fill:#000000;fill-rule:evenodd;stroke-width:0.98603034"
       id="path4735" />
    <path
       inkscape:connector-curvature="0"
       d="m 77.47225,9.0273558 c 19.49875,6.0966252 66.33125,8.5587432 90.03443,3.6354942 1.64165,0.363845 2.81404,0.807558 3.05058,1.479045 -0.66981,23.77615 -110.85939,27.796196 -115.88814,7.703856 -3.0074,-7.869509 8.22349,-14.8999052 21.79127,-11.216096 0.37469,-0.133114 0.7198,-0.7316344 1.01561,-1.6022992 z"
       style="fill:#4c2200;fill-rule:evenodd;stroke-width:0.98603034"
       id="path1295" />
    <path
       inkscape:connector-curvature="0"
       d="m 110.03985,-34.974247 c 5.69334,0.256368 10.2695,1.348889 11.4626,1.725553 1.1714,-0.669515 2.86343,-2.015446 7.17929,-0.646836 10.57616,2.752011 9.87214,25.8290636 11.77024,37.3764653 -20.18404,-1.4859478 -42.76315,-0.2662282 -62.24021,2.4345088 1.37157,-7.7462545 2.00164,-22.7674401 4.24979,-27.7636551 5.44191,-11.615438 18.08972,-13.552987 27.57829,-13.126036 z"
       style="fill:#632d00;fill-rule:evenodd;stroke-width:0.98603034"
       id="path2102" />
    <path
       inkscape:connector-curvature="0"
       d="m 127.01337,-34.071043 c -9.15332,7.47904 0.94857,28.5199406 4.68759,32.9846858 6.69811,9.3761623 -22.43613,8.7066478 -20.59423,0.83713968 9.54379,-4.35332388 9.71141,-15.90664048 9.37616,-31.31040648 1.54215,-1.653573 3.68381,-0.50189 6.53048,-2.511419 z"
       style="fill:#371800;fill-rule:evenodd;stroke-width:0.98603034"
       sodipodi:nodetypes="ccccc"
       id="path1316" />
    <path
       inkscape:connector-curvature="0"
       d="m 114.45233,-22.149937 c 2.17518,-19.687081 -25.51945,-11.788978 -25.53621,6.174522 3.72522,-10.364165 20.88018,-18.490041 25.53621,-6.174522 z"
       style="fill:#512400;fill-rule:evenodd;stroke-width:0.98603034"
       sodipodi:nodetypes="ccc"
       id="path1312" />
    <path
       inkscape:connector-curvature="0"
       d="m 126.8635,-32.169977 c 4.50024,0.272144 9.69071,13.619051 8.26589,13.24929 -2.39408,-7.539188 -9.5852,-14.29744 -9.99342,-4.553488 -0.83517,-2.718486 -1.3972,-7.285779 1.72753,-8.695802 z"
       style="fill:#512400;fill-rule:evenodd;stroke-width:0.98603034"
       sodipodi:nodetypes="cccc"
       id="path1314" />
    <path
       style="stroke:#010202;stroke-width:0.03480741;stroke-miterlimit:10"
       inkscape:connector-curvature="0"
       id="path10"
       d="m 100.73256,191.05536 c 2.27237,-0.33223 4.69815,-1.14684 6.99779,-2.34925 1.77804,-0.92916 2.27339,-1.09399 2.74726,-0.91263 0.98763,0.37757 3.2583,0.0471 4.26758,-0.62114 2.47708,-1.63946 2.76448,-4.639 0.64654,-6.75097 -1.89225,-1.88628 -4.9765,-1.89003 -7.0462,-0.007 -0.85501,0.77763 -1.23172,1.68207 -1.23172,2.95982 v 1.15997 l -1.64543,0.39529 c -7.23029,1.73491 -12.042132,1.29905 -14.670245,-1.3294 -1.060416,-1.06025 -1.827815,-2.5826 -1.834974,-3.64165 -0.01722,-2.36101 1.445308,-5.58828 6.412438,-14.14916 6.705451,-11.55753 9.284641,-17.46592 10.818591,-24.78195 0.40415,-1.92788 0.39989,-8.51657 -0.01,-14.02865 -0.40108,-5.40214 -0.24324,-15.57981 0.32132,-20.73171 0.42989,-3.92683 1.04848,-7.844624 1.31439,-8.328041 0.37075,-0.674159 3.05392,6.710741 4.1907,11.535191 1.50002,6.36591 1.83838,13.59773 0.90018,19.25027 -0.76859,4.63014 -0.82791,5.51055 -0.54887,8.16014 0.49842,4.73156 1.75742,8.89992 5.9655,19.75175 3.73932,9.64159 3.82149,12.87925 0.37279,14.67962 -1.45366,0.75837 -4.94872,0.87667 -6.25391,0.21052 -0.59745,-0.30495 -1.07917,-0.76962 -1.26684,-1.22269 -0.39274,-0.94826 -0.21052,-2.97159 0.37535,-4.16854 0.40193,-0.82126 0.61143,-0.97109 1.75673,-1.26087 1.64133,-0.41558 2.80675,-1.29735 3.37881,-2.55703 0.91791,-2.02129 0.25279,-4.22019 -1.63912,-5.42038 -1.86361,-1.18212 -3.9749,-1.15144 -5.80766,0.0835 -1.65804,1.11734 -2.37362,3.56324 -1.52354,5.20696 0.34432,0.66632 0.3271,0.81905 -0.27512,2.4372 -0.52944,1.42161 -0.64672,2.14725 -0.66615,4.11552 -0.0215,2.16856 0.0392,2.5163 0.65762,3.77581 0.89064,1.81417 2.49056,3.09022 4.77469,3.80835 1.41275,0.44388 2.23197,0.53541 4.69746,0.52109 5.77169,-0.0341 9.25482,-1.64645 10.79814,-4.99951 0.47864,-1.04048 0.5487,-1.5648 0.54188,-4.06183 -0.01,-3.59717 -0.59762,-5.86408 -3.81245,-14.69923 -3.4717,-9.54033 -4.36285,-12.90243 -4.5882,-17.31302 -0.11472,-2.24339 -0.0412,-3.09806 0.50302,-5.84157 1.23735,-6.23891 1.27451,-12.13265 0.11864,-18.87049 -0.39393,-2.29743 -1.65685,-7.60291 -2.24936,-9.4505 -0.39699,-1.23786 0.41473,0.48904 1.62821,3.46403 3.35716,8.22918 6.16954,16.9883 7.61945,23.72938 0.72291,3.35972 0.7299,3.46336 0.91774,13.53926 0.10449,5.58402 0.31057,11.01326 0.45819,12.06413 1.50923,10.72961 4.58735,17.94848 9.73005,22.81589 2.36169,2.23606 5.34026,3.85234 8.17088,4.43445 1.33332,0.27376 1.87963,0.50797 2.23248,0.95661 1.67815,2.13379 5.82385,2.05981 7.67178,-0.13671 2.39629,-2.84766 0.45631,-6.83943 -3.46131,-7.12256 -1.24605,-0.0905 -1.61406,-0.006 -2.94483,0.66888 l -1.52099,0.772 -1.19916,-0.39819 c -5.93431,-1.971 -9.68897,-9.03544 -10.79848,-20.31801 -0.14199,-1.44531 -0.34791,-7.51939 -0.45751,-13.49768 -0.21648,-11.84235 -0.32694,-13.0255 -1.81145,-19.47049 -1.24093,-5.38714 -3.57807,-12.88028 -5.50782,-17.65956 -0.31398,-0.77763 -0.5337,-1.45094 -0.48802,-1.49662 0.13364,-0.13381 5.67112,10.89854 7.78428,15.50822 4.22121,9.20947 5.17901,12.33617 8.03178,26.22385 2.83232,13.78591 4.2611,17.7591 7.35848,20.45847 2.65214,2.31174 7.09938,2.9767 11.67156,1.74548 4.48132,-1.2065 7.83337,-5.28929 7.83337,-9.54118 0,-1.25389 0.0718,-1.43287 0.94467,-2.34993 2.60101,-2.73465 0.79979,-6.96352 -3.13914,-7.36955 -1.10661,-0.11455 -1.55662,-0.0349 -2.65743,0.46875 -1.82236,0.83439 -2.67635,2.11777 -2.66561,4.00592 0.0106,1.81691 0.81529,3.06517 2.47828,3.84535 1.44701,0.67928 1.499,0.9965 0.49313,3.0096 -1.56156,3.12517 -5.06378,4.44774 -8.83327,3.33602 -2.85329,-0.84138 -4.94583,-4.31376 -6.43682,-10.68103 -0.26114,-1.11701 -0.9578,-4.88616 -1.54758,-8.37577 -2.40601,-14.23814 -5.13776,-24.7811 -8.83276,-34.09489 -0.95303,-2.40089 -1.65838,-4.28223 -1.56787,-4.1803 0.0905,0.10159 0.73689,1.04508 1.43661,2.09646 4.34786,6.53158 7.25996,9.16703 13.84353,12.52896 3.12364,1.59497 5.95817,2.75664 11.10888,4.55275 4.13735,1.44326 6.37136,2.54152 8.27793,4.07103 1.73747,1.39383 2.8688,2.75732 3.71103,4.47297 0.58705,1.19525 0.84478,1.6727 0.84342,3.54876 -0.001,1.76491 -0.26983,2.30049 -0.70791,3.12227 -1.50173,2.81919 -4.52718,3.18874 -6.82631,0.83319 l -0.88706,-0.90768 0.42239,-0.82178 c 0.24734,-0.4812 0.41728,-1.32156 0.41064,-2.02981 -0.0373,-3.81756 -5.14049,-5.7872 -8.14957,-3.14511 -1.97339,1.73253 -2.04958,4.66645 -0.16654,6.4346 0.64944,0.60973 2.38129,1.38292 3.09772,1.38292 0.17779,0 1.00707,0.68337 1.84282,1.51895 0.97979,0.97962 2.10378,1.80668 3.16642,2.32947 1.50582,0.74064 1.88406,0.94962 3.85319,0.94655 1.89753,-0.003 2.26503,-0.2262 3.47869,-0.83797 3.80597,-1.91713 6.14772,-6.75949 5.43299,-11.23297 -0.31228,-1.95583 -1.3744,-4.79668 -2.47777,-6.62909 -1.21229,-2.01379 -2.4793,-3.43029 -4.33269,-4.84423 -2.74658,-2.09561 -3.7712,-2.58942 -12.42276,-5.9863 -8.16798,-3.20613 -12.14509,-6.19357 -17.11427,-12.85572 -1.25951,-1.68856 -3.46062,-5.017248 -4.89144,-7.397175 -2.48101,-4.127456 -7.8107,-14.423425 -9.75375,-18.842704 l -0.91263,-2.075319 1.59122,-1.567867 c 0.87496,-0.862174 1.64543,-1.567697 1.71225,-1.567697 0.0665,0 0.88791,0.538305 1.82509,1.196782 l 1.70406,1.19644 1.93026,-1.842815 c 1.06195,-1.013199 3.13744,-3.016926 4.61258,-4.452348 l 2.68214,-2.609703 -0.43347,-0.626601 c -0.23881,-0.344154 -1.73764,-2.469928 -3.33108,-4.723716 l -2.89726,-4.097797 1.82491,-4.502633 c 1.004,-2.476575 1.86157,-4.548826 1.90572,-4.604566 0.0442,-0.05642 2.55652,-0.553475 5.58248,-1.105075 3.0263,-0.55143 5.53697,-1.04337 5.5789,-1.092632 0.0421,-0.04909 0.14796,-2.903572 0.23472,-6.342891 0.14779,-5.858111 0.13125,-6.260731 -0.26574,-6.37954 -0.23302,-0.06989 -2.89625,-0.571714 -5.91829,-1.116155 -3.02204,-0.5441 -5.57498,-1.064677 -5.67299,-1.156383 -0.0977,-0.09205 -0.91433,-2.056228 -1.81418,-4.364733 l -1.63639,-4.197684 3.45773,-4.838093 3.45739,-4.838264 -4.53622,-4.5363829 -4.53655,-4.5362129 -4.90985,3.3699432 c -2.70056,1.853554 -5.04128,3.3706246 -5.20117,3.3706246 -0.16006,0 -2.07907,-0.7571714 -4.26434,-1.6824143 L 120.36721,6.865204 119.16702,0.84294333 117.967,-5.1789764 h -6.1905 -6.1905 L 104.41189,0.83748869 103.23727,6.8539538 99.054581,8.5329594 94.871897,10.212135 89.79022,6.760884 84.708714,3.3094622 80.26898,7.8466978 l -4.439734,4.5370652 2.696807,4.118933 c 1.483321,2.26555 2.987437,4.557009 3.3425,5.092245 l 0.646204,0.973312 -1.765257,4.163081 -1.765087,4.163082 -5.792654,1.004165 c -3.185679,0.552111 -5.82811,1.03979 -5.871918,1.083768 -0.0554,0.0554 -0.221765,9.68897 -0.221765,12.847035 0,0.0015 2.515952,0.426825 5.591686,0.945016 3.075392,0.517849 5.665493,1.027006 5.756347,1.131496 0.09068,0.10432 1.00263,2.138729 2.026568,4.520701 l 1.862759,4.331494 -3.261192,4.824456 -3.261362,4.824286 4.34513,4.518997 4.34496,4.518996 1.079507,-0.631715 1.078825,-0.632738 0.610578,0.812059 c 0.335802,0.446599 1.07678,1.317807 1.64696,1.936226 l 1.036722,1.124337 -3.759609,5.327647 c -6.695549,9.48827 -13.160987,13.225678 -17.21553,12.819694 -4.467245,-0.447309 -5.677998,-7.794519 -7.476131,-10.480239 -1.798133,-2.685721 -4.967551,-4.179 -7.442252,-3.51388 -1.481414,0.601363 -2.969265,1.088997 -4.185333,2.832282 -1.695468,2.430527 6.962255,17.588301 9.095844,18.355931 2.998673,1.07887 7.506941,1.52066 9.841871,1.61683 3.513229,0.0158 7.099249,-1.71343 8.155862,-2.37283 1.056614,-0.65941 4.304604,-2.60397 7.474424,-6.548851 0.941354,-1.17153 -5.205119,10.033301 -7.362428,13.965751 -5.121905,9.33647 -9.13362,14.46332 -12.743738,16.28533 -1.772246,0.89439 -5.021675,1.69145 -10.202388,2.50113 -12.255036,1.91611 -16.783578,3.35272 -19.973518,6.33709 -1.066893,0.99786 -1.720427,1.86208 -2.204356,2.9167 -0.616544,1.34116 -0.687625,1.74889 -0.679102,3.88779 0.008,2.02418 0.109093,2.64363 0.664784,4.06115 2.48561,6.34289 7.823484,9.66545 13.581024,8.45264 3.947965,-0.83098 7.172337,-3.93569 8.061613,-7.76297 0.263016,-1.13252 0.351654,-1.24144 1.227635,-1.50395 1.171213,-0.35114 2.574418,-1.55661 3.001925,-2.57885 0.724274,-1.73389 0.258073,-3.49045 -1.298885,-4.89536 -1.096212,-0.98883 -2.072081,-1.25781 -3.988363,-1.09894 -3.670459,0.30427 -5.442876,4.32706 -3.108461,7.05506 l 0.830468,0.96956 -0.941947,1.39792 c -1.397922,2.07464 -2.30271,2.59249 -4.53127,2.59249 -2.1689,0 -3.48807,-0.57222 -5.150541,-2.23504 -1.499514,-1.49934 -2.143503,-2.91158 -2.148957,-4.71059 -0.0048,-1.71719 0.706716,-3.00704 2.294868,-4.15728 2.15765,-1.56327 4.156604,-2.0039 13.581195,-2.99562 8.40338,-0.88434 10.897343,-1.48741 15.290712,-3.69671 3.396535,-1.70799 6.155729,-4.71179 10.67626,-11.62077 1.30059,-1.98872 3.378977,-5.39668 4.618032,-7.5741 1.239396,-2.17742 2.284812,-3.92683 2.323846,-3.88831 0.03938,0.0394 -0.09648,0.54445 -0.301198,1.12366 -0.664613,1.88168 -1.743097,6.48607 -2.149468,9.17555 -0.53302,3.53103 -0.530634,8.31509 0.0068,12.42226 0.630863,4.82002 0.589783,10.90654 -0.09494,14.17285 -0.891834,4.2524 -2.383677,7.07654 -4.648374,8.7968 -3.400967,2.58379 -8.467473,1.65531 -10.353073,-1.89754 -0.650976,-1.22559 -0.543418,-3.16062 0.256198,-4.61939 0.637681,-1.16303 0.729046,-1.23173 1.784348,-1.33349 3.253521,-0.31398 5.294237,-3.16182 4.208935,-5.87413 -1.346273,-3.36483 -6.176695,-4.0678 -8.55219,-1.2452 -0.977232,1.1615 -1.137292,3.14426 -0.395972,4.91139 0.274266,0.65473 0.245629,0.82246 -0.288414,1.6727 -1.869236,2.97585 -2.586862,6.88785 -1.734064,9.45494 1.13286,3.41085 6.513178,6.42096 11.477751,6.42096 7.286543,0 13.471761,-6.66659 15.515886,-16.7229 0.656943,-3.2329 0.714046,-8.23923 0.139434,-12.2535 -1.16303,-8.12554 -0.172162,-15.79834 3.225737,-24.98395 0.940925,-2.54373 4.105467,-9.194981 4.731557,-9.945164 0.387449,-0.465178 0.39495,-0.458189 0.2683,0.23864 -0.333074,1.832247 -1.08053,8.474974 -1.317466,11.705994 -0.146934,2.00492 -0.233015,7.74098 -0.195173,13.02039 l 0.0675,9.43635 -0.649273,3.23562 c -1.841451,9.17709 -4.984515,19.38596 -9.632719,31.28542 -4.411949,11.29502 -4.516781,11.63457 -4.523769,14.69633 -0.0056,2.49873 0.03392,2.71317 0.779331,4.22802 0.492281,1.00127 1.201725,1.96265 1.902987,2.58005 3.153632,2.77572 9.673799,4.32876 14.939401,3.55863 h 0.001 z"
       stroke-miterlimit="10"
       sodipodi:nodetypes="ccccccscccccccccccccccccccccccccccccccccccccccccccccccccccccccsccccccccccccccccccccccccscccccccccccccscccccccccccccccccccccccscccccccccccccccccccccsccccccccccccccszcssczsscccccccccccccccscccccccccccccccccccccscccccccccccccccc" />
    <g
       id="Grupo_patas"
       transform="matrix(-0.17045742,0,0,0.17045742,219.93054,-84.954924)">
      <path
         style="fill:#13738d;stroke:#010202;stroke-width:0.2044;stroke-miterlimit:10"
         inkscape:connector-curvature="0"
         d="m 777.654,1033.662 c 0.402,-0.431 1.561,0.316 3.37,2.685 1.463,1.916 7.786,11.884 14.052,22.147 32.34779,40.5784 71.42743,53.6859 88.47694,53.1145 17.04951,-0.5715 30.29085,-1.0695 56.45558,-7.9782 83.55758,-51.0433 62.48078,-82.3784 57.65512,-97.4247 -4.82571,-15.04632 -19.99584,-22.42485 -32.19312,-22.34976 -12.19729,0.0751 -20.66688,4.25715 -31.22313,16.48606 -10.55625,12.2289 -20.26414,64.1942 -49.29598,66.6514 C 868.02807,1065.3131 829.281,1060.402 766.266,968.165 l -6.83,-9.996 -7.802,5.276 c -9.097,6.152 -17.165,10.36 -25.846,13.155"
         stroke-miterlimit="10"
         id="Ultima_pata"
         sodipodi:nodetypes="ccczczzzccccc" />
      <path
         style="fill:#34aacd;stroke:#010202;stroke-width:0.2044;stroke-miterlimit:10"
         inkscape:connector-curvature="0"
         id="path14"
         d="m 725.912,976.562 c -8.701,2.8 -18.021,4.18 -29.608,4.67 -13.991,0.586 -18.901,0.208 -29.223,-2.264 -18.29,-4.372 -35.034,-13.549 -49.212,-26.97 l -11.615,-10.994 -3.588,2.826 c -6.546,5.147 -21.144,11.036 -31.59,12.744 -13.193,2.155 -28.176,0.022 -40.579,-5.779 l -8.836,-4.135 -6.518,14.33 c -37.257,81.905 -77.684,149.041 -109.257,181.443 -20.541,21.08 -42.247,33.884 -87.462,51.584 -14.937,5.848 -32.835,13.424 -39.772,16.836 -29.709,14.615 -47.332,34.198 -57.636,64.049 -8.755,25.357 -4.485,48.56 12.182,66.181 15.235,16.111 35.984,19.721 54.952,9.562 4.027,-2.156 11.548,-8.18 16.713,-13.381 6.57,-6.621 10.439,-9.463 12.874,-9.463 5.394,0 10.943,-2.562 15.898,-7.344 8.831,-8.514 9.362,-19.543 1.381,-28.634 -5.436,-6.192 -11.456,-8.871 -19.934,-8.871 -17.953,0 -29.682,17.265 -21.888,32.214 1.637,3.142 2.978,6.01 2.978,6.368 0,0.358 -2.323,3.222 -5.162,6.364 -14.6,16.16 -34.732,15.632 -45.403,-1.196 -17.545,-27.667 0.689,-65.559 41.455,-86.144 3.853,-1.945 17.831,-7.355 31.06,-12.023 59.919,-21.135 89.378,-37.092 114.111,-61.807 10.9,-10.893 17.386,-19.37 34.476,-45.064 11.575,-17.406 24.719,-38.217 29.209,-46.249 6.931,-12.4 22.438,-38.478 24.045,-40.437 0.273,-0.335 1.1,-0.01 1.836,0.73 0.852,0.851 -3.801,10.009 -12.771,25.133 -24.724,41.696 -38.832,72.664 -54.591,119.85 -15.913,47.638 -28.161,99.684 -40.561,172.338 -9.976,58.442 -17.179,80.464 -31.551,96.449 -5.387,5.992 -8.042,7.697 -15.636,10.045 -18.568,5.735 -34.966,2.728 -47.478,-8.708 -7.774,-7.105 -12.431,-15.162 -13.654,-23.626 -0.914,-6.316 -0.382,-7.063 7.832,-10.988 17.567,-8.396 18.463,-29.434 1.659,-38.953 -6.105,-3.457 -16.02,-4.205 -22.642,-1.709 -6.019,2.268 -12.945,9.717 -14.537,15.632 -2.152,7.991 0.356,15.335 7.255,21.241 4.958,4.243 5.59,5.419 4.809,8.975 -1.414,6.442 2.858,23.748 7.964,32.25 11.601,19.317 31.948,28.909 61.342,28.917 13.467,0.01 17.432,-0.515 24.107,-3.167 16.16,-6.418 28.877,-22.355 37.443,-46.918 6.06,-17.382 8.848,-28.896 19.854,-82.027 17.455,-84.246 22.154,-99.346 48.821,-156.843 16.7,-36.005 69.273,-138.488 73.104,-142.504 0.686,-0.72 1.656,-0.898 2.155,-0.402 0.5,0.5 -2.576,8.656 -6.836,18.129 -27.124,60.321 -48.394,125.705 -57.984,178.253 -3.355,18.371 -3.69,24.118 -4.786,81.736 -1.248,65.656 -2.566,86.891 -6.943,111.861 -9.702,55.326 -30.083,85.864 -64.515,96.65 l -7.759,2.433 -5.398,-3.666 c -14.067,-9.545 -29.288,-7.106 -38.297,6.13 -7.438,10.924 -1.585,25.563 12.587,31.484 10.471,4.373 22.782,0.993 29.775,-8.178 2.116,-2.776 4.418,-4.692 5.113,-4.262 2.344,1.451 17.265,-2.47 27.768,-7.296 35.95,-16.51 62.539,-55.205 75.749,-110.229 8.465,-35.264 11.541,-70.97 10.95,-127.148 -0.351,-33.616 -0.091,-38.692 2.745,-53.515 10.282,-53.718 37.058,-132.194 66.261,-194.202 4.622,-9.82 7.508,-14.368 9.114,-14.368 1.656,0 2.074,0.718 1.415,2.437 -10.116,26.36 -22.531,70.497 -26.69,94.886 -6.83,40.06 -5.913,85.143 2.305,113.134 2.953,10.055 2.178,40.031 -1.479,57.234 -2.952,13.876 -13.494,46.358 -31.617,97.406 -13.222,37.242 -17.608,61.48 -14.081,77.785 5.082,23.484 30.089,36.269 67.935,34.725 23.627,-0.962 36.692,-7.104 45.606,-21.438 3.988,-6.413 4.203,-7.521 4.168,-21.585 -0.026,-12.228 -0.614,-16.302 -3.345,-23.235 -3.883,-9.854 -3.998,-12.062 -1.055,-19.801 7.087,-18.632 -16.125,-35.212 -35.549,-25.399 -8.102,4.094 -12.571,10.794 -12.571,18.846 0,11.747 8.32,20.881 20.589,22.604 6.506,0.915 6.877,1.223 10.712,8.887 12.943,25.883 0.766,42.625 -28.993,39.857 -26.183,-2.433 -37.305,-16.77 -33.165,-42.747 2.268,-14.215 7.732,-30.977 22.433,-68.82 21.336,-54.922 27.629,-77.769 28.947,-105.112 0.63,-13.09 0.194,-19.278 -2.334,-32.937 -6.564,-35.474 -5.178,-79.983 3.729,-119.829 6.743,-30.166 24.865,-78.488 29.436,-78.488 1.046,0 1.903,0.297 1.903,0.663 0,0.365 1.528,9.379 3.396,20.034 6.393,36.443 8.403,63.18 8.401,111.748 0,31.329 -0.726,52.665 -2.403,70.777 -2.687,29.001 -1.98,43.65 3.278,67.923 7.304,33.712 27.384,78.178 61.731,136.7 22.793,38.836 32.919,59.498 35.704,72.859 1.891,9.069 1.891,10.938 -0.014,17.474 -3.906,13.439 -14.96,24.009 -30.212,28.885 -16.924,5.41 -36.56,4.093 -79.628,-5.345 -2.917,-0.642 -3.153,-1.256 -2.333,-6.107 3.05,-18.056 -18.565,-32.451 -35.644,-23.736 -6.187,3.156 -12.343,9.923 -13.607,14.959 -2.279,9.091 3.519,20.553 12.566,24.849 5.458,2.591 17.908,3.058 22.072,0.828 2.127,-1.137 3.609,-0.861 6.564,1.223 5.604,3.952 18.066,10.041 26.911,13.147 19.174,6.736 39.69,8.274 61.164,4.58 h 0.004 c 29.729,-5.109 46.478,-14.619 55.991,-31.795 3.915,-7.064 4.104,-8.196 4.046,-24.229 -0.07,-19.33 0.75,-16.466 -19.865,-69.376 -29.142,-74.799 -41.968,-113.164 -53.652,-160.474 -13.113,-53.092 -13.027,-52.256 -13.199,-130.342 -0.136,-62.547 -0.434,-70.951 -3.347,-94.174 -1.755,-14.023 -4.025,-30.277 -5.043,-36.127 -3.404,-19.583 3.054,-14.342 17.881,14.516 21.875,42.572 36.143,89.832 40.247,133.303 1.779,18.826 1.102,35.603 -2.349,58.165 -11.496,75.197 19.536,147.809 69.424,162.441 9.672,2.84 27.888,2.872 38.692,0.069 19.617,-5.084 38.229,-18.195 43.397,-30.565 5.707,-13.657 3.255,-30.231 -7.492,-50.649 l -6.692,-12.708 2.529,-4.161 c 7.939,-13.066 1.396,-28.362 -14.115,-33.013 -16.361,-4.9 -33.785,7.864 -32.026,23.465 1.292,11.47 11.375,20.073 23.812,20.324 5.272,0.105 6.479,0.758 9.626,5.204 4.857,6.863 6.841,13.21 6.805,21.762 -0.102,23.281 -26.17,40.459 -51.538,33.962 -21.849,-5.6 -36.197,-23.299 -44.773,-55.236 -3.432,-12.784 -3.664,-15.652 -3.762,-46.561 -0.071,-22.61 0.554,-37.326 1.995,-46.949 2.792,-18.598 2.52,-54.531 -0.55,-72.88 -6.137,-36.685 -18.225,-72.144 -38.081,-111.709 -7.237,-14.42 -12.61,-26.554 -11.941,-26.968 1.662,-1.025 3.953,2.733 14.527,23.829 30.924,61.695 67.575,123.471 91.49,154.206 14.691,18.881 24.573,27.704 39.672,35.428 24.218,12.388 40.752,16.298 89.887,21.252 52.344,5.277 63.75,7.78 77.748,17.054 12.85,8.509 18.688,21.368 16.051,35.347 -3.427,18.163 -22.951,35.975 -41.89,38.22 -14.455,1.712 -26.59,-5.263 -36.542,-20.997 l -5.197,-8.222 5.643,-5.267 c 5.037,-4.697 5.711,-6.115 6.302,-13.212 0.564,-6.813 0.151,-8.723 -2.894,-13.322 -9.652,-14.584 -33.858,-14.368 -42.977,0.383 -3.767,6.094 -3.831,16.456 -0.14,22.428 2.971,4.811 10.821,9.778 17.768,11.245 3.979,0.843 4.466,1.538 5.269,7.511 2.595,19.275 18.116,36.777 38.815,43.773 7.34,2.48 11.348,2.938 21.799,2.487 11.347,-0.487 13.997,-1.142 23.325,-5.75 16.93,-8.368 30.43,-24.876 37.475,-45.839 4.338,-12.898 3.525,-31.252 -1.827,-41.345 -13.814,-26.053 -39.846,-36.899 -119.43,-49.765 -65.577,-10.599 -76.962,-15.598 -99.979,-43.907 -21.165,-26.026 -40.607,-59.297 -76.007,-130.062 -10.84,-21.667 -21.29,-41.9 -23.223,-44.963 -2.213,-3.506 -2.947,-6.008 -2.429,-6.564"
         stroke-miterlimit="10" />
    </g>
    <path
       style="fill:#010202;stroke-width:0.17045742"
       inkscape:connector-curvature="0"
       id="path16"
       d="m 117.14608,88.124131 c 1.48554,-0.35046 2.53487,-1.887986 2.26214,-3.313863 -0.1333,-0.699045 -0.52995,-0.455803 -0.52995,0.324892 0,1.957704 -2.03612,3.084939 -3.86495,2.1389 -0.7045,-0.364097 -1.43883,-1.455536 -1.43883,-2.1389 0,-0.382165 -0.43177,-0.759728 -0.63513,-0.556543 -0.067,0.06699 0.0135,0.571203 0.17796,1.120757 0.30188,1.007063 1.63315,2.230777 2.22464,2.385381 0.28841,0.07568 0.35404,0.113014 0.68421,0.132616 0.18359,0.01074 0.68047,0.01074 1.12025,-0.09341 h -3.4e-4 z" />
    <path
       style="fill:#ffffff;stroke:#010202;stroke-width:0.03480741;stroke-miterlimit:10"
       inkscape:connector-curvature="0"
       id="path18"
       d="m 103.05283,77.847594 v -3.813473 l 1.01524,-0.267959 c 3.90399,-1.029052 6.53926,-5.060881 5.90124,-9.028959 -0.87956,-5.467081 -6.69113,-8.427074 -11.631502,-5.923566 -1.423149,0.721205 -3.046927,2.443677 -3.70387,3.928191 -0.590294,1.33417 -0.811547,3.861031 -0.453757,5.182247 0.679613,2.508792 2.926242,4.928605 5.243611,5.647424 l 1.120248,0.348245 0.0663,3.903816 0.01,3.870576 -1.262236,-0.121195 c -0.724955,-0.08506 -2.155945,-0.460405 -3.179883,-0.833878 -5.520263,-2.014977 -9.645674,-6.519314 -11.189507,-12.217706 -0.572055,-2.112649 -0.573248,-6.482666 -0.0026,-8.600258 1.364511,-5.05662 4.910366,-9.34584 9.58482,-11.594344 2.397313,-1.152974 4.563316,-1.618663 7.525696,-1.617811 3.10233,8.52e-4 4.88361,0.431257 7.88366,1.903669 1.91952,0.942629 2.60271,1.448888 4.42899,3.284884 3.59171,3.609266 5.13094,7.306317 5.12327,12.302253 -0.009,5.189917 -1.87043,9.418796 -5.71356,12.976924 -2.64277,2.446916 -7.01875,4.428995 -9.87085,4.470587 l -0.89592,0.01364 v -3.813303 z"
       stroke-miterlimit="10" />
    <path
       style="fill:#ffffff;stroke:#010202;stroke-width:0.03480741;stroke-miterlimit:10"
       inkscape:connector-curvature="0"
       id="path20"
       d="m 125.98736,73.779969 v -3.818928 l 0.89252,-0.373132 c 2.02026,-0.843764 3.02937,-2.523963 2.88465,-4.800933 -0.0788,-1.238032 -0.22466,-1.663664 -0.8245,-2.408563 -0.40075,-0.497565 -1.14854,-1.150929 -1.66162,-1.452297 -2.00032,-1.172918 -5.29185,-0.232675 -6.28783,1.796109 -0.49979,1.018143 -0.73604,0.981835 -0.74081,-0.113695 -0.0121,-2.559759 -1.61764,-6.854092 -3.45739,-9.246292 l -0.9099,-1.183827 1.0299,-0.887571 c 1.25303,-1.078655 3.07471,-1.995205 4.92554,-2.477088 3.84484,-1.001608 7.66896,0.07161 10.83077,3.208364 4.67088,4.633714 5.75056,11.97327 2.68317,18.238091 -0.52927,1.08053 -1.21663,2.301673 -2.43472,3.523512 -2.24918,2.256004 -3.37812,2.880219 -6.87029,3.799496 -0.0329,0.0089 -0.0595,-1.702529 -0.0595,-3.803246 z"
       stroke-miterlimit="10"
       sodipodi:nodetypes="cccccccccccccccccc" />
    <path
       style="fill:#ffffff;stroke:#010202;stroke-width:0.03480741;stroke-miterlimit:10"
       inkscape:connector-curvature="0"
       id="path22"
       d="m 120.45568,76.890646 c -0.64518,-0.245118 -1.70628,-0.788195 -2.35845,-1.206668 l -1.18621,-0.761263 0.44609,-0.632908 c 1.11121,-1.575708 2.40754,-4.879003 2.77913,-7.081824 l 0.16092,-0.954221 0.45426,0.933596 c 0.61655,1.267862 1.05565,1.711563 2.28107,2.304584 l 1.04337,0.504895 v 3.832224 3.832053 l -1.22372,-0.162446 c -0.67313,-0.08932 -1.75145,-0.362904 -2.39646,-0.608022 z"
       stroke-miterlimit="10" />
    <path
       style="fill:#15738d;stroke:#010202;stroke-width:0.0348415;stroke-miterlimit:10"
       inkscape:connector-curvature="0"
       id="path28"
       d="m 98.760542,19.943379 -2.910049,-1.092291 0.0048,-0.0097 c 0.298471,-0.609897 0.461258,-1.285249 0.461258,-2.010034 0,-0.49569 -0.05352,-0.894049 -0.198583,-1.3415 l -0.02489,-0.07926 3.309942,-1.03979 0.0675,-0.02131 c 0.397677,0.367677 0.92558,0.596601 1.5065,0.609897 l 0.005,0.03972 0.28535,2.439928 h -1.7e-4 c -1.18468,0.384722 -2.121342,1.320022 -2.506405,2.50436"
       stroke-miterlimit="10" />
    <g
       id="Grupo_cabeza"
       transform="matrix(-0.17045742,0,0,0.17045742,219.93054,-84.954924)">
      <path
         style="fill:#34aacd"
         inkscape:connector-curvature="0"
         id="path31"
         d="m 777.533,810.243 -8.983,-9.186 c -15.353,-15.702 -30.402,-24.315 -52.043,-29.785 -16.778,-4.246 -41.981,-3.312 -58.165,2.15 -13.74,4.636 -27.431,12.571 -37.375,21.658 l -7.496,6.85 -5.584,-4.826 c -18.911,-16.348 -45.139,-21.99 -68.675,-14.776 -36.248,11.11 -60.708,50.471 -57.683,92.817 m 0,0 c 1.023,14.297 3.662,23.895 10.328,37.539 2.742,5.612 4.743,10.395 4.447,10.625 -0.298,0.229 -4.269,3.05 -8.827,6.264 h -10e-4 c -4.557,3.213 -8.657,5.823 -9.11,5.799 -1.542,-0.074 -49.175,-45.868 -49.175,-47.277 0,-0.355 8.299,-12.4 18.445,-26.767 10.143,-14.368 18.453,-26.81 18.453,-27.649 0.012,-1.893 -21.353,-55.571 -22.645,-56.894 -0.515,-0.528 -14.184,-3.297 -30.371,-6.152 -16.187,-2.856 -30.755,-5.684 -32.371,-6.282 -2.856,-1.059 -2.945,-1.996 -3.241,-34.724 l -0.307,-33.636 7.449,-1.492 c 4.097,-0.821 19.746,-3.766 34.777,-6.542 15.03,-2.778 27.396,-5.155 27.478,-5.282 1.378,-2.171 20.175,-52.193 20.175,-53.692 0,-1.157 -8.516,-13.996 -18.921,-28.531 -10.406,-14.535 -18.921,-26.953 -18.921,-27.595 0,-1.447 46.583,-48.087 48.029,-48.087 0.576,0 13.727,8.67 29.222,19.271 15.497,10.599 28.895,19.062 29.772,18.803 0.879,-0.255 12.716,-5.212 26.306,-11.015 l 24.71,-10.549 6.882,-34.533 6.881,-34.534 33.196,-0.375 33.195,-0.375 0.757,3.178 c 0.417,1.749 3.58,17.314 7.033,34.589 3.452,17.276 6.475,31.607 6.715,31.85 0.241,0.24 12.046,5.17 26.234,10.956 l 25.796,10.52 29.289,-19.773 29.29,-19.772 23.668,23.639 c 13.02,13.003 23.67,24.165 23.67,24.807 0,0.642 -8.102,13.579 -18.003,28.747 -9.904,15.169 -18.438,28.345 -18.972,29.28 -0.532,0.936 2.28,8.819 6.247,17.519 3.967,8.701 9.145,20.343 11.506,25.872 l 4.289,10.052 11.321,2.067 c 6.227,1.136 21.173,3.796 33.217,5.91 l 21.896,3.842 1.023,34.231 c 0.563,18.829 0.778,34.478 0.479,34.776 -0.3,0.302 -10.299,2.178 -22.219,4.173 -11.92,1.997 -26.659,4.707 -32.755,6.024 l -11.081,2.394 -3.808,9.111 c -2.097,5.01 -7.467,17.492 -11.935,27.736 l -8.121,18.628 18.457,27.178 c 10.153,14.948 18.437,27.692 18.41,28.324 -0.029,0.63 -10.349,11.854 -22.934,24.945 l -22.884,23.798 -5.095,-2.744 c -2.805,-1.508 -5.098,-2.829 -5.098,-2.93 0,-0.102 2.207,-4.96 4.903,-10.795 6.828,-14.777 9.421,-27.021 9.421,-44.443 0,-18.485 -2.774,-30.557 -10.849,-47.197 l -6.147,-12.669 -0.088,-0.191 c 22.915,-38.899 22.778,-101.242 7.991,-155.164 v 0 c 5.35,-3.014 8.962,-8.748 8.962,-15.326 0,-9.709 -7.869,-17.578 -17.579,-17.578 -2.124,0 -4.16,0.376 -6.045,1.065 l -0.183,-0.277 -6.148,-8.471 -0.174,-0.238 c 6.848,-4.894 11.311,-12.911 11.311,-21.969 0,-14.903 -12.079,-26.98 -26.981,-26.98 -10.126,0 -18.948,5.577 -23.563,13.826 l -0.235,-0.07 -18.023,-5.408 -0.567,-0.17 c 0.797,-1.723 1.242,-3.643 1.242,-5.667 0,-7.45 -6.041,-13.49 -13.49,-13.49 -7.45,0 -13.49,6.041 -13.49,13.49 0,5.985 3.648,10.975 9.043,12.74 l 0.248,0.083 -1.833,14.225 h 0.001 c -0.798,-0.083 -1.606,-0.126 -2.426,-0.126 -12.644,0 -22.893,10.249 -22.893,22.894 0,12.644 10.25,22.893 22.893,22.893 12.643,0 22.894,-10.249 22.894,-22.893 0,-0.631 -0.026,-1.256 -0.077,-1.875 l 18.721,-7.239 10e-4,10e-4 c 4.923,6.529 12.746,10.748 21.554,10.748 3.631,0 7.095,-0.717 10.257,-2.018 l 0.136,0.188 6.378,8.754 0.1,0.138 c -3.809,3.224 -6.229,8.042 -6.229,13.424 0,9.711 7.87,17.579 17.579,17.579 1.051,0 2.081,-0.092 3.083,-0.268 v -0.001 c 15.689,45.465 15.414,108.284 -5.628,148.646 l -0.313,-0.318"
         sodipodi:nodetypes="cccccccccccccccsccccccccccscssccccccccccccccccscccccccccccccccccccccscscccccssccccssccccsssccccsssscccsccccsscccc" />
      <path
         style="fill:none"
         inkscape:connector-curvature="0"
         id="path33"
         d="m 710.542,630.463 c 32.224,42.789 47.673,98.003 36.615,153.208" />
      <path
         style="fill:none"
         inkscape:connector-curvature="0"
         id="path35"
         d="m 564.208,551.106 c 45.172,2.36 86.506,20.922 118.606,49.348" />
    </g>
    <g
       id="Cabeza_color"
       transform="matrix(-0.17045742,0,0,0.17045742,219.93054,-84.954924)">
      <path
         style="fill:#15738d"
         inkscape:connector-curvature="0"
         id="path38"
         d="m 564.429,551.362 c -0.133,-0.173 -0.201,-0.262 -0.201,-0.262 45.172,2.359 86.506,20.922 118.605,49.348 v 10e-4 c 1.991,-0.565 4.091,-0.868 6.262,-0.868 0.821,0 1.629,0.043 2.426,0.127 l 1.834,-14.225 -0.249,-0.084 c -5.394,-1.766 -9.044,-6.756 -9.044,-12.74 0,-7.45 6.04,-13.49 13.491,-13.49 7.45,0 13.49,6.041 13.49,13.49 0,2.023 -0.445,3.944 -1.245,5.667 l 0.569,0.169 18.023,5.407 0.234,0.069 c 4.617,-8.249 13.44,-13.825 23.564,-13.825 14.902,0 26.982,12.078 26.982,26.979 0,9.06 -4.463,17.075 -11.311,21.969 l 0.174,0.24 6.149,8.47 0.182,0.277 c 1.886,-0.69 3.922,-1.066 6.046,-1.066 9.71,0 17.579,7.869 17.579,17.579 0,6.579 -3.614,12.312 -8.963,15.327 14.787,53.922 14.924,116.265 -7.99,155.164 l 0.088,0.191 6.147,12.669 c 8.074,16.642 10.849,28.712 10.849,47.199 0,17.421 -2.595,29.666 -9.422,44.44 -2.695,5.838 -4.902,10.695 -4.902,10.796 0,0.102 2.292,1.421 5.097,2.931 l 5.095,2.744 22.885,-23.8 c 12.586,-13.087 22.905,-24.314 22.934,-24.944 0.026,-0.63 -8.256,-13.376 -18.409,-28.323 l -18.458,-27.178 8.122,-18.627 c 4.468,-10.246 9.838,-22.726 11.933,-27.738 l 3.809,-9.108 11.082,-2.396 c 6.095,-1.315 20.834,-4.027 32.755,-6.023 11.92,-1.996 21.917,-3.874 22.22,-4.174 0.298,-0.298 0.083,-15.948 -0.479,-34.776 l -1.024,-34.23 -21.896,-3.843 c -12.043,-2.114 -26.989,-4.772 -33.216,-5.909 l -11.32,-2.067 -4.291,-10.052 c -2.36,-5.53 -7.537,-17.171 -11.504,-25.872 -3.967,-8.701 -6.78,-16.584 -6.248,-17.52 0.534,-0.935 9.069,-14.111 18.972,-29.28 9.901,-15.168 18.003,-28.104 18.003,-28.747 0,-0.642 -10.651,-11.804 -23.67,-24.806 l -23.669,-23.639 -29.29,19.772 -29.289,19.771 -25.794,-10.519 c -14.189,-5.787 -25.994,-10.717 -26.235,-10.958 -0.241,-0.242 -3.263,-14.574 -6.715,-31.849 -3.454,-17.275 -6.617,-32.841 -7.034,-34.589 l -0.757,-3.178 -33.196,0.375 -33.196,0.375 -6.881,34.535 -6.881,34.532 -23.021,9.829" />
      <path
         style="fill:#15738d"
         inkscape:connector-curvature="0"
         id="path40"
         d="m 747.175,783.665 c 11.058,-55.206 -4.392,-110.421 -36.616,-153.208 0.925,-2.486 1.431,-5.175 1.431,-7.982 0,-0.631 -0.026,-1.255 -0.077,-1.874 l 18.721,-7.24 v 10e-4 c 4.926,6.529 12.747,10.749 21.555,10.749 3.631,0 7.095,-0.717 10.258,-2.017 l 0.137,0.187 6.376,8.754 0.101,0.138 c -3.809,3.225 -6.229,8.042 -6.229,13.425 0,9.71 7.869,17.579 17.579,17.579 1.052,0 2.082,-0.092 3.083,-0.269 v -10e-4 c 15.688,45.465 15.415,108.285 -5.627,148.646 l -0.316,-0.316 -8.982,-9.187 c -6.979,-7.136 -13.894,-12.808 -21.394,-17.385 z" />
    </g>
    <path
       style="fill:none;stroke:#010202;stroke-width:0.02096626;stroke-miterlimit:10"
       inkscape:connector-curvature="0"
       id="path42"
       d="M 119.61925,84.402364"
       stroke-miterlimit="10" />
    <path
       style="fill:none;stroke:#010202;stroke-width:0.02096626;stroke-miterlimit:10"
       inkscape:connector-curvature="0"
       id="path44"
       d="M 112.35299,84.216054"
       stroke-miterlimit="10" />
    <path
       style="fill:none;stroke:#010202;stroke-width:0.02096626;stroke-miterlimit:10"
       inkscape:connector-curvature="0"
       id="path46"
       d="M 119.61925,84.200031"
       stroke-miterlimit="10" />
    <path
       style="fill:none;stroke:#010202;stroke-width:0.02096626;stroke-miterlimit:10"
       inkscape:connector-curvature="0"
       id="path48"
       d="M 112.46958,87.063545"
       stroke-miterlimit="10" />
    <path
       style="fill:none;stroke:#010202;stroke-width:0.02096626;stroke-miterlimit:10"
       inkscape:connector-curvature="0"
       id="path50"
       d="M 119.73601,87.047522"
       stroke-miterlimit="10" />
    <path
       inkscape:connector-curvature="0"
       d="M 143.45514,-0.78716683 C 124.50962,-15.648515 95.29911,-3.7122307 79.65171,1.3584293 78.47965,2.3969022 75.3477,9.4464535 76.07014,9.3550216 c 13.7951,-1.542097 55.09712,-1.1526229 68.14947,2.2249364 0.58635,0.285151 1.44254,-5.2871992 -0.0673,-6.5577522 -1.77982,-1.6764131 0.35479,-4.37799864 -0.69714,-5.80937263 z"
       style="fill:#000000;fill-rule:evenodd;stroke-width:1.00606942"
       sodipodi:nodetypes="cccccc"
       id="path1310" />
    <path
       inkscape:connector-curvature="0"
       d="m 130.22093,6.464663 c 5.78899,0.1005751 9.76959,0.4052585 10.52391,0.9485612 0.15973,0.1153655 0.37962,0.2317171 0.62021,0.3480687 0.0739,0.2119965 0.13706,0.4683644 0.21692,0.6576822 8.77469,3.8445319 27.49447,3.4658969 28.74476,5.3807679 -31.17335,9.945102 -90.85875,-1.173376 -95.43788,-3.439274 -0.7691,-3.3692658 41.67063,-4.1354113 55.33208,-3.895806 z"
       style="fill:#b16f37;fill-rule:evenodd;stroke-width:0.98603034"
       sodipodi:nodetypes="csccccc"
       id="path1294" />
    <path
       inkscape:connector-curvature="0"
       d="m 130.22093,5.9992567 c 5.78899,0.1015611 9.76959,0.4052585 10.52391,0.9495472 0.15973,0.1153656 0.37962,0.2317172 0.62021,0.3480687 0.0739,0.2110105 0.13706,0.4683644 0.21692,0.6576822 8.77469,3.8445322 23.79785,3.3830702 27.9234,5.2989272 -34.61164,9.74198 -97.2788,-3.8790435 -94.45875,-3.111912 -0.18735,-3.2045984 41.51286,-4.3809326 55.17431,-4.1423133 z"
       style="fill:#8e4000;fill-rule:evenodd;stroke-width:0.98603034"
       sodipodi:nodetypes="csccccc"
       id="path1306" />
  </g>
  <g
     inkscape:groupmode="layer"
     id="layer2"
     inkscape:label="lupa"
     style="display:inline">
    <g
       id="g1061"
       transform="matrix(0.55862265,-1.0617943,1.0617943,0.55862265,-65.515352,213.80624)">
      <g
         id="g4580">
        <g
           inkscape:label="Layer 1"
           id="layer1-9"
           transform="matrix(-0.21808648,0.14980863,0.14980863,0.21808648,183.0957,30.059418)">
          <path
             d="m 130.94,149.64 5.05,5.3 14.65,-13.64 -5.06,-5.3 z"
             style="fill:url(#linearGradient4429);fill-rule:evenodd"
             sodipodi:nodetypes="ccccc"
             id="path4421"
             inkscape:connector-curvature="0" />
          <path
             d="m 84.81,9.8299 c -41.857,1.0621 -75.5,35.388 -75.5,77.5 3e-4,42.78 34.72,77.5 77.5,77.5 42.78,0 77.5,-34.72 77.5,-77.5 0,-42.78 -34.72,-77.5 -77.5,-77.5 -0.668,-10e-5 -1.335,-0.0169 -2,-10e-5 z m 2,7.5001 c 38.64,0 70,31.36 70,70 0,38.64 -31.36,70 -70,70 -38.64,0 -70,-31.36 -70,-70 0,-38.64 31.36,-70 70,-70 z"
             style="fill:#000000;filter:url(#filter3881)"
             id="path3871"
             inkscape:connector-curvature="0" />
          <path
             d="m 84.81,9.8299 c -41.857,1.0621 -75.5,35.388 -75.5,77.5 3e-4,42.78 34.72,77.5 77.5,77.5 42.78,0 77.5,-34.72 77.5,-77.5 0,-42.78 -34.72,-77.5 -77.5,-77.5 -0.668,-10e-5 -1.335,-0.0169 -2,-10e-5 z m 2,7.5001 c 38.64,0 70,31.36 70,70 0,38.64 -31.36,70 -70,70 -38.64,0 -70,-31.36 -70,-70 0,-38.64 31.36,-70 70,-70 z"
             style="fill:url(#radialGradient4445)"
             id="path3790"
             inkscape:connector-curvature="0" />
          <circle
             transform="matrix(1.0347,0.37678,-0.37678,1.0347,-36.523,-56.703)"
             style="fill:url(#radialGradient4443)"
             id="path3794"
             cx="150"
             cy="84.571426"
             r="63.57143" />
          <path
             d="M 54.119054,27.649513 C 31.243442,38.311976 6.1121602,69.771864 20.559766,99.573586 29.362538,91.757935 49.254866,88.150276 60.741109,82.796064 97.176907,65.814187 120.64861,48.118133 148.67691,65.115566 148.19608,63.913484 147.69403,62.718474 147.13542,61.523463 130.81115,26.503293 89.142757,11.323124 54.119054,27.649513 Z"
             style="opacity:0.66000001;fill:url(#linearGradient4441)"
             sodipodi:nodetypes="ccscsc"
             id="path3800"
             inkscape:connector-curvature="0" />
          <path
             d="m 22.56,89.267 c 0.479,15.443 6.552,30.213 16.907,41.533 l 6.937,-7.44 C 36.202,114.25 27.731,103.05 22.56,89.267 Z m 25.125,35.223 -7,7.62 c 6.548,6.76 14.69,12.19 24.125,15.63 10.379,3.78 21.097,4.69 31.313,3.18 -16.634,-5.68 -34.139,-14.08 -48.438,-26.43 z"
             style="opacity:0.7;fill:url(#linearGradient4439)"
             id="path3830"
             inkscape:connector-curvature="0" />
          <path
             d="m 84.941,14.88 c -39.13,0.993 -70.58,33.082 -70.58,72.45 0,39.99 32.457,72.45 72.45,72.45 39.989,0 72.449,-32.46 72.449,-72.45 0,-39.992 -32.46,-72.45 -72.449,-72.45 -0.625,0 -1.249,-0.016 -1.87,0 z m 1.87,7.011 c 36.119,0 65.439,29.317 65.439,65.439 0,36.12 -29.32,65.44 -65.439,65.44 -36.122,0 -65.439,-29.32 -65.439,-65.44 0,-36.122 29.317,-65.439 65.439,-65.439 z"
             style="opacity:0.2;fill:#000000;filter:url(#filter3971)"
             id="path3845"
             inkscape:connector-curvature="0" />
          <path
             d="m 132.56,157.55 79.46,87.94 c 8.33,-3.28 19.86,-15.02 23.9,-22.6 l -81.63,-86.18 z"
             style="fill:url(#linearGradient3983-997-724-991);fill-rule:evenodd;stroke:#000000;stroke-width:1px;stroke-linejoin:bevel"
             sodipodi:nodetypes="ccccc"
             id="path3975"
             inkscape:connector-curvature="0" />
        </g>
      </g>
    </g>
  </g>
  <g
     inkscape:groupmode="layer"
     id="layer3"
     inkscape:label="superposicion">
    <path
       style="fill:#000000;fill-opacity:1;stroke:none;stroke-width:0.26458332px;stroke-linecap:butt;stroke-linejoin:miter;stroke-opacity:1"
       d="m 143.43453,86.070801 -0.53092,-0.193705 0.17383,0.146484 0.56055,0.472656 0.008,0.0078 0.45703,0.439453 0.008,0.0078 0.35742,0.402344 0.002,0.002 0.33203,0.441407 0.24219,0.40039 0.17968,0.384766 0.12305,0.376953 0.0684,0.353515 0.0195,0.378907 -0.0273,0.349609 -0.0703,0.34961 -0.12304,0.378906 -0.15821,0.351562 -0.20703,0.371094 -0.23828,0.357422 -0.30664,0.398437 -0.004,0.0059 -0.1211,0.132812 -0.18945,0.181641 -0.14453,0.11914 -0.002,0.002 -0.19726,0.138672 -0.01,0.0059 -0.0137,0.0098 -0.1875,0.117188 -0.0137,0.0078 -0.01,0.0059 -0.21679,0.11914 -0.006,0.0039 -0.44532,0.205078 -0.0156,0.0059 -0.49609,0.183594 -0.0156,0.0039 -0.52148,0.154297 h -0.004 l -0.5625,0.132813 -0.51367,0.09766 h -0.004 l -0.0176,0.0039 -0.50195,0.07227 -0.01,0.002 h -0.006 l -0.46875,0.05469 h -0.0137 l -0.008,0.002 -0.82031,0.06055 -0.52149,0.01758 -0.0762,-0.101562 -0.0137,-0.01758 -0.0156,-0.01758 -0.28516,-0.314453 -0.0156,-0.01758 -0.0176,-0.01562 -0.18555,-0.171876 -0.0117,-0.0098 -0.0117,-0.01172 -0.21484,-0.175781 -0.0156,-0.01172 -0.0137,-0.0098 -0.24219,-0.171874 -0.0195,-0.01367 -0.0176,-0.0098 -0.27148,-0.160156 -0.0195,-0.01172 -0.0215,-0.0098 -0.30078,-0.144531 -0.0234,-0.01172 -0.0254,-0.0098 -0.33008,-0.119141 -0.0254,-0.0078 -0.0254,-0.0078 -0.35743,-0.08984 -0.0273,-0.0059 -0.0273,-0.0039 -0.38477,-0.05469 -0.0312,-0.0039 -0.0312,-0.002 -0.41602,-0.0098 h -0.0293 l -0.0312,0.002 -0.44336,0.04102 -0.0234,0.002 -0.0234,0.0059 -0.45703,0.08398 -0.0195,0.002 -0.0215,0.0059 -0.45508,0.121094 -0.0176,0.0059 -0.0176,0.0059 -0.44726,0.154297 -0.0215,0.0059 -0.0195,0.0098 -0.4375,0.191406 -0.0195,0.0078 -0.0195,0.01172 -0.41797,0.226563 -0.0195,0.0098 -0.0156,0.01172 -0.40039,0.259766 -0.0215,0.01172 -0.0176,0.01562 -0.375,0.294922 -0.0215,0.01563 -0.0176,0.01758 -0.3457,0.330078 -0.0195,0.01953 -0.0176,0.01953 -0.31055,0.363281 -0.0176,0.02148 -0.0156,0.02148 -0.2754,0.398438 -0.0176,0.02344 -0.0137,0.02734 -0.23047,0.429687 -0.0137,0.02539 -0.0117,0.0293 -0.18555,0.464844 -0.008,0.01953 -0.006,0.02148 -0.0742,0.244141 -0.006,0.01563 -0.002,0.01563 -0.0606,0.251953 -0.004,0.01367 -0.004,0.01563 -0.0469,0.261719 -0.002,0.01563 -0.002,0.01758 -0.0312,0.269531 -0.002,0.01367 v 0.01367 l -0.0176,0.277343 -0.002,0.01367 v 0.01563 l -0.002,0.285157 v 0.01367 0.01562 l 0.0137,0.292969 0.002,0.01172 v 0.01367 l 0.0293,0.300781 0.002,0.01758 0.002,0.01563 0.0957,0.597656 0.004,0.01758 0.004,0.01953 0.13672,0.582031 0.006,0.01953 0.006,0.01953 0.17773,0.556641 0.006,0.0195 0.008,0.0176 0.10743,0.26758 0.004,0.0117 0.006,0.0137 0.11914,0.25781 0.006,0.0117 0.006,0.0117 0.13086,0.24805 0.01,0.0176 0.01,0.0156 0.14649,0.23633 0.008,0.0137 0.008,0.0117 0.15821,0.22461 0.0117,0.0156 0.0117,0.0137 0.17383,0.21289 0.0137,0.0156 0.0137,0.0156 0.1875,0.19727 0.0137,0.0156 0.0156,0.0137 0.20313,0.18164 0.0176,0.0156 0.0176,0.0137 0.21875,0.16406 0.0176,0.0117 0.0176,0.0117 0.23437,0.14844 0.0215,0.0137 0.0215,0.0117 0.26563,0.13476 0.0195,0.008 0.0176,0.008 0.28711,0.11914 0.0195,0.008 0.0195,0.008 0.31055,0.10157 0.0156,0.004 0.0176,0.006 0.33008,0.084 0.0156,0.004 0.0156,0.002 0.3457,0.0664 0.0176,0.004 0.0156,0.002 0.35938,0.0449 0.0156,0.002 h 0.0137 l 0.36718,0.0254 0.0156,0.002 h 0.0156 l 0.375,0.004 h 0.0156 0.0156 l 0.37696,-0.0176 0.0137,-0.002 h 0.0156 l 0.37891,-0.0391 0.0176,-0.002 0.0176,-0.004 0.37695,-0.0644 0.0156,-0.002 0.0176,-0.004 0.36914,-0.0879 0.0156,-0.004 0.0156,-0.006 0.36328,-0.11132 0.0215,-0.006 0.0195,-0.008 0.34961,-0.13867 0.0195,-0.008 0.0195,-0.01 0.33594,-0.16602 0.0195,-0.01 0.0195,-0.0117 0.31641,-0.19141 0.0254,-0.0156 0.0234,-0.0176 0.32813,-0.25196 0.0273,-0.0215 0.0254,-0.0234 0.28321,-0.2832 0.0215,-0.0234 0.0195,-0.0234 0.24024,-0.30469 0.0176,-0.0234 0.0156,-0.0254 0.20117,-0.32227 0.0137,-0.0215 0.0117,-0.0215 0.16602,-0.33398 0.01,-0.0195 0.008,-0.0215 0.13476,-0.33789 0.008,-0.0195 0.006,-0.0195 0.10352,-0.33398 0.004,-0.0156 0.004,-0.0137 0.0801,-0.326175 0.004,-0.01563 0.002,-0.01367 0.0586,-0.3125 0.004,-0.01367 0.002,-0.01367 0.0391,-0.291016 0.002,-0.01563 v -0.01563 l 0.0117,-0.154297 0.19531,0.06641 0.01,0.0039 0.01,0.002 0.44531,0.130859 0.008,0.002 0.01,0.002 0.36524,0.09375 0.01,0.0039 0.008,0.002 0.52149,0.113281 0.0117,0.002 0.01,0.002 0.6543,0.115235 0.0137,0.002 0.0117,0.002 0.76367,0.0957 0.0156,0.002 h 0.0156 l 0.85547,0.05664 0.0117,0.002 h 0.0117 l 0.45117,0.0098 h 0.01 0.0117 l 0.46679,-0.0078 h 0.01 l 0.01,-0.002 0.47852,-0.02734 h 0.0117 0.0117 l 0.48437,-0.04883 0.0117,-0.002 0.0137,-0.002 0.49024,-0.07227 0.0117,-0.002 0.0137,-0.002 0.49218,-0.09766 0.0137,-0.0039 0.0156,-0.0039 0.41406,-0.107422 c 0.78878,-0.30857 1.31541,-0.579768 1.7251,-0.868901 0.93786,-0.708117 1.50079,-1.30061 1.95372,-1.885336 0.80444,-1.03853 1.31732,-2.037918 1.87456,-3.587238 0.55362,-2.733083 0.67206,-3.585817 0.57326,-7.324467 -0.0311,-1.358224 -0.5182,-2.656654 -1.08929,-3.585444 -0.493,-0.801785 -0.63998,-0.88041 -1.35454,-1.875929 -1.93338,-0.190699 0.61998,3.684177 -7.18888,5.998011 z"
       id="path4733"
       inkscape:connector-curvature="0"
       sodipodi:nodetypes="ccccccccccccccccccccccccccccccccccccccccccccccccccccccccccccccccccccccccccccccccccccccccccccccccccccccccccccccccccccccccccccccccccccccccccccccccccccccccccccccccccccccccccccccccccccccccccccccccccccccccccccccccccccccccccccccccccccccccccccccccccccccccccccccccccccccccccccccccccccccccccccccccccccccccccccccccccccsccscc" />
    <path
       style="fill:#13738d;fill-opacity:1;stroke:none;stroke-width:0.26458332px;stroke-linecap:butt;stroke-linejoin:miter;stroke-opacity:1"
       d="m 152.23125,83.615689 c 0.75465,1.850806 0.51792,8.206617 -0.70726,10.547831 -1.22518,2.341214 -2.91763,4.127836 -5.07382,4.61948 -2.6285,0.599336 -5.27959,-0.0223 -6.02387,-0.229476 -1.35481,-0.37713 -1.31507,-0.529297 -1.31507,-0.529297 0,0 0.20983,2.788623 -1.66726,4.046583 -1.63983,1.09895 -4.17272,0.9997 -5.50714,0.23657 -1.29762,-0.74209 -1.88475,-2.26816 -2.08982,-3.874569 -0.41595,-3.258364 2.08408,-5.147918 4.52647,-5.503543 2.44239,-0.355625 3.66037,1.684619 3.66037,1.684619 0,0 4.99405,0.09158 6.74607,-2.049956 1.75201,-2.141535 1.38133,-5.07219 -1.38982,-6.567474 -0.42431,-2.219296 3.77869,-7.341777 4.91273,-6.85297 0.5602,0.241462 0.99748,0.112981 1.77882,1.167516 0.46119,0.622456 0.69233,0.731669 1.42426,1.868854 0.29941,0.465195 0.72534,1.435832 0.72534,1.435832 z"
       id="path4723"
       inkscape:connector-curvature="0"
       sodipodi:nodetypes="czsccssszczcsssc" />
  </g>
</svg>
