<?xml version="1.0" encoding="UTF-8" standalone="no"?>
<!-- Created with Inkscape (http://www.inkscape.org/) -->

<svg
   xmlns:dc="http://purl.org/dc/elements/1.1/"
   xmlns:cc="http://creativecommons.org/ns#"
   xmlns:rdf="http://www.w3.org/1999/02/22-rdf-syntax-ns#"
   xmlns:svg="http://www.w3.org/2000/svg"
   xmlns="http://www.w3.org/2000/svg"
   xmlns:sodipodi="http://sodipodi.sourceforge.net/DTD/sodipodi-0.dtd"
   xmlns:inkscape="http://www.inkscape.org/namespaces/inkscape"
   width="210mm"
   height="297mm"
   viewBox="0 0 210 297"
   version="1.1"
   id="svg12103"
   inkscape:version="0.92.2 (5c3e80d, 2017-08-06)"
   sodipodi:docname="oshwi-phone.svg"
   inkscape:export-filename="/home/4m1g0/proyectos/oshwdem/marketing/oshwi_phone.png"
   inkscape:export-xdpi="97.492157"
   inkscape:export-ydpi="97.492157">
  <defs
     id="defs12097">
    <style
       id="style12648"
       type="text/css">
    .fil0 {fill:#1B1C1F}
    .fil1 {fill:#1B1C1F;fill-rule:nonzero}
  </style>
  </defs>
  <sodipodi:namedview
     id="base"
     pagecolor="#ffffff"
     bordercolor="#666666"
     borderopacity="1.0"
     inkscape:pageopacity="0.0"
     inkscape:pageshadow="2"
     inkscape:zoom="0.52158203"
     inkscape:cx="-152.86433"
     inkscape:cy="880.20212"
     inkscape:document-units="mm"
     inkscape:current-layer="layer1"
     showgrid="false"
     inkscape:snap-global="false"
     showguides="true"
     inkscape:guide-bbox="true"
     inkscape:window-width="1920"
     inkscape:window-height="1016"
     inkscape:window-x="0"
     inkscape:window-y="27"
     inkscape:window-maximized="1" />
  <metadata
     id="metadata12100">
    <rdf:RDF>
      <cc:Work
         rdf:about="">
        <dc:format>image/svg+xml</dc:format>
        <dc:type
           rdf:resource="http://purl.org/dc/dcmitype/StillImage" />
        <dc:title></dc:title>
      </cc:Work>
    </rdf:RDF>
  </metadata>
  <g
     inkscape:label="Capa 1"
     inkscape:groupmode="layer"
     id="layer1">
    <path
       style="fill:#13738d;stroke:#010202;stroke-width:0.13168441;stroke-miterlimit:10"
       d="m 545.19336,485.35938 -5.02539,3.39843 c -5.86073,3.9634 -11.05963,6.67397 -16.65235,8.47461 l 33.41602,36.76172 c 0.2589,-0.27779 1.00447,0.20437 2.16992,1.73047 0.9425,1.23436 5.0159,7.65563 9.05274,14.26758 15.36806,25.17623 33.93733,37.75747 41.8122,42.1107 l 5.16015,-22.44517 c -18.32491,-12.89993 -37.48446,-36.80354 -65.5329,-77.85889 z"
       id="Ultima_pata"
       transform="scale(0.26458333)"
       inkscape:connector-curvature="0"
       sodipodi:nodetypes="cccccccccc" />
    <path
       stroke-miterlimit="10"
       d="m 138.53484,131.55306 c -1.48314,0.47728 -3.07181,0.71251 -5.0469,0.79603 -2.38487,0.0999 -3.22181,0.0355 -4.98127,-0.38591 -3.11767,-0.74524 -5.97181,-2.30953 -8.38856,-4.59724 l -1.97986,-1.87401 -0.6116,0.48172 c -1.11581,0.87734 -3.60415,1.88117 -5.38475,2.1723 -2.24884,0.36734 -4.80281,0.004 -6.91699,-0.98507 l -1.50616,-0.70484 -1.11104,2.44266 c -6.350736,13.96131 -13.241817,25.40514 -18.623669,30.9283 -3.501366,3.59324 -7.201316,5.77578 -14.908546,8.79288 -2.546122,0.99683 -5.596969,2.28822 -6.779432,2.86982 -5.06412,2.49123 -8.06809,5.8293 -9.824484,10.91762 -1.492353,4.32229 -0.764501,8.27742 2.076513,11.28105 2.596917,2.74624 6.133738,3.36159 9.366975,1.62991 0.686432,-0.36751 1.968442,-1.39434 2.848853,-2.28089 1.119908,-1.1286 1.779405,-1.61304 2.19447,-1.61304 0.919449,0 1.865316,-0.43671 2.709932,-1.25184 1.505309,-1.45127 1.595823,-3.33125 0.235402,-4.88088 -0.926608,-1.05547 -1.95276,-1.51212 -3.397898,-1.51212 -3.060221,0 -5.059519,2.94294 -3.730972,5.49111 0.279038,0.53558 0.507622,1.02445 0.507622,1.08547 0,0.061 -0.395973,0.54922 -0.879901,1.0848 -2.488679,2.75459 -5.920327,2.66459 -7.739277,-0.20387 -2.990675,-4.71605 0.117444,-11.17502 7.066312,-14.68389 0.656773,-0.33153 3.039425,-1.25371 5.294405,-2.04941 10.213639,-3.60261 15.235145,-6.3226 19.451068,-10.53546 1.857984,-1.85679 2.963572,-3.30176 5.87669,-7.68149 1.973043,-2.96698 4.213537,-6.51437 4.978889,-7.88348 1.181438,-2.11368 3.824728,-6.55886 4.098648,-6.89279 0.0465,-0.0571 0.1875,-0.002 0.31296,0.12443 0.14523,0.14506 -0.64791,1.70611 -2.17691,4.28411 -4.21439,7.10739 -6.619203,12.38612 -9.305441,20.42932 -2.71249,8.12025 -4.800251,16.99188 -6.913922,29.37629 -1.700485,9.96187 -2.92829,13.71569 -5.378104,16.44045 -0.918255,1.02138 -1.370817,1.31201 -2.665272,1.71224 -3.165052,0.97758 -5.960213,0.46501 -8.092977,-1.48434 -1.325137,-1.2111 -2.118955,-2.58447 -2.327426,-4.02723 -0.155797,-1.07661 -0.06511,-1.20394 1.335024,-1.87298 2.994425,-1.43116 3.147155,-5.01725 0.282787,-6.63983 -1.040641,-0.58927 -2.730728,-0.71677 -3.859496,-0.29131 -1.025982,0.3866 -2.206572,1.65633 -2.477939,2.66459 -0.366824,1.36212 0.06068,2.61396 1.236668,3.62068 0.845129,0.72325 0.952857,0.92371 0.819729,1.52986 -0.241025,1.09809 0.48717,4.04802 1.357524,5.49725 1.977478,3.29273 5.445774,4.92775 10.456199,4.92912 2.295551,0.002 2.971413,-0.0878 4.109217,-0.53984 2.754593,-1.094 4.922298,-3.81058 6.382438,-7.99752 1.03297,-2.96289 1.508207,-4.92554 3.384261,-13.98211 2.975332,-14.36036 3.776313,-16.93427 8.3219,-26.73505 2.84664,-6.13732 11.8081,-23.60631 12.46112,-24.29087 0.11693,-0.12273 0.28228,-0.15307 0.36734,-0.0685 0.0852,0.0852 -0.4391,1.47548 -1.16525,3.09022 -4.62349,10.28216 -8.24912,21.42735 -9.88381,30.38455 -0.571879,3.13147 -0.628981,4.11109 -0.815803,13.9325 -0.212731,11.19156 -0.437394,14.81122 -1.183487,19.06754 -1.653778,9.43073 -5.127871,14.63615 -10.997059,16.47471 l -1.322578,0.41472 -0.920131,-0.62489 c -2.397824,-1.62702 -4.992357,-1.21127 -6.528007,1.0449 -1.267862,1.86208 -0.270176,4.3574 2.145546,5.36668 1.784861,0.74541 3.883361,0.16926 5.07537,-1.394 0.360688,-0.47319 0.753081,-0.79979 0.871548,-0.72649 0.399553,0.24734 2.94295,-0.42103 4.733264,-1.24366 6.127943,-2.81425 10.660237,-9.4101 12.911977,-18.78935 1.44292,-6.01101 1.96725,-12.09736 1.86651,-21.67332 -0.0598,-5.73009 -0.0155,-6.59534 0.4679,-9.12202 1.75265,-9.15664 6.31682,-22.53345 11.29468,-33.10318 0.78786,-1.67389 1.2798,-2.44913 1.55355,-2.44913 0.28228,0 0.35353,0.12239 0.2412,0.41541 -1.72435,4.49325 -3.84058,12.01673 -4.54951,16.17402 -1.16422,6.82852 -1.00791,14.51325 0.3929,19.28453 0.50337,1.71395 0.37126,6.82358 -0.2521,9.75596 -0.50319,2.36527 -2.30015,7.90206 -5.38935,16.60357 -2.25379,6.34818 -3.00142,10.47972 -2.40021,13.25903 0.86626,4.00303 5.12889,6.18232 11.58002,5.91914 4.0274,-0.16398 6.25442,-1.21093 7.77388,-3.65427 0.67979,-1.09314 0.71643,-1.28201 0.71047,-3.67932 -0.004,-2.08436 -0.10466,-2.7788 -0.57018,-3.96058 -0.66189,-1.67969 -0.68149,-2.05606 -0.17983,-3.37523 1.20803,-3.17596 -2.74863,-6.00215 -6.05959,-4.32945 -1.38105,0.69786 -2.14282,1.83992 -2.14282,3.21244 0,2.00237 1.4182,3.55932 3.50954,3.85302 1.109,0.15597 1.17224,0.20847 1.82594,1.51486 2.20623,4.41195 0.13057,7.26575 -4.94207,6.79392 -4.46308,-0.41472 -6.35891,-2.85857 -5.65322,-7.28654 0.3866,-2.42306 1.31798,-5.28026 3.82387,-11.73088 3.63688,-9.36187 4.70957,-13.2563 4.93423,-17.91712 0.10739,-2.23129 0.0331,-3.28608 -0.39785,-5.61436 -1.11888,-6.0468 -0.88262,-13.63369 0.63564,-20.42574 1.14939,-5.14202 4.23843,-13.37886 5.01759,-13.37886 0.17829,0 0.32438,0.0506 0.32438,0.11301 0,0.0622 0.26045,1.59872 0.57887,3.41495 1.08973,6.21197 1.43235,10.7695 1.43201,19.04827 0,5.34026 -0.12375,8.97714 -0.40961,12.06447 -0.45802,4.94343 -0.3375,7.44046 0.55876,11.57797 1.24502,5.74646 4.66781,13.32602 10.52251,23.30153 3.88523,6.61989 5.61129,10.14188 6.08601,12.41936 0.32234,1.54588 0.32234,1.86446 -0.002,2.97857 -0.66581,2.29078 -2.55005,4.09251 -5.14986,4.92367 -2.88482,0.92217 -6.23192,0.69768 -13.57318,-0.9111 -0.49723,-0.10943 -0.53746,-0.2141 -0.39768,-1.04098 0.51989,-3.07778 -3.16454,-5.53152 -6.07578,-4.04598 -1.05463,0.53796 -2.10396,1.69145 -2.31942,2.54987 -0.38847,1.54963 0.59984,3.50341 2.14197,4.2357 0.93036,0.44165 3.05255,0.52126 3.76233,0.14114 0.36257,-0.19381 0.61519,-0.14677 1.11889,0.20847 0.95524,0.67364 3.07948,1.71156 4.58718,2.241 3.26835,1.1482 6.76545,1.41037 10.42586,0.78069 h 7.9e-4 c 5.06753,-0.87086 7.92252,-2.49191 9.54408,-5.41969 0.66734,-1.20411 0.69956,-1.39707 0.68967,-4.13001 -0.0119,-3.29494 0.12785,-2.80675 -3.38614,-11.82565 -4.96747,-12.75005 -7.15375,-19.28965 -9.14538,-27.35399 -2.2352,-9.04992 -2.22054,-8.90742 -2.24986,-22.21776 -0.0232,-10.6616 -0.074,-12.09412 -0.57052,-16.05265 -0.29916,-2.39033 -0.68609,-5.16095 -0.85962,-6.15812 -0.58024,-3.33807 0.52058,-2.4447 3.04795,2.47436 3.72876,7.25671 6.16084,15.31253 6.8604,22.72248 0.30324,3.20903 0.18784,6.0688 -0.40041,9.91466 -1.95957,12.81789 3.33006,25.19514 11.83384,27.68927 1.64866,0.4841 4.75372,0.48956 6.59534,0.0118 3.34386,-0.8666 6.51641,-3.10147 7.39734,-5.21003 0.9728,-2.32794 0.55484,-5.1531 -1.27707,-8.6335 l -1.1407,-2.16617 0.43109,-0.70927 c 1.35326,-2.2272 0.23796,-4.83452 -2.40601,-5.62731 -2.78885,-0.83525 -5.7589,1.34047 -5.45907,3.99978 0.22023,1.95515 1.93895,3.42159 4.05893,3.46438 0.89865,0.0179 1.1044,0.1292 1.64083,0.88705 0.82791,1.16985 1.16609,2.25175 1.15996,3.7095 -0.0174,3.96842 -4.46087,6.89654 -8.78504,5.78908 -3.72432,-0.95457 -6.17004,-3.97149 -7.63189,-9.41539 -0.58501,-2.17913 -0.62455,-2.668 -0.64126,-7.93667 -0.0121,-3.85404 0.0944,-6.36249 0.34007,-8.0028 0.47591,-3.17017 0.42955,-9.29522 -0.0937,-12.42294 -1.0461,-6.25323 -3.10659,-12.29748 -6.49119,-19.04163 -1.23361,-2.45799 -2.14947,-4.52632 -2.03544,-4.59689 0.2833,-0.17472 0.67382,0.46586 2.47624,4.06183 5.27122,10.51637 11.51866,21.04654 15.59515,26.28555 2.50419,3.21841 4.18865,4.72235 6.76238,6.03897 4.12814,2.11163 6.94649,2.77811 15.32191,3.62256 8.92242,0.8995 10.86666,1.32616 13.25272,2.90698 2.19038,1.45042 3.18551,3.64233 2.73601,6.02516 -0.58415,3.09602 -3.91216,6.1322 -7.14046,6.51488 -2.46396,0.29182 -4.53246,-0.89712 -6.22885,-3.57909 l -0.88587,-1.40151 0.96189,-0.89779 c 0.8586,-0.80064 0.97349,-1.04235 1.07423,-2.25209 0.0961,-1.16132 0.0257,-1.4869 -0.49331,-2.27083 -1.64525,-2.48595 -5.77135,-2.44913 -7.32575,0.0653 -0.64211,1.03877 -0.65302,2.80505 -0.0239,3.82302 0.50643,0.82007 1.84452,1.66674 3.02869,1.9168 0.67825,0.14369 0.76126,0.26216 0.89814,1.2803 0.44233,3.28557 3.088,6.26891 6.6163,7.46143 1.25116,0.42274 1.93435,0.50081 3.7158,0.42393 1.93418,-0.083 2.3859,-0.19466 3.97592,-0.98013 2.88585,-1.42639 5.18702,-4.2403 6.38789,-7.8136 0.73945,-2.19855 0.60087,-5.32713 -0.31142,-7.04756 -2.3547,-4.44092 -6.79205,-6.28971 -20.35773,-8.48281 -11.17809,-1.80668 -13.11874,-2.6588 -17.04216,-7.48427 -3.60773,-4.43633 -6.92177,-10.10762 -12.95596,-22.17004 -1.84776,-3.6933 -3.62904,-7.14216 -3.95853,-7.66427 -0.37722,-0.59763 -0.50234,-1.02411 -0.41404,-1.11889"
       id="path14"
       inkscape:connector-curvature="0"
       style="fill:#34aacd;stroke:#010202;stroke-width:0.0348415;stroke-miterlimit:10" />
    <path
       style="fill:#ffffff;stroke:#010202;stroke-width:0.0348074;stroke-miterlimit:10"
       inkscape:connector-curvature="0"
       id="path18"
       d="m 131.67547,127.89334 v -3.81348 l -1.01524,-0.26795 c -3.90399,-1.02906 -6.53926,-5.06089 -5.90124,-9.02896 0.87956,-5.46708 6.69113,-8.42708 11.6315,-5.92357 1.42315,0.72121 3.04693,2.44368 3.70387,3.92819 0.5903,1.33417 0.81155,3.86103 0.45376,5.18225 -0.67962,2.50879 -2.92624,4.9286 -5.24361,5.64742 l -1.12025,0.34825 -0.0663,3.90381 -0.01,3.87058 1.26224,-0.12119 c 0.72496,-0.0851 2.15594,-0.46041 3.17988,-0.83388 5.52027,-2.01498 9.64568,-6.51932 11.18951,-12.21771 0.57205,-2.11265 0.57325,-6.48267 0.003,-8.60026 -1.36451,-5.05662 -4.91036,-9.34584 -9.58482,-11.594339 -2.39731,-1.152975 -4.56331,-1.618665 -7.52569,-1.617813 -3.10233,7.94e-4 -4.88361,0.431257 -7.88366,1.903669 -1.91952,0.942628 -2.60271,1.448883 -4.42899,3.284883 -3.59171,3.60927 -5.13094,7.30632 -5.12327,12.30226 0.009,5.18991 1.87043,9.41879 5.71356,12.97692 2.64277,2.44691 7.01876,4.42899 9.87085,4.47058 l 0.89592,0.0136 v -3.8133 z"
       stroke-miterlimit="10" />
    <path
       style="fill:#ffffff;stroke:#010202;stroke-width:0.0348074;stroke-miterlimit:10"
       inkscape:connector-curvature="0"
       id="path20"
       d="m 108.74094,123.82571 v -3.81893 l -0.89252,-0.37313 c -2.02026,-0.84376 -3.02937,-2.52396 -2.88465,-4.80093 0.0787,-1.23803 0.22466,-1.66366 0.8245,-2.40856 0.40075,-0.49757 1.14854,-1.15093 1.66162,-1.4523 2.00032,-1.17292 5.29185,-0.23268 6.28783,1.79611 0.49978,1.01814 0.73604,0.98183 0.74081,-0.11369 0.0121,-2.55976 1.61764,-6.8541 3.45739,-9.2463 l 0.9099,-1.18383 -1.0299,-0.88757 c -1.25304,-1.07865 -3.07471,-1.995201 -4.92554,-2.477084 -3.84484,-1.001607 -7.80661,0.205743 -10.96842,3.342504 -4.670878,4.63371 -5.750555,11.97327 -2.683174,18.23809 0.52927,1.08053 1.354284,2.16754 2.572374,3.38937 2.24919,2.25601 3.37812,2.88022 6.87028,3.7995 0.0329,0.009 0.0595,-1.70253 0.0595,-3.80325 z"
       stroke-miterlimit="10" />
    <path
       style="fill:#ffffff;stroke:#010202;stroke-width:0.0348074;stroke-miterlimit:10"
       inkscape:connector-curvature="0"
       id="path22"
       d="m 114.27262,126.93639 c 0.64518,-0.24512 1.70628,-0.7882 2.35845,-1.20667 l 1.18621,-0.76126 -0.44609,-0.63291 c -1.11121,-1.57571 -2.40754,-4.879 -2.77913,-7.08182 l -0.16092,-0.95422 -0.45426,0.93359 c -0.61655,1.26786 -1.05565,1.71156 -2.28107,2.30459 l -1.04337,0.50489 v 3.83222 3.83206 l 1.22372,-0.16245 c 0.67314,-0.0893 1.75145,-0.3629 2.39646,-0.60802 z"
       stroke-miterlimit="10" />
    <path
       style="fill:#15738d;stroke:#010202;stroke-width:0.0348415;stroke-miterlimit:10"
       inkscape:connector-curvature="0"
       id="path28"
       d="m 135.96776,69.989123 2.91005,-1.09229 -0.005,-0.0097 c -0.29847,-0.609896 -0.46125,-1.28525 -0.46125,-2.010034 0,-0.495692 0.0535,-0.894051 0.19858,-1.341501 l 0.0249,-0.07926 -3.30995,-1.039792 -0.0675,-0.0213 c -0.39767,0.367676 -0.92558,0.596601 -1.5065,0.609897 l -0.005,0.03972 -0.28535,2.439927 h 1.7e-4 c 1.18468,0.384723 2.12134,1.320022 2.50641,2.504361"
       stroke-miterlimit="10" />
    <path
       d="m 147.33403,103.20275 -1.53122,-1.56582 c -2.61703,-2.676522 -5.18225,-4.144671 -8.87112,-5.077073 -2.85993,-0.723763 -7.15597,-0.564555 -9.91465,0.366482 -2.34209,0.790242 -4.67582,2.142821 -6.37085,3.691771 l -1.27775,1.16763 -0.95183,-0.82263 c -3.22352,-2.786636 -7.69428,-3.748357 -11.70616,-2.518677 -6.17874,1.893787 -10.348132,8.603157 -9.832499,15.821347 0.174379,2.43703 0.624216,4.07308 1.760485,6.3988 0.467394,0.95661 0.808479,1.7719 0.758023,1.81111 -0.05079,0.039 -0.727681,0.5199 -1.504627,1.06775 h -1.7e-4 c -0.776774,0.54767 -1.47565,0.99257 -1.552868,0.98848 -0.262845,-0.0126 -8.382244,-7.81854 -8.382244,-8.05872 0,-0.0605 1.414627,-2.11367 3.144089,-4.56263 1.728949,-2.44913 3.145449,-4.56996 3.145449,-4.71298 0.0021,-0.32267 -3.639775,-9.472487 -3.860007,-9.698002 -0.08779,-0.09 -2.417767,-0.561999 -5.176964,-1.048655 -2.759194,-0.486825 -5.242417,-0.96888 -5.517875,-1.070814 -0.486828,-0.180514 -0.501999,-0.340233 -0.552452,-5.918962 l -0.05233,-5.733507 1.269738,-0.25432 c 0.698365,-0.139946 3.365852,-0.641943 5.927997,-1.115134 2.561976,-0.47353 4.669851,-0.878708 4.683829,-0.900356 0.234892,-0.370062 3.438977,-8.896684 3.438977,-9.1522 0,-0.197217 -1.451615,-2.385721 -3.225223,-4.863319 -1.77378,-2.477601 -3.225226,-4.594339 -3.225226,-4.703773 0,-0.246653 7.940419,-8.196786 8.186899,-8.196786 0.09818,0 2.339869,1.477867 4.981109,3.284884 2.64157,1.806678 4.92536,3.24926 5.07485,3.205112 0.14984,-0.04347 2.16754,-0.888423 4.48406,-1.877589 l 4.212,-1.798156 1.17309,-5.886405 1.17291,-5.886577 5.65851,-0.06392 5.65833,-0.06392 0.12904,0.541713 c 0.0711,0.29813 0.61024,2.9513 1.19883,5.895951 0.58842,2.944823 1.10371,5.387647 1.14462,5.429067 0.0411,0.04091 2.05333,0.881266 4.47178,1.867533 l 4.39712,1.79321 4.99253,-3.370452 4.99269,-3.370284 4.03439,4.029443 c 2.21936,2.216457 4.03473,4.119102 4.03473,4.228536 0,0.109434 -1.38105,2.314641 -3.06875,4.900139 -1.68821,2.58567 -3.14289,4.831617 -3.23392,4.990994 -0.0907,0.159549 0.38865,1.503265 1.06485,2.986244 0.67621,1.48315 1.55884,3.467615 1.96128,4.410074 l 0.7311,1.713437 1.92975,0.352335 c 1.06143,0.19364 3.60909,0.647057 5.66208,1.007404 l 3.73233,0.654899 0.17438,5.834927 c 0.096,3.209542 0.13262,5.877031 0.0816,5.927826 -0.0511,0.05148 -1.75554,0.371258 -3.78739,0.711319 -2.03185,0.340405 -4.54423,0.802344 -5.58333,1.026835 l -1.88884,0.408077 -0.64911,1.553035 c -0.35745,0.853993 -1.2728,2.981637 -2.0344,4.727807 l -1.38429,3.17528 3.14613,4.63269 c 1.73066,2.548 3.14273,4.72031 3.13812,4.82804 -0.005,0.10739 -1.76406,2.0206 -3.90927,4.25206 l -3.90074,4.05655 -0.86848,-0.46774 c -0.47814,-0.25705 -0.869,-0.48222 -0.869,-0.49944 0,-0.0174 0.3762,-0.84547 0.83576,-1.84009 1.16388,-2.51885 1.60588,-4.60593 1.60588,-7.57564 0,-3.1509 -0.47285,-5.20867 -1.8493,-8.04508 l -1.0478,-2.15952 -0.015,-0.0326 c 3.90603,-6.63062 3.88268,-17.257448 1.36213,-26.448853 v 0 c 0.91194,-0.513758 1.52764,-1.49116 1.52764,-2.61243 0,-1.654971 -1.34133,-2.9963 -2.99648,-2.9963 -0.36205,0 -0.7091,0.06409 -1.03041,0.181538 l -0.0312,-0.04722 -1.04796,-1.443945 -0.0297,-0.04057 c 1.16729,-0.834218 1.92804,-2.200775 1.92804,-3.74478 0,-2.540325 -2.05896,-4.59894 -4.59911,-4.59894 -1.72606,0 -3.22983,0.95064 -4.01649,2.356744 l -0.0401,-0.01193 -3.07215,-0.921835 -0.0967,-0.02898 c 0.13585,-0.293698 0.21171,-0.620977 0.21171,-0.965981 0,-1.26991 -1.02974,-2.299472 -2.29947,-2.299472 -1.26991,0 -2.29947,1.029734 -2.29947,2.299472 0,1.020186 0.62182,1.870768 1.54144,2.171626 l 0.0423,0.01415 -0.31244,2.424758 h 1.7e-4 c -0.13603,-0.01416 -0.27376,-0.02148 -0.41353,-0.02148 -2.15527,0 -3.90228,1.74702 -3.90228,3.902454 0,2.155264 1.74718,3.902281 3.90228,3.902281 2.15509,0 3.90245,-1.747017 3.90245,-3.902281 0,-0.107559 -0.004,-0.214096 -0.0131,-0.319609 l 3.19113,-1.23394 1.7e-4,1.69e-4 c 0.83916,1.112917 2.17265,1.832078 3.67404,1.832078 0.61893,0 1.20939,-0.122219 1.74838,-0.343984 l 0.0232,0.03205 1.08717,1.492184 0.017,0.02352 c -0.64927,0.549556 -1.06178,1.37082 -1.06178,2.28822 0,1.655313 1.3415,2.996472 2.99648,2.996472 0.17914,0 0.35472,-0.01569 0.52552,-0.04568 v -1.72e-4 c 2.6743,7.749847 2.62742,18.457812 -0.95934,25.337816 l -0.0533,-0.0542"
       id="path31"
       inkscape:connector-curvature="0"
       style="fill:#34aacd;stroke-width:0.17045741" />
    <path
       d="m 135.91491,72.557918 c 5.49283,7.293702 8.12622,16.705339 6.2413,26.115438"
       id="path33"
       inkscape:connector-curvature="0"
       style="fill:none;stroke-width:0.17045741" />
    <path
       d="m 110.9712,59.030928 c 7.6999,0.402281 14.74559,3.566311 20.21727,8.411732"
       id="path35"
       inkscape:connector-curvature="0"
       style="fill:none;stroke-width:0.17045741" />
    <path
       d="m 111.00887,59.074566 c -0.0227,-0.02949 -0.0343,-0.04466 -0.0343,-0.04466 7.6999,0.402111 14.74559,3.56631 20.2171,8.411733 v 1.7e-4 c 0.33938,-0.09631 0.69734,-0.147955 1.06741,-0.147955 0.13994,0 0.27767,0.0073 0.41352,0.02164 l 0.31262,-2.424758 -0.0424,-0.01431 c -0.91945,-0.301027 -1.54162,-1.15161 -1.54162,-2.171626 0,-1.269908 1.02957,-2.29947 2.29964,-2.29947 1.26991,0 2.29947,1.029732 2.29947,2.29947 0,0.344834 -0.0759,0.672282 -0.21222,0.96598 l 0.097,0.02881 3.07215,0.921663 0.0399,0.01177 c 0.787,-1.406105 2.29095,-2.356575 4.01666,-2.356575 2.54015,0 4.59928,2.058784 4.59928,4.59877 0,1.544344 -0.76075,2.91056 -1.92805,3.74478 l 0.0297,0.04091 1.04815,1.443773 0.031,0.04722 c 0.32148,-0.117615 0.66853,-0.181708 1.03058,-0.181708 1.65514,0 2.99647,1.341329 2.99647,2.99647 0,1.121441 -0.61603,2.098672 -1.52781,2.612601 2.52056,9.191406 2.54391,19.818231 -1.36195,26.448856 l 0.015,0.0326 1.04781,2.15953 c 1.37627,2.83675 1.84929,4.89417 1.84929,8.04542 0,2.96954 -0.44234,5.05679 -1.60605,7.57513 -0.45939,0.99513 -0.83558,1.82304 -0.83558,1.84026 0,0.0174 0.39068,0.24222 0.86882,0.49961 l 0.86848,0.46773 3.90091,-4.05689 c 2.14538,-2.23077 3.90433,-4.1445 3.90928,-4.25189 0.004,-0.10738 -1.4073,-2.28003 -3.13795,-4.82786 l -3.14631,-4.63269 1.38446,-3.17511 c 0.7616,-1.74651 1.67696,-3.873817 2.03407,-4.728149 l 0.64927,-1.552525 1.88901,-0.408416 c 1.03893,-0.224152 3.55131,-0.686432 5.58333,-1.026665 2.03185,-0.340233 3.73591,-0.660352 3.78756,-0.711491 0.0508,-0.0508 0.0142,-2.718454 -0.0816,-5.927826 l -0.17454,-5.834758 -3.73234,-0.655068 c -2.05282,-0.360347 -4.60048,-0.813422 -5.66191,-1.007232 l -1.92958,-0.352335 -0.73143,-1.713439 c -0.40228,-0.942629 -1.28474,-2.926924 -1.96095,-4.410075 -0.6762,-1.483148 -1.1557,-2.826864 -1.06501,-2.986413 0.091,-0.159377 1.54588,-2.405324 3.23391,-4.990994 1.6877,-2.585498 3.06875,-4.790535 3.06875,-4.900139 0,-0.109434 -1.81554,-2.012079 -4.03473,-4.228367 l -4.03456,-4.029443 -4.99269,3.370286 -4.99253,3.370112 -4.39678,-1.793041 c -2.41862,-0.986436 -4.43087,-1.826792 -4.47195,-1.867871 -0.0411,-0.04125 -0.5562,-2.484247 -1.14462,-5.428898 -0.58876,-2.944654 -1.12792,-5.597994 -1.199,-5.895954 l -0.12903,-0.541713 -5.65851,0.06392 -5.6585,0.06392 -1.17292,5.886746 -1.17292,5.886235 -3.9241,1.675427"
       id="path38"
       inkscape:connector-curvature="0"
       style="fill:#15738d;stroke-width:0.17045741" />
    <path
       d="m 142.15928,98.672335 c 1.88492,-9.410271 -0.74865,-18.82208 -6.24147,-26.115441 0.15768,-0.423757 0.24393,-0.882116 0.24393,-1.360591 0,-0.107558 -0.004,-0.213923 -0.0131,-0.319436 l 3.19113,-1.234112 v 1.69e-4 c 0.83967,1.112917 2.17282,1.832248 3.67421,1.832248 0.61893,0 1.20939,-0.122217 1.74855,-0.343813 l 0.0234,0.03188 1.08684,1.492184 0.0172,0.02352 c -0.64927,0.549727 -1.06178,1.370819 -1.06178,2.288392 0,1.655141 1.34133,2.996472 2.99647,2.996472 0.17932,0 0.3549,-0.01569 0.52552,-0.04585 v -1.69e-4 c 2.67414,7.749847 2.6276,18.457981 -0.95916,25.337812 l -0.0539,-0.0539 -1.53104,-1.56599 c -1.18963,-1.21639 -2.36834,-2.183226 -3.64677,-2.963408 z"
       id="path40"
       inkscape:connector-curvature="0"
       style="fill:#15738d;stroke-width:0.17045741" />
    <path
       style="stroke:#010202;stroke-width:0.13155553;stroke-miterlimit:10"
       d="m 615.51834,567.25004 c -12.04986,-2.80465 -27.29858,-24.93425 -54.13553,-62.96488 l -14.20898,-20.13477 3.91797,-4.25 c 2.15497,-2.33733 4.95544,-5.63042 6.22461,-7.31836 l 2.30664,-3.06836 4.07812,2.39063 4.08008,2.38867 16.42187,-17.08008 16.42188,-17.08008 -12.32617,-18.23242 -12.32617,-18.23437 7.04101,-16.3711 c 3.87001,-9.00272 7.31743,-16.69166 7.66016,-17.08594 0.34356,-0.39493 10.13234,-2.32011 21.75586,-4.27734 11.6248,-1.95851 21.13281,-3.56627 21.13281,-3.57226 0,-11.93599 -0.62854,-48.34531 -0.83789,-48.55469 -0.16554,-0.16623 -10.15299,-2.00899 -22.19336,-4.09571 l -21.89258,-3.79687 -6.67187,-15.73438 -6.67188,-15.73437 2.44336,-3.67774 c 1.34196,-2.02293 7.02656,-10.68339 12.63281,-19.24609 l 10.19336,-15.56836 -16.78125,-17.14844 -16.77929,-17.14843 -19.20703,13.04492 -19.20508,13.04492 -15.8086,-6.34766 -15.80859,-6.3457 -4.43945,-22.73828 -4.4375,-22.74023 h -23.39844 l -23.39649,0.002 -4.53515,22.75976 -4.53711,22.76172 -15.01563,6.35938 c -8.25925,3.49698 -15.51223,6.35742 -16.11718,6.35742 -0.60427,0 -9.45137,-5.73273 -19.65821,-12.73828 l -18.55664,-12.73633 -17.14648,17.14453 -17.14453,17.14453 13.06836,18.28711 13.06836,18.28516 -6.18555,15.86523 c -3.40099,8.72506 -6.48632,16.1482 -6.85547,16.4961 -0.37043,0.34658 -10.01953,2.31465 -21.44141,4.37109 -11.42188,2.05773 -21.48845,3.95461 -22.36914,4.21875 -1.50045,0.44904 -1.56246,1.97044 -1.0039,24.11133 0.32791,12.999 0.72759,23.78712 0.88672,23.97266 0.15847,0.18617 9.64793,2.04671 21.08593,4.13085 11.4367,2.08478 20.93275,3.96253 21.09961,4.17579 0.16687,0.21067 3.40654,8.04403 7.20117,17.40429 l 6.89844,17.01758 -10.95117,15.48633 c -6.02244,8.51826 -11.68724,16.55279 -12.58984,17.85351 l -1.63868,2.36915 10.13868,9.86328 c 5.57533,5.42521 13.41993,12.9987 17.43359,16.82812 l 7.29492,6.96484 6.43946,-4.52148 c 3.54208,-2.48874 6.64717,-4.52344 6.89843,-4.52344 0.25255,0 3.16572,2.6652 6.47266,5.92383 l 6.01367,5.92578 -3.44922,7.84375 c -7.34381,16.70279 -27.48819,55.61699 -36.86523,71.2168 -5.40782,8.99501 -13.72598,21.57702 -18.48633,27.95898 -18.78114,25.17978 -33.81445,36.47024 -64.68555,48.58789 -32.69884,12.83861 -36.57039,14.70463 -46.95117,22.625 -7.00491,5.34403 -11.7931,10.69742 -16.375,18.3086 -4.17022,6.92564 -8.18497,17.66257 -9.36523,25.05469 -2.70135,16.90767 6.14842,35.21118 20.5332,42.45703 4.58705,2.31224 5.97667,3.1538 13.14844,3.16601 7.44236,0.0113 8.87121,-0.77889 14.5625,-3.57812 4.01624,-1.97594 8.26561,-5.10024 11.96875,-8.80274 3.15874,-3.15813 6.29289,-5.74218 6.96484,-5.74218 2.70778,0 9.25244,-2.92208 11.70703,-5.22657 7.11701,-6.68281 6.82955,-17.77216 -0.6289,-24.32031 -11.37292,-9.98585 -30.6597,-2.5399 -30.80079,11.88867 -0.0249,2.67689 0.61599,5.85122 1.55079,7.66992 l 1.59765,3.10743 -3.35351,3.42968 c -8.68962,8.90287 -20.12496,7.50677 -25.80079,-3.14843 -1.65572,-3.10594 -2.66882,-5.13026 -2.67382,-11.80079 -0.005,-7.09062 0.96871,-8.89466 3.1875,-13.4121 3.18323,-6.48439 7.45857,-11.63824 14.02539,-16.90625 7.20592,-5.78083 15.64991,-9.93184 31.28711,-15.38672 19.46726,-6.78845 30.18048,-11.1788 41.98632,-17.20703 24.88282,-12.70651 35.88942,-22.6672 52.32227,-47.35352 2.64464,-3.97372 5.08759,-7.53987 5.42969,-7.92383 0.34208,-0.38528 -2.32379,6.7246 -5.92578,15.79883 -13.96538,35.20176 -24.2912,75.04984 -33.38477,128.86328 -2.2291,13.18904 -4.86262,27.43452 -5.84961,31.65625 -5.63524,24.06527 -13.54404,37.18912 -24.32812,40.36914 -14.24691,4.20178 -27.48281,-0.79575 -33.38477,-12.60742 -3.80171,-7.60857 -3.60574,-8.80768 1.86328,-11.375 6.28529,-2.94871 9.32729,-7.66813 9.36719,-14.53516 0.0406,-7.13635 -3.18655,-11.98511 -10.07422,-15.13867 -4.16055,-1.90378 -5.86246,-2.20638 -10.04492,-1.77344 -14.88729,1.53461 -21.69387,17.51787 -11.86328,27.85352 3.2992,3.46605 3.57031,4.14374 3.57031,8.88281 0,16.07018 12.66817,31.50059 29.60547,36.06055 17.28067,4.65343 34.08942,2.13967 44.11328,-6.59766 11.70664,-10.2023 17.10767,-25.218 27.8125,-77.32226 10.78215,-52.48883 14.4013,-64.3058 30.35547,-99.11328 7.98676,-17.42242 28.91674,-59.12098 29.42187,-58.61524 0.17273,0.17273 -0.65896,2.71718 -1.8457,5.65625 -7.29354,18.06342 -16.12628,46.38525 -20.8164,66.7461 -5.61077,24.35905 -6.02947,28.82936 -6.84766,73.58789 -0.41426,22.59507 -1.19187,45.55303 -1.72852,51.01562 -4.19341,42.64282 -18.38364,69.34352 -40.8125,76.79297 l -4.5332,1.50391 -5.74805,-2.91797 c -5.02964,-2.55186 -6.42139,-2.86943 -11.13086,-2.52735 -14.80676,1.0701 -22.13887,16.15708 -13.08203,26.91993 6.9843,8.30177 22.65347,8.58225 28.9961,0.51757 1.33359,-1.69564 3.39818,-2.58058 8.4375,-3.61523 10.69838,-2.2001 21.95675,-8.31047 30.88281,-16.76172 19.43699,-18.39651 31.07121,-45.67953 36.77539,-86.23242 0.55793,-3.97179 1.33551,-24.4927 1.73047,-45.59766 0.70994,-38.08214 0.73649,-38.47372 3.46875,-51.17187 5.47997,-25.4781 16.11035,-58.58317 28.79883,-89.68555 4.58638,-11.24409 7.65477,-17.77036 6.15429,-13.0918 -2.2394,6.98298 -7.01312,27.03559 -8.50195,35.71875 -4.36864,25.46586 -4.22933,47.74018 0.44727,71.32032 2.05708,10.36917 2.33593,13.59917 1.90234,22.07812 -0.85168,16.66995 -4.22037,29.37761 -17.3418,65.43555 -12.1505,33.39269 -14.3715,41.96104 -14.4082,55.55664 -0.0265,9.43759 0.23773,11.41904 2.04687,15.35156 5.83302,12.67298 18.99824,18.76764 40.8125,18.89649 9.31843,0.054 12.41438,-0.29328 17.75391,-1.97071 8.63293,-2.71419 14.68068,-7.53583 18.04688,-14.39258 2.33733,-4.76035 2.56559,-6.07535 2.48437,-14.27148 -0.0733,-7.43913 -0.51651,-10.18167 -2.51758,-15.55469 -2.2761,-6.11584 -2.34046,-6.69256 -1.03906,-9.21094 3.21286,-6.21248 0.50684,-15.45663 -5.75977,-19.67968 -6.92696,-4.66757 -14.90565,-4.78434 -21.94921,-0.31641 -7.15049,4.53615 -9.66458,12.84685 -6.19532,20.48633 2.16212,4.76099 6.56608,8.09337 12.76953,9.66406 4.32874,1.0952 5.12149,1.66165 6.64063,4.76563 2.21427,4.52394 2.9023,12.17192 1.41797,15.75586 -0.70931,1.71242 -2.52903,3.46852 -4.78711,4.62109 -4.933,2.51769 -18.14257,2.06937 -23.63672,-0.79688 -13.03446,-6.80458 -12.72466,-19.03985 1.4082,-55.48046 15.9046,-41.01479 20.66312,-56.76929 22.54688,-74.65235 1.05464,-10.0142 0.83069,-13.34209 -2.07422,-30.84179 -3.54595,-21.36394 -2.26702,-48.69768 3.40234,-72.75782 4.29649,-18.23414 14.43663,-46.14566 15.83789,-43.59765 1.00502,1.8271 3.34397,16.635 4.96875,31.47656 2.13377,19.47179 2.73078,57.93797 1.21485,78.35547 -1.5481,20.83309 -1.56588,45.737 -0.0391,53.02344 5.7976,27.65117 15.5452,49.98209 40.88867,93.66406 18.77336,32.35608 24.30145,44.55306 24.23633,53.47656 -0.0265,4.00271 -2.92767,9.75643 -6.93555,13.76367 -9.93302,9.9343 -28.12019,11.58062 -55.44727,5.02344 l -6.21875,-1.49414 v -4.38281 c 0,-4.82929 -1.42272,-8.24847 -4.65429,-11.1875 -7.82245,-7.11704 -19.47905,-7.10299 -26.63086,0.0254 -8.00478,7.98225 -6.91887,19.31924 2.44336,25.51562 3.81456,2.52545 12.39613,3.77466 16.1289,2.34766 1.79101,-0.68549 3.66266,-0.0627 10.38281,3.44922 8.69156,4.54454 17.86074,7.62323 26.44922,8.8789 v -0.002 h 0.004 c 19.90148,2.91069 44.54561,-2.95827 56.46484,-13.44922 2.65047,-2.33348 5.33082,-5.96762 7.19141,-9.75195 2.8173,-5.72542 2.96663,-6.53645 2.94531,-15.98047 -0.0265,-11.57201 -0.42257,-12.85508 -17.09765,-55.54492 -17.568,-44.97434 -29.44644,-83.55908 -36.40625,-118.24414 l -2.45313,-12.22852 0.25391,-35.66601 c 0.14286,-19.95368 -0.18104,-41.63329 -0.73633,-49.21094 -0.89552,-12.21173 -3.72158,-37.31719 -4.98047,-44.24219 -0.47868,-2.63369 -0.45071,-2.6605 1.01367,-0.90234 2.36633,2.83532 14.32654,27.97375 17.88281,37.58789 12.84246,34.71726 16.58907,63.71703 12.19336,94.42773 -2.17175,15.17205 -1.95757,34.09371 0.52539,46.3125 7.72581,38.0081 31.10287,63.20508 58.64258,63.20508 18.76373,0 39.09919,-11.37614 43.38086,-24.26758 3.22318,-9.70235 0.51211,-24.48906 -6.55273,-35.73633 -2.01842,-3.2135 -2.12646,-3.84769 -1.08985,-6.32226 2.80184,-6.67892 2.19542,-14.17258 -1.49804,-18.5625 -8.97827,-10.6681 -27.234,-8.01044 -32.32227,4.70703 -4.10192,10.25129 3.61144,21.01444 15.9082,22.20117 3.98854,0.38461 4.33206,0.64336 6.74219,5.03906 3.02219,5.51347 3.42911,12.82684 0.96875,17.45899 -7.12668,13.42809 -26.27484,16.93742 -39.1289,7.17187 -8.55946,-6.50173 -14.19767,-17.17598 -17.56836,-33.24804 -2.58796,-12.34507 -2.74369,-35.34897 -0.35938,-53.56641 2.03135,-15.52316 2.04085,-33.60363 0.0273,-46.94922 -1.53588,-10.16496 -5.61113,-27.56782 -8.12304,-34.67969 -0.77375,-2.18917 -1.28751,-4.09725 -1.13867,-4.24609 0.1474,-0.14551 4.09885,6.46566 8.7832,14.69531 4.68302,8.22962 12.53751,21.1105 17.45312,28.62696 17.08547,26.11268 27.51429,37.46456 40.35157,43.91992 16.60486,8.35011 26.03021,10.6303 57.79101,13.97265 35.6205,3.74824 43.17714,5.41389 51.33203,11.32227 6.00246,4.3474 8.68991,9.22276 8.67188,15.71289 -0.0189,6.79941 -2.45362,12.13594 -8.1211,17.80274 -6.28335,6.28463 -11.26937,8.44726 -19.46679,8.44726 -8.42291,0 -11.84348,-1.95771 -17.12695,-9.79883 l -3.5586,-5.2832 3.13867,-3.66406 c 8.82301,-10.31055 2.12456,-25.51411 -11.74804,-26.66407 -7.24264,-0.60045 -10.93103,0.41504 -15.07422,4.15235 -5.88454,5.30986 -7.64759,11.94863 -4.91016,18.50195 1.61575,3.86355 6.91908,8.4209 11.3457,9.74805 3.31079,0.99216 3.64658,1.4032 4.64063,5.68359 3.36106,14.46531 15.54729,26.19913 30.46875,29.33985 21.76078,4.58384 41.93565,-7.97414 51.33008,-31.94727 2.10024,-5.35759 2.4814,-7.69721 2.51172,-15.34766 0.034,-8.08403 -0.23622,-9.62636 -2.56641,-14.69531 -1.82903,-3.98596 -4.29965,-7.252 -8.33203,-11.02344 -12.05647,-11.27947 -29.17201,-16.70918 -75.49024,-23.95117 -19.58067,-3.06017 -31.86231,-6.07275 -38.56054,-9.45312 -13.64455,-6.88638 -28.80566,-26.26334 -48.16407,-61.55078 -8.15357,-14.86281 -16.89062,-31.91275 -16.89062,-32.9629 0,-0.34091 6.76081,1.85489 10.77773,7.73368 4.36617,4.20872 13.69455,10.1566 19.51649,13.27968 m -123.32742,-421.36292 0.48632,2.04882 c 0.26873,1.12616 2.30797,11.15381 4.53321,22.28321 2.22395,11.12939 4.17091,20.36362 4.32617,20.51953 0.15534,0.15526 7.75911,3.33033 16.90039,7.05859 l 16.61523,6.77539 18.85938,-12.73047 18.86914,-12.73828 0.004,0.004 0.01,-0.008 15.24805,15.22851 c 8.38745,8.37652 15.25,15.56686 15.25,15.98047 0,0.41425 -5.21895,8.74952 -11.59766,18.52149 -6.37999,9.77261 -11.87864,18.26091 -12.22265,18.86328 -0.34281,0.60302 1.46967,5.68151 4.02539,11.28711 2.55571,5.60561 5.88973,13.10528 7.41015,16.66796 l 2.76563,6.47657 7.29297,1.33008 c 4.01174,0.73251 13.63975,2.44665 21.39843,3.80859 l 14.10743,2.47461 0.6582,22.05273 c 0.36208,12.12991 0.50232,22.21232 0.31055,22.4043 -9.5e-4,9.2e-4 -0.0118,0.003 -0.0156,0.004 v 0.002 c -0.0302,0.0246 -0.14035,0.0613 -0.34179,0.11328 -1.42674,0.37376 -7.21521,1.44521 -13.97266,2.57617 -7.67943,1.28657 -17.17422,3.03239 -21.10156,3.88086 l -7.12696,1.53906 -2.45312,5.86524 c -1.34971,3.22897 -4.80898,11.27011 -7.6875,17.87109 l -5.23242,12 11.89062,17.50977 c 6.54104,9.62959 11.87616,17.84021 11.85938,18.24609 -0.0189,0.40588 -6.66687,7.63902 -14.77539,16.07031 l -14.74219,15.33399 -0.008,-0.002 -0.008,0.008 -3.28125,-1.76758 c -1.80714,-0.97153 -3.28515,-1.82359 -3.28515,-1.88867 0,-0.0658 1.42323,-3.19589 3.16015,-6.95508 4.39892,-9.52003 6.06836,-17.40676 6.06836,-28.63086 0,-11.90895 -1.7879,-19.68596 -6.99023,-30.40625 l -3.95899,-8.16211 -0.0566,-0.12305 c 14.76295,-25.06061 14.67493,-65.22567 5.14844,-99.96484 3.4467,-1.94176 5.77344,-5.63518 5.77344,-9.87305 0,-6.25501 -5.07049,-11.32617 -11.32617,-11.32617 -1.36838,0 -2.68013,0.24359 -3.89453,0.6875 l -0.11719,-0.17969 -3.96094,-5.45703 -0.11133,-0.15234 c 0.004,-0.003 0.008,-0.005 0.0117,-0.008 0.27175,-0.19435 0.53696,-0.39813 0.79688,-0.60743 0.26343,-0.21244 0.52109,-0.431 0.77148,-0.6582 0.004,-0.003 0.008,-0.006 0.0117,-0.01 3.49935,-3.18039 5.69531,-7.77041 5.69531,-12.8711 0,-9.60123 -7.78221,-17.38086 -17.38281,-17.38086 -2.85411,0 -5.54768,0.68779 -7.92383,1.90625 -0.33524,0.1722 -0.66431,0.35399 -0.98633,0.54688 -0.004,0.002 -0.008,0.005 -0.0117,0.008 -0.32277,0.19363 -0.6387,0.39588 -0.94726,0.60937 -0.003,0.002 -0.008,0.004 -0.0117,0.006 -2.17678,1.50825 -3.99199,3.50133 -5.29102,5.82227 l -0.008,-0.002 c -0.002,0.003 -0.002,0.006 -0.006,0.01 l -0.15234,-0.0449 -11.60938,-3.48437 -0.36523,-0.10938 C 513.71267,239.54035 514,238.30395 514,237 c 0,-4.79966 -3.89239,-8.69141 -8.69141,-8.69141 -1.19988,2e-5 -2.34302,0.2437 -3.38281,0.6836 -0.25663,0.10896 -0.50679,0.22912 -0.75,0.36133 -0.003,0.002 -0.008,0.002 -0.0117,0.004 -0.24227,0.13206 -0.47747,0.27594 -0.70508,0.42969 -2.31197,1.56186 -3.83203,4.20725 -3.83203,7.20703 0,3.85518 2.35109,7.06929 5.82617,8.20703 l 0.16016,0.0547 -1.18164,9.16406 c -0.004,-4e-4 -0.008,4e-4 -0.0117,0 v 0.006 c -0.51409,-0.0535 -1.0342,-0.082 -1.5625,-0.082 -0.47879,0 -0.95086,0.0275 -1.41797,0.0723 -0.062,0.006 -0.12394,0.0108 -0.18554,0.0176 -0.454,0.0491 -0.90306,0.1157 -1.34375,0.20508 -0.0113,0.002 -0.0219,0.004 -0.0332,0.006 -6.71686,1.37839 -11.76757,7.32382 -11.76757,14.44922 0,8.14588 6.60282,14.74805 14.74804,14.74805 6.58942,0 12.16687,-4.3216 14.0586,-10.28516 0.0151,-0.0424 0.0263,-0.0844 0.041,-0.12695 0.1338,-0.43567 0.25002,-0.88021 0.34375,-1.33203 0.003,-0.0144 0.008,-0.0283 0.0117,-0.043 0.19502,-0.95654 0.29688,-1.94679 0.29688,-2.96094 0,-0.40652 -0.0152,-0.8102 -0.0488,-1.20898 l 0.0117,-0.004 12.06054,-4.66406 c 3.17356,4.2063 8.21218,6.92578 13.88672,6.92578 2.33926,0 4.57164,-0.46325 6.60938,-1.30078 l 0.0879,0.12109 4.10742,5.63867 0.0645,0.0899 c -2.45393,2.0777 -4.01172,5.18045 -4.01172,8.64843 0,6.25563 5.06857,11.32618 11.32422,11.32618 0.67778,0 1.34147,-0.0598 1.98633,-0.17383 10.10699,29.29076 9.93126,69.76117 -3.625,95.76367 l -0.008,-0.008 c -0.002,0.004 -0.004,0.008 -0.008,0.0156 l -0.20118,-0.20508 -5.78711,-5.91797 c -3.70775,-3.79203 -7.38856,-6.94145 -11.27539,-9.58398 -0.002,-0.001 -0.002,-0.003 -0.004,-0.004 -6.48083,-4.40526 -13.53615,-7.39903 -22.25,-9.60156 -10.80923,-2.73548 -27.04615,-2.13216 -37.47266,1.38672 -8.85196,2.98674 -17.67171,8.09882 -24.07812,13.95313 l -4.83008,4.4121 -3.59766,-3.10937 c -12.18338,-10.53217 -29.07918,-14.16714 -44.24219,-9.51953 -23.35271,7.15759 -39.11291,32.51553 -37.16406,59.79687 0.65907,9.21083 2.35974,15.39543 6.6543,24.18555 1.76653,3.61553 3.05593,6.69751 2.86523,6.8457 -0.192,0.14741 -2.751,1.96458 -5.6875,4.03516 -2.93584,2.06997 -5.57729,3.75179 -5.86914,3.73633 -0.99343,-0.0476 -31.67969,-29.55122 -31.67969,-30.45899 0,-0.22866 5.34627,-7.98823 11.88282,-17.24414 6.53461,-9.25655 11.88867,-17.27195 11.88867,-17.8125 0.008,-1.21954 -13.75748,-35.80195 -14.58984,-36.65429 -0.33181,-0.34016 -9.13795,-2.12356 -19.56641,-3.96289 -10.42845,-1.83997 -19.81437,-3.66357 -20.85547,-4.04883 -1.83998,-0.68226 -1.8972,-1.28418 -2.08789,-22.36914 l -0.19727,-21.66993 4.79883,-0.96289 c 2.63949,-0.52893 12.7206,-2.4264 22.4043,-4.21484 9.68306,-1.78972 17.65029,-3.32052 17.70312,-3.40234 0.88778,-1.39864 12.99805,-33.62412 12.99805,-34.58985 4e-5,-0.74539 -5.48605,-9.01866 -12.18945,-18.38281 -6.70405,-9.36416 -12.18946,-17.36373 -12.18946,-17.77734 0,-0.93223 30.00986,-30.98047 30.94141,-30.98047 0.37111,0 8.84356,5.58635 18.82617,12.41601 9.98393,6.8284 18.6166,12.28015 19.18164,12.11329 0.56629,-0.1643 8.19192,-3.35713 16.94727,-7.09571 l 1.09961,-0.4707 h 0.002 l 14.81641,-6.32617 4.43554,-22.24805 4.43165,-22.24805 h 0.0117 l 0.002,-0.006 21.38672,-0.24218 z m 25.30664,71.59179 h 0.002 l 0.25391,0.0801 12.50976,3.92969 -0.0937,0.30078 c -0.54826,1.69115 -0.75195,3.19683 -0.75195,5.07031 0,2.73934 0.61606,5.29059 1.74414,7.59571 l 0.0176,0.0371 -10.99805,4.12891 c -1.45534,-4.47624 -4.99512,-8.01077 -9.47265,-9.46484 h -0.002 l 1.08008,-9.22266 0.0195,-0.15039 c 2.19507,-0.0503 4.18849,-0.91564 5.69141,-2.30469 z m -9.92774,122.30274 h 0.004 c 11.1964,-0.003 19.38266,1.75753 28.44336,6.11523 17.66725,8.49827 31.06932,24.70872 36.22656,43.82031 2.1566,8.00357 2.15195,24.52104 -0.0117,32.50586 -5.83495,21.53726 -21.42704,38.56207 -42.29101,46.17774 -3.87001,1.41154 -9.27953,2.82894 -12.01953,3.15039 l -4.76954,0.45898 0.0332,-14.6289 0.25195,-14.75586 4.23242,-1.31446 c 8.75857,-2.71683 17.24972,-11.86362 19.81836,-21.3457 1.35228,-4.99355 0.51618,-14.5434 -1.71484,-19.58594 -2.48292,-5.61074 -8.61921,-12.12182 -13.99805,-14.84765 -18.67226,-9.46209 -40.63665,1.72569 -43.96094,22.38867 -2.41145,14.99747 7.5475,30.23564 22.30274,34.125 l 3.83789,1.01367 V 483.375 h 0.004 v 14.41406 l -3.38672,-0.0527 c -10.77959,-0.15723 -27.31818,-7.64832 -37.30664,-16.89649 -14.52522,-13.44808 -21.56155,-29.43143 -21.59375,-49.04687 -0.0302,-18.88226 5.78831,-32.85476 19.36328,-46.49609 6.90251,-6.93918 9.4834,-8.85333 16.73828,-12.41602 11.33877,-5.56502 18.07153,-7.19231 29.79687,-7.19531 z m -85.53711,6.66601 c 3.63402,-0.0807 7.29287,0.34265 10.92579,1.28906 6.99522,1.8213 13.88132,5.2865 18.61718,9.36329 l 3.89258,3.35351 -3.43945,4.47461 c -6.95335,9.04139 -13.02071,25.27258 -13.06641,34.94727 -0.0189,4.14058 -0.91185,4.27777 -2.80078,0.42968 -3.76437,-7.66786 -16.20536,-11.2221 -23.76562,-6.78906 -1.93921,1.13904 -4.76466,3.60966 -6.2793,5.49024 -2.26711,2.81537 -2.81955,4.42239 -3.11719,9.10156 -0.54697,8.60587 3.26867,14.95743 10.9043,18.14648 l 3.37304,1.41016 V 468.002 c 0,7.93969 -0.10026,14.40853 -0.22461,14.375 -13.19871,-3.4744 -17.46595,-5.83471 -25.96679,-14.36133 -4.60381,-4.61797 -7.72227,-8.72665 -9.72266,-12.81054 -11.59325,-23.67806 -7.51306,-51.41642 10.14063,-68.92969 8.96262,-8.89158 19.62725,-13.68175 30.52929,-13.92383 z m 16.75,67.20508 0.60743,3.60547 c 1.40447,8.32562 6.30405,20.81214 10.5039,26.76758 l 1.6875,2.39062 -4.48437,2.87696 c -2.4649,1.58161 -6.47559,3.63606 -8.91407,4.5625 -2.43783,0.92643 -6.51252,1.95928 -9.05664,2.29687 l -4.625,0.61328 V 468.1875 453.70312 l 3.94336,-1.9082 c 4.63147,-2.24133 6.29087,-3.91707 8.6211,-8.70898 z m 177.34746,151.41123 c -8.0722,-3.42791 -26.37188,-15.88569 -41.6873,-40.97568 -4.03684,-6.61195 -8.11215,-13.03319 -9.05469,-14.26758 -1.08374,-1.41921 -1.79941,-1.92748 -2.10351,-1.76953 l 0.0117,0.0117 c -0.33374,0.3583 0.1387,1.96979 1.56445,4.22851 1.24535,1.97337 7.97728,15.00787 14.96094,28.9668 22.80638,45.59025 35.33323,67.02577 48.96875,83.79297 14.82867,18.23803 22.16225,21.45871 64.41015,28.28711 51.27186,8.28888 68.04371,15.27593 76.94336,32.06054 3.44803,6.50238 3.97247,18.32724 1.17774,26.63672 -4.53876,13.50543 -13.23739,24.14017 -24.14454,29.53125 -6.00952,2.96871 -7.71705,3.39134 -15.02734,3.70508 -6.73304,0.29065 -9.31421,-0.004 -14.04297,-1.60156 -13.3353,-4.50716 -23.33402,-15.78331 -25.00586,-28.20117 -0.51734,-3.84809 -0.83106,-4.29673 -3.39453,-4.83985 -4.4756,-0.94511 -9.5332,-4.14466 -11.44726,-7.24414 -2.37793,-3.84748 -2.33715,-10.52319 0.0898,-14.44922 5.8749,-9.50335 21.46923,-9.64188 27.6875,-0.24609 1.96176,2.96292 2.2286,4.19279 1.86523,8.58203 -0.38075,4.57225 -0.81548,5.48568 -4.06054,8.51172 l -3.63477,3.39258 3.34766,5.29687 c 6.41155,10.13658 14.22841,14.63029 23.54101,13.52735 12.20145,-1.44635 24.78047,-12.92156 26.98829,-24.62305 1.69889,-9.00597 -2.06324,-17.28958 -10.3418,-22.77148 -9.01822,-5.97479 -16.36536,-7.58665 -50.08789,-10.98633 -31.65517,-3.19162 -42.30774,-5.71048 -57.91016,-13.69141 -9.72748,-4.9762 -16.09394,-10.6621 -25.55859,-22.82617 -15.40721,-19.80098 -39.01865,-59.59879 -58.94141,-99.3457 -6.81229,-13.59107 -8.28863,-16.01193 -9.35937,-15.35157 -0.43102,0.26684 3.03093,8.08297 7.69336,17.37305 12.79218,25.48966 20.57943,48.3345 24.5332,71.96875 1.97783,11.8213 2.15238,34.97142 0.35351,46.95313 -0.92836,6.19959 -1.33085,15.67964 -1.28515,30.24609 0.0631,19.91308 0.21276,21.76196 2.42383,29.99805 5.5251,20.57537 14.76949,31.97815 28.8457,35.58593 16.34328,4.18572 33.13744,-6.8821 33.20312,-21.88086 0.0227,-5.5096 -1.25565,-9.59805 -4.38476,-14.01953 -2.02745,-2.86431 -2.8047,-3.2859 -6.20117,-3.35351 -8.01253,-0.16177 -14.50748,-5.70425 -15.33985,-13.09375 -1.13321,-10.05094 10.09033,-18.274 20.63086,-15.11719 9.99296,2.99641 14.20844,12.85181 9.09375,21.26953 l -1.6289,2.67969 4.3125,8.1875 c 6.92375,13.15427 8.50289,23.83238 4.82617,32.63086 -3.32946,7.96936 -15.32078,16.41607 -27.95899,19.6914 -6.96049,1.8059 -18.69654,1.78479 -24.92773,-0.0449 -32.14027,-9.42663 -52.1309,-56.20681 -44.72461,-104.65234 2.22331,-14.53554 2.65786,-25.34404 1.51172,-37.47266 -2.64397,-28.00615 -11.83482,-58.45388 -25.92774,-85.88086 -9.5523,-18.59172 -13.71256,-21.96785 -11.51953,-9.35156 0.65586,3.76887 2.1174,14.24111 3.24805,23.27539 1.87669,14.96141 2.06864,20.37607 2.15625,60.67188 0.11074,50.30679 0.0559,49.76819 8.50391,83.97265 7.52738,30.4794 15.78976,55.19564 34.56445,103.38477 13.28118,34.08722 12.7537,32.24199 12.79883,44.69531 0.0378,10.32922 -0.085,11.05841 -2.60742,15.60938 -6.12874,11.06558 -16.9194,17.19293 -36.07227,20.48437 h -0.002 c -13.83462,2.37986 -27.05343,1.38848 -39.40625,-2.95117 -5.6984,-2.00103 -13.72558,-5.92466 -17.33594,-8.4707 -1.90379,-1.34264 -2.86016,-1.51962 -4.23047,-0.78711 -2.68267,1.43667 -10.70243,1.13602 -14.21875,-0.53321 -5.82852,-2.76771 -9.56394,-10.15286 -8.0957,-16.00976 0.81433,-3.24442 4.77966,-7.60349 8.76562,-9.63672 11.00311,-5.61464 24.92978,3.65846 22.96485,15.29101 -0.52831,3.12526 -0.37719,3.52192 1.50195,3.93555 27.74649,6.08039 40.39752,6.92877 51.30078,3.44336 9.82605,-3.14135 16.94843,-9.95131 19.46484,-18.60937 1.22729,-4.21081 1.22442,-5.41512 0.006,-11.25782 -1.79421,-8.6078 -8.31758,-21.91943 -23.00195,-46.93945 -22.128,-37.70271 -35.06394,-66.34949 -39.76953,-88.06836 -3.38748,-15.63787 -3.84438,-25.0759 -2.11328,-43.75977 1.08041,-11.66861 1.54883,-25.41399 1.54883,-45.59765 0.001,-31.28984 -1.29345,-48.51579 -5.41211,-71.99414 -1.20344,-6.86446 -2.1875,-12.67109 -2.1875,-12.90625 0,-0.23584 -0.55271,-0.42774 -1.22657,-0.42774 -2.94485,0 -14.62065,31.132 -18.96484,50.56641 -5.7383,25.67074 -6.63118,54.34513 -2.40234,77.19922 1.62867,8.79976 1.90979,12.78748 1.5039,21.2207 -0.84911,17.6157 -4.90275,32.33335 -18.64843,67.7168 -9.47112,24.38029 -12.99196,35.17991 -14.45313,44.33789 -2.66717,16.73567 4.49885,25.97162 21.36719,27.53906 19.17222,1.7833 27.01624,-9.00265 18.67773,-25.67773 -2.47067,-4.9375 -2.70889,-5.13512 -6.90039,-5.72461 -7.90428,-1.11001 -13.26367,-6.99453 -13.26367,-14.5625 0,-5.18748 2.87794,-9.50504 8.09766,-12.14258 12.51386,-6.32202 27.46812,4.35962 22.90234,16.36328 -1.89604,4.98584 -1.82191,6.40938 0.67969,12.75781 1.75944,4.46661 2.13947,7.0909 2.15625,14.96875 0.0227,9.0607 -0.11642,9.7747 -2.68555,13.90625 -5.74284,9.23467 -14.16118,13.19078 -29.38281,13.81055 -24.38223,0.9947 -40.49154,-7.24157 -43.76563,-22.37109 -2.27221,-10.50448 0.55205,-26.12016 9.07032,-50.11328 11.67567,-32.8876 18.46732,-53.81235 20.36914,-62.75196 2.35604,-11.08301 2.85558,-30.39512 0.95312,-36.87304 -5.29444,-18.03315 -5.88458,-47.07811 -1.48437,-72.88672 2.67942,-15.71256 10.67812,-44.1485 17.19531,-61.13086 0.42459,-1.10748 0.15496,-1.57031 -0.91211,-1.57031 -1.03465,0 -2.89336,2.93129 -5.87109,9.25781 -18.814,39.94855 -36.06527,90.50554 -42.68946,125.11328 -1.82706,9.54969 -1.9937,12.81953 -1.76758,34.47656 0.38075,36.19261 -1.60113,59.19724 -7.05468,81.91602 -8.51052,35.44913 -25.64005,60.37713 -48.80078,71.01367 -6.76655,3.10915 -16.38051,5.636 -17.89063,4.70117 -0.44775,-0.27704 -1.92974,0.95766 -3.29297,2.74609 -4.50523,5.90843 -12.43766,8.08488 -19.18359,5.26758 -9.13029,-3.81456 -12.9013,-13.24546 -8.10938,-20.2832 5.80402,-8.5273 15.61119,-10.09859 24.67383,-3.94922 l 3.47656,2.36133 5,-1.56641 c 22.18276,-6.94885 35.312,-26.62387 41.5625,-62.26758 2.81988,-16.08687 3.67057,-29.76568 4.47461,-72.06445 0.70609,-37.12033 0.9206,-40.82468 3.08203,-52.66015 6.17836,-33.85399 19.88286,-75.97619 37.35743,-114.8379 2.7445,-6.10299 4.72447,-11.35759 4.40234,-11.67968 -0.32164,-0.31937 -0.94478,-0.20594 -1.38672,0.25781 -2.46814,2.58727 -36.33872,68.61242 -47.09766,91.80859 -17.18017,37.04236 -20.20777,46.77154 -31.45312,101.04688 -7.0906,34.22955 -8.88688,41.64738 -12.79102,52.8457 -5.51863,15.82469 -13.71198,26.09176 -24.12304,30.22656 -4.30036,1.70854 -6.85515,2.04508 -15.53125,2.03907 -18.93704,-0.004 -32.0456,-6.18395 -39.51953,-18.62891 -3.28953,-5.4774 -6.03987,-16.62708 -5.12891,-20.77734 0.50316,-2.29093 0.0946,-3.04771 -3.09961,-5.78125 -4.44467,-3.80493 -6.06025,-8.53734 -4.67383,-13.68555 1.02564,-3.81071 5.48751,-8.60919 9.36524,-10.07031 4.26621,-1.60804 10.65476,-1.1256 14.58789,1.10156 10.82596,6.13259 10.24915,19.68659 -1.06836,25.0957 -5.29186,2.5287 -5.63573,3.00905 -5.04688,7.07813 0.78792,5.45291 3.78849,10.64331 8.79688,15.2207 8.06084,7.36766 18.62549,9.30608 30.58789,5.61133 4.89243,-1.51272 6.60365,-2.61232 10.07422,-6.47266 9.25914,-10.2983 13.89914,-24.48555 20.32617,-62.13672 7.98868,-46.80722 15.87893,-80.33858 26.13086,-111.02929 10.15271,-30.3995 19.24153,-50.35032 35.16992,-77.21289 5.77894,-9.74363 8.77742,-15.64315 8.22852,-16.19141 -0.47418,-0.4763 -1.0077,-0.68651 -1.1836,-0.4707 -1.03529,1.26209 -11.02492,18.06406 -15.49023,26.05273 -2.89267,5.17459 -11.36119,18.58114 -18.81836,29.79492 -11.01021,16.55331 -15.18864,22.01542 -22.21094,29.03321 -15.9342,15.92262 -34.91289,26.20219 -73.51562,39.81836 -8.52276,3.00737 -17.52748,6.49302 -20.00977,7.74609 -26.26344,13.26187 -38.01232,37.67361 -26.70898,55.49805 6.87478,10.84142 19.84592,11.18061 29.25195,0.76953 1.82902,-2.0242 3.32422,-3.86899 3.32422,-4.09961 0,-0.23055 -0.86334,-2.07733 -1.91797,-4.10156 -5.02128,-9.63088 2.53537,-20.75391 14.10156,-20.75391 5.46194,0 9.33966,1.72567 12.8418,5.71484 5.14175,5.85687 4.80069,12.96215 -0.88867,18.44727 -3.19225,3.08081 -6.76711,4.73047 -10.24219,4.73047 -1.56875,0 -4.0622,1.83208 -8.29492,6.09765 -3.32754,3.35071 -8.17319,7.23212 -10.76758,8.6211 -12.22011,6.54493 -25.58721,4.21738 -35.40234,-6.16211 -10.7377,-11.3523 -13.48806,-26.30051 -7.84766,-42.63672 6.63833,-19.23148 17.99088,-31.848 37.13086,-41.26367 4.46915,-2.19818 15.9999,-7.07816 25.62305,-10.84571 29.12968,-11.40321 43.11414,-19.65167 56.34765,-33.23242 20.34086,-20.87493 46.3859,-64.12737 70.38867,-116.89453 l 4.19922,-9.23242 5.69336,2.66406 c 7.9906,3.73731 17.64299,5.11103 26.14258,3.72266 6.72983,-1.10037 16.13433,-4.89306 20.35156,-8.20899 l 2.3125,-1.82226 7.48242,7.08398 c 9.13418,8.64647 19.9218,14.55831 31.70508,17.375 6.64993,1.59258 9.81249,1.83652 18.82617,1.45899 7.44953,-0.31484 13.44336,-1.20359 19.03907,-3 5.57616,-1.80072 10.76193,-4.50587 16.60742,-8.45899 l 5.02734,-3.40039 4.39844,6.44141 c 27.9535,40.9164 51.33905,76.12194 65.60914,77.74687 M 436.71094,508.14062 c -0.33714,0.0699 -0.66653,0.56002 -0.85547,1.55079 -1.03079,5.38915 2.93614,11.20081 8.55078,12.52539 v -0.002 c 1.66167,0.39323 3.53884,0.39426 4.23242,0.35352 1.24793,-0.0741 1.49589,-0.21581 2.58594,-0.50195 2.23555,-0.58436 7.26724,-5.20938 8.4082,-9.01563 0.6217,-2.07704 0.92507,-3.98118 0.67188,-4.23437 -0.76861,-0.76793 -2.40039,0.65913 -2.40039,2.10351 0,2.58282 -2.77483,6.7079 -5.4375,8.08399 -6.91212,3.57558 -14.60742,-0.68477 -14.60742,-8.08399 0,-1.84414 -0.58624,-2.89567 -1.14844,-2.7793 z"
       transform="scale(0.26458333)"
       id="path4296"
       inkscape:connector-curvature="0"
       sodipodi:nodetypes="cccccccccccccccscccccccccccccccccccccscccccccccccccccccccccccscccccccccccccsccccccccccccccccccccccccscccccccccccccccccccccccccccccccccccccccccccccccccccccccscccccccccccccccccccccscccccccccccccccccccccsccccccccccccccccscccccccccccccsccccccccccccccccccccccccccscsccccssccccccccsscccccccccccscccccscccccsccccssccccscccsccccsscccccccccccccccccccsccccccccccccsscccccccccccccccccsccccccccccccccccccccccccccccccccccscccccccccccsccccscccccccccccccccccccccccccccccccccccccccccccccccccccccccccccccccccccccccccccccccccccccccccssccccccccsccccccccccccsccccccccccccccccccccccccccccccccccccccccccccccscsccscccccccccccccccccccccccccccccscscscc" />
    <path
       style="stroke:#000000;stroke-width:0.13921256;stroke-miterlimit:10"
       d="m 116.83149,25.566341 c -0.67554,-0.0083 -1.37306,0.0242 -2.11305,0.0925 -6.79,0.626601 -11.49183,4.458404 -13.60176,11.084595 -0.37654,1.182634 -0.75853,2.499437 -0.84904,2.926434 l -0.16536,0.776698 h 2.52439 2.52388 l 0.37258,-0.89607 c 1.34832,-3.240394 3.70561,-4.6248 7.87653,-4.624006 2.78595,5.29e-4 4.30611,0.476718 9.21545,2.886646 4.35383,2.137024 6.10665,2.63343 9.29659,2.63343 7.55314,0 13.02925,-3.914783 15.3877,-10.999846 0.32983,-0.990698 0.67169,-2.253927 0.76016,-2.807062 l 0.16071,-1.00459 h -2.48305 -2.48254 l -0.40514,1.140498 c -1.17258,3.301249 -4.83301,4.971352 -9.47798,4.325319 -2.24271,-0.311939 -3.71963,-0.863897 -7.31014,-2.730066 -3.78609,-1.967899 -6.3026,-2.768725 -9.22993,-2.804481 z m 27.04382,0.56379 1.65623,0.06253 c 0.91093,0.03477 1.72848,0.135462 1.81695,0.223759 0.24,0.239832 -0.56603,2.930129 -1.44746,4.832263 -1.44275,3.113064 -3.80446,5.661316 -6.50348,7.01611 -3.23477,1.62429 -8.42798,2.074905 -11.78326,1.022159 -0.98541,-0.309379 -3.51187,-1.403524 -5.61413,-2.431893 -4.23092,-2.069865 -6.0732,-2.62051 -8.77,-2.62051 -3.7274,0 -6.57622,1.584272 -7.96903,4.431252 l -0.63768,1.302763 h -1.87741 -1.87689 l 0.14366,-0.776697 c 0.25211,-1.359909 1.64757,-4.874604 2.49236,-6.276618 1.75929,-2.919934 5.01661,-5.29164 8.49974,-6.187736 4.80979,-1.237691 9.05988,-0.497815 14.41514,2.508374 3.93739,2.210149 7.89337,3.045865 11.27166,2.38125 2.80556,-0.551942 4.37018,-1.688298 5.45497,-3.961516 z"
       id="path4310"
       inkscape:connector-curvature="0" />
    <path
       style="fill:none;stroke-width:0.17045741"
       inkscape:connector-curvature="0"
       id="path4318"
       d="m 135.91487,72.557661 c 5.49282,7.293703 8.12622,16.705339 6.2413,26.115439" />
    <path
       style="fill:none;stroke-width:0.17045741"
       inkscape:connector-curvature="0"
       id="path4320"
       d="m 110.97116,59.030672 c 7.6999,0.40228 14.74559,3.566311 20.21727,8.411731" />
    <path
       style="fill:#15738d;stroke:#000000;stroke-width:0.13921256;stroke-miterlimit:10"
       inkscape:connector-curvature="0"
       id="path4349"
       d="m 105.26125,38.665741 c 1.39281,-2.846981 4.24184,-4.431041 7.96923,-4.431041 2.6968,0 4.53894,0.550407 8.76986,2.620272 2.10225,1.028369 4.6286,2.122707 5.61402,2.432087 3.35528,1.052745 8.54844,0.601885 11.78321,-1.022406 2.69902,-1.354793 5.06071,-3.902961 6.50346,-7.016025 0.88143,-1.902134 1.6877,-4.592465 1.44769,-4.832299 -0.0885,-0.0883 -0.90598,-0.188697 -1.8169,-0.22347 l -1.65651,-0.06273 -0.72819,1.525596 c -1.08479,2.273218 -2.64959,3.409487 -5.45515,3.961429 -3.3783,0.664615 -7.3341,-0.17131 -11.2715,-2.381459 -5.35526,-3.006189 -9.60527,-3.745804 -14.41507,-2.508112 -3.48313,0.896096 -6.74074,3.26767 -8.50003,6.187604 -0.84479,1.402013 -2.24015,4.916675 -2.49226,6.276583 l -0.14369,0.776605 h 1.87707 1.87725 z"
       stroke-miterlimit="10" />
    <g
       style="clip-rule:evenodd;fill:#e6e6e6;fill-rule:evenodd;stroke:#000000;stroke-width:0.50338584;stroke-miterlimit:4;stroke-dasharray:none;image-rendering:optimizeQuality;shape-rendering:geometricPrecision;text-rendering:geometricPrecision"
       id="_152222920"
       transform="matrix(-1.587429,0.27510096,0.27510096,1.587429,193.56365,67.038769)">
      <path
         class="fil0"
         d="m 24.186,22.5 c -5.4466,3.1445 2.8637,18.724 8.8237,15.283 1.0584,1.8332 4.4676,7.7381 5.526,9.5712 -2.5146,1.4519 -4.6432,2.3671 -7.5585,0.70054 -8.0946,-4.6273 -17.005,-20.054 -16.751,-29.256 0.08805,-3.196 1.971,-4.4482 4.434,-5.8702 1.0584,1.8332 4.4676,7.738 5.526,9.5712 z"
         id="_152222248"
         inkscape:connector-curvature="0"
         style="fill:#e6e6e6;stroke:#000000;stroke-width:0.50338584;stroke-miterlimit:4;stroke-dasharray:none" />
      <path
         class="fil0"
         d="m 26.47,22.24 c -0.58849,0.33978 -1.3458,0.13697 -1.6856,-0.45158 l -5.2095,-9.0232 c -0.33984,-0.58862 -0.13704,-1.3459 0.45152,-1.6857 l 2.738,-1.5808 c 0.58855,-0.33984 1.346,-0.13685 1.6858,0.4517 l 5.2095,9.0231 c 0.33978,0.58849 0.13691,1.3458 -0.45158,1.6856 l -2.738,1.5808 z"
         id="_150519168"
         inkscape:connector-curvature="0"
         style="fill:#e6e6e6;stroke:#000000;stroke-width:0.50338584;stroke-miterlimit:4;stroke-dasharray:none" />
      <path
         class="fil0"
         d="m 40.702,46.89 c -0.58849,0.33978 -1.3458,0.13697 -1.6856,-0.45164 l -5.2095,-9.0232 c -0.33984,-0.58855 -0.13704,-1.3459 0.45152,-1.6856 l 2.738,-1.5808 c 0.58855,-0.33978 1.346,-0.13679 1.6858,0.4517 l 5.2095,9.0231 c 0.33978,0.58855 0.13691,1.3459 -0.45158,1.6856 l -2.738,1.5808 z"
         id="_226148072"
         inkscape:connector-curvature="0"
         style="fill:#e6e6e6;stroke:#000000;stroke-width:0.50338584;stroke-miterlimit:4;stroke-dasharray:none" />
    </g>
    <path
       style="fill:#13738d;stroke:#010202;stroke-width:0.63499999;stroke-miterlimit:10;stroke-dasharray:none"
       d="m 161.26109,156.63567 c 4.31688,1.01889 13.89038,-0.58291 13.18091,-11.73627 -0.84708,-10.8036 -15.07455,-22.13626 -9.10484,-26.46304 0,0 0.62074,-2.87538 -0.54501,-5.11722 -11.38177,8.36313 0.99578,20.61885 3.6829,26.68242 2.68711,6.06358 -2.26052,11.07808 -5.76032,10.36281"
       id="path12877"
       inkscape:connector-curvature="0"
       sodipodi:nodetypes="cccczc" />
    <path
       style="fill:#13738d;stroke:#010202;stroke-width:0.63499999;stroke-miterlimit:10;stroke-dasharray:none"
       d="m 176.15511,115.65166 c 0.3816,0.0183 0.071,1.08113 -0.34761,1.59339 -0.56631,0.69305 -0.81382,0.81586 -1.45954,0.20098 -0.90481,-0.68957 -2.33313,-0.7614 -3.45631,-0.46739 -3.09409,0.80843 -4.11258,3.70056 -2.57697,6.04485 1.76699,2.3442 4.10005,2.26939 5.75556,1.04796 1.1515,-1.2093 1.31954,-1.88554 1.32559,-3.25341 0,0 2.51424,-1.24011 3.21901,-3.19974 0.93154,-2.59018 -1.50707,-4.43807 -2.06189,-4.53318"
       id="path12781"
       inkscape:connector-curvature="0"
       inkscape:transform-center-x="-10.500343"
       inkscape:transform-center-y="-1.2652855"
       sodipodi:nodetypes="cscccccsc" />
  </g>
</svg>
