<?xml version="1.0" encoding="UTF-8" standalone="no"?>
<!-- Created with Inkscape (http://www.inkscape.org/) -->

<svg
   xmlns:dc="http://purl.org/dc/elements/1.1/"
   xmlns:cc="http://creativecommons.org/ns#"
   xmlns:rdf="http://www.w3.org/1999/02/22-rdf-syntax-ns#"
   xmlns:svg="http://www.w3.org/2000/svg"
   xmlns="http://www.w3.org/2000/svg"
   xmlns:xlink="http://www.w3.org/1999/xlink"
   xmlns:sodipodi="http://sodipodi.sourceforge.net/DTD/sodipodi-0.dtd"
   xmlns:inkscape="http://www.inkscape.org/namespaces/inkscape"
   width="146.05865mm"
   height="219.81918mm"
   viewBox="0 0 146.05865 219.81918"
   version="1.1"
   id="svg8"
   inkscape:version="0.92.3 (2405546, 2018-03-11)"
   sodipodi:docname="oshwi_libreta_gafas.svg"
   inkscape:export-filename="/home/oscar/proyectos/oshwdem/marketing/oshwi_lector.png"
   inkscape:export-xdpi="110.42824"
   inkscape:export-ydpi="110.42824">
  <sodipodi:namedview
     id="base"
     pagecolor="#ffffff"
     bordercolor="#666666"
     borderopacity="1.0"
     inkscape:pageopacity="0.0"
     inkscape:pageshadow="2"
     inkscape:zoom="0.64"
     inkscape:cx="76.927176"
     inkscape:cy="454.65124"
     inkscape:document-units="mm"
     inkscape:current-layer="layer1"
     inkscape:document-rotation="0"
     showgrid="false"
     inkscape:snap-global="false"
     showguides="true"
     inkscape:guide-bbox="true"
     fit-margin-top="2"
     fit-margin-left="2"
     fit-margin-right="2"
     fit-margin-bottom="2"
     inkscape:window-width="1366"
     inkscape:window-height="741"
     inkscape:window-x="0"
     inkscape:window-y="27"
     inkscape:window-maximized="1" />
  <defs
     id="defs2">
    <linearGradient
       id="linearGradient4467">
      <stop
         id="stop4469"
         style="stop-color:#ffffff"
         offset="0" />
      <stop
         id="stop4471"
         style="stop-color:#ffffff;stop-opacity:.24762"
         offset="1" />
    </linearGradient>
    <radialGradient
       id="radialGradient5122"
       xlink:href="#linearGradient4467"
       gradientUnits="userSpaceOnUse"
       cy="13.078"
       cx="15.414"
       gradientTransform="matrix(3.5748364,0,0,3.1048173,85.779728,106.70924)"
       r="6.6561999"
       inkscape:collect="always" />
    <linearGradient
       id="linearGradient4454">
      <stop
         id="stop4456"
         style="stop-color:#729fcf;stop-opacity:.20784"
         offset="0" />
      <stop
         id="stop4458"
         style="stop-color:#729fcf;stop-opacity:.67619"
         offset="1" />
    </linearGradient>
    <radialGradient
       gradientTransform="matrix(1.465048,0,0,1.465048,83.586845,129.19277)"
       id="radialGradient4460"
       xlink:href="#linearGradient4454"
       gradientUnits="userSpaceOnUse"
       cy="21.818001"
       cx="18.240999"
       r="8.3085003"
       inkscape:collect="always" />
    <radialGradient
       id="aigrd2"
       gradientUnits="userSpaceOnUse"
       cy="39.592999"
       cx="25.052999"
       gradientTransform="matrix(0.53935685,0,0,0.53935685,82.852087,-86.127176)"
       r="15.757">
      <stop
         id="stop8602"
         style="stop-color:#777777"
         offset="0" />
      <stop
         id="stop8604"
         style="stop-color:#000000"
         offset="1" />
    </radialGradient>
    <radialGradient
       id="radialGradient5152"
       xlink:href="#linearGradient4467"
       gradientUnits="userSpaceOnUse"
       cy="13.078"
       cx="15.414"
       gradientTransform="matrix(2.7160586,0,0,2.3589515,63.856955,118.04609)"
       r="6.6561999"
       inkscape:collect="always" />
    <radialGradient
       gradientTransform="matrix(1.9282746,0,0,1.9282746,111.74698,121.38033)"
       r="8.3085003"
       cy="21.818001"
       cx="18.240999"
       gradientUnits="userSpaceOnUse"
       id="radialGradient87"
       xlink:href="#linearGradient4454"
       inkscape:collect="always" />
    <linearGradient
       id="linearGradient7803"
       y2="414.36"
       gradientUnits="userSpaceOnUse"
       x2="353.75"
       gradientTransform="matrix(2.5278,2.5256,-2.5278,2.5256,565.91,-1456.1)"
       y1="414.36"
       x1="335.72"
       inkscape:collect="always">
      <stop
         id="stop3708"
         style="stop-color:#ffffff;stop-opacity:.82653"
         offset="0" />
      <stop
         id="stop3710"
         style="stop-color:#ffffff;stop-opacity:0"
         offset="1" />
    </linearGradient>
    <linearGradient
       id="linearGradient7812"
       y2="437.79"
       gradientUnits="userSpaceOnUse"
       x2="365.75"
       gradientTransform="matrix(2.5278,2.5256,-2.5278,2.5256,565.91,-1456.1)"
       y1="437.79"
       x1="331.72"
       inkscape:collect="always">
      <stop
         id="stop3687"
         style="stop-color:#ffffff"
         offset="0" />
      <stop
         id="stop3711"
         style="stop-color:#ffdd7c"
         offset="1" />
    </linearGradient>
    <linearGradient
       id="linearGradient7819"
       y2="318.69"
       gradientUnits="userSpaceOnUse"
       x2="185.48"
       gradientTransform="matrix(2.3454,2.3434,-2.3454,2.3434,888.99,-800.77)"
       y1="318.69"
       x1="148.7"
       inkscape:collect="always">
      <stop
         id="stop4256"
         style="stop-color:#ff9191"
         offset="0" />
      <stop
         id="stop4258"
         style="stop-color:#b55858"
         offset="1" />
    </linearGradient>
  </defs>
  <metadata
     id="metadata5">
    <rdf:RDF>
      <cc:Work
         rdf:about="">
        <dc:format>image/svg+xml</dc:format>
        <dc:type
           rdf:resource="http://purl.org/dc/dcmitype/StillImage" />
        <dc:title />
      </cc:Work>
    </rdf:RDF>
  </metadata>
  <g
     transform="translate(-65.345104,-65.381962)"
     id="layer1"
     inkscape:groupmode="layer"
     inkscape:label="Capa 1">
    <path
       sodipodi:nodetypes="ccccsccccc"
       style="fill:#13738d;stroke:#010202;stroke-width:0.0348415;stroke-miterlimit:10"
       inkscape:connector-curvature="0"
       d="m 153.2913,183.17268 c 0.0685,-0.0735 0.26609,0.0539 0.57445,0.45767 0.24937,0.3266 1.32718,2.02572 2.39526,3.77512 8.50446,13.93217 6.48275,10.69211 9.09695,14.11484 1.63936,-0.95356 6.78034,0.0211 7.78318,-0.6984 0.27913,-0.20026 -0.71751,-1.58626 -0.98375,-1.95341 -1.58667,-3.73576 -10.06588,-11.13779 -20.80726,-26.86027 l -1.16422,-1.7039 -1.32991,0.89934 c -1.55065,1.04865 -2.9259,1.76594 -4.40564,2.24236"
       stroke-miterlimit="10"
       id="Ultima_pata" />
    <path
       sodipodi:nodetypes="cccccccccccccccccccccccccccccccccccccccccccccccccccccccccsccccccccccccsccccccccsscccccccccccccccccccccccccccccccccccccccccccccccccccccccccccccccccccccccc"
       style="fill:#34aacd;stroke:#010202;stroke-width:0.0348415;stroke-miterlimit:10"
       inkscape:connector-curvature="0"
       id="path14"
       d="m 144.47149,173.43956 c -1.48314,0.47728 -3.07181,0.71251 -5.0469,0.79603 -2.38487,0.0999 -3.22181,0.0355 -4.98127,-0.38591 -3.11767,-0.74524 -5.97181,-2.30953 -8.38856,-4.59724 l -1.97986,-1.87401 -0.6116,0.48172 c -1.11581,0.87734 -3.60415,1.88116 -5.38475,2.1723 -2.24884,0.36734 -4.80281,0.004 -6.91699,-0.98507 l -1.50616,-0.70484 -1.11104,2.44266 c -6.35074,13.96131 -13.241817,25.40514 -18.623669,30.9283 -3.501366,3.59324 -7.239612,5.75603 -14.946842,8.77312 -2.546122,0.99684 -1.179515,0.85109 -2.361978,1.43269 0.718617,5.11852 0.586675,4.71203 1.335828,4.31368 0.656773,-0.33154 -1.242014,0.95293 1.012966,0.15723 10.213639,-3.60261 15.235145,-6.3226 19.451068,-10.53546 1.857984,-1.85679 2.963572,-3.30176 5.876687,-7.68149 1.97305,-2.96698 4.21354,-6.51437 4.97889,-7.88349 1.18144,-2.11367 3.82473,-6.55885 4.09865,-6.89278 0.0465,-0.0571 0.1875,-0.002 0.31296,0.12443 0.14523,0.14506 -0.64791,1.70611 -2.17691,4.28411 -4.21439,7.10739 -6.6192,12.38612 -9.305441,20.42932 -2.71249,8.12025 -4.800251,16.99188 -6.913922,29.37629 -1.700485,9.96187 -2.92829,13.71569 -5.378104,16.44045 -0.918255,1.02138 -1.370817,1.31201 -2.665272,1.71224 -3.165052,0.97757 -5.960213,0.46501 -8.092977,-1.48434 -1.325137,-1.2111 -2.118955,-2.58448 -2.327426,-4.02723 -0.155797,-1.07661 -0.06511,-1.20394 1.335024,-1.87299 2.994425,-1.43116 3.147155,-5.01724 0.282787,-6.63982 -1.040641,-0.58927 -2.730728,-0.71677 -3.859496,-0.29131 -1.025982,0.38659 -2.206572,1.65633 -2.477939,2.66459 -0.366824,1.36212 0.06068,2.61396 1.236668,3.62068 0.845129,0.72325 0.952857,0.92371 0.819729,1.52986 -0.241025,1.09809 0.48717,4.04802 1.357524,5.49725 1.977478,3.29273 5.445774,4.92775 10.456199,4.92912 2.295551,0.002 2.971413,-0.0878 4.109217,-0.53984 2.754593,-1.094 4.922298,-3.81058 6.382438,-7.99752 1.03297,-2.96289 1.508207,-4.92554 3.384261,-13.98211 2.975332,-14.36036 3.776313,-16.93427 8.3219,-26.73506 2.84664,-6.13731 11.8081,-23.6063 12.46112,-24.29086 0.11693,-0.12273 0.28228,-0.15307 0.36734,-0.0685 0.0852,0.0852 -0.4391,1.47547 -1.16525,3.09022 -4.62349,10.28216 -8.24912,21.42735 -9.88381,30.38454 -0.57188,3.13148 -0.62898,4.1111 -0.8158,13.93251 -0.21273,11.19156 -0.4374,14.81122 -1.18349,19.06754 -1.65378,9.43073 -5.127871,14.63615 -10.997059,16.47471 l -1.322578,0.41472 -0.920131,-0.6249 c -2.397824,-1.62701 -4.992357,-1.21127 -6.528007,1.04491 -1.267862,1.86207 -0.270176,4.3574 2.145546,5.36668 1.784861,0.74541 3.883361,0.16926 5.07537,-1.394 0.360688,-0.47319 0.753081,-0.79979 0.871548,-0.72649 0.399553,0.24733 2.94295,-0.42103 4.733264,-1.24366 6.127947,-2.81425 10.660237,-9.4101 12.911977,-18.78935 1.44292,-6.01101 1.96725,-12.09736 1.86651,-21.67332 -0.0598,-5.73009 -0.0155,-6.59534 0.4679,-9.12203 1.75265,-9.15663 6.31682,-22.53344 11.29468,-33.10317 0.78786,-1.67389 1.2798,-2.44913 1.55355,-2.44913 0.28228,0 0.35353,0.12239 0.2412,0.41541 -1.72435,4.49325 -3.84058,12.01673 -4.54951,16.17402 -1.16422,6.82852 -1.00791,14.51325 0.3929,19.28453 0.50337,1.71395 0.37126,6.82358 -0.2521,9.75596 -0.50319,2.36526 -2.30015,7.90206 -5.38935,16.60357 -2.25379,6.34818 -3.00142,10.47972 -2.40021,13.25903 0.86626,4.00302 5.12889,6.18232 11.58002,5.91913 4.0274,-0.16397 6.25442,-1.21092 7.77388,-3.65426 0.67979,-1.09314 0.71643,-1.28201 0.71047,-3.67932 -0.004,-2.08436 -0.10466,-2.7788 -0.57018,-3.96058 -0.66189,-1.67969 -0.68149,-2.05606 -0.17983,-3.37523 1.20803,-3.17596 -2.74863,-6.00215 -6.05959,-4.32945 -1.38105,0.69786 -2.14282,1.83992 -2.14282,3.21244 0,2.00237 1.4182,3.55932 3.50954,3.85302 1.109,0.15597 1.17224,0.20847 1.82594,1.51486 2.20623,4.41195 0.13057,7.26574 -4.94207,6.79392 -4.46308,-0.41472 -6.35891,-2.85857 -5.65322,-7.28654 0.3866,-2.42306 1.31798,-5.28026 3.82387,-11.73088 3.63688,-9.36187 4.70957,-13.25631 4.93423,-17.91712 0.10739,-2.23129 0.0331,-3.28608 -0.39785,-5.61436 -1.11888,-6.0468 -0.88262,-13.63369 0.63564,-20.42574 1.14939,-5.14202 4.23843,-13.37886 5.01759,-13.37886 0.17829,0 0.32438,0.0506 0.32438,0.11301 0,0.0622 0.26045,1.59872 0.57887,3.41495 1.08973,6.21197 1.43235,10.76949 1.43201,19.04827 0,5.34026 -0.12375,8.97714 -0.40961,12.06447 -0.45802,4.94343 -0.3375,7.44046 0.55876,11.57797 1.24502,5.74646 4.66781,13.32602 10.52251,23.30153 3.88523,6.61989 5.61129,10.14188 6.08601,12.41936 0.32234,1.54588 0.32234,1.86446 -0.002,2.97857 -0.66581,2.29078 -2.55005,4.09251 -5.14986,4.92367 -2.88482,0.92217 -6.23192,0.69768 -13.57318,-0.9111 -0.49723,-0.10943 -0.53746,-0.2141 -0.39768,-1.04098 0.51989,-3.07778 -3.16454,-5.53152 -6.07578,-4.04598 -1.05463,0.53796 -2.10396,1.69145 -2.31942,2.54987 -0.38847,1.54963 0.59984,3.50341 2.14197,4.2357 0.93036,0.44165 3.05255,0.52126 3.76233,0.14114 0.36257,-0.19381 0.61519,-0.14677 1.11889,0.20847 0.95524,0.67364 3.07948,1.71156 4.58718,2.241 3.26835,1.1482 6.76545,1.41037 10.42586,0.78069 h 7.9e-4 c 5.06753,-0.87086 7.92252,-2.49191 9.54408,-5.41969 0.66734,-1.20411 0.69956,-1.39707 0.68967,-4.13001 -0.0119,-3.29494 0.12785,-2.80675 -3.38614,-11.82566 -4.96747,-12.75004 -7.15375,-19.28964 -9.14538,-27.35398 -2.2352,-9.04992 -2.22054,-8.90742 -2.24986,-22.21776 -0.0232,-10.6616 -0.074,-12.09412 -0.57052,-16.05265 -0.29916,-2.39033 -0.68609,-5.16095 -0.85962,-6.15812 -0.58024,-3.33807 0.52058,-2.4447 3.04795,2.47436 3.72876,7.25671 6.16084,15.31253 6.8604,22.72248 0.30324,3.20903 0.18784,6.0688 -0.40041,9.91466 -1.95957,12.81789 3.33006,25.19514 11.83384,27.68927 1.64866,0.4841 4.75372,0.48956 6.59534,0.0118 3.34386,-0.86661 6.51641,-3.10147 7.39734,-5.21003 0.9728,-2.32794 0.55484,-5.1531 -1.27707,-8.6335 l -1.1407,-2.16617 0.43109,-0.70928 c 1.35326,-2.22719 0.23796,-4.83451 -2.40601,-5.6273 -2.78885,-0.83525 -5.7589,1.34047 -5.45907,3.99978 0.22023,1.95515 1.93895,3.42159 4.05893,3.46438 0.89865,0.0179 1.1044,0.1292 1.64083,0.88705 0.82791,1.16985 1.16609,2.25175 1.15996,3.7095 -0.0174,3.96842 -4.46087,6.89654 -8.78504,5.78907 -3.72432,-0.95456 -6.17004,-3.97148 -7.63189,-9.41538 -0.58501,-2.17913 -0.62455,-2.668 -0.64126,-7.93667 -0.0121,-3.85404 0.0944,-6.36249 0.34007,-8.0028 0.47591,-3.17017 0.42955,-9.29522 -0.0937,-12.42294 -1.0461,-6.25323 -3.10659,-12.29748 -6.49119,-19.04163 -1.23361,-2.45799 -2.14947,-4.52632 -2.03544,-4.59689 0.2833,-0.17472 0.67382,0.46586 2.47624,4.06183 5.27122,10.51637 11.51866,21.04654 15.59515,26.28555 2.50419,3.21841 4.18865,4.72235 6.76238,6.03897 4.12814,2.11162 6.94649,2.77811 15.32191,3.62256 8.92242,0.8995 10.86666,1.32616 13.25272,2.90698 2.19038,1.45042 3.18551,3.64233 2.73601,6.02516 -0.58415,3.09602 -3.91216,6.1322 -7.14046,6.51488 -2.46396,0.29182 -4.53246,-0.89712 -6.22885,-3.57909 l -0.88587,-1.40151 0.96189,-0.89779 c 0.8586,-0.80064 0.97349,-1.04235 1.07423,-2.25209 0.0961,-1.16132 0.0257,-1.4869 -0.49331,-2.27083 -1.64525,-2.48595 -5.77135,-2.44913 -7.32575,0.0653 -0.64211,1.03877 -0.65302,2.80505 -0.0239,3.82302 0.50643,0.82007 1.84452,1.66673 3.02869,1.9168 0.67825,0.14369 0.76126,0.26216 0.89814,1.2803 0.44233,3.28557 3.088,6.26891 6.6163,7.46143 1.25116,0.42274 1.93435,0.50081 3.7158,0.42393 1.93418,-0.083 2.3859,-0.19466 3.97592,-0.98013 2.88585,-1.42639 5.18702,-4.2403 6.38789,-7.8136 0.73945,-2.19855 0.60087,-5.32713 -0.31142,-7.04756 -2.3547,-4.44093 -6.79205,-6.28971 -20.35773,-8.48281 -11.17809,-1.80668 -13.11874,-2.6588 -17.04216,-7.48428 -3.60773,-4.43632 -6.92177,-10.10761 -12.95596,-22.17003 -1.84776,-3.6933 -3.62904,-7.14216 -3.95853,-7.66427 -0.37722,-0.59763 -0.50234,-1.02411 -0.41404,-1.11889"
       stroke-miterlimit="10" />
    <path
       stroke-miterlimit="10"
       d="m 137.61212,169.77984 v -3.81348 l -1.01524,-0.26796 c -3.90399,-1.02905 -6.53926,-5.06088 -5.90124,-9.02895 0.87956,-5.46708 6.69113,-8.42708 11.6315,-5.92357 1.42315,0.72121 3.04693,2.44368 3.70387,3.92819 0.5903,1.33417 0.81155,3.86103 0.45376,5.18225 -0.67962,2.50879 -2.92624,4.9286 -5.24361,5.64742 l -1.12025,0.34825 -0.0663,3.90381 -0.01,3.87058 1.26224,-0.1212 c 0.72496,-0.085 2.15594,-0.4604 3.17988,-0.83387 5.52027,-2.01498 9.64568,-6.51932 11.18951,-12.21771 0.57205,-2.11265 0.57325,-6.48267 0.003,-8.60026 -1.36451,-5.05662 -4.91036,-9.34584 -9.58482,-11.59434 -2.39731,-1.15297 -4.56331,-1.61866 -7.52569,-1.61781 -3.10233,7.9e-4 -4.88361,0.43125 -7.88366,1.90367 -1.91952,0.94262 -2.60271,1.44888 -4.42899,3.28488 -3.59171,3.60927 -5.13094,7.30632 -5.12327,12.30225 0.009,5.18992 1.87043,9.4188 5.71356,12.97693 2.64277,2.44691 7.01876,4.42899 9.87085,4.47058 l 0.89592,0.0136 v -3.8133 z"
       id="path18"
       inkscape:connector-curvature="0"
       style="fill:#ffffff;stroke:#010202;stroke-width:0.0348074;stroke-miterlimit:10" />
    <path
       stroke-miterlimit="10"
       d="m 114.67759,165.71221 v -3.81893 l -0.89252,-0.37313 c -2.02026,-0.84376 -3.02937,-2.52396 -2.88465,-4.80093 0.0787,-1.23803 0.22466,-1.66366 0.8245,-2.40856 0.40075,-0.49757 1.14854,-1.15093 1.66162,-1.4523 2.00032,-1.17292 5.29185,-0.23268 6.28783,1.79611 0.49978,1.01814 0.73604,0.98183 0.74081,-0.1137 0.0121,-2.55975 1.61764,-6.85409 3.45739,-9.24629 l 0.9099,-1.18383 -1.0299,-0.88757 c -1.25304,-1.07865 -3.07471,-1.9952 -4.92554,-2.47708 -3.84484,-1.00161 -7.80661,0.20574 -10.96842,3.34249 -4.67088,4.63372 -5.75056,11.97328 -2.68317,18.2381 0.52927,1.08053 1.35428,2.16753 2.57237,3.38937 2.24919,2.25601 3.37812,2.88022 6.87028,3.7995 0.0329,0.009 0.0595,-1.70253 0.0595,-3.80325 z"
       id="path20"
       inkscape:connector-curvature="0"
       style="fill:#ffffff;stroke:#010202;stroke-width:0.0348074;stroke-miterlimit:10" />
    <path
       stroke-miterlimit="10"
       d="m 120.20927,168.82289 c 0.64518,-0.24512 1.70628,-0.7882 2.35845,-1.20667 l 1.18621,-0.76126 -0.44609,-0.63291 c -1.11121,-1.57571 -2.40754,-4.879 -2.77913,-7.08182 l -0.16092,-0.95422 -0.45426,0.93359 c -0.61655,1.26786 -1.05565,1.71156 -2.28107,2.30459 l -1.04337,0.50489 v 3.83222 3.83206 l 1.22372,-0.16245 c 0.67314,-0.0893 1.75145,-0.3629 2.39646,-0.60802 z"
       id="path22"
       inkscape:connector-curvature="0"
       style="fill:#ffffff;stroke:#010202;stroke-width:0.0348074;stroke-miterlimit:10" />
    <path
       stroke-miterlimit="10"
       d="m 141.90441,111.87562 2.91005,-1.09229 -0.005,-0.01 c -0.29847,-0.60989 -0.46125,-1.28525 -0.46125,-2.01003 0,-0.49569 0.0535,-0.89405 0.19858,-1.3415 l 0.0249,-0.0793 -3.30995,-1.0398 -0.0675,-0.0213 c -0.39767,0.36767 -0.92558,0.5966 -1.5065,0.60989 l -0.005,0.0397 -0.28535,2.43993 h 1.7e-4 c 1.18468,0.38472 2.12134,1.32002 2.50641,2.50436"
       id="path28"
       inkscape:connector-curvature="0"
       style="fill:#15738d;stroke:#010202;stroke-width:0.0348415;stroke-miterlimit:10" />
    <path
       style="fill:#34aacd;stroke-width:0.17045741"
       inkscape:connector-curvature="0"
       id="path31"
       d="m 153.27068,145.08925 -1.53122,-1.56582 c -2.61703,-2.67652 -5.18225,-4.14467 -8.87112,-5.07707 -2.85993,-0.72377 -7.15597,-0.56456 -9.91465,0.36648 -2.34209,0.79024 -4.67582,2.14282 -6.37085,3.69177 l -1.27775,1.16763 -0.95183,-0.82263 c -3.22352,-2.78664 -7.69428,-3.74836 -11.70616,-2.51868 -6.17874,1.89378 -10.34813,8.60316 -9.8325,15.82135 0.17438,2.43703 0.62422,4.07308 1.76049,6.3988 0.46739,0.95661 0.80847,1.7719 0.75802,1.81111 -0.0508,0.039 -0.72768,0.5199 -1.50463,1.06774 h -1.7e-4 c -0.77677,0.54768 -1.47565,0.99258 -1.55287,0.98849 -0.26284,-0.0126 -8.38224,-7.81854 -8.38224,-8.05872 0,-0.0605 1.414627,-2.11367 3.144089,-4.56263 1.728949,-2.44913 3.145451,-4.56996 3.145451,-4.71298 0.002,-0.32268 -3.639777,-9.47249 -3.860009,-9.698 -0.08779,-0.09 -2.417767,-0.562 -5.176964,-1.04866 -2.759194,-0.48682 -5.242417,-0.96888 -5.517875,-1.07081 -0.486828,-0.18052 -0.501999,-0.34023 -0.552452,-5.91896 l -0.05233,-5.73351 1.269738,-0.25432 c 0.698365,-0.13995 3.365852,-0.64194 5.927997,-1.11514 2.561976,-0.47353 4.669851,-0.8787 4.683829,-0.90035 0.234892,-0.37006 3.438976,-8.89668 3.438976,-9.1522 0,-0.19722 -1.451614,-2.38572 -3.225222,-4.86332 -1.77378,-2.4776 -3.225226,-4.59434 -3.225226,-4.70377 0,-0.24666 7.940418,-8.196789 8.186898,-8.196789 0.0982,0 2.33987,1.477867 4.98111,3.284884 2.64157,1.806675 4.92536,3.249265 5.07485,3.205115 0.14984,-0.0435 2.16754,-0.88843 4.48406,-1.87759 l 4.212,-1.798158 1.17309,-5.886405 1.17291,-5.886577 5.65851,-0.06392 5.65833,-0.06392 0.12904,0.541713 c 0.0711,0.29813 0.61024,2.9513 1.19883,5.895951 0.58842,2.944823 1.10371,5.387647 1.14462,5.429068 0.0411,0.04091 2.05333,0.881268 4.47178,1.867528 l 4.39712,1.79321 4.99253,-3.370448 4.99269,-3.370284 4.03439,4.029442 c 2.21936,2.21646 4.03473,4.1191 4.03473,4.22854 0,0.10943 -1.38105,2.31464 -3.06875,4.90014 -1.68821,2.58566 -3.14289,4.83161 -3.23392,4.99099 -0.0907,0.15955 0.38865,1.50326 1.06485,2.98624 0.67621,1.48315 1.55884,3.46762 1.96128,4.41008 l 0.7311,1.71343 1.92975,0.35234 c 1.06143,0.19364 3.60909,0.64706 5.66208,1.0074 l 3.73233,0.6549 0.17438,5.83493 c 0.096,3.20954 0.13262,5.87703 0.0816,5.92783 -0.0511,0.0515 -1.75554,0.37125 -3.78739,0.71131 -2.03185,0.34041 -4.54423,0.80235 -5.58333,1.02684 l -1.88884,0.40808 -0.64911,1.55303 c -0.35745,0.85399 -1.2728,2.98164 -2.0344,4.72781 l -1.38429,3.17528 3.14613,4.63269 c 1.73066,2.548 3.14273,4.72031 3.13812,4.82804 -0.005,0.10739 -1.76406,2.0206 -3.90927,4.25206 l -3.90074,4.05654 -0.86848,-0.46773 c -0.47814,-0.25705 -0.869,-0.48223 -0.869,-0.49944 0,-0.0174 0.3762,-0.84547 0.83576,-1.84009 1.16388,-2.51885 1.60588,-4.60593 1.60588,-7.57564 0,-3.1509 -0.47285,-5.20867 -1.8493,-8.04508 l -1.0478,-2.15952 -0.015,-0.0326 c 3.90603,-6.63062 3.88268,-17.25745 1.36213,-26.44885 v 0 c 0.91194,-0.51376 1.52764,-1.49116 1.52764,-2.61243 0,-1.65498 -1.34133,-2.99631 -2.99648,-2.99631 -0.36205,0 -0.7091,0.0641 -1.03041,0.18154 l -0.0312,-0.0472 -1.04796,-1.44395 -0.0297,-0.0406 c 1.16729,-0.83422 1.92804,-2.20077 1.92804,-3.74478 0,-2.54032 -2.05896,-4.59894 -4.59911,-4.59894 -1.72606,0 -3.22983,0.95064 -4.01649,2.35675 l -0.0401,-0.0119 -3.07215,-0.92183 -0.0967,-0.029 c 0.13585,-0.2937 0.21171,-0.62098 0.21171,-0.96598 0,-1.26991 -1.02974,-2.29947 -2.29947,-2.29947 -1.26991,0 -2.29947,1.02973 -2.29947,2.29947 0,1.02019 0.62182,1.87077 1.54144,2.17163 l 0.0423,0.0142 -0.31244,2.42476 h 1.7e-4 c -0.13603,-0.0142 -0.27376,-0.0215 -0.41353,-0.0215 -2.15527,0 -3.90228,1.74702 -3.90228,3.90245 0,2.15526 1.74718,3.90228 3.90228,3.90228 2.15509,0 3.90245,-1.74702 3.90245,-3.90228 0,-0.10756 -0.004,-0.2141 -0.0131,-0.31961 l 3.19113,-1.23394 1.7e-4,1.7e-4 c 0.83916,1.11292 2.17265,1.83208 3.67404,1.83208 0.61893,0 1.20939,-0.12222 1.74838,-0.34399 l 0.0232,0.0321 1.08717,1.49218 0.017,0.0235 c -0.64927,0.54955 -1.06178,1.37081 -1.06178,2.28822 0,1.65531 1.3415,2.99647 2.99648,2.99647 0.17914,0 0.35472,-0.0157 0.52552,-0.0457 v -1.7e-4 c 2.6743,7.74985 2.62742,18.45781 -0.95934,25.33782 l -0.0533,-0.0542" />
    <path
       style="fill:none;stroke-width:0.17045741"
       inkscape:connector-curvature="0"
       id="path33"
       d="m 141.85156,114.44442 c 5.49283,7.2937 8.12622,16.70534 6.2413,26.11544" />
    <path
       style="fill:none;stroke-width:0.17045741"
       inkscape:connector-curvature="0"
       id="path35"
       d="m 116.90785,100.91743 c 7.6999,0.40228 14.74559,3.56631 20.21727,8.41173" />
    <path
       style="fill:#15738d;stroke-width:0.17045741"
       inkscape:connector-curvature="0"
       id="path38"
       d="m 116.94552,100.96107 c -0.0227,-0.0295 -0.0343,-0.0447 -0.0343,-0.0447 7.6999,0.40211 14.74559,3.56631 20.2171,8.41174 v 1.7e-4 c 0.33938,-0.0963 0.69734,-0.14796 1.06741,-0.14796 0.13994,0 0.27767,0.007 0.41352,0.0216 l 0.31262,-2.42475 -0.0424,-0.0143 c -0.91945,-0.30102 -1.54162,-1.15161 -1.54162,-2.17162 0,-1.26991 1.02957,-2.29947 2.29964,-2.29947 1.26991,0 2.29947,1.02973 2.29947,2.29947 0,0.34483 -0.0759,0.67228 -0.21222,0.96598 l 0.097,0.0288 3.07215,0.92166 0.0399,0.0118 c 0.787,-1.4061 2.29095,-2.35657 4.01666,-2.35657 2.54015,0 4.59928,2.05878 4.59928,4.59877 0,1.54434 -0.76075,2.91056 -1.92805,3.74478 l 0.0297,0.0409 1.04815,1.44377 0.031,0.0472 c 0.32148,-0.11762 0.66853,-0.18171 1.03058,-0.18171 1.65514,0 2.99647,1.34133 2.99647,2.99647 0,1.12144 -0.61603,2.09867 -1.52781,2.6126 2.52056,9.19141 2.54391,19.81823 -1.36195,26.44886 l 0.015,0.0325 1.04781,2.15953 c 1.37627,2.83675 1.84929,4.89417 1.84929,8.04542 0,2.96954 -0.44234,5.05679 -1.60605,7.57513 -0.45939,0.99513 -0.83558,1.82304 -0.83558,1.84025 0,0.0174 0.39068,0.24223 0.86882,0.49961 l 0.86848,0.46774 3.90091,-4.05689 c 2.14538,-2.23077 3.90433,-4.1445 3.90928,-4.25189 0.004,-0.10739 -1.4073,-2.28004 -3.13795,-4.82786 l -3.14631,-4.63269 1.38446,-3.17511 c 0.7616,-1.74651 1.67696,-3.87382 2.03407,-4.72815 l 0.64927,-1.55253 1.88901,-0.40841 c 1.03893,-0.22415 3.55131,-0.68643 5.58333,-1.02667 2.03185,-0.34023 3.73591,-0.66035 3.78756,-0.71149 0.0508,-0.0508 0.0142,-2.71845 -0.0816,-5.92782 l -0.17454,-5.83476 -3.73234,-0.65507 c -2.05282,-0.36035 -4.60048,-0.81342 -5.66191,-1.00723 l -1.92958,-0.35234 -0.73143,-1.71344 c -0.40228,-0.94263 -1.28474,-2.92692 -1.96095,-4.41007 -0.6762,-1.48315 -1.1557,-2.82687 -1.06501,-2.98641 0.091,-0.15938 1.54588,-2.40533 3.23391,-4.991 1.6877,-2.5855 3.06875,-4.79053 3.06875,-4.90014 0,-0.10943 -1.81554,-2.01208 -4.03473,-4.22836 l -4.03456,-4.029447 -4.99269,3.370286 -4.99253,3.370111 -4.39678,-1.79304 c -2.41862,-0.98644 -4.43087,-1.826793 -4.47195,-1.867872 -0.0411,-0.04125 -0.5562,-2.484247 -1.14462,-5.428898 -0.58876,-2.944654 -1.12792,-5.597993 -1.199,-5.895954 l -0.12903,-0.541713 -5.65851,0.06392 -5.6585,0.06392 -1.17292,5.886746 -1.17292,5.886236 -3.9241,1.675435" />
    <path
       style="fill:#15738d;stroke-width:0.17045741"
       inkscape:connector-curvature="0"
       id="path40"
       d="m 148.09593,140.55883 c 1.88492,-9.41027 -0.74865,-18.82208 -6.24147,-26.11544 0.15768,-0.42375 0.24393,-0.88211 0.24393,-1.36059 0,-0.10756 -0.004,-0.21392 -0.0131,-0.31943 l 3.19113,-1.23412 v 1.7e-4 c 0.83967,1.11292 2.17282,1.83225 3.67421,1.83225 0.61893,0 1.20939,-0.12222 1.74855,-0.34381 l 0.0234,0.0319 1.08684,1.49219 0.0172,0.0235 c -0.64927,0.54973 -1.06178,1.37082 -1.06178,2.28839 0,1.65514 1.34133,2.99647 2.99647,2.99647 0.17932,0 0.3549,-0.0157 0.52552,-0.0459 v -1.7e-4 c 2.67414,7.74985 2.6276,18.45798 -0.95916,25.33781 l -0.0539,-0.0539 -1.53104,-1.56599 c -1.18963,-1.21639 -2.36834,-2.18322 -3.64677,-2.96341 z" />
    <path
       sodipodi:nodetypes="ccccscccccccccccccccccccccccscccccscccccccccccccccscccccccccccccccccccccccccccccccccccccccccccccccccccccccscccccccccccccccccccccscccccccccccccccccccccsccccccccccccccccscccsccccccccccccccscccccccccccccccccccccccccccccsccscccccccccccccccccccccccscsccccssccccccccsscccccccccccssccccscccccsccccssccccscccsccccsscccccccccccccccccccsccccccccccccssccccccccccccccccscccccccccccccccccccccccccccccccccccccccccccccccscccccccccccccccccccccccccccsscccccccccccccccccccccccccccccccccccccccccccccccccccccccccccccccccccccccccccccssccccccccsccccccccccccsccccccccccccccccccccccccccccccccccccccccccccsscccccccccccccscscscc"
       inkscape:connector-curvature="0"
       id="path4296"
       d="m 122.69786,86.752954 -1.19993,6.021856 -1.20044,6.022369 -3.97289,1.682581 c -2.18526,0.92525 -4.10428,1.68207 -4.26434,1.68207 -0.15988,0 -2.50067,-1.51678 -5.20123,-3.370335 l -4.90978,-3.36982 -4.536671,4.536157 -4.536157,4.536158 3.457671,4.83846 3.45767,4.83795 -1.636594,4.19768 c -0.899845,2.3085 -1.716172,4.27254 -1.813843,4.36459 -0.09801,0.0917 -2.650998,0.61242 -5.673037,1.15652 -3.022039,0.54444 -5.685488,1.04632 -5.918504,1.11621 -0.396994,0.11881 -0.413401,0.52134 -0.265615,6.37945 0.08676,3.43932 0.192508,6.29368 0.234611,6.34277 0.04193,0.0493 2.552684,0.54153 5.578989,1.09296 3.02596,0.5516 5.538454,1.04842 5.582602,1.10484 0.04415,0.0557 0.901316,2.12831 1.905312,4.60488 l 1.82521,4.50257 -2.897497,4.09743 c -1.593438,2.25379 -3.092249,4.37959 -3.331062,4.72374 l -0.433565,0.62684 2.682523,2.60966 c 1.47514,1.43542 3.55069,3.43924 4.612637,4.45244 l 1.93011,1.84278 1.70378,-1.19631 c 0.93717,-0.65848 1.75873,-1.19683 1.82521,-1.19683 0.0668,0 0.8376,0.70517 1.71256,1.56735 l 1.59111,1.56786 -0.9126,2.07533 c -1.94305,4.41928 -7.27292,14.71532 -9.753929,18.84277 -1.430819,2.37993 -3.631665,5.70893 -4.891174,7.39749 -3.330942,4.46578 -9.439795,10.31952 -15.179275,12.23043 -2.72627,0.90768 -5.542898,2.47046 -5.570934,2.51858 l 5.203558,4.64544 c 4.21584,-1.85069 4.866721,-2.21784 8.107829,-3.3174 6.583577,-3.36193 9.49574,-5.99736 13.843598,-12.52895 0.699727,-1.05138 1.346087,-1.99492 1.436607,-2.09652 0.0905,-0.10193 -0.61484,1.77922 -1.567864,4.18011 -3.695007,9.3138 -6.427046,19.85694 -8.833053,34.09508 -0.589783,3.4896 -1.286569,7.25871 -1.54771,8.37571 -1.49099,6.36727 -3.583527,9.83963 -6.436815,10.68101 -3.769495,1.11172 -7.271493,-0.21055 -8.833053,-3.33572 -1.005869,-2.0131 -0.954019,-2.33036 0.492992,-3.00963 1.662983,-0.78019 2.467846,-2.02886 2.478403,-3.84576 0.01074,-1.88816 -0.843108,-3.17106 -2.665471,-4.00544 -1.100812,-0.50371 -1.551109,-0.58377 -2.657718,-0.46922 -3.938929,0.40603 -5.739837,4.63492 -3.138826,7.36957 0.872913,0.91706 0.944644,1.09636 0.944644,2.35024 0,4.25189 3.351787,8.33453 7.833114,9.54102 4.572177,1.23122 9.019492,0.56611 11.671638,-1.74563 3.097382,-2.69936 4.526405,-6.67226 7.358724,-20.45818 2.852777,-13.88768 3.810345,-17.01425 8.031555,-26.22372 2.11316,-4.60968 7.65089,-15.64243 7.78454,-15.50861 0.0457,0.0457 -0.17436,0.71892 -0.48835,1.49654 -1.92975,4.77929 -4.26674,12.27277 -5.50767,17.65991 -1.48451,6.445 -1.5953,7.62777 -1.81178,19.47013 -0.1096,5.97828 -0.31534,12.05257 -0.45733,13.49788 -1.10951,11.28258 -4.864007,18.34714 -10.79831,20.31814 l -1.199411,0.39791 -1.520839,-0.77205 c -1.330761,-0.67517 -1.698992,-0.7592 -2.945037,-0.66869 -3.917622,0.28313 -5.857579,4.2749 -3.46129,7.12256 1.84793,2.19652 5.993731,2.27073 7.671885,0.13695 0.352846,-0.44865 0.899104,-0.68278 2.232422,-0.95653 2.830615,-0.58211 5.80939,-2.19882 8.17108,-4.43488 5.1427,-4.86741 8.22092,-12.08604 9.73015,-22.81566 0.14762,-1.05087 0.35336,-6.48036 0.45786,-12.06438 0.18784,-10.07591 0.19486,-10.17951 0.91777,-13.53922 1.44991,-6.74108 4.26253,-15.50013 7.61969,-23.7293 1.21348,-2.975 2.02532,-4.70174 1.62832,-3.46387 -0.59251,1.84758 -1.85555,7.15316 -2.24947,9.45058 -1.15587,6.73784 -1.11901,12.63126 0.11834,18.87017 0.54427,2.74351 0.61804,3.59811 0.50332,5.8415 -0.22534,4.41059 -1.11664,7.77283 -4.58835,17.31316 -3.21482,8.83515 -3.80246,11.10219 -3.81217,14.69936 -0.007,2.49703 0.0629,3.02129 0.54157,4.06176 1.54332,3.35307 5.02662,4.96561 10.79831,4.9997 2.4655,0.0143 3.28464,-0.0775 4.69739,-0.52142 2.28413,-0.71813 3.88426,-1.99385 4.7749,-3.80803 0.61842,-1.25951 0.67881,-1.60744 0.65732,-3.776 -0.0194,-1.96827 -0.13666,-2.6939 -0.66611,-4.11551 -0.60222,-1.61815 -0.61924,-1.77074 -0.27491,-2.43706 0.85007,-1.64372 0.1341,-4.08957 -1.52394,-5.20692 -1.83276,-1.23496 -3.94379,-1.26584 -5.8074,-0.0837 -1.8919,1.20019 -2.55709,3.39906 -1.63918,5.42034 0.57206,1.25968 1.73728,2.14137 3.37861,2.55695 1.14531,0.28977 1.35506,0.43964 1.757,1.2609 0.58586,1.19696 0.7679,3.22049 0.37517,4.16874 -0.18767,0.45308 -0.66914,0.91772 -1.26659,1.22266 -1.30519,0.66615 -4.80022,0.54753 -6.25388,-0.21083 -3.4487,-1.80038 -3.36674,-5.03763 0.37258,-14.67921 4.20809,-10.85183 5.46712,-15.02021 5.96553,-19.75177 0.27904,-2.64959 0.21979,-3.53009 -0.5488,-8.16022 -0.9382,-5.65254 -0.59982,-12.8846 0.9002,-19.25051 1.13678,-4.82445 3.8197,-12.20937 4.19045,-11.53521 0.26591,0.48342 0.88475,4.40134 1.31464,8.32817 0.56456,5.15191 0.72252,15.32942 0.32143,20.73155 -0.4096,5.51208 -0.41397,12.10125 -0.01,14.02912 1.53395,7.31604 4.11301,13.22443 10.81847,24.78195 4.96712,8.56088 6.42975,11.788 6.41252,14.14901 -0.007,1.05905 -0.77461,2.58139 -1.83503,3.64164 -2.62811,2.62845 -7.44013,3.06403 -14.67042,1.32911 l -1.64538,-0.39532 v -1.15962 c 0,-1.27775 -0.37643,-2.1824 -1.23145,-2.96003 -2.06969,-1.88304 -5.15383,-1.87904 -7.04608,0.007 -2.11793,2.11197 -1.83061,5.11155 0.64648,6.75101 1.00927,0.66819 3.27981,0.99871 4.26744,0.62115 0.47387,-0.18137 0.96907,-0.0166 2.74711,0.9126 2.29964,1.20241 4.72566,2.01699 6.99803,2.34922 v -5.3e-4 h 0.001 c 5.2656,0.77012 11.78602,-0.78271 14.93965,-3.55844 0.70127,-0.6174 1.41045,-1.57894 1.90273,-2.58021 0.74541,-1.51485 0.78492,-1.72943 0.77928,-4.22816 -0.007,-3.06176 -0.11181,-3.40124 -4.52376,-14.69626 -4.6482,-11.89946 -7.79103,-22.10835 -9.63248,-31.28543 l -0.64906,-3.23546 0.0672,-9.43664 c 0.0378,-5.2794 -0.0479,-11.01547 -0.19482,-13.02039 -0.23694,-3.23102 -0.98467,-9.8735 -1.31775,-11.70574 -0.12665,-0.69683 -0.11925,-0.70393 0.2682,-0.23875 0.62609,0.75018 3.79057,7.40139 4.7315,9.94513 3.3979,9.18561 4.38919,16.85847 3.22616,24.98401 -0.57461,4.01427 -0.51794,9.02061 0.13901,12.25351 2.04412,10.05631 8.2293,16.72301 15.51585,16.72301 4.96457,0 10.34499,-3.00994 11.47785,-6.4208 0.8528,-2.56708 0.13549,-6.47939 -1.73375,-9.45523 -0.53404,-0.85024 -0.56262,-1.01804 -0.28835,-1.67277 0.74132,-1.76713 0.58087,-3.74983 -0.39636,-4.91133 -2.3755,-2.82261 -7.20566,-2.11943 -8.55193,1.2454 -1.0853,2.71232 0.95552,5.56008 4.20904,5.87407 1.0553,0.10176 1.14619,0.17022 1.78387,1.33325 0.79962,1.45877 0.90729,3.39376 0.25632,4.61935 -1.8856,3.55285 -6.95189,4.48136 -10.35286,1.89756 -2.26469,-1.72025 -3.75646,-4.54448 -4.64829,-8.79688 -0.68473,-3.2663 -0.72595,-9.35275 -0.0951,-14.17278 0.53746,-4.10717 0.53974,-8.89095 0.007,-12.42198 -0.40637,-2.68947 -1.48461,-7.29398 -2.14922,-9.17566 -0.20472,-0.57922 -0.34065,-1.08407 -0.30127,-1.12345 0.039,-0.0385 1.08449,1.71071 2.32389,3.88814 1.23905,2.17742 3.31721,5.58548 4.6178,7.57421 4.52053,6.90898 7.27982,9.9125 10.67635,11.62048 4.39337,2.2093 6.88716,2.8126 15.29054,3.69693 9.42459,0.99172 11.42395,1.43242 13.5816,2.99568 1.58815,1.15025 2.2992,2.44019 2.29443,4.15737 -0.005,1.79901 -0.64918,3.21097 -2.1487,4.71031 -1.66247,1.66281 -2.98169,2.235 -5.15059,2.235 -2.22856,0 -3.13359,-0.51797 -4.53151,-2.5926 l -0.94154,-1.39785 0.83044,-0.96945 c 2.33442,-2.728 0.56212,-6.7506 -3.10834,-7.05486 -1.91628,-0.15887 -2.89217,0.10981 -3.98839,1.09863 -1.55695,1.40491 -2.02342,3.16142 -1.29914,4.89532 0.4275,1.02223 1.83067,2.22802 3.00188,2.57916 0.87598,0.26251 0.96482,0.37127 1.22783,1.50379 0.88928,3.82728 4.11356,6.93185 8.06153,7.76283 5.75754,1.2128 11.09547,-2.10982 13.58108,-8.45271 0.55569,-1.41753 0.65654,-2.03655 0.66456,-4.06074 0.009,-2.13889 -0.0625,-2.54697 -0.67903,-3.88813 -0.48393,-1.05462 -1.13762,-1.91876 -2.20452,-2.91662 -3.18994,-2.98437 -7.71842,-4.42097 -19.97345,-6.33708 -5.18072,-0.80967 -8.43024,-1.60675 -10.20248,-2.50114 -3.61012,-1.82202 -7.6215,-6.94885 -12.74341,-16.28531 -2.1573,-3.93245 -4.46898,-8.44358 -4.46898,-8.72143 0,-0.0902 0.86938,1.10901 1.93219,2.66444 6.46123,9.11306 5.14322,4.90972 5.08191,5.63281 9.01393,0.98805 7.13897,-0.3368 7.32893,-1.33206 -1.31258,-1.92911 -2.9798,-4.42135 -4.26427,-6.07498 -2.64916,-3.41052 -7.72919,-8.37859 -14.59425,-19.07621 l -3.88864,-5.09478 1.03663,-1.12448 c 0.57017,-0.61842 1.31112,-1.48971 1.64692,-1.93631 l 0.6103,-0.81184 1.079,0.63252 1.07953,0.632 4.34495,-4.5191 4.34495,-4.51911 -3.26129,-4.82399 -3.2613,-4.82451 1.86293,-4.33152 c 1.02394,-2.38197 1.93607,-4.41634 2.02675,-4.52066 0.0909,-0.10449 2.68085,-0.61386 5.75624,-1.13171 3.07573,-0.51819 5.59139,-0.94357 5.59139,-0.94516 0,-3.15807 -0.1663,-12.79136 -0.22169,-12.84676 -0.0438,-0.044 -2.68632,-0.53155 -5.872,-1.08366 l -5.79241,-1.00459 -1.76526,-4.16305 -1.76527,-4.16305 0.64647,-0.97307 c 0.35506,-0.53524 1.85911,-2.82665 3.34243,-5.0922 l 2.69699,-4.11912 -4.44003,-4.537195 -4.43953,-4.537191 -5.08186,3.451468 -5.08134,3.451468 -4.18269,-1.67948 -4.18269,-1.678968 -1.17461,-6.016173 -1.17408,-6.016686 h -6.19084 z m 11.80083,0.586528 0.12867,0.542087 c 0.0711,0.29796 0.61065,2.951109 1.19941,5.895763 0.58842,2.944651 1.10355,5.387874 1.14463,5.429125 0.0411,0.04108 2.05294,0.881153 4.47157,1.867583 l 4.39611,1.79266 4.98988,-3.368272 4.99246,-3.370337 0.001,0.0011 0.003,-0.0021 4.03438,4.029209 c 2.21918,2.21629 4.0349,4.11873 4.0349,4.22817 0,0.1096 -1.38085,2.31498 -3.06855,4.90048 -1.68804,2.58567 -3.14289,4.83153 -3.23391,4.99091 -0.0907,0.15954 0.38885,1.50323 1.06505,2.98638 0.6762,1.48315 1.55832,3.46744 1.9606,4.41006 l 0.73174,1.71359 1.9296,0.35192 c 1.06144,0.19381 3.60885,0.64734 5.66167,1.00769 l 3.73259,0.65474 0.17415,5.83479 c 0.0958,3.20937 0.13244,5.877 0.0816,5.9278 -2.5e-4,2.4e-4 -0.003,7.9e-4 -0.004,10e-4 v 5.3e-4 c -0.008,0.006 -0.0371,0.0162 -0.0904,0.03 -0.37749,0.0989 -1.90902,0.38238 -3.69693,0.68161 -2.03185,0.34041 -4.54401,0.80232 -5.58312,1.02681 l -1.88568,0.40721 -0.64905,1.55185 c -0.35711,0.85433 -1.27238,2.98188 -2.03399,4.72839 l -1.38441,3.175 3.14606,4.63279 c 1.73065,2.54783 3.14224,4.72022 3.1378,4.82761 -0.005,0.10739 -1.76395,2.02116 -3.90933,4.25194 l -3.90053,4.05712 -0.002,-5.3e-4 -0.002,0.002 -0.86816,-0.46767 c -0.47814,-0.25705 -0.8692,-0.48249 -0.8692,-0.49971 0,-0.0174 0.37657,-0.84558 0.83613,-1.8402 1.16388,-2.51885 1.60558,-4.60553 1.60558,-7.57524 0,-3.15091 -0.47305,-5.20858 -1.8495,-8.04499 l -1.04748,-2.15956 -0.015,-0.0326 c 3.90603,-6.63062 3.88274,-17.25762 1.36219,-26.44903 0.91194,-0.51375 1.52755,-1.49097 1.52755,-2.61224 0,-1.65497 -1.34157,-2.99672 -2.99672,-2.99672 -0.36205,0 -0.70911,0.0645 -1.03042,0.1819 l -0.031,-0.0475 -1.048,-1.44384 -0.0294,-0.0403 c 10e-4,-8e-4 0.002,-0.001 0.003,-0.002 0.072,-0.0514 0.14207,-0.10534 0.21084,-0.16071 0.0697,-0.0562 0.13787,-0.11404 0.20412,-0.17416 0.001,-7.9e-4 0.002,-0.002 0.003,-0.003 0.92587,-0.84148 1.50689,-2.05592 1.50689,-3.40548 0,-2.54033 -2.05905,-4.59869 -4.59921,-4.59869 -0.75515,0 -1.46782,0.18198 -2.09651,0.50437 -0.0887,0.0456 -0.17577,0.0936 -0.26097,0.14469 -0.001,5.3e-4 -0.002,0.001 -0.003,0.002 -0.0854,0.0512 -0.16899,0.10474 -0.25063,0.16123 -8e-4,5.3e-4 -0.002,0.001 -0.003,0.002 -0.57594,0.39905 -1.05621,0.92639 -1.39991,1.54047 l -0.002,-5.3e-4 c -5.3e-4,7.9e-4 -0.001,0.002 -0.002,0.003 l -0.0398,-0.0119 -3.07216,-0.92191 -0.0966,-0.0289 c 0.13585,-0.2937 0.21187,-0.62083 0.21187,-0.96583 0,-1.26991 -1.02986,-2.2996 -2.2996,-2.2996 -0.31747,0 -0.61992,0.0645 -0.89503,0.18087 -0.0679,0.0288 -0.13409,0.0606 -0.19844,0.0956 -7.9e-4,5.3e-4 -0.002,5.3e-4 -0.003,0.001 -0.0641,0.0349 -0.12633,0.073 -0.18655,0.11368 -0.61171,0.41325 -1.01389,1.11317 -1.01389,1.90686 0,1.02002 0.62206,1.87042 1.54151,2.17145 l 0.0424,0.0145 -0.31264,2.42466 c -0.001,-1.1e-4 -0.002,1e-4 -0.003,0 v 0.002 c -0.13602,-0.0142 -0.27363,-0.0217 -0.41341,-0.0217 -0.12668,0 -0.25158,0.007 -0.37517,0.0191 -0.0164,0.002 -0.0328,0.003 -0.0491,0.005 -0.12012,0.013 -0.23894,0.0306 -0.35554,0.0543 -0.003,5.3e-4 -0.006,0.001 -0.009,0.002 -1.77717,0.3647 -3.11351,1.93776 -3.11351,3.82303 0,2.15526 1.747,3.90208 3.90209,3.90208 1.74345,0 3.21915,-1.14342 3.71967,-2.72128 0.004,-0.0112 0.007,-0.0223 0.0109,-0.0336 0.0354,-0.11527 0.0662,-0.23288 0.0909,-0.35243 7.9e-4,-0.004 0.002,-0.008 0.003,-0.0114 0.0516,-0.25308 0.0785,-0.51508 0.0785,-0.78341 0,-0.10756 -0.004,-0.21436 -0.0129,-0.31988 l 0.003,-0.001 3.19102,-1.23403 c 0.83967,1.11292 2.1728,1.83245 3.67419,1.83245 0.61893,0 1.20958,-0.12257 1.74873,-0.34417 l 0.0233,0.032 1.08675,1.4919 0.0171,0.0238 c -0.64927,0.54972 -1.06144,1.37066 -1.06144,2.28823 0,1.65513 1.34106,2.99671 2.9962,2.99671 0.17933,0 0.35493,-0.0158 0.52555,-0.046 2.67414,7.74985 2.62765,18.45764 -0.95911,25.33747 l -0.002,-0.002 c -5.3e-4,0.001 -0.001,0.002 -0.002,0.004 l -0.0532,-0.0543 -1.53117,-1.5658 c -0.98101,-1.00331 -1.95489,-1.83659 -2.98328,-2.53576 -5.3e-4,-2.6e-4 -5.3e-4,-7.9e-4 -10e-4,-0.001 -1.71472,-1.16555 -3.58144,-1.95766 -5.88698,-2.54041 -2.85994,-0.72376 -7.15596,-0.56413 -9.91464,0.3669 -2.34208,0.79025 -4.67564,2.14282 -6.37067,3.69177 l -1.27796,1.16737 -0.95188,-0.82269 c -3.22352,-2.78664 -7.69386,-3.74839 -11.70574,-2.51871 -6.17874,1.89378 -10.34863,8.60307 -9.83299,15.82126 0.17437,2.43703 0.62434,4.07337 1.76061,6.39909 0.46739,0.95661 0.80855,1.77205 0.75809,1.81126 -0.0508,0.039 -0.72787,0.51978 -1.50481,1.06763 -0.77678,0.54768 -1.47566,0.99266 -1.55288,0.98857 -0.26285,-0.0126 -8.381918,-7.81876 -8.381918,-8.05894 0,-0.0605 1.414531,-2.11355 3.143993,-4.56251 1.728949,-2.44913 3.145545,-4.56987 3.145545,-4.71289 0.002,-0.32267 -3.639998,-9.4726 -3.860229,-9.69812 -0.08779,-0.09 -2.41775,-0.56185 -5.176946,-1.04851 -2.759194,-0.48683 -5.242552,-0.96932 -5.51801,-1.07125 -0.486828,-0.18052 -0.501967,-0.33977 -0.552421,-5.9185 l -0.05219,-5.7335 1.269691,-0.25477 c 0.698365,-0.13995 3.365656,-0.64198 5.927802,-1.11518 2.561976,-0.47353 4.669975,-0.87855 4.683953,-0.9002 0.234891,-0.37006 3.43906,-8.89638 3.43906,-9.1519 1e-5,-0.19721 -1.451513,-2.38618 -3.225121,-4.86378 -1.77378,-2.4776 -3.225125,-4.59416 -3.225125,-4.70359 0,-0.24665 7.940106,-8.196916 8.186576,-8.196916 0.0982,0 2.33986,1.478052 4.98109,3.285069 2.64158,1.806677 4.92565,3.249127 5.07515,3.204977 0.14983,-0.0435 2.16744,-0.88824 4.48396,-1.87741 l 0.29094,-0.12454 h 5.3e-4 l 3.92017,-1.673798 1.17357,-5.886463 1.17254,-5.886463 h 0.003 l 5.3e-4,-0.0016 5.65857,-0.06408 z m 6.69571,18.941998 0.0677,0.0212 3.30987,1.03973 -0.0248,0.0796 c -0.14506,0.44745 -0.19895,0.84583 -0.19895,1.34152 0,0.72478 0.163,1.3998 0.46147,2.0097 l 0.005,0.01 -2.90991,1.09243 c -0.38506,-1.18434 -1.32162,-2.11951 -2.5063,-2.50424 h -5.3e-4 l 0.28577,-2.44016 0.005,-0.0398 c 0.58092,-0.0133 1.10869,-0.24211 1.50637,-0.60978 z m -2.62568,32.35926 c 2.96238,-7.9e-4 5.12833,0.46502 7.52564,1.61799 4.67446,2.2485 8.22043,6.53751 9.58495,11.59412 0.5706,2.11761 0.56947,6.48786 -0.003,8.60051 -1.54383,5.69839 -5.66924,10.20288 -11.1895,12.21786 -1.02394,0.37347 -2.45521,0.74849 -3.18017,0.83354 l -1.26193,0.12144 0.009,-3.87056 0.0667,-3.90416 1.11983,-0.34778 c 2.31737,-0.71883 4.56399,-3.13892 5.24361,-5.64772 0.35779,-1.32121 0.13657,-3.84794 -0.45372,-5.18211 -0.65694,-1.48451 -2.2805,-3.20723 -3.70365,-3.92844 -4.94037,-2.50351 -10.75178,0.45659 -11.63133,5.92367 -0.63803,3.96808 1.99694,7.99985 5.90093,9.02891 l 1.01544,0.2682 v 3.8132 h 10e-4 v 3.81372 l -0.89607,-0.0139 c -2.8521,-0.0416 -7.22794,-2.02362 -9.87072,-4.47053 -3.84313,-3.55814 -5.70482,-7.78707 -5.71334,-12.97699 -0.008,-4.99593 1.53149,-8.69282 5.1232,-12.30209 1.82629,-1.836 2.50915,-2.34244 4.42867,-3.28507 3.00005,-1.47241 4.78143,-1.90297 7.88376,-1.90376 z m -22.63272,1.76372 c 0.9615,-0.0214 1.92957,0.0907 2.89078,0.34106 1.85082,0.48189 3.67276,1.39872 4.92579,2.47737 l 1.02991,0.88728 -0.91002,1.18391 c -1.83974,2.3922 -3.44506,6.68671 -3.45715,9.24647 -0.005,1.09553 -0.24126,1.13183 -0.74104,0.11369 -0.99599,-2.02879 -4.28767,-2.9692 -6.28799,-1.79628 -0.51308,0.30137 -1.26065,0.95506 -1.6614,1.45263 -0.59984,0.7449 -0.746,1.17009 -0.82475,2.40812 -0.14472,2.27697 0.86483,3.95749 2.88509,4.80125 l 0.89246,0.37311 v 3.81889 c 0,2.10071 -0.0265,3.81225 -0.0594,3.80338 -3.49216,-0.91927 -4.6212,-1.54376 -6.87038,-3.79976 -1.21809,-1.22184 -2.04319,-2.30893 -2.57246,-3.38946 -3.06738,-6.26482 -1.98783,-13.60393 2.68304,-18.23765 2.37136,-2.35257 5.19305,-3.61996 8.07755,-3.68401 z m 4.43177,17.78134 0.16071,0.95395 c 0.3716,2.20282 1.66795,5.50655 2.77916,7.08225 l 0.44648,0.63252 -1.18649,0.7612 c -0.65217,0.41847 -1.71333,0.96204 -2.35851,1.20716 -0.64501,0.24512 -1.7231,0.51839 -2.39623,0.60771 l -1.2237,0.16227 v -3.83181 -3.83232 l 1.04334,-0.50488 c 1.22541,-0.59302 1.66446,-1.03639 2.281,-2.30425 z m 3.70726,9.19221 1.97973,1.8743 c 2.41675,2.28771 5.27097,3.85189 8.38863,4.59713 1.75946,0.42137 2.59623,0.48592 4.9811,0.38603 1.97102,-0.0833 3.55688,-0.31845 5.03741,-0.79375 1.47536,-0.47644 2.84743,-1.19218 4.39405,-2.23811 l 1.33015,-0.89969 1.16375,1.70429 c 1.82912,4.00303 5.10754,7.422 7.81939,11.34258 2.95445,4.27132 7.24238,7.96062 9.84052,11.41656 1.99215,2.64987 2.32419,2.96894 4.3601,5.92612 -3.21543,1.72821 1.78241,4.6518 -7.28129,0.80824 -0.27558,-0.20715 -1.32293,-0.16431 -9.82739,-14.09647 -1.06808,-1.74941 -2.14634,-3.44837 -2.39572,-3.77497 -0.28674,-0.3755 -0.47609,-0.50997 -0.55655,-0.46818 l 0.003,0.003 c -0.0883,0.0948 0.0367,0.52117 0.41393,1.11879 0.3295,0.52211 2.11066,3.97084 3.95842,7.66414 6.03419,12.06242 9.34858,17.7339 12.95631,22.17022 3.92342,4.82548 5.86377,5.67762 17.04186,7.4843 13.56568,2.1931 18.00323,4.04176 20.35793,8.48268 0.91229,1.72043 1.05105,4.84908 0.31161,7.04763 -1.20088,3.5733 -3.5024,6.38709 -6.38825,7.81348 -1.59002,0.78547 -2.0418,0.89729 -3.97598,0.9803 -1.78145,0.0769 -2.46438,-10e-4 -3.71553,-0.42374 -3.5283,-1.19252 -6.1738,-4.176 -6.61614,-7.46156 -0.13688,-1.01814 -0.21988,-1.13685 -0.89813,-1.28055 -1.18417,-0.25006 -2.52233,-1.0966 -3.02876,-1.91668 -0.62916,-1.01797 -0.61834,-2.78425 0.0238,-3.82302 1.5544,-2.51442 5.6804,-2.55106 7.32565,-0.0651 0.51905,0.78393 0.58965,1.10934 0.49351,2.27066 -0.10074,1.20974 -0.21576,1.45142 -1.07435,2.25206 l -0.9617,0.89762 0.88574,1.40147 c 1.69639,2.68197 3.76459,3.87093 6.22855,3.57911 3.2283,-0.38268 6.5565,-3.41883 7.14065,-6.51485 0.4495,-2.38283 -0.54589,-4.57453 -2.73626,-6.02496 -2.38607,-1.58082 -4.33,-2.00729 -13.25242,-2.9068 -8.37543,-0.84444 -11.19393,-1.51089 -15.32207,-3.62251 -2.57373,-1.31662 -4.25818,-2.82102 -6.76237,-6.03943 -4.07649,-5.23901 -10.32369,-15.76884 -15.59492,-26.28521 -1.80242,-3.59597 -2.19303,-4.23649 -2.47633,-4.06177 -0.11404,0.0706 0.80193,2.13862 2.03553,4.59662 3.3846,6.74414 5.44498,12.7885 6.49108,19.04173 0.5233,3.12772 0.56945,9.25285 0.0935,12.42301 -0.24563,1.64031 -0.35212,4.14857 -0.34003,8.00261 0.0167,5.26867 0.0563,5.75786 0.64131,7.93699 1.46185,5.44389 3.90776,8.46088 7.63209,9.41544 4.32416,1.10747 8.76761,-1.82089 8.78499,-5.78931 0.006,-1.45775 -0.33222,-2.53948 -1.16013,-3.70933 -0.53643,-0.75785 -0.74208,-0.8694 -1.64073,-0.88729 -2.11998,-0.0428 -3.83844,-1.50924 -4.05867,-3.46438 -0.29983,-2.65931 2.66973,-4.835 5.45858,-3.99976 2.64397,0.7928 3.75932,3.40037 2.40606,5.62756 l -0.43098,0.709 1.14101,2.16628 c 1.83191,3.4804 2.24973,6.30565 1.27693,8.63358 -0.88092,2.10856 -4.05362,4.34341 -7.39748,5.21002 -1.84163,0.47781 -4.9468,0.47221 -6.59547,-0.0119 -8.50378,-2.49413 -13.79296,-14.87138 -11.83338,-27.68926 0.58825,-3.84586 0.70322,-6.70561 0.39997,-9.91465 -0.69955,-7.40995 -3.13129,-15.46593 -6.86004,-22.72264 -2.52738,-4.91906 -3.62812,-5.81233 -3.04788,-2.47427 0.17353,0.99718 0.56023,3.76796 0.85938,6.15828 0.49654,3.95854 0.54733,5.39117 0.57051,16.05277 0.0293,13.31034 0.0148,13.16784 2.24999,22.21777 1.99162,8.06434 4.17771,14.60384 9.14518,27.35388 3.51398,9.0189 3.37442,8.5307 3.38636,11.82564 0.01,2.73294 -0.0225,2.92587 -0.68989,4.12998 -1.62156,2.92777 -4.47659,4.54896 -9.54412,5.41982 h -5.2e-4 c -3.66041,0.62967 -7.15789,0.36737 -10.42624,-0.78083 -1.5077,-0.52944 -3.63156,-1.56756 -4.5868,-2.24121 -0.50371,-0.35523 -0.75675,-0.40206 -1.11931,-0.20825 -0.70979,0.38012 -2.83169,0.30057 -3.76205,-0.14108 -1.54213,-0.73229 -2.53046,-2.68629 -2.14199,-4.23592 0.21546,-0.85842 1.26462,-2.01175 2.31924,-2.54971 2.91124,-1.48554 6.59601,0.96797 6.07612,4.04575 -0.13978,0.82689 -0.0998,0.93184 0.39739,1.04128 7.34126,1.60877 10.68851,1.83323 13.57333,0.91105 2.59981,-0.83115 4.48427,-2.63295 5.15007,-4.92373 0.32472,-1.11411 0.32441,-1.43275 0.002,-2.97863 -0.47472,-2.27748 -2.2007,-5.79951 -6.08594,-12.41939 -5.8547,-9.97551 -9.27733,-17.55497 -10.52235,-23.30142 -0.89627,-4.13752 -1.01716,-6.63467 -0.55914,-11.57811 0.28586,-3.08732 0.40979,-6.72412 0.40979,-12.06438 2.7e-4,-8.27877 -0.34222,-12.83647 -1.43195,-19.04845 -0.31841,-1.81622 -0.57878,-3.35256 -0.57878,-3.41478 0,-0.0624 -0.14623,-0.11317 -0.32452,-0.11317 -0.77916,0 -3.86839,8.23701 -5.01779,13.37903 -1.51826,6.79205 -1.7545,14.37882 -0.63562,20.42563 0.43092,2.32827 0.5053,3.38335 0.39791,5.61464 -0.22466,4.66082 -1.29718,8.55487 -4.93406,17.91674 -2.5059,6.45062 -3.43746,9.30801 -3.82406,11.73106 -0.70569,4.42798 1.19032,6.87166 5.6534,7.28638 5.07265,0.47183 7.14805,-2.38195 4.94182,-6.7939 -0.6537,-1.30639 -0.71673,-1.35867 -1.82573,-1.51464 -2.09134,-0.29369 -3.50934,-1.85063 -3.50934,-3.85299 0,-1.37252 0.76145,-2.51487 2.1425,-3.21273 3.31096,-1.67269 7.26761,1.15349 6.05958,4.32946 -0.50166,1.31917 -0.48205,1.69581 0.17983,3.3755 0.46552,1.18179 0.56607,1.87613 0.57051,3.96048 0.006,2.39731 -0.0308,2.58622 -0.71055,3.67936 -1.51946,2.44334 -3.74681,3.49007 -7.7742,3.65404 -6.45113,0.26319 -10.71339,-1.91599 -11.57966,-5.91901 -0.60119,-2.77931 0.14607,-6.91096 2.39986,-13.25914 3.08919,-8.70151 4.88614,-14.23786 5.38933,-16.60312 0.62337,-2.93238 0.75554,-8.04205 0.25218,-9.756 -1.40082,-4.77127 -1.55696,-12.45608 -0.39274,-19.28461 0.70893,-4.15728 2.82525,-11.68095 4.54959,-16.1742 0.11234,-0.29302 0.041,-0.41548 -0.24133,-0.41548 -0.27375,0 -0.76553,0.77557 -1.55339,2.44946 -4.97787,10.56972 -9.54227,23.94626 -11.29492,33.10289 -0.48341,2.52669 -0.5275,3.39183 -0.46767,9.12192 0.10074,9.57596 -0.42363,15.66261 -1.86655,21.67362 -2.25174,9.37924 -6.78393,15.97478 -12.911873,18.78903 -1.790314,0.82263 -4.33401,1.49119 -4.733562,1.24385 -0.118468,-0.0733 -0.510577,0.25338 -0.871265,0.72657 -1.192009,1.56327 -3.290798,2.13912 -5.075659,1.39371 -2.415722,-1.00927 -3.413468,-3.50452 -2.145604,-5.36659 1.535647,-2.25618 4.130458,-2.67192 6.528282,-1.0449 l 0.919842,0.62477 1.322917,-0.41445 c 5.869188,-1.83855 9.342962,-7.04423 10.996742,-16.47496 0.7461,-4.25632 0.97117,-7.8755 1.18391,-19.06705 0.18682,-9.82142 0.24357,-10.80153 0.81545,-13.933 1.63469,-8.9572 5.26067,-20.10203 9.88415,-30.38419 0.72615,-1.61475 1.25002,-3.00503 1.16479,-3.09025 -0.0851,-0.0846 -0.24997,-0.0545 -0.3669,0.0682 -0.65303,0.68455 -9.61462,18.1537 -12.46126,24.29102 -4.545583,9.80079 -5.346638,12.37496 -8.32197,26.73532 -1.876055,9.05657 -2.351318,11.0192 -3.384288,13.98209 -1.46014,4.18695 -3.627964,6.90345 -6.382557,7.99745 -1.137804,0.45205 -1.813758,0.54109 -4.10931,0.5395 -5.010425,-0.001 -8.478731,-1.63617 -10.456209,-4.9289 -0.870354,-1.44923 -1.598049,-4.39925 -1.357024,-5.49734 0.133128,-0.60614 0.02503,-0.80637 -0.820105,-1.52962 -1.175985,-1.00672 -1.603441,-2.25884 -1.236617,-3.62097 0.271367,-1.00825 1.451903,-2.27784 2.477886,-2.66443 1.128768,-0.42547 2.819072,-0.29782 3.859713,0.29145 2.864368,1.62258 2.711754,5.20874 -0.282671,6.6399 -1.400138,0.66905 -1.491117,0.79615 -1.335317,1.87276 0.20847,1.44275 1.002368,2.81604 2.327505,4.02714 2.132764,1.94935 4.927994,2.46224 8.093046,1.48467 1.294455,-0.40024 1.747215,-0.69118 2.66547,-1.71256 2.449814,-2.72476 3.677481,-6.47847 5.377966,-16.44034 2.113672,-12.38441 4.2013,-21.25625 6.91379,-29.3765 2.686242,-8.0432 5.090982,-13.32185 9.305372,-20.42924 1.52901,-2.578 2.32236,-4.13892 2.17713,-4.28398 -0.12546,-0.12603 -0.26662,-0.18164 -0.31316,-0.12454 -0.27392,0.33393 -2.91701,4.77945 -4.09846,6.89312 -0.76535,1.36911 -3.00598,4.91625 -4.97902,7.88324 -2.913118,4.37973 -4.018661,5.82491 -5.876645,7.6817 -4.215923,4.21285 -8.475565,6.43833 -16.827044,9.46223 0,0 -4.986104,-1.39914 -5.104739,-3.34863 1.27762,-0.76256 2.582297,-1.53806 4.581304,-2.34373 1.354208,-0.5458 3.115258,-1.16873 4.20294,-1.6724 5.155683,-2.38741 7.016565,-4.25805 9.061257,-6.35639 5.381852,-5.52316 11.868027,-16.84946 18.218757,-30.81078 l 1.11104,-2.44274 1.50637,0.70487 c 2.11418,0.98883 4.66804,1.35229 6.91689,0.98495 1.7806,-0.29114 4.26887,-1.29462 5.38468,-2.17196 z m -2.59209,8.95397 c -0.0892,0.0185 -0.17635,0.14817 -0.22634,0.41031 -0.27273,1.42588 0.77686,2.96355 2.2624,3.31401 v -5.3e-4 c 0.43965,0.10403 0.93631,0.10428 1.11982,0.0935 0.33018,-0.0196 0.39579,-0.0571 0.6842,-0.13281 0.59149,-0.15461 1.92279,-1.37832 2.22467,-2.38539 0.16449,-0.54955 0.24476,-1.05335 0.17777,-1.12034 -0.20336,-0.20319 -0.63511,0.17439 -0.63511,0.55655 0,0.68337 -0.73417,1.7748 -1.43867,2.13889 -1.82883,0.94604 -3.86488,-0.18118 -3.86488,-2.13889 0,-0.48793 -0.15511,-0.76614 -0.30386,-0.73535 z"
       style="stroke:#010202;stroke-width:0.0348074;stroke-miterlimit:10" />
    <path
       inkscape:connector-curvature="0"
       id="path4310"
       d="m 122.76814,67.45284 c -0.67554,-0.0083 -1.37306,0.0242 -2.11305,0.0925 -6.79,0.626601 -11.49183,4.458405 -13.60176,11.084595 -0.37654,1.182635 -0.75853,2.499437 -0.84904,2.926435 l -0.16536,0.776697 h 2.52439 2.52388 l 0.37258,-0.896069 c 1.34832,-3.240395 3.70561,-4.624801 7.87653,-4.624007 2.78595,5.29e-4 4.30611,0.476718 9.21545,2.886647 4.35383,2.137023 6.10665,2.633429 9.29659,2.633429 7.55314,0 13.02925,-3.914783 15.3877,-10.999845 0.32983,-0.990698 0.67169,-2.253928 0.76016,-2.807063 l 0.16071,-1.00459 h -2.48305 -2.48254 l -0.40514,1.140499 c -1.17258,3.301248 -4.83301,4.971351 -9.47798,4.325318 -2.24271,-0.311938 -3.71963,-0.863896 -7.31014,-2.730066 -3.78609,-1.967899 -6.3026,-2.768725 -9.22993,-2.80448 z m 27.04382,0.56379 1.65623,0.06253 c 0.91093,0.03477 1.72848,0.135461 1.81695,0.223758 0.24,0.239833 -0.56603,2.930129 -1.44746,4.832264 -1.44275,3.113063 -3.80446,5.661316 -6.50348,7.016109 -3.23477,1.624291 -8.42798,2.074905 -11.78326,1.02216 -0.98541,-0.30938 -3.51187,-1.403525 -5.61413,-2.431894 -4.23092,-2.069865 -6.0732,-2.62051 -8.77,-2.62051 -3.7274,0 -6.57622,1.584272 -7.96903,4.431252 l -0.63768,1.302763 h -1.87741 -1.87689 l 0.14366,-0.776697 c 0.25211,-1.359908 1.64757,-4.874604 2.49236,-6.276618 1.75929,-2.919934 5.01661,-5.29164 8.49974,-6.187736 4.80979,-1.237691 9.05988,-0.497815 14.41514,2.508374 3.93739,2.210149 7.89337,3.045865 11.27166,2.38125 2.80556,-0.551942 4.37018,-1.688298 5.45497,-3.961516 z"
       style="stroke:#000000;stroke-width:0.13921256;stroke-miterlimit:10" />
    <path
       d="m 141.85152,114.44416 c 5.49282,7.2937 8.12622,16.70534 6.2413,26.11544"
       id="path4318"
       inkscape:connector-curvature="0"
       style="fill:none;stroke-width:0.17045741" />
    <path
       d="m 116.90781,100.91717 c 7.6999,0.40228 14.74559,3.56631 20.21727,8.41173"
       id="path4320-4"
       inkscape:connector-curvature="0"
       style="fill:none;stroke-width:0.17045741" />
    <path
       stroke-miterlimit="10"
       d="m 111.1979,80.55224 c 1.39281,-2.84698 4.24184,-4.431041 7.96923,-4.431041 2.6968,0 4.53894,0.550408 8.76986,2.620272 2.10225,1.028369 4.6286,2.122707 5.61402,2.432087 3.35528,1.052746 8.54844,0.601885 11.78321,-1.022405 2.69902,-1.354794 5.06071,-3.902962 6.50346,-7.016025 0.88143,-1.902135 1.6877,-4.592466 1.44769,-4.8323 -0.0885,-0.0883 -0.90598,-0.188696 -1.8169,-0.22347 l -1.65651,-0.06273 -0.72819,1.525596 c -1.08479,2.273218 -2.64959,3.409487 -5.45515,3.961429 -3.3783,0.664615 -7.3341,-0.171309 -11.2715,-2.381459 -5.35526,-3.006189 -9.60527,-3.745804 -14.41507,-2.508112 -3.48313,0.896096 -6.74074,3.26767 -8.50003,6.187604 -0.84479,1.402014 -2.24015,4.916675 -2.49226,6.276583 l -0.14369,0.776605 h 1.87707 1.87725 z"
       id="path4349"
       inkscape:connector-curvature="0"
       style="fill:#15738d;stroke:#000000;stroke-width:0.13921256;stroke-miterlimit:10" />
    <g
       transform="translate(-0.91521544,-1.2640655)"
       id="g171">
      <circle
         style="color:#000000;fill:none;stroke:#414141;stroke-width:1.41934514;stroke-linecap:round;stroke-linejoin:round"
         id="path1500"
         cx="109.32636"
         cy="156.2774"
         r="13.548986" />
      <circle
         style="color:#000000;fill:none;stroke:#414141;stroke-width:1.86812127;stroke-linecap:round;stroke-linejoin:round"
         id="path1502"
         cx="145.70288"
         cy="157.02875"
         r="17.832977" />
      <path
         d="m -192.62175,-3.1230443 a 8.4759941,8.4759941 0 0 1 -6.9448,8.3365399"
         sodipodi:end="1.3891474"
         sodipodi:cx="-201.09775"
         sodipodi:cy="-3.1230443"
         transform="rotate(-129.95626)"
         sodipodi:open="true"
         sodipodi:start="0"
         sodipodi:type="arc"
         style="color:#000000;fill:none;stroke:#414141;stroke-width:1.41933358;stroke-linecap:round;stroke-linejoin:round"
         sodipodi:ry="8.4759941"
         sodipodi:rx="8.4759941"
         id="path1504"
         sodipodi:arc-type="arc" />
      <circle
         r="16.021082"
         cy="157.01158"
         cx="145.66396"
         id="path4452"
         style="color:#000000;fill:url(#radialGradient87);fill-rule:evenodd;stroke:#3063a3;stroke-width:1.86818969;stroke-linecap:round;stroke-miterlimit:10" />
      <path
         inkscape:connector-curvature="0"
         id="path4462"
         style="color:#000000;opacity:0.83422002;fill:url(#radialGradient5122);fill-rule:evenodd;stroke-width:1.86812115"
         d="m 145.36008,143.01916 c -7.17917,0 -12.99276,5.81434 -12.99276,12.99353 0,2.07362 0.57912,3.98097 1.44405,5.72019 1.72615,0.63704 3.56065,1.07043 5.50722,1.07043 8.50743,0 15.30179,-6.70282 15.82672,-15.07947 -2.3856,-2.81936 -5.80424,-4.70468 -9.78523,-4.70468 z" />
      <circle
         r="12.172359"
         cy="156.26436"
         cx="109.35599"
         id="path5146"
         style="color:#000000;fill:url(#radialGradient4460);fill-rule:evenodd;stroke:#3063a3;stroke-width:1.41939712;stroke-linecap:round;stroke-miterlimit:10" />
      <path
         inkscape:connector-curvature="0"
         id="path5148"
         style="color:#000000;opacity:0.83422002;fill:url(#radialGradient5152);fill-rule:evenodd;stroke-width:1.41934502"
         d="m 109.12555,145.63333 c -5.45497,0 -9.872116,4.41757 -9.872116,9.87211 0,1.57548 0.440281,3.02463 1.096866,4.34604 1.31176,0.484 2.70528,0.81328 4.18437,0.81328 6.46441,0 11.62657,-5.09261 12.0254,-11.45695 -1.81392,-2.14207 -4.4099,-3.57448 -7.43452,-3.57448 z" />
    </g>
    <path
       sodipodi:nodetypes="cc"
       inkscape:connector-curvature="0"
       id="path237"
       d="M 133.14487,207.84481 C 155.4701,195.16313 173.5865,194.24943 173.5865,194.24943"
       style="fill:none;stroke:none;stroke-width:0.26458332px;stroke-linecap:butt;stroke-linejoin:miter;stroke-opacity:1" />
    <path
       style="fill:none;stroke:none;stroke-width:0.26458332px;stroke-linecap:butt;stroke-linejoin:miter;stroke-opacity:1"
       d="m 137.48726,217.69443 c 15.18634,-9.8539 37.35161,-12.55112 37.35161,-12.55112"
       id="path268"
       inkscape:connector-curvature="0"
       sodipodi:nodetypes="cc" />
    <path
       sodipodi:nodetypes="ccccc"
       inkscape:connector-curvature="0"
       id="rect2067"
       d="m 95.529665,176.62301 16.729545,0.98621 -5.83365,4.25085 -6.39659,-0.37707 z"
       style="opacity:1;fill:#333333;fill-opacity:1;stroke:#666666;stroke-width:0.2969431;stroke-linecap:round;stroke-miterlimit:4;stroke-dasharray:none;stroke-opacity:1" />
    <path
       style="opacity:1;fill:#803300;fill-opacity:1;stroke:#000000;stroke-width:0.8236652;stroke-linecap:round;stroke-miterlimit:4;stroke-dasharray:none;stroke-opacity:1"
       d="m 77.64526,179.10991 52.90326,2.73965 -7.51289,62.40299 -43.199114,-2.13082 z"
       id="rect1794"
       inkscape:connector-curvature="0"
       sodipodi:nodetypes="ccccc" />
    <path
       sodipodi:nodetypes="cssccsccscscsc"
       stroke-miterlimit="10"
       d="m 72.957473,211.36445 c -3.57098,2.64384 -4.122074,7.22588 -1.738425,12.95608 1.090384,2.62124 3.476087,7.24467 11.317895,9.01663 3.686707,0.83306 9.858815,0.85945 13.092052,-0.87223 0.686432,-0.36751 1.968442,-1.39434 2.848853,-2.28089 1.119908,-1.1286 1.779402,-1.61304 2.194472,-1.61304 0.91945,0 1.86531,-0.43671 2.70993,-1.25184 1.50531,-1.45127 1.59582,-3.33125 0.2354,-4.88088 -0.92661,-1.05547 -1.95276,-1.51213 -3.3979,-1.51213 -3.060217,0 -5.059515,2.94295 -3.730968,5.49112 0.279038,0.53558 0.507622,1.02445 0.507622,1.08547 0,0.061 -0.395973,0.54922 -0.879901,1.0848 -2.488679,2.75459 -8.121512,0.90649 -11.492535,0.4908 -7.540257,-0.92981 -11.495889,-10.48749 -6.763926,-13.54987"
       id="path1177"
       inkscape:connector-curvature="0"
       style="fill:#34aacd;stroke:#010202;stroke-width:0.63499999;stroke-miterlimit:10;stroke-dasharray:none" />
    <g
       aria-label="Call4Makers"
       transform="matrix(0.82518765,0,0,0.62713784,-236.92667,-48.773253)"
       style="font-style:normal;font-variant:normal;font-weight:normal;font-stretch:normal;font-size:12px;line-height:1.25;font-family:FreeSerif;-inkscape-font-specification:'FreeSerif, Normal';font-variant-ligatures:normal;font-variant-caps:normal;font-variant-numeric:normal;font-feature-settings:normal;text-align:start;letter-spacing:0px;word-spacing:0px;writing-mode:lr-tb;text-anchor:start;fill:#aad400;fill-opacity:1;stroke:#333333;stroke-width:0.14317901;stroke-miterlimit:4;stroke-dasharray:none"
       id="flowRoot1800">
      <path
         inkscape:connector-curvature="0"
         d="m 385.53675,384.2934 c 0,-2.75171 0.39019,-4.96605 1.17429,-6.63 0.69291,-1.45593 1.5332,-2.16094 2.5181,-2.10896 0.49987,0.0264 1.03471,0.27022 1.60386,0.731 0.1896,0.14772 0.33208,0.22407 0.42753,0.22912 0.23515,-0.005 0.3925,-0.28049 0.47214,-0.82797 0,0 0.23167,0.0122 0.23167,0.0122 0,0 0.031,5.79089 0.031,5.79089 0,0 -0.25108,-0.0134 -0.25108,-0.0134 -0.3742,-3.16401 -1.14629,-4.79903 -2.31289,-4.87791 -0.93175,-0.0493 -1.63974,0.83979 -2.12164,2.6579 -0.33909,1.28886 -0.51022,2.88356 -0.5146,4.77886 -0.009,3.70195 0.49741,6.08538 1.51502,7.18487 0.34078,0.36031 0.71436,0.55136 1.12106,0.57348 0.77069,0.0419 1.49457,-0.578 2.17412,-1.86462 0.0879,-0.15909 0.16859,-0.31867 0.2422,-0.47874 0,0 0.1883,0.45292 0.1883,0.45292 -0.59229,1.69892 -1.40173,2.66218 -2.43024,2.89786 -0.17841,0.0389 -0.35305,0.0536 -0.52395,0.0443 -1.14631,-0.0625 -2.04791,-0.98717 -2.70817,-2.78273 -0.55704,-1.53821 -0.8367,-3.45846 -0.8367,-5.76912 0,0 0,0 0,0"
         style="fill:#aad400;stroke:#333333;stroke-width:0.14317901;stroke-miterlimit:4;stroke-dasharray:none"
         id="path1808" />
      <path
         inkscape:connector-curvature="0"
         d="m 392.62105,390.32773 c 0.0166,-1.26184 0.37584,-2.30477 1.07939,-3.12636 0.19838,-0.23777 0.74782,-0.73902 1.65031,-1.5054 0.0148,-0.0159 0.0295,-0.0317 0.0443,-0.0476 0,0 0.0277,-1.52719 0.0277,-1.52719 -0.0268,-1.3282 -0.2907,-2.04185 -0.79164,-2.13612 -0.34928,-0.0186 -0.59333,0.22141 -0.73198,0.71948 -0.0462,0.16581 -0.0704,0.32428 -0.0727,0.47544 -0.002,0.13429 0.006,0.33618 0.0235,0.60552 0.0114,0.20174 0.0166,0.33602 0.0156,0.40294 -0.007,0.43459 -0.10919,0.74649 -0.30751,0.93611 -0.0661,0.0632 -0.13164,0.093 -0.19672,0.0895 -0.20247,-0.0109 -0.34049,-0.23516 -0.41415,-0.67338 -0.0269,-0.15193 -0.0395,-0.2948 -0.0377,-0.42861 0.0127,-0.93848 0.25904,-1.67393 0.73972,-2.20475 0.33341,-0.37076 0.71156,-0.54508 1.13408,-0.52255 0.78686,0.042 1.26257,0.71803 1.42645,2.02357 0.0617,0.55719 0.0842,1.25337 0.0677,2.08745 0,0 -0.0955,4.82855 -0.0955,4.82855 -0.0165,0.83313 0.0423,1.30127 0.1762,1.40633 0.0426,0.0186 0.0817,0.0289 0.1175,0.0308 0.15765,-0.008 0.31823,-0.15384 0.48185,-0.43858 0,0 -0.0135,0.63506 -0.0135,0.63506 -0.30826,0.71497 -0.58399,1.0975 -0.8278,1.14907 -0.0574,0.0131 -0.11103,0.0183 -0.16095,0.0155 -0.34231,-0.0186 -0.54938,-0.40295 -0.62137,-1.15447 -0.0176,-0.21261 -0.0279,-0.43315 -0.0309,-0.66162 -0.65605,1.10391 -1.18661,1.66728 -1.59373,1.69372 -0.4562,-0.0249 -0.77826,-0.46402 -0.96665,-1.31947 -0.0875,-0.41205 -0.12804,-0.86299 -0.12159,-1.35302 0,0 0,0 0,0 m 2.69795,-0.4927 c 0,0 0.0652,-3.58814 0.0652,-3.58814 -0.90775,0.69811 -1.46405,1.43779 -1.67042,2.21883 -0.0842,0.3413 -0.12941,0.71713 -0.13553,1.12737 -0.0149,0.99836 0.13307,1.63512 0.44366,1.91286 0.0704,0.069 0.13784,0.10525 0.20217,0.10875 0.24331,-0.003 0.50745,-0.17615 0.79269,-0.51959 0.16125,-0.20357 0.25547,-0.46002 0.2826,-0.76947 0.01,-0.14688 0.0164,-0.31041 0.0197,-0.49061 0,0 0,0 0,0"
         style="fill:#aad400;stroke:#333333;stroke-width:0.14317901;stroke-miterlimit:4;stroke-dasharray:none"
         id="path1810" />
      <path
         inkscape:connector-curvature="0"
         d="m 397.36137,377.35302 c 0,0 0.009,-0.4122 0.009,-0.4122 0.74483,-0.39117 1.33876,-0.73926 1.78125,-1.04405 0,0 0.0429,0.0541 0.0429,0.0541 0,0 -0.37155,15.0322 -0.37155,15.0322 -0.0189,0.76641 0.0409,1.24209 0.1794,1.42861 0.11108,0.13614 0.3053,0.23611 0.58269,0.29996 0,0 -0.01,0.36487 -0.01,0.36487 0,0 -2.52694,-0.13761 -2.52694,-0.13761 0,0 0.008,-0.36488 0.008,-0.36488 0.40888,-0.059 0.6603,-0.26481 0.75423,-0.61779 0.0628,-0.24101 0.0999,-0.60606 0.11116,-1.09564 0,0 0.2752,-11.94681 0.2752,-11.94681 0.0197,-0.85474 -0.0496,-1.35598 -0.20809,-1.50178 -0.0649,-0.055 -0.13782,-0.0846 -0.21863,-0.0889 -0.15425,-0.008 -0.29051,0.002 -0.40877,0.0299 0,0 0,0 0,0"
         style="fill:#aad400;stroke:#333333;stroke-width:0.14317901;stroke-miterlimit:4;stroke-dasharray:none"
         id="path1812" />
      <path
         inkscape:connector-curvature="0"
         d="m 400.20237,377.50336 c 0,0 0.011,-0.41221 0.011,-0.41221 0.74747,-0.39115 1.34368,-0.73922 1.78811,-1.044 0,0 0.0427,0.0541 0.0427,0.0541 0,0 -0.4492,15.03223 -0.4492,15.03223 -0.0229,0.7664 0.0345,1.24208 0.1722,1.4286 0.11046,0.13614 0.30434,0.23612 0.58163,0.29998 0,0 -0.0115,0.36487 -0.0115,0.36487 0,0 -2.52832,-0.13769 -2.52832,-0.13769 0,0 0.01,-0.36487 0.01,-0.36487 0.40952,-0.059 0.66221,-0.26479 0.75804,-0.61777 0.0641,-0.24101 0.10308,-0.60605 0.11689,-1.09563 0,0 0.33688,-11.94682 0.33688,-11.94682 0.0241,-0.85474 -0.0427,-1.35599 -0.20053,-1.5018 -0.0647,-0.055 -0.13751,-0.0846 -0.21836,-0.0889 -0.15434,-0.008 -0.29076,0.002 -0.40926,0.0299 0,0 0,0 0,0"
         style="fill:#aad400;stroke:#333333;stroke-width:0.14317901;stroke-miterlimit:4;stroke-dasharray:none"
         id="path1814" />
      <path
         inkscape:connector-curvature="0"
         d="m 407.73599,387.83367 c 0,0 -0.065,1.5842 -0.065,1.5842 0,0 -1.1024,-0.0596 -1.1024,-0.0596 0,0 -0.15957,4.09039 -0.15957,4.09039 0,0 -0.82572,-0.045 -0.82572,-0.045 0,0 0.15324,-4.09041 0.15324,-4.09041 0,0 -3.03527,-0.16407 -3.03527,-0.16407 0,0 0.0504,-1.58421 0.0504,-1.58421 0,0 3.8318,-11.09458 3.8318,-11.09458 0,0 0.48684,0.0257 0.48684,0.0257 0,0 -0.43994,11.27793 -0.43994,11.27793 0,0 1.10565,0.0596 1.10565,0.0596 m -1.95098,-0.10516 c 0,0 0.32393,-8.65151 0.32393,-8.65151 0,0 -2.92407,8.51137 -2.92407,8.51137 0,0 2.60014,0.14014 2.60014,0.14014"
         style="fill:#aad400;stroke:#333333;stroke-width:0.14317901;stroke-miterlimit:4;stroke-dasharray:none"
         id="path1816" />
      <path
         inkscape:connector-curvature="0"
         d="m 415.86114,379.61997 c 0,0 -3.53949,14.15071 -3.53949,14.15071 0,0 -0.15031,-0.008 -0.15031,-0.008 0,0 -2.08051,-13.85847 -2.08051,-13.85847 0,0 -0.4527,10.11454 -0.4527,10.11454 -0.063,1.40873 -0.0128,2.29439 0.15026,2.66215 0.13793,0.2845 0.37761,0.46035 0.71912,0.52776 0,0 -0.0216,0.46224 -0.0216,0.46224 0,0 -2.52167,-0.13733 -2.52167,-0.13733 0,0 0.0194,-0.46224 0.0194,-0.46224 0.46161,-0.0563 0.76179,-0.27603 0.90057,-0.65974 0.13253,-0.40097 0.22537,-1.20595 0.27857,-2.41856 0,0 0.44712,-10.19126 0.44712,-10.19126 0.0435,-0.99075 -0.003,-1.61997 -0.1387,-1.88516 -0.13025,-0.23067 -0.40022,-0.39136 -0.80989,-0.48194 0,0 0.0206,-0.4905 0.0206,-0.4905 0,0 2.19061,0.11571 2.19061,0.11571 0,0 1.91202,12.88196 1.91202,12.88196 0,0 3.09234,-12.61764 3.09234,-12.61764 0,0 2.20481,0.11645 2.20481,0.11645 0,0 -0.029,0.49051 -0.029,0.49051 -0.45525,0.0622 -0.74437,0.26232 -0.86739,0.60017 -0.10617,0.30394 -0.18225,0.85796 -0.22824,1.66054 0,0 -0.63754,11.12577 -0.63754,11.12577 -0.0552,0.96389 -0.0113,1.57902 0.13162,1.84781 0.11784,0.20201 0.34384,0.33648 0.67802,0.40353 0,0 -0.0273,0.46222 -0.0273,0.46222 0,0 -3.00832,-0.16383 -3.00832,-0.16383 0,0 0.0247,-0.46223 0.0247,-0.46223 0.44788,-0.0408 0.73409,-0.21253 0.85864,-0.51557 0.11841,-0.32007 0.2038,-0.95327 0.25621,-1.9018 0,0 0.62802,-11.36761 0.62802,-11.36761"
         style="fill:#aad400;stroke:#333333;stroke-width:0.14317901;stroke-miterlimit:4;stroke-dasharray:none"
         id="path1818" />
      <path
         inkscape:connector-curvature="0"
         d="m 417.67206,391.68614 c 0.0755,-1.26178 0.48606,-2.30457 1.23316,-3.12595 0.21096,-0.23772 0.78788,-0.73881 1.73287,-1.50494 0.0156,-0.0159 0.0312,-0.0317 0.0468,-0.0476 0,0 0.0991,-1.52719 0.0991,-1.52719 0.0349,-1.32823 -0.19771,-2.04197 -0.69804,-2.13637 -0.35104,-0.0187 -0.60811,0.22126 -0.77101,0.7193 -0.0542,0.1658 -0.086,0.32427 -0.0954,0.47543 -0.008,0.13429 -0.01,0.33618 -0.005,0.60553 0.002,0.20175 10e-4,0.33603 -0.003,0.40295 -0.0269,0.43459 -0.1448,0.74646 -0.35344,0.93603 -0.0695,0.0632 -0.13697,0.093 -0.20237,0.0895 -0.20349,-0.0109 -0.33209,-0.23525 -0.38588,-0.67349 -0.02,-0.15194 -0.026,-0.29482 -0.018,-0.42862 0.0565,-0.93849 0.339,-1.67389 0.84803,-2.2046 0.35321,-0.37068 0.74233,-0.5449 1.16698,-0.52226 0.79084,0.0422 1.23861,0.71839 1.34286,2.024 0.0362,0.55722 0.0265,1.25341 -0.029,2.08748 0,0 -0.3213,4.82841 -0.3213,4.82841 -0.0554,0.83308 -0.0181,1.30121 0.11197,1.4063 0.042,0.0186 0.081,0.0289 0.11694,0.0309 0.1592,-0.008 0.32778,-0.15375 0.5059,-0.43843 0,0 -0.0432,0.63502 -0.0432,0.63502 -0.34388,0.71484 -0.63951,1.09727 -0.88755,1.14876 -0.0584,0.0131 -0.11271,0.0182 -0.16288,0.0155 -0.344,-0.0187 -0.5347,-0.40307 -0.57221,-1.15456 -0.008,-0.21261 -0.008,-0.43313 -2.8e-4,-0.66159 -0.71241,1.10367 -1.27319,1.66685 -1.68459,1.69318 -0.45845,-0.025 -0.76246,-0.4642 -0.91239,-1.31965 -0.0689,-0.41205 -0.0888,-0.86297 -0.0595,-1.35298 0,0 0,0 0,0 m 2.74112,-0.49195 c 0,0 0.2329,-3.58802 0.2329,-3.58802 -0.94711,0.69786 -1.54205,1.43737 -1.78637,2.21834 -0.10079,0.34126 -0.1638,0.71706 -0.18908,1.12728 -0.0615,0.99832 0.0579,1.63509 0.35783,1.91289 0.0678,0.069 0.13397,0.10528 0.19862,0.1088 0.24527,-0.003 0.51945,-0.176 0.82283,-0.51934 0.17195,-0.20352 0.27884,-0.45993 0.32059,-0.76936 0.0168,-0.14687 0.031,-0.31039 0.0427,-0.49059 0,0 0,0 0,0"
         style="fill:#aad400;stroke:#333333;stroke-width:0.14317901;stroke-miterlimit:4;stroke-dasharray:none"
         id="path1820" />
      <path
         inkscape:connector-curvature="0"
         d="m 423.05279,378.71255 c 0,0 0.0281,-0.41223 0.0281,-0.41223 0.66041,-0.32762 1.2601,-0.67626 1.79897,-1.04601 0,0 0.0407,0.0541 0.0407,0.0541 0,0 -0.76179,10.66174 -0.76179,10.66174 0,0 1.71899,-2.97391 1.71899,-2.97391 0.18572,-0.32729 0.29111,-0.60863 0.31603,-0.84386 0.0189,-0.25267 -0.062,-0.40084 -0.24247,-0.44434 -0.0707,-0.0376 -0.16099,-0.0594 -0.27082,-0.0653 0,0 0.0261,-0.35443 0.0261,-0.35443 0,0 2.24238,0.11964 2.24238,0.11964 0,0 -0.0295,0.37973 -0.0295,0.37973 -0.34425,-0.0184 -0.6611,0.134 -0.95031,0.45681 -0.39403,0.45178 -0.9464,1.31499 -1.655,2.58551 0,0 -0.36572,0.65728 -0.36572,0.65728 0,0 1.30426,4.88562 1.30426,4.88562 0.29008,1.03077 0.60515,1.62739 0.94589,1.79265 0.0562,0.0193 0.11601,0.0389 0.1794,0.0587 0,0 -0.0286,0.36484 -0.0286,0.36484 0,0 -2.34709,-0.12782 -2.34709,-0.12782 0,0 0.027,-0.36484 0.027,-0.36484 0.2765,-0.0338 0.42924,-0.14777 0.45817,-0.34189 0.007,-0.0975 -0.0362,-0.33663 -0.13062,-0.71771 -0.018,-0.05 -0.0293,-0.0916 -0.0341,-0.12456 0,0 -1.18174,-4.69328 -1.18174,-4.69328 0,0 -0.3015,4.21975 -0.3015,4.21975 -0.0443,0.61955 -0.0219,1.01284 0.0671,1.18088 0.0829,0.1513 0.29199,0.30124 0.62724,0.44984 0,0 -0.0266,0.36484 -0.0266,0.36484 0,0 -2.5179,-0.13712 -2.5179,-0.13712 0,0 0.0249,-0.36485 0.0249,-0.36485 0.42028,-0.14005 0.67264,-0.2975 0.75691,-0.47236 0.0699,-0.17577 0.12481,-0.54864 0.16462,-1.11943 0,0 0.84185,-12.06926 0.84185,-12.06926 0.0596,-0.85479 0.0131,-1.35608 -0.13975,-1.50194 -0.0555,-0.0546 -0.13124,-0.0845 -0.22722,-0.0895 -0.10336,-0.005 -0.22265,0.005 -0.35788,0.0327 0,0 0,0 0,0"
         style="fill:#aad400;stroke:#333333;stroke-width:0.14317901;stroke-miterlimit:4;stroke-dasharray:none"
         id="path1822" />
      <path
         inkscape:connector-curvature="0"
         d="m 428.61991,387.80998 c -0.19499,2.99401 0.081,4.7532 0.82539,5.30162 0.13603,0.1056 0.27964,0.1625 0.43089,0.17072 0.52578,0.0286 1.01947,-0.46065 1.4824,-1.4706 0.13363,-0.28923 0.27163,-0.62805 0.41406,-1.01665 0,0 0.15885,0.18204 0.15885,0.18204 -0.59551,2.28628 -1.32697,3.57756 -2.19728,3.88832 -0.14896,0.0569 -0.29522,0.0815 -0.43879,0.0737 -0.79679,-0.0434 -1.30621,-0.8446 -1.52931,-2.41025 -0.13126,-0.91061 -0.14951,-1.975 -0.0541,-3.19503 0.17261,-2.20674 0.60771,-3.8784 1.30653,-5.00512 0.45509,-0.72065 0.94721,-1.06765 1.47543,-1.03948 1.01257,0.054 1.51295,1.40206 1.50106,4.02521 -0.005,0.23395 -0.0102,0.45938 -0.0142,0.67631 0,0 -3.36097,-0.18077 -3.36097,-0.18077 m 0.0855,-0.79779 c 0,0 2.22916,0.11972 2.22916,0.11972 0.0256,-1.44248 -0.0836,-2.3335 -0.32789,-2.6676 -0.1252,-0.17581 -0.29403,-0.26943 -0.50643,-0.28078 -0.65179,-0.0348 -1.11587,0.89471 -1.39085,2.77865 -10e-4,0.0167 -0.003,0.0333 -0.004,0.05 0,0 0,0 0,0"
         style="fill:#aad400;stroke:#333333;stroke-width:0.14317901;stroke-miterlimit:4;stroke-dasharray:none"
         id="path1824" />
      <path
         inkscape:connector-curvature="0"
         d="m 435.77699,386.05689 c -0.10967,-0.006 -0.25564,-0.21578 -0.43812,-0.63016 -0.0856,-0.19023 -0.15398,-0.28676 -0.20524,-0.2895 -0.18305,-0.01 -0.40232,0.29915 -0.65736,0.92571 -0.16919,0.4113 -0.26795,0.77539 -0.29644,1.09247 0,0 -0.50059,5.57117 -0.50059,5.57117 -0.0747,0.83191 -0.0243,1.35786 0.15096,1.57966 0.12349,0.15357 0.32403,0.2542 0.60164,0.30192 0,0 -0.0334,0.36483 -0.0334,0.36483 0,0 -2.58748,-0.14092 -2.58748,-0.14092 0,0 0.0316,-0.36483 0.0316,-0.36483 0.39531,-0.14157 0.63973,-0.33226 0.73315,-0.57218 0.0762,-0.20837 0.13663,-0.56511 0.18121,-1.07081 0,0 0.54598,-6.19394 0.54598,-6.19394 0.0797,-0.90374 0.0318,-1.40362 -0.14373,-1.4974 -0.0351,-0.0187 -0.0673,-0.0289 -0.0966,-0.0305 -0.1244,-0.007 -0.25539,0.0201 -0.39292,0.0802 0,0 0.035,-0.40338 0.035,-0.40338 0.63153,-0.40596 1.21431,-0.83224 1.74825,-1.27892 0,0 0.0505,0.0536 0.0505,0.0536 0,0 -0.20868,2.32247 -0.20868,2.32247 0.49424,-1.23939 0.88874,-1.97218 1.18195,-2.19414 0.1179,-0.0786 0.23561,-0.11481 0.35312,-0.10854 0.33786,0.018 0.50545,0.35803 0.50275,1.01886 -0.004,0.11827 -0.011,0.23629 -0.022,0.35407 -0.10824,0.68646 -0.28605,1.05608 -0.53356,1.11017 0,0 0,0 0,0"
         style="fill:#aad400;stroke:#333333;stroke-width:0.14317901;stroke-miterlimit:4;stroke-dasharray:none"
         id="path1826" />
      <path
         inkscape:connector-curvature="0"
         d="m 439.4022,384.27365 c 0.0237,-0.0157 0.0908,-0.0969 0.20137,-0.24381 0,0 0.12122,0.006 0.12122,0.006 0,0 -0.29693,3.42603 -0.29693,3.42603 0,0 -0.16426,-0.009 -0.16426,-0.009 -0.0219,-1.63234 -0.18951,-2.62129 -0.50291,-2.95982 -0.11324,-0.12469 -0.24695,-0.19117 -0.4011,-0.1994 -0.39636,-0.0212 -0.6937,0.31032 -0.89167,0.99312 -0.0575,0.21641 -0.0974,0.44202 -0.11985,0.67679 -0.0614,0.72022 0.0412,1.29646 0.30764,1.72966 0,0 1.02452,1.65787 1.02452,1.65787 0.45293,0.73932 0.6732,1.5305 0.66169,2.37297 -0.005,0.19771 -0.0186,0.40308 -0.0399,0.61609 -0.10327,1.0299 -0.38845,1.84975 -0.85498,2.46141 -0.32237,0.40629 -0.64875,0.60017 -0.97952,0.58215 -0.1438,-0.008 -0.46641,-0.14749 -0.96814,-0.41914 -0.11766,-0.0553 -0.20887,-0.0847 -0.27362,-0.0882 -0.10945,0.0103 -0.20139,0.1031 -0.27578,0.2782 0,0 -0.1402,-0.008 -0.1402,-0.008 0,0 0.3598,-3.81736 0.3598,-3.81736 0,0 0.17381,0.009 0.17381,0.009 0.007,1.15393 0.0675,1.96998 0.1812,2.45119 0.17561,0.66341 0.46399,1.01361 0.86547,1.05177 0.45346,0.0247 0.77538,-0.34131 0.96616,-1.09962 0.0482,-0.19399 0.0828,-0.39707 0.10374,-0.60925 0.0671,-0.75254 -0.0604,-1.37746 -0.38307,-1.8738 0,0 -0.55168,-0.84915 -0.55168,-0.84915 -0.59863,-0.91226 -0.91812,-1.82058 -0.95715,-2.72507 -0.0155,-0.30229 -0.008,-0.61209 0.0216,-0.92942 0.11047,-1.17231 0.41726,-2.04293 0.92084,-2.60901 0.2714,-0.29099 0.5615,-0.42838 0.8701,-0.41192 0.24249,0.0129 0.51666,0.15496 0.8223,0.42591 0.0815,0.0722 0.14789,0.10968 0.19929,0.11243 0,0 0,0 0,0"
         style="fill:#aad400;stroke:#333333;stroke-width:0.14317901;stroke-miterlimit:4;stroke-dasharray:none"
         id="path1828" />
    </g>
    <g
       id="layer2"
       inkscape:label="layer2"
       transform="matrix(0.07475628,-0.04438848,-0.0105928,0.06586615,131.37074,181.86289)">
      <g
         id="g7826">
        <path
           inkscape:connector-curvature="0"
           id="path4217"
           style="color:#000000;fill:url(#linearGradient7819)"
           d="m 567.38,303.44 c -23.74,-23.72 -49.66,-36.33 -57.82,-28.18 -0.55,0.55 -1.03,1.17 -1.4,1.88 l -51.66,51.62 7.8,7.79 30.34,30.31 9.74,9.74 38.14,38.11 53.37,-53.32 c -0.03,-0.1 -0.03,-0.21 -0.06,-0.31 l -0.06,-0.06 0.06,-0.06 c 7.68,-8.4 -4.93,-34.03 -28.45,-57.52 z" />
        <path
           inkscape:connector-curvature="0"
           id="path4235"
           style="color:#000000;fill:#e3dedb"
           d="m 470.45,314.82 -48.31,48.27 -5.54,5.54 7.79,7.79 78.23,78.16 53.85,-53.81 -43.01,-42.98 -35.21,-35.18 z" />
        <path
           inkscape:connector-curvature="0"
           id="path4143"
           style="color:#000000;fill:#000000"
           d="m 538.99,418.24 -86.02,-85.95 -3.9,3.9 -1.95,1.94 86.02,85.95 1.95,-1.95 z" />
        <path
           inkscape:connector-curvature="0"
           id="path4147"
           style="color:#000000;fill:#000000"
           d="m 548.74,408.5 -86.03,-85.95 -3.9,3.9 -1.94,1.95 86.02,85.94 1.95,-1.95 z" />
        <path
           inkscape:connector-curvature="0"
           id="path4163"
           style="color:#000000;fill:#000000"
           d="m 529.24,427.98 -86.02,-85.95 -3.9,3.9 -1.95,1.94 86.02,85.95 1.95,-1.95 z" />
        <path
           inkscape:connector-curvature="0"
           id="path4106"
           style="color:#000000;fill:url(#linearGradient7812)"
           d="m 429.21,356.03 -184.9,184.74 -34.97,120.88 10.96,-3.16 110.03,-31.77 184.9,-184.74 -16.69,-16.68 -5.85,-5.84 -15.6,-15.59 -1.95,-1.94 -5.85,-5.85 -1.95,-1.95 -15.59,-15.58 -5.85,-5.84 -8.9,-8.89 z" />
        <path
           inkscape:connector-curvature="0"
           id="path3990"
           sodipodi:nodetypes="ccccc"
           style="color:#000000;fill:#000000"
           d="m 256.88,647.93 -16.9,-16.89 -16.9,-16.89 -13.74,47.5 z" />
        <path
           inkscape:connector-curvature="0"
           id="path4089"
           style="color:#000000;fill:#ff9191"
           d="m 595.83,361.08 c 0.03,0.1 0.03,0.21 0.06,0.31 l 0.12,-0.13 z" />
        <path
           inkscape:connector-curvature="0"
           id="path3424"
           sodipodi:nodetypes="ccccccccccc"
           style="color:#000000;fill:#ffc700"
           d="m 429.21,356.03 -184.9,184.74 41.73,1.28 1.28,41.69 41.73,1.28 1.28,41.7 184.9,-184.74 -21.51,-21.49 -21.5,-21.49 -21.51,-21.48 z" />
        <path
           inkscape:connector-curvature="0"
           id="path3426"
           sodipodi:nodetypes="ccccc"
           style="color:#000000;fill:#ffda00"
           d="m 429.21,356.03 -184.9,184.74 41.73,1.28 164.67,-164.53 z" />
        <path
           inkscape:connector-curvature="0"
           id="path3428"
           sodipodi:nodetypes="ccccc"
           style="color:#000000;fill:#ff8a00"
           d="m 329.05,585.02 1.28,41.7 184.9,-184.74 -21.51,-21.49 z" />
        <path
           inkscape:connector-curvature="0"
           id="path3430"
           sodipodi:nodetypes="ccccc"
           style="color:#000000;fill:#ffa100"
           d="m 287.32,583.74 41.73,1.28 L 493.72,420.49 472.22,399 Z" />
        <path
           inkscape:connector-curvature="0"
           id="path3680"
           style="color:#000000;fill:url(#linearGradient7803)"
           d="m 491.1,336.97 c -1.55,-1.55 -3.37,-2.77 -5.29,-3.55 -1.92,-0.78 -3.96,-1.1 -6,-1.1 -2.05,0 -4.09,0.32 -6.01,1.1 -1.92,0.78 -3.73,2 -5.29,3.55 l -29.23,29.2 -173.55,173.4 c -0.54,0.54 -0.74,1.24 -1.18,1.82 l 21.48,0.63 1.27,41.67 24.64,0.79 172.92,-172.77 29.23,-29.2 c 1.56,-1.55 2.78,-3.37 3.56,-5.29 0.77,-1.92 1.1,-3.95 1.1,-5.99 0,-2.05 -0.33,-4.08 -1.1,-6 -0.78,-1.92 -2,-3.73 -3.56,-5.29 z" />
        <path
           inkscape:connector-curvature="0"
           id="path4288"
           sodipodi:nodetypes="cccc"
           style="color:#000000;opacity:0.8;fill:#ffffff"
           d="m 239.98,631.04 -11.24,-11.23 -19.4,41.84 z" />
      </g>
    </g>
    <path
       sodipodi:nodetypes="cssccccccccssc"
       id="path1175"
       stroke-miterlimit="10"
       d="m 173.30676,200.33428 c 0.73451,1.11947 1.58339,3.97623 1.17819,5.38673 -0.84853,2.95376 -4.68246,3.70824 -7.66098,3.53342 -4.40086,-0.2583 -11.68595,-2.29813 -15.67145,-6.3423 -0.59074,-0.59932 -1.05646,-0.91997 -1.14011,-0.78469 -0.22215,0.35925 -1.85434,0.25875 -2.80418,-0.17327 -2.61681,-1.18883 -3.40517,-3.84685 -1.68688,-5.68847 1.7644,-1.8914 4.72101,-1.8335 6.44206,0.12685 0.90188,1.02721 0.66163,1.91116 0.13294,3.10582 l -0.41333,0.93421 1.85295,1.08481 c 3.61154,2.11477 5.3147,2.91347 8.74179,3.20955 1.71354,0.14804 2.6118,-0.63321 2.90443,-1.6417 0.29263,-1.0085 -0.0204,-2.24423 -0.72932,-3.00516"
       inkscape:connector-curvature="0"
       style="fill:#13738d;stroke:#010202;stroke-width:0.39095977;stroke-miterlimit:10;stroke-dasharray:none" />
    <g
       id="flowRoot2125"
       style="font-style:normal;font-variant:normal;font-weight:normal;font-stretch:normal;font-size:12px;line-height:1.25;font-family:FreeSerif;-inkscape-font-specification:'FreeSerif, Normal';font-variant-ligatures:normal;font-variant-caps:normal;font-variant-numeric:normal;font-feature-settings:normal;text-align:start;letter-spacing:0px;word-spacing:0px;writing-mode:lr-tb;text-anchor:start;fill:#aad400;fill-opacity:1;stroke:none"
       transform="matrix(1.1371903,0,0,0.92048655,-622.96375,-256.98451)"
       aria-label="OSHWDem">
      <path
         id="path2133"
         style="font-style:normal;font-variant:normal;font-weight:normal;font-stretch:normal;font-size:12px;font-family:Geneva;-inkscape-font-specification:'Geneva, Normal';font-variant-ligatures:normal;font-variant-caps:normal;font-variant-numeric:normal;font-feature-settings:normal;text-align:start;writing-mode:lr-tb;text-anchor:start;fill:#aad400"
         d="m 624.24886,507.01154 c -0.60966,-0.0332 -1.10583,-0.50827 -1.49014,-1.42884 -0.38637,-0.92553 -0.58034,-2.23171 -0.58034,-3.92778 0,-1.71357 0.19753,-3.03397 0.59428,-3.95183 0.39906,-0.92757 0.91419,-1.37676 1.54374,-1.34354 0.62969,0.0332 1.13907,0.53665 1.52644,1.50625 0.38745,0.96 0.56941,2.30149 0.54765,4.01507 -0.0215,1.69606 -0.23327,2.98117 -0.63366,3.86455 -0.39605,0.87854 -0.89818,1.29934 -1.50797,1.26612 0,0 0,0 0,0 m 0.006,-0.98119 c 0.44556,0.0242 0.79681,-0.34006 1.05459,-1.09549 0.25906,-0.76331 0.39595,-1.79169 0.4098,-3.08999 0.0139,-1.30419 -0.10243,-2.367 -0.35002,-3.18361 -0.24877,-0.82046 -0.60228,-1.24426 -1.05961,-1.26847 -0.45509,-0.0241 -0.8136,0.36191 -1.0746,1.15509 -0.25757,0.78942 -0.38721,1.83864 -0.38983,3.14282 -0.003,1.2983 0.12103,2.34027 0.37004,3.13076 0.24999,0.78273 0.59623,1.1848 1.03963,1.20889 0,0 0,0 0,0"
         inkscape:connector-curvature="0" />
      <path
         id="path2135"
         style="font-style:normal;font-variant:normal;font-weight:normal;font-stretch:normal;font-size:12px;font-family:Geneva;-inkscape-font-specification:'Geneva, Normal';font-variant-ligatures:normal;font-variant-caps:normal;font-variant-numeric:normal;font-feature-settings:normal;text-align:start;writing-mode:lr-tb;text-anchor:start;fill:#aad400"
         d="m 626.99275,504.65682 c 0,0 0.64036,0.0346 0.64036,0.0346 0,0 -10e-4,0.0637 -10e-4,0.0637 -0.009,0.54646 0.0805,0.93184 0.26853,1.15729 0.18786,0.22096 0.44058,0.33997 0.75836,0.35723 0.27782,0.0151 0.51386,-0.13426 0.70842,-0.44857 0.19706,-0.31482 0.30183,-0.73922 0.31403,-1.27403 0.01,-0.43421 -0.0637,-0.7928 -0.22104,-1.07523 -0.1575,-0.28717 -0.40036,-0.57724 -0.72878,-0.87019 0,0 -0.25452,-0.2269 -0.25452,-0.2269 -0.34606,-0.31193 -0.60427,-0.61532 -0.7744,-0.91013 -0.16821,-0.29953 -0.29239,-0.62763 -0.37247,-0.98448 -0.0802,-0.3576 -0.11713,-0.7552 -0.11053,-1.19311 0.0117,-0.77351 0.1553,-1.42186 0.43152,-1.94364 0.2793,-0.52338 0.70634,-0.77058 1.28052,-0.74028 0.5266,0.0278 0.89267,0.24783 1.09779,0.6594 0.20465,0.41063 0.30035,0.88095 0.28748,1.41042 0,0 -0.002,0.0661 -0.002,0.0661 0,0 -0.65278,-0.0347 -0.65278,-0.0347 0,0 10e-4,-0.0661 10e-4,-0.0661 0.004,-0.16749 -0.026,-0.3347 -0.0892,-0.50164 -0.0611,-0.16699 -0.15685,-0.28944 -0.28707,-0.36724 -0.13018,-0.0822 -0.27414,-0.12757 -0.43184,-0.13592 -0.32185,-0.017 -0.56355,0.1364 -0.72486,0.4598 -0.15875,0.31846 -0.24158,0.68653 -0.2487,1.10392 -0.005,0.2806 0.0272,0.54736 0.0958,0.80037 0.0686,0.24827 0.1646,0.45625 0.288,0.62406 0.12542,0.16779 0.33629,0.39433 0.63236,0.67941 0,0 0.29886,0.28266 0.29886,0.28266 0.4772,0.45395 0.79082,0.91964 0.94143,1.3969 0.15232,0.47603 0.22165,0.98262 0.20832,1.51944 -0.0123,0.49692 -0.0897,0.97398 -0.23187,1.43134 -0.14165,0.45185 -0.3308,0.79061 -0.5675,1.017 -0.23624,0.22186 -0.54625,0.32221 -0.93025,0.30128 -0.36508,-0.0199 -0.66877,-0.12434 -0.91129,-0.31349 -0.24074,-0.18503 -0.42215,-0.48042 -0.54429,-0.88678 -0.12033,-0.40722 -0.1771,-0.85007 -0.1701,-1.32886 0,0 9.4e-4,-0.0637 9.4e-4,-0.0637"
         inkscape:connector-curvature="0" />
      <path
         id="path2137"
         style="font-style:normal;font-variant:normal;font-weight:normal;font-stretch:normal;font-size:12px;font-family:Geneva;-inkscape-font-specification:'Geneva, Normal';font-variant-ligatures:normal;font-variant-caps:normal;font-variant-numeric:normal;font-feature-settings:normal;text-align:start;writing-mode:lr-tb;text-anchor:start;fill:#aad400"
         d="m 631.62379,507.11798 c 0,0 -0.6369,-0.0347 -0.6369,-0.0347 0,0 0.27115,-10.04973 0.27115,-10.04973 0,0 0.65653,0.0347 0.65653,0.0347 0,0 -0.13164,4.54985 -0.13164,4.54985 0,0 2.28709,0.12248 2.28709,0.12248 0,0 0.16306,-4.54988 0.16306,-4.54988 0,0 0.65717,0.0347 0.65717,0.0347 0,0 -0.37983,10.04974 -0.37983,10.04974 0,0 -0.6375,-0.0347 -0.6375,-0.0347 0,0 0.16113,-4.49612 0.16113,-4.49612 0,0 -2.28016,-0.12248 -2.28016,-0.12248 0,0 -0.1301,4.49615 -0.1301,4.49615"
         inkscape:connector-curvature="0" />
      <path
         id="path2139"
         style="font-style:normal;font-variant:normal;font-weight:normal;font-stretch:normal;font-size:12px;font-family:Geneva;-inkscape-font-specification:'Geneva, Normal';font-variant-ligatures:normal;font-variant-caps:normal;font-variant-numeric:normal;font-feature-settings:normal;text-align:start;writing-mode:lr-tb;text-anchor:start;fill:#aad400"
         d="m 636.98275,507.40975 c 0,0 -0.64748,-0.0352 -0.64748,-0.0352 0,0 -0.70961,-10.11026 -0.70961,-10.11026 0,0 0.62818,0.0332 0.62818,0.0332 0,0 0.4881,7.18314 0.4881,7.18314 0,0 0.0552,1.19727 0.0552,1.19727 0,0 0.0285,0.002 0.0285,0.002 0,0 0.16158,-1.18558 0.16158,-1.18558 0,0 1.24625,-7.09183 1.24625,-7.09183 0,0 0.65151,0.0344 0.65151,0.0344 0,0 0.52741,7.20756 0.52741,7.20756 0,0 0.0403,1.17773 0.0403,1.17773 0,0 0.0286,0.002 0.0286,0.002 0,0 0.16714,-1.16655 0.16714,-1.16655 0,0 1.21148,-7.11599 1.21148,-7.11599 0,0 0.57707,0.0305 0.57707,0.0305 0,0 -1.71758,9.98759 -1.71758,9.98759 0,0 -0.64806,-0.0353 -0.64806,-0.0353 0,0 -0.55679,-7.19417 -0.55679,-7.19417 0,0 -0.0586,-1.25746 -0.0586,-1.25746 0,0 -0.0324,-0.002 -0.0324,-0.002 0,0 -0.17379,1.24506 -0.17379,1.24506 0,0 -1.26703,7.09457 -1.26703,7.09457"
         inkscape:connector-curvature="0" />
      <path
         id="path2141"
         style="font-style:normal;font-variant:normal;font-weight:normal;font-stretch:normal;font-size:12px;font-family:Geneva;-inkscape-font-specification:'Geneva, Normal';font-variant-ligatures:normal;font-variant-caps:normal;font-variant-numeric:normal;font-feature-settings:normal;text-align:start;writing-mode:lr-tb;text-anchor:start;fill:#aad400"
         d="m 641.57272,507.65965 c 0,0 0.59805,-10.04973 0.59805,-10.04973 0,0 1.39944,0.0739 1.39944,0.0739 0.68092,0.036 1.16649,0.25129 1.45614,0.64536 0.28902,0.39323 0.49417,0.9805 0.61551,1.75978 0.12326,0.77148 0.14581,1.70216 0.0685,2.78927 -0.072,1.01137 -0.21297,1.88007 -0.42261,2.60824 -0.20626,0.72077 -0.4817,1.28437 -0.8263,1.69241 -0.34367,0.40694 -0.82435,0.59316 -1.44263,0.5595 0,0 -1.44605,-0.0787 -1.44605,-0.0787 m 0.70534,-1.04292 c 0,0 0.75566,0.041 0.75566,0.041 0.45094,0.0245 0.79943,-0.0878 1.04575,-0.33718 0.24912,-0.2539 0.45357,-0.65966 0.61345,-1.21842 0.16286,-0.56488 0.27442,-1.28093 0.33448,-2.15007 0.0604,-0.87375 0.0555,-1.63095 -0.0153,-2.26996 -0.0685,-0.6457 -0.20942,-1.1275 -0.42279,-1.44396 -0.21158,-0.3169 -0.56693,-0.48877 -1.06573,-0.5152 0,0 -0.75779,-0.0402 -0.75779,-0.0402 0,0 -0.48776,7.93393 -0.48776,7.93393"
         inkscape:connector-curvature="0" />
      <path
         id="path2143"
         style="font-style:normal;font-variant:normal;font-weight:normal;font-stretch:normal;font-size:12px;font-family:Geneva;-inkscape-font-specification:'Geneva, Normal';font-variant-ligatures:normal;font-variant-caps:normal;font-variant-numeric:normal;font-feature-settings:normal;text-align:start;writing-mode:lr-tb;text-anchor:start;fill:#aad400"
         d="m 648.57864,506.22034 c 0,0 0.59306,0.0321 0.59306,0.0321 0,0 -0.005,0.0635 -0.005,0.0635 -0.0258,0.31292 -0.11467,0.62818 -0.26639,0.94573 -0.1514,0.31691 -0.3364,0.55342 -0.55505,0.70991 -0.2184,0.15631 -0.46057,0.22716 -0.72668,0.21266 -0.53848,-0.0293 -0.92842,-0.39743 -1.17066,-1.10649 -0.24112,-0.7119 -0.32304,-1.60363 -0.24461,-2.67819 0.0808,-1.10747 0.30494,-2.02117 0.67316,-2.73794 0.37238,-0.72429 0.80878,-1.07438 1.30797,-1.0478 0.27448,0.0146 0.51345,0.14824 0.71669,0.40063 0.20296,0.25203 0.34826,0.63627 0.43592,1.15179 0.0878,0.50964 0.0945,1.21265 0.0207,2.10651 0,0 -0.0329,0.39809 -0.0329,0.39809 0,0 -2.54002,-0.13689 -2.54002,-0.13689 -0.0571,0.76353 -0.002,1.39556 0.16494,1.89764 0.1685,0.50071 0.43366,0.76036 0.79586,0.78003 0.26055,0.0142 0.45804,-0.0745 0.59258,-0.26601 0.13717,-0.19591 0.2157,-0.41647 0.23548,-0.66178 0,0 0.005,-0.0635 0.005,-0.0635 m -1.68813,-2.58461 c 0,0 1.93658,0.10409 1.93658,0.10409 0,0 0.0115,-0.14193 0.0115,-0.14193 0.0271,-0.33594 0.0127,-0.66395 -0.0435,-0.98397 -0.0538,-0.32485 -0.14568,-0.56728 -0.27567,-0.72694 -0.12975,-0.16415 -0.28947,-0.25135 -0.47908,-0.26147 -0.22406,-0.012 -0.44487,0.1597 -0.66207,0.51441 -0.21638,0.34957 -0.37894,0.84862 -0.4877,1.49581 0,0 0,0 0,0"
         inkscape:connector-curvature="0" />
      <path
         id="path2145"
         style="font-style:normal;font-variant:normal;font-weight:normal;font-stretch:normal;font-size:12px;font-family:Geneva;-inkscape-font-specification:'Geneva, Normal';font-variant-ligatures:normal;font-variant-caps:normal;font-variant-numeric:normal;font-feature-settings:normal;text-align:start;writing-mode:lr-tb;text-anchor:start;fill:#aad400"
         d="m 650.44953,508.14296 c 0,0 -0.59004,-0.0321 -0.59004,-0.0321 0,0 0.60992,-7.17087 0.60992,-7.17087 0,0 0.6031,0.0321 0.6031,0.0321 0,0 -0.11468,1.3201 -0.11468,1.3201 0.16103,-0.4323 0.30513,-0.74183 0.43208,-0.92787 0.12926,-0.18615 0.26415,-0.3239 0.40461,-0.41311 0.14054,-0.0893 0.2855,-0.12995 0.43481,-0.122 0.14933,0.008 0.28777,0.0637 0.41527,0.16729 0.12784,0.0991 0.2328,0.24529 0.31485,0.43838 0.082,0.19287 0.15037,0.51825 0.20518,0.97537 0.16242,-0.4149 0.31241,-0.71762 0.44977,-0.90754 0.14012,-0.1944 0.27756,-0.33644 0.41227,-0.42599 0.13738,-0.0939 0.27756,-0.13702 0.42048,-0.12941 0.20574,0.011 0.38232,0.11939 0.52961,0.32512 0.14756,0.20112 0.2478,0.4828 0.30075,0.84462 0.055,0.36117 0.0397,0.96802 -0.0455,1.81783 0,0 -0.44565,4.44419 -0.44565,4.44419 0,0 -0.59405,-0.0323 -0.59405,-0.0323 0,0 0.38864,-3.94798 0.38864,-3.94798 0.0834,-0.84726 0.1105,-1.38635 0.081,-1.61422 -0.0274,-0.22806 -0.0807,-0.40324 -0.15984,-0.52536 -0.0766,-0.12644 -0.17859,-0.19309 -0.30592,-0.1999 -0.17913,-0.01 -0.35501,0.0947 -0.52748,0.3125 -0.17183,0.21318 -0.32062,0.5056 -0.44634,0.87683 -0.12544,0.37037 -0.21963,0.89268 -0.28259,1.56551 0,0 -0.32252,3.44686 -0.32252,3.44686 0,0 -0.59046,-0.0322 -0.59046,-0.0322 0,0 0.36222,-3.94801 0.36222,-3.94801 0.0777,-0.84726 0.1034,-1.38623 0.0767,-1.61387 -0.0246,-0.22783 -0.082,-0.40535 -0.17223,-0.53239 -0.0903,-0.12713 -0.19369,-0.19385 -0.31016,-0.20007 -0.16389,-0.009 -0.33607,0.10002 -0.51632,0.32607 -0.17745,0.2215 -0.32813,0.52238 -0.45201,0.9022 -0.12108,0.37472 -0.2097,0.88625 -0.26591,1.53331 0,0 -0.29946,3.44689 -0.29946,3.44689"
         inkscape:connector-curvature="0" />
    </g>
  </g>
</svg>
