<?xml version="1.0" encoding="UTF-8" standalone="no"?>
<!-- Created with Inkscape (http://www.inkscape.org/) -->

<svg
   xmlns:dc="http://purl.org/dc/elements/1.1/"
   xmlns:cc="http://creativecommons.org/ns#"
   xmlns:rdf="http://www.w3.org/1999/02/22-rdf-syntax-ns#"
   xmlns:svg="http://www.w3.org/2000/svg"
   xmlns="http://www.w3.org/2000/svg"
   xmlns:sodipodi="http://sodipodi.sourceforge.net/DTD/sodipodi-0.dtd"
   xmlns:inkscape="http://www.inkscape.org/namespaces/inkscape"
   width="660.89612"
   height="855.69531"
   id="svg3274"
   version="1.1"
   inkscape:version="0.92.3 (2405546, 2018-03-11)"
   sodipodi:docname="tentaculo.svg"
   inkscape:export-filename="/home/salvari/work/graphicsResources/BL/oshwi.png"
   inkscape:export-xdpi="90"
   inkscape:export-ydpi="90">
  <defs
     id="defs3276" />
  <sodipodi:namedview
     id="base"
     pagecolor="#ffffff"
     bordercolor="#666666"
     borderopacity="1.0"
     inkscape:pageopacity="0.0"
     inkscape:pageshadow="2"
     inkscape:zoom="0.70539258"
     inkscape:cx="3.0024304"
     inkscape:cy="339.40878"
     inkscape:document-units="px"
     inkscape:current-layer="layer1"
     showgrid="false"
     inkscape:window-width="1920"
     inkscape:window-height="1080"
     inkscape:window-x="1920"
     inkscape:window-y="0"
     inkscape:window-maximized="1"
     inkscape:document-rotation="0"
     fit-margin-top="20"
     fit-margin-left="20"
     fit-margin-right="20"
     fit-margin-bottom="20" />
  <metadata
     id="metadata3279">
    <rdf:RDF>
      <cc:Work
         rdf:about="">
        <dc:format>image/svg+xml</dc:format>
        <dc:type
           rdf:resource="http://purl.org/dc/dcmitype/StillImage" />
        <dc:title></dc:title>
      </cc:Work>
    </rdf:RDF>
  </metadata>
  <g
     inkscape:label="Layer 1"
     inkscape:groupmode="layer"
     id="layer1"
     transform="translate(777.09481,-75.943098)">
    <path
       stroke-miterlimit="10"
       d="m -683.85352,632.32227 c -13.23351,13.58076 24.13265,-6.83975 -4.99704,4.56345 -9.62314,3.76757 -21.1539,8.6484 -25.62305,10.84657 -19.13998,9.41569 -30.49357,22.03201 -37.13191,41.26347 -5.64039,16.33621 -2.88945,31.28471 7.84824,42.63701 9.81512,10.37949 23.18263,12.70523 35.40274,6.16031 2.59439,-1.389 7.43978,-5.26995 10.76732,-8.62069 4.23272,-4.26557 6.72531,-6.09652 8.29406,-6.09652 3.47508,0 7.05001,-1.65057 10.24226,-4.73137 5.68936,-5.48513 6.03146,-12.59054 0.88971,-18.44741 -3.50214,-3.98918 -7.38051,-5.71513 -12.84245,-5.71513 -11.56619,0 -19.12259,11.12295 -14.10131,20.75383 1.05463,2.02422 1.91857,3.87193 1.91857,4.10257 0,0.23064 -1.49659,2.07577 -3.32561,4.1 -9.40603,10.41105 -22.37604,10.07089 -29.25081,-0.77052 -11.30334,-17.82443 0.44388,-42.23629 26.70732,-55.49815 2.48229,-1.25306 11.48759,-4.73844 20.01035,-7.7458"
       id="path14"
       inkscape:connector-curvature="0"
       style="fill:#34aacd;stroke:#010202;stroke-width:0.13168439;stroke-miterlimit:10"
       sodipodi:nodetypes="cccccccsccscscccc" />
    <path
       d="m -436.22913,273.8169 c 20.76027,27.56675 30.71326,63.13829 23.58916,98.70402"
       id="path33"
       inkscape:connector-curvature="0"
       style="fill:none;stroke-width:0.64424849" />
    <path
       style="stroke:#010202;stroke-width:0.13155554;stroke-miterlimit:10"
       d="m -683.85352,632.32227 c -32.69884,12.83858 -36.57039,14.70461 -46.95117,22.625 -7.00491,5.34404 -11.7931,10.69744 -16.375,18.30859 -4.17022,6.92567 -8.18497,17.66258 -9.36523,25.05469 -2.70134,16.90766 6.14842,35.21117 20.5332,42.45703 4.58705,2.31221 5.97667,3.15381 13.14844,3.16601 7.44236,0.0116 8.87121,-0.77886 14.5625,-3.57812 4.01624,-1.97591 8.26561,-5.10025 11.96875,-8.80274 3.15875,-3.15811 6.29289,-5.74218 6.96484,-5.74218 2.70778,0 9.25244,-2.92209 11.70703,-5.22657 7.11701,-6.68279 6.82956,-17.77216 -0.6289,-24.32031 -11.37292,-9.98585 -30.65969,-2.53992 -30.80078,11.88867 -0.0251,2.67686 0.61598,5.85122 1.55078,7.66993 l 1.59765,3.10742 -3.35351,3.42969 c -8.68962,8.90286 -20.12495,7.50679 -25.80078,-3.14844 -1.65572,-3.10592 -2.66883,-5.13023 -2.67383,-11.80078 -0.005,-7.0906 0.96871,-8.89464 3.1875,-13.41211 3.18323,-6.48436 7.45857,-11.63823 14.02539,-16.90625 7.20592,-5.78084 15.64991,-9.93187 31.28711,-15.38672 5.41601,-29.38281 5.41601,-29.38281 5.41601,-29.38281 z m -5.19107,26.80079 c -8.52276,3.00736 -17.52748,6.49303 -20.00977,7.74609 -26.26344,13.26186 -38.01232,37.67362 -26.70898,55.49805 6.87478,10.84141 19.84592,11.18058 29.25195,0.76953 1.82902,-2.02423 3.32422,-3.86897 3.32422,-4.09961 0,-0.23064 -0.86334,-2.07734 -1.91797,-4.10156 -5.02128,-9.63088 2.53537,-20.75391 14.10156,-20.75391 5.46194,0 9.33966,1.72566 12.8418,5.71484 5.14175,5.85687 4.80069,12.96214 -0.88867,18.44727 -3.19225,3.0808 -6.76711,4.73047 -10.24219,4.73047 -1.56875,0 -4.0622,1.83208 -8.29492,6.09766 -3.32754,3.35073 -8.17319,7.23209 -10.76758,8.62109 -12.22011,6.54492 -25.58721,4.21738 -35.40234,-6.16211 -10.73769,-11.3523 -13.48806,-26.30051 -7.84766,-42.63672 6.63833,-19.23146 17.99088,-31.84798 37.13086,-41.26367 4.46915,-2.19817 15.99991,-7.07813 25.62305,-10.8457 4.99771,-4.56251 4.99771,-4.56251 -0.19336,22.23828 z"
       id="path4296"
       inkscape:connector-curvature="0"
       sodipodi:nodetypes="ccccccccsccccccccccccccccscsccsccccccc" />
    <path
       style="fill:none;stroke-width:0.64424849"
       inkscape:connector-curvature="0"
       id="path4318"
       d="m -436.22929,273.81593 c 20.76027,27.56675 30.71326,63.13829 23.58916,98.70402" />
  </g>
</svg>
