<?xml version="1.0" encoding="UTF-8" standalone="no"?>
<!-- Created with Inkscape (http://www.inkscape.org/) -->

<svg
   xmlns:dc="http://purl.org/dc/elements/1.1/"
   xmlns:cc="http://creativecommons.org/ns#"
   xmlns:rdf="http://www.w3.org/1999/02/22-rdf-syntax-ns#"
   xmlns:svg="http://www.w3.org/2000/svg"
   xmlns="http://www.w3.org/2000/svg"
   xmlns:sodipodi="http://sodipodi.sourceforge.net/DTD/sodipodi-0.dtd"
   xmlns:inkscape="http://www.inkscape.org/namespaces/inkscape"
   width="68.131287mm"
   height="55.608604mm"
   viewBox="0 0 68.131287 55.608604"
   version="1.1"
   id="svg4619"
   inkscape:version="0.92.2 (5c3e80d, 2017-08-06)"
   sodipodi:docname="adera1.svg">
  <defs
     id="defs4613" />
  <sodipodi:namedview
     id="base"
     pagecolor="#ffffff"
     bordercolor="#666666"
     borderopacity="1.0"
     inkscape:pageopacity="0.0"
     inkscape:pageshadow="2"
     inkscape:zoom="0.98994949"
     inkscape:cx="-12.067979"
     inkscape:cy="-159.60072"
     inkscape:document-units="mm"
     inkscape:current-layer="layer1"
     showgrid="false"
     fit-margin-top="0"
     fit-margin-left="0"
     fit-margin-right="0"
     fit-margin-bottom="0"
     inkscape:window-width="1920"
     inkscape:window-height="1016"
     inkscape:window-x="0"
     inkscape:window-y="27"
     inkscape:window-maximized="1" />
  <metadata
     id="metadata4616">
    <rdf:RDF>
      <cc:Work
         rdf:about="">
        <dc:format>image/svg+xml</dc:format>
        <dc:type
           rdf:resource="http://purl.org/dc/dcmitype/StillImage" />
        <dc:title />
      </cc:Work>
    </rdf:RDF>
  </metadata>
  <g
     inkscape:label="Capa 1"
     inkscape:groupmode="layer"
     id="layer1"
     transform="translate(-13.559356,-44.67784)">
    <path
       style="fill:#515370;stroke-width:0.26458332;stroke:#515370;stroke-opacity:1;fill-opacity:1"
       d="m 78.919379,93.563152 c -0.13388,-0.0113 -0.27393,0.023 -0.42117,0.10181 -0.29838,0.15969 -1.23269,1.43053 -2.07584,2.82411 -0.84316,1.39359 -1.63291,2.59576 -1.75493,2.67116 -0.122,0.0754 -0.21843,0.39792 -0.21343,0.71675 0.008,0.564558 0.0237,0.561438 0.59532,-0.11007 0.32282,-0.37923 0.7065,-0.89522 0.85266,-1.1467 0.20249,-0.34841 0.72097,-0.48257 2.17816,-0.56327 l 1.91255,-0.10594 0.43821,0.85576 c 0.4781,0.93315 0.88101,1.292328 1.21698,1.08469 0.11872,-0.0734 -0.0184,-0.46275 -0.30489,-0.86506 -0.28647,-0.4023 -0.71475,-1.5828 -0.95136,-2.6231 -0.42843,-1.88359 -0.89212,-2.79124 -1.47226,-2.84014 z m -0.0842,1.73582 c 0.34727,-0.002 0.90227,1.14401 0.90227,1.86293 0,0.5192 -0.25351,0.5739 -1.52135,0.3297 -0.32742,-0.0631 -0.59531,-0.21592 -0.59531,-0.33952 0,-0.4337 0.92917,-1.85111 1.21439,-1.85311 z"
       id="path4577"
       inkscape:connector-curvature="0" />
    <path
       style="fill:#515370;stroke-width:0.26458332;stroke:#515370;stroke-opacity:1;fill-opacity:1"
       d="m 44.018727,99.856422 c -1.611131,-0.49629 -1.298111,-3.44967 0.608827,-5.7443 0.610497,-0.73462 0.701077,-0.76346 1.333964,-0.42475 0.462537,0.24755 1.125661,0.31243 2.080068,0.20355 1.661768,-0.18959 1.219171,0.17952 -0.739207,0.61646 -2.838215,0.63326 -3.255912,1.7666 -0.546717,1.48343 1.189924,-0.12437 1.528401,-0.0907 1.307644,0.13005 -0.43583,0.43584 -2.504398,0.75706 -3.037575,0.47171 -0.343827,-0.18401 -0.527337,-0.10983 -0.747924,0.30234 -0.754417,1.40965 0.341797,2.32709 1.709638,1.43084 0.778477,-0.51007 0.850457,-0.36415 0.26277,0.53276 -0.447637,0.68319 -1.591931,1.194918 -2.231488,0.99791 z"
       id="path4573"
       inkscape:connector-curvature="0" />
    <path
       style="fill:#515370;stroke-width:0.26458332;stroke:#515370;stroke-opacity:1;fill-opacity:1"
       d="m 17.639107,93.179722 c -0.349257,-0.032 -0.768514,0.25301 -1.083134,0.83664 -0.247897,0.45984 -1.016154,1.47343 -1.707381,2.25205 -1.119984,1.26155 -1.630181,2.46807 -1.043854,2.46807 0.11698,0 0.605787,-0.40552 1.086744,-0.90175 0.785907,-0.81086 0.952234,-0.87527 1.639691,-0.63562 0.675817,0.23561 0.764807,0.39285 0.764807,1.35185 0,0.61811 0.0969,0.9772 0.225307,0.83406 0.33774,-0.37663 0.913377,-4.78977 0.723467,-5.54643 -0.1047,-0.41714 -0.334007,-0.63396 -0.605647,-0.65887 z m -0.261997,2.39985 c 0.143697,-0.0106 0.120877,0.10149 0.0145,0.37879 -0.0838,0.21828 -0.31819,0.39687 -0.520897,0.39687 -0.50121,0 -0.46678,-0.43467 0.0501,-0.63303 0.22408,-0.086 0.37008,-0.13629 0.4563,-0.14263 z"
       id="path4571"
       inkscape:connector-curvature="0" />
    <path
       style="fill:#515370;stroke-width:0.26458332;stroke:#515370;stroke-opacity:1;fill-opacity:1"
       d="m 32.272233,93.180232 c -0.854384,0 -0.932094,0.091 -2.143008,2.49856 l -1.256761,2.49804 0.760154,0.66869 c 0.41808,0.36762 0.879217,0.67034 1.024734,0.67334 0.514477,0.01 2.733195,-2.82056 3.056135,-3.89847 0.443197,-1.47924 -0.12406,-2.44016 -1.441254,-2.44016 z m 0.002,0.92243 c 0.11364,-0.007 0.20957,0.0776 0.35191,0.24908 0.388567,0.4682 0.210457,1.11768 -0.759637,2.76882 -0.715884,1.21846 -1.605581,1.76351 -1.605581,0.98392 0,-0.73301 1.058644,-3.25503 1.554931,-3.70417 0.21314,-0.19288 0.34473,-0.29082 0.458377,-0.29765 z"
       id="path4567"
       inkscape:connector-curvature="0" />
    <path
       style="fill:#515370;stroke-width:0.26458332;stroke:#515370;stroke-opacity:1;fill-opacity:1"
       d="m 64.493559,98.188532 c -1.665577,-1.43225 -1.914197,-1.85487 -1.303637,-2.21609 0.25885,-0.15314 0.72442,-0.47795 1.03459,-0.7218 0.526327,-0.4138 0.532157,-0.45574 0.0875,-0.62879 -0.552786,-0.21512 -1.508906,0.56879 -2.437106,1.99819 -0.33073,0.50932 -0.86965,1.20761 -1.19758,1.55175 -0.51865,0.54426 -0.62666,0.57137 -0.82987,0.20825 -0.25351,-0.45299 0.30237,-2.08917 0.81806,-2.40788 0.16313,-0.10083 0.59583,-0.7738 0.96154,-1.49549 l 0.66493,-1.31218 1.38056,0.15626 c 2.389976,0.27053 2.571156,0.34364 2.571156,1.03754 0,0.39119 -0.19149,0.69937 -0.49427,0.79547 -0.27185,0.0863 -0.69806,0.38206 -0.94713,0.65728 -0.540736,0.59753 -0.24333,1.37846 0.88005,2.31061 0.51281,0.42551 0.61676,0.65414 0.39875,0.87698 -0.21936,0.2242 -0.62603,0.0167 -1.5875,-0.8101 z"
       id="path4563"
       inkscape:connector-curvature="0" />
    <path
       style="fill:#f2dacc;fill-rule:evenodd;stroke:#f2dacc;stroke-width:0.1;stroke-linecap:butt;stroke-linejoin:miter;stroke-miterlimit:4;stroke-dasharray:none;stroke-opacity:1;fill-opacity:1"
       d="m 48.917581,44.727939 c -0.219691,-0.0018 -0.424624,0.02103 -0.61133,0.07338 -1.557261,0.658593 -3.098012,2.239548 -4.30258,2.762623 -0.970719,0.32262 -6.744835,3.468669 -8.398455,5.642034 -1.417388,1.653643 -1.086392,2.881925 -1.606102,6.425445 -0.519721,1.03944 -2.59874,0.99233 -2.504242,2.17351 0.0945,1.18117 0.755735,2.59814 0.708485,4.0628 -0.0473,1.46466 -0.850429,4.48891 -0.330729,5.85908 0.519719,1.37016 3.874405,6.99219 4.157885,8.45685 0.28348,1.46464 2.230596,5.432151 3.921726,6.898281 0.613709,0.46387 0.659807,0.65435 1.653127,0.66146 6.00978,-0.33747 16.784576,-4.028101 20.269046,-6.331401 1.46465,-1.55914 2.22076,-3.07068 2.17351,-3.82664 -0.0473,-0.75594 -0.80349,-2.03162 -0.709,-2.97656 0.0945,-1.14573 0.80313,-1.61851 1.889807,-2.36264 0.75596,-0.51972 0.18752,-5.36244 0.20102,-6.16552 0.0236,-1.4056 1.5119,-6.23661 1.81901,-8.10286 0.35434,-1.97257 -2.988447,-3.933396 -3.484537,-5.05551 -0.5144,-1.163527 -1.18117,-5.575372 -2.64584,-5.906101 -1.46465,-0.330729 -4.038516,0.260303 -5.491648,0.136427 -1.112504,-0.09484 -4.585451,-2.407528 -6.709153,-2.424658 z m 0.411345,3.283003 c 0.29105,0.0086 0.575654,0.06401 0.849046,0.167949 1.032443,0.39252 1.267729,1.267267 1.074351,3.991486 -0.24688,3.478167 0.508243,4.099624 2.460831,2.024684 1.745451,-1.854827 4.603298,-2.26922 5.561938,-0.806153 0.68198,1.04082 -0.074,2.586703 -2.302187,4.707203 -2.718567,2.58723 -2.444631,3.53852 0.784967,2.72387 2.77084,-0.69892 3.85329,-0.80234 4.54804,-0.43615 0.85673,0.45158 1.01819,0.75049 1.02319,1.89136 0.005,1.21423 -0.36073,1.49145 -3.65611,2.7683 -1.35822,0.52627 -2.53827,1.1364 -2.622574,1.35599 -0.23372,0.60907 0.686674,1.11635 2.033984,1.12035 1.50657,0.005 2.44928,0.46685 2.76107,1.3534 0.5885,1.67341 -0.41298,2.68252 -4.02404,4.05402 -1.067017,0.40527 -2.239047,0.9941 -2.604492,1.30845 -0.904566,0.77809 -1.160476,2.38392 -0.868164,5.45083 0.359637,3.77317 0.397632,3.58899 -0.838192,4.08347 -0.993106,0.39737 -5.696881,1.203271 -6.978386,1.195271 -0.291036,-0.002 -0.729371,-0.11975 -0.9741,-0.26251 -0.491988,-0.287011 -1.476275,-2.700791 -3.079917,-7.551481 -0.747823,-2.26203 -1.140044,-4.02201 -1.341003,-6.01875 -0.334759,-3.32617 -0.942049,-4.73375 -2.815847,-6.52725 -2.455685,-2.35045 -3.117265,-5.15539 -1.855184,-7.86619 0.695595,-1.494081 1.896533,-2.449531 3.080948,-2.451529 0.689494,-9.81e-4 2.884062,1.385956 2.884062,1.822629 0,0.12788 0.31134,0.43636 0.691946,0.68574 1.018334,0.66725 1.373225,0.14166 1.701705,-2.519222 0.413507,-3.349596 0.667221,-4.058513 1.826247,-5.10563 0.871876,-0.787691 1.804738,-1.185836 2.677871,-1.160137 z m 0.625285,0.983919 c -0.258519,0 -0.957914,0.509177 -1.553909,1.131197 -1.013394,1.05764 -1.105799,1.284893 -1.426786,3.505729 -0.422572,2.923714 -1.091126,4.531544 -2.032953,4.889624 -1.079309,0.41036 -1.908122,0.0471 -3.090767,-1.35547 -0.682734,-0.80969 -1.30165,-1.291913 -1.659329,-1.291913 -1.044364,0 -2.786393,2.399513 -2.786393,3.838013 0,0.45966 0.520647,1.2942 1.564761,2.50734 2.318565,2.69391 2.829425,3.74444 3.870047,7.96127 1.786181,7.23793 3.078676,11.75654 3.495911,12.22199 0.230137,0.25674 0.606912,0.41243 0.83716,0.34623 0.230248,-0.0662 0.894837,-0.23848 1.476912,-0.38292 0.582086,-0.14443 1.744639,-0.34389 2.583304,-0.44338 0.838655,-0.0995 1.583815,-0.2764 1.655713,-0.39274 0.0719,-0.11634 0.15952,-1.92325 0.19482,-4.01578 0.0522,-3.09642 0.149797,-3.93547 0.525034,-4.50774 0.544907,-0.83103 2.130034,-1.79861 4.221966,-2.57658 1.41897,-0.52771 2.15432,-1.32446 1.66915,-1.80919 -0.0983,-0.0982 -1.04917,-0.1788 -2.11305,-0.1788 -1.530833,0 -2.050517,-0.10494 -2.491323,-0.50385 -1.446054,-1.30849 0.07977,-3.13359 3.676263,-4.39715 0.94589,-0.33231 1.95427,-0.82331 2.24069,-1.0914 0.49532,-0.46362 0.49794,-0.51032 0.0589,-0.9493 -0.43899,-0.43899 -0.54158,-0.43081 -2.10788,0.15865 -3.243913,1.22082 -4.722783,1.01274 -5.240509,-0.73743 -0.480057,-1.6228 0.11344,-2.78856 2.336808,-4.5899 1.930951,-1.564448 2.610521,-2.675161 1.903761,-3.111951 -0.5941,-0.367191 -1.771356,0.465278 -3.164149,2.237589 -1.436092,1.827392 -2.240248,2.226542 -3.38274,1.678972 -1.339654,-0.64207 -1.576425,-2.400594 -0.945163,-7.016631 0.131101,-0.958649 0.08447,-1.124479 -0.316259,-1.124479 z"
       id="path3712"
       inkscape:connector-curvature="0" />
    <path
       style="fill:#515370;fill-opacity:1;fill-rule:evenodd;stroke:#515270;stroke-width:0.1;stroke-linecap:butt;stroke-linejoin:miter;stroke-miterlimit:4;stroke-dasharray:none;stroke-opacity:1"
       d="m 61.861999,47.584611 c 0.148521,0.200434 0.28685,0.442944 0.41548,0.713652 -0.128627,-0.270708 -0.266962,-0.513218 -0.41548,-0.713652 z m -12.533085,0.426331 c -0.87313,-0.0257 -1.805993,0.372445 -2.677872,1.160136 -1.15902,1.047117 -1.412745,1.756035 -1.826244,5.105631 -0.32848,2.660882 -0.683366,3.186476 -1.701705,2.519226 -0.3806,-0.24938 -0.691949,-0.557866 -0.691949,-0.685746 0,-0.436673 -2.194562,-1.823609 -2.884061,-1.822628 -1.18441,0.002 -2.385359,0.957449 -3.080949,2.45153 -1.262089,2.7108 -0.600506,5.515737 1.855185,7.866186 1.8738,1.793501 2.481087,3.201081 2.815849,6.52725 0.200959,1.996741 0.593182,3.756726 1.341003,6.018754 1.60364,4.850691 2.587924,7.264466 3.079914,7.551478 0.244729,0.142759 0.683062,0.260517 0.974101,0.262515 1.281501,0.008 5.985285,-0.797904 6.978385,-1.195274 1.235829,-0.49448 1.197833,-0.310303 0.838192,-4.083473 -0.292309,-3.06691 -0.03641,-4.67274 0.868164,-5.45083 0.36544,-0.314348 1.537473,-0.903176 2.604493,-1.308446 3.611059,-1.3715 4.612544,-2.380607 4.024042,-4.054017 -0.311787,-0.88655 -1.2545,-1.348406 -2.76107,-1.353406 -1.347311,-0.004 -2.267704,-0.511275 -2.033984,-1.120345 0.0843,-0.21959 1.264359,-0.829719 2.622579,-1.355989 3.29538,-1.27685 3.661106,-1.554077 3.656108,-2.768307 -0.005,-1.14087 -0.166466,-1.439777 -1.023194,-1.891357 -0.694751,-0.36619 -1.777204,-0.262771 -4.548042,0.436149 -3.229602,0.81465 -3.503525,-0.136635 -0.784966,-2.723865 2.228188,-2.1205 2.984164,-3.666386 2.302184,-4.707206 -0.95864,-1.463067 -3.816484,-1.048674 -5.561933,0.806152 C 51.760554,56.27 51.005433,55.648545 51.25231,52.170378 51.445692,49.446159 51.2104,48.57141 50.177959,48.17889 49.904568,48.074951 49.619966,48.019542 49.328914,48.010942 Z m 0.625287,0.983919 c 0.400759,0 0.447357,0.16583 0.316259,1.124479 -0.631261,4.616037 -0.394488,6.374556 0.945161,7.016626 1.142492,0.54757 1.94665,0.148425 3.38274,-1.678967 1.39279,-1.772311 2.570048,-2.604781 3.164147,-2.23759 0.70676,0.43679 0.02719,1.547507 -1.90376,3.111955 -2.22337,1.80134 -2.816867,2.967101 -2.336807,4.589901 0.517728,1.75017 1.996596,1.958243 5.240506,0.737423 1.566299,-0.589461 1.668891,-0.597637 2.107883,-0.158647 0.439039,0.43898 0.436409,0.485676 -0.05891,0.949296 -0.28642,0.26809 -1.2948,0.759096 -2.24069,1.091406 -3.59646,1.26356 -5.12232,3.088658 -3.676261,4.397148 0.440801,0.39891 0.96049,0.503845 2.491321,0.503845 1.063879,0 2.01475,0.0806 2.113048,0.1788 0.485171,0.484729 -0.250177,1.281482 -1.669148,1.809191 -2.091931,0.77797 -3.677055,1.745557 -4.221964,2.576589 -0.37523,0.57227 -0.472832,1.411314 -0.525034,4.507733 -0.0353,2.092531 -0.12292,3.899437 -0.194818,4.015777 -0.0719,0.11634 -0.817065,0.29324 -1.655715,0.392739 -0.838668,0.09949 -2.001213,0.298956 -2.583304,0.443387 -0.58207,0.144438 -1.246661,0.316722 -1.476912,0.38292 -0.230251,0.0662 -0.607018,-0.08949 -0.837158,-0.346231 -0.417229,-0.465449 -1.709732,-4.984064 -3.49591,-12.221993 -1.040622,-4.21683 -1.55148,-5.267361 -3.87005,-7.961271 -1.044109,-1.21314 -1.564762,-2.047681 -1.564762,-2.507341 0,-1.4385 1.742025,-3.838008 2.786393,-3.838008 0.357669,0 0.976601,0.48222 1.659332,1.291911 1.182648,1.402569 2.011455,1.765832 3.090767,1.355472 0.94183,-0.35808 1.610381,-1.96591 2.03295,-4.889624 0.32099,-2.220836 0.413396,-2.448089 1.426787,-3.505729 0.596,-0.62202 1.295389,-1.131197 1.553911,-1.131197 z"
       id="path39"
       inkscape:connector-curvature="0" />
  </g>
</svg>
