<?xml version="1.0" encoding="UTF-8" standalone="no"?>
<!-- Created with Inkscape (http://www.inkscape.org/) -->

<svg
   xmlns:dc="http://purl.org/dc/elements/1.1/"
   xmlns:cc="http://creativecommons.org/ns#"
   xmlns:rdf="http://www.w3.org/1999/02/22-rdf-syntax-ns#"
   xmlns:svg="http://www.w3.org/2000/svg"
   xmlns="http://www.w3.org/2000/svg"
   xmlns:sodipodi="http://sodipodi.sourceforge.net/DTD/sodipodi-0.dtd"
   xmlns:inkscape="http://www.inkscape.org/namespaces/inkscape"
   version="1.1"
   id="svg2"
   xml:space="preserve"
   width="113.38706"
   height="42.526531"
   viewBox="0 0 113.38707 42.526531"
   sodipodi:docname="amtega [Converted].svg"
   inkscape:version="0.92.2 (5c3e80d, 2017-08-06)"><metadata
     id="metadata8"><rdf:RDF><cc:Work
         rdf:about=""><dc:format>image/svg+xml</dc:format><dc:type
           rdf:resource="http://purl.org/dc/dcmitype/StillImage" /><dc:title></dc:title></cc:Work></rdf:RDF></metadata><defs
     id="defs6"><clipPath
       clipPathUnits="userSpaceOnUse"
       id="clipPath26"><path
         d="M 0,56.692 H 113.386 V 0 H 0 Z"
         id="path24"
         inkscape:connector-curvature="0" /></clipPath></defs><sodipodi:namedview
     pagecolor="#ffffff"
     bordercolor="#666666"
     borderopacity="1"
     objecttolerance="10"
     gridtolerance="10"
     guidetolerance="10"
     inkscape:pageopacity="0"
     inkscape:pageshadow="2"
     inkscape:window-width="1304"
     inkscape:window-height="788"
     id="namedview4"
     showgrid="false"
     fit-margin-top="0"
     fit-margin-left="0"
     fit-margin-right="0"
     fit-margin-bottom="0"
     inkscape:zoom="2.6855167"
     inkscape:cx="8.0994675"
     inkscape:cy="21.261867"
     inkscape:window-x="0"
     inkscape:window-y="0"
     inkscape:window-maximized="0"
     inkscape:current-layer="g10" /><g
     id="g10"
     inkscape:groupmode="layer"
     inkscape:label="amtega [Converted]"
     transform="matrix(1.3333333,0,0,-1.3333333,-18.8972,59.059599)"><g
       id="g12"
       transform="translate(15.1519,25.1758)"><path
         d="M 0,0 -0.197,-0.494 H -0.979 L 0.112,2.344 H 0.917 L 1.985,-0.494 H 1.2 L 1.015,0 Z M 0.515,1.468 H 0.507 L 0.202,0.564 h 0.613 z"
         style="fill:#181817;fill-opacity:1;fill-rule:nonzero;stroke:none"
         id="path14"
         inkscape:connector-curvature="0" /></g><g
       id="g16"
       transform="translate(17.2427,26.6133)"><path
         d="M 0,0 H 0.869 L 1.216,-0.399 1.562,0 H 2.446 L 1.648,-0.885 2.611,-1.932 H 1.712 L 1.216,-1.358 0.719,-1.932 h -0.9 l 0.963,1.047 z"
         style="fill:#181817;fill-opacity:1;fill-rule:nonzero;stroke:none"
         id="path18"
         inkscape:connector-curvature="0" /></g><g
       id="g20"><g
         id="g22"
         clip-path="url(#clipPath26)"><g
           id="g28"
           transform="translate(21.999,25.5332)"><path
             d="m 0,0 h -1.44 c 0,-0.278 0.146,-0.429 0.428,-0.429 0.146,0 0.253,0.049 0.326,0.178 h 0.659 c -0.053,-0.226 -0.186,-0.392 -0.365,-0.501 -0.177,-0.108 -0.394,-0.162 -0.617,-0.162 -0.638,0 -1.116,0.36 -1.116,1.025 0,0.645 0.439,1.033 1.068,1.033 C -0.387,1.144 0,0.729 0,0.072 Z M -0.635,0.396 C -0.67,0.579 -0.839,0.7 -1.022,0.7 c -0.2,0 -0.366,-0.104 -0.407,-0.304 z"
             style="fill:#181817;fill-opacity:1;fill-rule:nonzero;stroke:none"
             id="path30"
             inkscape:connector-curvature="0" /></g><g
           id="g32"
           transform="translate(22.9883,26.3643)"><path
             d="m 0,0 h 0.008 c 0.158,0.233 0.35,0.312 0.618,0.312 0.519,0 0.725,-0.326 0.725,-0.801 V -1.68 H 0.666 v 0.94 c 0,0.183 0.029,0.508 -0.308,0.508 C 0.081,-0.232 0,-0.439 0,-0.682 V -1.68 H -0.684 V 0.249 H 0 Z"
             style="fill:#181817;fill-opacity:1;fill-rule:nonzero;stroke:none"
             id="path34"
             inkscape:connector-curvature="0" /></g><g
           id="g36"
           transform="translate(26.1738,25.9854)"><path
             d="m 0,0 c -0.102,0.075 -0.22,0.136 -0.352,0.136 -0.264,0 -0.469,-0.204 -0.469,-0.471 0,-0.278 0.197,-0.475 0.481,-0.475 0.12,0 0.252,0.049 0.34,0.133 v -0.579 c -0.149,-0.075 -0.315,-0.111 -0.481,-0.111 -0.57,0 -1.047,0.426 -1.047,1.009 0,0.622 0.473,1.049 1.078,1.049 0.158,0 0.315,-0.037 0.45,-0.112 z"
             style="fill:#181817;fill-opacity:1;fill-rule:nonzero;stroke:none"
             id="path38"
             inkscape:connector-curvature="0" /></g><g
           id="g40"
           transform="translate(27.3188,27.3545)"><path
             d="m 0,0 c 0,-0.21 -0.171,-0.384 -0.382,-0.384 -0.212,0 -0.385,0.174 -0.385,0.384 0,0.211 0.173,0.383 0.385,0.383 C -0.171,0.383 0,0.211 0,0 m -0.041,-2.671 h -0.684 v 1.93 h 0.684 z"
             style="fill:#181817;fill-opacity:1;fill-rule:nonzero;stroke:none"
             id="path42"
             inkscape:connector-curvature="0" /></g><g
           id="g44"
           transform="translate(29.8335,24.6836)"><path
             d="m 0,0 h -0.686 v 0.214 h -0.007 c -0.12,-0.193 -0.357,-0.279 -0.582,-0.279 -0.574,0 -0.975,0.478 -0.975,1.032 0,0.554 0.395,1.026 0.966,1.026 0.222,0 0.456,-0.083 0.598,-0.251 V 1.93 H 0 Z m -1.543,0.961 c 0,-0.243 0.162,-0.431 0.439,-0.431 0.28,0 0.44,0.188 0.44,0.431 0,0.238 -0.16,0.438 -0.44,0.438 -0.277,0 -0.439,-0.2 -0.439,-0.438"
             style="fill:#181817;fill-opacity:1;fill-rule:nonzero;stroke:none"
             id="path46"
             inkscape:connector-curvature="0" /></g><g
           id="g48"
           transform="translate(32.2251,26.3955)"><path
             d="m 0,0 h 0.007 c 0.125,0.192 0.36,0.281 0.583,0.281 0.578,0 0.976,-0.481 0.976,-1.034 0,-0.557 -0.396,-1.021 -0.967,-1.021 -0.222,0 -0.452,0.077 -0.599,0.247 V -2.676 H -0.686 V 0.218 H 0 Z m -0.021,-0.749 c 0,-0.246 0.162,-0.434 0.439,-0.434 0.279,0 0.44,0.188 0.44,0.434 0,0.238 -0.161,0.437 -0.44,0.437 -0.277,0 -0.439,-0.199 -0.439,-0.437"
             style="fill:#181817;fill-opacity:1;fill-rule:nonzero;stroke:none"
             id="path50"
             inkscape:connector-curvature="0" /></g><g
           id="g52"
           transform="translate(36.2324,24.6836)"><path
             d="m 0,0 h -0.685 v 0.214 h -0.008 c -0.12,-0.193 -0.356,-0.279 -0.582,-0.279 -0.572,0 -0.974,0.478 -0.974,1.032 0,0.554 0.394,1.026 0.966,1.026 0.222,0 0.456,-0.083 0.598,-0.251 V 1.93 H 0 Z m -1.543,0.961 c 0,-0.243 0.164,-0.431 0.44,-0.431 0.279,0 0.442,0.188 0.442,0.431 0,0.238 -0.163,0.438 -0.442,0.438 -0.276,0 -0.44,-0.2 -0.44,-0.438"
             style="fill:#181817;fill-opacity:1;fill-rule:nonzero;stroke:none"
             id="path54"
             inkscape:connector-curvature="0" /></g><g
           id="g56"
           transform="translate(37.3657,26.2969)"><path
             d="M 0,0 H 0.007 C 0.14,0.237 0.364,0.342 0.631,0.342 H 0.764 V -0.315 C 0.669,-0.263 0.579,-0.252 0.474,-0.252 0.095,-0.252 0,-0.504 0,-0.834 V -1.615 H -0.685 V 0.316 H 0 Z"
             style="fill:#181817;fill-opacity:1;fill-rule:nonzero;stroke:none"
             id="path58"
             inkscape:connector-curvature="0" /></g><g
           id="g60"
           transform="translate(40.4897,24.6836)"><path
             d="m 0,0 h -0.686 v 0.214 h -0.008 c -0.119,-0.193 -0.357,-0.279 -0.582,-0.279 -0.572,0 -0.974,0.478 -0.974,1.032 0,0.554 0.396,1.026 0.965,1.026 0.223,0 0.457,-0.083 0.599,-0.251 V 1.93 H 0 Z m -1.544,0.961 c 0,-0.243 0.161,-0.431 0.44,-0.431 0.277,0 0.441,0.188 0.441,0.431 0,0.238 -0.164,0.438 -0.441,0.438 -0.279,0 -0.44,-0.2 -0.44,-0.438"
             style="fill:#181817;fill-opacity:1;fill-rule:nonzero;stroke:none"
             id="path62"
             inkscape:connector-curvature="0" /></g><g
           id="g64"
           transform="translate(44.3291,24.6836)"><path
             d="m 0,0 h -0.684 v 0.214 h -0.007 c -0.121,-0.193 -0.356,-0.279 -0.583,-0.279 -0.573,0 -0.974,0.478 -0.974,1.032 0,0.554 0.394,1.026 0.966,1.026 0.222,0 0.456,-0.083 0.598,-0.251 V 1.93 H 0 Z m -1.542,0.961 c 0,-0.243 0.161,-0.431 0.441,-0.431 0.277,0 0.439,0.188 0.439,0.431 0,0.238 -0.162,0.438 -0.439,0.438 -0.28,0 -0.441,-0.2 -0.441,-0.438"
             style="fill:#181817;fill-opacity:1;fill-rule:nonzero;stroke:none"
             id="path66"
             inkscape:connector-curvature="0" /></g><g
           id="g68"
           transform="translate(14.7417,23.4434)"><path
             d="M 0,0 H 0.726 L 1.302,-1.516 1.91,0 H 2.645 L 3.072,-2.838 H 2.336 L 2.129,-1.204 H 2.122 L 1.439,-2.838 H 1.147 L 0.496,-1.204 H 0.489 L 0.252,-2.838 h -0.733 z"
             style="fill:#181817;fill-opacity:1;fill-rule:nonzero;stroke:none"
             id="path70"
             inkscape:connector-curvature="0" /></g><g
           id="g72"
           transform="translate(20.2871,21.5703)"><path
             d="m 0,0 c 0,-0.655 -0.542,-1.028 -1.163,-1.028 -0.616,0 -1.163,0.369 -1.163,1.028 0,0.658 0.543,1.03 1.163,1.03 C -0.542,1.03 0,0.658 0,0 m -1.602,0 c 0,-0.243 0.162,-0.434 0.439,-0.434 0.28,0 0.439,0.191 0.439,0.434 0,0.238 -0.159,0.436 -0.439,0.436 C -1.44,0.436 -1.602,0.238 -1.602,0"
             style="fill:#181817;fill-opacity:1;fill-rule:nonzero;stroke:none"
             id="path74"
             inkscape:connector-curvature="0" /></g><g
           id="g76"
           transform="translate(22.0405,20.8213)"><path
             d="m 0,0 h -0.008 c -0.12,-0.192 -0.356,-0.279 -0.584,-0.279 -0.57,0 -0.972,0.479 -0.972,1.032 0,0.553 0.394,1.026 0.967,1.026 0.222,0 0.455,-0.082 0.597,-0.252 V 2.908 H 0.685 V -0.214 H 0 Z m -0.86,0.749 c 0,-0.243 0.164,-0.434 0.442,-0.434 0.278,0 0.44,0.191 0.44,0.434 0,0.236 -0.162,0.437 -0.44,0.437 -0.278,0 -0.442,-0.201 -0.442,-0.437"
             style="fill:#181817;fill-opacity:1;fill-rule:nonzero;stroke:none"
             id="path78"
             inkscape:connector-curvature="0" /></g><g
           id="g80"
           transform="translate(25.1294,21.457)"><path
             d="m 0,0 h -1.442 c 0,-0.278 0.149,-0.429 0.429,-0.429 0.148,0 0.253,0.049 0.328,0.176 h 0.658 c -0.055,-0.224 -0.186,-0.39 -0.365,-0.499 -0.177,-0.109 -0.393,-0.163 -0.616,-0.163 -0.64,0 -1.117,0.362 -1.117,1.029 0,0.642 0.439,1.03 1.068,1.03 C -0.388,1.144 0,0.73 0,0.071 Z M -0.636,0.395 C -0.669,0.579 -0.839,0.7 -1.024,0.7 -1.225,0.7 -1.388,0.595 -1.43,0.395 Z"
             style="fill:#181817;fill-opacity:1;fill-rule:nonzero;stroke:none"
             id="path82"
             inkscape:connector-curvature="0" /></g><g
           id="g84"
           transform="translate(26.1187,22.2207)"><path
             d="M 0,0 H 0.008 C 0.141,0.237 0.365,0.342 0.632,0.342 H 0.765 V -0.315 C 0.67,-0.262 0.58,-0.252 0.474,-0.252 0.097,-0.252 0,-0.504 0,-0.835 v -0.78 H -0.683 V 0.316 H 0 Z"
             style="fill:#181817;fill-opacity:1;fill-rule:nonzero;stroke:none"
             id="path86"
             inkscape:connector-curvature="0" /></g><g
           id="g88"
           transform="translate(27.8149,22.2881)"><path
             d="m 0,0 h 0.007 c 0.159,0.233 0.351,0.312 0.619,0.312 0.519,0 0.724,-0.327 0.724,-0.8 V -1.68 H 0.667 v 0.941 c 0,0.182 0.031,0.507 -0.309,0.507 C 0.081,-0.232 0,-0.439 0,-0.681 V -1.68 H -0.684 V 0.249 H 0 Z"
             style="fill:#181817;fill-opacity:1;fill-rule:nonzero;stroke:none"
             id="path90"
             inkscape:connector-curvature="0" /></g><g
           id="g92"
           transform="translate(30.3374,23.2783)"><path
             d="m 0,0 c 0,-0.212 -0.173,-0.384 -0.385,-0.384 -0.209,0 -0.382,0.172 -0.382,0.384 0,0.21 0.173,0.383 0.382,0.383 C -0.173,0.383 0,0.21 0,0 m -0.042,-2.671 h -0.684 v 1.93 h 0.684 z"
             style="fill:#181817;fill-opacity:1;fill-rule:nonzero;stroke:none"
             id="path94"
             inkscape:connector-curvature="0" /></g><g
           id="g96"
           transform="translate(32.5005,21.1748)"><path
             d="M 0,0 V -0.569 H -1.957 L -1.05,0.794 H -1.837 V 1.362 H 0.092 L -0.813,0 Z"
             style="fill:#181817;fill-opacity:1;fill-rule:nonzero;stroke:none"
             id="path98"
             inkscape:connector-curvature="0" /></g><g
           id="g100"
           transform="translate(34.9458,20.6074)"><path
             d="m 0,0 h -0.686 v 0.214 h -0.006 c -0.12,-0.193 -0.358,-0.278 -0.582,-0.278 -0.573,0 -0.974,0.478 -0.974,1.031 0,0.553 0.394,1.026 0.964,1.026 0.222,0 0.458,-0.083 0.598,-0.252 V 1.93 H 0 Z m -1.542,0.961 c 0,-0.243 0.161,-0.433 0.44,-0.433 0.277,0 0.44,0.19 0.44,0.433 0,0.238 -0.163,0.438 -0.44,0.438 -0.279,0 -0.44,-0.2 -0.44,-0.438"
             style="fill:#181817;fill-opacity:1;fill-rule:nonzero;stroke:none"
             id="path102"
             inkscape:connector-curvature="0" /></g><g
           id="g104"
           transform="translate(36.7866,21.9092)"><path
             d="m 0,0 c -0.101,0.075 -0.222,0.136 -0.353,0.136 -0.265,0 -0.472,-0.203 -0.472,-0.471 0,-0.278 0.199,-0.475 0.482,-0.475 0.121,0 0.252,0.049 0.343,0.133 v -0.579 c -0.151,-0.075 -0.317,-0.111 -0.482,-0.111 -0.572,0 -1.049,0.426 -1.049,1.009 0,0.622 0.473,1.049 1.08,1.049 0.157,0 0.314,-0.037 0.451,-0.112 z"
             style="fill:#181817;fill-opacity:1;fill-rule:nonzero;stroke:none"
             id="path106"
             inkscape:connector-curvature="0" /></g><g
           id="g108"
           transform="translate(37.9287,23.2783)"><path
             d="m 0,0 c 0,-0.212 -0.171,-0.384 -0.381,-0.384 -0.212,0 -0.385,0.172 -0.385,0.384 0,0.21 0.173,0.383 0.385,0.383 C -0.171,0.383 0,0.21 0,0 m -0.041,-2.671 h -0.684 v 1.93 h 0.684 z"
             style="fill:#181817;fill-opacity:1;fill-rule:nonzero;stroke:none"
             id="path110"
             inkscape:connector-curvature="0" /></g><g
           id="g112"
           transform="translate(40.5146,21.5703)"><path
             d="m 0,0 c 0,-0.655 -0.542,-1.028 -1.161,-1.028 -0.62,0 -1.165,0.369 -1.165,1.028 0,0.658 0.543,1.03 1.165,1.03 C -0.542,1.03 0,0.658 0,0 m -1.602,0 c 0,-0.243 0.163,-0.434 0.441,-0.434 0.278,0 0.439,0.191 0.439,0.434 0,0.238 -0.161,0.436 -0.439,0.436 -0.278,0 -0.441,-0.198 -0.441,-0.436 m 0.364,1.252 -0.306,0.223 0.533,0.647 0.416,-0.302 z"
             style="fill:#181817;fill-opacity:1;fill-rule:nonzero;stroke:none"
             id="path114"
             inkscape:connector-curvature="0" /></g><g
           id="g116"
           transform="translate(41.5005,22.2881)"><path
             d="m 0,0 h 0.008 c 0.158,0.233 0.349,0.312 0.616,0.312 0.521,0 0.727,-0.327 0.727,-0.8 V -1.68 H 0.665 v 0.941 c 0,0.182 0.032,0.507 -0.308,0.507 C 0.079,-0.232 0,-0.439 0,-0.681 V -1.68 H -0.685 V 0.249 H 0 Z"
             style="fill:#181817;fill-opacity:1;fill-rule:nonzero;stroke:none"
             id="path118"
             inkscape:connector-curvature="0" /></g><g
           id="g120"
           transform="translate(45.7222,20.6074)"><path
             d="M 0,0 H -0.736 V 2.212 H -1.348 V 2.836 H 0.611 V 2.212 H 0 Z"
             style="fill:#181817;fill-opacity:1;fill-rule:nonzero;stroke:none"
             id="path122"
             inkscape:connector-curvature="0" /></g><g
           id="g124"
           transform="translate(48.2798,21.457)"><path
             d="m 0,0 h -1.44 c 0,-0.278 0.146,-0.429 0.429,-0.429 0.148,0 0.252,0.049 0.327,0.176 h 0.658 c -0.052,-0.224 -0.188,-0.39 -0.364,-0.499 -0.176,-0.109 -0.395,-0.163 -0.616,-0.163 -0.642,0 -1.119,0.362 -1.119,1.029 0,0.642 0.441,1.03 1.069,1.03 C -0.388,1.144 0,0.73 0,0.071 Z M -0.634,0.395 C -0.669,0.579 -0.838,0.7 -1.021,0.7 -1.222,0.7 -1.386,0.595 -1.428,0.395 Z"
             style="fill:#181817;fill-opacity:1;fill-rule:nonzero;stroke:none"
             id="path126"
             inkscape:connector-curvature="0" /></g><g
           id="g128"
           transform="translate(49.9785,21.9092)"><path
             d="m 0,0 c -0.101,0.075 -0.223,0.136 -0.354,0.136 -0.264,0 -0.471,-0.203 -0.471,-0.471 0,-0.278 0.199,-0.475 0.482,-0.475 0.12,0 0.251,0.049 0.343,0.133 v -0.579 c -0.15,-0.075 -0.318,-0.111 -0.481,-0.111 -0.574,0 -1.051,0.426 -1.051,1.009 0,0.622 0.475,1.049 1.08,1.049 0.159,0 0.315,-0.037 0.452,-0.112 z"
             style="fill:#181817;fill-opacity:1;fill-rule:nonzero;stroke:none"
             id="path130"
             inkscape:connector-curvature="0" /></g><g
           id="g132"
           transform="translate(51.0791,22.2881)"><path
             d="m 0,0 h 0.008 c 0.158,0.233 0.35,0.312 0.617,0.312 0.519,0 0.726,-0.327 0.726,-0.8 V -1.68 H 0.667 v 0.941 c 0,0.182 0.032,0.507 -0.309,0.507 C 0.081,-0.232 0,-0.439 0,-0.681 V -1.68 H -0.684 V 0.249 H 0 Z"
             style="fill:#181817;fill-opacity:1;fill-rule:nonzero;stroke:none"
             id="path134"
             inkscape:connector-curvature="0" /></g><g
           id="g136"
           transform="translate(55.0562,21.5703)"><path
             d="m 0,0 c 0,-0.655 -0.54,-1.028 -1.161,-1.028 -0.617,0 -1.163,0.369 -1.163,1.028 0,0.658 0.541,1.03 1.163,1.03 C -0.54,1.03 0,0.658 0,0 m -1.601,0 c 0,-0.243 0.162,-0.434 0.44,-0.434 0.278,0 0.44,0.191 0.44,0.434 0,0.238 -0.162,0.436 -0.44,0.436 -0.278,0 -0.44,-0.198 -0.44,-0.436"
             style="fill:#181817;fill-opacity:1;fill-rule:nonzero;stroke:none"
             id="path138"
             inkscape:connector-curvature="0" /></g><path
           d="m 55.36,20.608 h 0.684 V 23.73 H 55.36 Z"
           style="fill:#181817;fill-opacity:1;fill-rule:nonzero;stroke:none"
           id="path140"
           inkscape:connector-curvature="0" /><g
           id="g142"
           transform="translate(58.6699,21.5703)"><path
             d="m 0,0 c 0,-0.655 -0.541,-1.028 -1.163,-1.028 -0.618,0 -1.163,0.369 -1.163,1.028 0,0.658 0.542,1.03 1.163,1.03 C -0.541,1.03 0,0.658 0,0 m -1.604,0 c 0,-0.243 0.163,-0.434 0.441,-0.434 0.278,0 0.441,0.191 0.441,0.434 0,0.238 -0.163,0.436 -0.441,0.436 -0.278,0 -0.441,-0.198 -0.441,-0.436 m 0.366,1.252 -0.304,0.223 0.53,0.647 0.416,-0.302 z"
             style="fill:#181817;fill-opacity:1;fill-rule:nonzero;stroke:none"
             id="path144"
             inkscape:connector-curvature="0" /></g><g
           id="g146"
           transform="translate(58.8691,22.5371)"><path
             d="M 0,0 H 0.869 L 1.217,-0.399 1.561,0 H 2.445 L 1.648,-0.884 2.611,-1.932 h -0.9 L 1.217,-1.358 0.719,-1.932 H -0.18 l 0.963,1.048 z"
             style="fill:#181817;fill-opacity:1;fill-rule:nonzero;stroke:none"
             id="path148"
             inkscape:connector-curvature="0" /></g><g
           id="g150"
           transform="translate(62.3672,23.2783)"><path
             d="m 0,0 c 0,-0.212 -0.172,-0.384 -0.381,-0.384 -0.213,0 -0.385,0.172 -0.385,0.384 0,0.21 0.172,0.383 0.385,0.383 C -0.172,0.383 0,0.21 0,0 m -0.041,-2.671 h -0.686 v 1.93 h 0.686 z"
             style="fill:#181817;fill-opacity:1;fill-rule:nonzero;stroke:none"
             id="path152"
             inkscape:connector-curvature="0" /></g><g
           id="g154"
           transform="translate(64.1621,21.9092)"><path
             d="m 0,0 c -0.1,0.075 -0.221,0.136 -0.354,0.136 -0.263,0 -0.47,-0.203 -0.47,-0.471 0,-0.278 0.199,-0.475 0.482,-0.475 0.121,0 0.252,0.049 0.342,0.133 v -0.579 c -0.148,-0.075 -0.316,-0.111 -0.48,-0.111 -0.573,0 -1.051,0.426 -1.051,1.009 0,0.622 0.474,1.049 1.08,1.049 0.158,0 0.314,-0.037 0.451,-0.112 z"
             style="fill:#181817;fill-opacity:1;fill-rule:nonzero;stroke:none"
             id="path156"
             inkscape:connector-curvature="0" /></g><g
           id="g158"
           transform="translate(66.6914,20.6074)"><path
             d="m 0,0 h -0.686 v 0.214 h -0.007 c -0.119,-0.193 -0.358,-0.278 -0.582,-0.278 -0.573,0 -0.973,0.478 -0.973,1.031 0,0.553 0.393,1.026 0.967,1.026 0.219,0 0.453,-0.083 0.595,-0.252 V 1.93 H 0 Z m -1.543,0.961 c 0,-0.243 0.162,-0.433 0.441,-0.433 0.278,0 0.44,0.19 0.44,0.433 0,0.238 -0.162,0.438 -0.44,0.438 -0.279,0 -0.441,-0.2 -0.441,-0.438"
             style="fill:#181817;fill-opacity:1;fill-rule:nonzero;stroke:none"
             id="path160"
             inkscape:connector-curvature="0" /></g><g
           id="g162"
           transform="translate(21.0923,40.6191)"><path
             d="m 0,0 c -2.534,0 -4.507,-1.145 -5.545,-3.225 -0.739,-1.48 -0.762,-2.922 -0.762,-3.082 v -4.164 c 0,-0.748 0.61,-1.357 1.36,-1.357 0.752,0 1.36,0.609 1.36,1.357 v 4.166 c 0,0.009 0.021,0.955 0.474,1.865 0.579,1.159 1.596,1.723 3.113,1.723 1.488,0 2.495,-0.541 3.08,-1.654 0.492,-0.936 0.508,-1.933 0.508,-1.936 v -4.164 c 0,-0.748 0.608,-1.357 1.359,-1.357 0.75,0 1.36,0.609 1.36,1.357 v 4.164 c 0,0.16 -0.022,1.602 -0.761,3.082 C 4.506,-1.145 2.537,0 0,0"
             style="fill:#47a0de;fill-opacity:1;fill-rule:nonzero;stroke:none"
             id="path164"
             inkscape:connector-curvature="0" /></g><g
           id="g166"
           transform="translate(48.2427,36.248)"><path
             d="M 0,0 C 0.49,-0.936 0.509,-1.933 0.509,-1.936 V -6.1 c 0,-0.748 0.608,-1.357 1.357,-1.357 0.752,0 1.361,0.609 1.361,1.357 v 4.164 c 0,0.16 -0.022,1.602 -0.763,3.082 -1.037,2.081 -3.008,3.225 -5.542,3.225 -2.115,0 -3.834,-0.795 -4.951,-2.262 -1.114,1.467 -2.832,2.262 -4.945,2.262 -2.537,0 -4.506,-1.144 -5.546,-3.225 -0.741,-1.48 -0.761,-2.922 -0.761,-3.082 V -6.1 c 0,-0.748 0.609,-1.357 1.36,-1.357 0.749,0 1.359,0.609 1.359,1.357 v 4.166 c 0,0.009 0.02,0.955 0.473,1.865 0.578,1.159 1.598,1.723 3.115,1.723 1.485,0 2.494,-0.541 3.079,-1.654 0.492,-0.936 0.508,-1.933 0.508,-1.936 V -6.1 c 0,-0.748 0.61,-1.357 1.358,-1.357 0.754,0 1.361,0.609 1.361,1.357 v 0.332 3.834 c 0,0.009 0.018,0.955 0.473,1.865 0.581,1.159 1.598,1.723 3.117,1.723 C -1.592,1.654 -0.585,1.113 0,0"
             style="fill:#47a0de;fill-opacity:1;fill-rule:nonzero;stroke:none"
             id="path168"
             inkscape:connector-curvature="0" /></g><g
           id="g170"
           transform="translate(21.0923,35.6543)"><path
             d="m 0,0 c -0.923,0 -1.672,-0.749 -1.672,-1.673 0,-0.923 0.749,-1.672 1.672,-1.672 0.924,0 1.67,0.749 1.67,1.672 C 1.67,-0.749 0.924,0 0,0"
             style="fill:#47a0de;fill-opacity:1;fill-rule:nonzero;stroke:none"
             id="path172"
             inkscape:connector-curvature="0" /></g><g
           id="g174"
           transform="translate(98.4512,37.3945)"><path
             d="m 0,0 c -1.039,2.078 -3.01,3.225 -5.547,3.225 -2.533,0 -4.506,-1.147 -5.543,-3.225 -0.74,-1.481 -0.762,-2.923 -0.762,-3.08 v -4.164 c 0,-0.75 0.61,-1.36 1.358,-1.36 0.75,0 1.361,0.61 1.361,1.36 v 4.164 c 0,0.008 0.02,0.956 0.473,1.864 0.58,1.159 1.598,1.723 3.113,1.723 1.49,0 2.498,-0.54 3.08,-1.653 0.492,-0.936 0.51,-1.932 0.51,-1.934 v -4.164 c 0,-0.75 0.607,-1.36 1.357,-1.36 0.752,0 1.362,0.61 1.362,1.36 v 4.161 C 0.762,-2.923 0.74,-1.481 0,0"
             style="fill:#47a0de;fill-opacity:1;fill-rule:nonzero;stroke:none"
             id="path176"
             inkscape:connector-curvature="0" /></g><g
           id="g178"
           transform="translate(92.9043,35.6543)"><path
             d="m 0,0 c -0.922,0 -1.67,-0.749 -1.67,-1.673 0,-0.923 0.748,-1.672 1.67,-1.672 0.926,0 1.674,0.749 1.674,1.672 C 1.674,-0.749 0.926,0 0,0"
             style="fill:#47a0de;fill-opacity:1;fill-rule:nonzero;stroke:none"
             id="path180"
             inkscape:connector-curvature="0" /></g><g
           id="g182"
           transform="translate(53.1963,38.9287)"><path
             d="m 0,0 h 0.262 v -7.259 l 0.029,-0.137 c 0.277,-1.32 1.345,-2.742 3.036,-2.742 h 2.057 c 0.75,0 1.359,0.61 1.359,1.358 0,0.752 -0.609,1.361 -1.359,1.361 H 3.327 c -0.129,0 -0.278,0.289 -0.346,0.488 V 0 h 2.555 c 0.752,0 1.358,0.61 1.358,1.359 0,0.75 -0.606,1.358 -1.358,1.358 H 2.981 v 1.291 c 0,0.75 -0.609,1.358 -1.359,1.358 -0.751,0 -1.36,-0.608 -1.36,-1.358 V 2.717 H 0 C -0.749,2.717 -1.358,2.109 -1.358,1.359 -1.358,0.61 -0.749,0 0,0"
             style="fill:#47a0de;fill-opacity:1;fill-rule:nonzero;stroke:none"
             id="path184"
             inkscape:connector-curvature="0" /></g><g
           id="g186"
           transform="translate(62.6699,29.7188)"><path
             d="m 0,0 c 1.418,-0.772 2.799,-0.91 2.953,-0.923 0.039,-0.002 0.078,-0.005 0.117,-0.005 0.7,0 1.295,0.532 1.356,1.24 C 4.49,1.062 3.941,1.719 3.193,1.785 3.184,1.785 2.18,1.888 1.234,2.422 0.561,2.802 0.096,3.295 -0.164,3.915 H 8.34 V 5.273 C 8.34,6.901 7.672,8.335 6.465,9.31 5.432,10.144 4.059,10.605 2.604,10.605 1.146,10.605 -0.225,10.144 -1.26,9.31 -2.467,8.335 -3.133,6.901 -3.133,5.273 -3.133,2.969 -2.02,1.097 0,0 m 2.604,7.887 c 0.818,0 2.048,-0.293 2.656,-1.253 L -0.053,6.631 c 0.606,0.963 1.838,1.256 2.657,1.256"
             style="fill:#47a0de;fill-opacity:1;fill-rule:nonzero;stroke:none"
             id="path188"
             inkscape:connector-curvature="0" /></g><g
           id="g190"
           transform="translate(78.8086,40.8818)"><path
             d="m 0,0 c -3.803,0 -6.459,-2.348 -6.459,-5.709 0,-1.832 0.701,-3.281 1.979,-4.112 -0.92,-0.508 -1.485,-1.419 -1.485,-2.421 0,-0.789 0.356,-1.483 1.02,-1.959 0.33,-0.193 0.658,-0.354 0.988,-0.493 -1.361,-2.199 -2.816,-4.118 -4.324,-5.704 l -0.035,-0.039 v -0.042 c -0.76,-0.781 -1.539,-1.48 -2.321,-2.092 -0.191,-0.156 -0.375,-0.288 -0.539,-0.41 -0.019,-0.013 -0.037,-0.029 -0.051,-0.043 -0.703,-0.51 -1.406,-0.954 -2.121,-1.321 -0.029,-0.021 -0.066,-0.038 -0.097,-0.051 -0.022,-0.008 -0.041,-0.017 -0.063,-0.03 -0.103,-0.056 -0.203,-0.103 -0.299,-0.154 -1.763,-0.847 -3.529,-1.277 -5.25,-1.277 h -0.15 l -0.127,0.009 c -4.733,0.034 -8.81,1.204 -12.116,3.482 l -0.205,0.141 v -3.411 l 0.072,-0.037 c 3.357,-1.79 7.308,-2.729 11.733,-2.796 l 0.284,-0.008 c 0.111,-0.003 0.226,-0.005 0.345,-0.005 5.914,0 12.016,4.303 17.17,12.11 0.615,0.837 1.133,1.263 2.285,1.263 h 1.104 c 1.892,0 2.894,-0.737 2.894,-2.133 0,-0.046 0,-0.084 -0.007,-0.132 l -0.051,-0.339 0.262,0.219 c 1.535,1.283 2.335,1.993 2.376,2.122 l 0.01,0.042 -0.013,0.042 c -0.62,1.691 -2.307,2.624 -4.746,2.624 h -2.674 c -2.055,0 -2.336,0.48 -2.336,1.003 0,0.452 0.293,0.837 0.808,1.056 0.487,-0.084 1.207,-0.17 1.817,-0.17 3.953,0 6.408,2.108 6.408,5.506 0,1.088 -0.363,2.046 -1.006,2.69 h 2.232 v 2.324 H 2.283 C 1.461,-0.072 0.801,0 0,0 m 3.242,-5.443 c 0,-1.994 -1.285,-3.183 -3.445,-3.183 -2.219,0 -3.438,1.131 -3.438,3.183 0,1.965 1.385,3.234 3.524,3.234 2.135,0 3.359,-1.18 3.359,-3.234"
             style="fill:#47a0de;fill-opacity:1;fill-rule:nonzero;stroke:none"
             id="path192"
             inkscape:connector-curvature="0" /></g></g></g></g></svg>