<?xml version="1.0" encoding="utf-8"?>
<!-- Generator: Adobe Illustrator 16.0.0, SVG Export Plug-In . SVG Version: 6.00 Build 0)  -->
<!DOCTYPE svg PUBLIC "-//W3C//DTD SVG 1.1//EN" "http://www.w3.org/Graphics/SVG/1.1/DTD/svg11.dtd">
<svg version="1.1" xmlns="http://www.w3.org/2000/svg" xmlns:xlink="http://www.w3.org/1999/xlink" x="0px" y="0px"
	 width="323.04px" height="316.08px" viewBox="0 0 323.04 316.08" enable-background="new 0 0 323.04 316.08" xml:space="preserve">
<g id="BricoLabs">
	<rect x="31.252" y="198.087" fill="none" width="258.215" height="41"/>
	
		<text id="Bricolabs_Averia_Serif_font" transform="matrix(1 0 0 1 49.0439 231.3447)" display="none" font-family="'AveriaSerif-Bold'" font-size="48">BricoLabs</text>
	<rect x="37.002" y="231.837" fill="none" width="258.215" height="41"/>
	
		<text id="Bricolabs_Arial_Rounded_font" transform="matrix(1 0 0 1 46.3096 266.7803)" display="none" font-family="'ArialRoundedMTBold'" font-size="48">BricoLabs</text>
	<g id="Group_Averia_Serif">
		<path d="M20.577,278.258c0-2.536-0.154-4.301-0.46-5.292c-0.307-0.992-0.987-1.892-2.04-2.7c-1.054-0.808-1.581-1.468-1.581-1.979
			c0-0.859,0.639-1.375,1.918-1.55c1.278-0.173,4.647-0.26,10.108-0.26l4.755-0.062c5.215,0,8.958,0.787,11.228,2.362
			c2.781,1.942,4.172,4.652,4.172,8.129c0,2.986-1.626,5.543-4.878,7.669c-1.473,0.981-2.209,1.494-2.209,1.534
			c0.021,0.082,0.46,0.286,1.319,0.613c2.352,0.921,4.111,2.005,5.277,3.252c1.738,1.902,2.607,4.029,2.607,6.382v0.797
			c0,3.599-1.488,6.422-4.464,8.467c-2.976,2.045-7.02,3.067-12.132,3.067h-4.816l-0.798-0.03h-4.632l-3.067,0.03h-0.736
			c-2.577,0-3.865-0.48-3.865-1.441c0-0.777,0.568-1.504,1.703-2.179c1.135-0.674,1.892-1.528,2.27-2.562
			c0.378-1.032,0.568-4.044,0.568-9.034l-0.031-2.454l-0.062-1.656c-0.021-0.552-0.031-1.094-0.031-1.625l-0.061-1.627
			c-0.021-0.553-0.031-1.084-0.031-1.595l-0.03-1.626V278.258z M29.442,295.866c0,4.418,0.184,6.912,0.553,7.485
			c0.634,1.001,1.994,1.502,4.08,1.502l0.276-0.03c2.393,0,4.228-0.7,5.506-2.102c1.278-1.4,1.917-3.185,1.917-5.353v-0.859
			c0-2.331-0.818-4.248-2.454-5.752c-1.636-1.503-3.773-2.255-6.412-2.255h-1.534c-0.9,0-1.453,0.174-1.657,0.522
			c-0.205,0.347-0.307,0.991-0.307,1.933v3.865l0.03,0.244V295.866z M32.173,270.25c-1.227,0-1.983,0.287-2.27,0.859
			c-0.287,0.573-0.43,2.056-0.43,4.448v5.799c0,2.208,0.532,3.312,1.596,3.312l0.429,0.063l0.645,0.03h0.46
			c2.352,0,4.198-0.67,5.537-2.009c1.339-1.34,2.009-3.053,2.009-5.14v-0.521c0-1.861-0.598-3.456-1.795-4.786
			c-1.196-1.329-2.653-1.993-4.371-1.993l-0.43-0.063H32.173z"/>
		<path d="M57.297,307.277c0-0.613,0.455-1.242,1.365-1.886c0.91-0.645,1.529-1.452,1.855-2.424
			c0.328-0.972,0.491-3.528,0.491-7.669c0-4.142-0.158-6.642-0.475-7.501s-0.9-1.713-1.749-2.562
			c-0.849-0.85-1.273-1.519-1.273-2.009c0-0.614,0.542-1.136,1.626-1.564c2.147-0.839,4.407-1.258,6.78-1.258h0.552
			c1.022,0,1.769,0.644,2.24,1.933c0.47,1.288,0.91,1.932,1.318,1.932c0.184,0,0.645-0.347,1.381-1.042
			c2.025-1.883,3.743-2.822,5.154-2.822h0.491c1.002,0,1.912,0.378,2.73,1.134c0.818,0.757,1.227,1.667,1.227,2.73
			s-0.348,1.958-1.043,2.685c-0.695,0.726-1.554,1.09-2.577,1.09c-0.307,0-0.925-0.227-1.856-0.676
			c-0.93-0.45-1.662-0.675-2.193-0.675c-1.452,0-2.628,0.88-3.528,2.639c-0.634,1.227-0.951,3.323-0.951,6.288
			c0,2.966,0.296,5.154,0.889,6.565c0.205,0.49,0.844,1.293,1.917,2.408c1.074,1.114,1.611,1.988,1.611,2.622
			c0,0.962-3.027,1.442-9.081,1.442l-3.743,0.062h-0.583C58.156,308.72,57.297,308.239,57.297,307.277z"/>
		<path d="M87.115,308.628c-1.514,0-2.27-0.461-2.27-1.381v-0.338c0-0.449,0.511-1.032,1.534-1.749
			c1.022-0.715,1.708-1.625,2.056-2.729c0.348-1.105,0.521-3.764,0.521-7.978c0-4.213-0.179-6.728-0.537-7.546
			s-1.033-1.575-2.025-2.271c-0.992-0.695-1.487-1.38-1.487-2.055c0-0.676,0.46-1.136,1.38-1.381
			c2.658-0.716,5.563-1.073,8.712-1.073c1.002,0,1.585,0.46,1.749,1.38c0.02,0.103,0.03,3.159,0.03,9.173
			c0,6.013,0.225,9.99,0.675,11.933c0.184,0.799,0.731,1.651,1.641,2.563c0.91,0.91,1.365,1.549,1.365,1.917v0.368
			c0,0.777-0.654,1.166-1.963,1.166h-3.098l-0.46-0.031h-2.73l-1.871,0.031H87.115z M93.036,266.263
			c1.206,0,2.208,0.343,3.006,1.027c0.798,0.686,1.197,1.539,1.197,2.562v0.736c-0.062,0.307-0.092,0.649-0.092,1.027
			c0,0.379-0.364,0.932-1.089,1.657c-0.726,0.727-1.539,1.089-2.438,1.089c-0.41,0.082-0.665,0.122-0.768,0.122h-0.92
			c-0.307-0.061-0.552-0.091-0.736-0.091c-0.818,0-1.58-0.354-2.285-1.059c-0.706-0.705-1.059-1.569-1.059-2.593v-0.583
			c0-1.022,0.374-1.906,1.12-2.653c0.747-0.746,1.58-1.119,2.5-1.119l1.074-0.123H93.036z"/>
		<path d="M119.755,309.241h-1.472c-1.738,0-3.446-0.368-5.124-1.104c-3.415-1.492-5.808-3.958-7.178-7.394
			c-0.695-1.718-1.043-3.354-1.043-4.908v-1.533c0-1.738,0.378-3.549,1.135-5.431c1.452-3.558,3.896-6.166,7.332-7.822
			c1.861-0.88,3.61-1.319,5.246-1.319h1.381c4.315,0,7.214,0.45,8.697,1.351c1.482,0.899,2.224,2.361,2.224,4.386
			c0,0.736-0.245,1.387-0.736,1.948c-0.491,0.563-1.053,0.844-1.687,0.844c-0.634,0-1.892-0.757-3.773-2.27
			c-1.881-1.515-3.712-2.271-5.491-2.271s-3.323,1.063-4.632,3.19c-0.982,1.616-1.473,3.953-1.473,7.01
			c0,3.058,0.951,5.639,2.854,7.746c1.391,1.533,3.231,2.301,5.521,2.301c1.207,0,2.72-0.297,4.541-0.89
			c1.82-0.594,3.108-0.89,3.865-0.89c0.756,0,1.135,0.266,1.135,0.797c0,1.37-1.202,2.756-3.604,4.157
			C125.067,308.541,122.496,309.241,119.755,309.241z"/>
		<path d="M166.139,292.676v1.012c0,4.417-1.615,8.161-4.847,11.229c-2.823,2.679-6.401,4.019-10.737,4.019
			c-4.335,0-7.741-1.176-10.215-3.528c-2.904-2.78-4.356-6.063-4.356-9.848v-1.012c0-2.025,0.409-4.009,1.227-5.952
			c1.575-3.803,4.356-6.523,8.344-8.159c1.82-0.758,3.722-1.135,5.706-1.135h0.982c4.029,0,7.392,1.349,10.092,4.049
			c1.187,1.187,2.117,2.634,2.791,4.341C165.802,289.398,166.139,291.061,166.139,292.676z M150.893,305.529h0.828
			c1.657,0,2.936-0.838,3.834-2.517c1.208-2.27,1.811-4.958,1.811-8.067v-0.337l-0.03-0.368c0-3.354-0.583-6.12-1.749-8.299
			c-1.166-2.178-2.679-3.267-4.54-3.267h-0.276c-1.861,0-3.323,1.002-4.387,3.007c-1.063,2.004-1.595,4.55-1.595,7.639v0.705
			c0,3.231,0.593,5.957,1.779,8.175C147.753,304.42,149.195,305.529,150.893,305.529z"/>
		<path d="M171.568,267.919c0-0.92,0.655-1.381,1.964-1.381h6.258l0.89,0.031c4.949,0,7.68,0.051,8.191,0.153
			c0.858,0.164,1.288,0.567,1.288,1.212c0,0.644-0.629,1.488-1.887,2.53c-1.258,1.043-2.029,2.189-2.316,3.437
			c-0.511,2.249-0.767,7.127-0.767,14.633v4.693l0.062,4.51c0,2.802,0.389,4.643,1.166,5.521c0.776,0.88,2.315,1.319,4.617,1.319
			c2.3,0,4.422-0.532,6.365-1.596c0.899-0.49,2.198-1.682,3.896-3.573c1.698-1.893,3.037-2.838,4.019-2.838
			c0.675,0,1.013,0.512,1.013,1.533c0,4.255-0.502,7.271-1.504,9.051c-0.429,0.756-1.759,1.135-3.987,1.135
			c-4.417,0.164-7.077,0.245-7.977,0.245l-11.626,0.123h-5.645c-2.106,0-3.16-0.563-3.16-1.688c0-0.062,0.726-1.002,2.178-2.822
			c0.676-0.859,1.166-2.342,1.473-4.447c0.307-2.107,0.461-5.86,0.461-11.259v-10.001l-0.062-3.682c0-1.268-0.205-2.213-0.613-2.838
			c-0.409-0.623-1.229-1.272-2.455-1.948C172.182,269.3,171.568,268.615,171.568,267.919z"/>
		<path d="M214.148,289.424c-1.882,0-2.822-0.813-2.822-2.438c0-1.627,1.289-3.17,3.865-4.633c2.576-1.462,5.491-2.193,8.743-2.193
			c3.251,0,5.742,0.834,7.469,2.5c1.729,1.667,2.594,4.188,2.594,7.563l-0.031,0.705c-0.021,0.471-0.031,0.951-0.031,1.442
			l-0.03,0.705c-0.021,0.613-0.046,1.248-0.077,1.901c-0.03,0.655-0.045,1.218-0.045,1.688c0,3.169,0.199,5.107,0.598,5.813
			c0.399,0.705,1.104,1.243,2.116,1.61c1.013,0.368,1.52,0.799,1.52,1.289c0,0.92-0.758,1.748-2.271,2.484
			c-1.514,0.736-2.869,1.104-4.065,1.104s-2.325-0.384-3.389-1.15s-1.785-1.15-2.163-1.15s-1.033,0.25-1.963,0.751
			c-0.932,0.502-1.796,0.921-2.593,1.258c-0.798,0.339-2.111,0.507-3.942,0.507c-1.83,0-3.507-0.69-5.03-2.071
			c-1.524-1.38-2.286-3.144-2.286-5.291c0-2.148,0.89-3.978,2.67-5.491c1.779-1.514,4.652-2.812,8.619-3.896
			c1.37-0.389,2.476-0.829,3.313-1.319c0.839-0.491,1.258-1.376,1.258-2.654s-0.358-2.285-1.074-3.021
			c-0.715-0.735-1.696-1.104-2.944-1.104s-2.597,0.85-4.049,2.547C216.653,288.575,215.334,289.424,214.148,289.424z
			 M226.144,296.265c0-0.736-0.246-1.104-0.737-1.104h-0.368c-1.799,0-3.419,0.619-4.861,1.855c-1.442,1.238-2.163,2.48-2.163,3.728
			v0.951c0,0.757,0.255,1.432,0.768,2.025c0.511,0.593,1.053,0.89,1.625,0.89l0.276,0.061h0.705c1.534,0,2.833-0.746,3.896-2.238
			c0.553-0.777,0.828-2.189,0.828-4.234l0.031-0.307V296.265z"/>
		<path d="M245.285,282.307v-4.51c0-2.515-0.174-4.351-0.521-5.506c-0.349-1.156-0.957-2.076-1.826-2.761
			c-0.869-0.686-1.304-1.264-1.304-1.734c0-0.939,0.604-1.625,1.81-2.055c2.046-0.736,4.357-1.104,6.934-1.104h0.583
			c1.187,0,1.892,0.675,2.117,2.025c0.021,0.122,0.03,2.684,0.03,7.684c0,5.001,0.449,7.501,1.35,7.501
			c0.348,0,1.258-0.24,2.729-0.722c1.473-0.48,2.977-0.72,4.511-0.72c1.533,0,3.042,0.388,4.524,1.165
			c1.483,0.777,2.735,1.82,3.758,3.13c2.106,2.679,3.159,5.91,3.159,9.693v0.798c0,3.845-1.201,7.102-3.604,9.77
			c-2.402,2.67-5.189,4.004-8.359,4.004h-0.705c-0.962,0-2.562-0.245-4.801-0.736c-2.239-0.49-3.38-0.736-3.421-0.736l-3.405,0.491
			c-1.513,0-2.464-0.449-2.853-1.351c-0.389-0.899-0.583-3.006-0.583-6.318l0.214-7.025l-0.061-1.503
			c-0.041-1.002-0.062-1.739-0.062-2.209l-0.061-1.441c-0.021-0.491-0.031-0.981-0.031-1.473l-0.061-1.473L245.285,282.307z
			 M253.844,298.903c0,1.861,0.436,3.42,1.305,4.678c0.868,1.258,2.009,1.887,3.421,1.887h0.766c1.515,0,2.828-0.91,3.942-2.729
			c1.115-1.821,1.673-4.102,1.673-6.842v-1.656c0-2.761-0.573-5.072-1.719-6.934s-2.454-2.791-3.927-2.791H258.6
			c-1.412,0-2.546,0.557-3.405,1.672c-0.859,1.114-1.289,2.623-1.289,4.524c-0.062,0.553-0.092,0.839-0.092,0.859l-0.092,2.024
			v0.583l-0.03,0.921v0.307l0.03,0.307c0,0.204,0,0.408,0,0.613l0.092,2.024C253.834,298.556,253.844,298.739,253.844,298.903z"/>
		<path d="M281.944,308.413c-1.33,0-2.204-0.445-2.623-1.335s-0.629-2.521-0.629-4.893v-0.736c0-1.104,0.409-1.656,1.227-1.656
			c0.676,0,1.76,0.746,3.252,2.238c1.494,1.494,2.686,2.496,3.574,3.007c0.89,0.511,1.989,0.768,3.299,0.768
			c1.309,0,2.433-0.282,3.374-0.845c0.94-0.562,1.41-1.431,1.41-2.606s-0.506-2.103-1.518-2.777
			c-1.013-0.674-2.899-1.548-5.66-2.622c-2.761-1.073-4.714-2.162-5.859-3.268c-1.677-1.636-2.515-3.646-2.515-6.027
			c0-2.383,1.001-4.372,3.005-5.967c2.005-1.595,4.306-2.393,6.903-2.393h0.859c0.879,0,1.927,0.112,3.144,0.337
			s2.536,0.337,3.957,0.337s2.347,0.333,2.776,0.998c0.43,0.664,0.645,2.489,0.645,5.476c0,0.879-0.327,1.319-0.981,1.319
			c-0.655,0-1.974-0.829-3.957-2.485c-1.984-1.656-3.642-2.485-4.97-2.485c-1.33,0-2.449,0.251-3.359,0.752
			s-1.365,1.313-1.365,2.439c0,1.124,0.726,2.096,2.178,2.914c0.123,0.062,1.718,0.716,4.786,1.964
			c3.067,1.246,5.194,2.423,6.381,3.527c1.677,1.575,2.515,3.436,2.515,5.584v0.827c0,2.29-1.042,4.269-3.129,5.937
			c-2.086,1.666-4.611,2.5-7.577,2.5h-0.859c-0.634,0-1.824-0.148-3.573-0.445s-2.674-0.444-2.775-0.444l-0.676,0.03
			C282.772,308.402,282.354,308.413,281.944,308.413z"/>
	</g>
	<g id="Group_Arial_Rounded" display="none">
		<path display="inline" d="M36.93,308.558H24.033c-1.861,0-3.19-0.418-3.987-1.253c-0.796-0.833-1.194-2.164-1.194-3.986v-31.724
			c0-1.86,0.407-3.199,1.224-4.016c0.815-0.816,2.134-1.225,3.958-1.225h13.674c2.015,0,3.762,0.126,5.238,0.376
			c1.478,0.249,2.803,0.729,3.973,1.438c0.999,0.594,1.881,1.35,2.649,2.262c0.767,0.91,1.352,1.917,1.755,3.021
			c0.403,1.104,0.604,2.271,0.604,3.498c0,4.221-2.111,7.312-6.333,9.27c5.546,1.766,8.319,5.201,8.319,10.305
			c0,2.361-0.604,4.486-1.814,6.376c-1.208,1.893-2.84,3.287-4.893,4.189c-1.286,0.537-2.765,0.916-4.434,1.138
			C41.104,308.445,39.156,308.558,36.93,308.558z M27.402,272.775v10.909h7.829c2.131,0,3.777-0.201,4.938-0.604
			c1.161-0.403,2.048-1.171,2.662-2.305c0.48-0.805,0.72-1.707,0.72-2.705c0-2.129-0.758-3.545-2.274-4.245
			c-1.517-0.7-3.829-1.051-6.938-1.051H27.402z M36.297,289.816h-8.895v12.321h9.183c5.777,0,8.665-2.083,8.665-6.246
			c0-2.132-0.749-3.675-2.245-4.635C41.507,290.297,39.271,289.816,36.297,289.816z"/>
		<path display="inline" d="M68.565,297.936v6.563c0,1.594-0.373,2.787-1.121,3.585c-0.75,0.796-1.699,1.193-2.851,1.193
			c-1.132,0-2.063-0.403-2.792-1.207c-0.729-0.809-1.095-1.997-1.095-3.571v-21.877c0-3.532,1.277-5.298,3.829-5.298
			c1.305,0,2.246,0.413,2.821,1.237c0.575,0.826,0.892,2.046,0.95,3.657c0.94-1.611,1.905-2.831,2.893-3.657
			c0.989-0.824,2.308-1.237,3.958-1.237c1.65,0,3.252,0.413,4.807,1.237c1.554,0.826,2.331,1.919,2.331,3.282
			c0,0.961-0.331,1.752-0.993,2.375c-0.663,0.624-1.376,0.936-2.145,0.936c-0.288,0-0.983-0.178-2.087-0.533
			c-1.104-0.354-2.078-0.533-2.922-0.533c-1.152,0-2.091,0.304-2.821,0.908c-0.729,0.604-1.296,1.501-1.698,2.691
			c-0.403,1.191-0.682,2.604-0.835,4.246C68.643,293.573,68.565,295.573,68.565,297.936z"/>
		<path display="inline" d="M90.559,273.667c-1.094,0-2.029-0.336-2.807-1.007c-0.777-0.672-1.166-1.621-1.166-2.851
			c0-1.112,0.398-2.029,1.195-2.747c0.797-0.721,1.723-1.08,2.778-1.08c1.018,0,1.919,0.324,2.707,0.978
			c0.787,0.652,1.18,1.603,1.18,2.85c0,1.21-0.384,2.155-1.151,2.836C92.526,273.328,91.615,273.667,90.559,273.667z
			 M94.445,281.786v22.712c0,1.574-0.374,2.763-1.123,3.571c-0.747,0.804-1.699,1.207-2.849,1.207c-1.152,0-2.087-0.412-2.807-1.238
			c-0.72-0.824-1.08-2.006-1.08-3.54v-22.482c0-1.553,0.359-2.725,1.08-3.513c0.72-0.785,1.655-1.18,2.807-1.18
			c1.15,0,2.102,0.395,2.849,1.18C94.071,279.291,94.445,280.385,94.445,281.786z"/>
		<path display="inline" d="M130.746,299.547c0,0.979-0.294,2.024-0.879,3.139c-0.584,1.112-1.477,2.173-2.677,3.18
			c-1.199,1.008-2.71,1.819-4.534,2.434c-1.823,0.612-3.876,0.92-6.16,0.92c-4.855,0-8.646-1.415-11.371-4.246
			c-2.725-2.831-4.087-6.625-4.087-11.386c0-3.222,0.624-6.073,1.871-8.548c1.248-2.477,3.051-4.39,5.412-5.744
			c2.36-1.352,5.182-2.027,8.463-2.027c2.035,0,3.9,0.296,5.599,0.892c1.699,0.594,3.139,1.362,4.318,2.304
			c1.181,0.938,2.083,1.941,2.706,3.008c0.624,1.063,0.936,2.057,0.936,2.979c0,0.938-0.35,1.736-1.05,2.389
			c-0.701,0.653-1.549,0.979-2.547,0.979c-0.652,0-1.196-0.168-1.626-0.503c-0.432-0.337-0.917-0.879-1.454-1.627
			c-0.959-1.459-1.962-2.553-3.008-3.281c-1.045-0.729-2.375-1.094-3.987-1.094c-2.322,0-4.193,0.906-5.614,2.721
			c-1.419,1.813-2.13,4.293-2.13,7.441c0,1.477,0.183,2.835,0.547,4.072c0.364,1.239,0.893,2.294,1.583,3.167
			c0.692,0.873,1.525,1.536,2.504,1.986c0.979,0.45,2.054,0.676,3.224,0.676c1.574,0,2.922-0.364,4.044-1.094
			c1.124-0.729,2.116-1.842,2.98-3.34c0.479-0.882,0.998-1.573,1.554-2.071c0.557-0.499,1.238-0.748,2.044-0.748
			c0.959,0,1.757,0.363,2.389,1.093C130.429,297.944,130.746,298.722,130.746,299.547z"/>
		<path display="inline" d="M167.017,293.301c0,2.341-0.365,4.5-1.095,6.477c-0.729,1.978-1.784,3.676-3.166,5.094
			c-1.382,1.422-3.033,2.509-4.951,3.269c-1.919,0.757-4.079,1.137-6.479,1.137c-2.378,0-4.519-0.384-6.418-1.151
			c-1.899-0.769-3.545-1.867-4.938-3.296c-1.391-1.43-2.446-3.118-3.166-5.067c-0.72-1.948-1.08-4.1-1.08-6.461
			c0-2.381,0.365-4.56,1.095-6.535c0.729-1.976,1.775-3.665,3.138-5.066c1.362-1.401,3.012-2.48,4.951-3.238
			c1.938-0.758,4.079-1.138,6.418-1.138c2.381,0,4.541,0.384,6.479,1.151c1.938,0.769,3.598,1.862,4.98,3.281
			c1.382,1.421,2.432,3.109,3.151,5.068C166.656,288.782,167.017,290.94,167.017,293.301z M159.128,293.301
			c0-3.207-0.705-5.7-2.115-7.485c-1.411-1.784-3.306-2.677-5.687-2.677c-1.534,0-2.886,0.398-4.058,1.195
			c-1.171,0.796-2.073,1.972-2.706,3.525c-0.634,1.554-0.95,3.368-0.95,5.441c0,2.053,0.312,3.847,0.935,5.383
			c0.625,1.534,1.517,2.71,2.678,3.525c1.161,0.816,2.527,1.226,4.101,1.226c2.381,0,4.276-0.899,5.687-2.693
			C158.423,298.946,159.128,296.466,159.128,293.301z"/>
		<path display="inline" d="M182.13,270.818v30.715h17.329c1.382,0,2.441,0.336,3.182,1.007c0.737,0.672,1.108,1.516,1.108,2.534
			c0,1.037-0.365,1.877-1.094,2.519c-0.73,0.643-1.794,0.965-3.196,0.965h-20.64c-1.862,0-3.2-0.413-4.017-1.239
			c-0.815-0.824-1.223-2.158-1.223-4v-32.5c0-1.728,0.389-3.022,1.166-3.886c0.777-0.864,1.799-1.296,3.065-1.296
			c1.287,0,2.327,0.427,3.123,1.28S182.13,269.072,182.13,270.818z"/>
		<path display="inline" d="M228.678,304.844c-1.9,1.478-3.738,2.587-5.513,3.324c-1.775,0.738-3.766,1.108-5.973,1.108
			c-2.016,0-3.786-0.397-5.312-1.193c-1.524-0.798-2.702-1.877-3.528-3.239c-0.823-1.362-1.235-2.841-1.235-4.434
			c0-2.149,0.681-3.982,2.044-5.498c1.361-1.517,3.233-2.533,5.612-3.053c0.5-0.114,1.735-0.372,3.713-0.776
			c1.978-0.402,3.671-0.772,5.082-1.107c1.41-0.337,2.94-0.743,4.591-1.224c-0.097-2.073-0.512-3.595-1.252-4.563
			c-0.739-0.97-2.27-1.454-4.592-1.454c-1.995,0-3.497,0.279-4.504,0.835c-1.008,0.558-1.87,1.392-2.592,2.504
			c-0.72,1.113-1.228,1.849-1.525,2.202c-0.299,0.355-0.936,0.532-1.915,0.532c-0.883,0-1.646-0.282-2.287-0.849
			c-0.644-0.565-0.966-1.29-0.966-2.173c0-1.382,0.488-2.726,1.47-4.031c0.979-1.304,2.504-2.379,4.577-3.224
			c2.07-0.844,4.652-1.265,7.742-1.265c3.455,0,6.171,0.406,8.146,1.223c1.978,0.815,3.372,2.106,4.189,3.871
			c0.815,1.767,1.224,4.107,1.224,7.023c0,1.843-0.006,3.406-0.016,4.692c-0.009,1.286-0.024,2.716-0.044,4.289
			c0,1.479,0.246,3.018,0.735,4.621c0.489,1.603,0.734,2.635,0.734,3.095c0,0.806-0.38,1.539-1.138,2.201
			c-0.758,0.661-1.616,0.993-2.576,0.993c-0.806,0-1.603-0.38-2.39-1.137C230.396,307.38,229.561,306.282,228.678,304.844z
			 M228.159,293.474c-1.151,0.422-2.825,0.867-5.023,1.338s-3.719,0.814-4.563,1.037c-0.844,0.22-1.651,0.649-2.417,1.295
			c-0.77,0.642-1.152,1.54-1.152,2.69c0,1.192,0.45,2.202,1.354,3.037c0.901,0.836,2.08,1.252,3.54,1.252
			c1.555,0,2.987-0.34,4.303-1.021c1.315-0.681,2.277-1.559,2.895-2.634c0.707-1.189,1.063-3.146,1.063-5.871V293.474z"/>
		<path display="inline" d="M250.326,270.126v12.006c1.476-1.535,2.982-2.712,4.519-3.526c1.535-0.816,3.438-1.225,5.7-1.225
			c2.609,0,4.899,0.619,6.865,1.857c1.968,1.237,3.493,3.031,4.577,5.382c1.084,2.352,1.626,5.14,1.626,8.364
			c0,2.379-0.303,4.562-0.907,6.548c-0.604,1.986-1.481,3.709-2.634,5.167c-1.15,1.459-2.547,2.586-4.188,3.384
			c-1.641,0.796-3.45,1.193-5.426,1.193c-1.209,0-2.346-0.144-3.411-0.433c-1.065-0.286-1.972-0.666-2.721-1.136
			c-0.749-0.471-1.386-0.954-1.914-1.454c-0.527-0.498-1.223-1.247-2.086-2.246v0.777c0,1.478-0.357,2.595-1.066,3.354
			c-0.709,0.757-1.612,1.137-2.706,1.137c-1.112,0-2-0.38-2.661-1.137c-0.662-0.76-0.994-1.877-0.994-3.354v-34.313
			c0-1.593,0.321-2.799,0.964-3.611c0.644-0.817,1.54-1.225,2.691-1.225c1.209,0,2.14,0.388,2.792,1.165
			C249.999,267.579,250.326,268.688,250.326,270.126z M250.698,293.474c0,3.128,0.717,5.531,2.146,7.21
			c1.429,1.681,3.305,2.521,5.627,2.521c1.976,0,3.681-0.859,5.109-2.579c1.431-1.716,2.145-4.178,2.145-7.382
			c0-2.073-0.297-3.858-0.893-5.354c-0.594-1.497-1.439-2.652-2.533-3.469c-1.093-0.815-2.37-1.225-3.828-1.225
			c-1.496,0-2.83,0.409-4.002,1.225c-1.17,0.816-2.091,1.996-2.763,3.54C251.034,289.506,250.698,291.343,250.698,293.474z"/>
		<path display="inline" d="M305.222,299.001c0,2.167-0.527,4.024-1.585,5.569c-1.054,1.545-2.614,2.715-4.676,3.513
			c-2.063,0.796-4.573,1.193-7.528,1.193c-2.82,0-5.24-0.433-7.254-1.296c-2.015-0.863-3.503-1.943-4.462-3.237
			c-0.96-1.296-1.439-2.596-1.439-3.9c0-0.863,0.307-1.603,0.921-2.218c0.614-0.614,1.392-0.921,2.332-0.921
			c0.824,0,1.458,0.202,1.9,0.605c0.44,0.402,0.862,0.969,1.267,1.698c0.805,1.401,1.769,2.446,2.893,3.137
			c1.122,0.691,2.653,1.037,4.591,1.037c1.574,0,2.865-0.351,3.872-1.051c1.007-0.701,1.512-1.501,1.512-2.403
			c0-1.382-0.522-2.39-1.568-3.023c-1.047-0.632-2.77-1.238-5.169-1.813c-2.706-0.672-4.907-1.379-6.606-2.116
			c-1.697-0.738-3.056-1.714-4.073-2.923c-1.017-1.208-1.525-2.695-1.525-4.461c0-1.574,0.471-3.061,1.411-4.462
			c0.941-1.401,2.325-2.52,4.159-3.353c1.834-0.836,4.045-1.254,6.635-1.254c2.036,0,3.863,0.211,5.485,0.634
			s2.975,0.988,4.058,1.698c1.084,0.71,1.909,1.497,2.477,2.36c0.566,0.864,0.85,1.708,0.85,2.532c0,0.904-0.304,1.643-0.907,2.218
			c-0.605,0.575-1.464,0.863-2.577,0.863c-0.807,0-1.491-0.23-2.059-0.69c-0.565-0.462-1.213-1.151-1.941-2.073
			c-0.596-0.767-1.296-1.382-2.103-1.842c-0.807-0.461-1.899-0.691-3.282-0.691c-1.419,0-2.599,0.302-3.541,0.908
			c-0.939,0.604-1.411,1.356-1.411,2.259c0,0.824,0.349,1.502,1.038,2.029c0.69,0.528,1.621,0.965,2.791,1.31
			c1.173,0.346,2.784,0.768,4.838,1.268c2.438,0.594,4.427,1.304,5.973,2.129c1.544,0.826,2.715,1.8,3.512,2.922
			C304.823,296.279,305.222,297.561,305.222,299.001z"/>
	</g>
</g>
<g id="trisquel_group">
	<path fill-rule="evenodd" clip-rule="evenodd" d="M262.861,214.246c-2.062-1.821-4.349-3.394-6.544-5.066
		c-2.344-1.786-3.886-3.921-3.41-7.096c0.62-4.156,0.622-8.349-0.098-12.47c-1.67-9.571-6.156-17.616-13.98-23.48
		c-8.82-6.607-18.654-8.847-29.374-5.567c-8.032,2.458-13.998,7.508-17.438,15.228c-3.611,8.101-2.71,18.41,4.025,24.953
		c4.883,4.747,10.629,6.735,17.318,4.336c4.206-1.509,6.894-4.464,7.599-9.011c0.398-2.553-1.1-5.369-3.405-6.401
		c-1.273-0.435-2.011-0.585-3.127-0.595c-1.665-0.012-4.06,0.908-5.168,0.607c-1.672-0.456-2.39-1.479-2.674-1.987
		c-0.657-1.245-0.585-2.8-0.416-3.685c0.274-1.443,0.645-2.478,0.988-2.996c0.99-1.635,2.801-2.913,4.248-3.778
		c3.67-2.194,7.686-1.996,11.521-1.077c5.437,1.302,9.04,5.131,11.648,9.944c0.273,0.355,0.299,0.841,0.607,1.18
		c3.166,9.281,1.742,17.799-4.677,25.22c-5.695,6.59-13.03,9.797-21.822,9.964c-8.656,0.168-16.035-2.801-22.589-8.222
		c-1.368-0.991-2.51-2.215-3.585-3.508c-4.3-4.985-7.162-10.741-8.434-17.152c-1.129-5.706-1.07-11.47,0.25-17.222
		c2.114-9.201,6.867-16.77,13.923-22.893c6.619-5.743,11.844-12.49,15.249-20.554c4.163-9.863,5.227-20.089,3.093-30.621
		c-1.971-9.715-6.471-18.067-13.553-24.986c-5.069-4.954-10.94-8.646-17.773-10.708c-2.132-0.617-2.909-3.013-3.165-4.489
		c-0.423-2.075-0.658-4.193-0.91-6.3c-0.368-3.083-0.239-7.065-4.413-7.734c-3.341,0.012-5.846,0.02-9.187,0.033
		c-3.403,0.49-3.862,3.676-4.123,6.419c-0.232,2.42-0.526,4.848-1.027,7.223c-0.447,2.107-1.473,3.997-3.702,4.747
		c-8.88,2.98-15.997,8.258-20.979,16.224c-4.962,7.935-6.924,16.494-4.977,25.798c2.066,9.879,7.395,17.315,16.429,21.93
		c10.324,5.274,23.452,3.41,30.768-5.836c4.522-5.717,5.972-12.1,3.058-19.095c-0.295-0.341-0.297-0.839-0.622-1.166
		c-0.903-2-2.333-3.561-4.077-4.852c-3.707-2.747-8.292-3.128-11.875-1c-0.966,0.59-1.443,1.129-2.089,2.068
		c-1.646,2.716-1.334,4.116,1.002,6.722c0.742,1.166,1.077,1.642,1.063,3.043c-0.185,2.112-0.261,2.524-0.852,3.668
		c-0.476,0.922-0.826,1.234-1.748,1.735c-0.777,0.422-1.398,0.797-2.752,1.006c-1.784,0.275-3.823-0.275-5.493-1.225
		c-1.934-1.203-3.365-2.53-4.54-4.458c-3.223-5.287-3.389-10.973-0.99-16.467c4.401-10.075,14.168-14.559,24.905-13.413
		c6.611,0.707,12.154,3.681,16.836,8.383c4.899,4.921,7.824,10.861,8.841,17.642c1.037,6.959,0.13,13.729-2.92,20.171
		c-4.368,9.231-11.344,15.745-20.705,19.595c-8.886,3.651-18.065,3.942-27.336,1.505c-3.823-1.004-7.501-2.523-11.407-3.235
		c-9.483-1.727-18.796-1.233-27.939,2.001c-6.109,2.16-11.647,5.249-16.499,9.551c-0.588,0.5-1.083,1.104-1.734,1.53
		c-0.686,0.691-1.372,1.382-2.058,2.073c-0.419,0.656-1.027,1.148-1.512,1.747c-5.81,6.577-9.305,14.242-10.906,22.847
		c-0.927,4.98-0.994,9.958-0.145,14.919c0.53,3.095-0.302,5.594-2.59,7.574c-2.344,2.03-4.887,3.827-7.24,5.844
		c-1.725,1.481-2.506,3.818-1.306,5.943c1.302,2.302,2.649,4.582,4.021,6.845c1.027,1.695,3.804,2.612,5.603,1.879
		c3.053-1.241,6.071-2.585,9.158-3.741c2.015-0.753,4.079-0.634,5.773,0.856c6.352,5.58,13.651,9.111,22.066,10.062
		c8.882,1.005,17.122-0.945,24.537-6.018c4.345-2.977,7.848-6.731,10.225-11.475c0.323-0.328,0.326-0.825,0.616-1.167
		c2.501-4.982,3.486-10.251,2.885-15.794c-1.028-9.479-5.571-16.631-14.151-21.025c-7.338-3.759-16.581-2.542-22.384,2.893
		c-4.356,4.078-5.889,9.84-3.967,14.91c1.279,2.216,2.708,4.259,5.21,5.298c2.909,1.207,6.088,0.032,6.772-2.575
		c0.313-1.195,0.313-2.643,1.135-3.547c0.853-0.94,1.622-1.313,3.334-1.625c0.862-0.156,2.034-0.18,3.07,0.066
		c0.874,0.208,1.826,0.647,2.437,1.155c0.537,0.45,1.063,0.866,1.666,2.394c1.001,2.61,0.788,5.333,0.36,7.958
		c-0.616,3.786-3.211,6.416-6.053,8.725c-4.546,3.693-10.009,4.101-15.374,3.195c-7.317-1.238-12.727-5.672-16.293-12.112
		c-4.031-7.28-4.551-15.042-1.862-22.854c4.25-12.346,13.273-19.447,25.825-21.965c8.981-1.802,17.636-0.292,25.674,4.257
		c8.574,4.856,14.614,11.922,18.371,21.004c1.582,3.82,2.217,7.885,3.209,11.856c2.632,10.526,7.686,19.667,15.813,26.94
		c12.446,11.143,26.911,15.614,43.441,12.534c8.872-1.653,16.575-5.798,23.032-12.104c1.504-1.473,3.112-1.493,4.726-0.962
		c2.896,0.953,5.742,2.096,8.514,3.368c2.889,1.323,5.837,0,6.958-2.371c0.923-1.943,2.035-3.804,3.177-5.633
		C265.294,218.224,264.508,215.703,262.861,214.246z M164.458,60.194h-4.712l-2.357-4.082l2.357-4.082h4.712l2.356,4.082
		L164.458,60.194z M67.982,222.939H63.27l-2.357-4.083l2.357-4.079h4.713l2.356,4.079L67.982,222.939z M161.248,169.829
		c-2.682,0.009-4.863-2.159-4.873-4.841c-0.008-2.684,2.158-4.865,4.84-4.874c2.684-0.009,4.866,2.157,4.876,4.84
		C166.1,167.637,163.932,169.819,161.248,169.829z M257.411,222.939h-4.713l-2.357-4.08l2.357-4.082h4.713l2.356,4.082
		L257.411,222.939z"/>
</g>
<g id="gear">
	
		<circle id="guide_circle" display="none" fill="#FFFFFF" stroke="#00FF0C" stroke-width="0.25" stroke-miterlimit="10" cx="165.685" cy="149.875" r="81.119"/>
	<path fill-rule="evenodd" clip-rule="evenodd" d="M44.557,195.758c0.228-3.584-0.488-10.223-0.896-12.674
		c-0.319-2.838-0.557-3.873-1.104-5.407c-0.789-2.213-1.946-4.285-3.486-6.163c-2.891-3.522-6.294-6.143-10.783-7.24
		c-1.986-0.485-3.984-1.04-5.893-1.695c-4.402-1.512-8.935-2.642-13.239-4.419c-3.042-1.257-5.114-3.355-6.191-6.668
		c-1.035-3.183-0.147-6.111,0.304-9.122c0.66-4.415,1.408-8.819,2.229-13.208c0.468-2.502,1.564-4.662,3.463-6.525
		c2.48-2.433,5.427-2.879,8.624-2.8c3.306,0.083,6.609,0.218,9.915,0.281c3.706,0.07,7.414,0.206,11.121,0.129
		c3.455-0.07,4.553-0.524,6.674-1.36c2.555-1.006,4.257-2.782,6.297-5.01c2.724-3.598,6.934-9.544,9.408-15.451
		c0.473-2.146,1.017-4.273,0.908-6.424c-0.182-3.601-0.691-7.104-2.845-10.286c-1.646-2.433-3.154-5.003-4.77-7.461
		c-1.468-2.235-2.863-4.537-4.377-6.75c-1.491-2.178-3.116-4.445-3.518-7.175c-0.426-2.898,0.075-5.585,1.958-8.014
		c2.281-2.94,5.395-4.923,8.075-7.401c2.228-2.061,4.574-4,6.918-5.931c1.957-1.613,4.187-2.524,6.767-2.79
		c3.564-0.366,6.138,1.313,8.628,3.501c2.48,2.179,4.973,4.343,7.427,6.554c2.82,2.54,5.722,4.992,8.643,7.42
		c2.312,1.436,3.167,1.818,5.508,2.652c1.945,0.636,3.871,0.871,5.83,0.953c7.556-0.064,19.034-3.635,23.481-7.67
		c2.411-2.335,3.459-3.183,4.839-5.767c0.907-1.799,1.432-3.54,1.916-5.446c0.508-2.01,4.791-22.661,5.395-25.508
		c0.9-4.238,4.835-6.296,10.335-6.315c7.089-0.027,10.927-0.05,17.99-0.063c3.429-0.006,8.132,2.724,8.96,6.068
		c0.691,2.784,4.604,25.406,4.837,26.803c0.605,2.796,1.867,4.247,2.324,5.029c2.216,3.419,4.527,5.688,8.366,7.458
		c3.555,1.556,12.967,4.431,13.994,4.715c3.345,0.924,6.742,0.94,10.023,0.247c3.52-0.742,6.718-2.368,9.402-4.958
		c3.213-2.961,5.497-4.942,8.799-7.874c1.849-1.643,3.643-3.345,5.488-4.991c1.48-1.322,3.139-2.287,5.1-2.825
		c4.051-1.113,7.363,0.362,10.358,2.825c4.284,3.516,8.479,7.137,12.706,10.715c1.911,1.619,3.122,3.587,3.765,6.08
		c0.939,3.646-0.521,6.552-2.232,9.497c-1.292,2.225-2.687,4.392-4.019,6.592c-1.137,1.883-2.436,3.708-3.639,5.566
		c-1.546,2.386-3.146,4.75-4.238,7.414c-1.787,4.358-1.575,6.66-0.711,10.368c0.504,2.308,4.299,10.9,5.489,12.888
		c1.186,2.393,2.423,4.615,4.35,6.887c1.849,2.142,2.982,3.52,9.064,5.745c2.141,0.897,7.238,0.866,10.912,0.707
		c3.444-0.149,6.89-0.265,10.335-0.301c2.568-0.028,5.131-0.413,7.71-0.024c4.508,0.679,7.346,3.207,8.648,7.535
		c1.303,4.333,1.715,8.838,2.564,13.258c0.409,2.117,0.732,4.25,1.062,6.381c0.413,2.685-0.44,5.169-1.741,7.376
		c-0.428,0.729-1.227,1.749-2.313,2.091c-0.459,0.145-0.674,0.55-0.971,0.868c-1.362,0.667-2.715,1.353-4.213,1.667
		c-2.381,0.987-4.899,1.57-7.322,2.447c-2.486,0.901-5.101,1.518-7.635,2.331c-2.158,0.69-4.333,1.344-6.391,2.345
		c-2.865,1.552-6.665,5.813-7.954,8.594c-0.861,1.865-4.362,16.115-4.388,18.206c-0.032,2.506,0.577,4.814,1.452,6.942
		c1.357,3.314,3.464,6.231,6.486,8.417c4.508,3.436,8.97,6.992,15.081,11.772c2.781,2.148,3.975,3.486,4.612,7.182
		c0.253,3.238-0.62,5.978-2.199,8.659c-2.831,4.817-5.559,9.696-8.464,14.47c-1.112,1.829-2.777,3.121-4.813,4.058
		c-3.54,1.627-6.724,0.619-10.043-0.646c-2.366-0.9-44.412-18.406-45.643-18.979c3.467-2.064,6.408-4.326,8.02-5.866
		c1.262-1.28,2.255-1.34,3.827-0.596c2.896,1.289,4.39,1.857,6.909,2.764c3.931,1.652,6.875,2.098,9.195-0.841
		c0.431-0.502,4.952-7.588,5.284-8.115c2.385-3.795,3.556-7.8-0.699-11.501c-2.52-2.157-4.024-3.639-7.332-6.467
		c-1.714-1.467-1.763-2.51-1.305-4.549c0.659-2.929,0.72-3.95,1.104-9.764c-0.035-1.82-0.03-4.438,0.097-6.42
		c0.925-5.322,1.253-7.15,1.699-12.027c0.347-3.806,0.434-7.12,0.12-14.298c-0.748-8.217-1.189-10.676-2.742-17.633
		c-1.95-7.011-3.187-11.017-5.571-16.219c-2.203-4.799-4.595-9.42-7.521-13.853c-3.307-4.845-3.907-5.709-6.753-9.19
		c-1.856-2.243-2.162-2.532-4.371-4.949c-1.585-1.524-2.586-2.632-3.099-3.139c-3.427-3.263-6.486-5.828-9.972-8.48
		c-2.715-1.954-3.328-2.357-7.445-5.028c-3.514-2.058-4.619-2.732-9.392-5.078c-4.868-2.16-5.747-2.552-12.242-4.813
		c-2.014-0.702-2.114-0.462-3.975-1.55c-4.542-2.661-7.079-3.919-10.288-5.091c-0.892-0.326-1.295-0.592-1.44-1.469
		c-0.182-1.103-0.182-1.103-1.996-12.029c-0.504-2.162-3.633-4.589-5.862-4.591c-11.049-0.006,0,0-11.049-0.006
		c-2.201-0.089-4.941,1.978-5.477,3.667c-2.893,13.005,0,0-2.893,13.005c-0.263,0.759-0.63,1.167-1.404,1.411
		c-3.216,1.012-5.76,2.396-8.643,4.116c-0.699,0.418-1.872,0.864-2.655,1.089c-5.417,1.55-10.812,3.251-15.913,5.6
		c-3.069,1.412-6.681,3.291-9.061,4.73c-2.605,1.547-4.274,2.567-7.005,4.49c-4.387,3.191-5.399,4.07-8.362,6.635
		c-2.387,2.063-5.643,5.317-6.763,6.523c-3.358,3.619-5.227,6.224-7.857,9.443c-3.615,4.939-6.363,9.459-8.938,14.649
		c-2.685,5.413-4.758,10.975-6.5,16.718c-1.491,5.852-2.5,10.315-3.108,15.212c-0.426,4.168-0.711,7.698-0.764,11.21
		c0.017,4.587,0.169,7.937,0.572,11.853c0.316,3.071,0.841,6.067,1.389,9.048c0.196,2.323,0.196,3.729,0.055,5.866
		c-0.27,3.02-0.335,6.507,0.154,10.479c0.149,1.204-0.017,2.579-0.945,3.488c-2.047,2.003-4.333,3.726-6.689,5.351
		c-2.836,1.957-4.466,4.079-4.072,7.282c2.509,6.348,3.771,8.28,6.529,12.643c2.891,3.098,4.196,2.926,8.161,1.727
		c5.981-2.019,6.223-2.087,9.134-3.033c1.624-0.506,2.065-0.527,3.176,0.261c3.621,2.632,4.89,3.435,9.467,5.912
		c-4.021,1.897-39.498,17.847-43.387,19.354c-1.699,0.66-3.358,1.514-5.167,1.864c-2.81,0.544-5.437,0.327-8.009-1.281
		c-3.852-2.406-5.079-6.621-7.408-10.065c-1.645-2.434-2.973-5.077-4.499-7.591c-1.596-2.626-2.424-5.323-2.204-8.513
		c0.225-3.246,2.149-5.254,4.228-7.178c2.159-1.999,4.589-3.706,6.898-5.544c3.05-2.424,6.108-4.837,9.142-7.283
		c2.292-2.261,3.01-3.059,4.908-6.303C44.002,199.046,44.267,198.047,44.557,195.758z"/>
	
		<line id="guide_line_1_" display="none" fill="none" stroke="#001FFF" stroke-width="0.2833" stroke-miterlimit="10" x1="42.909" y1="218.837" x2="284.017" y2="218.837"/>
	
		<line id="guide_line" display="none" fill="none" stroke="#001FFF" stroke-width="0.2833" stroke-miterlimit="10" x1="161.52" y1="252.097" x2="161.52" y2="10.989"/>
</g>
</svg>
