<?xml version="1.0" encoding="UTF-8" standalone="no"?>
<!-- Created with Inkscape (http://www.inkscape.org/) -->

<svg
   xmlns:dc="http://purl.org/dc/elements/1.1/"
   xmlns:cc="http://creativecommons.org/ns#"
   xmlns:rdf="http://www.w3.org/1999/02/22-rdf-syntax-ns#"
   xmlns:svg="http://www.w3.org/2000/svg"
   xmlns="http://www.w3.org/2000/svg"
   xmlns:sodipodi="http://sodipodi.sourceforge.net/DTD/sodipodi-0.dtd"
   xmlns:inkscape="http://www.inkscape.org/namespaces/inkscape"
   version="1.1"
   id="svg2"
   xml:space="preserve"
   width="894.14062"
   height="189.33333"
   viewBox="0 0 894.14061 189.33332"
   sodipodi:docname="bricogeek_solo.svg"
   inkscape:version="0.92.2 (5c3e80d, 2017-08-06)"><metadata
     id="metadata8"><rdf:RDF><cc:Work
         rdf:about=""><dc:format>image/svg+xml</dc:format><dc:type
           rdf:resource="http://purl.org/dc/dcmitype/StillImage" /><dc:title></dc:title></cc:Work></rdf:RDF></metadata><defs
     id="defs6"><clipPath
       clipPathUnits="userSpaceOnUse"
       id="clipPath18"><path
         d="M 0,841.89 H 1190.55 V 0 H 0 Z"
         id="path16"
         inkscape:connector-curvature="0" /></clipPath></defs><sodipodi:namedview
     pagecolor="#ffffff"
     bordercolor="#666666"
     borderopacity="1"
     objecttolerance="10"
     gridtolerance="10"
     guidetolerance="10"
     inkscape:pageopacity="0"
     inkscape:pageshadow="2"
     inkscape:window-width="1920"
     inkscape:window-height="1148"
     id="namedview4"
     showgrid="false"
     inkscape:zoom="0.42360046"
     inkscape:cx="938.94995"
     inkscape:cy="-425.3745"
     inkscape:window-x="-8"
     inkscape:window-y="-8"
     inkscape:window-maximized="1"
     inkscape:current-layer="g10"
     fit-margin-top="0"
     fit-margin-left="0"
     fit-margin-right="0"
     fit-margin-bottom="0"><sodipodi:guide
       position="-54.218717,-880.77432"
       orientation="0,1587.4"
       id="guide72"
       inkscape:locked="false" /><sodipodi:guide
       position="1533.1813,-880.77432"
       orientation="-1122.52,0"
       id="guide74"
       inkscape:locked="false" /><sodipodi:guide
       position="1533.1813,241.74566"
       orientation="0,-1587.4"
       id="guide76"
       inkscape:locked="false" /><sodipodi:guide
       position="-54.218717,241.74566"
       orientation="1122.52,0"
       id="guide78"
       inkscape:locked="false" /></sodipodi:namedview><g
     id="g10"
     inkscape:groupmode="layer"
     inkscape:label="bricogeek_solo"
     transform="matrix(1.3333333,0,0,-1.3333333,-54.218719,1070.1076)"><g
       id="g12"
       transform="translate(-236.33566,175.69104)"><g
         id="g14"
         clip-path="url(#clipPath18)"><g
           id="g20"
           transform="translate(443.5937,622.7397)"><path
             d="M 0,0 C -0.895,1.445 0.419,4.15 2.014,4.15 3.751,4.15 3.738,3.171 1.971,0.84 1.207,-0.168 0.334,-0.541 0,0 m -20.844,-18.093 c -1.87,0.416 -2.371,2.74 -0.801,3.712 0.523,0.323 1.459,-0.364 2.082,-1.527 1.301,-2.432 1.131,-2.721 -1.281,-2.185 m 413.75,-1.757 c 0.34,0.55 0.816,1 1.06,1 0.242,0 0.44,-0.45 0.44,-1 0,-0.55 -0.477,-1 -1.059,-1 -0.582,0 -0.781,0.45 -0.441,1 m 2.313,-9.317 c 0.723,0.289 1.585,0.253 1.917,-0.079 0.332,-0.332 -0.258,-0.568 -1.313,-0.525 -1.165,0.048 -1.401,0.285 -0.604,0.604 m -25.563,-2.994 c 0.963,0.251 2.538,0.251 3.5,0 0.963,-0.251 0.176,-0.458 -1.75,-0.458 -1.926,10e-4 -2.712,0.207 -1.75,0.458 m -114.95,1.311 c 0,3.025 0.188,4.263 0.417,2.75 0.229,-1.512 0.229,-3.987 0,-5.5 -0.229,-1.512 -0.417,-0.275 -0.417,2.75 m -102.653,-4.519 c -0.331,0.862 -1.624,1.978 -2.874,2.48 -1.464,0.588 -1.704,0.935 -0.677,0.976 1.727,0.068 5.567,-3.606 4.688,-4.486 -0.295,-0.295 -0.806,0.168 -1.137,1.03 m 19.432,-1.731 c -0.081,2.293 2.25,3.145 3.421,1.25 0.341,-0.55 -0.046,-1 -0.857,-1 -0.813,0 -1.702,-0.563 -1.98,-1.25 -0.276,-0.687 -0.541,-0.237 -0.584,1 m 187.952,-2.089 c -0.037,1.404 5.648,6.34 7.295,6.335 0.647,-0.002 -0.25,-0.872 -1.988,-1.932 -1.739,-1.06 -3.639,-2.746 -4.219,-3.746 -0.582,-1 -1.071,-1.296 -1.088,-0.657 M -0.261,-40.445 c 0,0.772 0.601,1.174 1.333,0.893 0.734,-0.282 1.334,-0.914 1.334,-1.405 0,-0.491 -0.6,-0.893 -1.334,-0.893 -0.732,0 -1.333,0.632 -1.333,1.405 m 153.862,0.095 c 0.021,1.65 0.245,2.204 0.498,1.231 0.254,-0.973 0.237,-2.323 -0.037,-3 -0.273,-0.677 -0.481,0.119 -0.461,1.769 M 49.656,-45.147 c -0.687,0.255 -1.25,1.101 -1.25,1.88 0,0.779 -0.524,1.417 -1.167,1.417 -2.039,0 0.143,1.396 2.723,1.741 1.585,0.212 2.703,-0.25 3.1,-1.282 0.722,-1.884 -1.586,-4.43 -3.406,-3.756 m 138.574,-0.377 c -0.372,1.825 -0.231,2.482 0.395,1.856 0.533,-0.533 0.792,-1.805 0.576,-2.826 -0.292,-1.375 -0.543,-1.123 -0.971,0.97 m 211.989,-3.643 c 0.723,0.289 1.585,0.253 1.917,-0.079 0.332,-0.332 -0.258,-0.568 -1.313,-0.525 -1.165,0.048 -1.401,0.285 -0.604,0.604 M 188.906,-24.85 c 0.341,0.55 0.143,1 -0.44,1 -0.582,0 -1.06,-0.45 -1.06,-1 0,-0.55 0.198,-1 0.441,-1 0.244,0 0.719,0.45 1.059,1 m 55.009,-25.026 c -0.346,1.085 -1.726,2.838 -3.067,3.894 -1.343,1.056 -2.44,2.669 -2.44,3.585 0,0.916 -0.339,1.508 -0.75,1.317 -0.413,-0.191 -2.101,0.97 -3.75,2.58 l -3,2.927 3.228,-1.652 c 3.19,-1.634 3.234,-1.624 3.851,0.837 0.345,1.37 0.019,4.393 -0.726,6.719 -2.091,6.537 -5.943,8.3 -18.353,8.398 -5.5,0.044 -11.125,0.55 -12.5,1.124 -2.076,0.867 -2.618,0.737 -3.194,-0.765 -0.381,-0.995 -1.531,-2.256 -2.555,-2.805 -1.024,-0.548 -2.727,-2.603 -3.784,-4.565 -1.058,-1.963 -2.382,-3.568 -2.944,-3.567 -0.563,0.001 -2.612,1.688 -4.552,3.75 -2.852,3.027 -4.245,3.749 -7.25,3.749 -2.046,0 -3.721,0.183 -3.721,0.406 -0.002,1.245 5.312,7.094 6.443,7.094 0.738,0 1.579,0.616 1.867,1.369 0.783,2.041 8.44,6.018 15.284,7.938 10.903,3.06 31.31,1.95 46.689,-2.539 3.786,-1.105 3.787,-1.106 3.137,-5.445 -0.43,-2.858 -0.229,-4.849 0.586,-5.831 0.681,-0.82 0.845,-1.49 0.364,-1.488 -0.479,0.002 -0.709,-3.937 -0.509,-8.75 0.259,-6.245 0.622,-8.18 1.266,-6.752 0.688,1.525 0.764,1.287 0.318,-1 -0.573,-2.944 -5.055,-11.5 -6.024,-11.5 -0.271,0 -0.028,0.871 0.543,1.934 1.633,3.052 1.233,4.066 -1.597,4.066 -2.447,0 -2.591,-0.243 -2.062,-3.5 0.621,-3.83 0.192,-4.65 -0.798,-1.528 m -186.759,0.557 c -0.963,1.29 -1.748,3.161 -1.745,4.157 0.003,1.25 0.639,0.771 2.048,-1.542 2.431,-3.987 2.202,-5.971 -0.303,-2.615 m 91.932,-1.584 c 0.648,0.856 1.884,2.906 2.743,4.555 0.859,1.648 1.565,2.306 1.568,1.46 0.004,-0.846 -1.229,-2.896 -2.743,-4.555 -1.512,-1.659 -2.219,-2.316 -1.568,-1.46 M 50.391,-51.1 c -0.012,1.302 -0.226,1.417 -0.838,0.453 -1.012,-1.595 -2.492,-0.058 -3.657,3.797 -0.732,2.423 -0.695,2.446 1.206,0.75 1.079,-0.962 2.489,-1.75 3.132,-1.75 0.646,0 1.172,-0.413 1.172,-0.918 0,-0.505 0.273,-1.63 0.607,-2.5 0.334,-0.87 0.109,-1.582 -0.5,-1.582 -0.609,0 -1.114,0.788 -1.122,1.75 m 5.062,-0.836 c -0.614,1.147 -0.699,2.085 -0.188,2.085 1.028,0 2.446,-3.029 1.747,-3.729 -0.244,-0.242 -0.947,0.497 -1.559,1.644 m 133.953,-3.013 c 0,1.039 1.903,2.542 2.467,1.949 0.183,-0.192 -0.298,-0.93 -1.067,-1.64 -0.77,-0.709 -1.4,-0.848 -1.4,-0.309 M 167.027,-56.1 c 0.889,3.698 0.887,3.697 4.348,2.263 3.579,-1.482 3.944,-3.535 0.781,-4.383 -4.761,-1.276 -5.837,-0.832 -5.129,2.12 m 11.879,-2.75 c -0.34,0.55 -0.141,1 0.441,1 0.583,0 1.059,-0.45 1.059,-1 0,-0.55 -0.197,-1 -0.44,-1 -0.243,0 -0.719,0.45 -1.06,1 m 10.846,-0.457 c -0.325,0.849 -0.368,1.767 -0.097,2.04 0.274,0.273 0.737,-0.421 1.031,-1.543 0.623,-2.383 -0.069,-2.751 -0.934,-0.497 m 270.226,9.886 c 1.576,1.576 1.834,2.571 0.668,2.571 -0.417,0 -1.32,-0.9 -2.008,-2 -1.452,-2.326 -0.724,-2.636 1.34,-0.571 m 2.814,-11.032 c 0.39,1.552 -0.034,3.182 -1.2,4.623 -1.743,2.152 -2.039,2.185 -9.023,1.007 -9.477,-1.599 -10.162,-1.265 -10.162,4.941 v 5.032 h 18 18 v -4.893 c 0,-5.057 -0.873,-6.107 -5.078,-6.107 -1.054,0 -3.659,-1.575 -5.79,-3.5 -4.565,-4.124 -5.564,-4.356 -4.747,-1.103 m -257.439,0.189 c -1.896,1.972 -5.021,4.427 -6.947,5.456 -2.073,1.108 -2.806,1.888 -1.797,1.915 1.493,0.039 14.171,-10.826 12.744,-10.919 -0.304,-0.021 -2.105,1.576 -4,3.548 M 66.947,-66.6 c -1.124,9.125 -1.577,10.432 -4.089,11.776 -2.209,1.182 -2.452,1.945 -2.452,7.674 0,4.179 0.43,6.52 1.25,6.82 0.689,0.251 4.625,-0.334 8.75,-1.301 l 7.5,-1.759 0.627,-6.98 c 0.344,-3.839 0.682,-10.242 0.75,-14.23 l 0.123,-7.25 h -5.905 -5.906 z m 341.459,-7.25 c 0,1.269 3.035,1.269 5,0 1.139,-0.734 0.717,-0.973 -1.75,-0.984 -1.787,-0.008 -3.25,0.434 -3.25,0.984 M 202.422,-82.1 c 0.009,0.412 0.434,1.412 0.946,2.221 1.151,1.822 2.504,0.684 1.693,-1.428 -0.597,-1.559 -2.668,-2.18 -2.639,-0.793 m 273.984,-2.809 c 0,1.823 1.829,2.034 5.147,0.593 l 3.353,-1.456 -4.25,-0.039 c -2.337,-0.022 -4.25,0.385 -4.25,0.902 M 22.563,-122.85 c 0,1.375 0.229,1.937 0.505,1.25 0.278,-0.688 0.278,-1.813 0,-2.5 -0.276,-0.688 -0.505,-0.125 -0.505,1.25 m 422.843,47 c 0,0.551 -0.198,1 -0.44,1 -0.243,0 -0.719,-0.449 -1.06,-1 -0.34,-0.55 -0.141,-1 0.441,-1 0.582,0 1.059,0.45 1.059,1 m -18,-13 c 0,0.551 -0.477,1 -1.059,1 -0.582,0 -0.781,-0.449 -0.441,-1 0.341,-0.55 0.817,-1 1.06,-1 0.243,0 0.44,0.45 0.44,1 m 28.447,-6.914 c -0.321,0.521 -1.012,0.683 -1.532,0.361 -0.52,-0.323 -0.684,-1.012 -0.361,-1.533 0.321,-0.522 1.011,-0.684 1.532,-0.361 0.521,0.323 0.684,1.011 0.361,1.533 m -30.72,-1.502 c -1.526,0.828 -3.22,1.228 -3.766,0.891 -1.791,-1.105 0.093,-2.475 3.349,-2.435 l 3.19,0.04 z m 34.273,-2.143 c 0,0.242 -0.449,0.719 -1,1.059 -0.551,0.34 -1,0.142 -1,-0.442 0,-0.582 0.449,-1.058 1,-1.058 0.551,0 1,0.198 1,0.441 m 6,-14.941 c 0,0.825 -0.66,1.5 -1.469,1.5 -0.894,0 -1.243,-0.586 -0.893,-1.5 0.316,-0.824 0.977,-1.5 1.469,-1.5 0.491,0 0.893,0.676 0.893,1.5 m -44.348,-11.751 c -15.675,0.263 -17.775,0.487 -17.25,1.856 0.329,0.857 0.598,3.092 0.598,4.965 0,3.21 0.234,3.444 4.067,4.057 2.237,0.357 4.646,1.228 5.354,1.937 1.454,1.455 2.528,16.985 2.679,38.713 0.093,13.513 0.042,13.848 -2.618,17.336 -1.492,1.957 -4.124,4.417 -5.848,5.469 -1.724,1.051 -2.769,1.913 -2.318,1.915 1.905,0.008 5.402,-2.414 8.419,-5.832 l 3.235,-3.665 0.015,17.627 c 0.017,19.36 0.06,19.218 -6.235,20.395 l -3.75,0.701 v 5.139 5.139 h 13.624 13.624 l -0.729,-30.25 c -0.402,-16.637 -0.409,-30.25 -0.018,-30.25 0.394,0 2.687,2.138 5.096,4.75 4.292,4.654 4.381,4.694 4.393,2.008 0.005,-1.784 1.069,-3.687 3.042,-5.445 1.988,-1.77 2.803,-3.236 2.366,-4.257 -0.366,-0.855 -0.626,-2.442 -0.577,-3.526 0.048,-1.086 -0.514,-2.66 -1.248,-3.5 -0.735,-0.842 -1.638,-2.515 -2.003,-3.723 -0.497,-1.628 -1.618,-2.291 -4.37,-2.582 l -3.7,-0.389 4.25,-0.168 c 4.773,-0.189 5.562,-1.944 2.507,-5.59 -1.601,-1.91 -1.541,-1.901 0.75,0.104 1.923,1.686 2.906,1.952 4.304,1.167 0.996,-0.559 2.458,-0.769 3.25,-0.465 0.792,0.304 1.469,0.004 1.503,-0.666 0.034,-0.67 0.493,-0.145 1.019,1.17 0.913,2.281 1.04,2.311 2.869,0.655 1.053,-0.952 1.693,-2.306 1.424,-3.009 -0.27,-0.701 1.338,-2.725 3.572,-4.494 2.234,-1.77 3.809,-3.627 3.499,-4.129 -0.311,-0.502 -0.098,-0.912 0.474,-0.912 0.572,0 3.436,-2.475 6.366,-5.5 3.885,-4.012 6.063,-5.5 8.045,-5.5 2.992,0 4.669,-2.854 4.669,-7.947 v -2.817 l -18.044,-0.166 c -9.924,-0.092 -18.699,-0.418 -19.5,-0.724 -1.168,-0.45 -1.456,0.548 -1.456,5.046 0,4.668 0.293,5.61 1.75,5.624 4.878,0.042 4.354,1.628 -4.213,12.763 -9.354,12.158 -10.537,13.319 -10.537,10.34 0,-1.102 -0.451,-2.277 -1.003,-2.62 -0.67,-0.414 -0.67,-1.239 0,-2.491 0.552,-1.032 1.003,-4.567 1.003,-7.86 0,-7.834 0.536,-8.968 4.597,-9.73 3.371,-0.633 3.403,-0.69 3.403,-6.027 0,-3.764 -0.377,-5.321 -1.25,-5.163 -0.688,0.123 -9.282,0.359 -19.098,0.523 h -0.001 z M 279.406,-51.85 c 0,0.55 -0.701,1 -1.559,1 -0.858,0 -1.281,-0.45 -0.94,-1 0.34,-0.55 1.041,-1 1.559,-1 0.518,0 0.94,0.45 0.94,1 m -8.16,-1.453 c 1.559,3.42 1.688,3.214 -2.875,4.582 -3.603,1.08 -4.326,0.992 -6.75,-0.816 -4.38,-3.268 -4.057,-5.128 0.974,-5.578 2.372,-0.212 5.027,-0.464 5.901,-0.561 0.874,-0.097 2.111,0.972 2.75,2.373 m 4.875,-3.633 c 0.941,1.506 0.919,2.145 -0.102,2.992 -1.645,1.365 -2.613,0.412 -2.613,-2.573 0,-2.831 1.103,-3.001 2.715,-0.419 m -45.984,-0.991 c 0.676,0.042 1.524,1.245 1.883,2.672 0.464,1.854 0.882,2.221 1.461,1.283 0.446,-0.721 0.365,-1.849 -0.181,-2.506 -0.646,-0.777 -0.65,-1.406 -0.012,-1.8 1.152,-0.712 1.609,-0.039 2.499,3.677 0.497,2.082 0.288,2.75 -0.862,2.75 -0.835,0 -1.52,0.645 -1.52,1.433 0,2.248 -3.513,2.798 -7.426,1.163 -3.583,-1.497 -4.94,-4.595 -2.015,-4.595 0.856,0 1.306,-0.409 0.997,-0.91 -0.974,-1.573 0.508,-3.907 2.263,-3.568 0.925,0.179 2.237,0.359 2.913,0.401 m -8.184,-1.34 c 0.054,2.773 -0.763,3.067 -2.547,0.917 -0.993,-1.198 -0.989,-1.807 0.021,-3.024 1.548,-1.866 2.464,-1.102 2.526,2.107 m 29.703,-2.894 c 0.963,0.251 2.537,0.251 3.5,0 0.963,-0.251 0.176,-0.458 -1.75,-0.458 -1.926,10e-4 -2.713,0.207 -1.75,0.458 m 8.065,-0.745 c 1.183,1.139 -2.095,4.056 -4.557,4.056 -2.375,0 -5.758,-2.676 -5.758,-4.556 0,-1.368 8.82,-0.941 10.315,0.5 m 10.333,-2.218 c 2.081,0.454 2.097,0.566 0.5,3.622 -0.906,1.734 -1.648,3.209 -1.648,3.279 0,0.069 -1.079,0.458 -2.399,0.865 l -2.4,0.739 2.24,-3.146 2.24,-3.146 -3.73,2.531 c -4.938,3.352 -7.277,3.424 -4.772,0.147 1.003,-1.312 2.49,-3.344 3.307,-4.518 0.919,-1.322 2.06,-1.888 3,-1.487 0.832,0.354 2.481,0.856 3.662,1.114 m -51.359,-0.726 c -0.286,1.1 -0.694,2 -0.905,2 -0.211,0 -0.384,-0.9 -0.384,-2 0,-1.1 0.407,-2 0.906,-2 0.499,0 0.671,0.9 0.383,2 m -50.596,1.731 c -0.253,0.973 -0.478,0.419 -0.498,-1.231 -0.02,-1.65 0.188,-2.445 0.461,-1.77 0.275,0.678 0.291,2.028 0.037,3.001 m 133.307,-3.944 c 0,2.687 -0.816,4.767 -2.808,7.152 l -2.809,3.364 -2.169,-2.758 c -2.52,-3.202 -1.987,-4.875 2.84,-8.938 4.147,-3.488 4.946,-3.297 4.946,1.18 m -82,-2.287 c 0,0.825 -0.436,1.5 -0.969,1.5 -0.533,0 -0.709,-0.675 -0.393,-1.5 0.316,-0.824 0.753,-1.5 0.969,-1.5 0.216,0 0.393,0.676 0.393,1.5 m 93.485,-1.164 c 1.007,1.539 1.314,3.417 0.897,5.502 -0.849,4.238 -7.885,12.162 -10.801,12.162 -3.885,0 -3.675,-1.166 0.941,-5.229 3.599,-3.167 4.477,-4.587 4.477,-7.233 0,-1.812 -0.675,-3.853 -1.5,-4.538 -1.036,-0.859 -1.5,-0.899 -1.5,-0.123 0,0.618 0.45,1.123 1,1.123 1.472,0 1.157,3.207 -0.531,5.441 -1.383,1.828 -1.469,1.741 -1.482,-1.5 -0.008,-1.892 -0.284,-4.453 -0.616,-5.691 -0.554,-2.065 -0.267,-2.25 3.491,-2.25 3.186,0 4.433,0.517 5.624,2.336 m 6.515,0.469 c 0,4.432 -4.344,13.774 -7.088,15.243 -1.603,0.858 -1.516,0.458 0.572,-2.618 3.702,-5.456 4.24,-9.957 1.613,-13.511 l -2.157,-2.918 h 3.53 c 3.422,-10e-4 3.53,0.116 3.53,3.804 M 299.24,-74.04 c -0.485,1.182 -8.834,8.539 -8.834,7.786 0,-0.35 1.131,-2.427 2.513,-4.616 1.61,-2.55 3.257,-3.98 4.584,-3.98 1.138,0 1.921,0.365 1.737,0.81 m 83.835,-1.709 c 7.234,1.262 7.456,1.749 4.82,10.623 -3.071,10.344 -12.468,14.372 -20.614,8.836 -1.974,-1.341 -4.388,-4.122 -5.363,-6.178 -1.747,-3.681 -1.737,-3.809 0.607,-8.168 1.31,-2.437 3.281,-4.802 4.381,-5.258 2.854,-1.183 8.844,-1.129 16.169,0.145 M 269.768,-77.35 c 0.316,0.825 1.624,1.5 2.907,1.5 1.282,0 2.938,0.562 3.678,1.25 0.801,0.744 1.088,0.788 0.709,0.109 -0.352,-0.627 0.459,-1.859 1.801,-2.738 3.666,-2.402 4.57,0.154 0.98,2.771 -1.578,1.148 -3.547,2.881 -4.375,3.848 -2.017,2.356 -3.346,2.231 -2.563,-0.24 0.434,-1.363 0.18,-2 -0.793,-2 -0.985,0 -1.28,0.777 -0.951,2.5 0.412,2.154 0.114,2.5 -2.154,2.5 -2.31,0 -2.604,-0.369 -2.403,-3 0.125,-1.65 0.571,-3 0.99,-3 0.419,0 0.335,-1.125 -0.188,-2.5 -0.728,-1.912 -0.629,-2.5 0.417,-2.5 0.754,0 1.629,0.676 1.945,1.5 m -0.362,-4.108 c 0,0.217 -0.698,0.663 -1.552,0.991 -0.89,0.34 -1.292,0.172 -0.94,-0.395 0.587,-0.949 2.492,-1.405 2.492,-0.596 m 88,-2.392 c 0,0.551 -0.701,1 -1.559,1 -0.858,0 -1.281,-0.449 -0.941,-1 0.341,-0.55 1.042,-1 1.56,-1 0.518,0 0.94,0.45 0.94,1 m -69.5,0 c 0.341,0.551 -0.109,1 -1,1 -0.89,0 -1.34,-0.449 -1,-1 0.341,-0.55 0.79,-1 1,-1 0.211,0 0.66,0.45 1,1 m 64.244,-0.59 c 0.406,0.406 -0.045,1.179 -1.002,1.715 -0.959,0.535 -1.742,1.551 -1.742,2.256 0,1.67 -4.23,3.914 -6.535,3.469 -2.3,-0.448 -3.156,-2.85 -1.017,-2.85 0.889,0 1.896,-0.787 2.239,-1.75 0.343,-0.963 1.031,-2.279 1.528,-2.926 0.953,-1.234 5.265,-1.18 6.529,0.086 m -69.744,-0.375 c 0,1.799 -6.866,7.965 -8.869,7.965 h -2.135 l 1.967,-3.669 c 1.082,-2.019 2.392,-3.931 2.91,-4.25 1.494,-0.92 6.127,-0.955 6.127,-0.046 m -66.307,-4.305 c -0.253,0.974 -0.478,0.42 -0.498,-1.23 -0.02,-1.65 0.188,-2.445 0.461,-1.77 0.275,0.678 0.291,2.028 0.037,3 m 53.687,-2.48 c -0.701,8.012 -1.523,9.705 -3.793,7.822 -0.824,-0.685 -1.97,-0.954 -2.543,-0.599 -1.407,0.869 -1.318,0.123 0.505,-4.256 1.391,-3.339 5.559,-10.194 6.209,-10.211 0.14,-0.002 -0.029,3.258 -0.378,7.244 m 43.67,-18.725 c 1.623,0.84 2.95,1.896 2.95,2.349 0,0.453 -1.763,1.618 -3.918,2.589 -4.628,2.088 -11.426,8.369 -13.595,12.562 -1.358,2.627 -2.061,2.976 -6.013,2.976 -5.031,0 -5.074,-0.103 -3.4,-7.909 1.898,-8.851 7.924,-14.08 16.226,-14.087 2.64,-0.003 6.128,0.68 7.75,1.52 m -103.55,-15.593 c -13.406,2.205 -21.55,5.988 -29.064,13.503 -9.765,9.765 -14.436,23.265 -14.436,41.726 v 10.84 h 3 c 2,0 3,-0.5 3,-1.5 0,-0.825 0.45,-1.5 1,-1.5 0.551,0 0.947,-0.337 0.882,-0.75 -0.3,-1.893 0.265,-2.242 2.063,-1.28 1.631,0.874 2.153,0.599 3.256,-1.715 0.877,-1.839 2.227,-2.86 4.056,-3.071 3.005,-0.347 3.312,-1.109 4.093,-10.184 1.584,-18.405 12.869,-29.629 30.887,-30.719 10.219,-0.619 15.143,0.495 15.585,3.526 0.317,2.176 -0.763,2.67 -4.947,2.266 -0.895,-0.088 -1.893,0.535 -2.219,1.385 -0.325,0.849 -0.169,1.542 0.346,1.542 0.517,0 0.679,0.677 0.362,1.5 -1.044,2.72 -2.331,1.563 -1.945,-1.75 l 0.38,-3.248 -3.268,3.889 c -1.883,2.245 -3.744,3.594 -4.396,3.191 -1.803,-1.112 -1.319,-3.338 1.091,-5.025 2.506,-1.755 1.658,-2.099 -1.289,-0.521 -1.39,0.744 -1.935,2.102 -1.935,4.824 v 3.791 l -7.59,0.196 c -8.765,0.226 -12.641,1.843 -15.45,6.453 -3.354,5.5 -2.454,12.187 2.351,17.463 l 2.06,2.261 -3.433,3.738 -3.435,3.739 3.999,-3.676 c 2.783,-2.56 4.758,-3.59 6.499,-3.389 1.375,0.161 1.712,0.096 0.75,-0.142 -2.564,-0.633 -2.238,-1.378 2.484,-5.668 l 4.266,-3.875 -4.752,3.691 c -5.49,4.27 -7.894,4.112 -10.371,-0.677 -2.641,-5.108 -1.362,-11.474 3.129,-15.59 3.542,-3.246 3.981,-3.377 10.061,-2.989 3.496,0.223 6.711,0.762 7.145,1.2 0.434,0.436 -0.488,1.813 -2.051,3.062 -2.077,1.66 -2.716,2.908 -2.385,4.66 0.393,2.08 0.469,2.119 0.587,0.297 0.076,-1.152 0.983,-2.859 2.018,-3.797 1.792,-1.621 1.916,-1.568 2.661,1.096 1.139,4.076 1.114,9.291 -0.041,9.327 -0.552,0.017 -0.214,0.489 0.75,1.05 2.298,1.338 2.209,3.066 -0.323,6.285 -1.578,2.006 -2.963,2.635 -5.81,2.635 -3.18,0 -9.549,2.878 -6.567,2.968 0.577,0.017 1.53,-0.449 2.118,-1.037 0.588,-0.588 2.684,-0.925 4.658,-0.75 l 3.592,0.318 -2.044,4.5 c -4.805,10.582 0.127,22.979 10.126,25.454 2.212,0.548 2.153,0.428 -0.5,-1.039 -6.854,-3.788 -10.5,-8.934 -10.5,-14.816 0,-2.278 0.61,-3.855 1.75,-4.519 0.962,-0.561 1.2,-1.033 0.53,-1.05 -1.565,-0.039 -0.46,-3.03 1.122,-3.03 0.654,0 2.536,2.362 4.183,5.25 2.054,3.602 4.258,5.914 7.022,7.366 4.974,2.611 10.386,2.674 10.39,0.121 10e-4,-0.97 0.55,-2.639 1.218,-3.71 1.15,-1.843 1.317,-1.855 3.142,-0.236 1.862,1.653 1.879,1.635 0.544,-0.54 -0.76,-1.238 -1.948,-2.25 -2.642,-2.25 -0.692,0 -1.252,-0.788 -1.244,-1.75 0.014,-1.496 0.156,-1.532 0.985,-0.25 0.776,1.201 0.972,1.029 0.984,-0.865 0.014,-2.339 0.044,-2.346 2.766,-0.605 l 2.75,1.759 -2.25,-2.459 c -2.48,-2.71 -3.071,-4.756 -0.841,-2.903 0.966,0.8 1.617,0.839 2.061,0.122 0.355,-0.577 0.172,-1.048 -0.411,-1.048 -0.582,0 -1.059,-0.45 -1.059,-1 0,-0.55 0.599,-1 1.331,-1 2.241,0 4,4.56 3.352,8.695 -0.461,2.943 -0.36,3.392 0.451,1.981 0.985,-1.717 1.155,-1.725 2.922,-0.126 1.119,1.013 2.859,1.508 4.319,1.229 2.93,-0.56 5.017,2.77 3.469,5.535 -0.599,1.069 -0.59,1.686 0.022,1.686 0.531,0 1.151,-0.554 1.377,-1.23 0.317,-0.952 0.957,-0.968 2.833,-0.068 1.333,0.639 1.86,1.193 1.173,1.23 -1.075,0.058 -1.921,3.068 -0.862,3.068 0.214,0 3.316,-1.371 6.896,-3.045 7.985,-3.736 12.297,-3.381 11.205,0.923 -1.705,6.717 -2.567,15.017 -1.977,19.003 0.736,4.958 2.4,9.12 3.649,9.12 1.201,0 1.046,-1.262 -0.661,-5.346 -2.434,-5.825 -1.199,-24.654 1.616,-24.654 0.522,0 3.21,1.145 5.971,2.543 13.716,6.951 30.836,4.445 39.463,-5.774 4.2,-4.977 8.17,-14.178 9.488,-21.996 0.792,-4.693 1.474,-6.572 2.052,-5.651 0.476,0.759 0.632,2.128 0.347,3.044 -0.81,2.603 1.277,3.119 3.527,0.87 1.12,-1.12 2.339,-2.036 2.708,-2.036 0.369,0 1.521,-0.77 2.561,-1.711 1.587,-1.436 2.029,-1.485 2.758,-0.305 0.625,1.012 -0.23,2.248 -3.061,4.424 -3.326,2.557 -3.93,3.59 -3.93,6.736 0,3.059 0.398,3.793 2.25,4.15 l 2.25,0.434 -2.25,0.136 c -1.237,0.075 -2.25,0.531 -2.25,1.014 0,2.986 3.699,8.585 8.496,12.861 6.429,5.729 12.825,7.805 23.702,7.691 7.088,-0.075 7.19,0.064 3.403,4.57 l -2.102,2.5 2.766,-2.438 2.765,-2.438 4.235,3.938 4.234,3.938 -4.213,-4.5 c -2.361,-2.522 -3.9,-4.984 -3.5,-5.602 0.393,-0.606 2.42,-1.903 4.506,-2.884 3.762,-1.768 3.814,-1.763 6.5,0.603 l 2.707,2.384 -2.271,-2.587 -2.271,-2.587 3.443,-3.651 c 6.917,-7.334 10.535,-18.036 10.575,-31.274 l 0.025,-8.101 -9.153,-0.649 c -5.034,-0.357 -16.06,-0.648 -24.5,-0.648 h -15.347 v -2.559 c 0,-4.101 1.989,-10.762 3.915,-13.114 4.829,-5.896 14.633,-8.166 21.016,-4.864 3.448,1.783 7.27,6.19 9.012,10.393 1.054,2.546 1.715,3.017 3.582,2.548 1.259,-0.316 3.273,-0.049 4.476,0.596 3.374,1.804 7,0.47 7,-2.576 0,-3.896 -5.642,-14.438 -10.262,-19.168 -5.849,-5.993 -11.118,-7.772 -22.738,-7.685 -11.826,0.089 -17.854,2.427 -24.455,9.483 -6.626,7.084 -10.648,18.024 -10.411,28.314 0.072,3.136 -0.153,5.983 -0.501,6.332 -0.348,0.349 -0.633,-1.243 -0.633,-3.534 v -4.166 h -17.56 -17.561 l 3.694,-5.287 c 3.754,-5.371 10.737,-11.259 12.248,-10.325 0.457,0.284 1.626,2.278 2.598,4.432 1.682,3.729 2.032,3.945 7.258,4.484 3.02,0.313 6.128,0.323 6.906,0.023 3.438,-1.318 -0.103,-12.075 -6.757,-20.525 -8.046,-10.218 -29.362,-12.841 -42.493,-5.232 -4.425,2.564 -10.021,8.508 -12.362,13.133 -0.779,1.537 -2.941,4.541 -4.806,6.672 -1.864,2.133 -4.743,6.769 -6.397,10.304 -2.458,5.254 -3.395,6.371 -5.128,6.123 -1.209,-0.171 -2.257,-1.162 -2.438,-2.302 -0.176,-1.102 -0.58,-2.676 -0.899,-3.5 -0.319,-0.826 -0.631,-8.022 -0.692,-15.992 l -0.109,-14.493 -8,-1.737 c -9.346,-2.028 -28.819,-3.028 -36.001,-1.849 v -0.005 z m -100,63.068 c 0.341,0.55 -0.084,1 -0.94,1 -0.858,0 -1.56,-0.45 -1.56,-1 0,-0.55 0.424,-1 0.941,-1 0.516,0 1.219,0.45 1.559,1 m 16,-2 c 0.341,0.55 -0.084,1 -0.94,1 -0.858,0 -1.56,-0.45 -1.56,-1 0,-0.55 0.424,-1 0.941,-1 0.516,0 1.219,0.45 1.559,1 m 9.5,-0.5 c 0,0.825 -0.675,1.5 -1.5,1.5 -2.602,0 -1.76,-1.971 1.25,-2.921 0.139,-0.043 0.25,0.596 0.25,1.421 m -22.078,0.75 c -0.054,1.503 -0.269,1.752 -0.65,0.75 -0.314,-0.825 -1.066,-1.831 -1.671,-2.235 -0.679,-0.453 -0.43,-0.74 0.649,-0.75 1.177,-0.011 1.725,0.723 1.672,2.235 m 7.078,-3.25 c 0,0.551 -0.873,1 -1.94,1 -1.068,0 -2.219,-0.449 -2.56,-1 -0.35,-0.567 0.49,-1 1.941,-1 1.409,0 2.559,0.45 2.559,1 m 11,-0.5 c 0,0.825 -0.449,1.5 -1,1.5 -0.55,0 -1,-0.675 -1,-1.5 0,-0.824 0.45,-1.5 1,-1.5 0.551,0 1,0.676 1,1.5 m -4,0.558 c 0,0.519 -0.66,0.942 -1.468,0.942 -0.893,0 -1.245,-0.586 -0.896,-1.494 0.592,-1.539 2.364,-1.123 2.364,0.552 m -15.895,-0.761 c -1.283,1.283 -2.585,0.291 -1.635,-1.246 0.368,-0.596 1.127,-0.801 1.687,-0.453 0.683,0.419 0.665,0.98 -0.052,1.699 m 9.395,-2.297 c 0.341,0.551 0.143,1 -0.44,1 -0.582,0 -1.06,-0.449 -1.06,-1 0,-0.55 0.198,-1 0.441,-1 0.244,0 0.719,0.45 1.059,1 m -5.5,0 c 0,0.551 -0.449,1 -1,1 -0.55,0 -1,-0.449 -1,-1 0,-0.55 0.45,-1 1,-1 0.551,0 1,0.45 1,1 m -6,-5 c 0,0.551 0.701,1 1.56,1 0.857,0 1.281,-0.449 0.94,-1 -0.34,-0.55 -1.042,-1 -1.559,-1 -0.518,0 -0.941,0.45 -0.941,1 m 16.79,-33.524 c 1.619,1.364 3.871,4.635 5.007,7.271 2.374,5.52 4.087,21.588 2.41,22.624 -1.378,0.852 -4.416,-2.227 -3.561,-3.605 0.374,-0.608 0.197,-0.788 -0.406,-0.415 -0.588,0.363 -1.22,0.219 -1.404,-0.32 -0.595,-1.734 -4.836,0.094 -4.836,2.086 0,2.127 -1.535,2.531 -2.407,0.633 -0.315,-0.688 -0.366,-0.35 -0.113,0.75 0.253,1.1 -0.416,3.125 -1.488,4.5 -1.31,1.683 -1.959,2.01 -1.983,1 -0.032,-1.264 -0.18,-1.277 -0.928,-0.096 -0.488,0.774 -2.274,1.365 -3.967,1.319 -3.568,-0.103 -4.654,1.181 -4.25,5.026 0.414,3.954 -1.558,3.386 -3.475,-1 -2.163,-4.95 -2.447,-22.823 -0.472,-29.634 0.843,-2.9 2.911,-6.454 5.097,-8.75 3.327,-3.497 4.161,-3.866 8.756,-3.866 3.944,0.001 5.734,0.554 8.02,2.477 m -18.29,-16.142 c -15.903,5.288 -24.537,19.59 -24.482,40.553 0.063,24.327 12.612,42.923 30.128,44.652 4.964,0.49 5.496,0.33 7.284,-2.181 1.659,-2.329 1.695,-2.619 0.263,-2.069 -1.035,0.397 -1.578,0.178 -1.43,-0.574 0.131,-0.667 -0.275,-1.118 -0.904,-1 -0.684,0.128 -0.368,-1.389 0.789,-3.782 2.293,-4.745 1.918,-5.742 -1.942,-5.175 -1.78,0.262 -3.489,-0.184 -4.472,-1.167 -0.874,-0.875 -2.023,-1.59 -2.555,-1.59 -0.53,0 -1.242,-0.725 -1.582,-1.611 -0.453,-1.179 -0.191,-1.447 0.975,-1 0.876,0.336 2.231,0.611 3.01,0.611 0.781,0 1.465,0.788 1.52,1.75 0.062,1.125 0.345,0.869 0.786,-0.713 0.413,-1.481 1.669,-2.702 3.149,-3.062 l 2.465,-0.598 -2.75,-0.708 c -2.596,-0.667 -3.908,-2.669 -1.75,-2.669 0.55,0 1,0.436 1,0.969 0,0.533 0.627,0.728 1.395,0.434 0.943,-0.362 1.909,0.861 2.988,3.781 1.31,3.549 1.492,3.739 1.024,1.066 -0.516,-2.957 -0.339,-3.25 1.954,-3.25 1.385,0 2.798,-0.45 3.139,-1 1.375,-2.225 2,-0.703 2,4.873 0,4.288 -0.339,5.743 -1.25,5.393 -0.712,-0.272 -1.284,0.322 -1.329,1.377 -0.045,1.053 -0.299,1.315 -0.583,0.607 -0.278,-0.688 -1.42,-1.25 -2.538,-1.25 -1.547,0 -1.907,0.483 -1.506,2.018 0.29,1.11 -0.14,2.685 -0.955,3.5 -1.201,1.202 -1.224,1.482 -0.11,1.482 0.754,0 1.911,-0.54 2.571,-1.2 1.6,-1.601 1.553,0.419 -0.05,2.146 -1,1.077 -1,1.206 0,0.641 0.688,-0.388 1.25,-0.229 1.25,0.353 0,0.583 -0.62,1.059 -1.379,1.059 -0.758,0 -1.937,0.675 -2.621,1.5 -1.026,1.237 -0.937,1.5 0.512,1.5 0.966,0 3.513,-0.526 5.659,-1.169 3.595,-1.077 4.026,-0.992 5.473,1.071 2.088,2.981 9.249,8.109 11.256,8.06 0.879,-0.023 0.25,-0.645 -1.399,-1.385 -1.65,-0.74 -4.708,-3.125 -6.796,-5.298 l -3.794,-3.953 3.859,-2.554 c 4.326,-2.863 10.209,-8.458 9.567,-9.1 -0.23,-0.23 0.477,-1.938 1.57,-3.795 2.689,-4.562 4.706,-12.729 5.526,-22.376 1.781,-20.959 -5.781,-37.343 -20.177,-43.711 -5.811,-2.571 -19.062,-3.351 -24.758,-1.456 m -73,64.666 c 0.341,0.55 0.143,1 -0.44,1 -0.582,0 -1.06,-0.45 -1.06,-1 0,-0.55 0.198,-1 0.441,-1 0.244,0 0.719,0.45 1.059,1 m 10.218,-64.971 c -5.119,1.289 -9.462,3.621 -14.066,7.549 -4.013,3.424 -6.65,3.549 -6.65,0.314 0,-1.041 -0.339,-1.893 -0.75,-1.895 -0.413,-0.001 -0.598,2.698 -0.411,6.001 0.267,4.725 -0.155,7.014 -1.982,10.752 -1.277,2.611 -2.425,5.874 -2.552,7.249 -0.601,6.509 -0.455,10.099 0.706,17.5 1.067,6.817 1.37,12.1 0.871,15.248 -0.065,0.414 -0.065,1.595 -10e-4,2.625 0.096,1.512 0.396,1.643 1.557,0.679 1.175,-0.975 1.748,-0.586 3.136,2.127 3.902,7.623 10.035,13.414 16.177,15.274 1.826,0.553 2.25,0.293 2.25,-1.386 0,-1.137 -0.437,-2.067 -0.97,-2.067 -0.533,0 -0.71,-0.672 -0.395,-1.494 0.314,-0.822 0.864,-1.316 1.219,-1.098 0.355,0.218 0.741,-0.925 0.857,-2.542 0.116,-1.616 -0.141,-2.72 -0.571,-2.454 -0.985,0.608 -3.663,-2.474 -3.651,-4.2 0.005,-0.708 0.686,-1.713 1.511,-2.234 1.237,-0.783 1.151,-0.954 -0.5,-0.979 -1.533,-0.022 -1.679,-0.235 -0.618,-0.906 0.998,-0.633 1.188,-1.912 0.68,-4.615 -0.512,-2.728 -1,-3.441 -1.806,-2.635 -1.108,1.108 -1.556,6.657 -0.709,8.806 0.249,0.633 0.003,1.197 -0.547,1.254 -1.145,0.118 -1.202,-8.159 -0.083,-11.904 0.409,-1.375 0.834,-7.225 0.94,-13 0.107,-5.775 0.81,-12.387 1.56,-14.693 4.648,-14.28 18.898,-17.33 24.785,-5.307 1.212,2.475 2.437,5.287 2.72,6.25 0.427,1.451 1.712,1.75 7.521,1.75 h 7.006 l -0.566,-3.25 c -3.044,-17.463 -11.606,-26.4 -26.124,-27.27 -3.721,-0.22 -8.463,0.028 -10.544,0.551 M 13.406,-23.005 c 0,1.015 -0.837,2.602 -1.858,3.528 -1.794,1.623 -1.821,1.558 -0.756,-1.845 1.184,-3.783 2.614,-4.704 2.614,-1.683 m -72.27,-65.242 c -0.332,0.332 -1.195,0.37 -1.916,0.08 -0.798,-0.319 -0.561,-0.557 0.603,-0.604 1.055,-0.044 1.646,0.192 1.313,0.524 m -2.217,-9.623 c -0.437,0.705 -2.166,0.715 -4.513,0.025 -0.274,-0.081 0.4,-0.51 1.5,-0.95 2.205,-0.888 3.824,-0.391 3.013,0.925 m -21.107,-27.593 c -0.292,0.761 -0.391,3.349 -0.219,5.75 l 0.312,4.363 4.481,0.318 c 5.835,0.416 7.019,1.539 7.019,6.658 0,2.327 0.287,6.979 0.639,10.338 0.574,5.485 0.821,6.01 2.438,5.145 2.978,-1.594 3.29,0.764 0.478,3.578 -2.512,2.51 -2.555,2.809 -2.555,17.475 v 14.919 l -5,0.663 -5,0.664 -0.002,5.621 -0.002,5.621 13.002,-0.306 13.002,-0.306 v -2.991 -2.992 l 3.75,2.938 c 5.247,4.111 10.402,5.525 17.672,4.846 7.356,-0.688 9.578,-1.452 9.578,-3.297 0,-0.766 0.45,-1.393 1,-1.393 0.551,0 1,0.675 1,1.5 0,0.854 0.969,1.55 2.25,1.616 1.605,0.083 1.765,0.244 0.557,0.563 -0.982,0.258 -1.464,1.05 -1.147,1.878 0.303,0.787 0.879,1.228 1.282,0.979 0.91,-0.563 5.058,2.262 5.058,3.443 0,0.477 -3.284,0.618 -7.3,0.314 -6.108,-0.462 -7.584,-0.266 -9.053,1.203 -2.099,2.099 -1.864,7.634 0.353,8.302 1.21,0.365 1.26,0.197 0.25,-0.873 -1.945,-2.063 -1.489,-5.727 0.871,-6.99 1.334,-0.714 4.12,-0.885 7.514,-0.461 4.674,0.584 5.598,1.075 6.95,3.691 1.415,2.737 1.414,3.179 -0.012,4.755 -1.776,1.964 -2.074,4.081 -0.573,4.081 1.456,0 1.228,2.839 -0.621,7.679 -0.966,2.528 -1.306,4.969 -0.842,6.034 0.43,0.983 0.713,2.112 0.632,2.508 -0.24,1.168 3.052,2.56 9.678,4.09 6.196,1.432 6.214,1.43 8.182,-1.073 1.085,-1.379 1.972,-3.298 1.972,-4.265 0,-0.967 2.025,-4.009 4.5,-6.762 4.888,-5.436 5.619,-8.495 2.5,-10.443 -1.1,-0.687 -2.052,-2.378 -2.115,-3.759 -0.078,-1.695 -0.266,-1.941 -0.573,-0.759 -0.553,2.115 -1.895,2.279 -2.646,0.323 -0.572,-1.495 1.539,-3.914 2.677,-3.064 0.361,0.27 0.445,0.205 0.188,-0.145 -0.259,-0.35 1.481,-2.808 3.867,-5.461 4.657,-5.18 7.65,-10.573 7.523,-13.554 -0.043,-1.017 -0.738,0.011 -1.545,2.282 -0.805,2.272 -3.279,6.097 -5.5,8.5 -3.873,4.195 -4.092,4.292 -5.46,2.423 -1.145,-1.565 -1.669,-1.699 -2.671,-0.683 -0.996,1.01 -0.896,1.521 0.495,2.55 1.647,1.217 1.64,1.377 -0.132,2.981 -2.827,2.558 -6.489,1.203 -7.993,-2.96 -0.683,-1.887 -0.943,-3.912 -0.58,-4.5 0.453,-0.732 -0.555,-0.85 -3.187,-0.374 -2.117,0.383 -4.037,0.863 -4.269,1.066 -0.229,0.203 -1.319,-0.419 -2.422,-1.383 -1.101,-0.964 -1.692,-1.221 -1.313,-0.571 0.8,1.374 -0.934,2.796 -1.766,1.449 -1.166,-1.887 2.414,-3.19 8.281,-3.015 3.34,0.101 5.837,0.565 5.548,1.034 -0.692,1.12 6.691,1.074 8.47,-0.053 1.119,-0.708 1.367,-5.939 1.317,-27.734 -0.036,-14.773 0.244,-30.461 0.62,-34.861 0.647,-7.584 0.813,-8.014 3.184,-8.27 9,-0.97 8.789,-0.814 9.159,-6.759 l 0.341,-5.474 h -22.75 l -22.75,0.002 v 5.438 5.439 l 4.75,0.638 c 2.613,0.349 5.271,0.796 5.905,0.992 1.71,0.529 2.507,14.22 2.155,36.993 l -0.311,20 -4.75,0.305 -4.75,0.305 v 3.945 c 0,2.516 -0.459,3.945 -1.265,3.945 -0.968,0 -1.178,-2.595 -0.89,-11 l 0.376,-11 h -3.112 c -2.296,0 -4.032,0.976 -6.612,3.708 -1.922,2.04 -3.497,4.521 -3.497,5.515 0,2.371 -5.668,5.769 -9.632,5.773 -3.562,0.005 -9.584,-5.271 -8.686,-7.61 0.293,-0.763 0.034,-1.387 -0.575,-1.387 -0.609,0 -1.107,-0.45 -1.107,-1 0,-0.55 0.724,-1 1.607,-1 1.017,0 1.395,-0.551 1.031,-1.5 -0.316,-0.824 -0.112,-1.5 0.452,-1.5 0.565,0 0.693,-0.542 0.282,-1.205 -0.409,-0.662 -0.826,-2.574 -0.924,-4.25 -0.1,-1.674 -0.602,-2.963 -1.117,-2.861 -0.513,0.102 -1.477,-0.687 -2.141,-1.75 -0.664,-1.063 -0.854,-1.934 -0.418,-1.934 0.434,0 0.644,-2.361 0.468,-5.25 -0.178,-2.887 -0.43,-7.05 -0.561,-9.25 -0.271,-4.574 0.749,-6.5 3.441,-6.5 1.577,0 1.878,-0.772 1.878,-4.8 0,-2.64 0.54,-5.341 1.201,-6 0.659,-0.66 3.333,-1.2 5.94,-1.2 2.606,0 4.966,-0.363 5.239,-0.807 0.275,-0.445 0.81,-3.145 1.189,-6 l 0.688,-5.193 h -22.159 c -17.957,0.002 -22.256,0.266 -22.687,1.389 m -31.303,65.883 c 5.127,3.425 7.11,8.021 6.593,15.275 -0.858,12.034 -6.016,16.392 -19.445,16.433 l -7.25,0.022 v -14.877 -14.877 l 4.465,0.503 c 4.071,0.459 4.568,0.273 5.659,-2.123 1.525,-3.347 5.299,-3.481 9.978,-0.356 m -10.329,-1.091 c -1.096,3.288 -8.774,3.553 -8.774,0.302 0,-1.092 1.202,-1.481 4.583,-1.481 3.074,0 4.454,0.388 4.191,1.179 m 4.753,-42.372 c -0.308,0.309 -1.116,0.001 -1.793,-0.683 -0.98,-0.987 -0.866,-1.103 0.559,-0.56 0.987,0.375 1.541,0.935 1.234,1.243 m 2.505,13.921 c -1.31,1.476 -1.273,1.579 0.333,0.961 0.989,-0.379 1.987,-0.689 2.217,-0.689 0.23,0 0.418,-0.449 0.418,-1 0,-1.471 -1.297,-1.152 -2.968,0.728 m -6.032,-24.028 c 0,1.321 0.268,1.433 1.2,0.5 3.564,-3.563 14.457,0.452 17.264,6.362 2.473,5.211 1.866,18.18 -1.029,22.059 -4.112,5.506 -6.988,6.844 -15.563,7.232 -6.887,0.314 -8.18,0.107 -9.349,-1.492 -1.539,-2.103 -0.373,-4.308 2.349,-4.439 0.948,-0.047 1.128,-0.283 0.435,-0.565 -0.657,-0.267 -2.12,0.009 -3.25,0.614 -1.757,0.939 -2.057,0.809 -2.057,-0.905 0,-1.45 0.483,-1.851 1.75,-1.452 1.573,0.493 1.564,0.396 -0.1,-0.966 -2.011,-1.645 -1.435,-3.886 0.781,-3.037 0.752,0.289 1.683,0.016 2.067,-0.609 0.413,-0.667 -0.135,-1.354 -1.328,-1.667 -2.59,-0.677 -1.799,-2.924 1.697,-4.823 1.696,-0.922 2.06,-1.444 1.022,-1.471 -1.192,-0.029 -1.482,-0.721 -1.113,-2.649 0.472,-2.471 0.373,-2.542 -1.889,-1.353 -2.368,1.244 -2.372,1.238 -0.522,-0.848 l 1.864,-2.099 3.636,3.447 c 5.084,4.822 9.56,6.841 12.124,5.469 2.066,-1.106 2.798,-4.007 1.011,-4.007 -0.55,0 -0.887,0.563 -0.75,1.25 0.141,0.699 -0.941,1.388 -2.454,1.563 -2.034,0.235 -3.838,-0.731 -7.271,-3.896 -2.511,-2.315 -4.327,-4.447 -4.035,-4.738 0.292,-0.293 1.439,0.442 2.548,1.632 1.11,1.192 3.243,2.435 4.74,2.763 1.497,0.325 3.309,0.776 4.024,1 0.715,0.224 1.046,-0.009 0.732,-0.515 -0.312,-0.505 -0.109,-1.203 0.449,-1.548 0.557,-0.346 1.016,-1.055 1.016,-1.577 0,-0.522 -0.875,-0.403 -1.943,0.265 -1.575,0.983 -2.286,0.92 -3.75,-0.341 -0.993,-0.853 -2.706,-1.94 -3.807,-2.414 -1.662,-0.717 -1.366,-0.922 1.75,-1.213 3.743,-0.349 4.779,-1.476 2.597,-2.825 -0.741,-0.457 -0.883,-0.27 -0.396,0.519 0.548,0.886 -0.02,1.14 -2.028,0.903 -2.069,-0.242 -2.979,-1.035 -3.52,-3.076 -0.405,-1.525 -0.324,-2.75 0.184,-2.75 0.504,-0.003 0.914,0.763 0.914,1.697 m -5.921,-16.95 c -0.06,0.953 -4.588,1.25 -19.079,1.25 h -19 v 5.883 c 0,6.451 0.67,7.073 7.628,7.103 5.925,0.026 5.846,-0.551 6.163,44.554 0.33,46.642 0.691,44.461 -7.361,44.461 h -4.43 v 6.5 6.5 h 27.45 c 16.135,0 29.56,-0.452 32.564,-1.096 6.312,-1.354 11.174,-5.89 14.806,-13.817 2.161,-4.718 2.564,-7.063 2.593,-15.086 0.033,-8.662 -0.223,-9.971 -2.896,-14.842 -1.613,-2.938 -4.033,-6.207 -5.377,-7.264 -1.345,-1.058 -2.264,-2.046 -2.042,-2.199 8.519,-5.847 10.915,-8.349 14.082,-14.695 1.889,-3.785 2.251,-6.169 2.283,-15 0.031,-8.908 -0.29,-11.106 -2.125,-14.5 -6.022,-11.141 -18.141,-16.471 -37.505,-16.492 -4.391,-0.006 -6.839,-0.434 -7.171,-1.258 -0.402,-1.002 -0.519,-1.002 -0.583,-0.002 m 3.921,-0.75 c 0,0.551 0.676,1 1.5,1 0.825,0 1.5,-0.449 1.5,-1 0,-0.55 -0.675,-1 -1.5,-1 -0.824,0 -1.5,0.45 -1.5,1 m 148,-6 c 0,0.551 0.45,1 1,1 0.551,0 1,-0.449 1,-1 0,-0.55 -0.449,-1 -1,-1 -0.55,0 -1,0.45 -1,1"
             style="fill:#00b3a9;fill-opacity:1;fill-rule:nonzero;stroke:none"
             id="path22"
             inkscape:connector-curvature="0" /></g><g
           id="g24"
           transform="translate(932.3682,602.1528)"><path
             d="m 0,0 h 1.223 c 0.965,0 1.712,0.219 2.228,0.657 0.522,0.438 0.783,1.065 0.783,1.879 0,0.815 -0.261,1.442 -0.783,1.88 C 2.934,4.854 2.188,5.073 1.223,5.073 H 0 Z M 4.288,-0.821 C 4.764,-0.955 5.185,-1.183 5.551,-1.505 5.915,-1.828 6.21,-2.238 6.443,-2.737 L 8.268,-6.661 H 9.363 V -8.158 H 5.292 L 3.151,-3.522 C 2.76,-2.694 2.385,-2.15 2.023,-1.89 1.665,-1.628 1.147,-1.497 0.474,-1.497 H 0.001 v -5.165 h 1.566 v -1.497 h -6.732 v 1.497 h 1.57 V 5.074 h -1.57 V 6.57 H 3.114 C 4.574,6.57 5.726,6.235 6.568,5.567 7.407,4.899 7.829,3.986 7.829,2.829 7.829,1.746 7.527,0.894 6.928,0.274 6.323,-0.346 5.443,-0.711 4.288,-0.821 M 1.687,9.709 C 0.213,9.709 -1.156,9.445 -2.421,8.915 -3.688,8.387 -4.85,7.593 -5.911,6.534 -6.956,5.487 -7.742,4.336 -8.267,3.075 -8.791,1.818 -9.049,0.439 -9.049,-1.058 c 0,-1.485 0.258,-2.855 0.782,-4.116 0.524,-1.258 1.312,-2.411 2.356,-3.458 1.05,-1.047 2.206,-1.832 3.48,-2.354 1.272,-0.523 2.645,-0.785 4.118,-0.785 1.5,0 2.874,0.259 4.128,0.776 1.254,0.516 2.413,1.304 3.471,2.362 1.048,1.047 1.831,2.2 2.356,3.458 0.523,1.261 0.786,2.631 0.786,4.116 0,1.497 -0.263,2.875 -0.786,4.133 C 11.117,4.335 10.333,5.487 9.286,6.533 8.214,7.603 7.05,8.401 5.788,8.924 4.527,9.447 3.16,9.709 1.687,9.709 m 0,2.811 c 1.854,0 3.584,-0.335 5.187,-1.004 1.603,-0.668 3.068,-1.667 4.397,-2.993 1.33,-1.326 2.322,-2.786 2.978,-4.38 0.66,-1.595 0.988,-3.328 0.988,-5.202 0,-1.85 -0.328,-3.568 -0.988,-5.155 -0.656,-1.589 -1.648,-3.046 -2.978,-4.372 -1.329,-1.326 -2.795,-2.324 -4.397,-2.993 -1.603,-0.669 -3.332,-1.004 -5.187,-1.004 -1.852,0 -3.581,0.335 -5.184,1.004 -1.603,0.668 -3.068,1.667 -4.399,2.993 -1.327,1.326 -2.322,2.782 -2.979,4.372 -0.656,1.586 -0.988,3.305 -0.988,5.155 0,1.874 0.331,3.607 0.988,5.202 0.657,1.594 1.652,3.054 2.979,4.38 1.331,1.325 2.797,2.324 4.399,2.993 1.602,0.669 3.332,1.004 5.184,1.004"
             style="fill:#00b3a8;fill-opacity:1;fill-rule:nonzero;stroke:none"
             id="path26"
             inkscape:connector-curvature="0" /></g></g></g></g></svg>