<?xml version="1.0" encoding="UTF-8" standalone="no"?>
<!-- Created with Inkscape (http://www.inkscape.org/) -->

<svg
   xmlns:dc="http://purl.org/dc/elements/1.1/"
   xmlns:cc="http://creativecommons.org/ns#"
   xmlns:rdf="http://www.w3.org/1999/02/22-rdf-syntax-ns#"
   xmlns:svg="http://www.w3.org/2000/svg"
   xmlns="http://www.w3.org/2000/svg"
   xmlns:sodipodi="http://sodipodi.sourceforge.net/DTD/sodipodi-0.dtd"
   xmlns:inkscape="http://www.inkscape.org/namespaces/inkscape"
   version="1.1"
   id="svg2"
   xml:space="preserve"
   width="352.66531"
   height="123.36133"
   viewBox="0 0 352.66532 123.36133"
   sodipodi:docname="cetronic.svg"
   inkscape:version="0.92.2 (5c3e80d, 2017-08-06)"><metadata
     id="metadata8"><rdf:RDF><cc:Work
         rdf:about=""><dc:format>image/svg+xml</dc:format><dc:type
           rdf:resource="http://purl.org/dc/dcmitype/StillImage" /><dc:title></dc:title></cc:Work></rdf:RDF></metadata><defs
     id="defs6"><clipPath
       clipPathUnits="userSpaceOnUse"
       id="clipPath34"><path
         d="M 0,841.89 H 595.28 V 0 H 0 Z"
         id="path32"
         inkscape:connector-curvature="0" /></clipPath></defs><sodipodi:namedview
     pagecolor="#ffffff"
     bordercolor="#666666"
     borderopacity="1"
     objecttolerance="10"
     gridtolerance="10"
     guidetolerance="10"
     inkscape:pageopacity="0"
     inkscape:pageshadow="2"
     inkscape:window-width="1920"
     inkscape:window-height="1148"
     id="namedview4"
     showgrid="false"
     fit-margin-top="0"
     fit-margin-left="0"
     fit-margin-right="0"
     fit-margin-bottom="0"
     inkscape:zoom="1.189304"
     inkscape:cx="190.47451"
     inkscape:cy="121.27727"
     inkscape:window-x="-8"
     inkscape:window-y="-8"
     inkscape:window-maximized="1"
     inkscape:current-layer="g28" /><g
     id="g10"
     inkscape:groupmode="layer"
     inkscape:label="cetronic"
     transform="matrix(1.3333333,0,0,-1.3333333,-235.60533,875.53331)"><path
       d="M 441.203,564.129 H 176.704 v 92.521 h 264.499 z"
       style="fill:#fff200;fill-opacity:1;fill-rule:nonzero;stroke:none"
       id="path26"
       inkscape:connector-curvature="0" /><g
       id="g28"><g
         id="g30"
         clip-path="url(#clipPath34)"><g
           id="g36"
           transform="translate(199.9712,586.2998)"><path
             d="m 0,0 c -0.535,-0.287 -1.094,-0.503 -1.674,-0.648 -0.581,-0.146 -1.188,-0.219 -1.819,-0.219 -1.885,0 -3.378,0.543 -4.479,1.629 -1.101,1.086 -1.652,2.558 -1.652,4.418 0,1.864 0.551,3.34 1.652,4.425 1.101,1.086 2.594,1.629 4.479,1.629 0.631,0 1.238,-0.073 1.819,-0.218 C -1.094,10.87 -0.535,10.653 0,10.367 V 7.953 c -0.541,0.38 -1.073,0.659 -1.599,0.836 -0.525,0.177 -1.078,0.266 -1.659,0.266 -1.041,0 -1.86,-0.344 -2.456,-1.032 C -6.31,7.336 -6.608,6.388 -6.608,5.18 c 0,-1.203 0.298,-2.149 0.894,-2.836 0.596,-0.688 1.415,-1.032 2.456,-1.032 0.581,0 1.134,0.089 1.659,0.266 0.526,0.177 1.058,0.456 1.599,0.836 z"
             style="fill:#231f20;fill-opacity:1;fill-rule:nonzero;stroke:none"
             id="path38"
             inkscape:connector-curvature="0" /></g><g
           id="g40"
           transform="translate(206.3071,592.6201)"><path
             d="m 0,0 c -0.602,0 -1.06,-0.223 -1.375,-0.668 -0.316,-0.445 -0.474,-1.087 -0.474,-1.926 0,-0.839 0.158,-1.48 0.474,-1.926 0.315,-0.445 0.773,-0.667 1.375,-0.667 0.591,0 1.043,0.222 1.356,0.667 0.313,0.446 0.47,1.087 0.47,1.926 0,0.839 -0.157,1.481 -0.47,1.926 C 1.043,-0.223 0.591,0 0,0 M 0,2 C 1.46,2 2.6,1.594 3.421,0.781 4.242,-0.031 4.653,-1.156 4.653,-2.594 4.653,-4.031 4.242,-5.156 3.421,-5.969 2.6,-6.781 1.46,-7.187 0,-7.187 c -1.465,0 -2.611,0.406 -3.437,1.218 -0.826,0.813 -1.239,1.938 -1.239,3.375 0,1.438 0.413,2.563 1.239,3.375 C -2.611,1.594 -1.465,2 0,2"
             style="fill:#231f20;fill-opacity:1;fill-rule:nonzero;stroke:none"
             id="path42"
             inkscape:connector-curvature="0" /></g><g
           id="g44"
           transform="translate(220.7964,592.9561)"><path
             d="m 0,0 c 0.344,0.542 0.751,0.954 1.224,1.238 0.472,0.284 0.991,0.426 1.557,0.426 0.975,0 1.718,-0.31 2.228,-0.93 0.511,-0.62 0.765,-1.521 0.765,-2.703 V -7.297 H 3.046 v 4.563 c 0.005,0.067 0.009,0.137 0.012,0.211 0.003,0.072 0.004,0.176 0.004,0.312 0,0.62 -0.089,1.069 -0.266,1.348 C 2.62,-0.585 2.334,-0.445 1.94,-0.445 1.425,-0.445 1.027,-0.664 0.747,-1.102 0.466,-1.539 0.321,-2.172 0.311,-3 v -4.297 h -2.728 v 4.563 c 0,0.968 -0.081,1.592 -0.243,1.871 -0.162,0.278 -0.449,0.418 -0.864,0.418 -0.52,0 -0.922,-0.221 -1.205,-0.66 -0.283,-0.441 -0.424,-1.07 -0.424,-1.887 v -4.305 h -2.728 v 8.75 h 2.728 V 0.172 c 0.333,0.495 0.716,0.867 1.148,1.117 0.432,0.25 0.908,0.375 1.428,0.375 0.587,0 1.104,-0.146 1.554,-0.437 C -0.573,0.935 -0.232,0.526 0,0"
             style="fill:#231f20;fill-opacity:1;fill-rule:nonzero;stroke:none"
             id="path46"
             inkscape:connector-curvature="0" /></g><g
           id="g48"
           transform="translate(233.6187,592.5889)"><path
             d="m 0,0 c -0.581,0 -1.027,-0.22 -1.337,-0.66 -0.311,-0.441 -0.466,-1.074 -0.466,-1.903 0,-0.828 0.155,-1.462 0.466,-1.902 0.31,-0.44 0.756,-0.66 1.337,-0.66 0.581,0 1.024,0.219 1.33,0.656 0.306,0.438 0.459,1.073 0.459,1.906 0,0.834 -0.153,1.469 -0.459,1.907 C 1.024,-0.219 0.581,0 0,0 m -1.803,-5.664 v -4.594 H -4.517 V 1.82 h 2.714 V 0.539 c 0.373,0.51 0.788,0.887 1.242,1.129 0.455,0.242 0.978,0.363 1.569,0.363 1.046,0 1.905,-0.428 2.576,-1.285 0.672,-0.857 1.008,-1.96 1.008,-3.309 0,-1.349 -0.336,-2.452 -1.008,-3.308 -0.671,-0.857 -1.53,-1.285 -2.576,-1.285 -0.591,0 -1.114,0.121 -1.569,0.363 -0.454,0.242 -0.869,0.618 -1.242,1.129"
             style="fill:#231f20;fill-opacity:1;fill-rule:nonzero;stroke:none"
             id="path50"
             inkscape:connector-curvature="0" /></g><g
           id="g52"
           transform="translate(244.251,592.6201)"><path
             d="m 0,0 c -0.602,0 -1.06,-0.223 -1.375,-0.668 -0.316,-0.445 -0.474,-1.087 -0.474,-1.926 0,-0.839 0.158,-1.48 0.474,-1.926 0.315,-0.445 0.773,-0.667 1.375,-0.667 0.591,0 1.043,0.222 1.356,0.667 0.313,0.446 0.47,1.087 0.47,1.926 0,0.839 -0.157,1.481 -0.47,1.926 C 1.043,-0.223 0.591,0 0,0 M 0,2 C 1.46,2 2.6,1.594 3.421,0.781 4.242,-0.031 4.653,-1.156 4.653,-2.594 4.653,-4.031 4.242,-5.156 3.421,-5.969 2.6,-6.781 1.46,-7.187 0,-7.187 c -1.465,0 -2.611,0.406 -3.437,1.218 -0.826,0.813 -1.239,1.938 -1.239,3.375 0,1.438 0.413,2.563 1.239,3.375 C -2.611,1.594 -1.465,2 0,2"
             style="fill:#231f20;fill-opacity:1;fill-rule:nonzero;stroke:none"
             id="path54"
             inkscape:connector-curvature="0" /></g><g
           id="g56"
           transform="translate(259.4072,590.9873)"><path
             d="m 0,0 v -5.328 h -2.728 v 0.867 3.211 c 0,0.755 -0.017,1.276 -0.049,1.562 -0.034,0.287 -0.09,0.498 -0.171,0.633 -0.106,0.182 -0.25,0.325 -0.432,0.426 -0.182,0.102 -0.389,0.152 -0.621,0.152 -0.566,0 -1.011,-0.225 -1.334,-0.675 C -5.658,0.397 -5.82,-0.227 -5.82,-1.023 v -4.305 h -2.713 v 8.75 H -5.82 V 2.141 c 0.409,0.51 0.843,0.886 1.303,1.129 0.46,0.242 0.968,0.363 1.524,0.363 0.98,0 1.723,-0.31 2.231,-0.93 C -0.254,2.083 0,1.182 0,0"
             style="fill:#231f20;fill-opacity:1;fill-rule:nonzero;stroke:none"
             id="path58"
             inkscape:connector-curvature="0" /></g><g
           id="g60"
           transform="translate(267.6064,590.9873)"><path
             d="M 0,0 C 0,0.531 -0.15,0.959 -0.451,1.285 -0.751,1.61 -1.144,1.773 -1.629,1.773 -2.155,1.773 -2.582,1.621 -2.91,1.316 -3.238,1.012 -3.443,0.573 -3.523,0 Z m 2.789,-0.93 v -0.797 h -6.343 c 0.066,-0.656 0.296,-1.148 0.69,-1.476 0.394,-0.328 0.945,-0.492 1.652,-0.492 0.57,0 1.155,0.087 1.754,0.261 0.599,0.175 1.214,0.439 1.845,0.793 v -2.156 c -0.641,-0.25 -1.283,-0.439 -1.925,-0.566 -0.641,-0.128 -1.283,-0.192 -1.924,-0.192 -1.536,0 -2.73,0.403 -3.581,1.207 -0.852,0.805 -1.277,1.934 -1.277,3.387 0,1.427 0.418,2.549 1.254,3.367 0.837,0.818 1.987,1.227 3.452,1.227 1.334,0 2.401,-0.414 3.202,-1.242 C 2.389,1.562 2.789,0.456 2.789,-0.93"
             style="fill:#231f20;fill-opacity:1;fill-rule:nonzero;stroke:none"
             id="path62"
             inkscape:connector-curvature="0" /></g><g
           id="g64"
           transform="translate(280.9819,590.9873)"><path
             d="m 0,0 v -5.328 h -2.729 v 0.867 3.211 c 0,0.755 -0.015,1.276 -0.048,1.562 -0.034,0.287 -0.09,0.498 -0.17,0.633 -0.108,0.182 -0.25,0.325 -0.432,0.426 -0.184,0.102 -0.391,0.152 -0.623,0.152 -0.564,0 -1.01,-0.225 -1.333,-0.675 C -5.658,0.397 -5.82,-0.227 -5.82,-1.023 v -4.305 h -2.713 v 8.75 H -5.82 V 2.141 c 0.41,0.51 0.843,0.886 1.304,1.129 0.459,0.242 0.967,0.363 1.522,0.363 0.98,0 1.724,-0.31 2.232,-0.93 C -0.254,2.083 0,1.182 0,0"
             style="fill:#231f20;fill-opacity:1;fill-rule:nonzero;stroke:none"
             id="path66"
             inkscape:connector-curvature="0" /></g><g
           id="g68"
           transform="translate(286.4614,596.8936)"><path
             d="m 0,0 v -2.484 h 2.796 v -2 H 0 V -8.195 C 0,-8.602 0.078,-8.876 0.234,-9.02 0.392,-9.163 0.702,-9.234 1.167,-9.234 h 1.395 v -2 H 0.234 c -1.07,0 -1.83,0.23 -2.276,0.691 -0.447,0.461 -0.671,1.243 -0.671,2.348 v 3.711 h -1.349 v 2 h 1.349 V 0 Z"
             style="fill:#231f20;fill-opacity:1;fill-rule:nonzero;stroke:none"
             id="path70"
             inkscape:connector-curvature="0" /></g><g
           id="g72"
           transform="translate(296.6016,590.9873)"><path
             d="M 0,0 C 0,0.531 -0.15,0.959 -0.451,1.285 -0.752,1.61 -1.145,1.773 -1.63,1.773 -2.156,1.773 -2.583,1.621 -2.911,1.316 -3.239,1.012 -3.444,0.573 -3.525,0 Z m 2.787,-0.93 v -0.797 h -6.342 c 0.065,-0.656 0.296,-1.148 0.689,-1.476 0.395,-0.328 0.946,-0.492 1.653,-0.492 0.57,0 1.156,0.087 1.754,0.261 0.6,0.175 1.213,0.439 1.846,0.793 V -4.797 C 1.744,-5.047 1.104,-5.236 0.461,-5.363 -0.18,-5.491 -0.822,-5.555 -1.463,-5.555 c -1.537,0 -2.73,0.403 -3.581,1.207 -0.851,0.805 -1.277,1.934 -1.277,3.387 0,1.427 0.418,2.549 1.254,3.367 0.836,0.818 1.986,1.227 3.452,1.227 1.334,0 2.4,-0.414 3.201,-1.242 C 2.387,1.562 2.787,0.456 2.787,-0.93"
             style="fill:#231f20;fill-opacity:1;fill-rule:nonzero;stroke:none"
             id="path74"
             inkscape:connector-curvature="0" /></g><g
           id="g76"
           transform="translate(308.0742,594.1357)"><path
             d="m 0,0 v -2.125 c -0.58,0.25 -1.141,0.438 -1.682,0.563 -0.541,0.125 -1.05,0.187 -1.531,0.187 -0.516,0 -0.898,-0.066 -1.148,-0.199 -0.25,-0.133 -0.375,-0.338 -0.375,-0.614 0,-0.224 0.095,-0.395 0.285,-0.515 0.189,-0.12 0.529,-0.209 1.017,-0.266 l 0.479,-0.07 c 1.389,-0.183 2.324,-0.482 2.805,-0.899 0.478,-0.416 0.718,-1.07 0.718,-1.96 0,-0.933 -0.334,-1.633 -1,-2.102 -0.666,-0.469 -1.662,-0.703 -2.986,-0.703 -0.561,0 -1.141,0.046 -1.738,0.137 -0.6,0.09 -1.215,0.227 -1.846,0.41 v 2.125 c 0.541,-0.271 1.096,-0.474 1.664,-0.61 0.568,-0.135 1.145,-0.203 1.731,-0.203 0.531,0 0.929,0.075 1.197,0.227 0.267,0.151 0.402,0.375 0.402,0.672 0,0.25 -0.092,0.436 -0.277,0.558 -0.184,0.122 -0.551,0.218 -1.102,0.285 l -0.478,0.063 c -1.207,0.156 -2.053,0.445 -2.537,0.867 -0.487,0.422 -0.729,1.063 -0.729,1.922 0,0.927 0.309,1.614 0.924,2.063 0.617,0.447 1.562,0.671 2.836,0.671 0.5,0 1.025,-0.039 1.576,-0.117 C -1.246,0.289 -0.646,0.167 0,0"
             style="fill:#231f20;fill-opacity:1;fill-rule:nonzero;stroke:none"
             id="path78"
             inkscape:connector-curvature="0" /></g><g
           id="g80"
           transform="translate(316.2051,597.3232)"><path
             d="M 0,0 H 7.875 V -2.273 H 2.918 v -2.172 h 4.66 v -2.274 h -4.66 v -2.672 h 5.123 v -2.273 H 0 Z"
             style="fill:#231f20;fill-opacity:1;fill-rule:nonzero;stroke:none"
             id="path82"
             inkscape:connector-curvature="0" /></g><path
           d="m 326.686,597.815 h 2.713 v -12.156 h -2.713 z"
           style="fill:#231f20;fill-opacity:1;fill-rule:nonzero;stroke:none"
           id="path84"
           inkscape:connector-curvature="0" /><g
           id="g86"
           transform="translate(337.6895,590.9873)"><path
             d="M 0,0 C 0,0.531 -0.15,0.959 -0.451,1.285 -0.752,1.61 -1.145,1.773 -1.629,1.773 -2.154,1.773 -2.582,1.621 -2.91,1.316 -3.238,1.012 -3.443,0.573 -3.523,0 Z m 2.789,-0.93 v -0.797 h -6.344 c 0.067,-0.656 0.297,-1.148 0.69,-1.476 0.394,-0.328 0.945,-0.492 1.652,-0.492 0.572,0 1.156,0.087 1.756,0.261 0.598,0.175 1.213,0.439 1.844,0.793 V -4.797 C 1.746,-5.047 1.104,-5.236 0.463,-5.363 -0.18,-5.491 -0.82,-5.555 -1.463,-5.555 c -1.535,0 -2.728,0.403 -3.58,1.207 -0.852,0.805 -1.277,1.934 -1.277,3.387 0,1.427 0.418,2.549 1.254,3.367 0.836,0.818 1.986,1.227 3.453,1.227 1.334,0 2.4,-0.414 3.201,-1.242 C 2.389,1.562 2.789,0.456 2.789,-0.93"
             style="fill:#231f20;fill-opacity:1;fill-rule:nonzero;stroke:none"
             id="path88"
             inkscape:connector-curvature="0" /></g><g
           id="g90"
           transform="translate(349.3906,594.1357)"><path
             d="m 0,0 v -2.281 c -0.369,0.26 -0.738,0.453 -1.109,0.578 -0.373,0.125 -0.758,0.187 -1.157,0.187 -0.757,0 -1.347,-0.228 -1.769,-0.683 -0.422,-0.456 -0.633,-1.093 -0.633,-1.91 0,-0.818 0.211,-1.455 0.633,-1.911 0.422,-0.456 1.012,-0.683 1.769,-0.683 0.424,0 0.827,0.065 1.209,0.195 0.381,0.13 0.733,0.323 1.057,0.578 v -2.289 c -0.424,-0.161 -0.855,-0.282 -1.293,-0.363 -0.436,-0.081 -0.875,-0.121 -1.314,-0.121 -1.53,0 -2.729,0.405 -3.592,1.215 -0.863,0.809 -1.295,1.936 -1.295,3.379 0,1.442 0.432,2.568 1.295,3.379 0.863,0.809 2.062,1.214 3.592,1.214 0.445,0 0.882,-0.04 1.314,-0.121 C -0.859,0.282 -0.43,0.161 0,0"
             style="fill:#231f20;fill-opacity:1;fill-rule:nonzero;stroke:none"
             id="path92"
             inkscape:connector-curvature="0" /></g><g
           id="g94"
           transform="translate(354.6953,596.8936)"><path
             d="m 0,0 v -2.484 h 2.797 v -2 H 0 V -8.195 C 0,-8.602 0.078,-8.876 0.234,-9.02 0.393,-9.163 0.703,-9.234 1.168,-9.234 h 1.395 v -2 H 0.234 c -1.07,0 -1.83,0.23 -2.275,0.691 -0.447,0.461 -0.672,1.243 -0.672,2.348 v 3.711 h -1.348 v 2 h 1.348 V 0 Z"
             style="fill:#231f20;fill-opacity:1;fill-rule:nonzero;stroke:none"
             id="path96"
             inkscape:connector-curvature="0" /></g><g
           id="g98"
           transform="translate(365.457,592.0264)"><path
             d="m 0,0 c -0.238,0.114 -0.475,0.199 -0.709,0.254 -0.234,0.055 -0.471,0.082 -0.709,0.082 -0.697,0 -1.234,-0.231 -1.609,-0.691 -0.377,-0.461 -0.565,-1.122 -0.565,-1.981 v -4.031 h -2.713 v 8.75 h 2.713 V 0.945 c 0.348,0.573 0.748,0.991 1.201,1.254 0.452,0.263 0.995,0.395 1.625,0.395 0.09,0 0.19,-0.004 0.295,-0.012 0.108,-0.008 0.26,-0.025 0.463,-0.051 z"
             style="fill:#231f20;fill-opacity:1;fill-rule:nonzero;stroke:none"
             id="path100"
             inkscape:connector-curvature="0" /></g><g
           id="g102"
           transform="translate(372.0352,598.4561)"><path
             d="m 0,0 h 2.145 l -2.797,-2.938 h -1.485 z m -1.189,-5.836 c -0.602,0 -1.061,-0.223 -1.377,-0.668 -0.315,-0.445 -0.473,-1.087 -0.473,-1.926 0,-0.839 0.158,-1.48 0.473,-1.925 0.316,-0.446 0.775,-0.668 1.377,-0.668 0.589,0 1.043,0.222 1.355,0.668 0.314,0.445 0.471,1.086 0.471,1.925 0,0.839 -0.157,1.481 -0.471,1.926 -0.312,0.445 -0.766,0.668 -1.355,0.668 m 0,2 c 1.459,0 2.599,-0.406 3.419,-1.219 0.823,-0.812 1.233,-1.937 1.233,-3.375 0,-1.437 -0.41,-2.562 -1.233,-3.375 -0.82,-0.812 -1.96,-1.218 -3.419,-1.218 -1.467,0 -2.612,0.406 -3.438,1.218 -0.826,0.813 -1.238,1.938 -1.238,3.375 0,1.438 0.412,2.563 1.238,3.375 0.826,0.813 1.971,1.219 3.438,1.219"
             style="fill:#231f20;fill-opacity:1;fill-rule:nonzero;stroke:none"
             id="path104"
             inkscape:connector-curvature="0" /></g><g
           id="g106"
           transform="translate(386,590.9873)"><path
             d="m 0,0 v -5.328 h -2.727 v 0.867 3.211 c 0,0.755 -0.017,1.276 -0.05,1.562 C -2.809,0.599 -2.865,0.81 -2.947,0.945 -3.053,1.127 -3.197,1.27 -3.379,1.371 -3.561,1.473 -3.768,1.523 -4,1.523 -4.566,1.523 -5.012,1.298 -5.334,0.848 -5.658,0.397 -5.818,-0.227 -5.818,-1.023 v -4.305 h -2.713 v 8.75 h 2.713 V 2.141 c 0.408,0.51 0.843,0.886 1.302,1.129 0.459,0.242 0.967,0.363 1.524,0.363 0.98,0 1.724,-0.31 2.232,-0.93 C -0.252,2.083 0,1.182 0,0"
             style="fill:#231f20;fill-opacity:1;fill-rule:nonzero;stroke:none"
             id="path108"
             inkscape:connector-curvature="0" /></g><path
           d="m 388.518,594.409 h 2.713 v -8.75 h -2.713 z m 0,3.406 h 2.713 v -2.281 h -2.713 z"
           style="fill:#231f20;fill-opacity:1;fill-rule:nonzero;stroke:none"
           id="path110"
           inkscape:connector-curvature="0" /><g
           id="g112"
           transform="translate(400.6953,594.1357)"><path
             d="m 0,0 v -2.281 c -0.369,0.26 -0.738,0.453 -1.109,0.578 -0.373,0.125 -0.758,0.187 -1.157,0.187 -0.757,0 -1.347,-0.228 -1.769,-0.683 -0.422,-0.456 -0.633,-1.093 -0.633,-1.91 0,-0.818 0.211,-1.455 0.633,-1.911 0.422,-0.456 1.012,-0.683 1.769,-0.683 0.424,0 0.827,0.065 1.209,0.195 0.381,0.13 0.733,0.323 1.057,0.578 v -2.289 c -0.424,-0.161 -0.855,-0.282 -1.293,-0.363 -0.436,-0.081 -0.875,-0.121 -1.314,-0.121 -1.53,0 -2.729,0.405 -3.592,1.215 -0.863,0.809 -1.295,1.936 -1.295,3.379 0,1.442 0.432,2.568 1.295,3.379 0.863,0.809 2.062,1.214 3.592,1.214 0.445,0 0.882,-0.04 1.314,-0.121 C -0.859,0.282 -0.43,0.161 0,0"
             style="fill:#231f20;fill-opacity:1;fill-rule:nonzero;stroke:none"
             id="path114"
             inkscape:connector-curvature="0" /></g><g
           id="g116"
           transform="translate(407.0762,592.6201)"><path
             d="m 0,0 c -0.602,0 -1.059,-0.223 -1.375,-0.668 -0.316,-0.445 -0.475,-1.087 -0.475,-1.926 0,-0.839 0.159,-1.48 0.475,-1.926 0.316,-0.445 0.773,-0.667 1.375,-0.667 0.592,0 1.043,0.222 1.357,0.667 0.313,0.446 0.469,1.087 0.469,1.926 0,0.839 -0.156,1.481 -0.469,1.926 C 1.043,-0.223 0.592,0 0,0 m 0,2 c 1.461,0 2.602,-0.406 3.422,-1.219 0.82,-0.812 1.23,-1.937 1.23,-3.375 0,-1.437 -0.41,-2.562 -1.23,-3.375 C 2.602,-6.781 1.461,-7.187 0,-7.187 c -1.465,0 -2.611,0.406 -3.436,1.218 -0.826,0.813 -1.24,1.938 -1.24,3.375 0,1.438 0.414,2.563 1.24,3.375 C -2.611,1.594 -1.465,2 0,2"
             style="fill:#231f20;fill-opacity:1;fill-rule:nonzero;stroke:none"
             id="path118"
             inkscape:connector-curvature="0" /></g><g
           id="g120"
           transform="translate(420.3301,594.1357)"><path
             d="m 0,0 v -2.125 c -0.58,0.25 -1.141,0.438 -1.682,0.563 -0.541,0.125 -1.05,0.187 -1.531,0.187 -0.516,0 -0.898,-0.066 -1.148,-0.199 -0.25,-0.133 -0.375,-0.338 -0.375,-0.614 0,-0.224 0.095,-0.395 0.285,-0.515 0.189,-0.12 0.529,-0.209 1.017,-0.266 l 0.479,-0.07 c 1.389,-0.183 2.324,-0.482 2.805,-0.899 0.478,-0.416 0.718,-1.07 0.718,-1.96 0,-0.933 -0.334,-1.633 -1,-2.102 -0.666,-0.469 -1.662,-0.703 -2.986,-0.703 -0.561,0 -1.141,0.046 -1.738,0.137 -0.6,0.09 -1.215,0.227 -1.846,0.41 v 2.125 c 0.541,-0.271 1.096,-0.474 1.664,-0.61 0.568,-0.135 1.145,-0.203 1.731,-0.203 0.531,0 0.929,0.075 1.197,0.227 0.267,0.151 0.402,0.375 0.402,0.672 0,0.25 -0.092,0.436 -0.277,0.558 -0.184,0.122 -0.551,0.218 -1.102,0.285 l -0.478,0.063 c -1.207,0.156 -2.053,0.445 -2.537,0.867 -0.487,0.422 -0.729,1.063 -0.729,1.922 0,0.927 0.309,1.614 0.924,2.063 0.617,0.447 1.562,0.671 2.836,0.671 0.5,0 1.025,-0.039 1.576,-0.117 C -1.246,0.289 -0.646,0.167 0,0"
             style="fill:#231f20;fill-opacity:1;fill-rule:nonzero;stroke:none"
             id="path122"
             inkscape:connector-curvature="0" /></g><g
           id="g124"
           transform="translate(221.3613,608.249)"><path
             d="m 0,0 c -1.606,-0.859 -3.281,-1.508 -5.024,-1.945 -1.743,-0.438 -3.562,-0.657 -5.456,-0.657 -5.654,0 -10.132,1.629 -13.437,4.887 -3.304,3.258 -4.956,7.676 -4.956,13.254 0,5.594 1.652,10.02 4.956,13.277 3.305,3.258 7.783,4.887 13.437,4.887 1.894,0 3.713,-0.219 5.456,-0.656 1.743,-0.438 3.418,-1.086 5.024,-1.945 v -7.243 c -1.622,1.141 -3.221,1.977 -4.797,2.508 -1.576,0.531 -3.236,0.797 -4.978,0.797 -3.123,0 -5.579,-1.031 -7.367,-3.094 -1.788,-2.062 -2.682,-4.906 -2.682,-8.531 0,-3.609 0.894,-6.445 2.682,-8.508 1.788,-2.062 4.244,-3.093 7.367,-3.093 1.742,0 3.402,0.265 4.978,0.796 1.576,0.532 3.175,1.368 4.797,2.508 z"
             style="fill:#ed1e25;fill-opacity:1;fill-rule:nonzero;stroke:none"
             id="path126"
             inkscape:connector-curvature="0" /></g><g
           id="g128"
           transform="translate(245.3008,622.3115)"><path
             d="M 0,0 C 0,1.594 -0.451,2.879 -1.353,3.855 -2.254,4.832 -3.433,5.32 -4.888,5.32 -6.464,5.32 -7.745,4.863 -8.73,3.949 -9.715,3.035 -10.329,1.719 -10.571,0 Z M 8.366,-2.789 V -5.18 h -19.028 c 0.197,-1.968 0.887,-3.445 2.069,-4.429 1.182,-0.985 2.834,-1.477 4.956,-1.477 1.712,0 3.467,0.262 5.262,0.785 1.797,0.524 3.642,1.317 5.537,2.379 v -6.469 c -1.926,-0.75 -3.85,-1.316 -5.775,-1.699 -1.925,-0.383 -3.85,-0.574 -5.775,-0.574 -4.607,0 -8.188,1.207 -10.741,3.621 -2.555,2.414 -3.831,5.801 -3.831,10.16 0,4.281 1.253,7.649 3.762,10.102 2.509,2.453 5.96,3.679 10.356,3.679 4.001,0 7.203,-1.242 9.605,-3.726 2.402,-2.485 3.603,-5.805 3.603,-9.961"
             style="fill:#ed1e25;fill-opacity:1;fill-rule:nonzero;stroke:none"
             id="path130"
             inkscape:connector-curvature="0" /></g><g
           id="g132"
           transform="translate(268.7173,640.0303)"><path
             d="m 0,0 v -7.453 h 8.39 v -6 H 0 v -11.133 c 0,-1.219 0.235,-2.043 0.705,-2.473 0.47,-0.429 1.401,-0.644 2.796,-0.644 h 4.184 v -6 h -6.98 c -3.213,0 -5.491,0.691 -6.832,2.074 -1.341,1.383 -2.012,3.731 -2.012,7.043 v 11.133 h -4.047 v 6 h 4.047 V 0 Z"
             style="fill:#ed1e25;fill-opacity:1;fill-rule:nonzero;stroke:none"
             id="path134"
             inkscape:connector-curvature="0" /></g><g
           id="g136"
           transform="translate(301,625.4287)"><path
             d="m 0,0 c -0.713,0.344 -1.42,0.598 -2.125,0.762 -0.705,0.164 -1.414,0.246 -2.125,0.246 -2.092,0 -3.703,-0.692 -4.832,-2.074 -1.129,-1.383 -1.694,-3.364 -1.694,-5.942 v -12.094 h -8.139 v 26.25 h 8.139 V 2.836 c 1.046,1.719 2.247,2.973 3.604,3.762 1.356,0.789 2.982,1.183 4.877,1.183 0.272,0 0.568,-0.011 0.887,-0.035 0.318,-0.023 0.779,-0.074 1.387,-0.152 z"
             style="fill:#ed1e25;fill-opacity:1;fill-rule:nonzero;stroke:none"
             id="path138"
             inkscape:connector-curvature="0" /></g><g
           id="g140"
           transform="translate(317.1641,627.21)"><path
             d="m 0,0 c -1.803,0 -3.178,-0.668 -4.125,-2.004 -0.947,-1.336 -1.422,-3.262 -1.422,-5.777 0,-2.516 0.475,-4.442 1.422,-5.778 0.947,-1.336 2.322,-2.004 4.125,-2.004 1.773,0 3.131,0.668 4.07,2.004 0.94,1.336 1.41,3.262 1.41,5.778 0,2.515 -0.47,4.441 -1.41,5.777 C 3.131,-0.668 1.773,0 0,0 m 0,6 c 4.381,0 7.803,-1.219 10.266,-3.656 2.463,-2.438 3.693,-5.813 3.693,-10.125 0,-4.313 -1.23,-7.688 -3.693,-10.125 C 7.803,-20.344 4.381,-21.562 0,-21.562 c -4.395,0 -7.832,1.218 -10.309,3.656 -2.478,2.437 -3.716,5.812 -3.716,10.125 0,4.312 1.238,7.687 3.716,10.125 C -7.832,4.781 -4.395,6 0,6"
             style="fill:#ed1e25;fill-opacity:1;fill-rule:nonzero;stroke:none"
             id="path142"
             inkscape:connector-curvature="0" /></g><g
           id="g144"
           transform="translate(362.6328,622.3115)"><path
             d="m 0,0 v -15.984 h -8.184 v 2.601 9.633 c 0,2.266 -0.048,3.828 -0.148,4.687 -0.098,0.86 -0.268,1.493 -0.51,1.899 -0.318,0.547 -0.752,0.973 -1.297,1.277 -0.545,0.305 -1.168,0.457 -1.863,0.457 -1.699,0 -3.033,-0.675 -4.002,-2.027 -0.971,-1.352 -1.455,-3.223 -1.455,-5.613 v -12.914 h -8.139 v 26.25 h 8.139 V 6.422 c 1.229,1.531 2.531,2.66 3.91,3.387 1.379,0.726 2.903,1.089 4.57,1.089 2.94,0 5.172,-0.929 6.696,-2.789 C -0.76,6.25 0,3.547 0,0"
             style="fill:#ed1e25;fill-opacity:1;fill-rule:nonzero;stroke:none"
             id="path146"
             inkscape:connector-curvature="0" /></g><path
           d="m 370.182,632.577 h 8.139 v -26.25 h -8.139 z m 0,10.219 h 8.139 v -6.844 h -8.139 z"
           style="fill:#ed1e25;fill-opacity:1;fill-rule:nonzero;stroke:none"
           id="path148"
           inkscape:connector-curvature="0" /><g
           id="g150"
           transform="translate(406.7168,631.7568)"><path
             d="m 0,0 v -6.844 c -1.107,0.782 -2.217,1.36 -3.332,1.735 -1.113,0.375 -2.27,0.562 -3.467,0.562 -2.273,0 -4.043,-0.683 -5.308,-2.051 -1.266,-1.367 -1.899,-3.277 -1.899,-5.73 0,-2.453 0.633,-4.363 1.899,-5.731 1.265,-1.367 3.035,-2.05 5.308,-2.05 1.274,0 2.483,0.195 3.627,0.586 1.145,0.39 2.201,0.968 3.172,1.734 v -6.867 c -1.273,-0.485 -2.566,-0.848 -3.877,-1.09 -1.31,-0.242 -2.627,-0.363 -3.945,-0.363 -4.592,0 -8.184,1.214 -10.776,3.644 -2.591,2.43 -3.886,5.809 -3.886,10.137 0,4.328 1.295,7.707 3.886,10.137 2.592,2.429 6.184,3.644 10.776,3.644 1.334,0 2.648,-0.121 3.945,-0.363 C -2.582,0.848 -1.289,0.484 0,0"
             style="fill:#ed1e25;fill-opacity:1;fill-rule:nonzero;stroke:none"
             id="path152"
             inkscape:connector-curvature="0" /></g></g></g></g></svg>