<?xml version="1.0" encoding="UTF-8" standalone="no"?>
<!-- Created with Inkscape (http://www.inkscape.org/) -->

<svg
   xmlns:dc="http://purl.org/dc/elements/1.1/"
   xmlns:cc="http://creativecommons.org/ns#"
   xmlns:rdf="http://www.w3.org/1999/02/22-rdf-syntax-ns#"
   xmlns:svg="http://www.w3.org/2000/svg"
   xmlns="http://www.w3.org/2000/svg"
   xmlns:sodipodi="http://sodipodi.sourceforge.net/DTD/sodipodi-0.dtd"
   xmlns:inkscape="http://www.inkscape.org/namespaces/inkscape"
   version="1.1"
   id="svg2"
   width="371.20117"
   height="217.59961"
   viewBox="0 0 371.20117 217.59961"
   sodipodi:docname="Clone-Wars-logo.svg"
   inkscape:version="0.92.2 (5c3e80d, 2017-08-06)">
  <metadata
     id="metadata8">
    <rdf:RDF>
      <cc:Work
         rdf:about="">
        <dc:format>image/svg+xml</dc:format>
        <dc:type
           rdf:resource="http://purl.org/dc/dcmitype/StillImage" />
        <dc:title></dc:title>
      </cc:Work>
    </rdf:RDF>
  </metadata>
  <defs
     id="defs6" />
  <sodipodi:namedview
     pagecolor="#ffffff"
     bordercolor="#666666"
     borderopacity="1"
     objecttolerance="10"
     gridtolerance="10"
     guidetolerance="10"
     inkscape:pageopacity="0"
     inkscape:pageshadow="2"
     inkscape:window-width="1920"
     inkscape:window-height="1016"
     id="namedview4"
     showgrid="false"
     fit-margin-top="0"
     fit-margin-left="0"
     fit-margin-right="0"
     fit-margin-bottom="0"
     inkscape:zoom="0.57142954"
     inkscape:cx="487.8951"
     inkscape:cy="30.669937"
     inkscape:window-x="0"
     inkscape:window-y="27"
     inkscape:window-maximized="1"
     inkscape:current-layer="svg2" />
  <path
     style="opacity:1;fill:#009200;fill-opacity:1;stroke:none;stroke-width:55.18295288;stroke-linecap:round;stroke-linejoin:round;stroke-miterlimit:4;stroke-dasharray:none;stroke-opacity:1"
     d="M 7,0 C 3.122,0 0,3.12201 0,7 v 203.59961 c 0,3.878 3.12201,7 7,7 h 357.20117 c 3.87799,0 7,-3.122 7,-7 V 7 c 0,-3.87799 -3.12201,-7 -7,-7 z m 92.21289,15.19336 h 10.13476 10.13281 v 43.20117 43.19922 H 109.34765 99.21289 V 58.39453 Z m -45.21875,2.53515 c 7.57824,-0.0967 15.6698,0.79421 20.95312,2.61914 l 7.19922,2.48633 v 8.79883 8.79688 l -6.625,-3.28516 c -8.78526,-4.35615 -21.6652,-5.21827 -28.14844,-1.88477 -9.33938,4.80204 -13.2339,12.36353 -13.2168,25.66797 0.01736,13.54731 6.00418,23.03148 16.30469,25.82813 7.05212,1.9147 17.91532,0.55577 25.37891,-3.17383 l 6.39062,-3.19336 -0.30859,8.73047 -0.30859,8.73047 -6.9336,2.47265 c -7.74392,2.76129 -20.98022,3.84374 -29.0332,2.375 C 32.52402,100.30391 20.53853,91.29729 15.4121,79.97656 11.43019,71.18327 10.54992,56.84693 13.35546,46.48242 16.61509,34.44038 26.49982,24.06682 38.80664,19.77148 c 3.70944,-1.29468 9.29331,-1.96777 15.1875,-2.04297 z m 111.42773,4.39844 15.24219,15.4668 c 13.3882,13.58434 15.42169,16.11531 16.70898,20.79883 4.47042,16.26468 -3.33749,33.5037 -18.54101,40.93359 -12.41847,6.06886 -28.04363,2.97805 -37.41993,-7.40039 -6.42841,-7.11548 -8.51806,-12.84202 -8.54296,-23.39844 -0.0288,-12.26519 2.28879,-16.25902 19.2539,-33.15625 z m 90.00391,15.61719 c 1.27366,-0.0287 2.61898,0.0273 4.0625,0.1582 7.50151,0.68021 12.87536,4.30273 16.25781,10.95899 1.91226,3.7631 2.16898,6.7129 2.47265,28.46484 l 0.33985,24.26758 h -10.20703 -10.20508 l -0.0137,-20.53321 c -0.008,-11.29333 -0.31002,-21.63307 -0.66992,-22.97656 -0.71311,-2.66209 -5.35788,-5.55664 -8.91602,-5.55664 -3.91412,0 -8.1807,2.97521 -10.25586,7.15235 -1.69166,3.40518 -2.06623,7.04969 -2.36328,22.98046 l -0.35352,18.9336 h -9.54687 c -6.70808,0 -9.70107,-0.40071 -10.06445,-1.34766 -0.28448,-0.74126 -0.39057,-14.78242 -0.23438,-31.20117 l 0.28516,-29.85156 9.86718,-0.30664 9.86524,-0.30664 v 4.29882 4.30079 l 4.75391,-3.62891 c 5.21269,-3.97893 9.40658,-5.68226 14.92578,-5.80664 z m 74.54101,0.4414 c 7.35772,0.033 8.64864,0.50588 13.51367,3.25 10.2358,5.77351 16,16.17977 16,28.88477 v 5.67383 h -23.39257 -23.39258 l 0.97461,3.46679 c 2.95013,10.50649 17.13226,13.00577 34.87695,6.14844 l 7.73242,-2.98828 v 7.31641 c 2e-5,8.50068 0.0991,8.40405 -11.41015,10.99414 -4.22248,0.95025 -11.90222,1.71256 -17.06641,1.69336 -16.31233,-0.0605 -25.87476,-5.03182 -31.78906,-16.52735 -2.87447,-5.58705 -3.19657,-7.20339 -3.16797,-15.89453 0.0372,-11.31792 2.13011,-17.10081 8.49414,-23.46484 6.59507,-6.59508 12.09013,-8.46762 25.07422,-8.54492 1.32682,-0.008 2.50164,-0.0128 3.55273,-0.008 z m -3.14062,12.75977 c -1.25521,0.0219 -2.57836,0.21806 -3.95313,0.59766 -4.19231,1.15755 -9.25976,6.41127 -9.25976,9.59961 0,1.90958 0.88136,2.05078 12.72656,2.05078 h 12.72461 l -0.9668,-3.3711 c -1.65984,-5.7875 -5.83222,-8.97185 -11.27148,-8.87695 z m -67.14063,85.84766 h 3.79492 v 9.13867 c 0,8.19248 -0.19376,9.08446 -1.86718,8.61328 -9.59428,-2.70136 -15.90151,-1.3513 -20.23828,4.33008 -2.94501,3.85808 -2.96347,3.9894 -3.31446,22.89843 l -0.35351,19.01954 h -10.0625 -10.0625 l 0.28125,-31.19922 0.2832,-31.19922 h 9.59961 9.60156 l 0.32422,4.47461 0.32422,4.47461 4.03906,-4.03906 c 4.21511,-4.21512 10.43893,-6.51172 17.65039,-6.51172 z m -93.16211,0.16211 c 9.3625,-0.0736 16.73849,1.52878 21.98438,4.78711 8.98309,5.57954 10.97265,12.93052 10.97265,40.53124 v 18.51954 h -10.13281 -10.13476 v -4.35743 -4.35742 l -4.91993,4.33203 c -3.06128,2.69465 -6.38779,4.56718 -8.80078,4.95313 -2.13342,0.34122 -4.83839,0.76857 -6.01172,0.94922 -3.51096,0.54057 -11.10756,-1.28859 -14.77734,-3.55664 -9.73661,-6.01755 -11.52355,-23.68907 -3.16016,-31.25782 4.41444,-3.99502 10.25299,-5.49249 23.79297,-6.10351 14.91626,-0.67313 16.21892,-1.49269 11.35742,-7.14453 -2.44702,-2.84482 -3.25472,-3.0815 -11.68554,-3.42774 -8.21156,-0.33723 -14.77743,0.78483 -21.79492,3.72461 -0.99263,0.41583 -1.33204,-1.34288 -1.33204,-6.88281 0,-8.82335 -0.66293,-8.368 14.62305,-10.07617 3.55709,-0.39749 6.89869,-0.60831 10.01953,-0.63281 z m 132.15625,0.41992 c 6.16,0.0259 13.96066,0.65923 17.33399,1.4082 l 6.13281,1.36133 v 7.51562 c 0,6.6697 -0.2106,7.44974 -1.86719,6.92969 -18.33838,-5.75682 -32.26562,-5.18084 -32.26562,1.33399 0,3.16751 2.53219,4.38982 12.39453,5.98632 20.81241,3.3691 26.01095,7.45081 26.00195,20.41407 -0.006,9.69069 -4.99784,15.83699 -14.92969,18.38671 -9.16361,2.35252 -20.15797,2.17159 -32.80078,-0.53906 l -7.73242,-1.65625 v -7.39453 c 0,-4.06665 0.16373,-7.39453 0.36524,-7.39453 0.20149,0 3.20279,0.99941 6.66796,2.2207 3.46518,1.22129 10.1387,2.44712 14.83204,2.72461 10.44173,0.61733 13.70987,-0.70956 14.20117,-5.76953 0.39607,-4.07932 -0.80855,-4.72945 -12.08594,-6.51172 -11.8717,-1.87619 -15.67846,-3.30806 -19.79102,-7.44726 -4.52357,-4.55286 -5.95162,-10.63324 -4.12109,-17.54883 2.66389,-10.06398 10.61118,-14.09133 27.66406,-14.01953 z m -228.16015,0.39648 8.15039,0.31055 8.15039,0.3125 5.01758,20.0664 c 2.76044,11.03663 5.20833,20.25521 5.43945,20.48633 0.23112,0.23112 2.50792,-8.07902 5.05859,-18.46679 2.55067,-10.38774 5.06905,-19.72725 5.59571,-20.75391 0.79787,-1.55535 2.46304,-1.86719 9.98632,-1.86719 4.96602,0 9.0293,0.33786 9.0293,0.75 0,0.64918 -14.11996,55.24619 -15.59961,60.31836 -0.47267,1.62032 -1.98152,1.86524 -11.43359,1.86524 H 89.02539 l -5.16797,-20.84766 c -2.8423,-11.46692 -5.29526,-20.70678 -5.44922,-20.5332 -0.15396,0.17358 -2.54202,9.55432 -5.3086,20.84765 l -5.03125,20.53321 H 56.9746 c -6.10193,0 -11.10318,-0.35883 -11.11328,-0.79883 -0.01012,-0.44 -3.57441,-14.22228 -7.92187,-30.62695 -4.34745,-16.40471 -7.67225,-30.20404 -7.38672,-30.66602 0.45058,-0.72907 18.44241,-1.28518 18.57812,-0.57422 1.73296,9.07848 10.54425,41.3861 10.98243,40.26758 0.34475,-0.88 2.34911,-8.56169 4.45312,-17.06836 2.104,-8.50667 4.30361,-17.28563 4.88867,-19.50977 z m 100.86328,35.28906 c -4.43768,0 -9.25827,0.5423 -10.71289,1.20508 -5.30455,2.41691 -5.90614,10.74503 -0.98242,13.60938 2.76504,1.60855 8.47887,1.43723 11.95312,-0.35938 3.72518,-1.92637 6.13362,-5.52131 7.08008,-10.5664 l 0.73047,-3.88868 z"
     id="rect853"
     inkscape:connector-curvature="0" />
</svg>
