<?xml version="1.0" encoding="UTF-8" standalone="no"?>
<!-- Created with Inkscape (http://www.inkscape.org/) -->

<svg
   xmlns:dc="http://purl.org/dc/elements/1.1/"
   xmlns:cc="http://creativecommons.org/ns#"
   xmlns:rdf="http://www.w3.org/1999/02/22-rdf-syntax-ns#"
   xmlns:svg="http://www.w3.org/2000/svg"
   xmlns="http://www.w3.org/2000/svg"
   xmlns:sodipodi="http://sodipodi.sourceforge.net/DTD/sodipodi-0.dtd"
   xmlns:inkscape="http://www.inkscape.org/namespaces/inkscape"
   width="128.64478mm"
   height="95.174217mm"
   viewBox="0 0 128.64478 95.174217"
   version="1.1"
   id="svg8207"
   inkscape:version="0.92.2 (5c3e80d, 2017-08-06)"
   sodipodi:docname="codemonsters.svg">
  <defs
     id="defs8201" />
  <sodipodi:namedview
     id="base"
     pagecolor="#ffffff"
     bordercolor="#666666"
     borderopacity="1.0"
     inkscape:pageopacity="0.0"
     inkscape:pageshadow="2"
     inkscape:zoom="1.0431641"
     inkscape:cx="210.79263"
     inkscape:cy="142.21751"
     inkscape:document-units="mm"
     inkscape:current-layer="layer1"
     showgrid="false"
     inkscape:snap-smooth-nodes="true"
     inkscape:snap-intersection-paths="true"
     fit-margin-top="0"
     fit-margin-left="0"
     fit-margin-right="0"
     fit-margin-bottom="0"
     inkscape:window-width="1920"
     inkscape:window-height="1016"
     inkscape:window-x="0"
     inkscape:window-y="27"
     inkscape:window-maximized="1" />
  <metadata
     id="metadata8204">
    <rdf:RDF>
      <cc:Work
         rdf:about="">
        <dc:format>image/svg+xml</dc:format>
        <dc:type
           rdf:resource="http://purl.org/dc/dcmitype/StillImage" />
        <dc:title></dc:title>
      </cc:Work>
    </rdf:RDF>
  </metadata>
  <g
     inkscape:label="Capa 1"
     inkscape:groupmode="layer"
     id="layer1"
     transform="translate(-20.622536,-78.341062)">
    <g
       id="g8992">
      <path
         sodipodi:nodetypes="cccccccccc"
         inkscape:connector-curvature="0"
         id="path8767"
         d="m 74.759033,78.873555 c 8.52849,1.07795 20.607877,0.50727 20.607877,0.50727 -0.443862,11.286775 -0.07336,26.161755 0.28534,29.390005 -1.479615,-1.56929 -2.586246,-2.83351 -3.931351,-3.5509 -1.83831,0.80706 -3.23253,2.43992 -4.129266,3.3815 -0.762227,-1.88315 -2.371074,-2.9834 -2.909116,-3.47661 -0.717389,0.44837 -2.336179,3.58765 -2.694874,5.15694 -0.44834,-1.88312 -1.561232,-4.055 -2.948511,-5.44228 -1.434778,0.31386 -4.369773,3.1967 -4.369773,3.1967 0.582879,-12.330124 0.08967,-29.162625 0.08967,-29.162625 z"
         style="fill:#90b52b;fill-opacity:1;fill-rule:evenodd;stroke:#000000;stroke-width:1.06500006;stroke-linecap:butt;stroke-linejoin:round;stroke-miterlimit:4;stroke-dasharray:none;stroke-opacity:1" />
      <ellipse
         ry="4.8033633"
         rx="1.9556552"
         cy="91.935776"
         cx="81.258446"
         id="path8763"
         style="fill:#000000;fill-opacity:1;stroke:#000000;stroke-width:4.43908215;stroke-linejoin:round;stroke-miterlimit:4;stroke-dasharray:none;stroke-opacity:1" />
      <ellipse
         style="fill:#000000;fill-opacity:1;stroke:#000000;stroke-width:2.72448301;stroke-linejoin:round;stroke-miterlimit:4;stroke-dasharray:none;stroke-opacity:1"
         id="ellipse8765"
         cx="90.072281"
         cy="92.569862"
         rx="1.2002817"
         ry="2.9480603" />
      <path
         transform="scale(0.26458333)"
         id="path8771"
         d="m 367.7832,356.37305 c -3.40236,-0.02 -7.26022,0.42891 -11.67382,1.49609 l -0.0586,0.0352 0.0215,-0.0234 c -0.59278,0.13159 -1.01719,0.46435 -1.24805,0.88281 -0.23603,0.42781 -0.27744,0.92963 -0.16602,1.39063 0.11146,0.46105 0.37795,0.88741 0.78321,1.16015 0.406,0.27326 0.94917,0.3801 1.55468,0.20899 9.51733,-2.30091 15.7393,-1.49359 20.46094,0.39453 4.13441,1.65327 7.15536,4.19731 10.16016,6.54883 -0.13418,0.28679 -0.26907,0.57441 -0.41602,0.95117 -0.46688,1.19685 -0.92574,2.72983 -1.20898,4.50976 -0.56667,3.56077 -0.40909,8.14588 1.97265,12.72266 0.27931,0.53889 0.71365,0.86094 1.17774,0.97852 0.46333,0.11716 0.94674,0.0378 1.35742,-0.17579 0.41102,-0.21316 0.7569,-0.56539 0.92773,-1.01171 0.17122,-0.44716 0.15626,-0.98475 -0.12304,-1.52344 -1.93966,-3.72711 -2.06593,-7.43539 -1.59375,-10.40235 0.23622,-1.4831 0.62484,-2.7669 1,-3.72851 0.0506,-0.12987 0.10214,-0.23044 0.15429,-0.33789 0.32391,0.11236 0.64555,0.21916 1.00196,0.3457 1.09719,0.38953 2.31034,0.84273 3.4414,1.4668 2.27176,1.25342 4.13885,2.92096 4.48438,6.70312 0.0465,0.61248 0.32317,1.0802 0.70898,1.36914 0.38623,0.28952 0.87222,0.40145 1.33789,0.35938 0.46606,-0.0423 0.92018,-0.24036 1.24805,-0.59375 0.32806,-0.35376 0.51791,-0.86665 0.45313,-1.47852 -0.46137,-5.04227 -3.50498,-8.04513 -6.41797,-9.65234 -1.02917,-0.56782 -1.98138,-0.93154 -2.87305,-1.26367 0.90765,-0.71157 1.74277,-1.41989 2.70508,-1.74219 1.09436,-0.36654 2.3752,-0.33143 4.24414,0.57813 l 0.004,-0.006 c 0.55367,0.30081 1.10639,0.32469 1.5625,0.14648 0.45846,-0.17911 0.81639,-0.54395 1.0254,-0.97461 0.209,-0.43035 0.27372,-0.93314 0.13086,-1.4043 -0.14325,-0.47229 -0.50499,-0.90027 -1.0918,-1.14843 -3.45457,-1.67684 -6.37709,-1.22165 -8.57031,-0.23047 -1.09781,0.49608 -2.01565,1.12254 -2.74219,1.67773 -0.66308,0.50671 -1.12767,0.91138 -1.43555,1.13086 -2.98719,-2.33706 -6.26355,-5.31812 -11.22656,-7.30273 -2.72936,-1.09143 -5.8958,-1.84685 -9.63867,-2.01953 -0.46774,-0.0215 -0.94709,-0.0345 -1.4336,-0.0371 z m -11.71093,1.50781 c 0.0132,-0.003 0.0237,-0.009 0.0371,-0.0117 l -0.0332,0.008 z"
         style="color:#000000;font-style:normal;font-variant:normal;font-weight:normal;font-stretch:normal;font-size:medium;line-height:normal;font-family:sans-serif;font-variant-ligatures:normal;font-variant-position:normal;font-variant-caps:normal;font-variant-numeric:normal;font-variant-alternates:normal;font-feature-settings:normal;text-indent:0;text-align:start;text-decoration:none;text-decoration-line:none;text-decoration-style:solid;text-decoration-color:#000000;letter-spacing:normal;word-spacing:normal;text-transform:none;writing-mode:lr-tb;direction:ltr;text-orientation:mixed;dominant-baseline:auto;baseline-shift:baseline;text-anchor:start;white-space:normal;shape-padding:0;clip-rule:nonzero;display:inline;overflow:visible;visibility:visible;opacity:1;isolation:auto;mix-blend-mode:normal;color-interpolation:sRGB;color-interpolation-filters:linearRGB;solid-color:#000000;solid-opacity:1;vector-effect:none;fill:#000000;fill-opacity:1;fill-rule:evenodd;stroke:none;stroke-width:3.2692914;stroke-linecap:round;stroke-linejoin:miter;stroke-miterlimit:4;stroke-dasharray:none;stroke-dashoffset:0;stroke-opacity:1;color-rendering:auto;image-rendering:auto;shape-rendering:auto;text-rendering:auto;enable-background:accumulate"
         inkscape:connector-curvature="0" />
      <path
         id="path8787"
         transform="scale(0.26458333)"
         d="m 280.20312,355.51172 v 0.002 c -0.0276,4.2e-4 -0.0545,4.8e-4 -0.082,0.002 -0.0478,0.002 -0.095,0.006 -0.14257,0.0117 -5.5628,0.58151 -13.75878,2.31742 -26.05079,14.06055 -0.6343,-0.74979 -1.34071,-1.56934 -2.36718,-2.36133 -1.29325,-0.9978 -2.96246,-1.88188 -4.89649,-2.25781 -1.93419,-0.37595 -4.13322,-0.22862 -6.41406,0.82617 -0.59477,0.27398 -1.0071,0.76159 -1.16797,1.29102 -0.16086,0.52943 -0.0944,1.07709 0.12109,1.54492 0.21551,0.46783 0.58879,0.87387 1.09571,1.0957 0.50692,0.22182 1.14546,0.22515 1.74023,-0.0488 3.04953,-1.41025 5.07919,-0.4782 6.91406,0.9375 0.13032,0.10054 0.22243,0.21251 0.34376,0.31641 -0.59671,0.0979 -1.15204,0.14615 -1.79883,0.32617 -3.37356,0.93897 -7.41227,3.37937 -8.60547,8.44141 -0.1502,0.63791 -0.0197,1.26386 0.29883,1.7168 0.3185,0.45293 0.79121,0.73735 1.29297,0.85546 0.50173,0.1183 1.05191,0.0736 1.53906,-0.18945 0.48714,-0.26305 0.883,-0.76443 1.0332,-1.40234 0.78997,-3.3514 3.06109,-4.59943 5.58789,-5.30274 1.5675,-0.43628 2.90753,-0.47409 3.8125,-0.48047 0.95563,1.75719 2.77224,6.10001 0.11133,11.06446 -0.32784,0.57639 -0.37864,1.2212 -0.19336,1.74804 0.18777,0.53398 0.57798,0.9393 1.04102,1.1875 0.46303,0.24832 1.01775,0.34808 1.5664,0.20899 0.5478,-0.13909 1.0605,-0.5465 1.35742,-1.15039 3.68827,-6.90369 1.14448,-12.48554 -0.0469,-14.5918 11.99972,-11.65427 18.78582,-13.02756 24.11914,-13.58594 0.63685,-0.05 1.18016,-0.35277 1.51562,-0.77929 0.33548,-0.4265 0.47579,-0.94939 0.45118,-1.45508 -0.0246,-0.50569 -0.21456,-1.01045 -0.58985,-1.40235 -0.3753,-0.39189 -0.94724,-0.64104 -1.58594,-0.6289 z"
         style="color:#000000;font-style:normal;font-variant:normal;font-weight:normal;font-stretch:normal;font-size:medium;line-height:normal;font-family:sans-serif;font-variant-ligatures:normal;font-variant-position:normal;font-variant-caps:normal;font-variant-numeric:normal;font-variant-alternates:normal;font-feature-settings:normal;text-indent:0;text-align:start;text-decoration:none;text-decoration-line:none;text-decoration-style:solid;text-decoration-color:#000000;letter-spacing:normal;word-spacing:normal;text-transform:none;writing-mode:lr-tb;direction:ltr;text-orientation:mixed;dominant-baseline:auto;baseline-shift:baseline;text-anchor:start;white-space:normal;shape-padding:0;clip-rule:nonzero;display:inline;overflow:visible;visibility:visible;opacity:1;isolation:auto;mix-blend-mode:normal;color-interpolation:sRGB;color-interpolation-filters:linearRGB;solid-color:#000000;solid-opacity:1;vector-effect:none;fill:#000000;fill-opacity:1;fill-rule:evenodd;stroke:none;stroke-width:2.89133859;stroke-linecap:round;stroke-linejoin:miter;stroke-miterlimit:4;stroke-dasharray:none;stroke-dashoffset:0;stroke-opacity:1;color-rendering:auto;image-rendering:auto;shape-rendering:auto;text-rendering:auto;enable-background:accumulate"
         inkscape:connector-curvature="0" />
      <path
         id="path8800"
         transform="scale(0.26458333)"
         d="m 340.38477,404.1543 -0.002,0.002 c -1.76987,0.0265 -2.73878,2.21159 -1.57226,3.54297 1.01461,1.20336 2.13111,4.1546 2.81054,7.7207 0.68228,3.58095 1.05719,7.81236 1.24219,11.83789 0.26933,5.85963 0.12808,11.01882 0.0371,13.52344 -10.84407,1.93149 -13.98836,13.34691 -13.99805,13.38281 -0.18519,0.64199 -0.081,1.28539 0.22657,1.75586 0.30754,0.47048 0.77995,0.7704 1.28515,0.90235 0.50521,0.1319 1.06418,0.0999 1.5625,-0.16016 0.49833,-0.26003 0.90426,-0.7674 1.05664,-1.41797 l -0.006,0.0234 c 0,0 2.24443,-7.92257 9.67578,-9.90625 l -0.004,0.0801 1.45703,-0.39063 c 0.24026,0.38975 0.45194,0.79825 0.87891,1.27149 0.86021,0.95342 1.84015,1.98417 2.71093,3.11523 1.74739,2.26976 2.96669,4.67167 2.33789,7.58398 -0.13874,0.63988 0.002,1.2621 0.32813,1.70899 0.32625,0.44681 0.80332,0.72288 1.30664,0.83203 0.50332,0.10923 1.05118,0.0565 1.5332,-0.21484 0.48203,-0.27137 0.86905,-0.78001 1.00782,-1.41993 0.98291,-4.55247 -1.04566,-8.37484 -3.13282,-11.08593 -0.60649,-0.78777 -1.13187,-1.33507 -1.70117,-1.97071 0.045,0.0113 0.0734,0.006 0.11914,0.0176 2.59466,0.63621 6.16449,2.34971 9.93164,7.1875 h 0.002 c 0.40259,0.51621 0.96945,0.80631 1.52148,0.8418 0.55203,0.034 1.07054,-0.15421 1.47656,-0.4707 0.40602,-0.31673 0.71446,-0.77235 0.81446,-1.31641 0.1,-0.54406 -0.0427,-1.16547 -0.44532,-1.68164 h 0.002 c -4.28511,-5.50299 -8.79607,-7.85687 -12.28711,-8.71289 -1.75562,-0.43045 -2.67243,-0.35255 -3.41993,-0.24219 0.084,-1.72603 0.3052,-6.53864 -0.0117,-13.43359 -0.19079,-4.15098 -0.57523,-8.5391 -1.31836,-12.43946 -0.74096,-3.88898 -1.75533,-7.32475 -3.75,-9.68359 -0.41079,-0.49999 -1.02657,-0.79076 -1.67383,-0.7832 z"
         style="color:#000000;font-style:normal;font-variant:normal;font-weight:normal;font-stretch:normal;font-size:medium;line-height:normal;font-family:sans-serif;font-variant-ligatures:normal;font-variant-position:normal;font-variant-caps:normal;font-variant-numeric:normal;font-variant-alternates:normal;font-feature-settings:normal;text-indent:0;text-align:start;text-decoration:none;text-decoration-line:none;text-decoration-style:solid;text-decoration-color:#000000;letter-spacing:normal;word-spacing:normal;text-transform:none;writing-mode:lr-tb;direction:ltr;text-orientation:mixed;dominant-baseline:auto;baseline-shift:baseline;text-anchor:start;white-space:normal;shape-padding:0;clip-rule:nonzero;display:inline;overflow:visible;visibility:visible;opacity:1;isolation:auto;mix-blend-mode:normal;color-interpolation:sRGB;color-interpolation-filters:linearRGB;solid-color:#000000;solid-opacity:1;vector-effect:none;fill:#000000;fill-opacity:1;fill-rule:evenodd;stroke:none;stroke-width:2.89133859;stroke-linecap:round;stroke-linejoin:miter;stroke-miterlimit:4;stroke-dasharray:none;stroke-dashoffset:0;stroke-opacity:1;color-rendering:auto;image-rendering:auto;shape-rendering:auto;text-rendering:auto;enable-background:accumulate"
         inkscape:connector-curvature="0" />
      <path
         id="path8809"
         transform="scale(0.26458333)"
         d="m 298.77734,394.08789 -0.002,0.002 c -0.93299,-0.0189 -1.77631,0.58039 -2.06836,1.4668 -5.46412,15.70209 -4.86859,31.4747 -4.42383,37.28516 -1.34304,-0.1561 -2.85854,-0.33023 -4.81445,-0.125 -4.16061,0.43657 -9.31292,2.45115 -11.74023,8.09179 -0.26918,0.5847 -0.27005,1.24288 -0.0371,1.75391 0.23387,0.5133 0.65171,0.87412 1.12304,1.07617 0.47133,0.20221 1.0197,0.25476 1.55274,0.0703 0.53304,-0.18444 1.01323,-0.63819 1.25,-1.24023 1.73931,-4.0344 4.99794,-5.2009 8.29492,-5.54687 0.85847,-0.09 1.12553,0.0611 1.58398,0.10156 -3.08605,2.76336 -7.28863,7.66891 -6.99804,15.30468 l 0.002,0.006 v 0.008 c 0.0336,0.62388 0.32716,1.1882 0.75195,1.5332 0.4248,0.34507 0.94323,0.4881 1.44336,0.46875 0.50013,-0.0189 1.00548,-0.20146 1.40235,-0.57813 0.39685,-0.37681 0.64554,-0.96324 0.63086,-1.58789 v -0.008 -0.006 c -0.14741,-3.87352 1.65536,-7.34451 3.7246,-9.99804 1.946,-2.49544 4.00369,-4.14342 4.82422,-4.76368 0.59582,-0.0227 1.95335,-0.0468 3.48047,0.44141 1.00954,0.32277 1.92912,0.77441 2.65039,1.51758 0.72127,0.74317 1.28343,1.78978 1.50782,3.47265 l -0.004,-0.043 c 0.054,0.6619 0.39157,1.24789 0.86328,1.58007 0.47171,0.33222 1.02798,0.43057 1.54688,0.36133 0.51889,-0.0692 1.02838,-0.30955 1.39648,-0.7539 0.36609,-0.44179 0.53552,-1.09287 0.41797,-1.74219 -0.67236,-4.91981 -4.08783,-7.5054 -7.07617,-8.46094 -1.60363,-0.51273 -2.62347,-0.52937 -3.41797,-0.5 -0.3004,-2.89746 -1.73862,-19.54705 4.10547,-36.33008 l -0.006,0.0137 c 0.49643,-1.35337 -0.52391,-2.84478 -1.96485,-2.87109 z"
         style="color:#000000;font-style:normal;font-variant:normal;font-weight:normal;font-stretch:normal;font-size:medium;line-height:normal;font-family:sans-serif;font-variant-ligatures:normal;font-variant-position:normal;font-variant-caps:normal;font-variant-numeric:normal;font-variant-alternates:normal;font-feature-settings:normal;text-indent:0;text-align:start;text-decoration:none;text-decoration-line:none;text-decoration-style:solid;text-decoration-color:#000000;letter-spacing:normal;word-spacing:normal;text-transform:none;writing-mode:lr-tb;direction:ltr;text-orientation:mixed;dominant-baseline:auto;baseline-shift:baseline;text-anchor:start;white-space:normal;shape-padding:0;clip-rule:nonzero;display:inline;overflow:visible;visibility:visible;opacity:1;isolation:auto;mix-blend-mode:normal;color-interpolation:sRGB;color-interpolation-filters:linearRGB;solid-color:#000000;solid-opacity:1;vector-effect:none;fill:#000000;fill-opacity:1;fill-rule:evenodd;stroke:none;stroke-width:2.51338601;stroke-linecap:round;stroke-linejoin:miter;stroke-miterlimit:4;stroke-dasharray:none;stroke-dashoffset:0;stroke-opacity:1;color-rendering:auto;image-rendering:auto;shape-rendering:auto;text-rendering:auto;enable-background:accumulate"
         inkscape:connector-curvature="0" />
      <path
         inkscape:connector-curvature="0"
         id="path8863"
         d="M 34.050553,137.33651 22.636959,144.94557 33.54328,152.301"
         style="fill:none;fill-rule:evenodd;stroke:#000000;stroke-width:3.66499996;stroke-linecap:round;stroke-linejoin:round;stroke-miterlimit:4;stroke-dasharray:none;stroke-opacity:1" />
      <path
         sodipodi:nodetypes="czc"
         inkscape:connector-curvature="0"
         id="path8869"
         d="m 52.952293,139.35372 c -8.115466,-4.88722 -13.00007,1.21151 -12.957842,5.91846 0.04223,4.70694 6.097806,9.72959 12.957841,5.42525"
         style="fill:none;fill-rule:evenodd;stroke:#000000;stroke-width:3.66499996;stroke-linecap:round;stroke-linejoin:round;stroke-miterlimit:4;stroke-dasharray:none;stroke-opacity:1" />
      <ellipse
         ry="7.4392161"
         rx="7.6409817"
         cy="144.91347"
         cx="66.829285"
         id="path8873"
         style="fill:none;fill-opacity:1;stroke:#000000;stroke-width:3.85174298;stroke-linecap:round;stroke-linejoin:round;stroke-miterlimit:4;stroke-dasharray:none;stroke-opacity:1" />
      <path
         id="ellipse8875"
         transform="scale(0.26458333)"
         d="m 362.24414,483.12305 a 6.8111599,6.8111599 0 0 0 -6.77734,6.84179 l -0.27149,30.32618 c -6.24615,-4.98778 -14.19971,-7.98047 -22.79687,-7.98047 -19.77954,0 -36.15626,15.82756 -36.15625,35.39648 2e-5,19.56892 16.37673,35.39649 36.15625,35.39649 19.52643,0 35.72508,-15.42833 36.13672,-34.6504 a 6.8111599,6.8111599 0 0 0 0.0351,-0.6875 l 0.52344,-57.67382 a 6.8111599,6.8111599 0 0 0 -6.84961,-6.96875 z m -29.8457,43.74414 c 12.11967,0 21.59961,9.35189 21.59961,20.83984 -10e-6,11.48795 -9.47995,20.83789 -21.59961,20.83789 -12.11967,0 -21.5996,-9.34994 -21.59961,-20.83789 -1e-5,-11.48795 9.47993,-20.83984 21.59961,-20.83984 z"
         style="color:#000000;font-style:normal;font-variant:normal;font-weight:normal;font-stretch:normal;font-size:medium;line-height:normal;font-family:sans-serif;font-variant-ligatures:normal;font-variant-position:normal;font-variant-caps:normal;font-variant-numeric:normal;font-variant-alternates:normal;font-feature-settings:normal;text-indent:0;text-align:start;text-decoration:none;text-decoration-line:none;text-decoration-style:solid;text-decoration-color:#000000;letter-spacing:normal;word-spacing:normal;text-transform:none;writing-mode:lr-tb;direction:ltr;text-orientation:mixed;dominant-baseline:auto;baseline-shift:baseline;text-anchor:start;white-space:normal;shape-padding:0;clip-rule:nonzero;display:inline;overflow:visible;visibility:visible;opacity:1;isolation:auto;mix-blend-mode:normal;color-interpolation:sRGB;color-interpolation-filters:linearRGB;solid-color:#000000;solid-opacity:1;vector-effect:none;fill:#000000;fill-opacity:1;fill-rule:nonzero;stroke:none;stroke-width:14.55776882;stroke-linecap:round;stroke-linejoin:round;stroke-miterlimit:4;stroke-dasharray:none;stroke-dashoffset:0;stroke-opacity:1;color-rendering:auto;image-rendering:auto;shape-rendering:auto;text-rendering:auto;enable-background:accumulate"
         inkscape:connector-curvature="0" />
      <path
         sodipodi:nodetypes="czzcc"
         inkscape:connector-curvature="0"
         id="path8889"
         d="m 114.4222,150.82787 c -7.07246,4.36432 -12.93859,-0.98821 -12.93859,-5.80032 0,-4.81211 3.47605,-7.55268 7.85885,-7.59752 4.3828,-0.0448 8.0504,2.87559 7.73654,7.40411 l -15.59539,0.19341"
         style="fill:none;fill-rule:evenodd;stroke:#000000;stroke-width:3.66499996;stroke-linecap:round;stroke-linejoin:round;stroke-miterlimit:4;stroke-dasharray:none;stroke-opacity:1" />
      <path
         sodipodi:nodetypes="cc"
         inkscape:connector-curvature="0"
         id="path8891"
         d="m 121.55263,152.53574 10.53666,-23.1358"
         style="fill:none;fill-rule:evenodd;stroke:#000000;stroke-width:3.66499996;stroke-linecap:round;stroke-linejoin:miter;stroke-miterlimit:4;stroke-dasharray:none;stroke-opacity:1" />
      <path
         sodipodi:nodetypes="ccc"
         inkscape:connector-curvature="0"
         id="path8893"
         d="m 135.81075,137.56024 11.38855,7.48774 -11.38855,7.5326"
         style="fill:none;fill-rule:evenodd;stroke:#000000;stroke-width:3.66499996;stroke-linecap:round;stroke-linejoin:round;stroke-miterlimit:4;stroke-dasharray:none;stroke-opacity:1" />
      <path
         sodipodi:nodetypes="sssssssss"
         inkscape:connector-curvature="0"
         id="rect8895"
         d="m 134.59622,156.16753 c 0,0 7.18444,0.56046 13.30467,0.0897 0.75319,-0.0579 1.41521,0.60993 1.36359,1.36359 -0.33628,4.90963 -0.0897,12.35063 0,14.52522 0.0311,0.75479 -0.56353,1.39216 -1.36359,1.36359 -4.39401,-0.15693 -10.63688,-0.26902 -13.32709,0 -0.75168,0.0752 -1.43694,-0.61173 -1.36359,-1.36359 0.17935,-1.83831 0.35869,-10.602 -0.0673,-14.52522 -0.0815,-0.75102 0.69784,-1.45326 1.45327,-1.45326 z"
         style="opacity:1;fill:#000000;fill-opacity:1;stroke:none;stroke-width:4.6351819;stroke-linecap:round;stroke-linejoin:round;stroke-miterlimit:4;stroke-dasharray:none;stroke-opacity:1" />
      <path
         style="opacity:1;fill:#000000;fill-opacity:1;stroke:none;stroke-width:4.6351819;stroke-linecap:round;stroke-linejoin:round;stroke-miterlimit:4;stroke-dasharray:none;stroke-opacity:1"
         d="m 118.47465,156.16753 c 0,0 7.18444,0.56046 13.30467,0.0897 0.75319,-0.0579 1.41521,0.60993 1.36359,1.36359 -0.33628,4.90963 -0.0897,12.35063 0,14.52522 0.0311,0.75479 -0.56353,1.39216 -1.36359,1.36359 -4.39401,-0.15693 -10.63688,-0.26902 -13.32709,0 -0.75168,0.0752 -1.43694,-0.61173 -1.36359,-1.36359 0.17935,-1.83831 0.35869,-10.602 -0.0673,-14.52522 -0.0815,-0.75102 0.69784,-1.45326 1.45327,-1.45326 z"
         id="path8898"
         inkscape:connector-curvature="0"
         sodipodi:nodetypes="sssssssss" />
      <path
         sodipodi:nodetypes="sssssssss"
         inkscape:connector-curvature="0"
         id="path8900"
         d="m 102.35308,156.16753 c 0,0 7.18444,0.56046 13.30467,0.0897 0.75319,-0.0579 1.41521,0.60993 1.36359,1.36359 -0.33628,4.90963 -0.0897,12.35063 0,14.52522 0.0311,0.75479 -0.56353,1.39216 -1.36359,1.36359 -4.39401,-0.15693 -10.63688,-0.26902 -13.32709,0 -0.75168,0.0752 -1.43694,-0.61173 -1.36359,-1.36359 0.17935,-1.83831 0.35869,-10.602 -0.0673,-14.52522 -0.0815,-0.75102 0.69784,-1.45326 1.45327,-1.45326 z"
         style="opacity:1;fill:#000000;fill-opacity:1;stroke:none;stroke-width:4.6351819;stroke-linecap:round;stroke-linejoin:round;stroke-miterlimit:4;stroke-dasharray:none;stroke-opacity:1" />
      <path
         style="opacity:1;fill:#000000;fill-opacity:1;stroke:none;stroke-width:4.6351819;stroke-linecap:round;stroke-linejoin:round;stroke-miterlimit:4;stroke-dasharray:none;stroke-opacity:1"
         d="m 86.29881,156.16753 c 0,0 7.18444,0.56046 13.30467,0.0897 0.75319,-0.0579 1.41521,0.60993 1.36359,1.36359 -0.33628,4.90963 -0.0897,12.35063 0,14.52522 0.0311,0.75479 -0.56353,1.39216 -1.36359,1.36359 -4.39401,-0.15693 -10.63688,-0.26902 -13.32709,0 -0.75168,0.0752 -1.43694,-0.61173 -1.36359,-1.36359 0.17935,-1.83831 0.35869,-10.602 -0.0673,-14.52522 -0.0815,-0.75102 0.69784,-1.45326 1.45327,-1.45326 z"
         id="path8902"
         inkscape:connector-curvature="0"
         sodipodi:nodetypes="sssssssss" />
      <path
         sodipodi:nodetypes="sssssssss"
         inkscape:connector-curvature="0"
         id="path8904"
         d="m 70.24454,156.16753 c 0,0 7.18444,0.56046 13.30467,0.0897 0.75319,-0.0579 1.41521,0.60993 1.36359,1.36359 -0.33628,4.90963 -0.0897,12.35063 0,14.52522 0.0311,0.75479 -0.56353,1.39216 -1.36359,1.36359 -4.39401,-0.15693 -10.63688,-0.26902 -13.32709,0 -0.75168,0.0752 -1.43694,-0.61173 -1.36359,-1.36359 0.17935,-1.83831 0.35869,-10.602 -0.0673,-14.52522 -0.0815,-0.75102 0.69784,-1.45326 1.45327,-1.45326 z"
         style="opacity:1;fill:#000000;fill-opacity:1;stroke:none;stroke-width:4.6351819;stroke-linecap:round;stroke-linejoin:round;stroke-miterlimit:4;stroke-dasharray:none;stroke-opacity:1" />
      <path
         style="opacity:1;fill:#000000;fill-opacity:1;stroke:none;stroke-width:4.6351819;stroke-linecap:round;stroke-linejoin:round;stroke-miterlimit:4;stroke-dasharray:none;stroke-opacity:1"
         d="m 54.19027,156.16753 c 0,0 7.18444,0.56046 13.30467,0.0897 0.75319,-0.0579 1.41521,0.60993 1.36359,1.36359 -0.33628,4.90963 -0.0897,12.35063 0,14.52522 0.0311,0.75479 -0.56353,1.39216 -1.36359,1.36359 -4.39401,-0.15693 -10.63688,-0.26902 -13.32709,0 -0.75168,0.0752 -1.43694,-0.61173 -1.36359,-1.36359 0.17935,-1.83831 0.35869,-10.602 -0.0673,-14.52522 -0.0815,-0.75102 0.69784,-1.45326 1.45327,-1.45326 z"
         id="path8906"
         inkscape:connector-curvature="0"
         sodipodi:nodetypes="sssssssss" />
      <path
         sodipodi:nodetypes="sssssssss"
         inkscape:connector-curvature="0"
         id="path8908"
         d="m 38.136,156.16753 c 0,0 7.18444,0.56046 13.30467,0.0897 0.75319,-0.0579 1.41521,0.60993 1.36359,1.36359 -0.33628,4.90963 -0.0897,12.35063 0,14.52522 0.0311,0.75479 -0.56353,1.39216 -1.36359,1.36359 -4.39401,-0.15693 -10.63688,-0.26902 -13.32709,0 -0.75168,0.0752 -1.43694,-0.61173 -1.36359,-1.36359 0.17935,-1.83831 0.35869,-10.602 -0.0673,-14.52522 -0.0815,-0.75102 0.69784,-1.45326 1.45327,-1.45326 z"
         style="opacity:1;fill:#000000;fill-opacity:1;stroke:none;stroke-width:4.6351819;stroke-linecap:round;stroke-linejoin:round;stroke-miterlimit:4;stroke-dasharray:none;stroke-opacity:1" />
      <path
         style="opacity:1;fill:#000000;fill-opacity:1;stroke:none;stroke-width:4.6351819;stroke-linecap:round;stroke-linejoin:round;stroke-miterlimit:4;stroke-dasharray:none;stroke-opacity:1"
         d="m 22.08173,156.16753 c 0,0 7.18444,0.56046 13.30467,0.0897 0.75319,-0.0579 1.41521,0.60993 1.36359,1.36359 -0.33628,4.90963 -0.0897,12.35063 0,14.52522 0.0311,0.75479 -0.56353,1.39216 -1.36359,1.36359 -4.39401,-0.15693 -10.63688,-0.26902 -13.32709,0 -0.75168,0.0752 -1.43694,-0.61173 -1.36359,-1.36359 0.17935,-1.83831 0.35869,-10.602 -0.0673,-14.52522 -0.0815,-0.75102 0.69784,-1.45326 1.45327,-1.45326 z"
         id="path8910"
         inkscape:connector-curvature="0"
         sodipodi:nodetypes="sssssssss" />
      <g
         id="g8959">
        <path
           style="fill:none;fill-rule:evenodd;stroke:#8aad29;stroke-width:1.76499999;stroke-linecap:round;stroke-linejoin:round;stroke-miterlimit:4;stroke-dasharray:none;stroke-opacity:1"
           d="m 22.684516,165.60101 0.0317,-7.08594 3.535043,6.89571 3.630157,-6.87986 v 6.95912"
           id="path8914"
           inkscape:connector-curvature="0"
           sodipodi:nodetypes="ccccc" />
        <circle
           style="opacity:1;fill:none;fill-opacity:1;stroke:#8aad29;stroke-width:1.82092369;stroke-linecap:round;stroke-linejoin:round;stroke-miterlimit:4;stroke-dasharray:none;stroke-opacity:1"
           id="path8916"
           cx="42.258709"
           cy="161.90663"
           r="3.4693105" />
        <path
           style="fill:none;fill-rule:evenodd;stroke:#8aad29;stroke-width:1.86500001;stroke-linecap:round;stroke-linejoin:round;stroke-miterlimit:4;stroke-dasharray:none;stroke-opacity:1"
           d="m 55.507992,165.69535 v -7.10664 l 5.604603,6.79278 v -6.97213"
           id="path8918"
           inkscape:connector-curvature="0" />
        <path
           style="fill:none;fill-rule:evenodd;stroke:#8aad29;stroke-width:1.66499996;stroke-linecap:round;stroke-linejoin:round;stroke-miterlimit:4;stroke-dasharray:none;stroke-opacity:1"
           d="m 75.51994,159.1016 c 0,0 -0.273733,-0.79261 -1.474256,-0.79261 -0.738201,0 -1.442553,0.64098 -1.442553,1.68033 0,1.79209 3.157971,1.03061 3.218,3.43993 0.02241,0.89957 -0.656799,2.06079 -1.743745,2.06079 -1.614198,0 -1.870559,-0.91943 -1.870559,-0.91943"
           id="path8920"
           inkscape:connector-curvature="0"
           sodipodi:nodetypes="cssssc" />
        <path
           sodipodi:nodetypes="cssssc"
           inkscape:connector-curvature="0"
           id="path8922"
           d="m 139.7531,159.1016 c 0,0 -0.27373,-0.79261 -1.47425,-0.79261 -0.7382,0 -1.44255,0.64098 -1.44255,1.68033 0,1.79209 3.15797,1.03061 3.218,3.43993 0.0224,0.89957 -0.6568,2.06079 -1.74375,2.06079 -1.6142,0 -1.87056,-0.91943 -1.87056,-0.91943"
           style="fill:none;fill-rule:evenodd;stroke:#8aad29;stroke-width:1.66499996;stroke-linecap:round;stroke-linejoin:round;stroke-miterlimit:4;stroke-dasharray:none;stroke-opacity:1" />
        <path
           style="color:#000000;font-style:normal;font-variant:normal;font-weight:normal;font-stretch:normal;font-size:medium;line-height:normal;font-family:sans-serif;font-variant-ligatures:normal;font-variant-position:normal;font-variant-caps:normal;font-variant-numeric:normal;font-variant-alternates:normal;font-feature-settings:normal;text-indent:0;text-align:start;text-decoration:none;text-decoration-line:none;text-decoration-style:solid;text-decoration-color:#000000;letter-spacing:normal;word-spacing:normal;text-transform:none;writing-mode:lr-tb;direction:ltr;text-orientation:mixed;dominant-baseline:auto;baseline-shift:baseline;text-anchor:start;white-space:normal;shape-padding:0;clip-rule:nonzero;display:inline;overflow:visible;visibility:visible;opacity:1;isolation:auto;mix-blend-mode:normal;color-interpolation:sRGB;color-interpolation-filters:linearRGB;solid-color:#000000;solid-opacity:1;vector-effect:none;fill:#90b52b;fill-opacity:1;fill-rule:evenodd;stroke:none;stroke-width:6.29291344;stroke-linecap:round;stroke-linejoin:round;stroke-miterlimit:4;stroke-dasharray:none;stroke-dashoffset:0;stroke-opacity:1;color-rendering:auto;image-rendering:auto;shape-rendering:auto;text-rendering:auto;enable-background:accumulate"
           d="m 338.62109,595.51953 a 3.1467713,3.1467713 0 0 0 -0.46289,0.0449 h -9.14648 a 3.1483843,3.1483843 0 1 0 0,6.29493 h 6.50976 v 23.63085 a 3.14844,3.14844 0 1 0 6.29688,0 v -23.63085 h 6.76172 a 3.1483843,3.1483843 0 1 0 0,-6.29493 h -9.39453 a 3.1467713,3.1467713 0 0 0 -0.56446,-0.0449 z"
           transform="scale(0.26458333)"
           id="path8924"
           inkscape:connector-curvature="0" />
        <path
           style="color:#000000;font-style:normal;font-variant:normal;font-weight:normal;font-stretch:normal;font-size:medium;line-height:normal;font-family:sans-serif;font-variant-ligatures:normal;font-variant-position:normal;font-variant-caps:normal;font-variant-numeric:normal;font-variant-alternates:normal;font-feature-settings:normal;text-indent:0;text-align:start;text-decoration:none;text-decoration-line:none;text-decoration-style:solid;text-decoration-color:#000000;letter-spacing:normal;word-spacing:normal;text-transform:none;writing-mode:lr-tb;direction:ltr;text-orientation:mixed;dominant-baseline:auto;baseline-shift:baseline;text-anchor:start;white-space:normal;shape-padding:0;clip-rule:nonzero;display:inline;overflow:visible;visibility:visible;opacity:1;isolation:auto;mix-blend-mode:normal;color-interpolation:sRGB;color-interpolation-filters:linearRGB;solid-color:#000000;solid-opacity:1;vector-effect:none;fill:#90b52b;fill-opacity:1;fill-rule:evenodd;stroke:none;stroke-width:6.29291344;stroke-linecap:round;stroke-linejoin:round;stroke-miterlimit:4;stroke-dasharray:none;stroke-dashoffset:0;stroke-opacity:1;color-rendering:auto;image-rendering:auto;shape-rendering:auto;text-rendering:auto;enable-background:accumulate"
           d="m 390.86328,595.56445 a 3.1467713,3.1467713 0 0 0 -3.14453,3.15039 v 13.45508 a 3.1483843,3.1483843 0 0 0 0,0.12891 v 13.10156 a 3.1467713,3.1467713 0 0 0 3.14453,3.14453 h 17.96094 a 3.1467713,3.1467713 0 1 0 0,-6.28906 h -14.81641 v -6.92383 h 10.41602 a 3.148435,3.148435 0 1 0 0,-6.29687 h -10.41602 v -7.17578 h 14.73438 a 3.1483843,3.1483843 0 1 0 0,-6.29493 z"
           transform="scale(0.26458333)"
           id="path8933"
           inkscape:connector-curvature="0" />
        <path
           style="color:#000000;font-style:normal;font-variant:normal;font-weight:normal;font-stretch:normal;font-size:medium;line-height:normal;font-family:sans-serif;font-variant-ligatures:normal;font-variant-position:normal;font-variant-caps:normal;font-variant-numeric:normal;font-variant-alternates:normal;font-feature-settings:normal;text-indent:0;text-align:start;text-decoration:none;text-decoration-line:none;text-decoration-style:solid;text-decoration-color:#000000;letter-spacing:normal;word-spacing:normal;text-transform:none;writing-mode:lr-tb;direction:ltr;text-orientation:mixed;dominant-baseline:auto;baseline-shift:baseline;text-anchor:start;white-space:normal;shape-padding:0;clip-rule:nonzero;display:inline;overflow:visible;visibility:visible;opacity:1;isolation:auto;mix-blend-mode:normal;color-interpolation:sRGB;color-interpolation-filters:linearRGB;solid-color:#000000;solid-opacity:1;vector-effect:none;fill:#90b52b;fill-opacity:1;fill-rule:evenodd;stroke:none;stroke-width:6.29291344;stroke-linecap:round;stroke-linejoin:round;stroke-miterlimit:4;stroke-dasharray:none;stroke-dashoffset:0;stroke-opacity:1;color-rendering:auto;image-rendering:auto;shape-rendering:auto;text-rendering:auto;enable-background:accumulate"
           d="m 463.2207,595.5625 -9.06445,0.002 a 3.1467713,3.1467713 0 0 0 -3.14453,3.15039 v 26.85547 a 3.148435,3.148435 0 1 0 6.29687,0 v -8.96875 h 4.00977 l 6.78906,10.73438 a 3.1467713,3.1467713 0 1 0 5.31446,-3.35938 l -5.95508,-9.43164 c 0.2362,-0.17095 0.47548,-0.35329 0.71484,-0.54883 1.98289,-1.61983 4.28906,-4.43079 4.28906,-8.33398 0,-3.86997 -2.36255,-6.63031 -4.39258,-8.05273 -2.02998,-1.42247 -4.05273,-1.94141 -4.05273,-1.94141 a 3.1467713,3.1467713 0 0 0 -0.80469,-0.10547 z m -5.91211,6.29688 h 5.33008 c 0.18142,0.0552 0.91627,0.26216 1.83008,0.90234 1.02032,0.71493 1.71289,1.42399 1.71289,2.90039 0,1.4431 -0.82636,2.51976 -1.97852,3.46094 -0.97753,0.79857 -1.67871,1.0713 -1.94921,1.18945 h -4.94532 z"
           transform="scale(0.26458333)"
           id="path8942"
           inkscape:connector-curvature="0" />
      </g>
    </g>
  </g>
</svg>
