<?xml version="1.0" encoding="UTF-8" standalone="no"?>
<!-- Created with Inkscape (http://www.inkscape.org/) -->

<svg
   xmlns:dc="http://purl.org/dc/elements/1.1/"
   xmlns:cc="http://creativecommons.org/ns#"
   xmlns:rdf="http://www.w3.org/1999/02/22-rdf-syntax-ns#"
   xmlns:svg="http://www.w3.org/2000/svg"
   xmlns="http://www.w3.org/2000/svg"
   xmlns:sodipodi="http://sodipodi.sourceforge.net/DTD/sodipodi-0.dtd"
   xmlns:inkscape="http://www.inkscape.org/namespaces/inkscape"
   version="1.1"
   id="svg2"
   width="233.00049"
   height="284.90585"
   viewBox="0 0 233.00049 284.90585"
   sodipodi:docname="fpgawars.svg"
   inkscape:version="0.92.2 (5c3e80d, 2017-08-06)">
  <metadata
     id="metadata8">
    <rdf:RDF>
      <cc:Work
         rdf:about="">
        <dc:format>image/svg+xml</dc:format>
        <dc:type
           rdf:resource="http://purl.org/dc/dcmitype/StillImage" />
        <dc:title></dc:title>
      </cc:Work>
    </rdf:RDF>
  </metadata>
  <defs
     id="defs6" />
  <sodipodi:namedview
     pagecolor="#ffffff"
     bordercolor="#666666"
     borderopacity="1"
     objecttolerance="10"
     gridtolerance="10"
     guidetolerance="10"
     inkscape:pageopacity="0"
     inkscape:pageshadow="2"
     inkscape:window-width="1702"
     inkscape:window-height="867"
     id="namedview4"
     showgrid="false"
     fit-margin-top="0"
     fit-margin-left="0"
     fit-margin-right="0"
     fit-margin-bottom="0"
     inkscape:zoom="0.55625733"
     inkscape:cx="-562.80455"
     inkscape:cy="314.91145"
     inkscape:window-x="0"
     inkscape:window-y="27"
     inkscape:window-maximized="0"
     inkscape:current-layer="svg2" />
  <path
     style="fill:#009201;fill-opacity:1"
     d="m 53.24285,284.05618 c -3.67634,-1.05922 -9.34561,-6.152 -10.84612,-9.74323 -2.68147,-6.41766 -1.15701,-14.69361 3.46525,-18.81208 C 47.81845,253.75764 48,252.59009 48,241.75087 V 229.90586 H 58.5 69 v 11.56672 c 0,10.66148 0.18797,11.81586 2.4018,14.75 1.32099,1.7508 2.88207,4.95176 3.46908,7.11324 3.36173,12.37859 -9.11007,24.32699 -21.62803,20.72036 z m 56.76429,-0.68921 c -9.31244,-4.18261 -13.33059,-13.65607 -9.58969,-22.60929 0.77959,-1.86583 2.35459,-4.24053 3.5,-5.27711 C 105.80423,253.77305 106,252.48241 106,241.75087 v -11.84501 h 10.5 10.5 v 11.47076 c 0,11.30276 0.0471,11.53756 3.21429,16.03091 4.32993,6.14292 4.51608,13.28517 0.50426,19.34744 -4.53857,6.85824 -13.67156,9.7739 -20.71141,6.612 z m 56.96282,-0.71111 c -10.29333,-5.20003 -12.86704,-17.7767 -5.44332,-26.59929 C 163.84686,253.29915 164,252.39857 164,241.5115 v -11.60564 h 10.5 10.5 v 11.60564 c 0,10.88707 0.15314,11.78765 2.47336,14.54507 7.42372,8.82259 4.85001,21.39926 -5.44332,26.59929 -2.4496,1.2375 -5.83812,2.25 -7.53004,2.25 -1.69192,0 -5.08044,-1.0125 -7.53004,-2.25 z M 27.66142,209.94277 4.82284,209.40586 2.41142,206.6001 0,203.79433 V 142.40587 81.017391 L 2.37979,78.25072 c 1.88092,-2.186704 3.50553,-2.87968 7.75,-3.305764 L 15.5,74.405864 16.01497,69.291519 c 0.90183,-8.956315 -1.97885,-8.386397 42.35747,-8.380078 22.89214,0.0033 40.61514,0.418809 42.71265,1.00147 1.9718,0.547742 5.28373,2.46425 7.35984,4.258907 l 3.77475,3.263014 3.43413,-3.238802 c 4.39633,-4.146273 11.68281,-6.290166 21.37847,-6.290166 11.84274,0 18.50513,3.138753 23.51803,11.079697 1.78136,2.821858 3.16189,3.920303 4.92705,3.920303 2.69504,0 3.90983,-1.695412 5.01562,-7 1.37313,-6.587053 2.34479,-7 16.47088,-7 8.60742,0 13.16294,0.399726 14.24579,1.25 0.87556,0.6875 2.32414,3.8375 3.21907,7 l 1.62715,5.75 10.22206,0.02224 c 10.86656,0.02364 13.14415,0.850022 15.60503,5.662023 0.7858,1.536556 1.11704,19.862113 1.11704,61.799663 0,66.16442 0.18271,64.2883 -6.5343,67.09485 -2.86436,1.1968 -17.0257,1.38757 -89.68358,1.20813 -47.45517,-0.11719 -96.55948,-0.45469 -109.1207,-0.75 z m 88.54809,-13.04475 c 3.34861,-2.46206 3.43463,-2.46098 4.09163,0.0514 0.4885,1.86803 1.19299,2.01834 8.20236,1.75 l 7.66797,-0.29354 -0.12411,-19.26823 c -0.0683,-10.59752 -0.37403,-20.04752 -0.67947,-21 -1.93771,-6.04235 -2.96931,-7.49794 -6.64174,-9.37148 -5.77592,-2.94665 -17.36415,-3.65216 -23.22482,-1.41395 -5.26925,2.01235 -9.33924,6.77994 -10.17277,11.91641 l -0.57587,3.54867 7.87365,0.29429 7.87366,0.29429 1,-3 c 1.94733,-5.84199 9.4001,-3.65798 7.84251,2.29823 -0.52757,2.01746 -3.86929,3.40492 -13.40191,5.5644 -3.70007,0.8382 -9.21125,4.80173 -10.66129,7.66739 -1.83572,3.62787 -1.57869,12.86448 0.47224,16.96998 3.43716,6.88041 13.78364,8.89942 20.45796,3.99216 z m -3.96468,-10.24216 c -1.81898,-2.2736 -2.37147,-5.64486 -1.26416,-7.71388 0.89361,-1.66972 6.76351,-5.03612 8.78136,-5.03612 0.28478,0 0.25175,2.5775 -0.0734,5.72777 -0.72839,7.05738 -4.5394,10.65255 -7.44382,7.02223 z m 62.83412,-33.63005 -0.0789,-7.38005 -4.71756,0.53173 c -3.60859,0.40674 -5.35722,1.24764 -7.43868,3.5772 l -2.72112,3.04546 -0.31132,-2.69714 c -0.3092,-2.67883 -0.36567,-2.69715 -8.31132,-2.69715 h -8 l -0.26688,25.75 -0.26688,25.75 h 8.51688 8.51688 l 0.006,-13.75 c 0.007,-17.65443 0.83484,-20.83382 5.78125,-22.20759 7.16648,-1.99034 6.69392,-0.78461 9.39354,-2.28617 -0.17604,-0.2162 -0.0585,-3.57726 -0.10189,-7.63629 z m 15.32514,25.48438 c 5.40818,1.99525 8.16623,3.58611 8.86962,5.11606 1.44263,3.13791 -0.70661,5.46933 -4.68369,5.08068 -2.54996,-0.24919 -3.16891,-0.81799 -3.59217,-3.30107 -0.51126,-2.99943 -0.51284,-3.00006 -8.25437,-3.29206 l -7.74343,-0.29207 v 3.09173 c 0,5.72615 4.55708,11.70945 10.5,13.78617 4.06855,1.42173 14.43516,1.46193 18.60078,0.0721 l -5e-5,2e-5 c 7.80719,-2.60477 12.79162,-11.17589 11.61231,-19.96831 -0.77913,-5.80886 -3.71865,-8.35701 -14.42692,-12.50613 -8.79514,-3.40783 -9.37557,-3.80791 -9.09059,-6.26586 0.24998,-2.15609 0.88775,-2.68179 3.56657,-2.93985 2.93543,-0.28279 3.32352,-0.007 3.875,2.75 l 0.61285,3.06426 h 7.51092 7.51093 l -0.62704,-4.75 c -1.12074,-8.49 -9.01174,-12.95995 -21.17422,-11.99439 -10.12477,0.8038 -15.25185,7.91802 -15.74738,15.85127 -0.33095,4.90879 3.69884,13.18369 12.68088,16.49745 z M 52.42876,196.65586 c 0.25678,-1.2375 1.22554,-7.65 2.1528,-14.25 2.02588,-14.4197 2.90191,-16.58482 3.79025,-9.36761 0.36337,2.95219 1.39681,9.99558 2.29654,15.65199 l 1.63586,10.28437 9.5912,-0.28437 9.59119,-0.28438 1.23304,-5 c 1.84849,-7.49561 8.13217,-37.38871 8.88116,-42.25 l 0.65482,-4.25 h -8.5 -8.5 l -0.55749,3.75 c -0.30661,2.0625 -1.11678,8.8125 -1.80037,15 -0.68359,6.1875 -1.51395,11.25 -1.84524,11.25 -0.3313,0 -1.405,-5.5125 -2.386,-12.25 -0.98101,-6.7375 -2.02177,-13.50444 -2.31281,-15.03765 l -0.52916,-2.78766 -8.60123,0.28766 -8.60124,0.28765 -0.7004,3 c -0.38523,1.65 -1.49969,8.738 -2.47659,15.75112 -0.9769,7.01312 -1.91009,12.61721 -2.07376,12.45355 -0.16366,-0.16367 -0.99371,-5.90167 -1.84456,-12.75112 -0.85084,-6.84945 -1.78782,-13.91605 -2.08219,-15.70355 l -0.53521,-3.25 h -8.45469 c -4.65007,0 -8.45468,0.40338 -8.45468,0.89641 0,0.49302 1.13737,6.23052 2.5275,12.75 1.39013,6.51947 3.66992,17.45727 5.06621,24.3062 1.39628,6.84894 2.76046,12.81144 3.03151,13.25 0.27105,0.43857 4.73268,0.79739 9.91474,0.79739 8.9659,0 9.44453,-0.1089 9.8888,-2.25 z m 89.16013,-64.24999 c 3.96007,-3.0205 4.41111,-3.07162 4.41111,-0.5 0,1.77778 0.66667,2 6,2 h 6 v -18 -18.000003 h -11 -11 v 6.000003 c 0,5.73333 0.11111,6 2.5,6 2.3285,0 2.5,0.3381 2.5,4.92857 0,5.55221 -1.74666,8.07143 -5.59618,8.07143 -3.83784,0 -4.56849,-3.66418 -4.55136,-22.82476 0.0126,-14.128562 0.30865,-17.772183 1.60456,-19.750001 3.12527,-4.769751 7.32563,-2.464614 8.26455,4.535536 l 0.54177,4.039219 H 149.63167 158 l -0.022,-4.25 c -0.0395,-7.643477 -4.90572,-15.263259 -11.29314,-17.683388 -4.23925,-1.606207 -16.03875,-1.295909 -20.91466,0.550005 -5.31507,2.012166 -9.30549,6.118446 -10.76746,11.080082 -0.61633,2.091815 -1.61398,10.103301 -2.21697,17.803304 -2.23091,28.487813 2.60578,38.487593 18.61984,38.496263 5.82867,0.003 7.41677,-0.38614 10.18328,-2.49626 z M 40,120.44085 v -13.46501 l 10.25,-0.28499 10.25,-0.28498 0.29569,-6.750003 0.29569,-6.750003 H 50.49578 39.90019 l 0.2999,-5.75 0.29991,-5.75 L 51.25,81.122032 62,80.838201 V 73.872032 66.905864 H 42 22 v 33.500006 33.5 h 9 9 z m 43.00981,0.71502 0.01,-12.75 6.93869,-0.21789 c 8.37007,-0.26283 13.23669,-2.37892 17.40801,-7.5693 5.33282,-6.635654 4.77339,-20.828022 -1.09594,-27.803322 -4.37669,-5.201189 -7.40172,-5.909494 -25.23845,-5.909494 H 65 v 33.500006 33.5 h 9 9 l 0.01,-12.75 z m -0.01,-33.750006 v -7.5 h 2.92742 c 4.14158,0 7.44058,4.344857 6.71129,8.838917 -0.7494,4.61804 -2.31751,6.161086 -6.26115,6.161086 h -3.37756 z m 96.67981,41.250006 0.83235,-5.25 6.66068,-0.29379 6.66067,-0.29379 0.8404,5.29379 0.8404,5.29379 9.24285,0.28753 c 5.08356,0.15814 9.25746,-0.0669 9.27532,-0.5 0.0179,-0.43314 -3.6884,-15.52503 -8.23615,-33.537533 L 197.52749,66.905864 H 187.3022 177.0769 l -0.99167,3.75 c -0.54542,2.0625 -4.17205,16.35 -8.05918,31.750006 -3.88713,15.4 -7.31355,28.7875 -7.61426,29.75 -0.49431,1.58215 0.36358,1.75 8.94436,1.75 h 9.49111 z m 3.33665,-20.5 c 0.0411,-1.87224 3.79911,-21.398909 4.19444,-21.794237 0.24417,-0.24417 1.33029,4.728394 2.4136,11.050144 l 1.96966,11.494093 h -4.29708 c -2.36339,0 -4.28967,-0.3375 -4.28062,-0.75 z M 48,43.060852 c 0,-10.731536 -0.19577,-12.022181 -2.08256,-13.729698 -1.1454,-1.036577 -2.7204,-3.411277 -3.5,-5.277112 -3.78882,-9.067937 0.37495,-18.6565294 9.81409,-22.6004515 4.98295,-2.08201002 8.30824,-1.94893102 13.44576,0.5381 C 75.94056,6.9600496 78.78024,20.071416 71.4737,28.754751 69.15307,31.512661 69,32.412726 69,43.30022 V 54.905864 H 58.5 48 Z m 58,0.239368 c 0,-10.887066 -0.15314,-11.787642 -2.47336,-14.545066 -7.42372,-8.822588 -4.85001,-21.3992604 5.44332,-26.5992905 5.6252,-2.84176202 9.43488,-2.84176202 15.06008,0 10.29333,5.2000301 12.86704,17.7767025 5.44332,26.5992905 C 127.15314,31.512578 127,32.413154 127,43.30022 V 54.905864 H 116.5 106 Z m 58,0 c 0,-10.887494 -0.15307,-11.787559 -2.4737,-14.545469 -8.85792,-10.527042 -2.75172,-26.1901425 11.07188,-28.40062552 4.2821,-0.684735 10.2007,1.18245802 13.75645,4.33987612 2.70192,2.39923 5.59732,9.0935954 5.62341,13.0017004 0.0237,3.551763 -2.86246,10.03942 -5.40495,12.149504 C 185.30388,30.898558 185,33.445167 185,43.028309 V 54.905864 H 174.5 164 Z"
     id="path817"
     inkscape:connector-curvature="0"
     sodipodi:nodetypes="cssscccssccsccscccscssssscccsssssscccccsscscsscsssssscscscscsscscccccsscccscssscccssccccccsccscccccccccscscscssccscsccccccccscscccccccccccssccccccsccccsssccsccsscccccsssscccccccsscsccccccccccccccccccccccccccscscccccccccscsccccccccscscccsscsccccscscsccsssscccssssssscccssssccsscccs" />
</svg>
