<?xml version="1.0" encoding="UTF-8" standalone="no"?>
<!-- Created with Inkscape (http://www.inkscape.org/) -->

<svg
   xmlns:dc="http://purl.org/dc/elements/1.1/"
   xmlns:cc="http://creativecommons.org/ns#"
   xmlns:rdf="http://www.w3.org/1999/02/22-rdf-syntax-ns#"
   xmlns:svg="http://www.w3.org/2000/svg"
   xmlns="http://www.w3.org/2000/svg"
   xmlns:sodipodi="http://sodipodi.sourceforge.net/DTD/sodipodi-0.dtd"
   xmlns:inkscape="http://www.inkscape.org/namespaces/inkscape"
   version="1.1"
   id="svg2"
   xml:space="preserve"
   width="300"
   height="98.214157"
   viewBox="0 0 300.00001 98.214158"
   sodipodi:docname="gadis [Converted].svg"
   inkscape:version="0.92.2 (5c3e80d, 2017-08-06)"><metadata
     id="metadata8"><rdf:RDF><cc:Work
         rdf:about=""><dc:format>image/svg+xml</dc:format><dc:type
           rdf:resource="http://purl.org/dc/dcmitype/StillImage" /><dc:title></dc:title></cc:Work></rdf:RDF></metadata><defs
     id="defs6"><clipPath
       clipPathUnits="userSpaceOnUse"
       id="clipPath20"><path
         d="M 0,56.692 H 113.386 V 0 H 0 Z"
         id="path18"
         inkscape:connector-curvature="0" /></clipPath></defs><sodipodi:namedview
     pagecolor="#ffffff"
     bordercolor="#666666"
     borderopacity="1"
     objecttolerance="10"
     gridtolerance="10"
     guidetolerance="10"
     inkscape:pageopacity="0"
     inkscape:pageshadow="2"
     inkscape:window-width="1920"
     inkscape:window-height="1148"
     id="namedview4"
     showgrid="false"
     inkscape:zoom="1.3030709"
     inkscape:cx="187.21371"
     inkscape:cy="-39.957156"
     inkscape:window-x="-8"
     inkscape:window-y="-8"
     inkscape:window-maximized="1"
     inkscape:current-layer="g10"
     fit-margin-top="0"
     fit-margin-left="0"
     fit-margin-right="0"
     fit-margin-bottom="0" /><g
     id="g10"
     inkscape:groupmode="layer"
     inkscape:label="gadis [Converted]"
     transform="matrix(1.3333333,0,0,-1.3333333,-18.741335,117.39949)"><path
       d="M 14.367351,87.738271 H 238.74466 V 14.700351 H 14.367351 Z"
       style="fill:#5e331a;fill-opacity:1;fill-rule:nonzero;stroke:#5e331a;stroke-width:0.6226989;stroke-linecap:butt;stroke-linejoin:miter;stroke-miterlimit:3.86400008;stroke-dasharray:none;stroke-opacity:1"
       id="path12"
       inkscape:connector-curvature="0" /><g
       id="g14"
       transform="matrix(2.6385546,0,0,2.6385546,-23.031547,-23.577171)"><g
         id="g16"
         clip-path="url(#clipPath20)"><g
           id="g22"
           transform="translate(81.4121,24.375)"><path
             d="m 0,0 0.322,-0.251 c 1.133,-0.879 2.496,-1.596 3.951,-1.596 0.623,0 1.615,0.254 1.615,1.038 0,0.788 -0.83,0.858 -1.407,0.971 L 3.208,0.393 c -2.467,0.438 -4.547,1.893 -4.547,4.619 0,4.133 3.765,6.44 7.549,6.44 1.987,0 3.811,-0.484 5.52,-1.522 L 10.021,5.472 C 8.937,6.211 7.714,6.789 6.351,6.789 5.796,6.789 4.99,6.581 4.99,5.866 4.99,5.221 5.771,5.126 6.259,5.012 L 7.689,4.69 c 2.68,-0.603 4.618,-2.034 4.618,-4.99 0,-4.154 -3.785,-6.21 -7.552,-6.21 -2.192,0 -4.731,0.601 -6.692,1.593 z"
             style="fill:#aa273e;fill-opacity:1;fill-rule:nonzero;stroke:none"
             id="path24"
             inkscape:connector-curvature="0" /></g><g
           id="g26"
           transform="translate(82.2646,25.4531)"><path
             d="m 0,0 0.321,-0.252 c 1.134,-0.879 2.494,-1.596 3.95,-1.596 0.622,0 1.617,0.254 1.617,1.039 0,0.787 -0.83,0.857 -1.409,0.971 l -1.272,0.23 c -2.469,0.438 -4.546,1.893 -4.546,4.62 0,4.133 3.762,6.439 7.549,6.439 1.985,0 3.811,-0.484 5.518,-1.522 L 10.021,5.472 C 8.934,6.21 7.708,6.788 6.348,6.788 5.796,6.788 4.987,6.58 4.987,5.863 4.987,5.22 5.771,5.125 6.256,5.012 L 7.687,4.687 c 2.679,-0.6 4.619,-2.032 4.619,-4.988 0,-4.154 -3.786,-6.21 -7.551,-6.21 -2.192,0 -4.734,0.601 -6.694,1.593 z"
             style="fill:#ef3e33;fill-opacity:1;fill-rule:nonzero;stroke:none"
             id="path28"
             inkscape:connector-curvature="0" /></g><g
           id="g30"
           transform="translate(83.0342,26.5303)"><path
             d="m 0,0 0.322,-0.254 c 1.133,-0.877 2.496,-1.594 3.951,-1.594 0.623,0 1.615,0.255 1.615,1.039 0,0.788 -0.83,0.857 -1.407,0.971 L 3.208,0.393 c -2.467,0.437 -4.547,1.892 -4.547,4.619 0,4.133 3.765,6.439 7.549,6.439 1.987,0 3.811,-0.483 5.52,-1.522 L 10.021,5.472 C 8.937,6.21 7.714,6.789 6.351,6.789 5.796,6.789 4.99,6.58 4.99,5.863 4.99,5.22 5.771,5.125 6.259,5.012 l 1.43,-0.327 c 2.68,-0.598 4.618,-2.029 4.618,-4.986 0,-4.154 -3.787,-6.21 -7.549,-6.21 -2.195,0 -4.734,0.601 -6.695,1.591 z"
             style="fill:#f8991d;fill-opacity:1;fill-rule:nonzero;stroke:none"
             id="path32"
             inkscape:connector-curvature="0" /></g><g
           id="g34"
           transform="translate(61.2783,29.9756)"><path
             d="M 0,0 H 0.39 C 2.702,0 4.108,-1.039 4.108,-3.486 4.108,-5.772 2.494,-6.74 0.39,-6.74 H 0 Z m -6.329,-11.96 h 8.014 c 5.101,0 8.753,3.277 8.753,8.449 0,6.397 -4.482,8.96 -10.322,8.96 h -6.445 z"
             style="fill:#aa273e;fill-opacity:1;fill-rule:nonzero;stroke:none"
             id="path36"
             inkscape:connector-curvature="0" /></g><g
           id="g38"
           transform="translate(62.085,31.0527)"><path
             d="M 0,0 H 0.392 C 2.704,0 4.11,-1.039 4.11,-3.486 4.11,-5.771 2.496,-6.74 0.392,-6.74 H 0 Z m -6.327,-11.96 h 8.014 c 5.101,0 8.748,3.278 8.748,8.449 0,6.397 -4.477,8.961 -10.319,8.961 h -6.443 z"
             style="fill:#ef3e33;fill-opacity:1;fill-rule:nonzero;stroke:none"
             id="path40"
             inkscape:connector-curvature="0" /></g><g
           id="g42"
           transform="translate(62.9316,32.1299)"><path
             d="m 0,0 h 0.393 c 2.309,0 3.718,-1.038 3.718,-3.486 0,-2.285 -1.617,-3.256 -3.718,-3.256 H 0 Z m -6.326,-11.96 h 8.012 c 5.103,0 8.752,3.278 8.752,8.449 0,6.397 -4.479,8.958 -10.322,8.958 h -6.442 z"
             style="fill:#f8991d;fill-opacity:1;fill-rule:nonzero;stroke:none"
             id="path44"
             inkscape:connector-curvature="0" /></g><g
           id="g46"
           transform="translate(43.0352,24.3174)"><path
             d="m 0,0 1.155,5.312 h 0.23 C 1.499,4.573 1.615,3.811 1.799,3.072 L 2.537,0 Z m -1.131,-4.133 h 4.777 l 0.577,-2.169 h 6.696 L 4.709,11.107 H -2.288 L -8.336,-6.302 h 6.697 z"
             style="fill:#aa273e;fill-opacity:1;fill-rule:nonzero;stroke:none"
             id="path48"
             inkscape:connector-curvature="0" /></g><g
           id="g50"
           transform="translate(43.8682,25.3945)"><path
             d="m 0,0 1.155,5.312 h 0.23 C 1.499,4.571 1.617,3.811 1.799,3.072 L 2.537,0 Z m -1.131,-4.133 h 4.777 l 0.579,-2.169 h 6.697 l -6.213,17.41 h -6.994 l -6.051,-17.41 h 6.697 z"
             style="fill:#ef3e33;fill-opacity:1;fill-rule:nonzero;stroke:none"
             id="path52"
             inkscape:connector-curvature="0" /></g><g
           id="g54"
           transform="translate(36.5977,28.3174)"><path
             d="m 0,0 c -0.048,-2.843 -0.048,-5.221 -2.102,-7.436 -1.849,-2.009 -4.687,-3.093 -7.388,-3.093 -5.313,0 -9.605,3.28 -9.605,8.865 0,5.68 4.181,9.099 9.653,9.099 3.021,0 7.178,-1.503 8.542,-4.482 L -6.811,0.784 c -0.486,0.879 -1.386,1.339 -2.404,1.339 -2.261,0 -3.511,-1.939 -3.511,-4.041 0,-1.915 1.206,-3.717 3.259,-3.717 0.993,0 2.262,0.463 2.562,1.524 H -9.767 V 0 Z"
             style="fill:#aa273e;fill-opacity:1;fill-rule:nonzero;stroke:none"
             id="path56"
             inkscape:connector-curvature="0" /></g><g
           id="g58"
           transform="translate(37.2129,29.3945)"><path
             d="m 0,0 c -0.046,-2.843 -0.046,-5.22 -2.1,-7.436 -1.849,-2.009 -4.689,-3.093 -7.391,-3.093 -5.309,0 -9.605,3.278 -9.605,8.866 0,5.677 4.182,9.098 9.654,9.098 3.023,0 7.178,-1.503 8.542,-4.482 L -6.811,0.784 c -0.486,0.879 -1.387,1.339 -2.401,1.339 -2.265,0 -3.511,-1.939 -3.511,-4.041 0,-1.915 1.203,-3.716 3.256,-3.716 0.993,0 2.262,0.462 2.562,1.523 H -9.767 V 0 Z"
             style="fill:#ef3e33;fill-opacity:1;fill-rule:nonzero;stroke:none"
             id="path60"
             inkscape:connector-curvature="0" /></g><g
           id="g62"
           transform="translate(37.8281,30.4717)"><path
             d="m 0,0 c -0.047,-2.843 -0.047,-5.22 -2.1,-7.436 -1.849,-2.008 -4.689,-3.093 -7.391,-3.093 -5.31,0 -9.602,3.278 -9.602,8.866 0,5.68 4.179,9.099 9.651,9.099 3.023,0 7.18,-1.504 8.544,-4.482 l -5.911,-2.17 c -0.489,0.879 -1.387,1.339 -2.404,1.339 -2.264,0 -3.511,-1.939 -3.511,-4.041 0,-1.915 1.204,-3.716 3.257,-3.716 0.992,0 2.261,0.462 2.562,1.523 h -2.86 V 0 Z"
             style="fill:#f8991d;fill-opacity:1;fill-rule:nonzero;stroke:none"
             id="path64"
             inkscape:connector-curvature="0" /></g><g
           id="g66"
           transform="translate(38.4453,31.5488)"><path
             d="m 0,0 c -0.049,-2.842 -0.049,-5.22 -2.1,-7.435 -1.849,-2.009 -4.689,-3.094 -7.393,-3.094 -5.308,0 -9.603,3.278 -9.603,8.864 0,5.68 4.179,9.101 9.651,9.101 3.026,0 7.181,-1.504 8.544,-4.482 l -5.91,-2.17 c -0.487,0.879 -1.387,1.339 -2.402,1.339 -2.266,0 -3.51,-1.938 -3.51,-4.04 0,-1.918 1.201,-3.717 3.256,-3.717 0.99,0 2.262,0.463 2.562,1.524 H -9.767 V 0 Z"
             style="fill:#ffe607;fill-opacity:1;fill-rule:nonzero;stroke:none"
             id="path68"
             inkscape:connector-curvature="0" /></g><g
           id="g70"
           transform="translate(44.7012,26.4717)"><path
             d="M 0,0 1.155,5.312 H 1.388 C 1.501,4.571 1.617,3.812 1.801,3.072 L 2.54,0 Z m -1.131,-4.133 h 4.779 l 0.577,-2.169 h 6.697 l -6.211,17.41 h -6.996 l -6.051,-17.41 h 6.697 z"
             style="fill:#f8991d;fill-opacity:1;fill-rule:nonzero;stroke:none"
             id="path72"
             inkscape:connector-curvature="0" /></g><g
           id="g74"
           transform="translate(45.5361,27.5498)"><path
             d="m 0,0 1.155,5.309 h 0.23 C 1.499,4.57 1.615,3.811 1.799,3.072 L 2.537,0 Z m -1.131,-4.133 h 4.777 l 0.577,-2.17 h 6.696 l -6.21,17.41 h -6.997 l -6.048,-17.41 h 6.697 z"
             style="fill:#ffe607;fill-opacity:1;fill-rule:nonzero;stroke:none"
             id="path76"
             inkscape:connector-curvature="0" /></g><path
           d="M 72.842,35.423 H 79.17 V 18.016 h -6.328 z"
           style="fill:#aa273e;fill-opacity:1;fill-rule:nonzero;stroke:none"
           id="path78"
           inkscape:connector-curvature="0" /><path
           d="m 73.643,36.503 h 6.326 v -17.41 h -6.326 z"
           style="fill:#ef3e33;fill-opacity:1;fill-rule:nonzero;stroke:none"
           id="path80"
           inkscape:connector-curvature="0" /><path
           d="M 74.444,37.577 H 80.77 V 20.17 h -6.326 z"
           style="fill:#f8991d;fill-opacity:1;fill-rule:nonzero;stroke:none"
           id="path82"
           inkscape:connector-curvature="0" /><path
           d="m 75.248,38.657 h 6.326 v -17.41 h -6.326 z"
           style="fill:#ffe607;fill-opacity:1;fill-rule:nonzero;stroke:none"
           id="path84"
           inkscape:connector-curvature="0" /><g
           id="g86"
           transform="translate(63.7793,33.207)"><path
             d="m 0,0 h 0.39 c 2.312,0 3.718,-1.041 3.718,-3.486 0,-2.285 -1.614,-3.256 -3.718,-3.256 H 0 Z m -6.329,-11.96 h 8.014 c 5.101,0 8.753,3.276 8.753,8.45 0,6.394 -4.482,8.958 -10.322,8.958 h -6.445 z"
             style="fill:#ffe607;fill-opacity:1;fill-rule:nonzero;stroke:none"
             id="path88"
             inkscape:connector-curvature="0" /></g><g
           id="g90"
           transform="translate(83.7871,27.5566)"><path
             d="m 0,0 0.322,-0.252 c 1.133,-0.879 2.493,-1.596 3.949,-1.596 0.622,0 1.617,0.255 1.617,1.039 0,0.788 -0.83,0.858 -1.409,0.971 L 3.21,0.393 c -2.472,0.437 -4.549,1.892 -4.549,4.619 0,4.133 3.763,6.44 7.549,6.44 1.985,0 3.811,-0.484 5.518,-1.523 L 10.021,5.472 C 8.934,6.21 7.711,6.789 6.348,6.789 5.796,6.789 4.987,6.58 4.987,5.866 4.987,5.22 5.77,5.125 6.256,5.012 L 7.687,4.689 c 2.68,-0.602 4.62,-2.033 4.62,-4.989 0,-4.155 -3.787,-6.211 -7.549,-6.211 -2.196,0 -4.737,0.601 -6.697,1.594 z"
             style="fill:#ffe607;fill-opacity:1;fill-rule:nonzero;stroke:none"
             id="path92"
             inkscape:connector-curvature="0" /></g></g></g></g></svg>