<?xml version="1.0" encoding="UTF-8" standalone="no"?>
<!-- Created with Inkscape (http://www.inkscape.org/) -->

<svg
   xmlns:dc="http://purl.org/dc/elements/1.1/"
   xmlns:cc="http://creativecommons.org/ns#"
   xmlns:rdf="http://www.w3.org/1999/02/22-rdf-syntax-ns#"
   xmlns:svg="http://www.w3.org/2000/svg"
   xmlns="http://www.w3.org/2000/svg"
   xmlns:sodipodi="http://sodipodi.sourceforge.net/DTD/sodipodi-0.dtd"
   xmlns:inkscape="http://www.inkscape.org/namespaces/inkscape"
   version="1.1"
   id="svg2"
   xml:space="preserve"
   width="954.66669"
   height="1226.6667"
   viewBox="0 0 954.66669 1226.6667"
   sodipodi:docname="ImaxeESon.svg"
   inkscape:version="0.92.2 (5c3e80d, 2017-08-06)"><metadata
     id="metadata8"><rdf:RDF><cc:Work
         rdf:about=""><dc:format>image/svg+xml</dc:format><dc:type
           rdf:resource="http://purl.org/dc/dcmitype/StillImage" /><dc:title></dc:title></cc:Work></rdf:RDF></metadata><defs
     id="defs6" /><sodipodi:namedview
     pagecolor="#ffffff"
     bordercolor="#666666"
     borderopacity="1"
     objecttolerance="10"
     gridtolerance="10"
     guidetolerance="10"
     inkscape:pageopacity="0"
     inkscape:pageshadow="2"
     inkscape:window-width="640"
     inkscape:window-height="513"
     id="namedview4"
     showgrid="false"
     inkscape:zoom="0.19239129"
     inkscape:cx="386.37289"
     inkscape:cy="613.33337"
     inkscape:window-x="0"
     inkscape:window-y="27"
     inkscape:window-maximized="0"
     inkscape:current-layer="g10" /><g
     id="g10"
     inkscape:groupmode="layer"
     inkscape:label="ink_ext_XXXXXX"
     transform="matrix(1.3333333,0,0,-1.3333333,0,1226.6667)"><g
       id="g12"
       transform="scale(0.1)"><path
         d="M 212.68,4324.57 V 3985.13 H 671 v 339.44 h 98.809 v -339.44 h 415.651 v 339.44 h 98.83 l 61.41,-339.44 h 348.74 l 61.42,339.43 98.83,0.01 v -339.44 h 415.65 v 339.44 h 107.75 l -73.57,-339.44 h 454.41 l 50.49,211.67 h 238.87 l 48.54,-211.67 h 411.89 44.48 442.97 l 102.92,217.5 9.39,121.94 h 56.97 l 9.37,-121.94 99.07,-217.5 h 487.42 l -175.08,339.44 h 208.12 v -339.44 h 951.59 v 339.43 l 224.06,0.01 V 3740.4 H 6.44922 v 584.15 z m 3266.94,0 60.42,-278.73 143.78,278.73 z M 2085.26,249.297 c 153.41,0 258.28,104.871 258.28,256.351 v 712.692 c 0,153.43 -104.87,258.3 -258.28,258.3 h -555.43 c -153.41,0 -258.28,-104.87 -258.28,-258.3 V 505.648 c 0,-151.48 104.87,-256.351 258.28,-256.351 z M 1885.21,1129.03 V 596.918 H 1729.88 V 1129.03 Z M 6.44922,1721.38 H 7157.29 V 4.56641 H 6.44922 Z m 0,1867.91 H 2527.66 V 1872.48 H 6.44922 Z M 1164.26,2482.32 H 671 v 100.98 h 479.66 v 295.17 H 671 v 100.99 h 493.26 v 365.1 H 212.68 V 2117.21 h 951.58 z M 3523.84,1476.64 H 3065.51 V 969.781 h -11.64 L 2828.6,1476.64 H 2449.9 V 249.297 h 458.33 V 756.16 h 11.64 l 227.22,-506.863 h 376.75 z M 919.793,249.297 c 145.147,0 245.637,104.871 245.637,258.277 V 779.457 L 677.875,1064.93 v 13.61 h 487.555 v 398.1 H 460.184 c -145.149,0 -247.504,-104.87 -247.504,-256.35 V 948.414 L 696.504,662.938 V 649.34 H 212.68 V 249.297 h 707.113"
         style="fill:#231f20;fill-opacity:1;fill-rule:evenodd;stroke:none"
         id="path14"
         inkscape:connector-curvature="0" /><path
         d="M 6.44922,4324.57 V 5457.21 H 5970 V 4324.55 l -224.06,0.02 v 25.66 h -493.26 v 100.99 h 479.66 v 295.17 h -479.66 v 100.99 h 493.26 v 365.1 h -951.59 v -887.91 h -208.12 l -141.45,274.22 316.53,613.69 H 4273.89 L 4174.82,4996.9 4159.3,4793 h -44.66 l -15.55,203.9 -102.92,215.58 h -487.45 l 316.56,-613.69 -141.46,-274.22 h -204.2 l -192.47,887.91 h -716.6 l -192.46,-887.91 h -107.75 v 887.91 h -634.03 l -116.25,-642.82 -116.22,642.82 H 769.809 V 4324.57 H 671 v 887.91 H 212.68 v -887.91 z m 1179.01078,0 v 144.1 l -33.49,382.59 h 37.01 l 95.31,-526.7 z m 570.4,0 95.3,526.69 h 37.01 l -33.48,-382.59 v -144.1 z m 2409.59,0 -6.15,80.04 h -44.66 l -6.16,-80.04 z M 6.44922,7325.13 H 2527.66 V 5608.32 H 6.44922 Z m 0,1867.91 H 7157.29 V 7476.23 H 6.44922 Z M 2267.04,6218.15 h -536 v 100.99 h 522.4 v 295.17 h -522.4 v 100.98 h 536 v 365.1 H 1272.72 V 5853.05 h 994.32 z m -1076.21,605.89 c 0,151.49 -104.87,256.35 -258.283,256.35 H 212.68 V 5853.05 h 719.867 c 153.413,0 258.283,104.87 258.283,258.27 z m -26.57,1262.03 H 671 v 100.98 h 479.66 v 295.18 H 671 v 100.98 h 493.26 v 365.1 H 212.68 V 7720.96 h 951.58 z m 846.42,-365.11 c 151.49,0 256.36,104.87 256.36,258.28 v 271.88 l -508.82,285.48 v 13.6 h 508.82 v 398.11 h -736.01 c -151.49,0 -258.31,-104.87 -258.31,-256.35 V 8420.08 L 1777.66,8134.6 V 8121 h -504.94 v -400.04 z m 970.35,553.48 V 8068.58 H 2825.7 v 532.12 h 155.33 v -203.91 h 458.33 V 8690 c 0,153.44 -104.88,258.31 -258.28,258.31 h -555.43 c -153.41,0 -258.28,-104.87 -258.28,-258.31 v -712.68 c 0,-151.49 104.87,-256.36 258.28,-256.36 h 555.43 c 153.4,0 258.28,104.87 258.28,256.36 v 297.12 z m 1378.62,-553.48 c 153.41,0 258.28,104.87 258.28,256.36 V 8690 c 0,153.44 -104.87,258.31 -258.28,258.31 h -555.43 c -153.41,0 -258.28,-104.87 -258.28,-258.31 v -712.68 c 0,-151.49 104.87,-256.36 258.28,-256.36 z M 4159.6,8600.7 V 8068.58 H 4004.27 V 8600.7 Z M 5633.78,8121 h -450.54 v 827.31 H 4724.92 V 7720.96 h 908.86 z m 760.49,-188.37 48.54,-211.67 h 456.37 l -266.04,1227.35 h -716.6 L 5650.5,7720.96 h 454.41 l 50.49,211.67 z m -186.41,240.82 27.17,118.47 13.6,335.95 h 50.5 l 13.57,-335.95 27.2,-118.47 z M 647.547,6200.67 v 532.11 h 155.359 v -532.11 z m 2214.323,-1763.05 27.17,118.47 13.6,335.95 h 50.5 l 13.57,-335.95 27.2,-118.47 h -132.04"
         style="fill:#231f20;fill-opacity:1;fill-rule:evenodd;stroke:none"
         id="path16"
         inkscape:connector-curvature="0" /></g></g></svg>