<?xml version="1.0" encoding="UTF-8" standalone="no"?>
<!-- Created with Inkscape (http://www.inkscape.org/) -->

<svg
   xmlns:dc="http://purl.org/dc/elements/1.1/"
   xmlns:cc="http://creativecommons.org/ns#"
   xmlns:rdf="http://www.w3.org/1999/02/22-rdf-syntax-ns#"
   xmlns:svg="http://www.w3.org/2000/svg"
   xmlns="http://www.w3.org/2000/svg"
   xmlns:sodipodi="http://sodipodi.sourceforge.net/DTD/sodipodi-0.dtd"
   xmlns:inkscape="http://www.inkscape.org/namespaces/inkscape"
   version="1.1"
   id="svg2"
   width="174.39702"
   height="46.905064"
   viewBox="0 0 174.39702 46.905063"
   sodipodi:docname="miniMO_logo.svg"
   inkscape:version="0.92+devel unknown">
  <metadata
     id="metadata8">
    <rdf:RDF>
      <cc:Work
         rdf:about="">
        <dc:format>image/svg+xml</dc:format>
        <dc:type
           rdf:resource="http://purl.org/dc/dcmitype/StillImage" />
        <dc:title />
      </cc:Work>
    </rdf:RDF>
  </metadata>
  <defs
     id="defs6" />
  <sodipodi:namedview
     pagecolor="#ffffff"
     bordercolor="#666666"
     borderopacity="1"
     objecttolerance="10"
     gridtolerance="10"
     guidetolerance="10"
     inkscape:pageopacity="0"
     inkscape:pageshadow="2"
     inkscape:window-width="1680"
     inkscape:window-height="1013"
     id="namedview4"
     showgrid="false"
     fit-margin-top="0"
     fit-margin-left="0"
     fit-margin-right="0"
     fit-margin-bottom="0"
     inkscape:zoom="2.004048"
     inkscape:cx="102.01629"
     inkscape:cy="24.351808"
     inkscape:window-x="0"
     inkscape:window-y="0"
     inkscape:window-maximized="1"
     inkscape:current-layer="svg2"
     inkscape:document-rotation="0" />
  <path
     style="fill:#000000;stroke-width:1.03225803"
     d=""
     id="path825"
     inkscape:connector-curvature="0" />
  <path
     style="fill:#000000;stroke-width:1.03225803"
     d=""
     id="path823"
     inkscape:connector-curvature="0" />
  <g
     id="g4286"
     transform="translate(-3.5798454,71.21391)">
    <path
       id="path843"
       d="m 177.77601,-47.761379 a 23.452532,23.452532 0 0 1 -23.45253,23.452532 23.452532,23.452532 0 0 1 -23.45253,-23.452532 23.452532,23.452532 0 0 1 23.45253,-23.452531 23.452532,23.452532 0 0 1 23.45253,23.452531 z"
       style="opacity:1;fill:#1e73be;fill-opacity:1;stroke:none;stroke-width:18.89763832;stroke-linecap:round;stroke-linejoin:round;stroke-miterlimit:4;stroke-dasharray:none;stroke-opacity:1"
       inkscape:connector-curvature="0" />
    <path
       inkscape:connector-curvature="0"
       id="path845"
       d="m 121.94222,-70.125827 a 6.6506651,6.6506651 0 0 0 -5.30078,2.904297 l -10.41211,15.292969 -9.994145,-14.990235 a 6.6506651,6.6506651 0 0 0 -12.183594,3.689453 v 31.185547 a 6.6506651,6.6506651 0 1 0 13.300782,0 v -9.222656 l 3.285157,4.927734 a 6.6506651,6.6506651 0 0 0 11.03125,0.05469 l 3.82031,-5.611328 v 9.851562 a 6.6506651,6.6506651 0 1 0 13.29883,0 v -31.435549 a 6.6506651,6.6506651 0 0 0 -6.8457,-6.646484 z"
       style="color:#000000;font-style:normal;font-variant:normal;font-weight:normal;font-stretch:normal;font-size:medium;line-height:normal;font-family:sans-serif;font-variant-ligatures:normal;font-variant-position:normal;font-variant-caps:normal;font-variant-numeric:normal;font-variant-alternates:normal;font-feature-settings:normal;text-indent:0;text-align:start;text-decoration:none;text-decoration-line:none;text-decoration-style:solid;text-decoration-color:#000000;letter-spacing:normal;word-spacing:normal;text-transform:none;writing-mode:lr-tb;direction:ltr;text-orientation:mixed;dominant-baseline:auto;baseline-shift:baseline;text-anchor:start;white-space:normal;shape-padding:0;clip-rule:nonzero;display:inline;overflow:visible;visibility:visible;opacity:1;isolation:auto;mix-blend-mode:normal;color-interpolation:sRGB;color-interpolation-filters:linearRGB;solid-color:#000000;solid-opacity:1;vector-effect:none;fill:#1e73be;fill-opacity:1;fill-rule:evenodd;stroke:none;stroke-width:13.30000019;stroke-linecap:round;stroke-linejoin:round;stroke-miterlimit:4;stroke-dasharray:none;stroke-dashoffset:0;stroke-opacity:1;color-rendering:auto;image-rendering:auto;shape-rendering:auto;text-rendering:auto;enable-background:accumulate" />
    <path
       inkscape:connector-curvature="0"
       id="path847"
       d="m 76.151201,-70.205905 a 4.4004401,4.4004401 0 0 0 -4.369141,4.427734 l -0.177734,21.345703 a 4.4005389,4.4005389 0 1 0 8.800781,0.07227 l 0.175781,-21.345707 a 4.4004401,4.4004401 0 0 0 -4.429687,-4.5 z"
       style="color:#000000;font-style:normal;font-variant:normal;font-weight:normal;font-stretch:normal;font-size:medium;line-height:normal;font-family:sans-serif;font-variant-ligatures:normal;font-variant-position:normal;font-variant-caps:normal;font-variant-numeric:normal;font-variant-alternates:normal;font-feature-settings:normal;text-indent:0;text-align:start;text-decoration:none;text-decoration-line:none;text-decoration-style:solid;text-decoration-color:#000000;letter-spacing:normal;word-spacing:normal;text-transform:none;writing-mode:lr-tb;direction:ltr;text-orientation:mixed;dominant-baseline:auto;baseline-shift:baseline;text-anchor:start;white-space:normal;shape-padding:0;clip-rule:nonzero;display:inline;overflow:visible;visibility:visible;opacity:1;isolation:auto;mix-blend-mode:normal;color-interpolation:sRGB;color-interpolation-filters:linearRGB;solid-color:#000000;solid-opacity:1;vector-effect:none;fill:#1e73be;fill-opacity:1;fill-rule:evenodd;stroke:none;stroke-width:8.80000019;stroke-linecap:round;stroke-linejoin:miter;stroke-miterlimit:4;stroke-dasharray:none;stroke-dashoffset:0;stroke-opacity:1;color-rendering:auto;image-rendering:auto;shape-rendering:auto;text-rendering:auto;enable-background:accumulate" />
    <path
       inkscape:connector-curvature="0"
       id="path849"
       d="m 57.832841,-69.78989 c -4.806902,0 -8.441273,2.684942 -10.037109,5.251954 -1.595836,2.567011 -1.759766,5.164062 -1.759766,5.164062 a 4.4004401,4.4004401 0 0 0 -0.01172,0.335938 v 14.642578 a 4.4004401,4.4004401 0 1 0 8.798828,0 v -14.337891 c 0.0042,-0.02923 0.07691,-0.5656 0.445312,-1.158203 0.378313,-0.608542 0.448703,-1.097656 2.564453,-1.097656 2.078374,0 2.416438,0.59194 2.9375,1.351562 0.479046,0.698369 0.580296,1.237055 0.601563,1.335938 v 13.552734 a 4.4004401,4.4004401 0 1 0 8.800781,0 v -14.113281 a 4.4004401,4.4004401 0 0 0 -0.05273,-0.675781 c 0,0 -0.374082,-2.572031 -2.091797,-5.076172 -1.717716,-2.504141 -5.351033,-5.175782 -10.195313,-5.175782 z"
       style="color:#000000;font-style:normal;font-variant:normal;font-weight:normal;font-stretch:normal;font-size:medium;line-height:normal;font-family:sans-serif;font-variant-ligatures:normal;font-variant-position:normal;font-variant-caps:normal;font-variant-numeric:normal;font-variant-alternates:normal;font-feature-settings:normal;text-indent:0;text-align:start;text-decoration:none;text-decoration-line:none;text-decoration-style:solid;text-decoration-color:#000000;letter-spacing:normal;word-spacing:normal;text-transform:none;writing-mode:lr-tb;direction:ltr;text-orientation:mixed;dominant-baseline:auto;baseline-shift:baseline;text-anchor:start;white-space:normal;shape-padding:0;clip-rule:nonzero;display:inline;overflow:visible;visibility:visible;opacity:1;isolation:auto;mix-blend-mode:normal;color-interpolation:sRGB;color-interpolation-filters:linearRGB;solid-color:#000000;solid-opacity:1;vector-effect:none;fill:#1e73be;fill-opacity:1;fill-rule:evenodd;stroke:none;stroke-width:8.80000019;stroke-linecap:round;stroke-linejoin:round;stroke-miterlimit:4;stroke-dasharray:none;stroke-dashoffset:0;stroke-opacity:1;color-rendering:auto;image-rendering:auto;shape-rendering:auto;text-rendering:auto;enable-background:accumulate" />
    <path
       inkscape:connector-curvature="0"
       id="path851"
       d="m 39.557451,-69.850436 a 4.4004401,4.4004401 0 0 0 -4.294922,4.498046 l 0.175781,20.994141 a 4.400547,4.400547 0 1 0 8.800781,-0.07422 l -0.177734,-20.994139 a 4.4004401,4.4004401 0 0 0 -4.503906,-4.423828 z"
       style="color:#000000;font-style:normal;font-variant:normal;font-weight:normal;font-stretch:normal;font-size:medium;line-height:normal;font-family:sans-serif;font-variant-ligatures:normal;font-variant-position:normal;font-variant-caps:normal;font-variant-numeric:normal;font-variant-alternates:normal;font-feature-settings:normal;text-indent:0;text-align:start;text-decoration:none;text-decoration-line:none;text-decoration-style:solid;text-decoration-color:#000000;letter-spacing:normal;word-spacing:normal;text-transform:none;writing-mode:lr-tb;direction:ltr;text-orientation:mixed;dominant-baseline:auto;baseline-shift:baseline;text-anchor:start;white-space:normal;shape-padding:0;clip-rule:nonzero;display:inline;overflow:visible;visibility:visible;opacity:1;isolation:auto;mix-blend-mode:normal;color-interpolation:sRGB;color-interpolation-filters:linearRGB;solid-color:#000000;solid-opacity:1;vector-effect:none;fill:#1e73be;fill-opacity:1;fill-rule:evenodd;stroke:none;stroke-width:8.80000019;stroke-linecap:round;stroke-linejoin:miter;stroke-miterlimit:4;stroke-dasharray:none;stroke-dashoffset:0;stroke-opacity:1;color-rendering:auto;image-rendering:auto;shape-rendering:auto;text-rendering:auto;enable-background:accumulate" />
    <path
       inkscape:connector-curvature="0"
       id="path853"
       d="m 29.119951,-70.301608 a 4.4476498,4.4476498 0 0 0 -3.544922,1.941406 l -6.962891,10.226562 -6.683594,-10.02539 a 4.4476498,4.4476498 0 0 0 -8.146484,2.466797 v 20.857422 a 4.4476498,4.4476498 0 1 0 8.892578,0 v -6.169922 l 2.197266,3.296875 a 4.4476498,4.4476498 0 0 0 7.376953,0.03711 l 2.554687,-3.751953 v 6.587891 a 4.4476498,4.4476498 0 1 0 8.894532,0 v -21.023439 a 4.4476498,4.4476498 0 0 0 -4.578125,-4.443359 z"
       style="color:#000000;font-style:normal;font-variant:normal;font-weight:normal;font-stretch:normal;font-size:medium;line-height:normal;font-family:sans-serif;font-variant-ligatures:normal;font-variant-position:normal;font-variant-caps:normal;font-variant-numeric:normal;font-variant-alternates:normal;font-feature-settings:normal;text-indent:0;text-align:start;text-decoration:none;text-decoration-line:none;text-decoration-style:solid;text-decoration-color:#000000;letter-spacing:normal;word-spacing:normal;text-transform:none;writing-mode:lr-tb;direction:ltr;text-orientation:mixed;dominant-baseline:auto;baseline-shift:baseline;text-anchor:start;white-space:normal;shape-padding:0;clip-rule:nonzero;display:inline;overflow:visible;visibility:visible;opacity:1;isolation:auto;mix-blend-mode:normal;color-interpolation:sRGB;color-interpolation-filters:linearRGB;solid-color:#000000;solid-opacity:1;vector-effect:none;fill:#1e73be;fill-opacity:1;fill-rule:evenodd;stroke:none;stroke-width:8.89441013;stroke-linecap:round;stroke-linejoin:round;stroke-miterlimit:4;stroke-dasharray:none;stroke-dashoffset:0;stroke-opacity:1;color-rendering:auto;image-rendering:auto;shape-rendering:auto;text-rendering:auto;enable-background:accumulate" />
  </g>
</svg>
