<?xml version="1.0" encoding="UTF-8" standalone="no"?>
<!-- Created with Inkscape (http://www.inkscape.org/) -->

<svg
   xmlns:dc="http://purl.org/dc/elements/1.1/"
   xmlns:cc="http://creativecommons.org/ns#"
   xmlns:rdf="http://www.w3.org/1999/02/22-rdf-syntax-ns#"
   xmlns:svg="http://www.w3.org/2000/svg"
   xmlns="http://www.w3.org/2000/svg"
   xmlns:sodipodi="http://sodipodi.sourceforge.net/DTD/sodipodi-0.dtd"
   xmlns:inkscape="http://www.inkscape.org/namespaces/inkscape"
   width="154.41512mm"
   height="26.686045mm"
   viewBox="0 0 154.41512 26.686045"
   version="1.1"
   id="svg8"
   inkscape:version="0.92.2 (5c3e80d, 2017-08-06)"
   sodipodi:docname="museos.svg">
  <defs
     id="defs2" />
  <sodipodi:namedview
     id="base"
     pagecolor="#ffffff"
     bordercolor="#666666"
     borderopacity="1.0"
     inkscape:pageopacity="0.0"
     inkscape:pageshadow="2"
     inkscape:zoom="1.979899"
     inkscape:cx="275.23734"
     inkscape:cy="-31.297685"
     inkscape:document-units="mm"
     inkscape:current-layer="layer1"
     showgrid="false"
     inkscape:window-width="1920"
     inkscape:window-height="1016"
     inkscape:window-x="0"
     inkscape:window-y="27"
     inkscape:window-maximized="1"
     fit-margin-top="0"
     fit-margin-left="0"
     fit-margin-right="0"
     fit-margin-bottom="0" />
  <metadata
     id="metadata5">
    <rdf:RDF>
      <cc:Work
         rdf:about="">
        <dc:format>image/svg+xml</dc:format>
        <dc:type
           rdf:resource="http://purl.org/dc/dcmitype/StillImage" />
        <dc:title></dc:title>
      </cc:Work>
    </rdf:RDF>
  </metadata>
  <g
     inkscape:label="Capa 1"
     inkscape:groupmode="layer"
     id="layer1"
     transform="translate(-12.38349,-88.028736)">
    <g
       id="g612">
      <path
         d="M 36.816102,88.028736 H 166.79861 V 114.71478 H 36.816102 V 88.028736"
         style="fill:#171717;fill-opacity:1;fill-rule:nonzero;stroke:none;stroke-width:0.25688413"
         id="path132"
         inkscape:connector-curvature="0" />
      <path
         d="M 12.38349,88.028736 H 39.065865 V 114.71478 H 12.38349 V 88.028736"
         style="fill:#17a7e8;fill-opacity:1;fill-rule:nonzero;stroke:none;stroke-width:0.23195773"
         id="path134"
         inkscape:connector-curvature="0" />
      <path
         d="m 20.357941,97.191065 h 10.729851 v 8.324965 l 0.0072,0.24657 c 0,2.98553 -2.405655,5.4074 -5.371278,5.4074 -2.965603,0 -5.371264,-2.42187 -5.371264,-5.4074 l 0.0054,-0.24657 z m 1.030218,3.287305 c 0.155832,0.71582 1.236818,1.44974 1.919098,0 l -0.96951,-0.904401 z m 0.197519,-0.993245 v 0.449545 l 0.492875,-0.443956 z m 1.525843,-0.0016 h -0.495637 l 0.495637,0.448361 z m -1.723375,4.836545 c 0.155832,0.72232 1.236818,1.45345 1.919098,0 l -0.96951,-0.90231 z m 0.197519,-0.99022 v 0.4502 l 0.492875,-0.4502 z m 1.525842,0 H 22.61587 l 0.495637,0.44652 z m 5.02877,0.99022 c 0.152216,0.72232 1.241348,1.45345 1.91727,0 l -0.964967,-0.90231 z m 0.197519,-0.98767 -9.01e-4,0.4477 0.494716,-0.4477 z m 1.525842,-0.003 h -0.492875 l 0.492875,0.44652 z m -1.723381,-2.85145 c 0.152216,0.71582 1.241348,1.44974 1.91727,0 L 29.09256,99.573969 Z m 0.197519,-0.993241 -9.01e-4,0.449545 0.494717,-0.443956 z m 1.525843,-0.0016 h -0.492876 l 0.492876,0.448361 z M 26.12511,98.287298 c 0,-0.221978 -0.181212,-0.400362 -0.401415,-0.400362 -0.219282,0 -0.401415,0.178384 -0.401415,0.400362 z m -0.797359,0.300815 v 0.537455 h 0.790119 v -0.537455 z m -0.45211,0.908808 v 0.946849 h 0.66143 v -0.42403 h 0.32442 v 0.42403 h 0.71127 v -0.946843 z m 1.962573,1.338399 -0.11329,-0.16491 h -1.970739 l -0.146758,0.16491 z m -4.232325,6.21206 v 0.48663 h 6.237505 v -0.48663 z m 2.314148,2.35762 -0.04603,-0.35164 -0.690447,-0.25354 -0.01841,-0.24657 -0.296278,0.0164 0.01447,0.32961 -0.153135,0.10692 0.151294,0.22197 0.190286,-0.15399 z m 0.05063,0.26722 -0.882508,0.2294 -0.169442,-0.1749 -0.176675,0.2039 0.1413,0.12223 -0.04866,0.29621 0.292661,0.0506 0.04537,-0.21106 0.814593,-0.2039 z m 1.535817,-0.31706 0.866221,-0.27813 0.183973,0.16491 0.160369,-0.21297 -0.146758,-0.12059 0.03156,-0.32797 -0.293582,-0.0316 -0.03288,0.24729 -0.70311,0.21481 z m -0.06509,0.26557 -0.03353,0.31173 0.801876,0.24729 0.03353,0.21481 0.292661,-0.0309 -0.03288,-0.29897 0.148599,-0.11415 -0.162209,-0.21757 -0.181212,0.16865 z m -1.230466,0.0761 c 0,0.26281 0.226515,0.4767 0.506486,0.4767 0.276355,0 0.50379,-0.21389 0.50379,-0.4767 l -0.01446,-0.10876 -0.148599,0.0779 v 0.22106 h -0.685062 v -0.22639 l -0.145903,-0.0761 z m -0.252816,-0.87171 c 0,0.35348 0.240126,0.65252 0.5654,0.74111 v 0.18489 h 0.369656 v -0.18489 c 0.335269,-0.0796 0.581707,-0.38044 0.581707,-0.74111 0,-0.4212 -0.34066,-0.7629 -0.757481,-0.7629 -0.421337,0 -0.759295,0.34164 -0.759295,0.7629 z m 2.00877,-3.4956 -2.486286,0.99487 v 0.49386 h 0.629705 v -0.63161 h 0.275435 v 0.63161 h 0.703136 v -0.63161 h 0.276355 v 0.63161 h 0.601629 z m 0,-1.28133 -2.486286,0.99858 v 0.98767 l 2.486286,-0.99208 z m 0,-1.28018 -2.486286,0.99927 v 0.98768 l 2.486286,-0.99301 z m 0,-1.28041 -2.486286,0.99673 v 0.99486 l 2.486286,-0.99834 z m -2.486286,-0.42028 v 1.12708 l 2.486286,-0.99672 v -0.13039 h -2.486286"
         style="fill:#ffffff;fill-opacity:1;fill-rule:nonzero;stroke:none;stroke-width:0.23195773"
         id="path136"
         inkscape:connector-curvature="0" />
      <path
         d="m 22.717391,96.214295 h 6.011878 v 0.585257 h -6.011878 v -0.585257"
         style="fill:#ffffff;fill-opacity:1;fill-rule:nonzero;stroke:none;stroke-width:0.23195773"
         id="path138"
         inkscape:connector-curvature="0" />
      <path
         d="m 25.110362,103.56527 v 0.42331 h 0.275434 v -0.42331 h -0.275434"
         style="fill:#ffffff;fill-opacity:1;fill-rule:nonzero;stroke:none;stroke-width:0.23195773"
         id="path140"
         inkscape:connector-curvature="0" />
      <path
         d="m 26.095278,103.5263 v 0.42403 h 0.275434 v -0.42403 h -0.275434"
         style="fill:#ffffff;fill-opacity:1;fill-rule:nonzero;stroke:none;stroke-width:0.23195773"
         id="path142"
         inkscape:connector-curvature="0" />
      <path
         d="m 25.110362,104.84567 v 0.42311 h 0.275434 v -0.42311 h -0.275434"
         style="fill:#ffffff;fill-opacity:1;fill-rule:nonzero;stroke:none;stroke-width:0.23195773"
         id="path144"
         inkscape:connector-curvature="0" />
      <path
         d="m 26.104345,104.80392 v 0.42864 h 0.275434 v -0.42864 h -0.275434"
         style="fill:#ffffff;fill-opacity:1;fill-rule:nonzero;stroke:none;stroke-width:0.23195773"
         id="path146"
         inkscape:connector-curvature="0" />
      <path
         d="m 25.110362,102.28138 v 0.42311 h 0.275434 v -0.42311 h -0.275434"
         style="fill:#ffffff;fill-opacity:1;fill-rule:nonzero;stroke:none;stroke-width:0.23195773"
         id="path148"
         inkscape:connector-curvature="0" />
      <path
         d="m 26.095278,102.24705 v 0.42403 h 0.275434 v -0.42403 h -0.275434"
         style="fill:#ffffff;fill-opacity:1;fill-rule:nonzero;stroke:none;stroke-width:0.23195773"
         id="path150"
         inkscape:connector-curvature="0" />
      <path
         d="m 25.338698,95.839214 v -1.93545 c 0,0 -0.300814,-0.429622 -0.847205,-0.317121 -0.663232,0.135909 -0.580786,0.951258 -0.06181,1.950764 l 0.154977,0.303642 h -0.720344 l -0.349733,-0.824613 c 0,0 -0.348814,-0.806518 -0.03616,-1.266722 0,0 -0.161289,-0.202976 -0.545477,-0.151229 -0.415025,0.06049 -0.617935,0.486432 -0.346117,0.933169 0,0 0.117761,0.223819 0.485643,0.803731 l 0.342501,0.501028 -0.76474,0.0028 -0.646011,-0.95868 c 0,0 -0.539099,-0.817414 0.09968,-1.467824 0,0 0.40319,-0.463944 1.179712,-0.315477 0,0 0.369722,0.06378 0.51648,0.233813 0,0 0.271818,-0.289965 0.883435,-0.251895 0,0 0.634242,0.0072 1.040167,0.428636 0.406806,-0.407792 1.041094,-0.428636 1.041094,-0.428636 0.611623,-0.03814 0.882534,0.251895 0.882534,0.251895 0.145903,-0.170231 0.51648,-0.233813 0.51648,-0.233813 0.776503,-0.148467 1.177904,0.315477 1.177904,0.315477 0.64062,0.650417 0.101455,1.467824 0.101455,1.467824 l -0.647852,0.95868 -0.763813,-0.0028 0.342501,-0.501028 c 0.369723,-0.579866 0.487484,-0.803731 0.487484,-0.803731 0.270898,-0.446717 0.06792,-0.872625 -0.347958,-0.933169 -0.382347,-0.05194 -0.544557,0.151229 -0.544557,0.151229 0.314425,0.460197 -0.03616,1.266722 -0.03616,1.266722 l -0.348879,0.824613 H 26.86268 l 0.155832,-0.303642 c 0.51648,-0.999506 0.601629,-1.814842 -0.06444,-1.95077 -0.544556,-0.112502 -0.846278,0.317121 -0.846278,0.317121 v 1.935456 h -0.117761 -0.530091 -0.121378"
         style="fill:#ffffff;fill-opacity:1;fill-rule:nonzero;stroke:none;stroke-width:0.23195773"
         id="path152"
         inkscape:connector-curvature="0" />
      <path
         d="m 25.82799,109.02439 c 0,0.12249 0.09876,0.22474 0.221978,0.22474 0.119603,0 0.220203,-0.10231 0.220203,-0.22474 0,-0.12506 -0.1006,-0.22198 -0.220203,-0.22198 -0.123219,0 -0.221978,0.097 -0.221978,0.22198 z m -0.665973,-0.004 c 0,0.12223 0.09968,0.22382 0.220202,0.22382 0.122299,0 0.221978,-0.10159 0.221978,-0.22382 0,-0.12224 -0.09968,-0.22382 -0.221978,-0.22382 -0.120523,0 -0.220202,0.10158 -0.220202,0.22382 z m 0.683187,0.44671 -0.06444,-0.11158 -0.06312,-0.11322 -0.06615,0.11322 -0.06509,0.11158 h 0.131372 0.127756"
         style="fill:#ffffff;fill-opacity:1;fill-rule:nonzero;stroke:none;stroke-width:0.23195773"
         id="path154"
         inkscape:connector-curvature="0" />
      <path
         d="m 26.469491,92.115138 h -0.54186 v -0.541861 h -0.419497 v 0.541861 H 24.96989 v 0.420548 h 0.538244 v 0.537192 h 0.419497 v -0.537192 h 0.54186 v -0.420548"
         style="fill:#ffffff;fill-opacity:1;fill-rule:nonzero;stroke:none;stroke-width:0.23195773"
         id="path156"
         inkscape:connector-curvature="0" />
      <path
         d="m 25.110362,103.56527 v 0.42331 h 0.275434 v -0.42331 h -0.275434"
         style="fill:#ffffff;fill-opacity:1;fill-rule:nonzero;stroke:none;stroke-width:0.23195773"
         id="path158"
         inkscape:connector-curvature="0" />
      <path
         d="m 26.095278,103.5263 v 0.42403 h 0.275434 v -0.42403 h -0.275434"
         style="fill:#ffffff;fill-opacity:1;fill-rule:nonzero;stroke:none;stroke-width:0.23195773"
         id="path160"
         inkscape:connector-curvature="0" />
      <path
         d="m 25.110362,104.84567 v 0.42311 h 0.275434 v -0.42311 h -0.275434"
         style="fill:#ffffff;fill-opacity:1;fill-rule:nonzero;stroke:none;stroke-width:0.23195773"
         id="path162"
         inkscape:connector-curvature="0" />
      <path
         d="m 26.104345,104.80392 v 0.42864 h 0.275434 v -0.42864 h -0.275434"
         style="fill:#ffffff;fill-opacity:1;fill-rule:nonzero;stroke:none;stroke-width:0.23195773"
         id="path164"
         inkscape:connector-curvature="0" />
      <path
         d="m 25.110362,102.28138 v 0.42311 h 0.275434 v -0.42311 h -0.275434"
         style="fill:#ffffff;fill-opacity:1;fill-rule:nonzero;stroke:none;stroke-width:0.23195773"
         id="path166"
         inkscape:connector-curvature="0" />
      <path
         d="m 26.095278,102.24705 v 0.42403 h 0.275434 v -0.42403 h -0.275434"
         style="fill:#ffffff;fill-opacity:1;fill-rule:nonzero;stroke:none;stroke-width:0.23195773"
         id="path168"
         inkscape:connector-curvature="0" />
      <path
         d="m 25.82799,109.02439 c 0,0.12249 0.09876,0.22474 0.221978,0.22474 0.119603,0 0.220203,-0.10231 0.220203,-0.22474 0,-0.12506 -0.1006,-0.22198 -0.220203,-0.22198 -0.123219,0 -0.221978,0.097 -0.221978,0.22198 z m -0.665973,-0.004 c 0,0.12223 0.09968,0.22382 0.220202,0.22382 0.122299,0 0.221978,-0.10159 0.221978,-0.22382 0,-0.12224 -0.09968,-0.22382 -0.221978,-0.22382 -0.120523,0 -0.220202,0.10158 -0.220202,0.22382 z m 0.683187,0.44671 -0.06444,-0.11158 -0.06312,-0.11322 -0.06615,0.11322 -0.06509,0.11158 h 0.131372 0.127756"
         style="fill:#ffffff;fill-opacity:1;fill-rule:nonzero;stroke:none;stroke-width:0.23195773"
         id="path170"
         inkscape:connector-curvature="0" />
      <path
         d="m 49.856537,105.61948 c -0.157739,0.0842 -0.470388,0.14123 -0.734842,0.14123 -0.719535,0 -1.142622,-0.51911 -1.142622,-1.2078 0,-0.69494 0.434949,-1.2296 1.128932,-1.2296 0.237299,0 0.470192,0.0335 0.726729,0.18141 l 0.04734,-0.57362 c -0.246569,-0.097 -0.541861,-0.14058 -0.76013,-0.14058 -1.142622,0 -1.848467,0.65061 -1.848467,1.80764 0,1.14634 0.758269,1.69446 1.848467,1.69446 0.257221,0 0.51819,-0.048 0.765463,-0.10599 l -0.0309,-0.56711"
         style="fill:#ffffff;fill-opacity:1;fill-rule:evenodd;stroke:none;stroke-width:0.23195773"
         id="path172"
         inkscape:connector-curvature="0" />
      <path
         d="m 50.813364,104.92453 c 0,-0.37162 0.202976,-0.7404 0.620499,-0.7404 0.424954,0 0.627207,0.35539 0.627207,0.7404 0,0.41937 -0.130583,0.86335 -0.627207,0.86335 -0.489193,0 -0.620499,-0.45119 -0.620499,-0.86335 z m -0.673378,0.077 c 0,0.72023 0.47578,1.29108 1.293864,1.29108 0.827388,0 1.303135,-0.57086 1.303135,-1.29108 0,-0.82275 -0.564611,-1.32471 -1.303135,-1.32471 -0.730206,0 -1.293864,0.50195 -1.293864,1.32471"
         style="fill:#ffffff;fill-opacity:1;fill-rule:evenodd;stroke:none;stroke-width:0.23195773"
         id="path174"
         inkscape:connector-curvature="0" />
      <path
         d="m 53.214356,106.23556 h 0.645091 v -1.22311 c 0,-0.3208 0.101587,-0.82832 0.571778,-0.82832 0.413381,0 0.417787,0.41147 0.417787,0.71767 v 1.33376 h 0.646011 v -1.57662 c 0,-0.56362 -0.25538,-0.98211 -0.845252,-0.98211 -0.3354,0 -0.611689,0.11224 -0.812778,0.39596 h -0.0092 v -0.3352 h -0.61353 v 2.49796"
         style="fill:#ffffff;fill-opacity:1;fill-rule:evenodd;stroke:none;stroke-width:0.23195773"
         id="path176"
         inkscape:connector-curvature="0" />
      <path
         d="m 57.799236,103.76196 c -0.176741,-0.0559 -0.36512,-0.0851 -0.627009,-0.0851 -0.775668,0 -1.198761,0.57269 -1.198761,1.29571 0,0.76105 0.407793,1.32008 1.223115,1.32008 0.265571,0 0.461117,-0.0243 0.646932,-0.0814 l -0.02893,-0.53745 c -0.110397,0.048 -0.314293,0.11414 -0.497346,0.11414 -0.45303,0 -0.671517,-0.35328 -0.671517,-0.81533 0,-0.46763 0.258142,-0.78842 0.658761,-0.78842 0.195743,0 0.319882,0.0381 0.435868,0.0907 l 0.05918,-0.51287"
         style="fill:#ffffff;fill-opacity:1;fill-rule:evenodd;stroke:none;stroke-width:0.23195773"
         id="path178"
         inkscape:connector-curvature="0" />
      <path
         d="m 60.234787,105.56776 c -0.240059,0.13591 -0.510102,0.24913 -0.824606,0.24913 -0.398719,0 -0.67871,-0.22638 -0.707706,-0.62951 h 1.715326 c 0,-0.87448 -0.26281,-1.51051 -1.18252,-1.51051 -0.770098,0 -1.148888,0.59802 -1.148888,1.32007 0,0.81997 0.477622,1.29572 1.293864,1.29572 0.348879,0 0.618856,-0.068 0.85453,-0.19923 z m -1.532312,-0.82902 c 0.02893,-0.33356 0.211063,-0.58453 0.573618,-0.58453 0.360715,0 0.507275,0.26932 0.523779,0.58453 h -1.097391"
         style="fill:#ffffff;fill-opacity:1;fill-rule:evenodd;stroke:none;stroke-width:0.23195773"
         id="path180"
         inkscape:connector-curvature="0" />
      <path
         d="m 60.911643,106.23556 h 0.647852 v -3.63965 h -0.647852 v 3.63965"
         style="fill:#ffffff;fill-opacity:1;fill-rule:evenodd;stroke:none;stroke-width:0.23195773"
         id="path182"
         inkscape:connector-curvature="0" />
      <path
         d="m 62.225449,106.23556 h 0.64325 v -3.63965 h -0.64325 v 3.63965"
         style="fill:#ffffff;fill-opacity:1;fill-rule:evenodd;stroke:none;stroke-width:0.23195773"
         id="path184"
         inkscape:connector-curvature="0" />
      <path
         d="m 64.035879,104.92453 c 0,-0.37162 0.203633,-0.7404 0.622341,-0.7404 0.421469,0 0.625102,0.35539 0.625102,0.7404 0,0.41937 -0.131306,0.86335 -0.625102,0.86335 -0.493862,0 -0.622341,-0.45119 -0.622341,-0.86335 z m -0.675225,0.077 c 0,0.72023 0.477621,1.29108 1.297566,1.29108 0.824613,0 1.30036,-0.57086 1.30036,-1.29108 0,-0.82275 -0.56369,-1.32471 -1.30036,-1.32471 -0.733909,0 -1.297566,0.50195 -1.297566,1.32471"
         style="fill:#ffffff;fill-opacity:1;fill-rule:evenodd;stroke:none;stroke-width:0.23195773"
         id="path186"
         inkscape:connector-curvature="0" />
      <path
         d="m 69.401528,106.23556 h 0.62793 v -3.63965 h -0.647853 v 1.43164 h -0.0072 c -0.192061,-0.23848 -0.421271,-0.35072 -0.742962,-0.35072 -0.762911,0 -1.041955,0.61077 -1.041955,1.30198 0,0.68405 0.27905,1.31382 1.041955,1.31382 0.301801,0 0.566189,-0.097 0.761051,-0.33981 h 0.0092 z m -1.137059,-1.25675 c 0,-0.3352 0.115986,-0.79468 0.532787,-0.79468 0.418707,0 0.581772,0.44396 0.581772,0.79468 0,0.35348 -0.140578,0.80907 -0.568293,0.80907 -0.425611,0 -0.546266,-0.46486 -0.546266,-0.80907"
         style="fill:#ffffff;fill-opacity:1;fill-rule:evenodd;stroke:none;stroke-width:0.23195773"
         id="path188"
         inkscape:connector-curvature="0" />
      <path
         d="m 77.110643,105.61948 c -0.156818,0.0842 -0.473873,0.14123 -0.738557,0.14123 -0.71582,0 -1.144245,-0.51911 -1.144245,-1.2078 0,-0.69494 0.437446,-1.2296 1.130792,-1.2296 0.24006,0 0.472953,0.0335 0.731134,0.18141 l 0.04537,-0.57362 c -0.246372,-0.097 -0.54094,-0.14058 -0.762918,-0.14058 -1.144246,0 -1.843832,0.65061 -1.843832,1.80764 0,1.14634 0.753864,1.69446 1.843832,1.69446 0.255643,0 0.520951,-0.048 0.765693,-0.10599 l -0.02696,-0.56711"
         style="fill:#ffffff;fill-opacity:1;fill-rule:evenodd;stroke:none;stroke-width:0.23195773"
         id="path190"
         inkscape:connector-curvature="0" />
      <path
         d="m 78.066536,104.92453 c 0,-0.37162 0.201135,-0.7404 0.617936,-0.7404 0.425874,0 0.62977,0.35539 0.62977,0.7404 0,0.41937 -0.131503,0.86335 -0.62977,0.86335 -0.489457,0 -0.617936,-0.45119 -0.617936,-0.86335 z m -0.677776,0.077 c 0,0.72023 0.480186,1.29108 1.295712,1.29108 0.827164,0 1.307547,-0.57086 1.307547,-1.29108 0,-0.82275 -0.566452,-1.32471 -1.307547,-1.32471 -0.729503,0 -1.295712,0.50195 -1.295712,1.32471"
         style="fill:#ffffff;fill-opacity:1;fill-rule:evenodd;stroke:none;stroke-width:0.23195773"
         id="path192"
         inkscape:connector-curvature="0" />
      <path
         d="m 80.481218,106.23556 h 0.647853 v -0.91693 c 0,-0.36071 0,-1.01945 0.527264,-1.01945 0.113421,0 0.229408,0.0184 0.28556,0.0546 v -0.65502 c -0.06509,-0.0217 -0.13775,-0.0217 -0.19673,-0.0217 -0.385042,0 -0.652258,0.3932 -0.67963,0.62885 h -0.0092 v -0.56803 h -0.575263 v 2.49796"
         style="fill:#ffffff;fill-opacity:1;fill-rule:evenodd;stroke:none;stroke-width:0.23195773"
         id="path194"
         inkscape:connector-curvature="0" />
      <path
         d="m 84.592205,103.73761 h -0.643447 v 1.22033 c 0,0.32264 -0.09975,0.82994 -0.566189,0.82994 -0.416801,0 -0.423113,-0.41312 -0.423113,-0.71837 v -1.3319 h -0.643447 v 1.57639 c 0,0.56178 0.253736,0.97863 0.842702,0.97863 0.337043,0 0.616094,-0.15123 0.815565,-0.39872 h 0.0063 v 0.34164 h 0.611689 v -2.49795"
         style="fill:#ffffff;fill-opacity:1;fill-rule:evenodd;stroke:none;stroke-width:0.23195773"
         id="path196"
         inkscape:connector-curvature="0" />
      <path
         d="m 85.231016,106.23556 h 0.64759 v -1.22311 c 0,-0.3208 0.102507,-0.82832 0.566452,-0.82832 0.414959,0 0.419365,0.41147 0.419365,0.71767 v 1.33376 h 0.645288 v -1.57662 c 0,-0.56362 -0.255643,-0.98211 -0.844562,-0.98211 -0.333296,0 -0.611689,0.11224 -0.810924,0.39596 h -0.0092 v -0.3352 h -0.614253 z m 0.550869,-2.92661 c 0,-0.0926 0.06312,-0.21198 0.235457,-0.21198 0.09067,0 0.205738,0.0427 0.330797,0.0923 0.119669,0.0473 0.232893,0.0861 0.412198,0.0861 0.298974,0 0.468548,-0.26004 0.468548,-0.58617 h -0.260049 c 0,0.12874 -0.06799,0.2373 -0.215731,0.2373 -0.126901,0 -0.223819,-0.0585 -0.35072,-0.10856 -0.126901,-0.0473 -0.251895,-0.0951 -0.389448,-0.0951 -0.28556,0 -0.491955,0.29621 -0.491955,0.58618 h 0.260969"
         style="fill:#ffffff;fill-opacity:1;fill-rule:evenodd;stroke:none;stroke-width:0.23195773"
         id="path198"
         inkscape:connector-curvature="0" />
      <path
         d="m 46.884464,100.80636 h 0.697725 l 0.293648,-0.77752 h 1.363448 l 0.289966,0.77752 h 0.747598 L 48.955843,97.417455 H 48.194792 Z M 49.0528,99.494409 h -0.983265 l 0.485708,-1.397318 h 0.01118 l 0.486629,1.397318"
         style="fill:#ffffff;fill-opacity:1;fill-rule:evenodd;stroke:none;stroke-width:0.23195773"
         id="path202"
         inkscape:connector-curvature="0" />
      <path
         d="m 50.973647,98.305623 h -0.713039 l 0.948706,2.625757 c 0,0.2663 -0.158659,0.44771 -0.419627,0.44771 -0.15866,0 -0.250055,-0.0184 -0.330798,-0.0427 l -0.04405,0.48018 c 0.149388,0.0427 0.303378,0.0661 0.459276,0.0661 0.675922,0 0.821825,-0.5435 1.02943,-1.09622 l 0.930611,-2.4808 H 52.17723 l -0.596369,1.82574 h -0.0079 l -0.598867,-1.82574"
         style="fill:#ffffff;fill-opacity:1;fill-rule:evenodd;stroke:none;stroke-width:0.23195773"
         id="path204"
         inkscape:connector-curvature="0" />
      <path
         d="M 55.473161,98.305623 H 54.82899 v 1.223115 c 0,0.318962 -0.102309,0.831802 -0.569936,0.831802 -0.41588,0 -0.420286,-0.413121 -0.420286,-0.71861 v -1.336307 h -0.644367 v 1.578241 c 0,0.564606 0.255643,0.978626 0.843628,0.978626 0.336123,0 0.615174,-0.15589 0.813711,-0.39595 h 0.0092 v 0.3398 h 0.612346 v -2.500736"
         style="fill:#ffffff;fill-opacity:1;fill-rule:evenodd;stroke:none;stroke-width:0.23195773"
         id="path206"
         inkscape:connector-curvature="0" />
      <path
         d="m 56.111045,100.80636 h 0.645288 v -1.223344 c 0,-0.321526 0.09948,-0.829018 0.569937,-0.829018 0.412198,0 0.417787,0.410554 0.417787,0.718601 v 1.333761 h 0.647655 v -1.576615 c 0,-0.563624 -0.257221,-0.980491 -0.844325,-0.980491 -0.337965,0 -0.610769,0.110661 -0.813712,0.398719 h -0.0099 v -0.342369 h -0.612609 v 2.500736"
         style="fill:#ffffff;fill-opacity:1;fill-rule:evenodd;stroke:none;stroke-width:0.23195773"
         id="path208"
         inkscape:connector-curvature="0" />
      <path
         d="m 59.239923,100.05435 c 0,0.49386 0.280892,0.80814 0.788193,0.80814 0.19022,0 0.339806,-0.0184 0.475715,-0.0559 l -0.01973,-0.5147 c -0.06799,0.0434 -0.179305,0.0689 -0.294568,0.0689 -0.244465,0 -0.303379,-0.19923 -0.303379,-0.413121 v -1.166266 h 0.572633 v -0.475517 h -0.572699 v -0.706773 l -0.646011,0.208302 v 0.498464 H 58.76246 v 0.475517 h 0.477621 v 1.273214"
         style="fill:#ffffff;fill-opacity:1;fill-rule:evenodd;stroke:none;stroke-width:0.23195773"
         id="path210"
         inkscape:connector-curvature="0" />
      <path
         d="m 61.332875,100.08149 c 0,-0.382474 0.428636,-0.430539 0.71582,-0.430539 h 0.280892 c 0,0.194823 -0.02696,0.371629 -0.135909,0.513789 -0.09974,0.13873 -0.25538,0.22474 -0.45303,0.22474 -0.231052,0 -0.407792,-0.0926 -0.407792,-0.30805 z m -0.32797,-1.085558 c 0.217573,-0.164906 0.489194,-0.271884 0.765693,-0.271884 0.382281,0 0.559022,0.135909 0.559022,0.537455 h -0.357887 c -0.267215,0 -0.584271,0.02433 -0.830873,0.149388 -0.247292,0.117827 -0.425874,0.335203 -0.425874,0.711419 0,0.47387 0.427715,0.74017 0.867062,0.74017 0.294568,0 0.618856,-0.1559 0.768474,-0.42956 h 0.0092 c 0.0043,0.0788 0.0043,0.24473 0.02893,0.37347 h 0.566189 c -0.01315,-0.19482 -0.02235,-0.36972 -0.02433,-0.55737 -0.0092,-0.18556 -0.01183,-0.374131 -0.01183,-0.627933 v -0.318962 c 0,-0.738321 -0.31265,-1.052858 -1.069092,-1.052858 -0.27813,0 -0.61353,0.07259 -0.86265,0.190418 l 0.01775,0.55626"
         style="fill:#ffffff;fill-opacity:1;fill-rule:evenodd;stroke:none;stroke-width:0.23195773"
         id="path212"
         inkscape:connector-curvature="0" />
      <path
         d="m 63.516525,100.80636 h 0.646012 v -1.214303 c 0,-0.324288 0.05457,-0.838059 0.484788,-0.838059 0.368801,0 0.368801,0.330797 0.368801,0.561783 v 1.490559 h 0.646012 v -1.214303 c 0,-0.324287 0.05457,-0.838059 0.482026,-0.838059 0.371564,0 0.371564,0.330797 0.371564,0.561784 v 1.490558 h 0.646011 v -1.576614 c 0,-0.557181 -0.172138,-0.980485 -0.786569,-0.980485 -0.300617,0 -0.627009,0.139657 -0.774503,0.441392 -0.140578,-0.31265 -0.386884,-0.441392 -0.733915,-0.441392 -0.240323,0 -0.534694,0.101587 -0.73577,0.404966 h -0.01184 v -0.348616 h -0.602615 v 2.500729"
         style="fill:#ffffff;fill-opacity:1;fill-rule:evenodd;stroke:none;stroke-width:0.23195773"
         id="path214"
         inkscape:connector-curvature="0" />
      <path
         d="m 67.802411,97.852376 h 0.646012 v -0.623261 h -0.646012 z m 0,2.953984 h 0.646012 v -2.500737 h -0.646012 v 2.500737"
         style="fill:#ffffff;fill-opacity:1;fill-rule:evenodd;stroke:none;stroke-width:0.23195773"
         id="path216"
         inkscape:connector-curvature="0" />
      <path
         d="m 71.086931,100.13577 c -0.24006,0.13782 -0.509182,0.25374 -0.821826,0.25374 -0.401283,0 -0.677782,-0.22823 -0.70956,-0.632534 h 1.71718 c 0,-0.871468 -0.260048,-1.507728 -1.184373,-1.507728 -0.768244,0 -1.148888,0.595448 -1.148888,1.320302 0,0.81997 0.47578,1.29294 1.295718,1.29294 0.346972,0 0.616094,-0.0671 0.851749,-0.19673 z m -1.531386,-0.826235 c 0.03156,-0.333559 0.212904,-0.585454 0.573619,-0.585454 0.362555,0 0.507538,0.271884 0.52562,0.585454 h -1.099246"
         style="fill:#ffffff;fill-opacity:1;fill-rule:evenodd;stroke:none;stroke-width:0.23195773"
         id="path218"
         inkscape:connector-curvature="0" />
      <path
         d="m 71.751024,100.80636 h 0.643447 v -1.223344 c 0,-0.321526 0.105992,-0.829018 0.570857,-0.829018 0.412198,0 0.418444,0.410554 0.418444,0.718601 v 1.333761 h 0.646012 v -1.576615 c 0,-0.563624 -0.256301,-0.980491 -0.840847,-0.980491 -0.339608,0 -0.616095,0.110661 -0.817183,0.398719 h -0.0092 v -0.342369 h -0.611689 v 2.500736"
         style="fill:#ffffff;fill-opacity:1;fill-rule:evenodd;stroke:none;stroke-width:0.23195773"
         id="path220"
         inkscape:connector-curvature="0" />
      <path
         d="m 74.878975,100.05435 c 0,0.49386 0.27905,0.80814 0.786339,0.80814 0.194822,0 0.344473,-0.0184 0.477621,-0.0559 l -0.01973,-0.5147 c -0.06608,0.0434 -0.179568,0.0689 -0.294568,0.0689 -0.242887,0 -0.301538,-0.19923 -0.301538,-0.413121 v -1.166266 h 0.570857 v -0.475517 h -0.570857 v -0.706773 l -0.647852,0.208302 v 0.498464 H 74.40163 v 0.475517 h 0.477621 v 1.273214"
         style="fill:#ffffff;fill-opacity:1;fill-rule:evenodd;stroke:none;stroke-width:0.23195773"
         id="path222"
         inkscape:connector-curvature="0" />
      <path
         d="m 77.028993,99.494409 c 0,-0.37347 0.203896,-0.740411 0.625102,-0.740411 0.42331,0 0.622604,0.356046 0.622604,0.740411 0,0.419365 -0.128742,0.866131 -0.622604,0.866131 -0.491955,0 -0.625102,-0.453032 -0.625102,-0.866131 z m -0.673141,0.07772 c 0,0.719531 0.475714,1.290381 1.298263,1.290381 0.821825,0 1.300353,-0.57086 1.300353,-1.290381 0,-0.824383 -0.56461,-1.322861 -1.300353,-1.322861 -0.732054,0 -1.298263,0.498465 -1.298263,1.322861"
         style="fill:#ffffff;fill-opacity:1;fill-rule:evenodd;stroke:none;stroke-width:0.23195773"
         id="path224"
         inkscape:connector-curvature="0" />
      <path
         d="m 82.394865,100.80636 h 0.62793 v -3.638026 h -0.64325 v 1.428859 h -0.0092 c -0.194625,-0.237298 -0.421272,-0.347958 -0.747368,-0.347958 -0.759433,0 -1.03755,0.610768 -1.03755,1.297572 0,0.686833 0.27813,1.315663 1.03755,1.315663 0.305286,0 0.572698,-0.097 0.762905,-0.33704 h 0.0092 z m -1.137052,-1.259534 c 0,-0.330797 0.11763,-0.792828 0.534431,-0.792828 0.4168,0 0.578024,0.443956 0.578024,0.792828 0,0.355126 -0.138474,0.813714 -0.566189,0.813714 -0.424033,0 -0.546266,-0.467629 -0.546266,-0.813714"
         style="fill:#ffffff;fill-opacity:1;fill-rule:evenodd;stroke:none;stroke-width:0.23195773"
         id="path226"
         inkscape:connector-curvature="0" />
      <path
         d="m 85.650395,100.13577 c -0.24006,0.13782 -0.510103,0.25374 -0.822753,0.25374 -0.400362,0 -0.679406,-0.22823 -0.711184,-0.632534 h 1.71695 c 0,-0.871468 -0.260048,-1.507728 -1.177878,-1.507728 -0.771959,0 -1.155153,0.595448 -1.155153,1.320302 0,0.81997 0.478278,1.29294 1.295718,1.29294 0.348616,0 0.618658,-0.0671 0.8543,-0.19673 z m -1.533937,-0.826235 c 0.03156,-0.333559 0.212904,-0.585454 0.578024,-0.585454 0.357887,0 0.500108,0.271884 0.520951,0.585454 h -1.099015"
         style="fill:#ffffff;fill-opacity:1;fill-rule:evenodd;stroke:none;stroke-width:0.23195773"
         id="path228"
         inkscape:connector-curvature="0" />
      <path
         d="m 87.323968,100.81981 h 0.695878 l 0.294371,-0.77914 h 1.365533 l 0.288124,0.77914 h 0.747605 l -1.32286,-3.388666 h -0.759427 z m 2.168343,-1.311021 h -0.983272 l 0.486629,-1.400796 h 0.0092 l 0.487549,1.400796"
         style="fill:#ffffff;fill-opacity:1;fill-rule:evenodd;stroke:none;stroke-width:0.23195773"
         id="path230"
         inkscape:connector-curvature="0" />
      <path
         d="m 94.498423,100.20095 c -0.161421,0.0817 -0.473873,0.1415 -0.742962,0.1415 -0.714196,0 -1.140071,-0.516547 -1.140071,-1.207808 0,-0.69332 0.433305,-1.227751 1.128242,-1.227751 0.24006,0 0.473873,0.03419 0.729273,0.179305 l 0.048,-0.570857 c -0.249134,-0.0979 -0.539099,-0.144982 -0.765463,-0.144982 -1.14007,0 -1.839426,0.65252 -1.839426,1.812283 0,1.14518 0.75201,1.69167 1.839426,1.69167 0.258141,0 0.522595,-0.048 0.770098,-0.10415 l -0.02696,-0.56921"
         style="fill:#ffffff;fill-opacity:1;fill-rule:evenodd;stroke:none;stroke-width:0.23195773"
         id="path232"
         inkscape:connector-curvature="0" />
      <path
         d="m 95.451535,99.508789 c 0,-0.374128 0.203896,-0.742962 0.620697,-0.742962 0.425874,0 0.627929,0.356966 0.627929,0.742962 0,0.416801 -0.131503,0.862651 -0.627929,0.862651 -0.491035,0 -0.620697,-0.451387 -0.620697,-0.862651 z m -0.674995,0.07608 c 0,0.721381 0.475714,1.289461 1.295718,1.289461 0.824376,0 1.302905,-0.56803 1.302905,-1.289461 0,-0.824613 -0.564611,-1.324715 -1.302905,-1.324715 -0.72951,0 -1.295718,0.500108 -1.295718,1.324715"
         style="fill:#ffffff;fill-opacity:1;fill-rule:evenodd;stroke:none;stroke-width:0.23195773"
         id="path234"
         inkscape:connector-curvature="0" />
      <path
         d="m 97.868998,100.81981 h 0.64325 v -0.919476 c 0,-0.360714 0,-1.019455 0.52562,-1.019455 0.115066,0 0.231052,0.02104 0.291806,0.05194 v -0.652521 c -0.06799,-0.01973 -0.135909,-0.01973 -0.199491,-0.01973 -0.389447,0 -0.649496,0.394116 -0.681254,0.627009 h -0.0072 V 98.31949 h -0.572698 v 2.50074"
         style="fill:#ffffff;fill-opacity:1;fill-rule:evenodd;stroke:none;stroke-width:0.23195773"
         id="path236"
         inkscape:connector-curvature="0" />
      <path
         d="m 101.97998,98.319076 h -0.64528 v 1.220564 c 0,0.324288 -0.10231,0.8318 -0.57086,0.8318 -0.41496,0 -0.41937,-0.409634 -0.41937,-0.720463 v -1.331901 h -0.647848 v 1.576616 c 0,0.564608 0.258142,0.978628 0.845248,0.978628 0.33705,0 0.6207,-0.15399 0.81557,-0.39595 h 0.0112 v 0.34144 h 0.61169 v -2.500734"
         style="fill:#ffffff;fill-opacity:1;fill-rule:evenodd;stroke:none;stroke-width:0.23195773"
         id="path238"
         inkscape:connector-curvature="0" />
      <path
         d="m 105.98938,100.09495 c 0,-0.383205 0.43028,-0.430283 0.72022,-0.430283 h 0.28089 c 0,0.192061 -0.0335,0.373203 -0.1359,0.511943 -0.10415,0.13591 -0.25538,0.22382 -0.45487,0.22382 -0.22922,0 -0.41036,-0.0926 -0.41036,-0.30548 z m -0.32639,-1.08719 c 0.21757,-0.165826 0.49221,-0.274645 0.76847,-0.274645 0.37788,0 0.55902,0.141498 0.55902,0.541861 h -0.35789 c -0.27188,0 -0.58893,0.02564 -0.83527,0.146823 -0.24473,0.117828 -0.41963,0.337965 -0.41963,0.713971 0,0.47295 0.42587,0.73855 0.8652,0.73855 0.29457,0 0.61445,-0.15399 0.76569,-0.43055 h 0.0118 c 0.002,0.0798 0.002,0.24289 0.0243,0.37604 h 0.57085 c -0.0131,-0.19647 -0.0224,-0.37137 -0.0269,-0.55902 -0.006,-0.18648 -0.009,-0.374132 -0.009,-0.627934 v -0.319882 c 0,-0.73577 -0.31712,-1.052858 -1.07373,-1.052858 -0.27346,0 -0.61143,0.07075 -0.8608,0.188577 l 0.0184,0.559021"
         style="fill:#ffffff;fill-opacity:1;fill-rule:evenodd;stroke:none;stroke-width:0.23195773"
         id="path242"
         inkscape:connector-curvature="0" />
      <path
         d="m 71.086931,105.51069 c 0,-0.38228 0.428636,-0.42955 0.720225,-0.42955 h 0.279314 c 0,0.1939 -0.03025,0.37531 -0.135909,0.51654 -0.102507,0.13315 -0.253736,0.21922 -0.453227,0.21922 -0.231052,0 -0.410357,-0.0905 -0.410357,-0.30621 z m -0.32797,-1.08718 c 0.217309,-0.16333 0.491034,-0.26932 0.770098,-0.26932 0.375969,0 0.557378,0.13341 0.557378,0.53745 h -0.356309 c -0.271621,0 -0.590583,0.0243 -0.833424,0.14683 -0.244728,0.11947 -0.425874,0.3396 -0.425874,0.71396 0,0.47479 0.430279,0.74018 0.867989,0.74018 0.294371,0 0.616095,-0.15123 0.765693,-0.43028 h 0.01118 c 0.0043,0.0796 0.0043,0.24289 0.02696,0.37321 h 0.570857 c -0.01512,-0.1939 -0.02762,-0.36604 -0.03156,-0.55626 -0.0019,-0.18391 -0.0092,-0.37439 -0.0092,-0.63069 v -0.31712 c 0,-0.73763 -0.31265,-1.05471 -1.069091,-1.05471 -0.273725,0 -0.608862,0.0742 -0.862657,0.19206 l 0.01775,0.55461"
         style="fill:#ffffff;fill-opacity:1;fill-rule:evenodd;stroke:none;stroke-width:0.23195773"
         id="path244"
         inkscape:connector-curvature="0" />
      <path
         d="m 120.05498,91.736348 c 0.36419,0.101587 0.69494,0.226647 0.99208,0.364397 l 1.15538,0.525356 c 0.22198,0.102508 0.42121,0.1749 0.59801,0.233814 0.17655,0.05589 0.35053,0.08607 0.52727,0.08607 0.42587,0 0.76569,-0.144983 1.00577,-0.416801 0.16122,-0.172138 0.3308,-0.49202 0.51655,-0.955899 h 1.19876 c -0.19042,0.94244 -0.55278,1.771458 -1.08742,2.48983 -0.53002,0.715826 -1.31195,1.075594 -2.33141,1.075594 -0.28253,0 -0.5725,-0.03616 -0.85801,-0.104151 -0.2853,-0.07075 -0.57086,-0.164906 -0.84711,-0.282733 l -0.83365,-0.358807 c -0.73392,-0.314294 -1.17789,-0.49544 -1.33005,-0.549948 -0.15399,-0.05918 -0.30989,-0.08607 -0.48203,-0.08607 -0.46486,0 -0.8202,0.17398 -1.0721,0.523779 -0.14939,0.187656 -0.27347,0.474794 -0.38044,0.858015 h -1.18438 c 0.18299,-0.863347 0.43955,-1.552031 0.76569,-2.074863 0.61794,-0.990459 1.49961,-1.490561 2.63852,-1.490561 0.3062,0 0.64345,0.05589 1.00855,0.163065"
         style="fill:#ffffff;fill-opacity:1;fill-rule:nonzero;stroke:none;stroke-width:0.23195773"
         id="path246"
         inkscape:connector-curvature="0" />
      <path
         d="m 114.27134,104.0772 v -0.0381 c 0,-3.99849 3.07437,-7.127132 7.22873,-7.127132 2.80159,0 4.60483,1.17417 5.81704,2.856791 l -2.85679,2.215451 c -0.78564,-0.98048 -1.68541,-1.60839 -2.99922,-1.60839 -1.91805,0 -3.27269,1.62834 -3.27269,3.62712 v 0.0362 c 0,2.05862 1.35464,3.66702 3.27269,3.66702 1.42724,0 2.27249,-0.67059 3.0971,-1.66732 l 2.85865,2.03242 c -1.29386,1.77957 -3.03076,3.09872 -6.07358,3.09872 -3.9187,0 -7.07193,-2.99898 -7.07193,-7.0928"
         style="fill:#ffffff;fill-opacity:1;fill-rule:nonzero;stroke:none;stroke-width:0.23195773"
         id="path248"
         inkscape:connector-curvature="0" />
      <g
         id="g541">
        <path
           inkscape:connector-curvature="0"
           id="path200"
           style="fill:#ffffff;fill-opacity:1;fill-rule:evenodd;stroke:none;stroke-width:0.23195773"
           d="m 88.606004,105.51069 c 0,-0.38228 0.428635,-0.42955 0.718601,-0.42955 h 0.27813 c 0,0.1939 -0.02696,0.37531 -0.128742,0.51654 -0.104151,0.13315 -0.260969,0.21922 -0.457435,0.21922 -0.233814,0 -0.410554,-0.0905 -0.410554,-0.30621 z m -0.326129,-1.08718 c 0.215731,-0.16333 0.489193,-0.26932 0.763838,-0.26932 0.380637,0 0.559022,0.13341 0.559022,0.53745 H 89.24761 c -0.269977,0 -0.588939,0.0243 -0.8318,0.14683 -0.246569,0.11947 -0.427716,0.3396 -0.427716,0.71396 0,0.47479 0.427716,0.74018 0.869838,0.74018 0.291806,0 0.616094,-0.15123 0.767547,-0.43028 h 0.0072 c 0.0092,0.0796 0.0092,0.24289 0.03156,0.37321 h 0.566189 c -0.01644,-0.1939 -0.02499,-0.36604 -0.03025,-0.55626 -0.0043,-0.18391 -0.0092,-0.37439 -0.0092,-0.63069 v -0.31712 c 0,-0.73763 -0.312453,-1.05471 -1.069098,-1.05471 -0.273725,0 -0.611689,0.0742 -0.862651,0.19206 l 0.01973,0.55461" />
        <path
           inkscape:connector-curvature="0"
           id="path240"
           style="fill:#ffffff;fill-opacity:1;fill-rule:evenodd;stroke:none;stroke-width:0.23195773"
           d="m 102.61694,100.81981 h 0.64509 v -1.223111 c 0,-0.321723 0.10231,-0.830872 0.56902,-0.830872 0.4168,0 0.41871,0.411277 0.41871,0.717674 v 1.336309 h 0.64601 v -1.576382 c 0,-0.564611 -0.25374,-0.983266 -0.8427,-0.983266 -0.33981,0 -0.61169,0.110661 -0.81812,0.398719 h -0.006 v -0.339805 h -0.61142 z m 0.54811,-2.926608 c 0,-0.09324 0.068,-0.217376 0.2373,-0.217376 0.0907,0 0.2085,0.04537 0.32889,0.09508 0.12249,0.04997 0.23565,0.08883 0.41239,0.08883 0.29898,0 0.46835,-0.26281 0.46835,-0.587295 h -0.26281 c 0,0.128742 -0.0651,0.237495 -0.2083,0.237495 -0.13131,0 -0.22822,-0.06049 -0.35328,-0.108753 -0.1269,-0.04734 -0.24657,-0.09698 -0.39156,-0.09698 -0.28365,0 -0.49195,0.294568 -0.49195,0.588939 h 0.26097" />
      </g>
      <g
         transform="translate(0,-1.3604141)"
         id="g513">
        <flowRoot
           xml:space="preserve"
           id="flowRoot467"
           style="font-style:normal;font-variant:normal;font-weight:normal;font-stretch:normal;font-size:12px;line-height:25px;font-family:'DejaVu Sans';-inkscape-font-specification:'DejaVu Sans, Normal';font-variant-ligatures:normal;font-variant-caps:normal;font-variant-numeric:normal;font-feature-settings:normal;text-align:center;letter-spacing:0px;word-spacing:0px;writing-mode:lr-tb;text-anchor:middle;fill:#ffffff;fill-opacity:1;stroke:none;stroke-width:1px;stroke-linecap:butt;stroke-linejoin:miter;stroke-opacity:1"
           transform="matrix(0.33976901,0,0,0.33976901,26.60515,-52.707562)"><flowRegion
             id="flowRegion469"
             style="fill:#ffffff;fill-opacity:1"><rect
               id="rect471"
               width="313.65237"
               height="68.185295"
               x="173.24117"
               y="439.65656"
               style="fill:#ffffff;fill-opacity:1" /></flowRegion><flowPara
             style="font-style:normal;font-variant:normal;font-weight:600;font-stretch:normal;font-size:12px;font-family:FreeSans;-inkscape-font-specification:'FreeSans, Semi-Bold';font-variant-ligatures:normal;font-variant-caps:normal;font-variant-numeric:normal;font-feature-settings:normal;text-align:center;writing-mode:lr-tb;text-anchor:middle;fill:#ffffff;fill-opacity:1"
             id="flowPara475">MUSEOS</flowPara></flowRoot>        <flowRoot
           xml:space="preserve"
           id="flowRoot479"
           style="font-style:normal;font-variant:normal;font-weight:normal;font-stretch:normal;font-size:12px;line-height:25px;font-family:'DejaVu Sans';-inkscape-font-specification:'DejaVu Sans, Normal';font-variant-ligatures:normal;font-variant-caps:normal;font-variant-numeric:normal;font-feature-settings:normal;text-align:center;letter-spacing:0px;word-spacing:0px;writing-mode:lr-tb;text-anchor:middle;fill:#ffffff;fill-opacity:1;stroke:none;stroke-width:1px;stroke-linecap:butt;stroke-linejoin:miter;stroke-opacity:1"
           transform="matrix(0.33709147,0,0,0.33709147,-62.376965,-47.072668)"><flowRegion
             id="flowRegion481"
             style="fill:#ffffff;fill-opacity:1"><rect
               id="rect483"
               width="108.08632"
               height="49.497475"
               x="555.58392"
               y="441.17178"
               style="fill:#ffffff;fill-opacity:1" /></flowRegion><flowPara
             id="flowPara485"
             style="font-style:normal;font-variant:normal;font-weight:600;font-stretch:normal;font-size:12px;font-family:FreeSans;-inkscape-font-specification:'FreeSans, Semi-Bold';font-variant-ligatures:normal;font-variant-caps:normal;font-variant-numeric:normal;font-feature-settings:normal;text-align:center;writing-mode:lr-tb;text-anchor:middle;fill:#ffffff;fill-opacity:1">CIENTÍFICOS</flowPara></flowRoot>      </g>
    </g>
  </g>
</svg>
