<?xml version="1.0" encoding="UTF-8" standalone="no"?>
<!-- Created with Inkscape (http://www.inkscape.org/) -->

<svg
   xmlns:dc="http://purl.org/dc/elements/1.1/"
   xmlns:cc="http://creativecommons.org/ns#"
   xmlns:rdf="http://www.w3.org/1999/02/22-rdf-syntax-ns#"
   xmlns:svg="http://www.w3.org/2000/svg"
   xmlns="http://www.w3.org/2000/svg"
   xmlns:sodipodi="http://sodipodi.sourceforge.net/DTD/sodipodi-0.dtd"
   xmlns:inkscape="http://www.inkscape.org/namespaces/inkscape"
   version="1.1"
   id="svg2"
   width="83.399773"
   height="25.23484"
   viewBox="0 0 83.399773 25.23484"
   sodipodi:docname="nataliagomez.jpg.svg"
   inkscape:version="0.92.2 (5c3e80d, 2017-08-06)">
  <metadata
     id="metadata8">
    <rdf:RDF>
      <cc:Work
         rdf:about="">
        <dc:format>image/svg+xml</dc:format>
        <dc:type
           rdf:resource="http://purl.org/dc/dcmitype/StillImage" />
        <dc:title></dc:title>
      </cc:Work>
    </rdf:RDF>
  </metadata>
  <defs
     id="defs6" />
  <sodipodi:namedview
     pagecolor="#ffffff"
     bordercolor="#666666"
     borderopacity="1"
     objecttolerance="10"
     gridtolerance="10"
     guidetolerance="10"
     inkscape:pageopacity="0"
     inkscape:pageshadow="2"
     inkscape:window-width="1671"
     inkscape:window-height="885"
     id="namedview4"
     showgrid="false"
     fit-margin-top="0"
     fit-margin-left="0"
     fit-margin-right="0"
     fit-margin-bottom="0"
     inkscape:zoom="3.5428996"
     inkscape:cx="13.330922"
     inkscape:cy="33.589993"
     inkscape:window-x="0"
     inkscape:window-y="27"
     inkscape:window-maximized="0"
     inkscape:current-layer="svg2" />
  <path
     style="fill:#2c9ccd;fill-opacity:1;stroke-width:0.31999999"
     d="m 45.372254,11.587891 c -0.994338,0.07841 -2.316824,0.891741 -2.802734,2.054687 -0.340883,0.815848 -0.37281,1.271594 -0.123047,1.738281 0.388144,0.725252 0.652051,0.759149 2.33789,0.291016 0.923661,-0.256485 1.339078,-0.241584 1.703126,0.06055 0.493433,0.409514 1.840451,2.838509 1.65625,2.986328 -0.05628,0.04516 -1.031969,0.258841 -2.167969,0.476563 -6.200384,1.188341 -9.578575,4.209546 -6.302735,5.634765 3.153568,1.372024 8.604096,-0.936028 9.533204,-4.037109 0.283478,-0.946168 0.543475,-1.257606 1.046874,-1.253906 0.78153,0.0057 1.319998,0.317075 1.5,0.865234 0.08115,0.247147 0.292953,0.287266 0.576172,0.111328 0.861152,-0.534954 0.107177,-1.270019 -1.523437,-1.486328 -1.505888,-0.199762 -1.612328,-0.278295 -2.103516,-1.564453 -0.284496,-0.744939 -0.867403,-1.684424 -1.296875,-2.087891 -0.690445,-0.648641 -0.986705,-0.709446 -2.552734,-0.52539 -2.004611,0.235603 -2.239188,-0.07715 -1.123047,-1.496094 0.812662,-1.033134 1.792135,-1.360448 2.445313,-0.81836 0.429302,0.356287 0.483727,0.326193 0.380859,-0.21289 -0.107927,-0.565611 -0.586991,-0.783373 -1.183594,-0.736328 z m 2.070313,8.175781 c 0.736782,-0.07555 0.759765,0.07128 0.759765,0.632812 0,0.946117 -1.078618,2.057965 -2.894531,2.984375 -0.758893,0.387159 -2.181367,0.776925 -3.162109,0.865235 -1.499139,0.134994 -1.875234,0.05833 -2.357422,-0.476563 -0.556263,-0.617061 -0.544842,-0.660743 0.394531,-1.451172 1.183555,-0.995897 3.897788,-2.041715 6.259766,-2.412109 0.429955,-0.06742 0.754406,-0.117394 1,-0.142578 z"
     id="path4664"
     inkscape:connector-curvature="0" />
  <path
     style="fill:#e9d056;fill-opacity:1;stroke-width:0.31999999"
     d="m 20.485531,20.173828 c -1.29912,0 -1.49409,0.310808 -1.55859,2.470703 -0.0379,1.267985 0.0804,1.798749 0.45117,2.015625 0.69562,0.40694 1.08736,0.382824 1.75782,-0.107422 0.77864,-0.569362 0.52581,-1.585369 -0.45508,-1.828125 -0.7752,-0.191849 -0.77866,-0.203417 -0.11328,-0.423828 0.44106,-0.146102 0.73451,-0.566595 0.82421,-1.177734 0.13024,-0.887353 0.071,-0.949219 -0.90625,-0.949219 z m -0.28125,0.558594 c 0.17631,-0.0132 0.35107,0.145167 0.41602,0.482422 0.0675,0.350273 -0.0884,0.558593 -0.41797,0.558593 -0.30744,0 -0.48423,-0.206178 -0.42383,-0.496093 0.0724,-0.34754 0.24948,-0.531718 0.42578,-0.544922 z m 0.0234,2.642578 c 0.51904,0 0.77696,0.147292 0.69336,0.398437 -0.15404,0.46262 -0.96571,0.688584 -1.29492,0.359375 -0.44997,-0.449975 -0.20607,-0.757812 0.60156,-0.757812 z"
     id="path4660"
     inkscape:connector-curvature="0" />
  <path
     style="fill:#e9d056;fill-opacity:1;stroke-width:0.31999999"
     d="m 2.6163908,18.574219 c -0.31362,0 -0.49414,0.292913 -0.49414,0.800781 0,0.641814 -0.15933,0.798828 -0.80664,0.798828 -1.18255996,0 -1.71102996,1.290347 -0.98241996,2.402344 0.43409,0.662516 0.74926996,0.80542 1.56640996,0.71289 l 1.02148,-0.115234 0.0957,-2.298828 c 0.0777,-1.900708 0.008,-2.300781 -0.40039,-2.300781 z m -1.14062,2.208984 c 0.32444,-0.02716 0.64648,0.346573 0.64648,0.990234 0,0.648744 -0.15907,0.960938 -0.49023,0.960938 -0.57853,0 -0.93440996,-0.760408 -0.67382996,-1.439453 C 1.0861408,20.961477 1.2811108,20.799499 1.4757708,20.783203 Z"
     id="path4654"
     inkscape:connector-curvature="0" />
  <path
     style="fill:#e9d056;fill-opacity:1;stroke-width:0.31999999"
     d="m 3.7217908,21.774156 c 0,-1.106963 0.12202,-1.612661 0.36923,-1.530257 0.20434,0.06811 0.36923,0.751499 0.36923,1.530257 0,0.778757 -0.16489,1.462143 -0.36923,1.530256 -0.24721,0.0824 -0.36923,-0.423293 -0.36923,-1.530256 z"
     id="path4650"
     inkscape:connector-curvature="0" />
  <path
     style="fill:#e9d056;fill-opacity:1;stroke-width:0.31999999"
     d="m 6.1554608,20.173828 c -1.06056,0 -1.37345,0.968056 -0.53321,1.648438 0.76589,0.62018 0.87014,1.061982 0.18946,0.800781 -0.50152,-0.192432 -0.92925,0.205513 -0.58789,0.546875 0.41501,0.415008 1.38415,0.185433 1.75976,-0.416016 0.38157,-0.610993 0.39342,-0.609479 0.83399,0.01953 0.29275,0.417961 0.72931,0.603463 1.26953,0.539063 1.1068302,-0.131939 1.2671602,-0.768313 0.18945,-0.751953 -0.4692,0.0071 -0.91433,-0.166719 -0.99023,-0.386719 -0.0912,-0.264581 0.20374,-0.400391 0.87109,-0.400391 0.8632702,0 0.9937502,-0.102704 0.9062502,-0.71875 -0.0779,-0.548359 -0.3442902,-0.743129 -1.1210902,-0.818359 -0.82354,-0.07976 -1.10453,0.05927 -1.45313,0.724609 -0.39612,0.75602 -0.48212,0.783513 -1.05859,0.347656 -0.56538,-0.427482 -0.57228,-0.475175 -0.0684,-0.484375 0.86355,-0.01569 0.66149,-0.65039 -0.20703,-0.65039 z m 2.99609,0.490234 c 0.17636,0.04075 0.33008,0.159249 0.33008,0.328125 0,0.07762 -0.22366,0.142579 -0.49805,0.142579 -0.27439,0 -0.40937,-0.147301 -0.29883,-0.326172 0.0913,-0.147773 0.29044,-0.185282 0.4668,-0.144532 z"
     id="path4648"
     inkscape:connector-curvature="0" />
  <path
     style="fill:#e9d056;fill-opacity:1;stroke-width:0.31999999"
     d="m 10.761791,21.754839 v -1.619317 l 1.2,0.09932 c 1.19244,0.09869 1.20062,0.109093 1.29888,1.652276 0.0724,1.136551 -0.009,1.517046 -0.30293,1.419023 -0.221,-0.07367 -0.4095,-0.625848 -0.41888,-1.227074 -0.0121,-0.777517 -0.17876,-1.12471 -0.57707,-1.202486 -0.45958,-0.08974 -0.56,0.124396 -0.56,1.194114 0,0.716905 -0.144,1.303464 -0.32,1.303464 -0.176,0 -0.32,-0.728693 -0.32,-1.619317 z"
     id="path4644"
     inkscape:connector-curvature="0" />
  <path
     style="fill:#e9d056;fill-opacity:1;stroke-width:0.31999999"
     d="m 15.432801,20.212891 c -0.1277,-0.0049 -0.26348,0.0011 -0.40625,0.01758 -1.23632,0.142696 -1.75675,1.562985 -0.91406,2.49414 1.11335,1.230237 2.72851,0.653484 2.72851,-0.974609 0,-0.951484 -0.5143,-1.502848 -1.4082,-1.537109 z m -0.1543,0.455078 c 0.51226,0.0071 0.9907,0.674659 0.86524,1.326172 -0.11459,0.594997 -0.92868,0.926789 -1.31836,0.537109 -0.39741,-0.397415 -0.23858,-1.64348 0.23242,-1.824219 0.0729,-0.02796 0.14752,-0.04008 0.2207,-0.03906 z"
     id="path4642"
     inkscape:connector-curvature="0" />
  <path
     style="fill:#e9d056;fill-opacity:1;stroke-width:0.31999999"
     d="m 22.166421,23.152123 c -0.11255,-0.112549 -0.20463,-0.828634 -0.20463,-1.591301 0,-1.327407 0.041,-1.386666 0.96,-1.386666 0.528,0 0.96,0.144 0.96,0.32 0,0.176 -0.216,0.32 -0.48,0.32 -0.33367,0 -0.48,0.335679 -0.48,1.101114 0,1.076875 -0.34706,1.645159 -0.75537,1.236853 z"
     id="path4638"
     inkscape:connector-curvature="0" />
  <path
     style="fill:#e9d056;fill-opacity:1;stroke-width:0.31999999"
     d="m 25.155461,20.173828 c -0.52465,0 -0.95313,0.144313 -0.95313,0.320313 0,0.176 0.28667,0.320312 0.63867,0.320312 0.352,0 0.64063,0.144313 0.64063,0.320313 0,0.176 -0.19896,0.320312 -0.44141,0.320312 -0.63504,0 -1.26117,0.86766 -1.04101,1.441406 0.13305,0.346712 0.54024,0.462452 1.39453,0.394532 1.07399,-0.08539 1.19718,-0.184113 1.11719,-0.886719 -0.22607,-1.986135 -0.37369,-2.230469 -1.35547,-2.230469 z m 0.13086,1.722656 c 0.11475,0.0051 0.19531,0.132101 0.19531,0.337891 0,0.274387 -0.14431,0.5 -0.32031,0.5 -0.176,0 -0.32032,-0.135168 -0.32032,-0.300781 0,-0.165613 0.14432,-0.391226 0.32032,-0.5 0.044,-0.02719 0.0867,-0.0388 0.125,-0.03711 z"
     id="path4636"
     inkscape:connector-curvature="0" />
  <path
     style="fill:#e9d056;fill-opacity:1;stroke-width:0.31999999"
     d="m 27.019281,21.874698 c -0.11004,-1.708111 0.46445,-3.300542 1.19073,-3.300542 0.62885,0 0.59577,0.314411 -0.0882,0.838641 -0.38514,0.295177 -0.44886,0.506038 -0.20407,0.675278 0.45928,0.317522 0.10579,3.026977 -0.41756,3.200577 -0.25194,0.08357 -0.41536,-0.396962 -0.48088,-1.413954 z"
     id="path4632"
     inkscape:connector-curvature="0" />
  <path
     style="fill:#e9d056;fill-opacity:1;stroke-width:0.31999999"
     d="m 29.001791,21.774156 c 0,-0.88 0.144,-1.6 0.32,-1.6 0.176,0 0.32,0.72 0.32,1.6 0,0.88 -0.144,1.6 -0.32,1.6 -0.176,0 -0.32,-0.72 -0.32,-1.6 z"
     id="path4630"
     inkscape:connector-curvature="0" />
  <path
     style="fill:#e9d056;fill-opacity:1;stroke-width:0.31999999"
     d="m 31.909361,20.185547 c -0.49197,0.0099 -1.00735,0.136256 -1.24414,0.373047 -0.57558,0.575576 -0.4675,2.096029 0.17578,2.470703 0.80698,0.470022 1.5428,0.417734 2.00782,-0.142578 0.36137,-0.435423 0.46913,-0.428904 1.00781,0.05859 0.88715,0.802857 2.310318,0.246397 2.449217,-0.957032 0.141024,-1.221861 -0.477343,-1.867253 -1.671877,-1.75 -0.76649,0.07524 -1.05156,0.306925 -1.30273,1.056641 -0.36739,1.096633 -0.7241,1.426594 -1.54883,1.433594 -0.4627,0.0039 -0.56037,-0.205958 -0.48047,-1.035156 0.09,-0.933121 0.19401,-1.03011 1.00977,-0.94336 0.574,0.06104 0.83254,-0.02572 0.70117,-0.238281 -0.14163,-0.22916 -0.61155,-0.336092 -1.10352,-0.326172 z m 2.94141,0.392578 c 0.447569,0.122325 0.891584,1.089961 0.67578,1.652344 -0.24185,0.630245 -1.04539,0.657609 -1.28125,0.04297 -0.25021,-0.652031 -0.0328,-1.542624 0.41406,-1.691407 0.0621,-0.02069 0.12747,-0.02138 0.19141,-0.0039 z"
     id="path4628"
     inkscape:connector-curvature="0" />
  <path
     style="fill:#e9d156;fill-opacity:1;stroke-width:0.31999999"
     d="m 55.241788,21.774156 c 0,-0.88 0.144,-1.6 0.32,-1.6 0.176,0 0.32,0.72 0.32,1.6 0,0.88 -0.144,1.6 -0.32,1.6 -0.176,0 -0.32,-0.72 -0.32,-1.6 z"
     id="path4624"
     inkscape:connector-curvature="0" />
  <path
     style="fill:#e9d156;fill-opacity:1;stroke-width:0.31999999"
     d="m 56.841788,21.000822 c 0,-1.727868 0.115187,-2.426737 0.4,-2.426913 0.288349,-1.78e-4 0.384173,0.645233 0.343302,2.312233 -0.07834,3.195403 -0.743302,3.297996 -0.743302,0.11468 z"
     id="path4622"
     inkscape:connector-curvature="0" />
  <path
     style="fill:#e9d156;fill-opacity:1;stroke-width:0.31999999"
     d="m 58.841788,23.149758 c -0.466074,-0.173537 -0.559597,-2.975602 -0.09932,-2.975602 0.165376,0 0.345376,0.54 0.4,1.2 0.06697,0.809192 0.255641,1.2 0.579318,1.2 0.323677,0 0.512346,-0.390808 0.579318,-1.2 0.144727,-1.748684 0.700682,-1.469944 0.700682,0.351302 0,1.476338 -0.04252,1.551832 -0.88,1.562269 -0.484,0.006 -1.06,-0.05605 -1.28,-0.137969 z"
     id="path4620"
     inkscape:connector-curvature="0" />
  <path
     style="fill:#e9d156;fill-opacity:1;stroke-width:0.31999999"
     d="m 61.641788,22.924114 c 0,-0.292496 0.224045,-0.391453 0.64,-0.282678 0.352,0.09205 0.64,0.02336 0.64,-0.152636 0,-0.176 -0.299392,-0.398293 -0.665315,-0.493984 -1.037405,-0.271287 -0.709085,-1.631388 0.425315,-1.761915 1.051571,-0.120997 1.192218,0.475325 0.16,0.678375 l -0.72,0.141632 0.72,0.237946 c 0.84617,0.279643 0.994438,1.589517 0.213827,1.889065 -0.842128,0.323156 -1.413827,0.219718 -1.413827,-0.255805 z"
     id="path4618"
     inkscape:connector-curvature="0" />
  <path
     style="fill:#e9d156;fill-opacity:1;stroke-width:0.31999999"
     d="m 64.379026,22.974154 c -0.402585,-1.312683 -0.403849,-2.803272 -0.0029,-3.332464 0.39481,-0.520992 0.446391,-0.527131 0.455415,-0.0542 0.0056,0.293333 0.190176,0.617333 0.410176,0.72 0.32,0.149333 0.32,0.224 0,0.373333 -0.473274,0.220885 -0.544666,2.053334 -0.07995,2.053334 0.176,0 0.32,0.144 0.32,0.32 0,0.463335 -0.957427,0.393878 -1.102762,-0.08 z"
     id="path4616"
     inkscape:connector-curvature="0" />
  <path
     style="fill:#e9d156;fill-opacity:1;stroke-width:0.31999999"
     d="m 65.801788,21.774154 c 0,-1.493334 0.05333,-1.6 0.8,-1.6 0.923002,0 0.989629,0.176086 0.32,0.845714 -0.264,0.264 -0.48,0.901714 -0.48,1.417143 0,0.515428 -0.144,0.937143 -0.32,0.937143 -0.176,0 -0.32,-0.72 -0.32,-1.6 z"
     id="path4614"
     inkscape:connector-curvature="0" />
  <path
     style="fill:#e9d156;fill-opacity:1;stroke-width:0.31999999"
     d="m 68.870301,20.173828 c -1.119808,0 -1.337981,0.572469 -0.273438,0.716797 l 0.884766,0.119141 -0.835937,0.357421 c -0.9552,0.407984 -1.346078,1.136343 -0.867188,1.615235 0.179536,0.179537 0.802705,0.313375 1.384766,0.296875 1.024569,-0.02904 1.052396,-0.06678 0.90039,-1.167969 -0.244141,-1.76863 -0.347967,-1.9375 -1.193359,-1.9375 z m 0.199219,1.740234 c 0.16897,-0.01938 0.23815,0.06485 0.179687,0.240235 -0.159449,0.478348 -0.886718,0.740917 -0.886718,0.320312 0,-0.171837 0.227152,-0.398908 0.505859,-0.505859 0.07791,-0.0299 0.144848,-0.04823 0.201172,-0.05469 z"
     id="path4612"
     inkscape:connector-curvature="0" />
  <path
     style="fill:#e9d156;fill-opacity:1;stroke-width:0.31999999"
     d="m 71.161788,23.028524 c -0.643277,-0.374674 -0.751578,-1.894792 -0.176,-2.470368 0.473581,-0.473581 2.063056,-0.505631 2.346314,-0.04731 0.131372,0.212563 -0.127108,0.301043 -0.701114,0.24 -0.822717,-0.08749 -0.919056,0.0065 -1.01281,0.988033 -0.101596,1.063647 -0.08374,1.080748 0.919018,0.880196 0.883859,-0.176772 0.968595,-0.139417 0.624429,0.275278 -0.458666,0.552659 -1.196362,0.602152 -1.999837,0.134171 z"
     id="path4608"
     inkscape:connector-curvature="0" />
  <path
     style="fill:#e9d156;fill-opacity:1;stroke-width:0.31999999"
     d="m 74.015122,23.160822 c -0.117334,-0.117333 -0.213334,-0.837333 -0.213334,-1.6 0,-1.019259 0.127181,-1.386666 0.48,-1.386666 0.362666,0 0.48,0.391111 0.48,1.6 0,1.486955 -0.226234,1.9071 -0.746666,1.386666 z"
     id="path4606"
     inkscape:connector-curvature="0" />
  <path
     style="fill:#e9d156;fill-opacity:1;stroke-width:0.31999999"
     d="m 76.667176,20.140625 c -0.547321,-0.0026 -1.067948,0.270718 -1.318359,0.820312 -0.28711,0.63014 -0.250859,0.948476 0.175781,1.59961 0.700842,1.069622 1.930678,1.076322 2.626953,0.01367 0.485571,-0.741078 0.485571,-0.858531 0,-1.59961 -0.361986,-0.55246 -0.937054,-0.831423 -1.484375,-0.833984 z m 0.240234,0.574219 c 0.426694,0.05774 0.801217,0.638113 0.677735,1.279297 -0.114586,0.594997 -0.92868,0.926789 -1.31836,0.537109 -0.370752,-0.370752 -0.253909,-1.294231 0.212891,-1.681641 0.137362,-0.114 0.285503,-0.154011 0.427734,-0.134765 z"
     id="path4604"
     inkscape:connector-curvature="0" />
  <path
     style="fill:#e9d156;fill-opacity:1;stroke-width:0.31999999"
     d="m 78.921788,21.754839 v -1.619317 l 1.2,0.09932 c 1.188432,0.09836 1.200941,0.11397 1.297533,1.619317 0.114979,1.79186 -0.491242,2.095817 -0.638215,0.32 -0.06697,-0.809193 -0.255641,-1.2 -0.579318,-1.2 -0.323677,0 -0.512346,0.390807 -0.579318,1.2 -0.147623,1.783656 -0.700682,1.452682 -0.700682,-0.41932 z"
     id="path4600"
     inkscape:connector-curvature="0" />
  <path
     style="fill:#e9d056;fill-opacity:1;stroke-width:0.31999999"
     d="m 11.477041,19.625385 c -1.01239,-0.191354 -0.5618,-0.731229 0.6103,-0.731229 0.60484,0 0.92028,0.14251 0.84111,0.38 -0.15139,0.454182 -0.48263,0.53434 -1.45141,0.351229 z"
     id="path4598"
     inkscape:connector-curvature="0" />
  <path
     style="fill:#e9d056;fill-opacity:1;stroke-width:0.31999999"
     d="m 24.841791,19.573338 c 0,-0.49218 0.91762,-1.063144 1.31446,-0.817885 0.27544,0.170233 0.21746,0.357065 -0.20715,0.667549 -0.6788,0.496349 -1.10731,0.554527 -1.10731,0.150336 z"
     id="path4596"
     inkscape:connector-curvature="0" />
  <path
     style="fill:#e9d156;fill-opacity:1;stroke-width:0.31999999"
     d="m 76.921788,19.151934 c 0.386221,-0.386223 0.813997,-0.590449 0.950608,-0.453837 0.136611,0.136612 -0.03091,0.452612 -0.372272,0.702222 -0.964054,0.704933 -1.36112,0.534399 -0.578336,-0.248385 z"
     id="path4594"
     inkscape:connector-curvature="0" />
  <path
     style="fill:#e9d056;fill-opacity:1;stroke-width:0.31999999"
     d="m 3.7217908,19.214154 c 0,-0.176 0.144,-0.32 0.32,-0.32 0.176,0 0.32,0.144 0.32,0.32 0,0.176 -0.144,0.32 -0.32,0.32 -0.176,0 -0.32,-0.144 -0.32,-0.32 z"
     id="path4592"
     inkscape:connector-curvature="0" />
  <path
     style="fill:#e9d056;fill-opacity:1;stroke-width:0.31999999"
     d="m 29.001791,19.214154 c 0,-0.176 0.144,-0.32 0.32,-0.32 0.176,0 0.32,0.144 0.32,0.32 0,0.176 -0.144,0.32 -0.32,0.32 -0.176,0 -0.32,-0.144 -0.32,-0.32 z"
     id="path4590"
     inkscape:connector-curvature="0" />
  <path
     style="fill:#e9d156;fill-opacity:1;stroke-width:0.31999999"
     d="m 55.241788,19.214154 c 0,-0.176 0.144,-0.32 0.32,-0.32 0.176,0 0.32,0.144 0.32,0.32 0,0.176 -0.144,0.32 -0.32,0.32 -0.176,0 -0.32,-0.144 -0.32,-0.32 z"
     id="path4588"
     inkscape:connector-curvature="0" />
  <path
     style="fill:#e9d156;fill-opacity:1;stroke-width:0.31999999"
     d="m 73.801788,19.214154 c 0,-0.176 0.216,-0.32 0.48,-0.32 0.264,0 0.48,0.144 0.48,0.32 0,0.176 -0.216,0.32 -0.48,0.32 -0.264,0 -0.48,-0.144 -0.48,-0.32 z"
     id="path4586"
     inkscape:connector-curvature="0" />
  <path
     style="fill:#2c9ccd;fill-opacity:1;stroke-width:0.31999999"
     d="m 17.371381,16.068959 c -0.34672,-0.383126 -0.52959,-1.147399 -0.52959,-2.213333 0,-0.999526 -0.15444,-1.693036 -0.4,-1.79623 -0.29243,-0.122886 -0.2592,-0.25794 0.12354,-0.502165 0.28795,-0.183739 0.61922,-0.844098 0.73617,-1.467466 0.12616,-0.6725071 0.34928,-1.0489331 0.54869,-0.9256921 0.18484,0.114237 0.25651,0.605507 0.15927,1.0917121 -0.17445,0.872244 -0.16104,0.880454 1.00748,0.61691 0.65136,-0.146905 1.30496,-0.146426 1.45245,0.0011 0.31923,0.319234 0.11576,0.452774 -1.4676,0.963194 -1.14353,0.368641 -1.2,0.452365 -1.2,1.779171 0,1.509053 0.60161,2.39804 1.62285,2.39804 0.33943,0 0.61715,0.144 0.61715,0.32 0,0.563494 -2.11009,0.353941 -2.67041,-0.265197 z"
     id="path4584"
     inkscape:connector-curvature="0" />
  <path
     style="fill:#2c9ccd;fill-opacity:1;stroke-width:0.31999999"
     d="m 28.257021,0 -0.72852,0.685547 c -0.40883,0.384077 -0.87888,1.38018 -1.06836,2.263672 -0.4039,1.883412 -0.42137,6.8895597 -0.0312,8.904297 0.21801,1.12589 0.18019,1.497184 -0.17382,1.697265 -0.68735,0.38848 -0.54161,0.934536 0.1875,0.703125 0.44843,-0.142327 0.63867,-0.05768 0.63867,0.283203 0,0.267579 0.16684,0.854454 0.37109,1.302735 0.42281,0.927953 1.44142,1.169537 1.07031,0.253906 -0.94468,-2.330826 -0.95421,-2.236951 0.61719,-5.308594 1.80737,-3.5329098 2.17808,-5.798882 1.32031,-8.044922 -0.30231,-0.791575 -0.92024,-1.732131 -1.375,-2.089843 z m -0.0273,1.273438 0.78711,0.83789 c 0.68362,0.728448 0.78521,1.133225 0.78321,3.128906 -0.001,1.9777532 -0.16159,2.6236256 -1.16016,4.6933598 -1.09948,2.2788732 -1.16936,2.3552292 -1.39648,1.5039062 -0.39681,-1.4873289 -0.0211,-8.268797 0.51367,-9.273438 z"
     id="path4582"
     inkscape:connector-curvature="0" />
  <path
     style="fill:#2c9ccd;fill-opacity:1;stroke-width:0.31999999"
     d="m 30.356781,14.60691 c 0.13664,-2.184253 0.40873,-2.663577 0.98941,-1.743002 0.43151,0.684077 -0.0981,3.528247 -0.69321,3.722682 -0.33792,0.110409 -0.4007,-0.309183 -0.2962,-1.97968 z"
     id="path4578"
     inkscape:connector-curvature="0" />
  <path
     style="fill:#2c9ccd;fill-opacity:1;stroke-width:0.31999999"
     d="m 15.373231,15.534309 c -0.1877,-0.747863 -0.31808,-0.794657 -2.00609,-0.72 -1.6351,0.07232 -1.81463,0.01474 -1.90373,-0.610565 -0.21515,-1.509872 2.93492,-3.010191 4.02708,-1.918026 0.60767,0.607665 0.28874,1.107268 -0.36205,0.56716 -0.53077,-0.440504 -1.76267,-0.06287 -2.43411,0.746168 -0.4045,0.487391 -0.3071,0.513778 1.17215,0.317549 1.74554,-0.231555 1.82944,-0.178125 2.1631,1.377561 0.26558,1.238247 -0.34937,1.463252 -0.65635,0.240153 z"
     id="path4576"
     inkscape:connector-curvature="0" />
  <path
     style="fill:#2c9ccd;fill-opacity:1;stroke-width:0.31999999"
     d="m 24.847751,15.549849 c -0.29726,-0.781871 -0.39832,-0.812776 -2.03046,-0.620949 -1.43631,0.16881 -1.75166,0.113187 -1.92542,-0.339615 -0.62873,-1.638434 3.09596,-3.669659 4.22796,-2.305682 0.46083,0.555268 0.10774,0.906467 -0.56012,0.557111 -0.62051,-0.324592 -1.65273,0.02013 -2.26334,0.755876 -0.40745,0.490943 -0.30975,0.516319 1.21111,0.31457 0.90987,-0.120702 1.65431,-0.163953 1.65431,-0.09612 0,0.06784 0.13339,0.588446 0.29642,1.15691 0.36403,1.269292 -0.15925,1.764656 -0.61046,0.577892 z"
     id="path4574"
     inkscape:connector-curvature="0" />
  <path
     style="fill:#2c9ccd;fill-opacity:1;stroke-width:0.31999999"
     d="m 36.173231,15.534309 c -0.187699,-0.747863 -0.31808,-0.794657 -2.0061,-0.72 -1.63509,0.07232 -1.81462,0.01474 -1.90372,-0.610565 -0.21515,-1.509872 2.93492,-3.010191 4.027081,-1.918026 0.607664,0.607665 0.288742,1.107268 -0.362048,0.56716 -0.530774,-0.440504 -1.762673,-0.06287 -2.434113,0.746168 -0.40474,0.48768 -0.30504,0.513506 1.20765,0.312839 1.758901,-0.233326 1.724649,-0.258254 2.119177,1.542271 0.242156,1.105149 -0.37161,1.181077 -0.647927,0.08015 z"
     id="path4572"
     inkscape:connector-curvature="0" />
  <path
     style="fill:#2c9ccd;fill-opacity:1;stroke-width:0.31999999"
     d="m 70.681788,15.857078 c -1.290765,-0.561019 -1.298374,-0.904158 -0.05155,-2.324211 1.056861,-1.203699 0.895136,-1.663714 -0.588448,-1.673811 -0.396,-0.0027 -0.72,-0.1489 -0.72,-0.3249 0,-0.444889 2.669034,-0.402966 3.121024,0.04902 0.442278,0.442281 0.07603,1.286779 -1.110192,2.55987 -0.87657,0.940767 -0.892336,0.925404 1.429168,1.392642 0.572,0.115124 1.04,0.341875 1.04,0.503891 0,0.443761 -1.940243,0.330267 -3.12,-0.182504 z"
     id="path4570"
     inkscape:connector-curvature="0" />
  <path
     style="fill:#2c9ccd;fill-opacity:1;stroke-width:0.31999999"
     d="m 55.881788,15.121817 c 0,-0.490786 -0.285824,-1.452963 -0.635162,-2.138171 -0.349337,-0.685208 -0.552944,-1.327656 -0.452454,-1.427661 0.18135,-0.180478 1.187174,0.903651 1.542378,1.662452 0.14558,0.310997 0.225683,0.308639 0.37415,-0.01101 0.103901,-0.223703 0.576349,-0.607085 1.049885,-0.851959 1.088064,-0.56266 1.961203,-0.134385 1.961203,0.96197 0,0.774936 0.01706,0.780297 0.816432,0.25653 0.614726,-0.402785 0.907242,-0.444136 1.184,-0.167377 0.700614,0.700615 1.908813,0.394447 3.040083,-0.770384 0.721143,-0.74254 1.3428,-1.103917 1.789056,-1.04 1.095671,0.156931 1.034707,1.144621 -0.109821,1.779229 -1.841356,1.02098 -2.111104,1.283799 -1.722585,1.678345 0.26599,0.27012 0.817366,0.242531 2.16,-0.108079 2.002278,-0.522868 2.452259,-0.130232 0.693113,0.604786 -1.657628,0.692602 -3.710179,0.616695 -3.909254,-0.144571 -0.188307,-0.720098 -1.701024,-1.13574 -1.701024,-0.467386 0,0.239594 -0.144,0.435625 -0.32,0.435625 -0.176,0 -0.32,-0.296165 -0.32,-0.658145 0,-0.6162 -0.04533,-0.626397 -0.711203,-0.16 -1.051754,0.736678 -1.522106,0.611601 -1.736797,-0.461855 -0.1056,-0.528 -0.295683,-0.96 -0.422403,-0.96 -0.426077,0 -1.237872,1.112543 -1.459357,2 -0.291178,1.166722 -1.11024,1.157619 -1.11024,-0.01234 z"
     id="path4568"
     inkscape:connector-curvature="0" />
  <path
     style="fill:#2c9ccd;fill-opacity:1;stroke-width:0.31999999"
     d="m 5.5351208,15.480823 c -0.11733,-0.117334 -0.21333,-0.6308 -0.21333,-1.141037 0,-0.510238 -0.14439,-1.197498 -0.32087,-1.527247 -0.37187,-0.694855 0.0902,-1.152261 0.56049,-0.55486 0.17167,0.218063 0.4103,0.806694 0.53028,1.30807 l 0.21815,0.911593 0.77069,-0.831593 c 0.42389,-0.457376 1.06557,-0.831593 1.42598,-0.831593 0.66354,0 1.9352802,1.034214 1.9352802,1.573828 0,0.161605 0.0874,0.521605 0.19423,0.8 0.3497,0.911297 -0.48543,0.530096 -0.9942302,-0.453828 -0.27304,-0.528 -0.6818,-0.96 -0.90835,-0.96 -0.22655,0 -0.8258,0.432 -1.33165,0.96 -0.9074,0.947122 -1.44941,1.163925 -1.86667,0.746667 z"
     id="path4566"
     inkscape:connector-curvature="0" />
  <path
     style="fill:#2c9ccd;fill-opacity:1;stroke-width:0.31999999"
     d="m 52.40741,11.900391 c -0.243535,0.01305 -0.544602,0.04975 -0.935547,0.103515 -2.803708,0.385608 -4.156241,2.07237 -2.558593,3.191407 1.404522,0.983766 5.44634,0.305981 5.613281,-0.941407 0.04711,-0.352 -0.247924,-1.053295 -0.65625,-1.558593 -0.525416,-0.650198 -0.732285,-0.834066 -1.462891,-0.794922 z m -1.390625,1.191406 c 0.326637,0.01529 0.711785,0.136429 1.326172,0.371094 1.331606,0.508606 1.377582,0.565153 0.740235,0.90625 -0.73433,0.393001 -3.360012,0.501315 -3.708985,0.152343 -0.401321,-0.401319 -0.211797,-0.730962 0.667969,-1.166015 0.380392,-0.188108 0.647973,-0.278959 0.974609,-0.263672 z"
     id="path4564"
     inkscape:connector-curvature="0" />
  <path
     style="fill:#2c9ccd;fill-opacity:1;stroke-width:0.31999999"
     d="m 76.891257,15.227681 c -0.13273,-0.345886 0.007,-0.493525 0.467241,-0.493525 0.364644,0 0.600298,0.168973 0.529956,0.38 -0.197504,0.592515 -0.78761,0.659694 -0.997197,0.113525 z"
     id="path4560"
     inkscape:connector-curvature="0" />
  <path
     style="fill:#2c9ccd;fill-opacity:1;stroke-width:0.31999999"
     d="m 81.161788,14.22749 c 0,-0.278667 0.170998,-0.449667 0.38,-0.38 0.59335,0.197783 0.691763,0.886666 0.126666,0.886666 -0.278666,0 -0.506666,-0.228 -0.506666,-0.506666 z"
     id="path4558"
     inkscape:connector-curvature="0" />
  <path
     style="fill:#2c9ccd;fill-opacity:1;stroke-width:0.31999999"
     d="m 78.921788,14.094156 c 0,-0.176 0.216,-0.32 0.48,-0.32 0.264,0 0.48,0.144 0.48,0.32 0,0.176 -0.216,0.32 -0.48,0.32 -0.264,0 -0.48,-0.144 -0.48,-0.32 z"
     id="path4556"
     inkscape:connector-curvature="0" />
  <path
     style="fill:#2c9ccd;fill-opacity:1;stroke-width:0.31999999"
     d="m 77.641788,13.134156 c 0,-0.426666 0.213334,-0.64 0.64,-0.64 0.759427,0 0.858957,0.807505 0.133827,1.085764 -0.734205,0.281741 -0.773827,0.258917 -0.773827,-0.445764 z"
     id="path4554"
     inkscape:connector-curvature="0" />
  <path
     style="fill:#2c9ccd;fill-opacity:1;stroke-width:0.31999999"
     d="m 77.721788,11.624307 c -0.631478,-0.226518 -0.465936,-0.730151 0.24,-0.730151 0.352,0 0.64,0.135502 0.64,0.301115 0,0.409613 -0.395968,0.602663 -0.88,0.429036 z"
     id="path4552"
     inkscape:connector-curvature="0" />
  <path
     style="fill:#2c9ccd;fill-opacity:1;stroke-width:0.31999999"
     d="m 30.495121,11.320823 c -0.3682,-0.368203 -0.23303,-0.746667 0.26667,-0.746667 0.264,0 0.48,0.216 0.48,0.48 0,0.499704 -0.37847,0.63487 -0.74667,0.266667 z"
     id="path4550"
     inkscape:connector-curvature="0" />
  <path
     style="fill:#2c9ccd;fill-opacity:1;stroke-width:0.31999999"
     d="m 49.661132,11.245453 c -0.312893,-0.506269 3.162419,-2.8761992 3.590285,-2.4483341 0.253849,0.253849 -0.747027,1.180424 -2.224291,2.0591711 -0.68186,0.405602 -1.254932,0.568867 -1.365994,0.389163 z"
     id="path4548"
     inkscape:connector-curvature="0" />
  <path
     style="fill:#2c9ccd;fill-opacity:1;stroke-width:0.31999999"
     d="m 80.841788,10.564113 c 0,-0.357523 0.252,-0.7430201 0.56,-0.8566581 0.308,-0.113639 0.653466,-0.346103 0.767706,-0.516587 0.275792,-0.411584 1.232841,-0.02788 1.230272,0.493245 -0.002,0.3991771 -1.675242,1.5300431 -2.263911,1.5300431 -0.161737,0 -0.294067,-0.292519 -0.294067,-0.650043 z"
     id="path4546"
     inkscape:connector-curvature="0" />
  <path
     style="fill:#2c9ccd;fill-opacity:1;stroke-width:0.31999999"
     d="m 77.222815,9.0631239 c -0.505318,-0.07596 -0.844224,-0.300187 -0.773952,-0.5120531 0.147741,-0.445419 2.833008,-0.893118 3.219891,-0.536834 0.246724,0.227209 -0.998057,1.3399421 -1.378169,1.2319731 -0.09284,-0.02637 -0.573335,-0.108759 -1.06777,-0.183086 z"
     id="path4544"
     inkscape:connector-curvature="0" />
  <path
     style="fill:#2c9ccd;fill-opacity:1;stroke-width:0.31999999"
     d="m 80.921788,8.5741558 c 0.07333,-0.22 0.325334,-0.4 0.56,-0.4 0.234666,0 0.486666,0.18 0.56,0.4 0.07931,0.2379491 -0.147555,0.4000001 -0.56,0.4000001 -0.412445,0 -0.639315,-0.162051 -0.56,-0.4000001 z"
     id="path4542"
     inkscape:connector-curvature="0" />
  <path
     style="fill:#2c9ccd;fill-opacity:1;stroke-width:0.31999999"
     d="m 75.081788,6.8941558 c 0,-0.275897 0.288797,-0.4799998 0.679181,-0.4799998 0.567437,0 0.613641,0.07898 0.280819,0.4799998 -0.219101,0.264 -0.524733,0.48 -0.679181,0.48 -0.154451,0 -0.280819,-0.216 -0.280819,-0.48 z"
     id="path4540"
     inkscape:connector-curvature="0" />
  <path
     style="fill:#2c9ccd;fill-opacity:1;stroke-width:0.31999999"
     d="m 77.961788,6.7341558 c 0,-0.176 0.216,-0.3199998 0.48,-0.3199998 0.264,0 0.48,0.1439998 0.48,0.3199998 0,0.176 -0.216,0.32 -0.48,0.32 -0.264,0 -0.48,-0.144 -0.48,-0.32 z"
     id="path4538"
     inkscape:connector-curvature="0" />
  <path
     style="fill:#2c9ccd;fill-opacity:1;stroke-width:0.31999999"
     d="m 56.396025,5.907985 c -0.341795,-0.890707 -0.209981,-1.620387 0.39096,-2.164232 0.86808,-0.785601 0.956067,-0.681352 0.903142,1.070055 -0.0378,1.25069 -0.163033,1.599728 -0.574102,1.6 -0.289171,1.92e-4 -0.613171,-0.227429 -0.72,-0.505823 z"
     id="path4536"
     inkscape:connector-curvature="0" />
  <path
     style="fill:#2c9ccd;fill-opacity:1;stroke-width:0.31999999"
     d="M 73.561788,6.015197 C 72.388006,5.638657 72.230502,5.284974 73.131657,5.049317 73.796966,4.875334 75.540966,5.848312 75.191033,6.198244 74.937628,6.4516488 74.914089,6.4490038 73.561788,6.015197 Z"
     id="path4534"
     inkscape:connector-curvature="0" />
  <path
     style="fill:#2c9ccd;fill-opacity:1;stroke-width:0.31999999"
     d="m 69.321788,5.489712 c 0,-0.156444 -0.236502,-0.264444 -0.525558,-0.24 -0.28906,0.02445 -0.58906,-0.135555 -0.666666,-0.355556 -0.08366,-0.237154 0.130301,-0.4 0.525558,-0.4 0.379258,0 0.666666,-0.206933 0.666666,-0.48 0,-0.662101 0.394557,-0.600538 1.048883,0.163658 0.684221,0.799114 0.695549,1.152446 0.04494,1.402106 -0.71174,0.273122 -1.093823,0.241611 -1.093823,-0.09021 z"
     id="path4532"
     inkscape:connector-curvature="0" />
  <path
     style="fill:#2c9ccd;fill-opacity:1;stroke-width:0.31999999"
     d="M 60.026002,4.955135 C 59.78734,4.667564 59.768694,4.494156 59.976432,4.494156 c 0.183156,0 0.560788,-0.08741 0.839181,-0.194236 0.322927,-0.123918 0.506175,-0.02046 0.506175,0.285763 0,0.679066 -0.840051,0.918579 -1.295786,0.369452 z"
     id="path4530"
     inkscape:connector-curvature="0" />
  <path
     style="fill:#2c9ccd;fill-opacity:1;stroke-width:0.31999999"
     d="m 62.351452,5.084717 c 0.07885,-0.236808 0.400022,-0.480313 0.713706,-0.541122 0.364806,-0.07072 0.518672,0.0446 0.426966,0.32 -0.07885,0.236809 -0.400022,0.480314 -0.713706,0.541122 -0.364806,0.07072 -0.518672,-0.0446 -0.426966,-0.32 z"
     id="path4528"
     inkscape:connector-curvature="0" />
  <path
     style="fill:#2c9ccd;fill-opacity:1;stroke-width:0.31999999"
     d="M 43.321788,4.879826 C 42.616354,4.737987 42.598713,4.305208 43.287588,4.04086 43.913383,3.80072 44.137783,3.96599 43.990074,4.558244 43.930514,4.797043 43.629786,4.941755 43.321786,4.879826 Z"
     id="path4526"
     inkscape:connector-curvature="0" />
  <path
     style="fill:#2c9ccd;fill-opacity:1;stroke-width:0.31999999"
     d="m 64.449926,4.635627 c -0.242628,-0.242626 0.08491,-1.421471 0.394947,-1.421471 0.255174,0 0.636915,0.78287 0.636915,1.306172 0,0.320113 -0.743923,0.403237 -1.031862,0.115299 z"
     id="path4524"
     inkscape:connector-curvature="0" />
  <path
     style="fill:#2c9ccd;fill-opacity:1;stroke-width:0.31999999"
     d="m 66.121788,3.854156 c 0,-0.176 0.216,-0.32 0.48,-0.32 0.264,0 0.48,0.144 0.48,0.32 0,0.176 -0.216,0.32 -0.48,0.32 -0.264,0 -0.48,-0.144 -0.48,-0.32 z"
     id="path4522"
     inkscape:connector-curvature="0" />
  <path
     style="fill:#2c9ccd;fill-opacity:1;stroke-width:0.31999999"
     d="m 53.321788,3.190693 c 0,-0.457952 0.172326,-0.630277 0.556326,-0.556326 0.834154,0.160644 0.927184,1.219789 0.107136,1.219789 -0.457948,0 -0.663462,-0.205512 -0.663462,-0.663463 z"
     id="path4520"
     inkscape:connector-curvature="0" />
  <path
     style="fill:#2c9ccd;fill-opacity:1;stroke-width:0.31999999"
     d="M 61.381231,3.196593 C 60.973922,3.033236 60.736489,2.744546 60.853599,2.555059 60.970706,2.365572 61.303958,2.308103 61.594156,2.42735 c 0.290198,0.119248 0.803706,0.237065 1.141126,0.261816 0.337424,0.02475 0.673424,0.225002 0.746669,0.445002 0.156576,0.470301 -0.998169,0.504615 -2.10072,0.06242 z"
     id="path4518"
     inkscape:connector-curvature="0" />
  <path
     style="fill:#2c9ccd;fill-opacity:1;stroke-width:0.31999999"
     d="m 71.081788,2.894166 c 0.108774,-0.176 0.405274,-0.32 0.658886,-0.32 0.253613,0 0.461114,0.144 0.461114,0.32 0,0.176 -0.296499,0.32 -0.658886,0.32 -0.362388,0 -0.569888,-0.144 -0.461114,-0.32 z"
     id="path4516"
     inkscape:connector-curvature="0" />
  <path
     style="fill:#2c9ccd;fill-opacity:1;stroke-width:0.31999999"
     d="m 67.601788,1.998888 c -0.253008,-0.409374 0.333904,-1.128064 0.724224,-0.886833 0.513731,0.317503 0.437677,1.142111 -0.105338,1.142111 -0.253612,0 -0.532112,-0.114875 -0.618886,-0.255278 z"
     id="path4514"
     inkscape:connector-curvature="0" />
  <path
     style="fill:#2c9ccd;fill-opacity:1;stroke-width:0.31999999"
     d="m 61.846066,1.134167 c -0.10751,-0.280174 -0.0049,-0.48 0.246583,-0.48 0.236925,0 0.610038,0.216 0.829139,0.48 0.331693,0.399663 0.290422,0.48 -0.246582,0.48 -0.35472,0 -0.727831,-0.216 -0.82914,-0.48 z"
     id="path4510"
     inkscape:connector-curvature="0" />
  <path
     style="fill:#000000;stroke-width:0.31999999"
     d=""
     id="path4506"
     inkscape:connector-curvature="0" />
</svg>
