<?xml version="1.0" encoding="UTF-8" standalone="no"?>
<!-- Created with Inkscape (http://www.inkscape.org/) -->

<svg
   xmlns:dc="http://purl.org/dc/elements/1.1/"
   xmlns:cc="http://creativecommons.org/ns#"
   xmlns:rdf="http://www.w3.org/1999/02/22-rdf-syntax-ns#"
   xmlns:svg="http://www.w3.org/2000/svg"
   xmlns="http://www.w3.org/2000/svg"
   xmlns:sodipodi="http://sodipodi.sourceforge.net/DTD/sodipodi-0.dtd"
   xmlns:inkscape="http://www.inkscape.org/namespaces/inkscape"
   version="1.1"
   id="svg2"
   width="208.9209"
   height="113.65616"
   viewBox="0 0 208.9209 113.65616"
   sodipodi:docname="paolagimerans.jpg.svg"
   inkscape:version="0.92.2 (5c3e80d, 2017-08-06)">
  <metadata
     id="metadata8">
    <rdf:RDF>
      <cc:Work
         rdf:about="">
        <dc:format>image/svg+xml</dc:format>
        <dc:type
           rdf:resource="http://purl.org/dc/dcmitype/StillImage" />
        <dc:title></dc:title>
      </cc:Work>
    </rdf:RDF>
  </metadata>
  <defs
     id="defs6" />
  <sodipodi:namedview
     pagecolor="#ffffff"
     bordercolor="#666666"
     borderopacity="1"
     objecttolerance="10"
     gridtolerance="10"
     guidetolerance="10"
     inkscape:pageopacity="0"
     inkscape:pageshadow="2"
     inkscape:window-width="1920"
     inkscape:window-height="1016"
     id="namedview4"
     showgrid="false"
     fit-margin-top="0"
     fit-margin-left="0"
     fit-margin-right="0"
     fit-margin-bottom="0"
     inkscape:zoom="3.7263156"
     inkscape:cx="168.79944"
     inkscape:cy="46.883235"
     inkscape:window-x="0"
     inkscape:window-y="27"
     inkscape:window-maximized="1"
     inkscape:current-layer="svg2" />
  <path
     style="fill:#34f3d4;fill-opacity:1;fill-rule:evenodd;stroke:none;stroke-width:1px;stroke-linecap:butt;stroke-linejoin:miter;stroke-opacity:1"
     d="m 115.93734,5.2630965 -6.64578,7.0606695 -1.60742,-2.029297 9.71094,22.361328 -11.43555,25.394531 1.45703,2.427734 11.00196,-6.171874 6.03906,-14.759766 -1.20703,-25.091797 z M 105.95953,58.050328 95.420468,33.437047 106.74469,13.245641 99.952118,5.5177504 l -8.63712,8.1321876 -2.95117,23.480468 5.09765,16.773438 9.662112,5.634765 z"
     id="path4510"
     inkscape:connector-curvature="0"
     sodipodi:nodetypes="ccccccccccccccccccc" />
  <path
     style="fill:#f875ec;fill-opacity:1;fill-rule:evenodd;stroke:none;stroke-width:1px;stroke-linecap:butt;stroke-linejoin:miter;stroke-opacity:1"
     d="m 100.97587,4.6589858 6.27567,15.8689032 8.6858,-15.2647925 -4.36119,-1.8117379 z"
     id="path4515"
     inkscape:connector-curvature="0"
     sodipodi:nodetypes="ccccc" />
  <path
     style="fill:#d6c8fb;fill-opacity:1;fill-rule:evenodd;stroke:none;stroke-width:1px;stroke-linecap:butt;stroke-linejoin:miter;stroke-opacity:1"
     d="m 103.65875,4.1225935 -4.344542,0.7994651 6.465702,14.6272644 0.85479,-3.769963 3.63122,2.106893 -1.92133,-0.640441 1.15307,2.061712 6.43968,-14.0444275 -3.82351,-1.140503 -4.8371,24.8996755 z"
     id="path4517"
     inkscape:connector-curvature="0"
     sodipodi:nodetypes="ccccccccccc" />
  <path
     style="fill:#000000;stroke-width:1.33333337"
     d="m 13.210048,112.05616 c -2.77778,-2.77778 -2.00292,-18.099979 1.17541,-23.242618 l 2.77541,-4.490712 -5.10875,-0.201067 c -2.8098097,-0.110586 -6.9087397,-0.11813 -9.1087397,-0.01676 -3.69761996,0.170372 -3.77320996,0.08802 -1,-1.0893 1.95278,-0.829025 3,-2.418394 3,-4.55313 0,-4.640469 5.8583197,-9.047735 9.9558397,-7.489862 1.70681,0.648929 3.46499,0.818179 3.90706,0.376108 0.44207,-0.442069 0.80377,1.996237 0.80377,5.418459 0,5.699347 0.2721,6.222223 3.23809,6.222223 4.44828,0 7.42461,-3.367728 7.44899,-8.428573 0.0155,-3.22673 0.32885,-3.760821 1.31292,-2.238094 0.71087,1.1 1.30168,3.585806 1.31291,5.524015 0.0231,3.986185 3.39724,5.986365 6.18942,3.669062 1.00705,-0.835777 1.831,-3.546129 1.831,-6.023004 0,-2.476873 0.6,-4.503407 1.33333,-4.503407 0.73334,0 1.33334,1.757143 1.33334,3.904762 0,4.361547 2.99573,8.095239 6.49523,8.095239 3.52078,0 5.50476,-2.739138 5.50476,-7.600001 0,-2.42 0.6,-4.4 1.33334,-4.4 0.73333,0 1.33333,1.757143 1.33333,3.904762 0,8.437037 8.35446,10.969705 9.07463,2.750987 0.44557,-5.085003 3.37245,-8.245478 6.51814,-7.038362 1.10013,0.422159 6.29181,0.830949 11.53707,0.908421 l 9.53683,0.140859 0.66666,5.333334 c 0.58926,4.71406 1.04415,5.29129 3.91764,4.971252 4.334382,-0.48275 4.448772,-0.708267 2.513562,-4.95558 -1.49395,-3.278867 -1.35277,-3.918041 1.34857,-6.105454 5.20025,-4.210901 10.10908,0.735741 6.8231,6.87565 -1.21529,2.270793 -1.15994,3.130509 0.25947,4.029946 5.46589,3.463582 11.43004,-2.838932 7.95389,-8.405137 -2.10714,-3.374062 0.15756,-6.63689 2.78377,-4.010678 0.88,0.88 2.90653,1.6 4.50341,1.6 3.66854,0 5.53755,2.242506 6.11194,7.333334 0.33405,2.960673 1.1442,4 3.11798,4 1.97522,0 2.78203,-1.037184 3.11155,-4 0.70399,-6.32953 3.79125,-8.799856 10.46109,-8.370604 5.66255,0.364425 5.75858,0.451241 5.75963,5.207344 10e-4,4.946595 2.78172,8.740901 5.276,7.199357 0.76545,-0.473078 1.39173,-2.903622 1.39173,-5.401208 0,-5.46472 2.33687,-6.919697 10.46851,-6.5179 6.94421,0.343125 7.87841,1.141013 8.43643,7.205426 0.5213,5.665392 3.69684,6.742476 7.79529,2.644018 1.93885,-1.938849 2.61933,-3.839814 2.10627,-5.884033 -0.93466,-3.723918 0.34622,-5.225476 2.75336,-3.227735 0.99286,0.824008 3.74808,2.468803 6.12268,3.655099 2.70961,1.353656 4.31746,3.149989 4.31746,4.823569 0,1.466667 0.9,3.074496 2,3.572954 1.1,0.498457 -1.11458,0.948457 -4.9213,1 -3.80672,0.05155 -7.32119,-0.553303 -7.80994,-1.344099 -0.58509,-0.946703 0.62692,-1.288269 3.54839,-1 5.96336,0.588424 7.02749,-3.324941 1.43432,-5.274735 -3.63583,-1.267456 -4.02561,-1.058699 -6.08443,3.258682 -2.00156,4.19732 -2.6487,4.575697 -7.18338,4.200044 -4.72559,-0.391467 -5.01818,-0.689026 -5.65032,-5.746179 -0.52778,-4.222223 -1.22223,-5.333334 -3.33334,-5.333334 -2.18405,0 -2.74086,1.025555 -3.07666,5.666667 -0.55036,7.606748 -2.92334,7.256811 -2.92334,-0.431098 0,-5.087654 -0.38652,-6.024215 -2.33333,-5.653758 -1.61107,0.306568 -2.53969,2.090921 -3,5.764432 l -0.66667,5.320424 h -16.66666 -16.66667 l -0.41383,-5 c -0.35574,-4.298371 -0.87026,-5 -3.66666,-5 -2.22822,0 -3.25284,0.746527 -3.25284,2.369992 0,1.303495 -0.90002,3.654943 -2.00004,5.22544 -1.79632,2.564614 -3.2234,2.851576 -14.01121,2.817432 -13.028282,-0.04124 -12.285612,0.417442 -13.621762,-8.412864 -0.78921,-5.215643 -4.34409,-2.983133 -4.77699,3 -0.51386,7.102231 -2.92333,7.494548 -2.92333,0.475986 0,-3.514867 -0.68455,-5.453369 -2.12032,-6.004327 -3.34735,-1.284498 -4.54635,0.282141 -4.54635,5.940364 0,7.059159 -2.40641,6.72946 -2.92333,-0.40052 -0.29908,-4.125219 -1.04126,-5.774906 -2.74334,-6.097766 -1.80087,-0.341601 -2.33333,0.467616 -2.33333,3.546114 0,6.484848 -1.23291,8.206816 -5.87598,8.206816 -2.34155,0 -4.90963,-0.65228 -5.70686,-1.449509 -1.04379,-1.043791 -1.70026,-1.043791 -2.34536,0 -0.49271,0.797229 -3.14043,1.449509 -5.88382,1.449509 -2.74339,0 -5.64026,-0.65228 -6.43749,-1.449509 -1.04379,-1.043791 -1.70026,-1.043791 -2.34535,0 -1.11547,1.80486 -8.29367,1.914565 -9.38826,0.143481 -0.50323,-0.81424 -1.66252,-0.844567 -3.07869,-0.08053 -1.24934,0.674013 -3.92152,1.573157 -5.93819,1.99809 l -3.66666,0.772603 V 98.08157 c 0,11.29466 -1.09921,15.57459 -4,15.57459 -0.44,0 -1.52,-0.72 -2.4,-1.6 z m 3.96513,-11.73646 c 0.23918,-5.868389 0.0131,-10.668391 -0.50246,-10.666668 -2.45934,0.0083 -4.99882,18.289208 -2.84045,20.447578 2.22838,2.22838 2.93809,0.15189 3.34291,-9.78091 z m -2.34085,-18.139522 c 3.21142,-1.232336 2.74509,-8.142443 -0.6216,-9.21099 -3.47491,-1.102893 -6.6026797,1.457896 -6.6026797,5.40579 0,3.8398 3.0068497,5.42358 7.2242797,3.8052 z M 150.05015,81.824405 c 1.00728,-0.638566 1.58329,-2.789808 1.33333,-4.979584 -0.39193,-3.433367 -0.95087,-3.855325 -5.10677,-3.855325 -3.85763,0 -4.7422,0.532822 -5.10235,3.07339 -0.77359,5.45696 4.23137,8.705816 8.87579,5.761519 z m -41.73084,-5.635792 c 1.09802,-3.459549 -1.34476,-6.430293 -3.50838,-4.266667 -1.57713,1.577129 -0.43844,7.067551 1.46578,7.067551 0.6345,0 1.55367,-1.260398 2.0426,-2.800884 z M 55.610038,66.989496 c 0,-0.733333 0.6,-1.333333 1.33334,-1.333333 0.73333,0 1.33333,0.6 1.33333,1.333333 0,0.733334 -0.6,1.333334 -1.33333,1.333334 -0.73334,0 -1.33334,-0.6 -1.33334,-1.333334 z M 100.22953,60.90392 c -2.907392,-0.992864 -6.589242,-3.308697 -8.181902,-5.146295 -3.97374,-4.584878 -6.279,-16.754935 -5.25688,-27.752495 1.67219,-17.992075 7.90584,-26.3489692 19.654472,-26.3489692 9.26772,0 13.59314,2.6625298 17.69381,10.8915032 5.33901,10.714012 4.20468,26.901608 -2.79952,39.950611 -4.84162,9.020053 -11.52179,11.679988 -21.10998,8.405645 z m 4.15288,-45.247758 c 3.54135,-6.5261233 3.64486,-6.5963953 4.91002,-3.333334 1.45559,6.972629 8.50493,13.154043 8.10181,20.333334 -0.33453,0.55 -5.37283,1 -11.19622,1 -5.82339,0 -7.362057,-0.03249 -10.777742,-0.219788 M 93.292947,14.948823 c -2.43498,2.297942 -3.360569,14.793996 -2.540649,23.758038 0.8055,8.806311 3.44321,14.757786 7.72613,17.432516 2.131612,-0.149881 3.449052,3.212581 7.481272,1.910431 -0.92565,0.327505 0.0776,0.365789 2.22952,0.08508 2.15188,-0.280715 4.9464,-1.446047 6.21004,-2.589627 l 0,-5e-6 c 9.57829,-12.837717 12.19924,-35.223956 3.18111,-46.5557613 -2.83762,-3.4724231 -4.14546,-4.0000001 -9.91584,-4.0000001 -4.87017,0 -7.35924,1.4718972 -9.311132,3.4257073 M 1.3118183,30.828001 1.0135983,0 12.645158,0.5849721 c 13.84855,0.6964688 19.66833,3.2379895 22.40326,9.7835879 2.65842,6.362512 2.35964,11.67057 -0.88944,15.801097 -4.3796,5.567766 -9.44636,7.486505 -19.76941,7.486505 H 5.0366683 l -0.37998,13.55838 c -0.21031,7.504225 -0.97534,13.755539 -1.71331,13.999919 -0.85753,0.283972 -1.43976,-10.559645 -1.63156,-30.38646 z M 23.189908,29.567346 c 9.00711,-3.412701 11.98762,-10.389903 7.85346,-18.384485 -2.44683,-4.7316464 -7.15591,-6.8099534 -17.65072,-7.7899748 L 4.9433783,2.6038814 V 16.796688 30.989495 h 7.2465297 c 3.9856,0 8.9356,-0.639968 11,-1.422149 z m 17.75347,31.100131 c 0,-1.663764 5.06428,-16.006892 13.77414,-39.011315 4.39409,-11.605669 8.03283,-19.3333345 9.1035,-19.3333345 1.14135,0 3.58403,6.2414392 6.78366,17.3333345 13.634,47.263944 12.39648,42.000001 9.87398,42.000001 -1.13956,0 -2.913,-4.272634 -4.8425,-11.666667 -1.67445,-6.416667 -3.20711,-11.966667 -3.40591,-12.333334 -0.1988,-0.366667 -4.7191,-0.366667 -10.04513,0 l -9.68367,0.666667 -4.11482,11.22304 c -2.26316,6.172674 -4.86372,11.472674 -5.77904,11.777779 -0.91532,0.305105 -1.66421,0.0098 -1.66421,-0.656171 z m 29.33333,-27.663104 c 0,-1.792086 -5.72299,-21.476413 -6.48195,-22.29478 -0.48282,-0.520612 -2.7165,4.429389 -4.96373,11.000001 l -4.08588,11.946568 h 7.76578 c 4.27118,0 7.76578,-0.293305 7.76578,-0.651789 z m 62.158082,17.65179 c -0.48143,-6.050001 -0.82459,-19.850001 -0.76258,-30.666668 0.0925,-16.1405124 0.45566,-19.6666676 2.02528,-19.6666676 1.60187,0 1.91255,4.6566642 1.91255,28.6666676 v 28.666668 l 10.33333,0.131386 c 15.2726,0.194187 16.71128,0.37702 17.32678,2.201947 0.428,1.268999 -3.0792,1.666667 -14.69898,1.666667 h -15.26108 z m 35.17525,9.029413 c 0,-1.206045 3.51293,-11.306046 7.80653,-22.444445 4.29359,-11.1384 8.94359,-23.505021 10.33334,-27.4813823 4.87946,-13.9612635 5.33892,-13.0450984 20.00801,39.8964133 1.72713,6.233334 3.15041,11.483334 3.16285,11.666667 0.012,0.183334 -0.81236,0.333334 -1.83285,0.333334 -1.02051,0 -2.25485,-1.65 -2.743,-3.666667 -0.48815,-2.016667 -2.03249,-7.566667 -3.43187,-12.333334 l -2.54433,-8.666667 -9.49499,0.447279 -9.49498,0.44728 -2.06244,4.886054 c -1.13435,2.68733 -3.03231,7.841137 -4.2177,11.452905 -2.11216,6.435602 -5.48857,9.796006 -5.48857,5.462563 z m 28.79373,-28.362747 c -0.39561,-1.283334 -1.69418,-6.233334 -2.88569,-11.000001 -1.19152,-4.766666 -2.55827,-9.085144 -3.03723,-9.596616 -0.47894,-0.511472 -2.75722,4.438528 -5.06284,11 l -4.19204,11.92995 h 7.94855 c 6.95519,0 7.85865,-0.291609 7.22925,-2.333333 z"
     id="path4508"
     inkscape:connector-curvature="0"
     sodipodi:nodetypes="sccsccsscsscccsssssssscssccscssccsssscsccssscccsssccsscscscsscccccsscsccscsscssccsccccscsssccscssssccsccccscsssssscssssscccsccsccccccscscsccscsssssscccssssssssssccssssscssccsscsssccsscccssscccccscccscsc" />
</svg>
