<?xml version="1.0" encoding="UTF-8" standalone="no"?>
<!-- Created with Inkscape (http://www.inkscape.org/) -->

<svg
   xmlns:dc="http://purl.org/dc/elements/1.1/"
   xmlns:cc="http://creativecommons.org/ns#"
   xmlns:rdf="http://www.w3.org/1999/02/22-rdf-syntax-ns#"
   xmlns:svg="http://www.w3.org/2000/svg"
   xmlns="http://www.w3.org/2000/svg"
   xmlns:sodipodi="http://sodipodi.sourceforge.net/DTD/sodipodi-0.dtd"
   xmlns:inkscape="http://www.inkscape.org/namespaces/inkscape"
   version="1.1"
   id="svg2"
   xml:space="preserve"
   width="630.33862"
   height="184.89066"
   viewBox="0 0 630.33863 184.89065"
   sodipodi:docname="PCBWay.svg"
   inkscape:version="0.92.2 (5c3e80d, 2017-08-06)"><metadata
     id="metadata8"><rdf:RDF><cc:Work
         rdf:about=""><dc:format>image/svg+xml</dc:format><dc:type
           rdf:resource="http://purl.org/dc/dcmitype/StillImage" /><dc:title></dc:title></cc:Work></rdf:RDF></metadata><defs
     id="defs6"><clipPath
       clipPathUnits="userSpaceOnUse"
       id="clipPath18"><path
         d="M 25.451,462.632 H 537.45 V 824.633 H 25.451 Z"
         id="path16"
         inkscape:connector-curvature="0" /></clipPath><clipPath
       clipPathUnits="userSpaceOnUse"
       id="clipPath34"><path
         d="M 0,841.89 H 595.28 V 0 H 0 Z"
         id="path32"
         inkscape:connector-curvature="0" /></clipPath></defs><sodipodi:namedview
     pagecolor="#ffffff"
     bordercolor="#666666"
     borderopacity="1"
     objecttolerance="10"
     gridtolerance="10"
     guidetolerance="10"
     inkscape:pageopacity="0"
     inkscape:pageshadow="2"
     inkscape:window-width="1075"
     inkscape:window-height="731"
     id="namedview4"
     showgrid="false"
     fit-margin-top="0"
     fit-margin-left="0"
     fit-margin-right="0"
     fit-margin-bottom="0"
     inkscape:zoom="0.84096496"
     inkscape:cx="205.82073"
     inkscape:cy="-77.648939"
     inkscape:window-x="0"
     inkscape:window-y="0"
     inkscape:window-maximized="0"
     inkscape:current-layer="g10" /><g
     id="g10"
     inkscape:groupmode="layer"
     inkscape:label="PCBWay"
     transform="matrix(1.3333333,0,0,-1.3333333,-60.097332,540.55865)"><path
       d="M 46.096,404.396 H 516.804 V 267.774 H 46.096 Z"
       style="fill:none;stroke:#ffffff;stroke-width:2.046;stroke-linecap:butt;stroke-linejoin:miter;stroke-miterlimit:4;stroke-dasharray:none;stroke-opacity:1"
       id="path26"
       inkscape:connector-curvature="0" /><g
       id="g28"><g
         id="g30"
         clip-path="url(#clipPath34)"><g
           id="g36"
           transform="translate(50.9736,281.8525)"><path
             d="m 0,0 c 227.83,41.631 363.701,28.812 463.68,15.625 l -2.993,-2.35 c -112.391,11.594 -225,21.493 -463.115,-25.579 z"
             style="fill:#f39e1f;fill-opacity:1;fill-rule:nonzero;stroke:none"
             id="path38"
             inkscape:connector-curvature="0" /></g><g
           id="g40"
           transform="translate(89.9189,384.7881)"><path
             d="m 0,0 c 3.812,-0.022 13.979,-1.074 13.979,-11.65 0,-13.018 -16.923,-11.777 -16.923,-11.777 h -12.434 v 23.398 l 13.957,-0.016 c 0,0 0.541,0.051 1.421,0.045 M 3.315,14.313 C 2.601,14.316 1.918,14.305 1.273,14.279 l -33.589,-0.127 v -83.053 l 16.945,0.006 v 31.329 H 1.711 c 7.799,0 29.407,1.441 29.696,25.875 C 31.669,10.5 14.026,14.264 3.315,14.313"
             style="fill:#18a84a;fill-opacity:1;fill-rule:nonzero;stroke:none"
             id="path42"
             inkscape:connector-curvature="0" /></g><g
           id="g44"
           transform="translate(124.3721,358.0771)"><path
             d="m 0,0 c 0,26.888 21.307,40.284 42.141,40.284 20.833,0 32.926,-15.597 32.926,-15.597 l -10.342,-9.73 c -5.501,5.029 -12.34,11.041 -23.67,11.041 -11.329,0 -26.141,-7.759 -26.141,-26.272 0,-18.513 14.745,-25.813 26.543,-25.813 11.798,0 17.336,5.456 23.239,10.829 L 74.83,-25.391 C 69.448,-30.286 60.987,-40.233 41.134,-40.233 21.28,-40.233 0,-26.889 0,0"
             style="fill:#18a84a;fill-opacity:1;fill-rule:nonzero;stroke:none"
             id="path46"
             inkscape:connector-curvature="0" /></g><g
           id="g48"
           transform="translate(224.4517,352.1611)"><path
             d="m 0,0 13.13,-0.051 c 0,0 11.042,0.535 11.037,-10.164 C 24.163,-20.915 12.633,-20.82 12.633,-20.82 H 0 Z m -0.078,32.205 h 10.78 c 0,0 8.515,-0.338 8.139,-8.721 -0.403,-9 -8.495,-8.925 -8.495,-8.925 L -0.078,14.588 Z M 15.854,47.869 C 15.509,47.866 15.322,47.857 15.322,47.857 L -21.263,47.84 v -84.262 l 37.496,-0.076 c 0,0 7.899,0.368 11.384,1.639 1.261,0.461 8.086,2.216 13.471,8.822 4.28,5.25 3.695,8.184 3.695,8.184 0,0 -0.202,7.667 -0.109,11.499 C 44.996,7.018 29.08,9.9 29.08,9.9 c 0,0 11.774,5.827 11.505,18.194 -0.101,4.672 -1.939,10.359 -5.442,13.452 -6.847,6.043 -16.887,6.343 -19.289,6.323"
             style="fill:#18a84a;fill-opacity:1;fill-rule:nonzero;stroke:none"
             id="path50"
             inkscape:connector-curvature="0" /></g><g
           id="g52"
           transform="translate(270.0947,400.1602)"><path
             d="M 0,0 H 22.119 L 33.723,-55.811 47.764,0.05 H 68.885 L 82.323,-56.071 94.316,0.056 h 21.661 L 94.585,-84.356 H 71.165 L 57.834,-32.712 44.667,-84.419 h -23.32 z"
             style="fill:#18a84a;fill-opacity:1;fill-rule:nonzero;stroke:none"
             id="path54"
             inkscape:connector-curvature="0" /></g><g
           id="g56"
           transform="translate(420.9922,345.5127)"><path
             d="m 0,0 v -12.879 c 0,0 -3.903,-4.377 -10.368,-4.502 -2.314,-0.046 -5.007,0.033 -6.774,1.529 -1.702,1.441 -2.584,3.963 -2.534,6.194 0.052,2.245 1.084,4.551 2.769,6.036 2.275,2.009 7.663,2.698 8.734,2.846 C -6.567,-0.556 0,0 0,0 m -12.181,35.86 c -8.364,-0.006 -22.337,-3.219 -22.337,-3.219 l -0.02,-15.508 h 1.861 c 0,0 7.3,3.127 11.173,3.84 3.97,0.73 8.123,1.07 12.104,0.4 2.577,-0.434 5.294,-1.155 7.318,-2.807 2.364,-1.927 2.228,-6.344 2.228,-6.344 0,0 -10.16,-0.747 -15.213,-1.382 -3.627,-0.455 -12.919,-1.912 -17.471,-6.07 -4.302,-3.93 -7.057,-7.932 -7.202,-15.926 -0.077,-4.139 0.892,-8.653 3.405,-11.944 5.836,-7.638 12.172,-8.153 18.437,-8.153 9.805,0 17.907,8.133 17.907,8.133 v -6.516 h 19.868 v 44.167 c 0,5.506 -2.38,11.58 -6.567,15.155 -6.256,5.338 -15.689,5.642 -23.898,6.131 -0.503,0.031 -1.034,0.044 -1.593,0.043"
             style="fill:#18a84a;fill-opacity:1;fill-rule:nonzero;stroke:none"
             id="path58"
             inkscape:connector-curvature="0" /></g><g
           id="g60"
           transform="translate(460.7793,379.3926)"><path
             d="M 0,0 13.257,-39.312 25.772,0.087 H 46.228 L 14.055,-86.96 H -7.401 L 2.424,-62.062 -20.954,0.11 Z"
             style="fill:#18a84a;fill-opacity:1;fill-rule:nonzero;stroke:none"
             id="path62"
             inkscape:connector-curvature="0" /></g></g></g></g></svg>