<?xml version="1.0" encoding="UTF-8" standalone="no"?>
<!-- Created with Inkscape (http://www.inkscape.org/) -->

<svg
   xmlns:dc="http://purl.org/dc/elements/1.1/"
   xmlns:cc="http://creativecommons.org/ns#"
   xmlns:rdf="http://www.w3.org/1999/02/22-rdf-syntax-ns#"
   xmlns:svg="http://www.w3.org/2000/svg"
   xmlns="http://www.w3.org/2000/svg"
   xmlns:sodipodi="http://sodipodi.sourceforge.net/DTD/sodipodi-0.dtd"
   xmlns:inkscape="http://www.inkscape.org/namespaces/inkscape"
   version="1.1"
   id="svg2"
   width="641.28003"
   height="360.64001"
   viewBox="0 0 641.28003 360.64001"
   sodipodi:docname="R morado sinTIT.svg"
   inkscape:version="0.92+devel unknown">
  <metadata
     id="metadata8">
    <rdf:RDF>
      <cc:Work
         rdf:about="">
        <dc:format>image/svg+xml</dc:format>
        <dc:type
           rdf:resource="http://purl.org/dc/dcmitype/StillImage" />
        <dc:title />
      </cc:Work>
    </rdf:RDF>
  </metadata>
  <defs
     id="defs6" />
  <sodipodi:namedview
     pagecolor="#ffffff"
     bordercolor="#666666"
     borderopacity="1"
     objecttolerance="10"
     gridtolerance="10"
     guidetolerance="10"
     inkscape:pageopacity="0"
     inkscape:pageshadow="2"
     inkscape:window-width="1680"
     inkscape:window-height="1013"
     id="namedview4"
     showgrid="false"
     inkscape:zoom="0.41790398"
     inkscape:cx="151.91756"
     inkscape:cy="-205.98351"
     inkscape:window-x="0"
     inkscape:window-y="0"
     inkscape:window-maximized="1"
     inkscape:current-layer="svg2"
     inkscape:document-rotation="0" />
  <path
     inkscape:connector-curvature="0"
     id="path18"
     d="M -7.5156249e-7,180.31999 V 9.7092187e-6 H 320.64001 641.28003 V 180.31999 360.64 H 320.64001 -7.5156249e-7 Z M 275.43276,305.52 c 0.19977,-0.25685 0.33407,-38.65114 0.37527,-107.28 0.0353,-58.78401 0.16492,-106.97523 0.28808,-107.09164 0.58145,-0.54962 8.25471,-3.46803 11.1039,-4.22322 8.06987,-2.13892 13.61714,-2.71934 20.52477,-2.14755 12.59431,1.04251 22.04855,5.16437 30.21197,13.17185 2.60771,2.55787 6.40755,8.03208 8.54173,12.30556 3.21862,6.44494 5.23277,16.351 4.71408,23.18499 -0.7439,9.80107 -5.36352,20.31751 -12.58083,28.64 -0.61053,0.704 -4.69741,4.97913 -9.08199,9.5003 -4.38454,4.52115 -8.96153,9.41122 -10.17107,10.86681 -2.37221,2.85479 -4.74236,6.8333 -5.5903,9.38379 -0.7709,2.31881 -1.23191,6.67142 -1.01775,9.60911 0.31641,4.34018 2.95301,12.73889 6.78088,21.6 0.64624,1.496 1.82333,4.232 2.61572,6.08 1.49536,3.48743 1.71494,3.96722 5.93152,12.96 1.40291,2.992 3.37939,7.312 4.39219,9.6 3.17584,7.17459 11.77398,25.74832 13.77648,29.76 3.74806,7.50859 8.52553,13.67598 13.51152,17.44238 3.07606,2.32366 4.90877,3.19697 9.52109,4.53693 8.06585,2.34326 6.69027,2.25575 37.8417,2.40745 23.964,0.1167 28.1071,0.0706 28.25488,-0.3146 0.0953,-0.24824 -0.5361,-1.95004 -1.40304,-3.78176 -4.67194,-9.87103 -7.24612,-15.34044 -7.89296,-16.7704 -0.39805,-0.88 -1.40215,-3.03759 -2.23133,-4.79465 -0.82915,-1.75705 -2.26855,-4.85305 -3.19863,-6.88 -0.93004,-2.02694 -3.20217,-6.85335 -5.04915,-10.72535 -1.84697,-3.872 -4.90889,-10.352 -6.80429,-14.4 -4.29168,-9.16578 -5.30336,-11.09502 -7.75574,-14.7898 -4.86391,-7.32804 -8.55875,-10.97527 -16.88144,-16.66396 -5.70506,-3.8995 -9.12,-8.16163 -9.12,-11.38252 0,-2.36851 1.56649,-5.94982 4.42822,-10.12372 2.63069,-3.83694 3.3201,-4.60652 12.04026,-13.44 15.7272,-15.93165 15.90381,-16.13456 20.16797,-23.17241 3.02608,-4.99446 5.76013,-11.80218 7.14361,-17.7876 1.14202,-4.94075 1.27268,-16.76156 0.24938,-22.56 -3.696,-20.94253 -15.15399,-37.81046 -33.26583,-48.97232 -1.78396,-1.09943 -3.74038,-2.31489 -4.34755,-2.70103 -3.28467,-2.08895 -13.70704,-6.03812 -21.45606,-8.12999 -4.28199,-1.15594 -11.87844,-2.34225 -19.19207,-2.99716 -5.6967,-0.51012 -11.93677,-0.55948 -70.72794,-0.55948 h -64.48 l -0.0819,125.11998 c -0.045,68.81601 -0.0135,125.30001 0.07,125.52001 0.2227,0.58674 69.38831,0.58674 69.84466,0 z"
     style="fill:#8a0058;stroke-width:0.32000002" />
</svg>
