<?xml version="1.0" encoding="UTF-8" standalone="no"?>
<!-- Created with Inkscape (http://www.inkscape.org/) -->

<svg
   xmlns:dc="http://purl.org/dc/elements/1.1/"
   xmlns:cc="http://creativecommons.org/ns#"
   xmlns:rdf="http://www.w3.org/1999/02/22-rdf-syntax-ns#"
   xmlns:svg="http://www.w3.org/2000/svg"
   xmlns="http://www.w3.org/2000/svg"
   xmlns:sodipodi="http://sodipodi.sourceforge.net/DTD/sodipodi-0.dtd"
   xmlns:inkscape="http://www.inkscape.org/namespaces/inkscape"
   version="1.1"
   id="svg2"
   xml:space="preserve"
   width="377.95279"
   height="377.95279"
   viewBox="0 0 377.95279 377.95279"
   sodipodi:docname="tme.svg"
   inkscape:version="0.92.3 (2405546, 2018-03-11)"><metadata
     id="metadata8"><rdf:RDF><cc:Work
         rdf:about=""><dc:format>image/svg+xml</dc:format><dc:type
           rdf:resource="http://purl.org/dc/dcmitype/StillImage" /><dc:title></dc:title></cc:Work></rdf:RDF></metadata><defs
     id="defs6" /><sodipodi:namedview
     pagecolor="#ffffff"
     bordercolor="#666666"
     borderopacity="1"
     objecttolerance="10"
     gridtolerance="10"
     guidetolerance="10"
     inkscape:pageopacity="0"
     inkscape:pageshadow="2"
     inkscape:window-width="796"
     inkscape:window-height="513"
     id="namedview4"
     showgrid="false"
     inkscape:zoom="0.62441661"
     inkscape:cx="188.97639"
     inkscape:cy="185.7734"
     inkscape:window-x="0"
     inkscape:window-y="27"
     inkscape:window-maximized="0"
     inkscape:current-layer="g10" /><g
     id="g10"
     inkscape:groupmode="layer"
     inkscape:label="example_2"
     transform="matrix(1.3333333,0,0,-1.3333333,0,377.9528)"><g
       id="g12"><g
         id="g14"><path
           d="m 76.0844,190.9531 30.2168,-26.6253 v -31.2106 -1.6633 h 1.6637 67.5394 1.663 l 3e-4,1.6633 v 31.2151 l 30.2131,26.6208 h 35.6584 1.6634 v 1.6633 59.4987 1.6634 h -1.6634 -67.5397 -1.6633 v -1.6634 -31.2117 l -30.2125,-26.6236 h -3.7755 l -30.2199,26.6236 v 31.2117 1.6634 h -1.6633 -67.5395 -1.6633 v -1.6634 -59.4987 -1.6633 h 1.6633 z m 165.2911,59.4986 h -64.2127 v -56.1719 h 0.005 64.2082 v 56.1719 z m -67.5346,-59.4986 h -0.005 -64.2079 v -56.1725 h 64.2127 v 56.1725 z m -67.5397,59.4986 H 42.0891 v -56.1719 h 64.2121 z"
           style="fill:#254796;fill-opacity:1;fill-rule:evenodd;stroke:none"
           id="path16"
           inkscape:connector-curvature="0" /><path
           d="M 41.3889,110.0203 V 122.44 h 9.2078 v -2.1014 h -6.7011 v -2.7541 h 6.2348 v -2.0928 h -6.2348 v -3.3786 h 6.9395 v -2.0928 z m 12.0362,0 V 122.44 h 2.3811 v -12.4197 z m 10.514,2.8627 2.3703,-0.3969 c -0.3035,-0.8697 -0.7849,-1.5332 -1.4442,-1.9865 -0.6571,-0.4553 -1.4811,-0.6832 -2.4681,-0.6832 -1.5656,0 -2.7236,0.5117 -3.4739,1.5333 -0.5921,0.8198 -0.8892,1.8519 -0.8892,3.1011 0,1.4902 0.3906,2.6589 1.1687,3.5025 0.7787,0.8456 1.7657,1.2665 2.956,1.2665 1.3382,0 2.3941,-0.4428 3.1685,-1.3252 0.7742,-0.8847 1.145,-2.2379 1.1101,-4.0617 h -5.9638 c 0.0176,-0.707 0.2083,-1.2558 0.5771,-1.6484 0.3665,-0.3923 0.824,-0.5873 1.3706,-0.5873 0.373,0 0.6874,0.0995 0.9411,0.3036 0.254,0.2038 0.4467,0.5309 0.5768,0.9822 z m 0.1344,2.4071 c -0.017,0.6874 -0.195,1.2124 -0.5335,1.5702 -0.3382,0.36 -0.75,0.538 -1.2359,0.538 -0.5204,0 -0.9499,-0.1888 -1.2884,-0.5664 -0.3381,-0.3793 -0.5051,-0.8935 -0.5008,-1.5418 z m 12.6286,1.067 -2.3465,-0.4229 c -0.078,0.4683 -0.258,0.8198 -0.5377,1.0584 -0.2798,0.2364 -0.6421,0.3555 -1.0885,0.3555 -0.5922,0 -1.065,-0.2035 -1.4185,-0.6137 -0.3532,-0.4099 -0.5289,-1.0953 -0.5289,-2.0557 0,-1.067 0.18,-1.8198 0.5377,-2.262 0.358,-0.4403 0.839,-0.6594 1.444,-0.6594 0.4512,0 0.822,0.1279 1.1106,0.3864 0.2885,0.2557 0.4901,0.6979 0.6094,1.3249 l 2.3377,-0.3991 c -0.2429,-1.0735 -0.7092,-1.8822 -1.3966,-2.431 -0.6897,-0.5468 -1.6135,-0.8221 -2.7714,-0.8221 -1.3164,0 -2.3641,0.4165 -3.147,1.245 -0.7824,0.8303 -1.173,1.9797 -1.173,3.4481 0,1.4853 0.3926,2.641 1.1778,3.4696 0.7849,0.8263 1.8473,1.2407 3.1853,1.2407 1.0956,0 1.9672,-0.2364 2.6135,-0.7072 0.646,-0.4706 1.1101,-1.1906 1.3921,-2.1555 z m 6.4131,2.6586 v -1.8975 h -1.6265 v -3.6238 c 0,-0.735 0.0156,-1.1622 0.0456,-1.2835 0.0306,-0.1216 0.1021,-0.2214 0.2126,-0.3016 0.1086,-0.0783 0.243,-0.1194 0.4011,-0.1194 0.2214,0 0.54,0.0783 0.9587,0.2302 l 0.2018,-1.8479 c -0.5533,-0.2364 -1.1797,-0.3558 -1.8805,-0.3558 -0.4294,0 -0.8152,0.0718 -1.1602,0.2172 -0.3444,0.1428 -0.5964,0.3294 -0.7588,0.5593 -0.1605,0.2279 -0.2713,0.538 -0.3339,0.926 -0.0502,0.2775 -0.076,0.8371 -0.076,1.6784 v 3.9209 H 78.006 v 1.8975 h 1.0931 v 1.7892 l 2.3896,1.3879 v -3.1771 z m 4.4119,-8.9954 h -2.3814 v 8.9954 h 2.2121 v -1.2773 c 0.3773,0.603 0.7178,1.0021 1.0213,1.1928 0.3014,0.1931 0.6444,0.2886 1.0279,0.2886 0.5423,0 1.065,-0.1499 1.5681,-0.449 l -0.7373,-2.0755 c -0.4014,0.2602 -0.7744,0.3903 -1.1191,0.3903 -0.3316,0 -0.6137,-0.093 -0.8458,-0.2752 -0.2322,-0.1843 -0.4142,-0.5162 -0.5466,-0.9956 -0.1321,-0.4793 -0.1992,-1.4853 -0.1992,-3.0166 z m 4.4027,4.6258 c 0,0.7892 0.1951,1.5548 0.5857,2.2944 0.39,0.7415 0.9408,1.3056 1.6565,1.6957 0.7135,0.3883 1.5115,0.5836 2.3922,0.5836 1.362,0 2.4766,-0.4428 3.346,-1.3252 0.8697,-0.8847 1.3056,-2.0015 1.3056,-3.3505 0,-1.3618 -0.4402,-2.4897 -1.3186,-3.3852 -0.8782,-0.8937 -1.9843,-1.3425 -3.3157,-1.3425 -0.8241,0 -1.6115,0.1866 -2.3596,0.5596 -0.748,0.3728 -1.3164,0.9193 -1.7064,1.6393 -0.3906,0.72 -0.5857,1.5964 -0.5857,2.6308 z m 2.4398,-0.1281 c 0,-0.8912 0.2123,-1.5744 0.6353,-2.0492 0.4249,-0.4751 0.9456,-0.7115 1.5678,-0.7115 0.6202,0 1.1429,0.2364 1.5636,0.7115 0.4209,0.4748 0.631,1.1622 0.631,2.0665 0,0.8807 -0.2101,1.5593 -0.631,2.0344 -0.4207,0.4728 -0.9434,0.7112 -1.5636,0.7112 -0.6222,0 -1.1429,-0.2384 -1.5678,-0.7112 -0.423,-0.4751 -0.6353,-1.158 -0.6353,-2.0517 z m 17.3755,-4.4977 h -2.3814 v 4.5909 c 0,0.9718 -0.0496,1.6005 -0.1516,1.8848 -0.1021,0.286 -0.2665,0.5074 -0.4966,0.6659 -0.2277,0.1578 -0.5032,0.2364 -0.8263,0.2364 -0.4119,0 -0.7807,-0.1129 -1.1081,-0.3385 -0.3277,-0.2256 -0.5528,-0.525 -0.6746,-0.898 -0.1214,-0.3728 -0.182,-1.0624 -0.182,-2.0665 v -4.075 h -2.3811 v 8.9954 h 2.2121 v -1.3204 c 0.7849,1.0168 1.7737,1.5245 2.9645,1.5245 0.5244,0 1.006,-0.0935 1.44,-0.2843 0.4357,-0.1885 0.7631,-0.4292 0.9865,-0.7243 0.2236,-0.2928 0.3795,-0.6267 0.4663,-0.9995 0.0867,-0.371 0.1323,-0.9065 0.1323,-1.6007 z m 2.8956,10.2166 v 2.2031 h 2.3811 v -2.2031 z m 0,-10.2166 v 8.9954 h 2.3811 v -8.9954 z m 13.1465,6.3368 -2.3465,-0.4229 c -0.0779,0.4683 -0.2579,0.8198 -0.5374,1.0584 -0.2798,0.2364 -0.6421,0.3555 -1.0885,0.3555 -0.5922,0 -1.065,-0.2035 -1.4185,-0.6137 -0.3535,-0.4099 -0.5292,-1.0953 -0.5292,-2.0557 0,-1.067 0.18,-1.8198 0.5377,-2.262 0.358,-0.4403 0.8394,-0.6594 1.4443,-0.6594 0.4512,0 0.822,0.1279 1.1106,0.3864 0.2883,0.2557 0.4901,0.6979 0.6094,1.3249 l 2.3375,-0.3991 c -0.2429,-1.0735 -0.709,-1.8822 -1.3966,-2.431 -0.6894,-0.5468 -1.6135,-0.8221 -2.7715,-0.8221 -1.3164,0 -2.3638,0.4165 -3.1467,1.245 -0.7827,0.8303 -1.173,1.9797 -1.173,3.4481 0,1.4853 0.3923,2.641 1.1775,3.4696 0.7849,0.8263 1.8476,1.2407 3.1856,1.2407 1.0953,0 1.9672,-0.2364 2.6132,-0.7072 0.6463,-0.4706 1.1104,-1.1906 1.3921,-2.1555 z m 14.5885,-1.7717 2.4313,-0.7701 c -0.3733,-1.3553 -0.9913,-2.3616 -1.8587,-3.0209 -0.8671,-0.6571 -1.9669,-0.9865 -3.3006,-0.9865 -1.6481,0 -3.0036,0.5638 -4.066,1.6915 -1.0608,1.1256 -1.592,2.6651 -1.592,4.6216 0,2.0664 0.5335,3.6711 1.6005,4.8141 1.0672,1.1449 2.4724,1.7155 4.2117,1.7155 1.5179,0 2.7519,-0.449 3.7018,-1.347 0.5635,-0.531 0.9864,-1.2924 1.2707,-2.2879 l -2.4831,-0.5919 c -0.1477,0.6441 -0.4533,1.1515 -0.9193,1.5245 -0.4663,0.3731 -1.0324,0.5596 -1.6985,0.5596 -0.9193,0 -1.6674,-0.3297 -2.24,-0.991 -0.5745,-0.6616 -0.8608,-1.7306 -0.8608,-3.2117 0,-1.5701 0.284,-2.6872 0.8478,-3.3528 0.5641,-0.6678 1.2991,-0.9998 2.2034,-0.9998 0.6658,0 1.2381,0.2104 1.7198,0.6356 0.479,0.4226 0.824,1.0885 1.032,1.9972 z m 4.4964,0.0607 c 0,0.7892 0.195,1.5548 0.5856,2.2944 0.39,0.7415 0.9408,1.3056 1.6566,1.6957 0.7134,0.3883 1.5114,0.5836 2.3921,0.5836 1.3621,0 2.4767,-0.4428 3.3463,-1.3252 0.8694,-0.8847 1.3054,-2.0015 1.3054,-3.3505 0,-1.3618 -0.4402,-2.4897 -1.3187,-3.3852 -0.8782,-0.8937 -1.9843,-1.3425 -3.3157,-1.3425 -0.824,0 -1.6112,0.1866 -2.3595,0.5596 -0.7481,0.3728 -1.3165,0.9193 -1.7065,1.6393 -0.3906,0.72 -0.5856,1.5964 -0.5856,2.6308 z m 2.4397,-0.1281 c 0,-0.8912 0.2124,-1.5744 0.6353,-2.0492 0.4249,-0.4751 0.9456,-0.7115 1.5678,-0.7115 0.6202,0 1.143,0.2364 1.5636,0.7115 0.421,0.4748 0.6313,1.1622 0.6313,2.0665 0,0.8807 -0.2103,1.5593 -0.6313,2.0344 -0.4206,0.4728 -0.9434,0.7112 -1.5636,0.7112 -0.6222,0 -1.1429,-0.2384 -1.5678,-0.7112 -0.4229,-0.4751 -0.6353,-1.158 -0.6353,-2.0517 z m 9.0131,4.4977 h 2.1948 v -1.2274 c 0.7852,0.9544 1.7198,1.4315 2.8041,1.4315 0.5768,0 1.0757,-0.1171 1.4984,-0.3557 0.4252,-0.2364 0.7721,-0.5964 1.0431,-1.0758 0.3949,0.4794 0.8221,0.8394 1.2799,1.0758 0.4572,0.2386 0.945,0.3557 1.4635,0.3557 0.6616,0 1.2209,-0.1344 1.6787,-0.4014 0.4575,-0.2687 0.7979,-0.6636 1.0236,-1.1817 0.1647,-0.3841 0.2471,-1.0063 0.2471,-1.865 v -5.7514 h -2.3813 v 5.142 c 0,0.8932 -0.0822,1.4681 -0.245,1.7283 -0.2211,0.3384 -0.5595,0.5077 -1.017,0.5077 -0.3339,0 -0.646,-0.1021 -0.9411,-0.3039 -0.2928,-0.2038 -0.5054,-0.5009 -0.6333,-0.8935 -0.1301,-0.3926 -0.1953,-1.0128 -0.1953,-1.8606 v -4.32 h -2.3814 v 4.9294 c 0,0.8762 -0.0431,1.442 -0.1278,1.6957 -0.0845,0.2537 -0.2146,0.4428 -0.3923,0.5663 -0.1778,0.1256 -0.4207,0.1866 -0.7243,0.1866 -0.3665,0 -0.6984,-0.0978 -0.9913,-0.2951 -0.2948,-0.1999 -0.5051,-0.4836 -0.631,-0.8566 -0.1278,-0.3731 -0.1907,-0.9913 -0.1907,-1.8542 v -4.3721 h -2.3814 z m 16.0183,0 h 2.2184 v -1.3204 c 0.2885,0.451 0.6789,0.8195 1.169,1.1016 0.4924,0.282 1.0366,0.4229 1.6353,0.4229 1.0451,0 1.9321,-0.4099 2.6609,-1.2274 0.7285,-0.8198 1.093,-1.9607 1.093,-3.4223 0,-1.5029 -0.3665,-2.6693 -1.1021,-3.5044 -0.735,-0.8328 -1.624,-1.2493 -2.6671,-1.2493 -0.4989,0 -0.9476,0.1001 -1.351,0.2971 -0.4056,0.1973 -0.8308,0.5358 -1.2753,1.0174 v -4.5326 h -2.3811 z m 2.355,-4.3438 c 0,-1.0125 0.1998,-1.7586 0.6007,-2.2422 0.4014,-0.4816 0.8892,-0.7245 1.4663,-0.7245 0.5528,0 1.0126,0.2236 1.3811,0.6658 0.3668,0.4425 0.551,1.1713 0.551,2.1816 0,0.9436 -0.191,1.6441 -0.5683,2.1016 -0.3793,0.4575 -0.8479,0.6854 -1.4052,0.6854 -0.5833,0 -1.0649,-0.2256 -1.4487,-0.6744 -0.3861,-0.449 -0.5769,-1.1126 -0.5769,-1.9933 z m 8.2415,-0.0258 c 0,0.7892 0.195,1.5548 0.5856,2.2944 0.39,0.7415 0.9408,1.3056 1.6566,1.6957 0.7134,0.3883 1.5114,0.5836 2.3921,0.5836 1.3621,0 2.4766,-0.4428 3.3463,-1.3252 0.8694,-0.8847 1.3054,-2.0015 1.3054,-3.3505 0,-1.3618 -0.4403,-2.4897 -1.3187,-3.3852 -0.8782,-0.8937 -1.9843,-1.3425 -3.3157,-1.3425 -0.824,0 -1.6112,0.1866 -2.3596,0.5596 -0.748,0.3728 -1.3164,0.9193 -1.7064,1.6393 -0.3906,0.72 -0.5856,1.5964 -0.5856,2.6308 z m 2.4397,-0.1281 c 0,-0.8912 0.2123,-1.5744 0.6353,-2.0492 0.4249,-0.4751 0.9456,-0.7115 1.5678,-0.7115 0.6202,0 1.1429,0.2364 1.5636,0.7115 0.421,0.4748 0.6313,1.1622 0.6313,2.0665 0,0.8807 -0.2103,1.5593 -0.6313,2.0344 -0.4207,0.4728 -0.9434,0.7112 -1.5636,0.7112 -0.6222,0 -1.1429,-0.2384 -1.5678,-0.7112 -0.423,-0.4751 -0.6353,-1.158 -0.6353,-2.0517 z m 17.3756,-4.4977 h -2.3811 v 4.5909 c 0,0.9718 -0.0499,1.6005 -0.152,1.8848 -0.102,0.286 -0.2664,0.5074 -0.4966,0.6659 -0.2276,0.1578 -0.5032,0.2364 -0.8263,0.2364 -0.4119,0 -0.7807,-0.1129 -1.1081,-0.3385 -0.3277,-0.2256 -0.5527,-0.525 -0.6746,-0.898 -0.1211,-0.3728 -0.1817,-1.0624 -0.1817,-2.0665 v -4.075 h -2.3814 v 8.9954 h 2.2122 v -1.3204 c 0.7849,1.0168 1.7736,1.5245 2.9644,1.5245 0.5247,0 1.0063,-0.0935 1.44,-0.2843 0.4357,-0.1885 0.7631,-0.4292 0.9865,-0.7243 0.2236,-0.2928 0.3795,-0.6267 0.4663,-0.9995 0.0867,-0.371 0.1324,-0.9065 0.1324,-1.6007 z m 8.1068,2.8627 2.3703,-0.3969 c -0.3036,-0.8697 -0.7849,-1.5332 -1.4443,-1.9865 -0.657,-0.4553 -1.4813,-0.6832 -2.4681,-0.6832 -1.5656,0 -2.7235,0.5117 -3.4738,1.5333 -0.5922,0.8198 -0.8893,1.8519 -0.8893,3.1011 0,1.4902 0.3904,2.6589 1.1688,3.5025 0.7786,0.8456 1.7654,1.2665 2.9559,1.2665 1.338,0 2.3942,-0.4428 3.1686,-1.3252 0.7741,-0.8847 1.1449,-2.2379 1.11,-4.0617 h -5.9638 c 0.0173,-0.707 0.2084,-1.2558 0.5772,-1.6484 0.3665,-0.3923 0.8237,-0.5873 1.3702,-0.5873 0.3734,0 0.6877,0.0995 0.9414,0.3036 0.2537,0.2038 0.4465,0.5309 0.5769,0.9822 z m 0.1343,2.4071 c -0.017,0.6874 -0.195,1.2124 -0.5335,1.5702 -0.3384,0.36 -0.75,0.538 -1.2359,0.538 -0.5204,0 -0.9498,-0.1888 -1.2883,-0.5664 -0.3382,-0.3793 -0.5051,-0.8935 -0.5009,-1.5418 z m 12.9691,-5.2698 h -2.3811 v 4.5909 c 0,0.9718 -0.0499,1.6005 -0.1519,1.8848 -0.1018,0.286 -0.2665,0.5074 -0.4967,0.6659 -0.2276,0.1578 -0.5028,0.2364 -0.8263,0.2364 -0.4116,0 -0.7806,-0.1129 -1.108,-0.3385 -0.3277,-0.2256 -0.5528,-0.525 -0.6744,-0.898 -0.1213,-0.3728 -0.182,-1.0624 -0.182,-2.0665 v -4.075 h -2.3814 v 8.9954 h 2.2122 v -1.3204 c 0.7849,1.0168 1.7736,1.5245 2.9645,1.5245 0.5247,0 1.0063,-0.0935 1.44,-0.2843 0.4356,-0.1885 0.7633,-0.4292 0.9864,-0.7243 0.2237,-0.2928 0.3799,-0.6267 0.4663,-0.9995 0.087,-0.371 0.1324,-0.9065 0.1324,-1.6007 z m 7.0225,8.9954 v -1.8975 h -1.6265 v -3.6238 c 0,-0.735 0.0153,-1.1622 0.0457,-1.2835 0.0303,-0.1216 0.1017,-0.2214 0.2123,-0.3016 0.1085,-0.0783 0.2429,-0.1194 0.4014,-0.1194 0.2214,0 0.54,0.0783 0.9586,0.2302 l 0.2016,-1.8479 c -0.5531,-0.2364 -1.1795,-0.3558 -1.8802,-0.3558 -0.4295,0 -0.8156,0.0718 -1.1603,0.2172 -0.3446,0.1428 -0.5964,0.3294 -0.7591,0.5593 -0.1601,0.2279 -0.271,0.538 -0.3336,0.926 -0.0502,0.2775 -0.0763,0.8371 -0.0763,1.6784 v 3.9209 h -1.093 v 1.8975 h 1.093 v 1.7892 l 2.3899,1.3879 v -3.1771 z m 1.2955,-6.4275 2.3873,0.3642 c 0.1021,-0.4643 0.3079,-0.8155 0.618,-1.0559 0.3104,-0.2387 0.7463,-0.36 1.3056,-0.36 0.616,0 1.078,0.1123 1.3879,0.3379 0.2106,0.1585 0.3146,0.3708 0.3146,0.6355 0,0.1823 -0.0561,0.3317 -0.1689,0.449 -0.1194,0.1148 -0.3841,0.2191 -0.7963,0.3144 -1.921,0.4229 -3.138,0.8113 -3.6519,1.1605 -0.7112,0.4856 -1.0669,1.1599 -1.0669,2.0251 0,0.7786 0.3078,1.4337 0.9238,1.9649 0.614,0.5315 1.5704,0.796 2.8627,0.796 1.2316,0 2.1467,-0.1995 2.7453,-0.6009 0.5984,-0.4011 1.0106,-0.9933 1.2362,-1.7782 l -2.2444,-0.4161 c -0.0978,0.3509 -0.2798,0.6179 -0.5466,0.8044 -0.269,0.1863 -0.6505,0.2798 -1.1491,0.2798 -0.6271,0 -1.0758,-0.087 -1.3471,-0.2625 -0.18,-0.1238 -0.2709,-0.2843 -0.2709,-0.4838 0,-0.169 0.0802,-0.3121 0.2386,-0.4315 0.2146,-0.1584 0.9564,-0.3815 2.223,-0.6678 1.2685,-0.2886 2.1532,-0.6421 2.6563,-1.0607 0.4966,-0.4227 0.7461,-1.0129 0.7461,-1.7694 0,-0.8243 -0.345,-1.533 -1.0344,-2.1274 -0.6899,-0.5922 -1.7093,-0.8893 -3.058,-0.8893 -1.2251,0 -2.1966,0.2495 -2.9103,0.7461 -0.7135,0.4966 -1.1818,1.171 -1.4006,2.0257 z m -17.6426,41.6145 c 1.3967,0 2.7596,-0.3583 4.0887,-1.0749 1.332,-0.7168 2.3675,-1.741 3.1099,-3.073 0.7421,-1.3348 1.1118,-2.7258 1.1118,-4.1734 0,-1.4338 -0.364,-2.8109 -1.0948,-4.1341 -0.7339,-1.3235 -1.758,-2.3508 -3.0761,-3.0815 -1.3207,-0.7308 -2.7006,-1.0948 -4.1395,-1.0948 -1.4394,0 -2.819,0.364 -4.1397,1.0948 -1.3178,0.7307 -2.3451,1.758 -3.0815,3.0815 -0.7336,1.3232 -1.1004,2.7003 -1.1004,4.1341 0,1.4476 0.3721,2.8386 1.1174,4.1734 0.7478,1.332 1.7833,2.3562 3.1155,3.073 1.3286,0.7166 2.6921,1.0749 4.0887,1.0749 z m 0,-1.377 c -1.1681,0 -2.3057,-0.2988 -3.4117,-0.8972 -1.1061,-0.6009 -1.9724,-1.4562 -2.596,-2.5707 -0.6236,-1.1118 -0.9372,-2.2714 -0.9372,-3.4764 0,-1.1968 0.3079,-2.3451 0.9202,-3.4456 0.6154,-1.0975 1.4729,-1.9527 2.5735,-2.5676 1.1033,-0.6125 2.2519,-0.9201 3.4512,-0.9201 1.1963,0 2.3477,0.3076 3.4509,0.9201 1.1007,0.6149 1.9585,1.4701 2.5679,2.5676 0.6098,1.1005 0.9145,2.2488 0.9145,3.4456 0,1.205 -0.3104,2.3646 -0.9312,3.4764 -0.6211,1.1145 -1.487,1.9698 -2.5962,2.5707 -1.109,0.5984 -2.2462,0.8972 -3.4059,0.8972 z m -3.6487,-11.5413 v 8.951 h 3.0758 c 1.05,0 1.8117,-0.0817 2.28,-0.2483 0.4711,-0.1664 0.8467,-0.4544 1.1259,-0.8663 0.2795,-0.4093 0.4178,-0.8467 0.4178,-1.3093 0,-0.6548 -0.2316,-1.2249 -0.6999,-1.7102 -0.4657,-0.4853 -1.0865,-0.7563 -1.8569,-0.8152 0.316,-0.133 0.5703,-0.2909 0.7619,-0.4743 0.3586,-0.3526 0.7988,-0.9453 1.3207,-1.775 l 1.0922,-1.7524 h -1.7638 l -0.7928,1.4111 c -0.6268,1.1089 -1.1291,1.8028 -1.51,2.0823 -0.2651,0.2061 -0.6517,0.3104 -1.1597,0.3104 h -0.8464 v -3.8038 z m 1.4448,5.0369 h 1.7524 c 0.8379,0 1.4082,0.1273 1.7127,0.3756 0.305,0.2511 0.4575,0.5811 0.4575,0.9932 0,0.2622 -0.0734,0.4995 -0.2203,0.7113 -0.1465,0.2089 -0.3501,0.3639 -0.6123,0.4682 -0.2596,0.1015 -0.7421,0.1523 -1.4476,0.1523 h -1.6424 z m -4.7633,70.5399 9.5567,22.7888 h 14.3385 v -0.9462 h -1.1435 c -1.0372,0 -1.8692,-0.1763 -2.4942,-0.5352 -0.432,-0.235 -0.7779,-0.6329 -1.0375,-1.1942 -0.1928,-0.411 -0.286,-1.4752 -0.286,-3.1913 V 210.994 c 0,-1.7682 0.0932,-2.8712 0.286,-3.3151 0.1927,-0.4371 0.5785,-0.8289 1.1707,-1.1551 0.5851,-0.3328 1.3768,-0.4961 2.361,-0.4961 h 1.1435 v -0.9462 h -18.3887 v 0.9462 h 1.1441 c 1.0372,0 1.8686,0.1763 2.4939,0.5352 0.432,0.235 0.7781,0.646 1.0372,1.2206 0.1868,0.411 0.286,1.4811 0.286,3.2105 v 25.6215 l -13.5141,-31.534 h -0.6183 l -13.7202,31.3053 v -24.3485 c 0,-1.6968 0.0465,-2.7408 0.1329,-3.1326 0.2262,-0.8481 0.7118,-1.54 1.4633,-2.0752 0.7579,-0.5352 1.9355,-0.8028 3.5515,-0.8028 v -0.9462 h -12.0575 v 0.9462 h 0.366 c 0.7775,-0.0193 1.5029,0.1046 2.181,0.3657 0.6786,0.2673 1.184,0.6199 1.5301,1.0573 0.3524,0.4436 0.6182,1.0636 0.811,1.8595 0.0335,0.1894 0.0465,1.0574 0.0465,2.6042 v 21.8687 c 0,1.7555 -0.093,2.8455 -0.286,3.2763 -0.186,0.4369 -0.5786,0.8156 -1.1636,1.1483 -0.5922,0.3328 -1.3768,0.4961 -2.3675,0.4961 h -1.1175 v 0.9462 h 14.3918 z m -70.6462,-38.7006 v -14.07 h 0.6982 c 2.2348,0 3.8573,0.6851 4.8617,2.0622 1.004,1.3767 1.6423,3.4063 1.9218,6.095 h 0.9845 v -18.0969 h -0.9845 c -0.2128,1.9712 -0.6448,3.583 -1.3166,4.8427 -0.6653,1.2529 -1.4369,2.1013 -2.3211,2.5319 -0.8846,0.4374 -2.1682,0.6525 -3.844,0.6525 v -9.7367 c 0,-1.9057 0.0799,-3.0671 0.2457,-3.4914 0.1667,-0.4244 0.4726,-0.7767 0.9182,-1.0508 0.4521,-0.2676 1.1835,-0.4045 2.1878,-0.4045 h 2.1019 c 3.2918,0 5.9252,0.7503 7.9072,2.2447 1.9888,1.4947 3.4118,3.7724 4.2763,6.8329 h 0.9644 l -1.5894,-10.9899 h -30.4464 v 0.9462 h 1.1705 c 1.0238,0 1.8422,0.1766 2.4675,0.5352 0.4519,0.235 0.7977,0.6463 1.0375,1.2206 0.1928,0.411 0.2857,1.4814 0.2857,3.2108 v 22.7432 c 0,1.5596 -0.0396,2.5189 -0.1261,2.878 -0.1732,0.5939 -0.4921,1.0508 -0.9643,1.3771 -0.6585,0.4762 -1.5563,0.7115 -2.7003,0.7115 h -1.1705 v 0.9462 h 29.4889 v -10.2263 h -0.991 c -0.4989,2.499 -1.2036,4.2939 -2.115,5.3836 -0.911,1.0837 -2.1948,1.8862 -3.8573,2.395 -0.9709,0.307 -2.7868,0.4572 -5.4536,0.4572 z M 90.3223,240.306 v -9.3586 h -0.938 c -0.5516,2.1603 -1.1701,3.7134 -1.8422,4.653 -0.6781,0.9465 -1.6024,1.6969 -2.7797,2.2578 -0.6585,0.307 -1.809,0.4573 -3.4585,0.4573 H 78.6835 V 211.65 c 0,-1.7686 0.0998,-2.8715 0.2994,-3.3154 0.1998,-0.4372 0.5853,-0.8289 1.1707,-1.1552 0.5785,-0.3328 1.37,-0.496 2.3743,-0.496 h 1.1704 v -0.9462 H 65.2496 v 0.9462 H 66.42 c 1.0239,0 1.8422,0.1763 2.4676,0.5352 0.4521,0.2349 0.8044,0.646 1.0641,1.2205 0.1927,0.4111 0.2857,1.4812 0.2857,3.2109 v 26.6655 H 67.697 c -2.3743,0 -4.0969,-0.4896 -5.1744,-1.4752 -1.5032,-1.3771 -2.4604,-3.3412 -2.8533,-5.8929 h -0.9904 v 9.3586 z"
           style="fill:#254796;fill-opacity:1;fill-rule:evenodd;stroke:none"
           id="path18"
           inkscape:connector-curvature="0" /></g><g
         id="g20"><path
           d="m 47.1197,56.6374 h -3.6612 v 5.8827 h 3.6612 v 6.3726 l 7.3236,2.6912 v -9.0638 h 8.644 v -5.8827 h -8.644 V 42.8712 c 0,-2.251 0.3507,-3.8415 1.0608,-4.7719 0.7106,-0.9306 1.9406,-1.3909 3.7119,-1.3909 1.77,0 3.4214,0.4805 4.9516,1.4405 v -6.7424 c -1.7008,-0.5902 -4.1318,-0.8802 -7.2933,-0.8802 -3.1314,0 -5.542,0.8802 -7.2229,2.6504 -1.6906,1.7714 -2.5317,4.2919 -2.5317,7.5637 z m 59.0967,-25.511 v 19.6787 c 0,4.1318 -1.851,6.1923 -5.553,6.1923 -1.0902,0 -2.151,-0.3201 -3.1709,-0.9703 -1.0204,-0.6398 -1.7305,-1.3904 -2.141,-2.2306 V 31.1264 h -7.3236 v 20.8293 c 0,1.5406 -0.4802,2.7708 -1.4408,3.6816 -0.9598,0.9105 -2.3108,1.3601 -4.0516,1.3601 -0.9201,0 -1.9202,-0.3396 -3.0109,-1.0302 C 78.4437,55.2764 77.654,54.527 77.163,53.6964 v -22.57 H 69.84 v 31.3937 h 5.0426 l 1.5,-2.7612 c 2.0311,2.2405 4.6628,3.361 7.8835,3.361 4.172,0 7.3032,-1.1398 9.4144,-3.4214 0.9204,1.0406 2.2011,1.8706 3.8412,2.4911 1.6515,0.621 3.2919,0.9303 4.9326,0.9303 3.5016,0 6.2229,-0.9998 8.1638,-3.0008 1.9508,-2.0108 2.9211,-4.7622 2.9211,-8.2638 V 31.1264 Z m 43.2187,13.4456 h -22.4297 c 0.1398,-2.5008 1.0001,-4.4518 2.581,-5.8425 1.5809,-1.391 3.7117,-2.0806 6.3924,-2.0806 3.352,0 5.8932,0.8603 7.6343,2.5812 l 2.8409,-5.5826 c -2.5813,-2.0809 -6.4228,-3.1212 -11.545,-3.1212 -4.7823,0 -8.5637,1.4003 -11.3553,4.2114 -2.7808,2.8018 -4.172,6.7227 -4.172,11.7451 0,4.9524 1.5312,8.9637 4.5819,12.0359 3.062,3.0708 6.7232,4.6012 11.0049,4.6012 4.5522,0 8.2044,-1.3603 10.9557,-4.0819 2.7507,-2.721 4.1315,-6.1823 4.1315,-10.3841 0,-0.9009 -0.2107,-2.261 -0.6206,-4.0819 z m -22.1297,5.5227 h 15.3666 c -0.51,4.6023 -3.041,6.9027 -7.5935,6.9027 -4.1712,0 -6.7623,-2.3004 -7.7731,-6.9027 z M 157.0586,34.988 c 0,1.4604 0.51,2.7012 1.5407,3.7214 1.0304,1.0303 2.2711,1.5409 3.7417,1.5409 1.4703,0 2.7113,-0.5106 3.7417,-1.5409 1.0302,-1.0202 1.5407,-2.261 1.5407,-3.7214 0,-1.4706 -0.5105,-2.7212 -1.5407,-3.7516 -1.0304,-1.0307 -2.2714,-1.5503 -3.7417,-1.5503 -1.4706,0 -2.7113,0.5196 -3.7417,1.5503 -1.0307,1.0304 -1.5407,2.281 -1.5407,3.7516 z m 48.9113,9.584 h -22.43 c 0.1398,-2.5008 1.0004,-4.4518 2.581,-5.8425 1.5808,-1.391 3.7116,-2.0806 6.3926,-2.0806 3.352,0 5.8927,0.8603 7.6343,2.5812 l 2.8409,-5.5826 c -2.5812,-2.0809 -6.4227,-3.1212 -11.5452,-3.1212 -4.7821,0 -8.5635,1.4003 -11.3551,4.2114 -2.7807,2.8018 -4.1717,6.7227 -4.1717,11.7451 0,4.9524 1.531,8.9637 4.5816,12.0359 3.0614,3.0708 6.7232,4.6012 11.005,4.6012 4.5524,0 8.2037,-1.3603 10.9553,-4.0819 2.7513,-2.721 4.1315,-6.1823 4.1315,-10.3841 0,-0.9009 -0.2103,-2.261 -0.6202,-4.0819 z m -22.1298,5.5227 h 15.3663 c -0.5096,4.6023 -3.0407,6.9027 -7.5929,6.9027 -4.1714,0 -6.7626,-2.3004 -7.7734,-6.9027 z m 48.8412,-18.9683 v 2.641 c -1.0406,-0.8807 -2.4607,-1.6404 -4.2817,-2.281 -1.8207,-0.6398 -3.4917,-0.9601 -5.0122,-0.9601 -7.2933,0 -10.9344,3.8716 -10.9344,11.6144 v 20.3794 h 7.3227 V 42.6915 c 0,-4.032 1.8114,-6.0426 5.423,-6.0426 1.6707,0 3.2108,0.43 4.6417,1.2906 1.4208,0.8603 2.3707,1.8609 2.8409,2.9911 v 21.5895 h 7.3239 V 31.1264 Z"
           style="fill:#254796;fill-opacity:1;fill-rule:nonzero;stroke:none"
           id="path22"
           inkscape:connector-curvature="0" /><g
           id="g24"
           transform="scale(2.04019)"><path
             d="m 18.9989,41.0737 h 100.942"
             style="fill:none;stroke:#254796;stroke-width:1.59870005;stroke-linecap:butt;stroke-linejoin:miter;stroke-miterlimit:22.92558479;stroke-dasharray:none;stroke-opacity:1"
             id="path26"
             inkscape:connector-curvature="0" /></g></g></g></g></svg>