<?xml version="1.0" encoding="UTF-8" standalone="no"?>
<!-- Created with Inkscape (http://www.inkscape.org/) -->

<svg
   xmlns:dc="http://purl.org/dc/elements/1.1/"
   xmlns:cc="http://creativecommons.org/ns#"
   xmlns:rdf="http://www.w3.org/1999/02/22-rdf-syntax-ns#"
   xmlns:svg="http://www.w3.org/2000/svg"
   xmlns="http://www.w3.org/2000/svg"
   xmlns:sodipodi="http://sodipodi.sourceforge.net/DTD/sodipodi-0.dtd"
   xmlns:inkscape="http://www.inkscape.org/namespaces/inkscape"
   version="1.1"
   id="svg2"
   width="1054.9333"
   height="754.1333"
   viewBox="0 0 1054.9333 754.1333"
   sodipodi:docname="tme.svg"
   inkscape:version="0.92+devel unknown">
  <metadata
     id="metadata8">
    <rdf:RDF>
      <cc:Work
         rdf:about="">
        <dc:format>image/svg+xml</dc:format>
        <dc:type
           rdf:resource="http://purl.org/dc/dcmitype/StillImage" />
        <dc:title />
      </cc:Work>
    </rdf:RDF>
  </metadata>
  <defs
     id="defs6" />
  <sodipodi:namedview
     pagecolor="#ffffff"
     bordercolor="#666666"
     borderopacity="1"
     objecttolerance="10"
     gridtolerance="10"
     guidetolerance="10"
     inkscape:pageopacity="0"
     inkscape:pageshadow="2"
     inkscape:window-width="1680"
     inkscape:window-height="1013"
     id="namedview4"
     showgrid="false"
     inkscape:zoom="1.2517681"
     inkscape:cx="600.67506"
     inkscape:cy="391.23952"
     inkscape:window-x="0"
     inkscape:window-y="0"
     inkscape:window-maximized="1"
     inkscape:current-layer="svg2"
     inkscape:document-rotation="0" />
  <path
     inkscape:connector-curvature="0"
     id="path14"
     d="m 695.88588,752.44493 c 0.3561,-0.92798 0.6475,-14.84798 0.6475,-30.93333 v -29.24609 h 3.7333 c 3.0415,0 3.7333,0.40156 3.7333,2.1668 0,3.3668 2.8447,3.65517 6.4157,0.65038 8.0991,-6.81492 19.5468,-4.02764 24.6653,6.0055 3.3238,6.51518 3.1981,18.15915 -0.2698,24.98709 -4.6916,9.23752 -15.3888,12.38854 -23.1925,6.83176 -6.2353,-4.43987 -6.7833,-3.62439 -6.3797,9.49311 l 0.361,11.73464 -5.1807,-10e-4 c -4.2857,-10e-4 -5.069,-0.29283 -4.5334,-1.68856 z m 26.2475,-24.20999 c 8.0328,-4.01374 8.6676,-23.48549 0.942,-28.8967 -1.3659,-0.95667 -4.1898,-1.7394 -6.2754,-1.7394 -7.3981,0 -11.7333,5.91857 -11.7333,16.01871 0,11.69856 8.4404,18.92766 17.0667,14.61739 z m -608.09221,6.74446 c -8.7214,-2.64302 -13.0626,-9.52348 -13.1701,-20.8736 -0.057,-6.01058 0.4617,-8.52871 2.6218,-12.72784 7.8407,-15.24213 30.7612,-12.69978 35.2332,3.9081 0.6233,2.31479 0.9849,5.49213 0.8036,7.06075 l -0.3296,2.85203 -14.4,0.53333 -14.4,0.53334 -0.2887,2.66666 c -0.4533,4.18807 3.3319,9.30917 7.7906,10.54029 4.4187,1.22005 7.5675,0.33752 10.5301,-2.95121 2.0562,-2.28269 4.4065,-2.78798 7.4807,-1.60829 2.5707,0.98646 2.0288,3.14214 -1.5459,6.15007 -5.1751,4.35455 -13.553,5.96882 -20.3257,3.91637 z m 15.4716,-24.16135 c 3.2614,-1.25149 0.7281,-9.81153 -3.587,-12.12093 -3.3442,-1.78976 -9.1495,-1.2728 -12.1422,1.08127 -3.307,2.60127 -5.0034,9.27739 -2.7242,10.72092 1.6724,1.05921 15.8841,1.30469 18.4534,0.31874 z m 36.55001,23.69905 c -8.46831,-3.1526 -12.41591,-9.80356 -12.41591,-20.91826 0,-10.93721 3.6609,-17.29259 11.95791,-20.75932 7.8276,-3.27058 19.5812,-0.83826 23.5873,4.88123 2.5141,3.58943 2.164,4.94908 -1.4805,5.74953 -2.7034,0.59377 -3.716,0.17843 -6.2946,-2.58192 -4.2421,-4.54123 -10.6176,-4.65293 -15.0076,-0.26294 -5.36331,5.36324 -5.58401,18.52095 -0.4138,24.66535 4.8628,5.77914 13.7552,5.12926 17.0521,-1.24621 1.4307,-2.76678 1.9993,-3.03788 5.0163,-2.39182 1.8715,0.40075 3.6312,0.94108 3.9106,1.20075 1.1493,1.06854 -3.9526,8.39353 -7.1306,10.23765 -4.5738,2.65401 -13.6346,3.34196 -18.7812,1.42596 z m 47.7669,0.46678 c -4.5937,-1.862 -5.1534,-3.84286 -5.6381,-19.95314 -0.4539,-15.08768 -0.5251,-15.4782 -2.9949,-16.41721 -3.4522,-1.31253 -3.5465,-6.05529 -0.13,-6.5405 2.0006,-0.28412 2.4551,-1.10448 2.7307,-4.92879 0.2771,-3.84481 0.8818,-4.92394 3.7333,-6.66243 1.8715,-1.14098 3.8827,-1.91904 4.4694,-1.72903 0.5866,0.19001 1.3066,3.18811 1.6,6.66243 0.5251,6.21982 0.5866,6.3221 4,6.65121 3.0292,0.29207 3.4666,0.721 3.4666,3.39909 0,2.67809 -0.4374,3.10701 -3.4666,3.39908 l -3.4667,0.33425 -0.2978,14.15487 c -0.32,15.21259 -0.2877,15.30493 5.4583,15.59527 3.4477,0.17421 3.8606,5.46161 0.4969,6.36254 -3.2854,0.87995 -7.3084,0.74763 -9.9611,-0.32764 z m 74.8819,-0.22994 c -14.8139,-4.13859 -19.5731,-25.76024 -8.1782,-37.1551 8.0173,-8.01733 21.8241,-8.45336 30.3599,-0.95877 10.779,9.46408 8.6263,29.93423 -3.8243,36.36463 -4.7996,2.47891 -12.9617,3.25664 -18.3574,1.74924 z m 12.5852,-6.67107 c 6.861,-2.86672 9.8633,-13.78023 6.1192,-22.24421 -5.7057,-12.89876 -21.5573,-9.8933 -24.0515,4.56018 -1.6287,9.43799 4.4731,18.85033 12.4032,19.13238 1.0455,0.0372 3.5336,-0.61457 5.5291,-1.44835 z m 126.7101,6.78636 c -8.595,-2.6362 -14.0647,-13.27685 -12.709,-24.72375 1.6244,-13.71577 10.8902,-20.5403 25.0124,-18.42253 3.7365,0.56032 5.9228,1.72461 8.9809,4.78276 2.2232,2.22318 4.0422,4.55687 4.0422,5.18597 0,0.6291 -1.6039,1.44473 -3.5643,1.81249 -3.0273,0.56793 -4.0595,0.17348 -6.8513,-2.61833 -6.0512,-6.05119 -16.1391,-3.29176 -17.8722,4.88875 -0.3524,1.66334 -0.8257,3.93631 -1.0518,5.05106 -0.746,3.6779 1.5904,12.75219 3.9226,15.23468 4.7302,5.03504 13.3558,4.08151 16.6611,-1.84183 1.565,-2.80479 2.27,-3.18011 4.9892,-2.65631 1.7417,0.33549 3.5518,0.99505 4.0224,1.46569 1.2792,1.27919 -3.5101,7.77168 -7.4154,10.05249 -4.0539,2.36758 -13.3088,3.27888 -18.1668,1.78886 z m 80.1178,-0.32841 c -6.7431,-2.20756 -11.7587,-6.65038 -15.0316,-13.31516 -2.6086,-5.3118 -2.9583,-7.22903 -2.9478,-16.16015 0.01,-8.36427 0.4553,-11.11908 2.5513,-15.77974 4.8774,-10.84503 13.9376,-15.7578 27.6337,-14.9839 8.9175,0.50388 15.014,3.98447 18.316,10.45687 l 2.155,4.22421 -4.3667,1.17583 c -3.81,1.02592 -4.5538,0.92918 -5.8334,-0.75871 -0.8066,-1.06401 -1.4819,-2.30161 -1.5006,-2.75024 -0.088,-2.11963 -7.2767,-5.04325 -12.4095,-5.047 -12.6095,-0.01 -19.2482,11.36617 -17.0238,29.17004 2.2421,17.94506 21.5916,24.0887 30.1065,9.55909 1.8487,-3.15467 3.2861,-4.52365 4.3294,-4.12332 0.8589,0.32961 2.7318,0.89296 4.1619,1.25189 3.0898,0.77551 2.7439,3.00261 -1.4242,9.16746 -5.0022,7.39861 -18.7313,11.18172 -28.7162,7.91283 z m 61.3191,-0.15641 c -11.4562,-3.66537 -17.2017,-18.86311 -11.7054,-30.96303 6.8938,-15.17688 29.7111,-16.29482 38.6636,-1.89435 3.4349,5.52511 3.5834,16.9922 0.3015,23.27181 -4.5261,8.66002 -16.7346,12.95301 -27.2597,9.58557 z m 13.3752,-6.40281 c 4.89,-2.32043 7.4044,-7.18591 7.3978,-14.31496 -0.01,-7.47623 -2.3332,-12.04729 -7.3401,-14.42322 -7.6402,-3.6255 -15.1875,0.27341 -17.556,9.06932 -2.1805,8.09763 0.7017,16.58309 6.624,19.50177 4.4121,2.17443 6.5742,2.20766 10.8743,0.16709 z m 182.1338,6.42477 c -2.556,-0.79736 -5.8594,-2.56525 -7.3407,-3.92864 -9.1058,-8.38046 -8.7556,-26.28486 0.6693,-34.21536 10.2307,-8.60862 27.4381,-5.66238 33.2294,5.68956 4.9668,9.73566 3.5995,20.01735 -3.6223,27.23911 -6.4898,6.48987 -13.639,8.11551 -22.9357,5.21533 z m 16.3277,-9.06234 c 3.0781,-3.07811 3.2529,-3.70651 3.2529,-11.69567 0,-7.87951 -0.2082,-8.66005 -3.1202,-11.69953 -5.7098,-5.95973 -14.2422,-5.33645 -19.0408,1.39088 -3.1931,4.47646 -3.3432,15.69068 -0.2713,20.26807 4.4718,6.66323 13.4405,7.47513 19.1794,1.73625 z m 95.4273,9.63537 c -8.2736,-2.50733 -12.9454,-9.91735 -13.0265,-20.66185 -0.066,-8.79922 1.7355,-13.68974 6.6952,-18.17053 6.8321,-6.17243 17.5951,-6.38662 25.0798,-0.49914 3.8459,3.02521 6.8909,9.86782 6.9203,15.55096 l 0.023,4.53333 h -14.4334 c -11.8554,0 -14.5434,0.28623 -15.0484,1.60239 -1.677,4.37011 3.3697,11.50987 8.8803,12.56328 3.6964,0.70661 8.64,-1.07955 9.9949,-3.61119 1.1045,-2.06367 4.2191,-2.49452 7.818,-1.08145 1.8584,0.72967 1.757,1.07948 -1.3324,4.59818 -4.6404,5.28506 -13.8887,7.5042 -21.5712,5.17602 z m 15.4717,-24.16135 c 2.8499,-1.09362 2.0699,-6.6006 -1.4307,-10.10126 -5.8968,-5.89679 -15.7405,-3.23377 -17.7578,4.80403 -1.1651,4.64198 0.9647,5.94469 9.7191,5.94469 4.2802,0 8.5414,-0.29135 9.4694,-0.64746 z m 88.9789,23.9716 c -1.5628,-0.57241 -3.2194,-1.85452 -3.6812,-2.84912 -0.4618,-0.9946 -1.1031,-8.76836 -1.4251,-17.27502 -0.5686,-15.02385 -0.6541,-15.47643 -2.9854,-15.80752 -1.8502,-0.26278 -2.4,-1.03994 -2.4,-3.39248 0,-2.35255 0.5498,-3.12971 2.4,-3.39248 1.9728,-0.28019 2.4949,-1.17594 2.9333,-5.03275 0.4554,-4.0058 1.1183,-5.06092 4.5334,-7.21553 l 4,-2.52364 v 6.2022 c 0,6.95069 1.1613,8.7622 5.6175,8.7622 2.7062,0 3.0187,0.33706 2.72,2.93333 -0.2812,2.44353 -0.9158,2.9891 -3.8008,3.26733 -4.4153,0.42581 -4.8438,2.05522 -4.3691,16.61554 0.3898,11.95377 1.1083,13.71713 5.5895,13.71713 1.8018,0 2.9507,0.73613 3.4107,2.18538 1.352,4.2598 -5.569,6.35963 -12.5428,3.80543 z m 34.04082,-0.0107 c -4.5307,-1.27494 -10.3991,-6.24566 -10.3991,-8.80811 0,-1.2785 1.068,-1.70538 4.2666,-1.70538 2.3467,0 4.2667,0.48706 4.2667,1.08235 0,0.59529 1.56,2.03349 3.4667,3.19601 6.1638,3.75819 15.162,2.10272 16.4493,-3.02632 1.0736,-4.27756 -0.8672,-5.80807 -11.0877,-8.74382 -11.1398,-3.19981 -14.8823,-5.33347 -16.4247,-9.364 -1.4851,-3.88065 0.4328,-10.12207 3.9638,-12.89955 5.7638,-4.53381 21.4235,-4.19014 27.1103,0.59495 4.1245,3.47058 4.0382,5.32547 -0.2777,5.96639 -2.5918,0.38488 -4.2276,-0.12297 -6.4818,-2.01227 -7.3755,-6.18149 -21.861,-0.0402 -14.8515,6.29644 1.0266,0.92812 5.2266,2.52443 9.3333,3.54735 14.4237,3.59277 17.8909,6.14556 17.8909,13.17243 0,8.26162 -5.7614,12.89229 -16.776,13.48361 -3.5465,0.1904 -8.2486,-0.16054 -10.4491,-0.77986 z M 15.644474,734.22106 c -0.3911,-0.39111 -0.7111,-13.83111 -0.7111,-29.86667 v -29.15555 h 21.8667 21.866599 v 3.2 3.2 H 42.880074 c -10.8563,0 -16.1865,0.39975 -17.0667,1.28 -1.6708,1.67078 -1.6708,13.90255 0,15.57333 0.8724,0.87245 5.9883,1.28 16.0676,1.28 h 14.787599 l -0.3343,3.46667 -0.3342,3.46667 -15.466699,0.53333 -15.4667,0.53333 v 9.6 9.6 l 17.3334,0.29309 17.333299,0.29309 v 3.70691 3.70691 H 38.044474 c -11.9289,0 -22.0089,-0.32 -22.4,-0.71111 z m 61.8667,0 c -0.3911,-0.39111 -0.7111,-13.83111 -0.7111,-29.86667 v -29.15555 h 4.2666 4.2667 v 29.86667 29.86666 h -3.5556 c -1.9555,0 -3.8755,-0.32 -4.2666,-0.71111 z m 161.922006,-0.59164 c -0.3024,-0.78791 -0.4185,-10.29711 -0.2581,-21.13156 l 0.2916,-19.69902 3.4674,-0.3343 c 2.8903,-0.27867 3.6403,0.1207 4.5069,2.4 0.5718,1.50387 1.2255,2.7343 1.4526,2.7343 0.2272,0 2.2251,-1.44 4.4398,-3.2 6.2928,-5.00088 12.6183,-3.9245 10.6007,1.80386 -0.899,2.55238 -1.5548,2.94578 -4.4277,2.65611 -4.0356,-0.4069 -7.2339,1.13037 -9.0804,4.36448 -0.8223,1.44043 -1.5668,8.04395 -1.8911,16.77555 l -0.5348,14.4 -4.0086,0.33156 c -2.622,0.21687 -4.1987,-0.16397 -4.5583,-1.10098 z m 94.4335,-19.96619 v -21.39772 h 3.7334 c 3.0414,0 3.7333,0.40156 3.7333,2.1668 0,3.42016 2.7664,3.60578 6.8879,0.46217 4.85,-3.69928 11.7149,-4.58527 16.8067,-2.16908 6.0732,2.88193 6.7054,5.19151 6.7054,24.49646 v 17.17698 l -3.8824,0.32404 -3.8823,0.32404 -0.3897,-15.97714 c -0.3699,-15.16537 -0.5208,-16.11671 -2.9702,-18.72404 -1.9701,-2.09702 -3.6092,-2.73888 -6.928,-2.71298 -2.3911,0.0187 -5.0674,0.61867 -5.9474,1.33333 -4.366,3.54573 -4.794,5.18221 -5.3333,20.39297 l -0.5334,15.03978 -4,0.33106 -4,0.33105 z m 57.2445,20.55783 c -0.3911,-0.39111 -0.7111,-9.99111 -0.7111,-21.33334 v -20.62221 h 4.2666 4.2667 v 21.33333 21.33333 h -3.5556 c -1.9555,0 -3.8755,-0.32 -4.2666,-0.71111 z m 223.2888,-20.62222 v -21.33333 h 3.7334 c 2.9519,0 3.7333,0.42265 3.7333,2.01921 0,3.16273 2.6644,3.40346 6.4836,0.5858 6.5472,-4.8304 13.212,-4.74294 19.1472,0.25126 2.7602,2.32257 3.7232,2.62397 5.1489,1.61148 7.8218,-5.55492 12.6676,-6.57391 18.893,-3.97281 5.857,2.44724 6.8606,6.1927 6.8606,25.60413 v 16.56759 h -4.1915 -4.1916 l -0.3418,-16.42466 c -0.3921,-18.84432 -1.2181,-20.93687 -8.2404,-20.87475 -8.365,0.074 -10.768,5.41455 -10.768,23.93182 v 13.36759 h -4.1916 -4.1915 l -0.3418,-16.42466 c -0.389,-18.69577 -1.2403,-20.90867 -8.0439,-20.90867 -8.9448,0 -10.9645,4.31631 -10.9645,23.4324 v 13.90093 h -4.2667 -4.2667 z m 195.6998,20.03058 c -0.3023,-0.78791 -0.4184,-10.29711 -0.2581,-21.13156 l 0.2917,-19.69902 3.4673,-0.3343 c 2.8904,-0.27867 3.6404,0.1207 4.507,2.4 1.2884,3.38891 1.9133,3.39674 6.4085,0.0803 6.8635,-5.06377 16.7967,-4.49302 21.2933,1.2235 2.0136,2.55995 2.1905,4.24278 2.1905,20.83871 v 18.05388 l -4,-0.33105 -4,-0.33106 -0.5333,-16.15907 c -0.6179,-18.71995 -1.4339,-20.64093 -8.7688,-20.64093 -9.3522,0 -10.8164,2.78458 -11.4979,21.86666 l -0.5333,14.93334 -4.0086,0.33156 c -2.6219,0.21687 -4.1987,-0.16397 -4.5583,-1.10098 z m 108.7751,-0.0648 c -0.2886,-0.75222 -0.3936,-10.23222 -0.2332,-21.06667 l 0.2917,-19.69906 h 3.7333 c 3.0595,0 3.7949,0.43317 4.0742,2.4 0.4414,3.10781 1.8408,3.02626 6.7776,-0.39497 5.2412,-3.63211 11.9419,-4.34584 16.8667,-1.79655 5.8098,3.00738 6.3815,5.21045 6.3991,24.65591 l 0.016,17.39772 -4,-0.33105 -4,-0.33106 -0.5333,-16.15807 c -0.6254,-18.94791 -1.3782,-20.64193 -9.1725,-20.64193 -9.5762,0 -11.9204,5.22532 -12.083,26.93333 l -0.078,10.4 h -3.7668 c -2.0799,0 -4.0018,-0.61249 -4.2916,-1.36765 z m -527.7637,-51.61023 c -0.3911,-0.3911 -0.7111,-2.0711 -0.7111,-3.73333 0,-2.81482 0.2928,-3.02222 4.2666,-3.02222 4.1651,0 4.2667,0.0888 4.2667,3.73333 0,3.52 -0.2032,3.73334 -3.5556,3.73334 -1.9555,0 -3.8755,-0.32 -4.2666,-0.71112 z m -43.3778,-140.52195 v -83.63308 l -8.8,-7.94207 c -4.84,-4.36814 -39.9421,-35.38075 -78.0047,-68.91692 l -69.2047,-60.97486 -95.862106,0.28334 -95.86210019531,0.28334 1e-4,-160.26666 1.99999997e-4,-160.26671561 181.066606195313,-1e-4 181.0667,-2e-4 -0.2854,84.70959961 -0.2855,84.709536 77.5506,68.35726 77.5506,68.35728 h 10.8325 10.8326 l 77.521,-68.36129 77.5211,-68.36129 -0.2854,-84.705496 -0.2855,-84.70559961 181.0667,2e-4 181.06672,1e-4 1e-4,160.26671561 10e-5,160.26666 -95.86262,-0.28334 -95.8627,-0.28334 -77.7375,68.56396 -77.7374,68.56394 -0.2732,83.98605 -0.2731,83.98605 h -179.7268 -179.7269 z m 345.0666,-75.83359 V 320.53219 h -165.3333 -165.3333 l -0.2742,143.99999 c -0.1509,79.2 -0.045,144.60151 0.2344,145.3367 0.4053,1.06481 34.0897,1.28177 165.6076,1.06667 l 165.0988,-0.27004 z m -239.4738,85.68167 c 7.8194,-1.11582 12.0888,-3.23522 15.3624,-7.62603 2.2252,-2.98477 2.2472,-3.65853 2.5196,-77.33333 0.27,-73.0441 0.2375,-74.38299 -1.8887,-77.85099 -2.7813,-4.53634 -9.5443,-7.6176 -16.7861,-7.64789 -3.08,-0.0129 -5.6,-0.50673 -5.6,-1.09744 0,-0.71317 24.6395,-0.98195 73.3333,-0.8 l 73.3333,0.27401 0.2867,24.26667 c 0.1577,13.34666 -0.131,24.26666 -0.6416,24.26666 -0.5107,0 -1.7552,-3.05417 -2.7656,-6.78706 -4.1403,-15.29557 -10.2649,-23.58294 -21.691,-29.35083 -9.0997,-4.59352 -16.4241,-5.61676 -37.5885,-5.25119 l -18.6666,0.32242 v 36.8 36.8 l 8.5333,-0.0645 c 6.5395,-0.0494 9.5538,-0.5955 12.901,-2.33716 8.9246,-4.64381 14.8676,-14.44101 18.0211,-29.70807 0.95,-4.59899 1.9411,-8.57571 2.2026,-8.83715 0.2614,-0.2614 0.4753,19.7647 0.4753,44.50247 0,24.73778 -0.1918,44.97778 -0.4262,44.97778 -0.2345,0 -1.2462,-3.72 -2.2483,-8.26667 -3.2023,-14.52943 -9.5581,-24.96801 -17.7457,-29.14497 -5.0092,-2.55551 -17.6579,-4.3627 -20.4349,-2.91965 -1.8003,0.93556 -1.9014,3.1343 -1.6,34.79831 0.3595,37.76217 0.3397,37.66018 8.0017,41.29601 3.2538,1.54403 6.3748,1.74312 21.0042,1.33988 15.164,-0.41799 18.1714,-0.81325 25.6,-3.36468 10.1388,-3.48227 18.3931,-8.76855 24.1256,-15.45064 4.5207,-5.26963 10.6299,-16.20972 12.7435,-22.82093 1.4779,-4.62234 3.452,-5.41477 2.6574,-1.06666 -0.7412,4.05554 -6.8773,47.23349 -6.8773,48.39315 0,0.53495 -32.9866,0.88343 -76.5333,0.80852 -51.7627,-0.0891 -74.2917,-0.45154 -69.6072,-1.12 z M 347.47058,161.71281 c 0.1982,-105.450896 -0.05,-144.272696 -0.9306,-145.333296 -1.0018,-1.2071 -28.3412,-1.4473 -164.7277,-1.4473 -147.238306,0 -163.693506,0.1669 -165.202706,1.6762 -1.5071,1.507 -1.6762,16.029 -1.6762,143.912736 0,78.2301 0.2919,142.99732 0.6487,143.92715 0.5889,1.53456 15.9213,1.66566 166.133406,1.42057 l 165.4846,-0.27001 z m -203.77721,81.41981 c 8.7539,-1.13922 13.6118,-3.57864 16.5565,-8.31398 l 2.41681,-3.88645 0.3118,-74.13333 c 0.1715,-40.77334 0.042,-75.213346 -0.287,-76.533346 -0.5763,-2.3098 -1.0462,-2.4 -12.50851,-2.4 -16.1723,0 -22.729,1.9065 -30.2748,8.8029 -6.0914,5.567202 -10.9597,14.176206 -13.3075,23.533006 -0.7494,2.9864 -1.6846,4.7401 -2.2346,4.1902 -0.5201,-0.5202 -0.8153,-10.5114 -0.6559,-22.202604 l 0.2899,-21.256802 h 78.93331 78.9333 l 0.2883,22.133302 c 0.1892,14.526204 -0.086,22.133304 -0.8,22.133304 -0.5985,0 -1.0883,-0.4549 -1.0883,-1.0109 0,-0.556 -1.492,-5.1342 -3.3155,-10.1737 -3.8761,-10.712304 -10.4038,-18.730306 -18.6968,-22.965906 -4.7938,-2.4483 -6.3214,-2.6495 -20.121,-2.6495 h -14.9333 v 76.266716 c 0,70.96062 0.1314,76.50712 1.8886,79.72287 2.4067,4.40416 8.7911,7.66176 17.1519,8.75159 3.969,0.51735 -11.554,0.85502 -39.3072,0.85502 -28.08771,0 -43.29801,-0.33428 -39.24001,-0.86239 z m 895.65923,61.31233 c 0.3561,-0.92798 0.6475,-65.6937 0.6475,-143.9238 0,-127.883736 -0.1692,-142.405736 -1.6762,-143.912736 -1.5093,-1.5093 -17.957,-1.6762 -165.12012,-1.6762 -125.7007,0 -163.7393,0.2956 -164.7238,1.28 -0.9828,0.9829 -1.28,34.6153 -1.28,144.888866 0,78.98489 0.32,143.92889 0.7112,144.32 0.3911,0.39111 74.9797,0.71111 165.7525,0.71111 149.51222,0 165.10242,-0.15875 165.68892,-1.68724 z M 758.39998,245.98587 c 10.1161,-2.24313 14.5401,-5.43243 17.5594,-12.65846 1.4202,-3.39921 1.6406,-13.39301 1.6406,-74.39521 0,-57.63168 -0.2691,-71.112786 -1.4776,-74.004986 -2.0715,-4.9579 -7.7762,-8.14 -16.3912,-9.1432 -4.6911,-0.5462 5.2468,-0.8775 28.5355,-0.9513 l 35.7333,-0.1131 24.4589,56.485136 c 13.4524,31.06684 24.9109,56.93717 25.4633,57.48962 0.5525,0.55245 1.6053,0.77388 2.3397,0.49208 0.7344,-0.28181 12.0759,-26.15819 25.2033,-57.50308 l 23.8682,-56.990756 35.2,0.1324 c 20.8552,0.078 32.5918,0.4528 28.8,0.9187 -3.52,0.4325 -7.6426,1.2855 -9.1613,1.8956 -4.704,1.8897 -8.213,7.0928 -8.9572,13.2819 -0.3711,3.086002 -0.5263,36.896176 -0.3448,75.133636 0.3263,68.75193 0.3548,69.55602 2.5748,72.53333 3.301,4.42717 7.9689,6.74816 15.5511,7.73232 4.2097,0.54642 -10.2703,0.87266 -38.596,0.86958 -27.5081,-0.003 -42.4941,-0.33535 -38.1127,-0.84527 8.8854,-1.03407 13.2303,-3.46002 16.142,-9.01262 2.1982,-4.19191 2.2423,-5.50933 2.516,-75.19999 0.1623,-41.34798 -0.1264,-71.554286 -0.6924,-72.422086 -0.534,-0.8188 -1.6193,-1.2361 -2.4119,-0.9273 -0.7925,0.3089 -16.5359,35.929196 -34.9854,79.156296 -18.4494,43.22711 -33.8833,78.80423 -34.2976,79.06027 -0.4143,0.25604 -4.9145,-9.01433 -10.0005,-20.60083 -5.086,-11.58649 -20.612,-46.98004 -34.5023,-78.65232 -18.1525,-41.39061 -25.7801,-57.686916 -27.1218,-57.944916 -1.7625,-0.3389 -1.8667,3.555602 -1.8667,69.782566 0,69.29673 0.027,70.19772 2.2626,74.81526 2.8537,5.89495 8.1065,9.40703 16.9654,11.34306 6.5572,1.43303 5.4265,1.51001 -22.428,1.52682 -25.5449,0.0155 -28.5756,-0.1503 -23.4667,-1.28315 z m 147.1111,346.9911 c -13.3023,-1.4719 -24.303,-9.41138 -30.5479,-22.04709 -3.7835,-7.65527 -4.027,-8.74397 -3.9836,-17.80905 0.063,-13.25362 2.8457,-20.20061 11.5938,-28.94866 8.7613,-8.76139 15.7228,-11.55334 28.8933,-11.58798 8.5866,-0.0226 10.3545,0.3308 16.7474,3.34739 8.7643,4.13558 15.5122,10.69769 19.6069,19.06699 2.8205,5.76489 3.0994,7.34078 3.1056,17.55024 0.01,10.5047 -0.2133,11.66391 -3.4598,18.26407 -7.7125,15.67918 -23.7925,24.17384 -41.9557,22.16409 z m 21.7123,-6.67903 c 7.569,-3.70318 13.783,-9.93419 17.5432,-17.59119 2.5789,-5.25134 2.9668,-7.29938 2.9668,-15.66367 0,-8.72256 -0.3279,-10.2884 -3.5059,-16.74385 -6.528,-13.2603 -18.0123,-20.27517 -33.3558,-20.37451 -14.5853,-0.0944 -26.8458,7.86727 -33.3766,21.67413 -2.6783,5.66228 -3.2829,8.30215 -3.298,14.4 -0.041,16.69705 8.0313,28.76412 23.6485,35.3495 8.556,3.60789 20.7475,3.17198 29.3778,-1.05041 z m -32.8478,-12.64472 c -0.3073,-0.80099 -0.4276,-10.3209 -0.2672,-21.15536 l 0.2916,-19.69901 h 12.622 12.6219 l 3.1114,3.48349 c 5.0739,5.68074 3.3692,13.29927 -3.7296,16.66789 -2.0543,0.9748 -3.9849,2.1767 -4.2904,2.67089 -0.3054,0.49418 1.0281,2.52881 2.9632,4.52139 4.2316,4.3571 9.777,13.53643 8.78,14.53345 -1.3004,1.30041 -4.2796,-1.4885 -7.562,-7.079 -4.5804,-7.80123 -8.4143,-11.50813 -12.7419,-12.32 -6.6378,-1.24525 -7.9122,0.33533 -8.265,10.2506 -0.2056,5.77742 -0.7572,8.84778 -1.6423,9.1408 -0.7331,0.24267 -1.5843,-0.21413 -1.8917,-1.01514 z m 24.5872,-24.34867 c 3.4605,-3.25103 3.4508,-7.7891 -0.024,-11.26408 -2.4706,-2.47052 -3.293,-2.63918 -11.4667,-2.35151 l -8.8053,0.30989 -0.32,6.75979 c -0.4428,9.35457 0.4089,10.15106 10.1839,9.52374 6.2621,-0.40187 8.3135,-0.98745 10.4322,-2.97783 z"
     style="fill:#2956a4;stroke-width:1.0666666" />
</svg>
