<?xml version="1.0" encoding="UTF-8" standalone="no"?>
<!-- Created with Inkscape (http://www.inkscape.org/) -->

<svg
   xmlns:dc="http://purl.org/dc/elements/1.1/"
   xmlns:cc="http://creativecommons.org/ns#"
   xmlns:rdf="http://www.w3.org/1999/02/22-rdf-syntax-ns#"
   xmlns:svg="http://www.w3.org/2000/svg"
   xmlns="http://www.w3.org/2000/svg"
   xmlns:sodipodi="http://sodipodi.sourceforge.net/DTD/sodipodi-0.dtd"
   xmlns:inkscape="http://www.inkscape.org/namespaces/inkscape"
   version="1.1"
   id="svg2"
   xml:space="preserve"
   width="250"
   height="76.89608"
   viewBox="0 0 249.99999 76.896081"
   sodipodi:docname="xunta-galicia [Converted].svg"
   inkscape:version="0.92.2 (5c3e80d, 2017-08-06)"><metadata
     id="metadata8"><rdf:RDF><cc:Work
         rdf:about=""><dc:format>image/svg+xml</dc:format><dc:type
           rdf:resource="http://purl.org/dc/dcmitype/StillImage" /><dc:title></dc:title></cc:Work></rdf:RDF></metadata><defs
     id="defs6"><clipPath
       clipPathUnits="userSpaceOnUse"
       id="clipPath44"><path
         d="M 0,56.692 H 113.386 V 0 H 0 Z"
         id="path42"
         inkscape:connector-curvature="0" /></clipPath></defs><sodipodi:namedview
     pagecolor="#ffffff"
     bordercolor="#666666"
     borderopacity="1"
     objecttolerance="10"
     gridtolerance="10"
     guidetolerance="10"
     inkscape:pageopacity="0"
     inkscape:pageshadow="2"
     inkscape:window-width="1920"
     inkscape:window-height="1148"
     id="namedview4"
     showgrid="false"
     fit-margin-top="0"
     fit-margin-left="0"
     fit-margin-right="0"
     fit-margin-bottom="0"
     inkscape:zoom="2.8707247"
     inkscape:cx="11.234431"
     inkscape:cy="17.436267"
     inkscape:window-x="-8"
     inkscape:window-y="-8"
     inkscape:window-maximized="1"
     inkscape:current-layer="g10" /><g
     id="g10"
     inkscape:groupmode="layer"
     inkscape:label="xunta-galicia [Converted]"
     transform="matrix(1.3333333,0,0,-1.3333333,-18.897333,97.254743)"><path
       d="M 14.173,72.941059 H 57.432005 V 15.269 H 14.173 Z"
       style="fill:#00adef;fill-opacity:1;fill-rule:nonzero;stroke:none;stroke-width:2.20484233"
       id="path12"
       inkscape:connector-curvature="0" /><g
       id="g14"
       transform="matrix(2.2048422,0,0,2.2048422,24.277572,52.782627)"><path
         d="M 0,0 V -0.984 H -0.984 V 0 h -0.984 v 0.984 h 0.984 V 1.968 H 0 V 0.984 H 0.983 V 0 Z"
         style="fill:#ffffff;fill-opacity:1;fill-rule:nonzero;stroke:none"
         id="path16"
         inkscape:connector-curvature="0" /></g><g
       id="g18"
       transform="matrix(2.2048422,0,0,2.2048422,24.277572,40.096185)"><path
         d="M 0,0 V -0.985 H -0.984 V 0 h -0.984 v 0.982 h 0.984 V 1.967 H 0 V 0.982 H 0.983 V 0 Z"
         style="fill:#ffffff;fill-opacity:1;fill-rule:nonzero;stroke:none"
         id="path20"
         inkscape:connector-curvature="0" /></g><g
       id="g22"
       transform="matrix(2.2048422,0,0,2.2048422,24.277572,27.485149)"><path
         d="M 0,0 V -0.983 H -0.984 V 0 h -0.984 v 0.983 h 0.984 V 1.969 H 0 V 0.983 H 0.983 V 0 Z"
         style="fill:#ffffff;fill-opacity:1;fill-rule:nonzero;stroke:none"
         id="path24"
         inkscape:connector-curvature="0" /></g><g
       id="g26"
       transform="matrix(2.2048422,0,0,2.2048422,49.48884,52.782627)"><path
         d="M 0,0 V -0.984 H -0.985 V 0 h -0.984 v 0.984 h 0.984 V 1.968 H 0 V 0.984 H 0.983 V 0 Z"
         style="fill:#ffffff;fill-opacity:1;fill-rule:nonzero;stroke:none"
         id="path28"
         inkscape:connector-curvature="0" /></g><g
       id="g30"
       transform="matrix(2.2048422,0,0,2.2048422,49.48884,40.096185)"><path
         d="M 0,0 V -0.985 H -0.985 V 0 h -0.984 v 0.982 h 0.984 V 1.967 H 0 V 0.982 H 0.983 V 0 Z"
         style="fill:#ffffff;fill-opacity:1;fill-rule:nonzero;stroke:none"
         id="path32"
         inkscape:connector-curvature="0" /></g><g
       id="g34"
       transform="matrix(2.2048422,0,0,2.2048422,49.48884,27.485149)"><path
         d="M 0,0 V -0.983 H -0.985 V 0 h -0.984 v 0.983 h 0.984 V 1.969 H 0 V 0.983 H 0.983 V 0 Z"
         style="fill:#ffffff;fill-opacity:1;fill-rule:nonzero;stroke:none"
         id="path36"
         inkscape:connector-curvature="0" /></g><g
       id="g38"
       transform="matrix(2.2048422,0,0,2.2048422,-17.076229,-18.396736)"><g
         id="g40"
         clip-path="url(#clipPath44)"><g
           id="g46"
           transform="translate(20.7129,26.5527)"><path
             d="M 0,0 C 0,-0.797 0.249,-1.496 0.748,-2.095 1.247,-2.689 1.869,-3.065 2.617,-3.216 2.667,-3.462 2.691,-3.65 2.691,-3.774 2.792,-4.696 2.667,-5.568 2.318,-6.391 1.993,-7.213 1.509,-7.91 0.86,-8.483 c -0.024,0 -0.037,-0.026 -0.037,-0.075 0,-0.075 0.037,-0.111 0.112,-0.111 h 4.672 c 0.074,0 0.112,0.036 0.112,0.111 0,0.049 -0.013,0.075 -0.038,0.075 -0.648,0.573 -1.146,1.27 -1.495,2.092 -0.324,0.823 -0.436,1.695 -0.335,2.617 0,0.124 0.025,0.312 0.074,0.558 0.747,0.151 1.371,0.527 1.868,1.121 0.498,0.599 0.748,1.298 0.748,2.095 v 0.111 c 0,0.051 -0.038,0.076 -0.112,0.076 H 0.113 C 0.038,0.187 0,0.162 0,0.111 Z"
             style="fill:#ffffff;fill-opacity:1;fill-rule:nonzero;stroke:none"
             id="path48"
             inkscape:connector-curvature="0" /></g><g
           id="g50"
           transform="translate(22.3574,28.8311)"><path
             d="M 0,0 C 0,0.897 0.729,1.624 1.626,1.624 2.523,1.624 3.252,0.897 3.252,0 3.252,-0.898 2.523,-1.627 1.626,-1.627 0.729,-1.627 0,-0.898 0,0"
             style="fill:#ffffff;fill-opacity:1;fill-rule:nonzero;stroke:none"
             id="path52"
             inkscape:connector-curvature="0" /></g><g
           id="g54"
           transform="translate(24.4775,32.2852)"><path
             d="M 0,0 V -0.984 H -0.984 V 0 h -0.985 v 0.984 h 0.985 V 1.968 H 0 V 0.984 H 0.983 V 0 Z"
             style="fill:#ffffff;fill-opacity:1;fill-rule:nonzero;stroke:none"
             id="path56"
             inkscape:connector-curvature="0" /></g><g
           id="g58"
           transform="translate(23.8154,40.1182)"><path
             d="M 0,0 V -0.264 H -0.262 V -0.561 H 0 v -0.261 h 0.337 v 0.261 h 0.261 v 0.297 H 0.337 V 0 Z"
             style="fill:#ffffff;fill-opacity:1;fill-rule:nonzero;stroke:none"
             id="path60"
             inkscape:connector-curvature="0" /></g><g
           id="g62"
           transform="translate(21.2373,36.1563)"><path
             d="m 0,0 h 0.522 l -0.747,1.048 c -0.1,0.198 -0.15,0.36 -0.15,0.485 0,0.223 0.075,0.411 0.226,0.559 0.172,0.176 0.385,0.262 0.634,0.262 0.15,0 0.249,-0.01 0.299,-0.036 C 0.709,2.117 0.672,1.931 0.672,1.756 0.672,1.507 0.722,1.297 0.821,1.122 L 1.457,0 H 1.942 L 1.194,1.309 C 1.12,1.459 1.083,1.607 1.083,1.756 c 0,0.224 0.074,0.414 0.225,0.562 0.172,0.174 0.373,0.261 0.597,0.261 0.274,0 0.486,-0.1 0.635,-0.299 V 0 h 0.411 v 2.28 c 0.15,0.199 0.362,0.299 0.635,0.299 0.225,0 0.412,-0.087 0.561,-0.261 C 4.322,2.17 4.409,1.98 4.409,1.756 4.409,1.607 4.372,1.459 4.297,1.309 L 3.549,0 H 4.034 L 4.671,1.122 C 4.77,1.297 4.82,1.507 4.82,1.756 c 0,0.175 -0.039,0.361 -0.112,0.562 0.073,0.026 0.174,0.036 0.3,0.036 0.249,0 0.448,-0.086 0.596,-0.262 C 5.78,1.944 5.866,1.756 5.866,1.533 5.866,1.408 5.816,1.246 5.718,1.048 L 4.97,0 h 0.523 l 0.561,0.823 c 0.149,0.175 0.223,0.411 0.223,0.71 0,0.348 -0.124,0.637 -0.373,0.86 C 5.654,2.641 5.355,2.767 5.008,2.767 4.809,2.767 4.621,2.729 4.447,2.654 4.223,2.878 3.936,2.99 3.586,2.99 3.238,2.99 2.964,2.89 2.766,2.692 2.516,2.89 2.229,2.99 1.905,2.99 1.556,2.99 1.27,2.878 1.045,2.654 0.846,2.729 0.659,2.767 0.485,2.767 0.136,2.767 -0.162,2.641 -0.412,2.393 -0.661,2.17 -0.785,1.881 -0.785,1.533 c 0,-0.299 0.074,-0.535 0.223,-0.71 z"
             style="fill:#ffffff;fill-opacity:1;fill-rule:nonzero;stroke:none"
             id="path64"
             inkscape:connector-curvature="0" /></g><g
           id="g66"
           transform="translate(21.3857,35.7461)"><path
             d="M 0,0 0.075,-0.411 H 5.12 L 5.194,0 Z"
             style="fill:#ffffff;fill-opacity:1;fill-rule:nonzero;stroke:none"
             id="path68"
             inkscape:connector-curvature="0" /></g><g
           id="g70"
           transform="translate(68.207,38.0059)"><path
             d="m 0,0 c -0.246,0.026 -0.527,0.038 -0.844,0.038 h -0.862 v -4.619 c 0,-0.416 0.023,-0.831 0.073,-1.246 0.082,-0.441 0.185,-0.792 0.335,-1.214 h -1.978 c 0.154,0.423 0.255,0.775 0.337,1.22 0.049,0.412 0.072,0.825 0.072,1.24 V 0.038 H -3.728 C -4.045,0.038 -4.327,0.026 -4.572,0 -4.935,-0.032 -5.269,-0.164 -5.602,-0.307 V 1.14 H 1.029 V -0.307 C 0.697,-0.164 0.363,-0.032 0,0"
             style="fill:#231f20;fill-opacity:1;fill-rule:nonzero;stroke:none"
             id="path72"
             inkscape:connector-curvature="0" /></g><g
           id="g74"
           transform="translate(61.4238,36.6836)"><path
             d="m 0,0 v -4.296 c 0,-0.172 0.014,-0.391 0.037,-0.657 0.03,-0.298 0.085,-0.488 0.19,-0.766 h -1.338 c -0.168,0.344 -0.412,0.704 -0.637,1.014 l -3.705,5.091 v -3.645 c 0,-0.416 0.023,-0.831 0.073,-1.246 0.083,-0.44 0.185,-0.793 0.337,-1.216 h -1.979 c 0.151,0.424 0.253,0.778 0.336,1.22 0.049,0.414 0.074,0.826 0.074,1.242 v 4.297 c 0,0.17 -0.014,0.389 -0.037,0.656 -0.03,0.299 -0.085,0.493 -0.191,0.769 h 1.415 c 0.168,-0.349 0.411,-0.702 0.636,-1.017 l 3.63,-5.004 V 0 c 0,0.416 -0.024,0.832 -0.072,1.246 -0.083,0.441 -0.186,0.794 -0.337,1.217 H 0.41 C 0.258,2.037 0.156,1.686 0.074,1.243 0.024,0.829 0,0.416 0,0"
             style="fill:#231f20;fill-opacity:1;fill-rule:nonzero;stroke:none"
             id="path76"
             inkscape:connector-curvature="0" /></g><g
           id="g78"
           transform="translate(47.0781,36.6846)"><path
             d="M 0,0 C 0,0.417 -0.023,0.832 -0.072,1.246 -0.155,1.687 -0.257,2.038 -0.409,2.462 H 1.57 C 1.418,2.038 1.316,1.685 1.234,1.242 1.185,0.828 1.16,0.415 1.16,0 v -0.755 -2.057 c 0,-1.035 0.842,-1.877 1.878,-1.877 1.037,0 1.877,0.842 1.877,1.877 V -0.758 0 C 4.915,0.417 4.892,0.832 4.841,1.246 4.759,1.687 4.657,2.038 4.505,2.462 H 6.483 C 6.333,2.038 6.23,1.685 6.147,1.242 6.098,0.828 6.075,0.415 6.075,0 v -0.755 -2.057 c 0,-1.675 -1.36,-3.036 -3.037,-3.036 -1.677,0 -3.037,1.361 -3.037,3.036 v 2.057 z"
             style="fill:#231f20;fill-opacity:1;fill-rule:nonzero;stroke:none"
             id="path80"
             inkscape:connector-curvature="0" /></g><g
           id="g82"
           transform="translate(38.8672,39.1465)"><path
             d="M 0,0 H 1.95 C 1.987,-0.155 2.022,-0.31 2.063,-0.462 2.124,-0.643 2.196,-0.809 2.467,-1.237 2.713,-1.611 3.402,-2.588 3.64,-2.925 l 1.079,1.688 C 4.881,-0.993 4.984,-0.806 5.037,-0.67 5.12,-0.459 5.156,-0.224 5.19,0 H 6.991 C 6.712,-0.333 6.453,-0.67 6.222,-1.038 c 0,0 -1.481,-2.281 -1.875,-2.888 L 6.535,-7.154 C 6.936,-7.696 7.417,-8.182 7.417,-8.182 H 5.205 c 0.047,0.39 0.057,0.617 -0.177,0.985 -0.017,0.037 -1.39,2.24 -1.39,2.24 L 2.6,-6.431 C 2.21,-7.049 1.971,-7.465 1.796,-8.182 l -1.887,-0.002 c 0.651,0.683 1.205,1.455 1.715,2.246 l 1.325,1.97 -1.622,2.3 C 0.694,-0.742 0,0 0,0"
             style="fill:#231f20;fill-opacity:1;fill-rule:nonzero;stroke:none"
             id="path84"
             inkscape:connector-curvature="0" /></g><g
           id="g86"
           transform="translate(74.3115,38.0371)"><path
             d="m 0,0 c -0.199,0.062 -0.532,0.115 -0.865,0.116 -0.849,0.003 -1.496,-0.233 -2.042,-0.709 -0.495,-0.43 -0.796,-1.032 -0.816,-1.886 H 0 Z m 1.354,-6.996 0.03,-0.078 h -1.613 c 0.106,0.278 0.162,0.471 0.189,0.767 0.028,0.27 0.038,0.486 0.038,0.66 L 0,-3.58 h -3.724 v -1.357 -0.726 c 0.013,-0.477 0.053,-0.94 0.113,-1.411 h -1.683 c 0.154,0.424 0.256,0.778 0.338,1.221 0.051,0.414 0.073,0.827 0.073,1.245 v 0.814 0.273 0.931 c 0,1.11 0.341,2.024 1.028,2.735 0.711,0.711 1.663,1.091 2.895,1.091 0.302,0 0.541,-0.008 0.853,-0.043 C 0.316,1.155 0.738,1.1 1.158,1.039 v -6.686 c 0,-0.174 0.01,-0.39 0.035,-0.66 0.026,-0.252 0.074,-0.452 0.161,-0.689"
             style="fill:#231f20;fill-opacity:1;fill-rule:nonzero;stroke:none"
             id="path88"
             inkscape:connector-curvature="0" /></g><g
           id="g90"
           transform="translate(97.8281,26.8984)"><path
             d="M 0,0 C -0.199,0.061 -0.532,0.114 -0.863,0.117 -1.713,0.118 -2.36,-0.118 -2.907,-0.594 -3.4,-1.025 -3.703,-1.626 -3.723,-2.479 H 0 Z m 1.354,-6.995 0.031,-0.081 h -1.612 c 0.105,0.281 0.159,0.473 0.188,0.769 C -0.014,-6.036 0,-5.818 0,-5.648 v 2.071 h -3.725 v -1.358 -0.728 c 0.015,-0.477 0.055,-0.938 0.116,-1.411 l -1.684,-0.002 c 0.152,0.428 0.256,0.78 0.338,1.223 0.05,0.415 0.072,0.829 0.072,1.242 v 0.817 0.274 0.931 c 0,1.107 0.34,2.022 1.029,2.734 0.709,0.709 1.664,1.091 2.895,1.091 0.302,0 0.54,-0.008 0.851,-0.042 C 0.316,1.156 0.737,1.099 1.158,1.037 v -6.685 c 0,-0.17 0.011,-0.388 0.036,-0.659 0.026,-0.252 0.074,-0.452 0.16,-0.688"
             style="fill:#231f20;fill-opacity:1;fill-rule:nonzero;stroke:none"
             id="path92"
             inkscape:connector-curvature="0" /></g><g
           id="g94"
           transform="translate(91.0625,25.5439)"><path
             d="M 0,0 V -3.257 C 0,-3.674 0.025,-4.089 0.075,-4.503 0.157,-4.944 0.259,-5.295 0.41,-5.721 h -1.976 c 0.151,0.426 0.254,0.779 0.336,1.222 0.049,0.414 0.072,0.827 0.072,1.242 V 0 c 0,0.417 -0.023,0.831 -0.072,1.246 -0.083,0.441 -0.185,0.795 -0.336,1.217 H 0.41 C 0.259,2.039 0.157,1.686 0.075,1.243 0.025,0.827 0,0.415 0,0"
             style="fill:#231f20;fill-opacity:1;fill-rule:nonzero;stroke:none"
             id="path96"
             inkscape:connector-curvature="0" /></g><g
           id="g98"
           transform="translate(79.4316,25.5439)"><path
             d="m 0,0 v -3.257 c 0,-0.417 0.022,-0.829 0.072,-1.246 0.083,-0.441 0.185,-0.792 0.336,-1.218 h -1.976 c 0.15,0.426 0.254,0.779 0.336,1.222 0.049,0.415 0.072,0.827 0.072,1.242 V 0 c 0,0.417 -0.023,0.831 -0.073,1.249 -0.081,0.438 -0.185,0.792 -0.335,1.215 H 0.408 C 0.257,2.039 0.155,1.686 0.071,1.243 0.022,0.83 0,0.415 0,0"
             style="fill:#231f20;fill-opacity:1;fill-rule:nonzero;stroke:none"
             id="path100"
             inkscape:connector-curvature="0" /></g><g
           id="g102"
           transform="translate(73.6299,25.5469)"><path
             d="m 0,0 v -4.57 h 0.857 c 0.416,0 0.832,0.022 1.247,0.072 0.442,0.083 0.795,0.185 1.218,0.335 L 3.32,-5.722 h -4.891 c 0.152,0.425 0.254,0.777 0.337,1.22 0.05,0.415 0.072,0.828 0.072,1.243 V 0 c 0,0.415 -0.025,0.829 -0.072,1.245 -0.083,0.442 -0.186,0.794 -0.337,1.218 H 0.407 C 0.255,2.038 0.154,1.684 0.071,1.241 0.022,0.828 0,0.414 0,0"
             style="fill:#231f20;fill-opacity:1;fill-rule:nonzero;stroke:none"
             id="path104"
             inkscape:connector-curvature="0" /></g><g
           id="g106"
           transform="translate(69.2783,26.8984)"><path
             d="M 0,0 C -0.198,0.061 -0.53,0.114 -0.863,0.114 -1.711,0.118 -2.359,-0.118 -2.906,-0.594 -3.4,-1.025 -3.701,-1.628 -3.723,-2.48 H 0 Z m 1.354,-6.996 0.031,-0.078 h -1.612 c 0.105,0.279 0.161,0.471 0.19,0.767 C -0.014,-6.036 0,-5.818 0,-5.648 v 2.071 h -3.723 v -1.358 -0.728 c 0.013,-0.477 0.054,-0.938 0.117,-1.411 h -1.685 c 0.151,0.427 0.254,0.778 0.336,1.221 0.051,0.415 0.073,0.828 0.073,1.242 v 0.817 0.274 0.931 c 0,1.107 0.342,2.022 1.028,2.734 0.711,0.709 1.664,1.091 2.895,1.091 0.304,0 0.542,-0.008 0.854,-0.042 C 0.317,1.156 0.739,1.099 1.159,1.037 v -6.685 c 0,-0.17 0.01,-0.388 0.035,-0.659 0.024,-0.253 0.074,-0.453 0.16,-0.689"
             style="fill:#231f20;fill-opacity:1;fill-rule:nonzero;stroke:none"
             id="path108"
             inkscape:connector-curvature="0" /></g><g
           id="g110"
           transform="translate(59.7256,24.5332)"><path
             d="m 0,0 c 0.472,-0.061 0.936,-0.101 1.41,-0.115 h 0.729 l 1.312,0.002 v -0.663 c 0,-2.659 -1.882,-4.06 -3.844,-4.06 -2.271,0.047 -4.116,1.908 -4.145,4.213 C -4.507,1.92 -2.28,3.921 0.294,3.56 1.331,3.414 2.197,2.926 2.895,2.154 L 2.245,0.802 c -0.599,0.969 -1.452,1.601 -2.638,1.601 -1.632,0 -2.966,-1.343 -2.991,-3.017 0.025,-1.683 1.359,-3.026 2.991,-3.026 1.441,0 2.532,0.912 2.661,2.425 H 2.095 1.871 C 1.555,-1.215 1.273,-1.227 1.028,-1.251 0.664,-1.283 0.333,-1.416 0.001,-1.56 Z"
             style="fill:#231f20;fill-opacity:1;fill-rule:nonzero;stroke:none"
             id="path112"
             inkscape:connector-curvature="0" /></g><g
           id="g114"
           transform="translate(50.7236,24.6475)"><path
             d="m 0,0 v -1.556 c -0.277,0.104 -0.471,0.16 -0.769,0.19 -0.234,0.019 -0.429,0.032 -0.589,0.035 h -1.52 v -2.336 h 2.044 c 0.287,0.002 0.545,0.015 0.77,0.037 0.363,0.033 0.696,0.165 1.027,0.308 v -1.5 h -5.407 c 0.152,0.425 0.255,0.776 0.337,1.218 0.048,0.416 0.073,0.829 0.073,1.244 v 3.259 c 0,0.415 -0.025,0.83 -0.073,1.246 C -4.19,2.584 -4.292,2.938 -4.444,3.36 H 0.963 V 1.858 C 0.632,1.999 0.299,2.133 -0.064,2.165 -0.309,2.191 -0.59,2.202 -0.907,2.202 h -1.971 v -2.43 h 1.452 c 0.171,0 0.39,0.013 0.657,0.038 C -0.353,-0.154 0,0 0,0"
             style="fill:#231f20;fill-opacity:1;fill-rule:nonzero;stroke:none"
             id="path116"
             inkscape:connector-curvature="0" /></g><g
           id="g118"
           transform="translate(40.4336,20.9824)"><path
             d="m 0,0 h 0.961 c 1.533,-0.005 2.772,1.305 2.772,2.932 0,1.63 -1.24,2.939 -2.755,2.939 L 0,5.872 Z m -1.229,0.062 c 0.049,0.416 0.072,0.829 0.072,1.243 v 3.259 c 0,0.415 -0.025,0.83 -0.073,1.247 -0.082,0.437 -0.184,0.792 -0.336,1.213 H 0.962 C 3.141,7.022 4.885,5.187 4.885,2.932 4.885,0.677 3.141,-1.156 0.978,-1.156 l -0.082,10e-4 h -2.462 c 0.152,0.424 0.254,0.777 0.337,1.217"
             style="fill:#231f20;fill-opacity:1;fill-rule:nonzero;stroke:none"
             id="path120"
             inkscape:connector-curvature="0" /></g><g
           id="g122"
           transform="translate(84.9844,20.8936)"><path
             d="M 0,0 C 1.185,0 2.036,0.63 2.635,1.601 L 3.286,0.251 C 2.586,-0.521 1.721,-1.009 0.685,-1.155 -1.89,-1.516 -4.116,0.484 -4.147,3.017 -4.116,5.561 -1.89,7.561 0.685,7.199 1.721,7.056 2.586,6.565 3.286,5.795 L 2.635,4.441 C 2.036,5.411 1.185,6.046 0,6.046 -1.635,6.046 -2.968,4.701 -2.991,3.025 -2.968,1.343 -1.635,0 0,0"
             style="fill:#231f20;fill-opacity:1;fill-rule:nonzero;stroke:none"
             id="path124"
             inkscape:connector-curvature="0" /></g></g></g></g></svg>